<svg xmlns="http://www.w3.org/2000/svg" width="59.079" height="70.78" viewBox="0 0 59.079 70.78">
  <g id="Grupo_937471" data-name="Grupo 937471" transform="translate(-761.111 -776.909)">
    <path id="Trazado_617278" data-name="Trazado 617278" d="M764.829,830.178c-.876.117-1.169-.045-1.493-.835a29.741,29.741,0,0,1-2.063-14.459,2.459,2.459,0,0,1,2.648-2.421q2.175-.028,4.351,0c.407.005.6-.036.585-.54-.04-1.795-.025-3.591-.009-5.386,0-.4-.037-.607-.54-.61a1.67,1.67,0,0,1-1.828-1.973c.131-1.836.276-3.672.472-5.5a4.4,4.4,0,0,1,2.342-3.532c.359-.2.359-.3.151-.631a4.59,4.59,0,0,1,3.132-7.055c.223-.044.447-.051.555-.325a4.655,4.655,0,0,1,2.381-2.459c-1.461-2.48-1.215-4.858.647-6.438a4.617,4.617,0,0,1,5.908-.075c1.93,1.569,2.2,3.9.739,6.522a4.862,4.862,0,0,1,2.175,1.994,5.041,5.041,0,0,1,2.228-2,4.7,4.7,0,0,1,.618-6.439,4.644,4.644,0,0,1,5.911-.085,4.7,4.7,0,0,1,.734,6.528,4.953,4.953,0,0,1,2.2,1.991,4.7,4.7,0,0,1,1.934-1.844c.487-.234.085-.438-.025-.618a4.63,4.63,0,0,1,7.5-5.4,4.532,4.532,0,0,1,.361,5.337c-.29.455-.223.6.217.827a4.09,4.09,0,0,1,1.82,2.007c.113.249.22.426.522.462a4.627,4.627,0,0,1,3.017,7.4c-.01.013-.006.036-.014.09,2.108.967,2.742,2.789,2.845,4.948.068,1.424.236,2.843.355,4.265a1.717,1.717,0,0,1-1.813,2.006c-.383.008-.573.062-.608.5-.043.542-.509.715-.963.851a1.38,1.38,0,0,1-.912-.557,1.8,1.8,0,0,1,1.57-2.85c.465,0,.653-.087.6-.6-.167-1.573-.271-3.154-.442-4.726a2.415,2.415,0,0,0-1.872-2.055,4.469,4.469,0,0,0-1.571-.063c-.919-.009-1.841-.06-2.757-.016a2.415,2.415,0,0,0-2.372,2.254c-.163,1.485-.234,2.981-.427,4.461-.083.64.078.769.687.749,1.341-.043,1.6.251,1.6,1.6,0,2.093.016,4.187-.009,6.279-.007.632.323.675.824.7.553.03.569-.242.566-.661-.014-2.208-.01-4.416,0-6.624,0-.856.329-1.3.962-1.347.618-.046.964.287,1.149,1.105q-.02,3.546-.044,7.093c0,.282.089.4.39.425.86.074.981-.024.989-.918.008-.98.184-1.223,1.077-1.485.911.312,1.05.459.98,1.607-.042.685.164.838.818.809,1.263-.057,2.53-.029,3.8-.014a2.445,2.445,0,0,1,2.672,2.464c.9,12.845-4.148,22.682-15.292,29.095-13.125,7.554-30.751,3.02-38.85-9.727a1.146,1.146,0,0,1,.181-1.651,1.2,1.2,0,0,1,1.625.592,26.925,26.925,0,0,0,5.255,5.908c.6.505.6.5.918-.231a4.038,4.038,0,0,1,5.15-2.106c1.339.545,2.674,1.1,4.014,1.644a2.609,2.609,0,0,0,1.945-.594c.3-.453-.131-.812-.243-1.208-.1-.35-.48-.4-.752-.557a2.394,2.394,0,0,1-.949-3.477c.879-1.429,1.806-2.828,2.715-4.238a2.166,2.166,0,0,1,1.437-1c1.581-.293,3.167-.58,4.761-.782a2.932,2.932,0,0,1,2.786,1.59,2.3,2.3,0,0,1-.056,2.662c-.242.391-.5.774-.738,1.165-.373.606-.327.738.353.87,2.1.408,4.2.8,6.294,1.208a.757.757,0,0,0,.827-.329c.491-.638,1.008-1.255,1.515-1.88.614-.755.917-.821,1.767-.391a1.2,1.2,0,0,1-.128,1.676c-.586.679-1.134,1.391-1.7,2.084a2.3,2.3,0,0,1-2.252.92c-2.4-.422-4.8-.838-7.174-1.366a2.349,2.349,0,0,1-1.46-3.552c.2-.36.455-.693.651-1.056.163-.3.583-.574.3-.973a1.14,1.14,0,0,0-1.241-.52c-1.216.243-2.445.423-3.67.618a1.019,1.019,0,0,0-.755.521c-.754,1.209-1.518,2.412-2.311,3.6-.306.457-.264.721.248.953a3.451,3.451,0,0,1,1.943,3.318c.053,1.346-.941,2-2.072,2.455-.149.06-.3.124-.44.2a2.639,2.639,0,0,1-2.328.038c-1.354-.569-2.716-1.118-4.07-1.688a1.785,1.785,0,0,0-.925-.051c-1.219.116-1.568,1.011-1.922,1.957-.106.284.011.372.2.483.691.411,1.366.852,2.076,1.226a25.563,25.563,0,0,0,9.6,2.994,22.336,22.336,0,0,0,7.55-.071,27.583,27.583,0,0,0,23.172-30.1c-.036-.374-.148-.62-.571-.611-1.47.032-2.942-.066-4.412.051-.182-.017-.364-.048-.546-.048q-17.784,0-35.568,0c-.14,0-.323-.094-.441.136,1.1,1.426,2.221,2.858,3.325,4.3.321.419.579.335.875-.026.54-.659,1.1-1.3,1.647-1.953a2.53,2.53,0,0,1,2.251-.961c1.446.111,2.889.291,4.336.323A3.019,3.019,0,0,1,791.748,818a4.076,4.076,0,0,0,4.086,2.5,1.355,1.355,0,0,0,.945-.251c1.792-1.631,4-2.6,6.065-3.792a2.313,2.313,0,0,1,2.189-.1c1.091.486,2.184.966,3.268,1.465a2.369,2.369,0,0,1,1.489,2.146c.055,1.057.091,2.116.146,3.173.2,3.839.329,2.982-1.842,5.728-.546.69-.849.752-1.667.412-.51-.741-.5-1.011.055-1.714q.6-.756,1.218-1.5a.942.942,0,0,0,.264-.681q-.124-2.55-.222-5.1a.688.688,0,0,0-.484-.667c-.947-.411-1.892-.829-2.825-1.271a.811.811,0,0,0-.835.055,32.571,32.571,0,0,0-5.754,3.634,2.334,2.334,0,0,1-1.928.557c-.866-.113-1.729-.249-2.6-.347a2.513,2.513,0,0,1-1.836-1.088c-.538-.746-1.088-1.483-1.612-2.238a.94.94,0,0,0-.779-.463c-1.491-.1-2.982-.219-4.47-.354a.87.87,0,0,0-.824.375q-.806.99-1.649,1.95a2.414,2.414,0,0,1-3.875-.084c-1.159-1.458-2.287-2.94-3.428-4.413a2.359,2.359,0,0,1-.506-.969.471.471,0,0,0-.553-.443q-4.9.025-9.8.006c-.426,0-.636.157-.655.6-.033.781-.122,1.56-.138,2.341a27.185,27.185,0,0,0,2.021,10.968C765.581,829.328,765.509,829.6,764.829,830.178Zm25.558-51.133a2.528,2.528,0,0,0,0,4.982,2.532,2.532,0,1,0,0-4.982Zm5.823,15.238a5.683,5.683,0,0,0,.749.034,2.559,2.559,0,0,0,2.253-2.845,2.493,2.493,0,0,0-3.008-2.143,2.438,2.438,0,0,0-2.074,2.3A2.492,2.492,0,0,0,796.209,794.282Zm11.737,0a5.25,5.25,0,0,0,.681.031,2.54,2.54,0,0,0,2.228-2.982,2.562,2.562,0,0,0-5.07.426A2.533,2.533,0,0,0,807.946,794.286Zm-29.165-15.252a2.524,2.524,0,0,0,0,5,2.531,2.531,0,1,0,0-5Zm-5.927,10.293a2.434,2.434,0,0,0-2.076,2.3,2.49,2.49,0,0,0,2.079,2.659,5.661,5.661,0,0,0,.749.034,2.56,2.56,0,0,0,2.253-2.844A2.492,2.492,0,0,0,772.854,789.328Zm6.19,7.14c.059.235.167.162.252.028a4.575,4.575,0,0,1,1.832-1.666c.217-.109.252-.244.032-.393a4.859,4.859,0,0,1-.141-5.079,4.641,4.641,0,0,1,1.634-1.535c.664-.3.427-.582.084-.927a3.316,3.316,0,0,0-2.829-.71c-.873-.006-1.747-.022-2.62-.016a2.406,2.406,0,0,0-1.676.7c-.532.5-.52.58.083.956a5.068,5.068,0,0,1,.56.4,4.578,4.578,0,0,1,.97,6.029c-.164.269-.36.453.1.659A4.8,4.8,0,0,1,779.044,796.468Zm12.6-10.28c-.849-.007-1.7-.021-2.548-.021a2.48,2.48,0,0,0-2.266,1.3c.023.031.032.055.049.067,2.871,1.862,3.435,3.916,1.877,6.926-.127.245-.051.307.133.394a4.978,4.978,0,0,1,1.671,1.4c.123.1.14.58.4.21a5.716,5.716,0,0,1,1.99-1.739c.06-.032.042-.115-.034-.152a4.887,4.887,0,0,1-.3-5.092,4.8,4.8,0,0,1,1.827-1.733c.466-.216.349-.41.106-.7A3.112,3.112,0,0,0,791.645,786.188Zm10.75,10.276c.065.249.18.146.259.022a4.587,4.587,0,0,1,1.806-1.647c.208-.107.275-.239.049-.4a4.863,4.863,0,0,1-.142-5.077A4.672,4.672,0,0,1,806,787.826c.668-.3.424-.592.083-.935a3.318,3.318,0,0,0-2.827-.7c-.895-.005-1.79-.031-2.684-.01a2.4,2.4,0,0,0-1.793.893c-.231.265-.318.414.088.661,2.5,1.52,3.112,4.039,1.636,6.63-.142.249-.187.376.114.516A5.1,5.1,0,0,1,802.4,796.464Zm-28,8.484q-.014,3.554-.025,7.108c0,.146-.047.308.173.393a.805.805,0,0,0,1.2-.775q.005-2.8,0-5.592c0-2.005,0-2.009,1.978-2.2.243-.024.382-.057.351-.354-.169-1.67-.287-3.345-.5-5.01a2.356,2.356,0,0,0-2.032-2.057,5.108,5.108,0,0,0-1.443-.023c-.828-.009-1.656-.039-2.484-.024a2.534,2.534,0,0,0-2.631,2.536c-.1,1.33-.23,2.659-.364,3.987-.094.935-.108.934.816.939,1.147.007,1.475.335,1.476,1.486,0,2.141.021,4.283-.012,6.423-.01.657.335.661.822.691.544.034.578-.222.575-.654-.017-2.233-.006-4.466-.009-6.7a1.253,1.253,0,0,1,.278-.963.993.993,0,0,1,1.01-.29A1.129,1.129,0,0,1,774.393,804.948Zm23.062-8.514c-.826-.009-1.653-.038-2.479-.024a2.536,2.536,0,0,0-2.639,2.522c-.107,1.351-.235,2.7-.369,4.048-.088.891-.1.89.794.894,1.188.006,1.5.322,1.5,1.523,0,2.068.016,4.137-.009,6.2-.007.577.083.867.774.885.733.02.615-.4.615-.823q0-3.24,0-6.48c0-.829.287-1.258.88-1.337.637-.084,1.02.262,1.218,1.1q-.013,3.554-.023,7.108c0,.146-.047.307.174.391a.8.8,0,0,0,1.2-.777q0-2.8,0-5.592c0-2.007,0-2.011,1.98-2.2.243-.024.382-.056.352-.352-.172-1.692-.289-3.392-.51-5.077a2.276,2.276,0,0,0-1.883-1.958A4.88,4.88,0,0,0,797.455,796.433Zm-11.4,8.512q-.019,3.549-.036,7.1c0,.157-.011.311.187.4a.791.791,0,0,0,1.187-.764c0-2.16,0-4.32,0-6.48,0-.92.388-1.3,1.3-1.322a2.978,2.978,0,0,1,.482,0c.465.063.59-.13.544-.581-.16-1.576-.268-3.158-.439-4.732a2.417,2.417,0,0,0-1.871-2.06,4.567,4.567,0,0,0-1.573-.066c-.9-.009-1.793-.051-2.687-.018a2.426,2.426,0,0,0-2.44,2.257c-.16,1.438-.277,2.881-.4,4.323-.072.868-.058.869.79.874,1.153.006,1.463.316,1.464,1.478,0,2.115.017,4.23-.009,6.345-.008.621.247.761.822.781.635.022.565-.339.564-.736q-.006-3.276,0-6.552c0-.856.329-1.3.963-1.347S785.878,804.132,786.055,804.945Zm16.433-25.956a2.547,2.547,0,1,0,2.557,2.532A2.568,2.568,0,0,0,802.488,778.989ZM784.971,794.32a2.491,2.491,0,0,0,2.548-2.515A2.533,2.533,0,0,0,785,789.237a2.542,2.542,0,1,0-.032,5.083Zm4.5,14.914c0,.941.012,1.882-.008,2.823-.006.29.052.415.367.406.665-.018,1.331-.019,2,0,.306.009.378-.094.376-.392q-.022-2.857,0-5.714c0-.344-.128-.407-.442-.422a16.253,16.253,0,0,0-1.829,0c-.36.024-.473.122-.465.48C789.484,807.353,789.47,808.294,789.468,809.235Zm-8.971.017c0-.918-.016-1.836.007-2.753.01-.392-.06-.558-.515-.572-.566-.017-1.127,0-1.691.006-.4,0-.5.137-.491.516.021,1.285,0,2.57.013,3.854.01.7-.311,1.7.113,2.031.459.36,1.4.1,2.127.13.352.016.464-.082.449-.459C780.474,811.088,780.5,810.169,780.5,809.252Zm20.669-.01c0,.918.018,1.836-.009,2.753-.01.35.06.491.438.472a17.721,17.721,0,0,1,1.789,0c.4.02.483-.114.478-.5-.025-1.744-.036-3.488,0-5.231.013-.6-.117-.814-.769-.828-.5-.011-.992.072-1.484.034-.385-.029-.456.141-.45.479C801.178,807.36,801.167,808.3,801.166,809.242Z" transform="translate(0 0)" fill="#030303"/>
    <path id="Trazado_617279" data-name="Trazado 617279" d="M810.178,929.741c-.85-.43-1.152-.364-1.767.391-.508.625-1.024,1.242-1.515,1.88a.757.757,0,0,1-.827.329c-2.1-.409-4.2-.8-6.295-1.208-.68-.132-.726-.264-.353-.87.241-.391.5-.774.738-1.165a2.3,2.3,0,0,0,.056-2.662,2.931,2.931,0,0,0-2.786-1.59c-1.595.2-3.18.489-4.761.782a2.166,2.166,0,0,0-1.436,1c-.909,1.41-1.836,2.809-2.715,4.238a2.394,2.394,0,0,0,.949,3.478c.272.155.654.207.752.556.112.4.546.754.243,1.208a2.609,2.609,0,0,1-1.945.594c-1.339-.544-2.675-1.1-4.014-1.644a4.038,4.038,0,0,0-5.15,2.106c-.316.735-.317.737-.918.231a26.923,26.923,0,0,1-5.255-5.908,1.2,1.2,0,0,0-1.625-.592l-1.3-2.464c.68-.579.752-.85.386-1.743a27.188,27.188,0,0,1-2.021-10.968c.015-.781.1-1.56.138-2.341.019-.44.229-.6.655-.6q4.9.011,9.8-.006a.471.471,0,0,1,.553.443,2.362,2.362,0,0,0,.506.969c1.14,1.473,2.269,2.954,3.428,4.413a2.414,2.414,0,0,0,3.875.084q.845-.957,1.649-1.95a.869.869,0,0,1,.824-.375c1.489.135,2.979.257,4.47.354a.94.94,0,0,1,.779.463c.525.755,1.075,1.492,1.612,2.238a2.513,2.513,0,0,0,1.836,1.088c.868.1,1.731.234,2.6.347a2.335,2.335,0,0,0,1.928-.557,32.58,32.58,0,0,1,5.754-3.634.811.811,0,0,1,.835-.055c.933.442,1.878.859,2.825,1.271a.688.688,0,0,1,.484.667q.095,2.551.222,5.1a.943.943,0,0,1-.264.681q-.618.742-1.218,1.5c-.559.7-.565.973-.055,1.714A18.949,18.949,0,0,0,810.178,929.741Zm-3.139-7.021c1.075,0,1.649-.666,1.262-1.464a1.186,1.186,0,0,0-1.214-.612,1.248,1.248,0,0,0-1.294.6C805.392,922.027,805.98,922.72,807.038,922.72Zm-33.657-3.9c1.147.128,1.579-.786,1.28-1.473a1.5,1.5,0,0,0-1.831-.567.984.984,0,0,0-.774,1.143C772.121,918.527,772.562,918.821,773.382,918.823Zm30.387,7.49c.9,0,1.347-.327,1.367-1,.02-.692-.475-1.08-1.372-1.076-.868,0-1.33.367-1.329,1.047S802.875,926.311,803.769,926.313ZM791.32,922.72c.914,0,1.346-.311,1.365-.989.02-.7-.471-1.089-1.365-1.085-.861,0-1.331.375-1.331,1.051S790.427,922.719,791.32,922.72Z" transform="translate(-5.426 -98.252)" fill="#93eec4"/>
    <path id="Trazado_617280" data-name="Trazado 617280" d="M934.773,847.349a4.467,4.467,0,0,1,1.571.063,2.415,2.415,0,0,1,1.871,2.055c.171,1.573.275,3.153.442,4.726.055.513-.133.6-.6.6a1.8,1.8,0,0,0-1.57,2.85,1.38,1.38,0,0,0,.912.557q0,1.385.006,2.77c-.893.262-1.068.5-1.077,1.485-.008.893-.129.992-.989.918-.3-.026-.392-.143-.39-.425q.028-3.546.044-7.093c.973.01,1.205-.186,1.159-1.154-.056-1.161-.157-2.321-.278-3.478C935.732,849.872,935.729,848.473,934.773,847.349Z" transform="translate(-125.584 -50.911)" fill="#62c893"/>
    <path id="Trazado_617281" data-name="Trazado 617281" d="M842.073,929.729a18.931,18.931,0,0,1,1.675-2.205c.818.34,1.122.278,1.667-.412,2.171-2.746,2.043-1.89,1.842-5.728-.055-1.057-.091-2.116-.146-3.173a2.369,2.369,0,0,0-1.489-2.146c-1.084-.5-2.178-.979-3.268-1.465a2.313,2.313,0,0,0-2.189.1c-2.066,1.192-4.273,2.161-6.065,3.792a1.356,1.356,0,0,1-.945.251,4.076,4.076,0,0,1-4.086-2.5,3.019,3.019,0,0,0-2.818-1.646c-1.447-.032-2.89-.213-4.336-.323a2.531,2.531,0,0,0-2.251.961c-.545.654-1.107,1.294-1.647,1.953-.3.361-.553.444-.875.026-1.1-1.441-2.221-2.873-3.325-4.3.118-.23.3-.136.441-.136q17.784-.008,35.568,0c.182,0,.364.031.546.048a9.294,9.294,0,0,0,.027,1.241,21.127,21.127,0,0,1-.2,6.5,27.2,27.2,0,0,1-2.911,8.621,27.17,27.17,0,0,1-22.653,14.37,25.565,25.565,0,0,1-9.6-2.993c-.71-.374-1.385-.815-2.076-1.226-.186-.11-.3-.2-.2-.482.354-.946.7-1.841,1.922-1.957a1.785,1.785,0,0,1,.925.051c1.354.57,2.716,1.119,4.07,1.688a2.639,2.639,0,0,0,2.328-.038c.143-.073.291-.137.44-.2,1.13-.451,2.125-1.109,2.072-2.455a3.452,3.452,0,0,0-1.943-3.318c-.512-.231-.555-.5-.248-.953.793-1.184,1.557-2.387,2.311-3.6a1.019,1.019,0,0,1,.755-.52c1.225-.2,2.455-.375,3.67-.618a1.14,1.14,0,0,1,1.241.52c.287.4-.133.671-.3.973-.2.363-.448.7-.651,1.056a2.349,2.349,0,0,0,1.46,3.552c2.376.528,4.777.944,7.174,1.366a2.3,2.3,0,0,0,2.252-.921c.569-.694,1.117-1.4,1.7-2.084A1.2,1.2,0,0,0,842.073,929.729Z" transform="translate(-37.321 -98.24)" fill="#98c7f5"/>
    <path id="Trazado_617282" data-name="Trazado 617282" d="M855.752,943.569a27.171,27.171,0,0,0,22.653-14.37,27.193,27.193,0,0,0,2.911-8.621,21.123,21.123,0,0,0,.2-6.5,9.294,9.294,0,0,1-.026-1.241c1.469-.117,2.941-.02,4.412-.051.423-.009.535.237.571.611A27.583,27.583,0,0,1,863.3,943.5,22.342,22.342,0,0,1,855.752,943.569Z" transform="translate(-68.44 -98.252)" fill="#98c7f5"/>
    <path id="Trazado_617283" data-name="Trazado 617283" d="M920.208,847.363c.956,1.124.96,2.523,1.1,3.875.121,1.157.222,2.317.278,3.478.047.968-.186,1.164-1.159,1.154-.185-.818-.531-1.151-1.149-1.105-.633.047-.96.492-.962,1.347-.005,2.208-.009,4.416,0,6.624,0,.419-.013.69-.566.661-.5-.027-.831-.07-.824-.7.024-2.093.01-4.186.009-6.279,0-1.354-.261-1.647-1.6-1.6-.609.02-.77-.11-.687-.749.192-1.48.264-2.976.427-4.461a2.415,2.415,0,0,1,2.372-2.254C918.368,847.3,919.289,847.355,920.208,847.363Z" transform="translate(-111.019 -50.925)" fill="#70e9ab"/>
    <path id="Trazado_617284" data-name="Trazado 617284" d="M836.143,855.872c-.177-.814-.527-1.151-1.146-1.1-.634.048-.961.491-.963,1.347q-.008,3.276,0,6.552c0,.4.071.758-.565.736-.575-.02-.83-.16-.822-.781.026-2.115.011-4.229.009-6.345,0-1.163-.311-1.472-1.464-1.478-.849,0-.863-.006-.79-.874.12-1.442.237-2.885.4-4.323a2.426,2.426,0,0,1,2.44-2.257c.894-.033,1.791.009,2.687.018a4.559,4.559,0,0,1,.844,1.846c.172,1.839.383,3.674.538,5.513C837.384,855.643,837.106,855.881,836.143,855.872Z" transform="translate(-50.088 -50.927)" fill="#e54d80"/>
    <path id="Trazado_617285" data-name="Trazado 617285" d="M878.24,855.879c-.2-.842-.581-1.189-1.218-1.1-.592.078-.879.507-.88,1.337q0,3.24,0,6.48c0,.425.118.843-.615.823-.692-.019-.781-.308-.774-.885.025-2.068.01-4.136.009-6.2,0-1.2-.314-1.517-1.5-1.523-.894,0-.883,0-.794-.894.134-1.348.262-2.7.369-4.048a2.535,2.535,0,0,1,2.639-2.522c.826-.015,1.653.014,2.479.024a3.761,3.761,0,0,1,.959,2.079q.222,2.617.421,5.235C879.411,855.7,879.257,855.863,878.24,855.879Z" transform="translate(-80.499 -50.928)" fill="#75b4f0"/>
    <path id="Trazado_617286" data-name="Trazado 617286" d="M793.9,855.878a1.129,1.129,0,0,0-.814-1.082.993.993,0,0,0-1.01.29,1.254,1.254,0,0,0-.279.963c0,2.233-.008,4.467.009,6.7,0,.432-.031.687-.575.654-.487-.031-.832-.034-.822-.691.032-2.141.013-4.282.012-6.424,0-1.151-.329-1.479-1.476-1.486-.924-.006-.91,0-.816-.939.134-1.328.26-2.657.364-3.987a2.534,2.534,0,0,1,2.631-2.536c.828-.015,1.656.015,2.484.024a3.506,3.506,0,0,1,.938,1.952c.194,1.812.329,3.632.438,5.452C795.047,855.762,794.9,855.864,793.9,855.878Z" transform="translate(-19.509 -50.93)" fill="#f0c079"/>
    <path id="Trazado_617287" data-name="Trazado 617287" d="M902.252,813.546a4.863,4.863,0,0,0,.142,5.077c-.246.32-.6.281-.943.3a1.071,1.071,0,0,0-1.141,1.112c-.013.206-.02.413-.03.62a5.1,5.1,0,0,0-1.777-1.588c-.3-.14-.256-.267-.114-.516,1.476-2.591.865-5.109-1.636-6.63-.406-.247-.32-.4-.088-.661a2.4,2.4,0,0,1,1.793-.893c.894-.021,1.789,0,2.684.01A4.648,4.648,0,0,1,902.252,813.546Z" transform="translate(-97.884 -24.187)" fill="#e54d80"/>
    <path id="Trazado_617288" data-name="Trazado 617288" d="M857.748,820.437a4.982,4.982,0,0,0-1.671-1.4c-.184-.087-.259-.15-.133-.394,1.558-3.01.994-5.064-1.877-6.926-.017-.011-.027-.035-.05-.067a2.48,2.48,0,0,1,2.266-1.3c.849,0,1.7.014,2.548.021a4.441,4.441,0,0,1,.977,3.293,4.887,4.887,0,0,0,.3,5.092C858.568,818.954,858.151,818.856,857.748,820.437Z" transform="translate(-67.185 -24.183)" fill="#f0c079"/>
    <path id="Trazado_617289" data-name="Trazado 617289" d="M817.887,813.547a4.858,4.858,0,0,0,.141,5.078c-.246.319-.6.28-.944.3a1.073,1.073,0,0,0-1.139,1.116c-.014.207-.022.413-.032.62a4.8,4.8,0,0,0-1.72-1.555c-.46-.206-.264-.39-.1-.659a4.579,4.579,0,0,0-.97-6.029,5.086,5.086,0,0,0-.56-.4c-.6-.376-.615-.454-.083-.956a2.406,2.406,0,0,1,1.676-.7c.873-.006,1.747.01,2.62.016A4.651,4.651,0,0,1,817.887,813.547Z" transform="translate(-36.869 -24.188)" fill="#75b4f0"/>
    <path id="Trazado_617290" data-name="Trazado 617290" d="M808.326,855.847c1-.014,1.145-.116,1.085-1.109-.109-1.82-.244-3.64-.439-5.452a3.5,3.5,0,0,0-.938-1.952,5.108,5.108,0,0,1,1.443.023,2.356,2.356,0,0,1,2.032,2.057c.208,1.665.327,3.34.5,5.01.03.3-.108.329-.351.353-1.979.195-1.978.2-1.978,2.2q0,2.8,0,5.591a.805.805,0,0,1-1.2.775c-.219-.085-.173-.246-.173-.393Q808.309,859.4,808.326,855.847Z" transform="translate(-33.933 -50.899)" fill="#f0c079"/>
    <path id="Trazado_617291" data-name="Trazado 617291" d="M850.643,855.857c.963.009,1.242-.229,1.164-1.151-.155-1.84-.366-3.675-.538-5.513a4.559,4.559,0,0,0-.844-1.846,4.566,4.566,0,0,1,1.573.066,2.417,2.417,0,0,1,1.871,2.06c.17,1.575.278,3.156.438,4.732.046.451-.079.644-.544.581a2.97,2.97,0,0,0-.482,0c-.909.025-1.293.4-1.3,1.322-.009,2.16,0,4.32,0,6.48a.791.791,0,0,1-1.187.764c-.2-.085-.188-.239-.187-.4Q850.623,859.405,850.643,855.857Z" transform="translate(-64.588 -50.912)" fill="#e54d80"/>
    <path id="Trazado_617292" data-name="Trazado 617292" d="M892.674,855.857c1.017-.016,1.171-.176,1.092-1.2q-.2-2.618-.421-5.235a3.762,3.762,0,0,0-.959-2.079,4.878,4.878,0,0,1,1.577.057,2.275,2.275,0,0,1,1.883,1.958c.222,1.686.338,3.385.511,5.077.03.3-.109.329-.352.352-1.98.192-1.98.2-1.98,2.2q0,2.8,0,5.591a.8.8,0,0,1-1.2.777c-.22-.084-.174-.245-.174-.391Q892.659,859.411,892.674,855.857Z" transform="translate(-94.933 -50.907)" fill="#75b4f0"/>
    <path id="Trazado_617293" data-name="Trazado 617293" d="M903.939,784.425a2.546,2.546,0,0,1,.029,5.093,2.546,2.546,0,1,1-.029-5.093Z" transform="translate(-101.451 -5.435)" fill="#b9715f"/>
    <path id="Trazado_617294" data-name="Trazado 617294" d="M840.656,826.524a2.542,2.542,0,1,1,2.548-2.515A2.491,2.491,0,0,1,840.656,826.524Z" transform="translate(-55.685 -32.204)" fill="#b9715f"/>
    <path id="Trazado_617295" data-name="Trazado 617295" d="M798.1,826.722a2.49,2.49,0,0,1-2.079-2.659,2.434,2.434,0,0,1,2.076-2.3A3.605,3.605,0,0,1,798.1,826.722Z" transform="translate(-25.243 -32.44)" fill="#f3ccbf"/>
    <path id="Trazado_617296" data-name="Trazado 617296" d="M819.234,789.59a2.524,2.524,0,0,1,0-5,5.164,5.164,0,0,1,.868,2.6A5.632,5.632,0,0,1,819.234,789.59Z" transform="translate(-40.452 -5.553)" fill="#f3ccbf"/>
    <path id="Trazado_617297" data-name="Trazado 617297" d="M924.635,826.7a2.533,2.533,0,0,1-2.162-2.526,2.478,2.478,0,0,1,2.158-2.442,4.236,4.236,0,0,1,.859,2.933A5.02,5.02,0,0,1,924.635,826.7Z" transform="translate(-116.69 -32.415)" fill="#f3ccbf"/>
    <path id="Trazado_617298" data-name="Trazado 617298" d="M882.446,826.724a2.492,2.492,0,0,1-2.08-2.658,2.438,2.438,0,0,1,2.074-2.3A3.606,3.606,0,0,1,882.446,826.724Z" transform="translate(-86.237 -32.442)" fill="#edafa0"/>
    <path id="Trazado_617299" data-name="Trazado 617299" d="M861.387,789.607a2.528,2.528,0,0,1,0-4.982,3.732,3.732,0,0,1,.717,3.752A9.952,9.952,0,0,1,861.387,789.607Z" transform="translate(-70.999 -5.58)" fill="#edafa0"/>
    <path id="Trazado_617300" data-name="Trazado 617300" d="M824.938,789.484a5.631,5.631,0,0,0,.867-2.4,5.164,5.164,0,0,0-.868-2.6,2.531,2.531,0,1,1,0,5Z" transform="translate(-46.155 -5.447)" fill="#f3ccbf"/>
    <path id="Trazado_617301" data-name="Trazado 617301" d="M803.532,826.55a3.605,3.605,0,0,0,0-4.954,2.492,2.492,0,0,1,3,2.144,2.56,2.56,0,0,1-2.253,2.844A5.66,5.66,0,0,1,803.532,826.55Z" transform="translate(-30.674 -32.268)" fill="#f3ccbf"/>
    <path id="Trazado_617302" data-name="Trazado 617302" d="M930.274,826.568a5.019,5.019,0,0,0,.855-2.035,4.236,4.236,0,0,0-.859-2.933,2.474,2.474,0,0,1,2.912,2.016,2.541,2.541,0,0,1-2.228,2.983A5.259,5.259,0,0,1,930.274,826.568Z" transform="translate(-122.328 -32.282)" fill="#f3ccbf"/>
    <path id="Trazado_617303" data-name="Trazado 617303" d="M887.873,826.551a3.606,3.606,0,0,0-.006-4.954,2.493,2.493,0,0,1,3.008,2.143,2.558,2.558,0,0,1-2.253,2.845A5.671,5.671,0,0,1,887.873,826.551Z" transform="translate(-91.664 -32.268)" fill="#edafa0"/>
    <path id="Trazado_617304" data-name="Trazado 617304" d="M866.857,789.465a9.972,9.972,0,0,0,.715-1.229,3.732,3.732,0,0,0-.717-3.752,2.532,2.532,0,1,1,0,4.982Z" transform="translate(-76.47 -5.438)" fill="#edafa0"/>
    <path id="Trazado_617305" data-name="Trazado 617305" d="M830.114,813.511A4.651,4.651,0,0,0,829,810.339a3.317,3.317,0,0,1,2.829.71c.343.346.581.628-.084.927A4.641,4.641,0,0,0,830.114,813.511Z" transform="translate(-49.096 -24.152)" fill="#75b4f0"/>
    <path id="Trazado_617306" data-name="Trazado 617306" d="M914.455,813.51a4.648,4.648,0,0,0-1.112-3.173,3.317,3.317,0,0,1,2.827.7c.342.343.586.634-.082.935A4.671,4.671,0,0,0,914.455,813.51Z" transform="translate(-110.087 -24.151)" fill="#e54d80"/>
    <path id="Trazado_617307" data-name="Trazado 617307" d="M872.381,813.632a4.441,4.441,0,0,0-.977-3.293,3.111,3.111,0,0,1,2.909.864c.244.286.361.48-.105.7A4.8,4.8,0,0,0,872.381,813.632Z" transform="translate(-79.759 -24.151)" fill="#f0c079"/>
    <path id="Trazado_617308" data-name="Trazado 617308" d="M867.492,842.393c.4-1.581.821-1.483,2.36-1.681.076.037.094.12.034.152a5.717,5.717,0,0,0-1.99,1.739C867.632,842.973,867.615,842.5,867.492,842.393Z" transform="translate(-76.93 -46.14)" fill="#eba54a"/>
    <path id="Trazado_617309" data-name="Trazado 617309" d="M825.885,842.254c.01-.206.018-.413.032-.62a1.073,1.073,0,0,1,1.139-1.116c.345-.015.7.024.944-.3.22.15.186.284-.032.393a4.573,4.573,0,0,0-1.832,1.665C826.052,842.417,825.944,842.489,825.885,842.254Z" transform="translate(-46.842 -45.786)" fill="#53a3ef"/>
    <path id="Trazado_617310" data-name="Trazado 617310" d="M910.233,842.249c.01-.207.017-.413.03-.62a1.071,1.071,0,0,1,1.141-1.112c.345-.015.7.024.943-.3.226.164.159.3-.049.4a4.59,4.59,0,0,0-1.806,1.647C910.413,842.395,910.3,842.5,910.233,842.249Z" transform="translate(-107.838 -45.785)" fill="#e13866"/>
    <path id="Trazado_617311" data-name="Trazado 617311" d="M903.821,943.276c-1.059,0-1.646-.693-1.247-1.477a1.247,1.247,0,0,1,1.294-.6,1.185,1.185,0,0,1,1.214.612C905.471,942.61,904.9,943.277,903.821,943.276Z" transform="translate(-102.209 -118.808)" fill="#030303"/>
    <path id="Trazado_617312" data-name="Trazado 617312" d="M782.351,929.062c-.82,0-1.261-.3-1.325-.9a.984.984,0,0,1,.774-1.143,1.5,1.5,0,0,1,1.831.567C783.93,928.276,783.5,929.19,782.351,929.062Z" transform="translate(-14.395 -108.491)" fill="#030303"/>
    <path id="Trazado_617313" data-name="Trazado 617313" d="M892.112,956.257c-.895,0-1.334-.34-1.335-1.027s.461-1.044,1.329-1.047c.9,0,1.392.385,1.372,1.076C893.459,955.93,893.008,956.259,892.112,956.257Z" transform="translate(-93.768 -128.196)" fill="#030303"/>
    <path id="Trazado_617314" data-name="Trazado 617314" d="M847.151,943.282c-.893,0-1.332-.339-1.332-1.023s.47-1.046,1.331-1.051c.895,0,1.385.385,1.365,1.085C848.5,942.971,848.065,943.283,847.151,943.282Z" transform="translate(-61.257 -118.813)" fill="#030303"/>
  </g>
</svg>
