<svg xmlns="http://www.w3.org/2000/svg" width="75.581" height="75.555" viewBox="0 0 75.581 75.555">
  <g id="Grupo_943404" data-name="Grupo 943404" transform="translate(-744.517 -1130.418)">
    <path id="Trazado_621747" data-name="Trazado 621747" d="M782.12,1172.7c.068-1.214.068-1.214,1.324-1.214H786.4c-1.081-4.823-.181-9.151,3.188-12.793a12.966,12.966,0,0,1,10.055-4.251c8.877.1,14.879,8.986,12.793,17.044.848,0,1.682,0,2.515,0a2.455,2.455,0,0,1,2.7,2.688q.005,12.866-.014,25.732c0,.565.1.809.694.947a2.269,2.269,0,0,1,1.748,2.222c.027,1.674.033,3.35,0,5.024a2.41,2.41,0,0,1-2.551,2.366c-3.757.01-7.514.016-11.271-.01-.583,0-.9.059-.8.749a3.177,3.177,0,0,1-.3,1.552q-1.437,3.837-2.882,7.671a3,3,0,0,1-5.793-.007q-1.437-3.8-2.862-7.6a4.329,4.329,0,0,1-.33-1.931c.03-.331-.083-.434-.42-.43-1.345.018-2.691.03-4.036,0-.515-.013-.421.291-.421.584,0,3.629-.015,7.258.015,10.886.005.6-.152.738-.742.737q-21.209-.026-42.419,0c-.595,0-.741-.146-.739-.739.025-5.329.009-10.658.016-15.987a12.785,12.785,0,0,1,11.689-12.991c1.31-.142,2.609-.382,3.917-.552.353-.046.475-.185.593-.531.48-1.414.76-2.576-.9-3.613a7.007,7.007,0,0,1-2.607-4.009c-.122-.382-.238-.566-.7-.592a4.825,4.825,0,0,1-3.864-7.494.987.987,0,0,0,.142-.9c-.306-1.07-.615-2.144-.82-3.236a6.849,6.849,0,0,1,3.787-7.585,62.155,62.155,0,0,1,9.913-3.57c4.239-1.065,7.785.36,10.532,3.737a2.827,2.827,0,0,0,1.477,1.059,4.91,4.91,0,0,1,3.353,5.611c-.06.478-.128.954-.193,1.431-.221.857-.421,1.721-.675,2.568a1.077,1.077,0,0,0,.149.976,4.823,4.823,0,0,1-3.863,7.4c-.488.027-.623.209-.756.625a7,7,0,0,1-2.564,3.953c-1.65,1.05-1.457,2.229-.926,3.678.115.314.227.437.552.479,1.358.176,2.71.4,4.067.578a12.653,12.653,0,0,1,10.324,7.3.74.74,0,0,0,.81.472c1.523-.017,3.047-.033,4.568.006.574.015.764-.111.757-.731-.035-3.3-.018-6.6-.016-9.9a2.485,2.485,0,0,1,2.751-2.786q3.351,0,6.7,0a2.461,2.461,0,0,1,2.733,2.728c0,3.324.015,6.648-.013,9.972,0,.554.11.722.7.715q4.15-.054,8.3,0c.637.009.784-.154.781-.785-.026-6.394-.016-12.789-.016-19.183,0-2.081-.018-4.162.013-6.242.008-.513-.151-.639-.636-.617-.836.038-1.676.031-2.512,0a.681.681,0,0,0-.745.469,10.844,10.844,0,0,1-1.909,2.916,5.156,5.156,0,0,0-1.569,4.076,3.445,3.445,0,0,1-3.412,3.493c-3.375.049-6.752.039-10.127,0a3.6,3.6,0,0,1-3.336-2.66,4.751,4.751,0,0,1-.126-1.736,2.807,2.807,0,0,0-.763-2.213,15.475,15.475,0,0,1-2.645-3.972.584.584,0,0,0-.647-.373c-1.117.017-2.234.006-3.35.006C782.189,1173.928,782.189,1173.928,782.12,1172.7Zm-15.7,47.513c3.833,0,7.666-.014,11.5.015.6,0,.745-.157.742-.748-.026-4.491-.014-8.983-.014-13.475,0-1.632,0-1.6,1.659-1.645.619-.016.8.124.8.775-.032,4.8-.006,9.592-.032,14.388,0,.575.144.726.711.7,1.191-.047,2.386-.031,3.579-.005.435.009.614-.062.612-.567-.023-4.77.029-9.542-.031-14.312a10.328,10.328,0,0,0-9.179-9.942c-.431-.046-.566.043-.562.5a30.751,30.751,0,0,1-.111,3.8,21.581,21.581,0,0,1-9.194,15.627.616.616,0,0,1-.86,0,21.8,21.8,0,0,1-8.107-10.663,23.382,23.382,0,0,1-1.212-8.682c.013-.4.011-.644-.547-.585a10.3,10.3,0,0,0-9.171,9.712c-.11,4.87-.025,9.744-.042,14.616,0,.42.143.5.524.5,1.193-.021,2.388-.045,3.579.007.619.027.8-.121.8-.774-.033-4.44-.017-8.881-.017-13.322,0-1.769,0-1.738,1.761-1.773.6-.012.692.185.69.725-.021,4.8,0,9.592-.025,14.388,0,.575.116.762.733.756C758.809,1220.2,762.617,1220.218,766.425,1220.218Zm36.6-43.285c0,1.649-.007,3.3.009,4.948,0,.187-.164.453.182.573a1.564,1.564,0,0,0,2.224-1.558,5.51,5.51,0,0,1,1.641-4.554,8.578,8.578,0,0,0,.715-.888,11.369,11.369,0,0,0,1.514-11.96,10.769,10.769,0,0,0-12.1-6.415,10.97,10.97,0,0,0-8.809,10.75,12.554,12.554,0,0,0,3.229,8.473,5.731,5.731,0,0,1,1.663,4.4c-.109,1.413.343,1.749,1.8,1.767.488.006.635-.111.631-.618-.026-2.968-.012-5.937-.012-8.906,0-1.393,0-1.369-1.371-1.462a3.5,3.5,0,0,1-3.248-2.354,3.448,3.448,0,0,1,.869-3.908,3.507,3.507,0,0,1,3.938-.74,3.581,3.581,0,0,1,2.248,3.481c.014,1.094.012,1.094,1.044,1.094,1.342,0,1.324,0,1.4-1.353a3.5,3.5,0,0,1,2.2-3.2,3.408,3.408,0,0,1,3.831.591,3.467,3.467,0,0,1,1.116,3.784c-.474,1.685-1.907,2.635-3.985,2.6-.588-.009-.764.134-.746.738C803.055,1173.786,803.024,1175.36,803.024,1176.933Zm-29.246,1.171c0-1.49,0-2.707,0-3.924a2.47,2.47,0,0,0-2.769-2.687,11.3,11.3,0,0,0-5.791,1.83,22.207,22.207,0,0,1-5.676,2.679c-.37.1-.393.292-.391.593.012,1.673-.034,3.347.024,5.019a7.3,7.3,0,0,0,14.471.923A36.689,36.689,0,0,0,773.778,1178.1Zm4.866-7.364c.03-1.58-.764-2.791-2-2.824a2.214,2.214,0,0,1-1.9-1.221c-.19-.269-.389-.532-.594-.79a7.684,7.684,0,0,0-8.334-2.593c-2.906.967-5.776,2.044-8.638,3.135a4.451,4.451,0,0,0-2.775,3.292c-.379,1.5.255,2.841.586,4.231.029.121.1.261.26.2,1.156-.46,2.406-.124,3.6-.485a28.6,28.6,0,0,0,5.788-2.829,12.988,12.988,0,0,1,6.82-1.8,4.69,4.69,0,0,1,4.563,3.661,1.442,1.442,0,0,0,1.479,1.411c.336.037.482.073.579-.312A20.056,20.056,0,0,0,778.643,1170.74Zm32.9,37.3c1.853,0,3.705-.005,5.558,0,.343,0,.566-.014.556-.469-.028-1.319-.023-2.638,0-3.957.006-.388-.151-.456-.493-.455q-5.6.014-11.191,0c-.4,0-.525.105-.517.51.024,1.242.04,2.487-.005,3.728-.02.562.182.66.69.652C807.939,1208.018,809.741,1208.036,811.543,1208.036Zm-13.394-7.929v-8.666c0-1.682,0-1.644-1.685-1.7-.67-.02-.766.207-.764.807.023,6.031.014,12.061.014,18.091,0,1.862,0,1.839,1.838,1.844.531,0,.61-.187.607-.651C798.141,1206.594,798.149,1203.35,798.149,1200.107Zm4.875.094v-8.744c0-1.7,0-1.663-1.668-1.709-.635-.017-.787.15-.784.784.027,6.057.016,12.115.016,18.173,0,1.779,0,1.753,1.744,1.784.57.01.713-.136.707-.706C803.008,1206.589,803.024,1203.395,803.024,1200.2ZM798.15,1176.9v3.727c0,1.856,0,1.836,1.826,1.845.5,0,.627-.131.623-.626-.024-2.84-.012-5.679-.012-8.519,0-1.884,0-1.869-1.9-1.844-.43.006-.551.119-.545.548C798.164,1173.65,798.15,1175.273,798.15,1176.9Zm-28.2,15.953c-.143-.564-.32-1.121-.418-1.693-.083-.482-.251-.618-.748-.475a9.173,9.173,0,0,1-3.39.249c-.612-.056-1.363-.557-1.771-.192-.393.351-.336,1.177-.546,1.77a.764.764,0,0,0,.248.924q1.395,1.346,2.744,2.739c.277.286.451.378.776.036.925-.973,1.891-1.907,2.839-2.859C769.818,1193.211,770.013,1193.1,769.945,1192.849Zm20.811,10.316c-.708,0-1.417,0-2.125,0-.267,0-.5-.019-.423.391a19.806,19.806,0,0,1,.187,4.008c0,.353.092.486.465.481q1.973-.029,3.946,0c.36,0,.481-.1.475-.47q-.028-1.972,0-3.945c.005-.367-.117-.482-.476-.47C792.123,1203.182,791.44,1203.165,790.757,1203.165Zm-22.348-5.126,4.991,2.983a23.856,23.856,0,0,0,.374-5.677.529.529,0,0,0-.1-.347,3.381,3.381,0,0,0-2.171-.017C770.492,1195.974,769.487,1196.974,768.409,1198.04Zm-8.877,2.984,5.008-3c-1.09-1.068-2.1-2.06-3.114-3.047a3.627,3.627,0,0,0-2.168.024.529.529,0,0,0-.1.346A23.883,23.883,0,0,0,759.532,1201.024Zm6.907,3.361c-.356-.029-.336.272-.389.463-.507,1.823-.993,3.652-1.5,5.475a.641.641,0,0,0,.16.678c1.571,1.8,1.761,1.808,3.407.107.052-.055.1-.11.161-.161a.435.435,0,0,0,.148-.475q-.805-2.918-1.6-5.838A.3.3,0,0,0,766.439,1204.385Zm-3.872,3.979c.374-1.382.621-2.643,1.067-3.831a2.1,2.1,0,0,0-.436-2.272c-.228-.286-.373-.4-.717-.171-.63.419-1.291.79-1.941,1.179-.195.117-.426.2-.319.509A17.767,17.767,0,0,0,762.568,1208.364Zm7.8,0a17.77,17.77,0,0,0,1.949-3.567c.523-1.263.524-1.263-.611-1.944-.433-.26-.865-.52-1.3-.774-.123-.072-.231-.2-.4-.132a3.256,3.256,0,0,0-.9,1.813C769.508,1205.242,769.918,1206.72,770.373,1208.367Zm32.087,4.6h-6.18c.263.707.52,1.337.73,1.983a.526.526,0,0,0,.612.4c1.166-.016,2.333-.009,3.5,0,.265,0,.473-.005.579-.335C801.916,1214.343,802.187,1213.691,802.46,1212.966Zm-45.742-34.1c0-.683-.016-1.367.007-2.049.012-.358-.067-.5-.461-.427a2.451,2.451,0,0,0,.013,4.814c.315.053.463,0,.448-.364C756.7,1180.186,756.718,1179.527,756.718,1178.87Zm19.5-.109c0,.683.02,1.367-.008,2.048-.017.406.141.458.49.387a2.447,2.447,0,0,0,0-4.793c-.344-.07-.511-.026-.492.385C776.237,1177.445,776.215,1178.1,776.215,1178.761Zm27.526-9.7c1.147,0,1.721-.43,1.717-1.225a1.227,1.227,0,0,0-1.2-1.211c-.813-.011-1.2.578-1.252,1.706C802.975,1168.987,803.206,1169.187,803.741,1169.057Zm-8.025-.642c-.007-1.231-.443-1.793-1.22-1.795a1.227,1.227,0,0,0-1.217,1.193c-.016.833.585,1.191,1.776,1.264C795.864,1169.127,795.729,1168.661,795.716,1168.415Zm-29.279,33.531a1.911,1.911,0,0,0,1.4-1.239c.016-.181-1.121-1-1.374-.913a2.36,2.36,0,0,0-1.365.872C764.928,1200.951,766.01,1201.943,766.437,1201.946Zm34.193,15.886h-2.522c.249.677.472,1.29.7,1.9a.588.588,0,0,0,.552.445.579.579,0,0,0,.56-.432C800.153,1219.135,800.376,1218.522,800.631,1217.833Z" transform="translate(0 -16.697)" fill="#020201"/>
    <path id="Trazado_621748" data-name="Trazado 621748" d="M844.335,1214.286c.069,1.223.069,1.223,1.324,1.223,1.117,0,2.234.01,3.35-.006a.584.584,0,0,1,.647.373,15.472,15.472,0,0,0,2.645,3.972,2.807,2.807,0,0,1,.763,2.213,4.751,4.751,0,0,0,.126,1.736,3.6,3.6,0,0,0,3.336,2.66c3.376.036,6.752.046,10.127,0a3.445,3.445,0,0,0,3.412-3.493,5.157,5.157,0,0,1,1.569-4.076,10.844,10.844,0,0,0,1.909-2.916.681.681,0,0,1,.745-.469c.837.029,1.676.037,2.512,0,.485-.022.643.1.636.617-.031,2.08-.013,4.161-.013,6.242,0,6.395-.01,12.789.016,19.183,0,.631-.144.794-.781.785q-4.15-.059-8.3,0c-.586.007-.7-.161-.7-.715.027-3.324.016-6.648.013-9.972a2.461,2.461,0,0,0-2.733-2.728q-3.351,0-6.7,0a2.485,2.485,0,0,0-2.751,2.786c0,3.3-.019,6.6.016,9.9.007.62-.183.745-.757.731-1.522-.039-3.046-.023-4.568-.006a.74.74,0,0,1-.81-.472,12.653,12.653,0,0,0-10.324-7.3c-1.358-.178-2.71-.4-4.067-.578-.325-.042-.437-.165-.552-.479-.531-1.449-.724-2.629.926-3.678a7,7,0,0,0,2.564-3.953c.134-.416.269-.6.756-.625a4.823,4.823,0,0,0,3.863-7.4,1.076,1.076,0,0,1-.149-.976c.255-.847.454-1.711.675-2.567Z" transform="translate(-62.215 -58.278)" fill="#83d3ef"/>
    <path id="Trazado_621749" data-name="Trazado 621749" d="M947.115,1137.628c-.111.13-.2.249-.307.354-.985.988-1.981,1.965-2.953,2.966-.273.281-.453.3-.719,0-.416-.475-1.151-.884-1.212-1.386-.046-.386.731-.879,1.155-1.311.657-.67,1.337-1.318,1.983-2,.268-.282.448-.318.718,0,.33.383.712.722,1.069,1.082C946.937,1137.418,947.014,1137.515,947.115,1137.628Z" transform="translate(-137.176 -3.898)" fill="#090909"/>
    <path id="Trazado_621750" data-name="Trazado 621750" d="M891.5,1135.748c.13.114.249.206.355.311.988.985,1.964,1.981,2.967,2.951.29.281.261.438-.007.72-1.342,1.406-1.332,1.415-2.7.045-.664-.663-1.316-1.339-2-1.983-.292-.275-.29-.456.009-.718.38-.333.722-.712,1.082-1.069C891.289,1135.92,891.387,1135.844,891.5,1135.748Z" transform="translate(-101.021 -3.704)" fill="#090909"/>
    <path id="Trazado_621751" data-name="Trazado 621751" d="M920.3,1132.8v-.533c0-1.854,0-1.835,1.823-1.845.489,0,.643.112.628.619-.039,1.241-.031,2.486,0,3.728.009.423-.1.546-.539.551-1.909.023-1.909.039-1.909-1.835Z" transform="translate(-122.15)" fill="#020201"/>
    <path id="Trazado_621752" data-name="Trazado 621752" d="M771.956,1313.476c-3.808,0-7.616-.016-11.423.016-.617.005-.736-.181-.733-.756.023-4.8,0-9.592.025-14.388,0-.54-.089-.737-.69-.725-1.76.035-1.761,0-1.761,1.773,0,4.441-.016,8.882.017,13.322,0,.652-.178.8-.8.774-1.191-.052-2.386-.029-3.579-.007-.381.007-.526-.077-.524-.5.018-4.872-.067-9.746.042-14.616a10.3,10.3,0,0,1,9.171-9.712c.558-.059.56.185.547.585a23.381,23.381,0,0,0,1.212,8.682,21.8,21.8,0,0,0,8.107,10.663.616.616,0,0,0,.86,0,21.581,21.581,0,0,0,9.194-15.627,30.775,30.775,0,0,0,.111-3.8c0-.453.131-.541.562-.5a10.328,10.328,0,0,1,9.179,9.942c.06,4.77.008,9.542.031,14.312,0,.5-.177.576-.612.567-1.193-.026-2.387-.042-3.579.005-.567.022-.714-.128-.711-.7.026-4.8,0-9.592.032-14.388,0-.651-.177-.791-.8-.775-1.658.043-1.659.012-1.659,1.645,0,4.491-.012,8.983.014,13.475,0,.591-.14.753-.742.748C779.622,1313.462,775.789,1313.476,771.956,1313.476Z" transform="translate(-5.531 -109.955)" fill="#bbda89"/>
    <path id="Trazado_621753" data-name="Trazado 621753" d="M902.984,1182.4c0-1.573.031-3.147-.016-4.719-.018-.6.157-.747.746-.738,2.078.032,3.511-.919,3.985-2.6a3.467,3.467,0,0,0-1.116-3.784,3.408,3.408,0,0,0-3.831-.591,3.5,3.5,0,0,0-2.2,3.2c-.078,1.352-.059,1.353-1.4,1.353-1.031,0-1.03,0-1.044-1.094a3.58,3.58,0,0,0-2.248-3.481,3.507,3.507,0,0,0-3.938.74,3.448,3.448,0,0,0-.869,3.908,3.5,3.5,0,0,0,3.248,2.354c1.369.093,1.37.069,1.37,1.462,0,2.969-.013,5.937.013,8.906,0,.507-.143.624-.631.618-1.454-.018-1.906-.354-1.8-1.767a5.731,5.731,0,0,0-1.662-4.4,12.553,12.553,0,0,1-3.229-8.474,10.97,10.97,0,0,1,8.809-10.75,10.769,10.769,0,0,1,12.1,6.415,11.369,11.369,0,0,1-1.514,11.96,8.583,8.583,0,0,1-.715.888,5.51,5.51,0,0,0-1.641,4.554,1.564,1.564,0,0,1-2.224,1.558c-.347-.12-.18-.385-.182-.573C902.977,1185.7,902.984,1184.05,902.984,1182.4Z" transform="translate(-99.96 -22.164)" fill="#f9e7ad"/>
    <path id="Trazado_621754" data-name="Trazado 621754" d="M807.094,1216.93a36.687,36.687,0,0,1-.132,4.432,7.3,7.3,0,0,1-14.471-.923c-.058-1.671-.012-3.346-.024-5.019,0-.3.02-.493.391-.593a22.207,22.207,0,0,0,5.676-2.679,11.3,11.3,0,0,1,5.791-1.83,2.47,2.47,0,0,1,2.769,2.687C807.1,1214.223,807.094,1215.44,807.094,1216.93Zm-7.333,8.019a5.3,5.3,0,0,0,4.374-2.379c.419-.6.308-.9-.338-1.127a4.156,4.156,0,0,1-.881-.439c-.414-.273-.607-.165-.876.249a2.576,2.576,0,0,1-4.206.338c-.654-.911-1.124-.657-1.793-.273a3.2,3.2,0,0,1-.542.27c-.423.145-.438.359-.219.721A5.2,5.2,0,0,0,799.761,1224.949Zm-2.418-7.346a1.217,1.217,0,1,0-1.175,1.24A1.224,1.224,0,0,0,797.343,1217.6Zm6.094,1.24a1.217,1.217,0,1,0-1.215-1.2A1.228,1.228,0,0,0,803.437,1218.843Z" transform="translate(-33.316 -55.523)" fill="#e8cfb5"/>
    <path id="Trazado_621755" data-name="Trazado 621755" d="M800.893,1190.1a20.056,20.056,0,0,1-.571,3.075c-.1.385-.243.35-.579.313a1.442,1.442,0,0,1-1.479-1.411,4.69,4.69,0,0,0-4.563-3.661,12.988,12.988,0,0,0-6.82,1.8,28.6,28.6,0,0,1-5.788,2.829c-1.19.361-2.441.025-3.6.485-.16.063-.231-.077-.26-.2-.331-1.391-.964-2.733-.586-4.231a4.451,4.451,0,0,1,2.775-3.292c2.862-1.091,5.733-2.168,8.638-3.135a7.684,7.684,0,0,1,8.334,2.593c.205.257.4.521.594.79a2.214,2.214,0,0,0,1.9,1.221C800.129,1187.314,800.923,1188.525,800.893,1190.1Z" transform="translate(-22.249 -36.061)" fill="#a87a4d"/>
    <path id="Trazado_621756" data-name="Trazado 621756" d="M950.313,1318.978c-1.8,0-3.6-.018-5.4.011-.508.009-.71-.09-.69-.652.045-1.241.03-2.486.005-3.729-.008-.405.121-.512.517-.51q5.6.02,11.191,0c.342,0,.5.068.493.455-.021,1.319-.026,2.639,0,3.957.01.455-.213.471-.556.469C954.018,1318.973,952.166,1318.978,950.313,1318.978Z" transform="translate(-138.77 -127.639)" fill="#969ea8"/>
    <path id="Trazado_621757" data-name="Trazado 621757" d="M914.72,1280.5c0,3.243-.008,6.487.009,9.729,0,.464-.076.653-.607.651-1.838,0-1.838.019-1.838-1.843,0-6.031.009-12.061-.014-18.091,0-.6.095-.827.764-.807,1.685.051,1.685.013,1.685,1.7Z" transform="translate(-116.57 -97.092)" fill="#ee8774"/>
    <path id="Trazado_621758" data-name="Trazado 621758" d="M930.691,1280.6c0,3.194-.016,6.387.015,9.581.005.57-.138.716-.707.706-1.743-.031-1.744,0-1.744-1.784,0-6.058.011-12.115-.016-18.173,0-.634.15-.8.784-.784,1.667.046,1.668.013,1.668,1.709Z" transform="translate(-127.667 -97.096)" fill="#bbda89"/>
    <path id="Trazado_621759" data-name="Trazado 621759" d="M920.278,1215.679c0-1.623.015-3.246-.01-4.868-.006-.429.115-.542.545-.548,1.9-.025,1.9-.04,1.9,1.844,0,2.84-.012,5.679.012,8.519,0,.5-.125.628-.623.626-1.826-.009-1.826.011-1.826-1.845Z" transform="translate(-122.128 -55.48)" fill="#f9e7ad"/>
    <path id="Trazado_621760" data-name="Trazado 621760" d="M812.059,1275.2c.067.248-.128.362-.266.5-.948.951-1.914,1.886-2.839,2.859-.326.342-.5.249-.776-.036q-1.349-1.392-2.744-2.739a.764.764,0,0,1-.248-.924c.21-.593.153-1.419.546-1.77.408-.365,1.159.136,1.771.192a9.173,9.173,0,0,0,3.39-.249c.5-.143.665-.007.748.475C811.74,1274.084,811.917,1274.641,812.059,1275.2Z" transform="translate(-42.114 -99.053)" fill="#e8cfb5"/>
    <path id="Trazado_621761" data-name="Trazado 621761" d="M890.23,1314.108c.683,0,1.367.016,2.049-.007.36-.012.481.1.476.469q-.028,1.972,0,3.945c.005.366-.115.475-.475.47q-1.973-.027-3.946,0c-.373.005-.469-.128-.465-.481a19.808,19.808,0,0,0-.187-4.008c-.08-.41.156-.392.423-.391C888.814,1314.11,889.522,1314.108,890.23,1314.108Z" transform="translate(-99.473 -127.64)" fill="#969ea8"/>
    <path id="Trazado_621762" data-name="Trazado 621762" d="M822.824,1289.974c1.078-1.066,2.083-2.065,3.1-3.057a3.381,3.381,0,0,1,2.171.017.528.528,0,0,1,.1.347,23.855,23.855,0,0,1-.374,5.677Z" transform="translate(-54.415 -108.632)" fill="#e2e5e8"/>
    <path id="Trazado_621763" data-name="Trazado 621763" d="M792.863,1292.985a23.884,23.884,0,0,1-.373-5.677.529.529,0,0,1,.1-.346,3.625,3.625,0,0,1,2.168-.024c1.015.986,2.023,1.979,3.114,3.046Z" transform="translate(-33.331 -108.658)" fill="#e2e5e8"/>
    <path id="Trazado_621764" data-name="Trazado 621764" d="M811.983,1318.112a.3.3,0,0,1,.38.248q.795,2.921,1.6,5.838a.435.435,0,0,1-.148.475c-.056.051-.109.106-.161.161-1.646,1.7-1.836,1.691-3.407-.107a.641.641,0,0,1-.16-.678c.508-1.823.994-3.651,1.5-5.475C811.647,1318.384,811.627,1318.083,811.983,1318.112Z" transform="translate(-45.544 -130.423)" fill="#eb8672"/>
    <path id="Trazado_621765" data-name="Trazado 621765" d="M798.274,1316.6a17.767,17.767,0,0,1-2.346-4.586c-.107-.3.124-.392.319-.509.65-.389,1.311-.76,1.941-1.179.344-.229.489-.115.717.171a2.1,2.1,0,0,1,.436,2.272C798.9,1313.954,798.648,1315.215,798.274,1316.6Z" transform="translate(-35.706 -124.93)" fill="#c8ccd3"/>
    <path id="Trazado_621766" data-name="Trazado 621766" d="M826.355,1316.515c-.454-1.647-.865-3.125-1.268-4.6a3.256,3.256,0,0,1,.9-1.813c.174-.069.282.061.4.132.436.254.868.515,1.3.774,1.135.68,1.134.681.611,1.944A17.774,17.774,0,0,1,826.355,1316.515Z" transform="translate(-55.982 -124.844)" fill="#c8ccd3"/>
    <path id="Trazado_621767" data-name="Trazado 621767" d="M920.352,1346.248c-.273.725-.543,1.377-.759,2.047-.106.33-.314.336-.579.335-1.167,0-2.333-.012-3.5,0a.526.526,0,0,1-.612-.4c-.21-.646-.467-1.276-.73-1.983Z" transform="translate(-117.892 -149.979)" fill="#a9b0ba"/>
    <path id="Trazado_621768" data-name="Trazado 621768" d="M778.958,1228.813c0,.658-.018,1.316.007,1.973.014.367-.133.417-.448.364a2.451,2.451,0,0,1-.013-4.814c.393-.072.473.07.461.427C778.942,1227.446,778.958,1228.13,778.958,1228.813Z" transform="translate(-22.241 -66.64)" fill="#e8cfb5"/>
    <path id="Trazado_621769" data-name="Trazado 621769" d="M848.389,1228.709c0-.658.021-1.316-.008-1.973-.018-.411.149-.454.492-.385a2.447,2.447,0,0,1,0,4.793c-.349.071-.507.019-.49-.387C848.409,1230.076,848.389,1229.392,848.389,1228.709Z" transform="translate(-72.173 -66.645)" fill="#e8cfb5"/>
    <path id="Trazado_621770" data-name="Trazado 621770" d="M936.948,1196.786c-.535.13-.766-.07-.734-.73.054-1.129.439-1.717,1.252-1.706a1.227,1.227,0,0,1,1.2,1.211C938.669,1196.356,938.1,1196.783,936.948,1196.786Z" transform="translate(-133.207 -44.426)" fill="#edcf7a"/>
    <path id="Trazado_621771" data-name="Trazado 621771" d="M906.772,1196.145c.013.245.148.712-.662.662-1.19-.073-1.792-.431-1.776-1.264a1.227,1.227,0,0,1,1.217-1.193C906.329,1194.351,906.764,1194.914,906.772,1196.145Z" transform="translate(-111.056 -44.426)" fill="#edcf7a"/>
    <path id="Trazado_621772" data-name="Trazado 621772" d="M813.275,1305.217c-.428,0-1.51-.995-1.337-1.28a2.36,2.36,0,0,1,1.365-.872c.253-.084,1.389.732,1.374.913A1.911,1.911,0,0,1,813.275,1305.217Z" transform="translate(-46.837 -119.967)" fill="#eb8672"/>
    <path id="Trazado_621773" data-name="Trazado 621773" d="M922.689,1362.2c-.254.689-.477,1.3-.708,1.913a.579.579,0,0,1-.56.432.588.588,0,0,1-.552-.445c-.229-.61-.452-1.223-.7-1.9Z" transform="translate(-122.058 -161.063)" fill="#a9b0ba"/>
    <path id="Trazado_621774" data-name="Trazado 621774" d="M805.863,1248.944a5.2,5.2,0,0,1-4.481-2.64c-.218-.363-.2-.577.219-.721a3.2,3.2,0,0,0,.542-.27c.67-.384,1.139-.638,1.793.273a2.576,2.576,0,0,0,4.206-.338c.269-.414.462-.522.876-.249a4.156,4.156,0,0,0,.881.439c.646.231.757.528.338,1.127A5.3,5.3,0,0,1,805.863,1248.944Z" transform="translate(-39.418 -79.517)" fill="#040403"/>
    <path id="Trazado_621775" data-name="Trazado 621775" d="M802.917,1231.474a1.217,1.217,0,1,1-1.221-1.193A1.229,1.229,0,0,1,802.917,1231.474Z" transform="translate(-38.89 -69.394)" fill="#090909"/>
    <path id="Trazado_621776" data-name="Trazado 621776" d="M825.667,1232.713a1.217,1.217,0,1,1,1.218-1.2A1.225,1.225,0,0,1,825.667,1232.713Z" transform="translate(-55.546 -69.393)" fill="#090909"/>
  </g>
</svg>
