<svg xmlns="http://www.w3.org/2000/svg" width="124" height="124" viewBox="0 0 124 124">
  <g id="Grupo_940226" data-name="Grupo 940226" transform="translate(-1049 -4740)">
    <circle id="Elipse_7678" data-name="Elipse 7678" cx="50.5" cy="50.5" r="50.5" transform="translate(1061 4752)" fill="#fff"/>
    <rect id="Rectángulo_305813" data-name="Rectángulo 305813" width="124" height="124" transform="translate(1049 4740)" fill="none"/>
    <g id="Grupo_940228" data-name="Grupo 940228" transform="translate(1457.636 4467.911)">
      <path id="Trazado_619090" data-name="Trazado 619090" d="M-348,447.97a5.107,5.107,0,0,0,3.559-.83,24.229,24.229,0,0,1,13-3.792,24.074,24.074,0,0,1,13.092,3.789c.346.218.689.44,1.034.66.061-.095.116-.141.117-.188.051-2.514.257-2.713,2.809-2.713q6.1,0,12.2,0c1.528,0,2.045.508,2.045,2.014q0,13.46,0,26.921c0,1.563-.507,2.057-2.1,2.057q-30.7,0-61.4,0a14.729,14.729,0,0,1-6.7-1.6q-9.192-4.609-18.388-9.208c-3.547-1.775-5.158-5.27-4.055-8.819a7.44,7.44,0,0,1,8.327-5.086,9.432,9.432,0,0,1,3.017.968q7.344,3.657,14.695,7.3c.281.139.565.272,1.115.536-1.782-3.606-1.481-6.789,1.029-9.676a8.5,8.5,0,0,1,6.245-2.333C-354.907,448.039-351.453,447.978-348,447.97Zm-3.862,24.786c3.192.011,6.383.03,9.574.032q12.091.006,24.183,0c.441,0,.937.194.932-.644-.032-6.577-.021-13.155-.011-19.732a.948.948,0,0,0-.414-.9c-.505-.339-.987-.712-1.479-1.071-.354-.255-.692-.535-1.063-.761a21.127,21.127,0,0,0-15.791-2.734,27.41,27.41,0,0,0-8.285,3.61,3.94,3.94,0,0,1-2.105.554c-4.164-.023-8.329,0-12.493-.016a4.789,4.789,0,0,0-3.142,1.049,4.651,4.651,0,0,0-1.462,5.152,4.639,4.639,0,0,0,4.373,3.095c4.519.02,9.039.01,13.558,0a1.819,1.819,0,0,1,1.574.562,1.439,1.439,0,0,1,.224,1.625,1.7,1.7,0,0,1-1.759.924q-9.685-.015-19.369,0a3.187,3.187,0,0,1-1.481-.357c-2.158-1.086-4.328-2.147-6.492-3.22-3.519-1.745-7.021-3.525-10.56-5.23a4.66,4.66,0,0,0-6.263,1.911c-1.069,2.219-.109,4.527,2.416,5.791q9.152,4.582,18.306,9.16a9.954,9.954,0,0,0,4.344,1.2C-360.318,472.8-356.09,472.762-351.862,472.756Zm48.619-12.365c0-3.839-.013-7.679.013-11.518,0-.643-.128-.9-.84-.892q-4.6.058-9.195,0c-.718-.009-.837.259-.836.9q.028,11.518-.006,23.036c0,.762.253.9.942.891,3-.035,6-.047,9,.006.816.014.94-.285.935-1C-303.259,468.005-303.243,464.2-303.243,460.391Z" transform="translate(0 -95.304)" fill="#020201"/>
      <path id="Trazado_619091" data-name="Trazado 619091" d="M-324.843,372.186c-3.453.009-6.907.069-10.359.007a8.5,8.5,0,0,0-6.245,2.333c-.589-.857-1.523-1.4-2.074-2.294a2.125,2.125,0,0,1,.35-.45c.621-.459.579-.844,0-1.343-.7-.608-1.332-1.3-1.989-1.966l-10.125-10.193c.862-.257,1.714-.557,2.589-.763,1.377-.324,2.656-.979,4.066-1.178-.259.284-.507.578-.778.85-1.53,1.537-1.5,1.506-.034,3.051.565.6.867.556,1.424-.011,2.528-2.571,5.106-5.093,7.667-7.632.326.41.661.059.932-.047a13.247,13.247,0,0,0,1.882-.922c.754-.446,1.689-.591,2.258-1.345q3.051,3.019,6.1,6.039c1.513,1.5,1.488,1.485,3.046-.022.532-.514.576-.807.016-1.354-2.071-2.02-4.085-4.1-6.12-6.156a8.5,8.5,0,0,0,2.963-1.8q3.125,3.093,6.25,6.188c1.561,1.551,1.537,1.534,3.12-.008.506-.492.551-.764.018-1.287-2.209-2.164-4.367-4.382-6.544-6.58l2.636-1.59a5.268,5.268,0,0,0,5.188,1.861c.419-.085.577.147.811.357a5.1,5.1,0,0,0,7.229-.016,1.056,1.056,0,0,1,1.01-.3,4.968,4.968,0,0,0,5.846-4.161c.094-.527.418-.651.789-.845a4.853,4.853,0,0,0,2.159-6.519,1.294,1.294,0,0,1,.048-1.324,4.778,4.778,0,0,0-1.875-6.224,1.88,1.88,0,0,1-1.209-1.827,9.979,9.979,0,0,1,.637-1.044c.446-.74,1.273-1.243,1.374-2.194,2.524,1.718,5.25,1.54,6.738-.732a2.454,2.454,0,0,1,2.663-1.23,2.164,2.164,0,0,0,.58,0c.756-.133.893.215.888.911q-.045,7.263,0,14.527a2.139,2.139,0,0,1-.711,1.679q-14.334,14.292-28.637,28.616c-1.129,1.129-1.129,1.129-.208,2.332-1.078,1.368-2.426,2.476-3.61,3.742C-324.343,371.607-324.59,371.9-324.843,372.186Zm-19.167-6.736c.172-.158.366-.324.545-.5q3.558-3.554,7.112-7.111c1.6-1.6,1.568-1.57,0-3.189-.548-.565-.819-.42-1.286.056-2.349,2.392-4.73,4.751-7.1,7.121-1.556,1.556-1.558,1.558.021,3.1C-344.52,365.121-344.371,365.393-344.01,365.45Zm11.676-6.677c-.221.2-.417.36-.6.539q-3.558,3.553-7.112,7.111c-1.627,1.627-1.608,1.608.043,3.253.46.459.708.422,1.143-.02,2.373-2.413,4.777-4.8,7.17-7.189,1.584-1.584,1.585-1.585-.054-3.172C-331.919,359.121-332.115,358.964-332.334,358.773Zm2.249,11.34c.156-.141.328-.282.486-.439q1.235-1.227,2.464-2.46c1.729-1.729,1.714-1.713-.052-3.391-.417-.4-.643-.344-1,.035-.889.933-1.817,1.831-2.729,2.743-1.419,1.419-1.422,1.422,0,2.828A2.146,2.146,0,0,0-330.085,370.113Z" transform="translate(-23.157 -19.521)" fill="#4685c5"/>
      <path id="Trazado_619092" data-name="Trazado 619092" d="M-368.7,338.759l10.125,10.193c.658.662,1.285,1.358,1.989,1.966.578.5.619.885,0,1.343a2.123,2.123,0,0,0-.35.45c-.553.15-.716,1.082-1.334.864-.468-.165-.8-.723-1.186-1.111q-8.422-8.419-16.842-16.84c-1.218-1.218-1.214-1.847.017-3.077q22.009-22.01,44.009-44.029a2.88,2.88,0,0,1,2.214-.93c8.875.026,17.75.016,26.624.016,1.723,0,2.184.458,2.186,2.165,0,2.13.021,4.26-.013,6.39-.009.571.1.786.727.76,1.321-.055,2.646-.033,3.969-.013a6.2,6.2,0,0,1,6.162,6.162,6.2,6.2,0,0,1-6.193,6.229c-1.323.019-2.647.03-3.969-.009-.544-.016-.7.138-.7.69.031,2.194-.007,4.389.024,6.583a2.44,2.44,0,0,1-.758,1.9q-15.075,15.047-30.12,30.124c-.422.423-.707.577-1.119.031a3.676,3.676,0,0,0-.656-.547c-.92-1.2-.92-1.2.209-2.332q14.313-14.313,28.637-28.616a2.139,2.139,0,0,0,.711-1.679q-.049-7.263,0-14.527c0-.7-.132-1.043-.888-.911a2.166,2.166,0,0,1-.58,0,2.454,2.454,0,0,0-2.663,1.23c-1.488,2.272-4.213,2.451-6.738.732a4.671,4.671,0,0,1,.257-7.181,4.816,4.816,0,0,1,4.915-.555c.548.393,1.261.7,1.513,1.312.59,1.435,1.7,1.5,2.956,1.365a2.411,2.411,0,0,1,.579,0c.527.071.65-.174.642-.663-.025-1.644-.022-3.288,0-4.932.006-.452-.124-.63-.6-.613-1.03.037-2.062.029-3.093.039-6.973-.01-13.945-.009-20.918-.048a2.351,2.351,0,0,0-1.854.754q-20.933,20.979-41.9,41.923a4.443,4.443,0,0,1-.345.34c-.333.267-.3.494,0,.784C-371.588,335.905-370.146,337.335-368.7,338.759Zm67.451-35.688c0,.838.017,1.676-.007,2.512-.012.415.033.644.553.63,1.416-.038,2.836.024,4.251-.027a3.079,3.079,0,0,0,2.947-3.1,3.089,3.089,0,0,0-2.981-3.07c-1.384-.043-2.771.018-4.155-.026-.55-.017-.634.2-.617.666C-301.225,301.46-301.247,302.266-301.247,303.071Zm-10.845-4.623c0-.32-.024-.643,0-.96.067-.732-.3-.623-.732-.394a1.529,1.529,0,0,0-.376,2.443c.253.254.585.519.92.417.394-.12.125-.548.175-.834A3.948,3.948,0,0,0-312.092,298.448Z" transform="translate(-9.743 0)" fill="#020303"/>
      <path id="Trazado_619093" data-name="Trazado 619093" d="M-334.57,296.97a1.553,1.553,0,0,1-1.185,1.485,9.047,9.047,0,0,0-6.621,6.639,1.466,1.466,0,0,1-1.5,1.141,1.471,1.471,0,0,1-1.5-1.148A9.045,9.045,0,0,0-352,298.451a1.474,1.474,0,0,1-1.162-1.485,1.5,1.5,0,0,1,1.215-1.542,9.025,9.025,0,0,0,6.559-6.581,1.489,1.489,0,0,1,1.469-1.185,1.492,1.492,0,0,1,1.559,1.193,9.033,9.033,0,0,0,6.565,6.574A1.565,1.565,0,0,1-334.57,296.97Zm-9.293-3.769a4.183,4.183,0,0,0-.283.32,11.846,11.846,0,0,1-3.118,3.116c-.347.234-.334.389,0,.618a11.209,11.209,0,0,1,3.051,3.046c.261.389.424.368.677-.009a10.876,10.876,0,0,1,2.977-2.984c.428-.287.419-.444,0-.728a11.342,11.342,0,0,1-2.983-2.981C-343.626,293.476-343.73,293.364-343.863,293.2Z" transform="translate(-24.457 -0.042)" fill="#040403"/>
      <path id="Trazado_619094" data-name="Trazado 619094" d="M-229.851,412.553c-.26-.3-.554-.69-.895-1.032-1.108-1.112-1.114-1.106-.023-2.2,3.355-3.354,6.718-6.7,10.053-10.072.435-.44.69-.49,1.1,0,.491.592,1.4,1.084,1.471,1.7.056.463-.909,1.056-1.431,1.579q-4.719,4.727-9.447,9.446A1.523,1.523,0,0,1-229.851,412.553Z" transform="translate(-98.847 -68.11)" fill="#060606"/>
      <path id="Trazado_619095" data-name="Trazado 619095" d="M-190.434,387.257c-.224.27-.334.425-.467.559-.747.755-1.511,1.494-2.245,2.26-.3.314-.482.36-.844.027-1.874-1.724-1.887-1.71-.1-3.5,1.418-1.417,1.414-1.414,2.879.039A8.641,8.641,0,0,0-190.434,387.257Z" transform="translate(-120.978 -59.939)" fill="#060606"/>
      <path id="Trazado_619096" data-name="Trazado 619096" d="M-346.995,477.654c-4.228.005-8.456.043-12.684,0a9.954,9.954,0,0,1-4.344-1.2q-9.15-4.587-18.306-9.16c-2.525-1.264-3.485-3.573-2.416-5.791a4.66,4.66,0,0,1,6.263-1.911c3.539,1.7,7.041,3.485,10.56,5.23,2.164,1.073,4.334,2.134,6.492,3.22a3.186,3.186,0,0,0,1.481.357q9.684-.013,19.369,0a1.7,1.7,0,0,0,1.759-.924,1.439,1.439,0,0,0-.224-1.625,1.82,1.82,0,0,0-1.574-.562c-4.519.009-9.039.018-13.558,0a4.639,4.639,0,0,1-4.373-3.095,4.651,4.651,0,0,1,1.462-5.152,4.79,4.79,0,0,1,3.142-1.049c4.164.013,8.329-.007,12.493.016a3.94,3.94,0,0,0,2.105-.554,27.41,27.41,0,0,1,8.285-3.61,21.127,21.127,0,0,1,15.791,2.734c.371.226.709.506,1.063.761a1.893,1.893,0,0,0-.993.737,78.278,78.278,0,0,1-6.065,6.085,74.381,74.381,0,0,1-10.222,7.71,86.433,86.433,0,0,1-10.2,5.481C-343.452,476.139-345.31,476.7-346.995,477.654Z" transform="translate(-4.867 -100.202)" fill="#f4c9a7"/>
      <path id="Trazado_619097" data-name="Trazado 619097" d="M-286.8,483.933c1.684-.956,3.543-1.514,5.3-2.305a86.422,86.422,0,0,0,10.2-5.481,74.377,74.377,0,0,0,10.222-7.71,78.289,78.289,0,0,0,6.065-6.085,1.892,1.892,0,0,1,.993-.737c.492.359.974.732,1.479,1.071a.948.948,0,0,1,.415.9c-.01,6.578-.021,13.155.011,19.732,0,.839-.491.644-.932.644q-12.092.006-24.183,0C-280.42,483.962-283.611,483.944-286.8,483.933Z" transform="translate(-65.059 -106.481)" fill="#f4c198"/>
      <path id="Trazado_619098" data-name="Trazado 619098" d="M-178.665,467.693c0,3.808-.016,7.615.014,11.421.005.713-.119,1.012-.935,1-3-.052-6-.04-9-.006-.689.008-.945-.129-.942-.891q.044-11.518.006-23.036c0-.638.118-.905.836-.9q4.6.058,9.195,0c.713-.009.845.249.84.892C-178.679,460.014-178.665,463.854-178.665,467.693Zm-5.356,7.748a2.363,2.363,0,0,0,2.255-2.316A2.353,2.353,0,0,0-184.1,470.8a2.354,2.354,0,0,0-2.307,2.359A2.369,2.369,0,0,0-184.021,475.441Z" transform="translate(-124.578 -102.607)" fill="#505d75"/>
      <path id="Trazado_619099" data-name="Trazado 619099" d="M-362.515,343.648c-1.448-1.424-2.89-2.854-4.348-4.268-.3-.29-.336-.517,0-.784a4.443,4.443,0,0,0,.345-.34q20.957-20.955,41.9-41.923a2.351,2.351,0,0,1,1.854-.754c6.973.038,13.945.037,20.918.048a21.459,21.459,0,0,1-2,3.49,4.816,4.816,0,0,0-4.915.555,4.671,4.671,0,0,0-.257,7.181c-.1.951-.929,1.455-1.374,2.194a10.011,10.011,0,0,0-.637,1.043c-1.244-2.694-3.061-3.752-5.921-3.363-.462.063-.634-.167-.888-.4a5.089,5.089,0,0,0-7.083-.033,1.344,1.344,0,0,1-1.262.371,4.972,4.972,0,0,0-5.7,4.131,1.046,1.046,0,0,1-.655.84,4.822,4.822,0,0,0-2.242,6.7.8.8,0,0,1,.059.883,4.883,4.883,0,0,0,2.25,6.845c.316.135.552.3.565.687a5.253,5.253,0,0,0,.878,2.323l-2.636,1.59c-.327-.305-.663-.6-.98-.916-1.584-1.577-1.565-1.561-3.17.021-.461.454-.574.746-.028,1.2a17.415,17.415,0,0,1,1.334,1.378,8.5,8.5,0,0,1-2.963,1.8c-1.35-1.328-2.706-2.65-4.05-3.985-1.626-1.616-1.6-1.6-3.246.028-.52.512-.39.773.054,1.207,1.422,1.393,2.8,2.826,4.2,4.244-.569.754-1.5.9-2.258,1.345a13.244,13.244,0,0,1-1.882.922c-.271.106-.606.457-.932.047.892-1.022.892-1.022-.113-2.027a4.833,4.833,0,0,1-.54-.549c-.442-.616-.779-.489-1.272.011-2.094,2.127-4.233,4.208-6.356,6.306-1.411.2-2.69.853-4.066,1.178C-360.8,343.092-361.652,343.391-362.515,343.648Zm11.09-11.4c-.088-.1-.189-.224-.3-.337-.408-.413-.854-.794-1.221-1.24-.424-.515-.708-.414-1.139.023-2.351,2.391-4.733,4.752-7.1,7.123-1.668,1.668-1.658,1.658.059,3.316.363.35.584.465,1,.045,2.764-2.8,5.555-5.572,8.334-8.356C-351.644,332.666-351.436,332.542-351.425,332.246Zm9.4-9.791c-.146.123-.275.219-.388.329-.437.43-.849.888-1.308,1.292-.4.351-.449.618-.022,1,.578.514,1.1,1.086,1.65,1.634,1.821,1.82,1.81,1.811,3.511-.164.289-.335.243-.5-.04-.778-.994-.967-1.964-1.959-2.948-2.936C-341.7,322.695-341.86,322.587-342.023,322.454Z" transform="translate(-15.926 -4.889)" fill="#4b8ed1"/>
      <path id="Trazado_619100" data-name="Trazado 619100" d="M-280.99,343.749a5.253,5.253,0,0,1-.878-2.323c-.013-.392-.25-.552-.566-.687a4.883,4.883,0,0,1-2.25-6.845c.206-.347.087-.579-.059-.883a4.822,4.822,0,0,1,2.242-6.7,1.046,1.046,0,0,0,.655-.84,4.972,4.972,0,0,1,5.7-4.131,1.344,1.344,0,0,0,1.262-.371A5.089,5.089,0,0,1-267.8,321c.253.229.426.459.888.4,2.86-.389,4.677.669,5.921,3.363a1.88,1.88,0,0,0,1.209,1.827,4.778,4.778,0,0,1,1.875,6.224,1.294,1.294,0,0,0-.048,1.324,4.853,4.853,0,0,1-2.159,6.519c-.371.195-.695.318-.789.845a4.968,4.968,0,0,1-5.846,4.161,1.056,1.056,0,0,0-1.01.3,5.1,5.1,0,0,1-7.229.016c-.234-.21-.392-.442-.811-.357A5.267,5.267,0,0,1-280.99,343.749Zm15.024-1.125a1.866,1.866,0,0,0,1.941-2.394c-.218-1.339.24-1.979,1.549-2.094a1.919,1.919,0,0,0,1.838-1.316,1.727,1.727,0,0,0-.709-2.026,1.5,1.5,0,0,1-.05-2.536,1.781,1.781,0,0,0,.782-2.01,1.93,1.93,0,0,0-1.891-1.381c-1.251-.1-1.757-.776-1.526-2.023a1.845,1.845,0,0,0-.657-2.067,2.026,2.026,0,0,0-2.35-.05,1.541,1.541,0,0,1-2.486-.827,1.914,1.914,0,0,0-1.892-1.234,1.9,1.9,0,0,0-1.805,1.217c-.567,1.223-1.345,1.493-2.479.854a2.037,2.037,0,0,0-2.351.029,1.884,1.884,0,0,0-.659,2.153,1.456,1.456,0,0,1-1.423,1.938,1.984,1.984,0,0,0-2,1.372,1.825,1.825,0,0,0,.831,2.079,1.457,1.457,0,0,1-.019,2.407,1.8,1.8,0,0,0-.8,2.085,2,2,0,0,0,2.016,1.351,1.445,1.445,0,0,1,1.412,1.866,1.932,1.932,0,0,0,.665,2.239,2.12,2.12,0,0,0,2.441-.042,1.475,1.475,0,0,1,2.294.76,1.991,1.991,0,0,0,1.906,1.368A1.984,1.984,0,0,0-269.466,343a1.511,1.511,0,0,1,2.371-.755A2.189,2.189,0,0,0-265.965,342.624Z" transform="translate(-65.96 -19.554)" fill="#020202"/>
      <path id="Trazado_619101" data-name="Trazado 619101" d="M-310.975,388.3c-1.4-1.418-2.778-2.852-4.2-4.244-.444-.435-.574-.7-.054-1.207,1.648-1.624,1.62-1.643,3.246-.028,1.344,1.335,2.7,2.657,4.05,3.985,2.035,2.057,4.049,4.136,6.12,6.156.56.547.517.84-.016,1.354-1.558,1.507-1.532,1.525-3.046.022Q-307.919,391.31-310.975,388.3Z" transform="translate(-47.459 -57.532)" fill="#020305"/>
      <path id="Trazado_619102" data-name="Trazado 619102" d="M-290.946,384.392a17.421,17.421,0,0,0-1.334-1.378c-.546-.459-.433-.751.028-1.2,1.606-1.581,1.587-1.6,3.17-.021.317.315.653.611.98.916,2.177,2.2,4.335,4.415,6.544,6.58.533.522.488.794-.018,1.287-1.583,1.542-1.558,1.559-3.12.008Q-287.815,387.48-290.946,384.392Z" transform="translate(-61.484 -56.92)" fill="#020305"/>
      <path id="Trazado_619103" data-name="Trazado 619103" d="M-341.161,403.816c2.123-2.1,4.262-4.18,6.356-6.306.493-.5.829-.626,1.272-.011a4.833,4.833,0,0,0,.54.549c1,1,1,1,.113,2.027-2.56,2.539-5.139,5.06-7.667,7.632-.557.567-.859.606-1.424.011-1.467-1.545-1.5-1.514.034-3.051C-341.668,404.394-341.42,404.1-341.161,403.816Z" transform="translate(-30.625 -66.997)" fill="#020305"/>
      <path id="Trazado_619104" data-name="Trazado 619104" d="M-329.225,420.293c-.361-.057-.51-.33-.71-.525-1.579-1.544-1.576-1.546-.021-3.1,2.37-2.37,4.752-4.73,7.1-7.121.468-.476.739-.621,1.286-.056,1.569,1.62,1.6,1.591,0,3.189q-3.555,3.555-7.112,7.111C-328.859,419.969-329.053,420.135-329.225,420.293Z" transform="translate(-37.943 -74.364)" fill="#020305"/>
      <path id="Trazado_619105" data-name="Trazado 619105" d="M-310.209,420.7c.219.191.415.348.594.522,1.639,1.587,1.638,1.588.054,3.172-2.394,2.393-4.8,4.776-7.17,7.189-.435.442-.683.479-1.143.02-1.651-1.645-1.669-1.627-.043-3.253q3.555-3.555,7.112-7.111C-310.626,421.058-310.43,420.9-310.209,420.7Z" transform="translate(-45.282 -81.446)" fill="#020305"/>
      <path id="Trazado_619106" data-name="Trazado 619106" d="M-293.356,439.566a2.146,2.146,0,0,1-.836-.685c-1.422-1.406-1.419-1.41,0-2.828.912-.912,1.84-1.809,2.729-2.742.361-.379.588-.43,1-.035,1.767,1.678,1.782,1.662.052,3.391q-1.231,1.231-2.464,2.46C-293.028,439.284-293.2,439.425-293.356,439.566Z" transform="translate(-59.886 -88.974)" fill="#020305"/>
      <path id="Trazado_619107" data-name="Trazado 619107" d="M-204.127,299.129a21.46,21.46,0,0,0,2-3.49c1.031-.01,2.063,0,3.093-.039.473-.017.6.161.6.613-.021,1.644-.024,3.288,0,4.932.007.489-.116.733-.642.663a2.411,2.411,0,0,0-.579,0c-1.26.14-2.367.07-2.956-1.365C-202.866,299.829-203.579,299.522-204.127,299.129Z" transform="translate(-115.646 -4.901)" fill="#4685c5"/>
      <path id="Trazado_619108" data-name="Trazado 619108" d="M-334.97,301.94c.134.163.238.275.323.4a11.342,11.342,0,0,0,2.983,2.981c.422.284.43.441,0,.728a10.876,10.876,0,0,0-2.977,2.984c-.253.376-.416.4-.677.009a11.209,11.209,0,0,0-3.051-3.046c-.338-.229-.351-.384,0-.618a11.845,11.845,0,0,0,3.118-3.116A4.19,4.19,0,0,1-334.97,301.94Z" transform="translate(-33.35 -8.781)" fill="#efb34d"/>
      <path id="Trazado_619109" data-name="Trazado 619109" d="M-179.106,499.9a2.369,2.369,0,0,1-2.389-2.285,2.354,2.354,0,0,1,2.307-2.359,2.353,2.353,0,0,1,2.338,2.329A2.363,2.363,0,0,1-179.106,499.9Z" transform="translate(-129.493 -127.063)" fill="#020201"/>
      <path id="Trazado_619110" data-name="Trazado 619110" d="M-344.06,387.017c-.011.3-.22.42-.373.574-2.779,2.784-5.57,5.557-8.334,8.356-.415.42-.636.306-1-.045-1.717-1.658-1.727-1.648-.059-3.316,2.371-2.371,4.753-4.732,7.1-7.123.43-.437.715-.538,1.139-.023.368.446.813.827,1.221,1.24C-344.249,386.794-344.149,386.918-344.06,387.017Z" transform="translate(-23.291 -59.66)" fill="#020305"/>
      <path id="Trazado_619111" data-name="Trazado 619111" d="M-305.669,364.823c.163.132.322.24.456.373.984.978,1.954,1.969,2.948,2.936.283.276.328.443.04.778-1.7,1.975-1.69,1.984-3.511.164-.548-.547-1.072-1.12-1.65-1.634-.427-.38-.377-.646.022-1,.459-.4.871-.862,1.308-1.292C-305.943,365.042-305.815,364.946-305.669,364.823Z" transform="translate(-52.281 -47.257)" fill="#020305"/>
      <path id="Trazado_619112" data-name="Trazado 619112" d="M-261.067,347.542a2.189,2.189,0,0,1-1.129-.384,1.511,1.511,0,0,0-2.371.755,1.984,1.984,0,0,1-1.922,1.346,1.991,1.991,0,0,1-1.906-1.368,1.475,1.475,0,0,0-2.294-.76,2.12,2.12,0,0,1-2.441.042,1.932,1.932,0,0,1-.665-2.239,1.445,1.445,0,0,0-1.412-1.866,2,2,0,0,1-2.016-1.351,1.8,1.8,0,0,1,.8-2.085,1.457,1.457,0,0,0,.019-2.407,1.825,1.825,0,0,1-.831-2.079,1.984,1.984,0,0,1,2-1.372,1.456,1.456,0,0,0,1.423-1.938,1.884,1.884,0,0,1,.659-2.153,2.037,2.037,0,0,1,2.351-.029c1.133.639,1.912.369,2.479-.854a1.9,1.9,0,0,1,1.805-1.217,1.914,1.914,0,0,1,1.892,1.234,1.541,1.541,0,0,0,2.486.827,2.026,2.026,0,0,1,2.35.05,1.845,1.845,0,0,1,.657,2.067c-.231,1.247.275,1.926,1.526,2.023a1.93,1.93,0,0,1,1.891,1.381,1.781,1.781,0,0,1-.782,2.01,1.5,1.5,0,0,0,.05,2.536,1.727,1.727,0,0,1,.709,2.026,1.919,1.919,0,0,1-1.838,1.316c-1.31.115-1.767.754-1.549,2.094A1.866,1.866,0,0,1-261.067,347.542Z" transform="translate(-70.859 -24.472)" fill="#f2b54e"/>
    </g>
  </g>
</svg>
