<svg xmlns="http://www.w3.org/2000/svg" width="124" height="124" viewBox="0 0 124 124">
  <g id="Grupo_940231" data-name="Grupo 940231" transform="translate(-1049 -4740)">
    <circle id="Elipse_7678" data-name="Elipse 7678" cx="50.5" cy="50.5" r="50.5" transform="translate(1061 4752)" fill="#fff"/>
    <rect id="Rectángulo_305813" data-name="Rectángulo 305813" width="124" height="124" transform="translate(1049 4740)" fill="none"/>
    <g id="Grupo_940234" data-name="Grupo 940234" transform="translate(984.306 3830.572)">
      <path id="Trazado_619191" data-name="Trazado 619191" d="M152.292,989.954c.076-1.329.076-1.34,1.432-1.326a20.512,20.512,0,0,1,3.835.121,6.57,6.57,0,0,1,5.335,6.495c.025,4.617.007,9.233.007,13.85q0,14.491.007,28.981c0,.336-.225.778.5.8,3.808.126,5.419,2.246,4.574,5.942a9.261,9.261,0,0,1-9.049,7.279q-31.746.016-63.491,0a9.265,9.265,0,0,1-9.246-8.865,4,4,0,0,1,4.134-4.372c1.143-.032,1.143-.032,1.143-1.186q0-21.1,0-42.191a6.576,6.576,0,0,1,5.341-6.728,30.346,30.346,0,0,1,4.875-.133c.279-.008.376.1.367.374-.011.319.015.639.025.958a2.5,2.5,0,0,0-.023.557c.122.674-.21.787-.794.757-.852-.044-1.711.044-2.561-.021-2.517-.193-4.617,1.55-4.6,4.585.067,14.036.038,28.072.009,42.108,0,.8.229.938.974.938q32.1-.032,64.207.006c.858,0,.972-.265.971-1.022q-.033-20.974-.017-41.948c0-.293,0-.588-.017-.88a3.941,3.941,0,0,0-3.915-3.77c-.88-.024-1.761-.006-2.642-.006C152.368,991.257,152.368,991.257,152.292,989.954Zm-34.337,59.484h7.126c5.258,0,10.515-.017,15.773.019.761.005.936-.23.905-.941-.055-1.252,0-2.508-.023-3.762-.008-.432.095-.615.572-.611q3.4.032,6.806,0c.487,0,.577.2.567.623-.021.907-.006,1.815-.006,2.722,0,2.021,0,2,2.036,1.963.5-.01.629-.172.619-.648-.028-1.334.007-2.669-.019-4-.009-.461.079-.665.606-.659q3.362.041,6.725,0c.506-.005.637.177.628.651-.025,1.281.012,2.563-.017,3.843-.014.6.19.658.712.493a6.625,6.625,0,0,0,4.526-5.664c.109-1.5-.3-1.937-1.795-1.937-8.354,0-16.708.012-25.061-.021-.779,0-.893.256-.886.938.028,2.759-1.6,4.369-4.361,4.372-4.083,0-8.169-.078-12.25.029a4.148,4.148,0,0,1-4.526-4.564c.058-.57-.088-.772-.721-.77-8.46.024-16.921.015-25.381.017-1.275,0-1.717.483-1.637,1.779a5.851,5.851,0,0,0,.124.949,6.555,6.555,0,0,0,6.7,5.176Q106.826,1049.453,117.955,1049.438Zm9.262-7.91c-2.427,0-4.853-.006-7.28.008-.244,0-.585-.178-.684.3-.309,1.5.325,2.315,1.86,2.316q6.04,0,12.079,0c1.568,0,1.916-.381,1.936-1.932.007-.561-.156-.716-.713-.709C132.017,1041.545,129.617,1041.528,127.217,1041.528Zm30.393,6.641c0-1.351,0-1.351-1.382-1.351-1.277,0-1.277,0-1.277,1.309,0,1.329,0,1.329,1.356,1.329C157.61,1049.456,157.61,1049.456,157.61,1048.169Zm-11.872-1.351c-1.37,0-1.37,0-1.37,1.288,0,1.335,0,1.335,1.345,1.335,1.32,0,1.32,0,1.32-1.348C147.033,1046.819,147.033,1046.819,145.738,1046.819Z" transform="translate(0 -39.17)" fill="#040404"/>
      <path id="Trazado_619192" data-name="Trazado 619192" d="M169.036,992.845c.076,1.3.076,1.3,1.377,1.3.881,0,1.762-.018,2.642.006a3.941,3.941,0,0,1,3.915,3.77c.019.293.017.587.017.88q0,20.974.017,41.948c0,.757-.113,1.023-.971,1.022q-32.1-.044-64.207-.006c-.744,0-.975-.137-.974-.938.028-14.036.058-28.073-.009-42.108-.014-3.035,2.086-4.779,4.6-4.585.849.065,1.709-.022,2.561.021.584.03.916-.083.794-.757a2.5,2.5,0,0,1,.023-.557l2.6,0c.081,1.3.081,1.3,1.383,1.3,3.729,0,7.458.009,11.187-.01.5,0,.7.1.677.647-.053,1.116-.034,2.235-.045,3.352h-2.546c-.1-1.32-.1-1.32-1.473-1.32q-7.044,0-14.089,0a2.669,2.669,0,0,0-3.013,2.993q0,18.13,0,36.26a2.713,2.713,0,0,0,3.047,3.061q27.377,0,54.755,0a2.714,2.714,0,0,0,3.049-3.06q0-18.13,0-36.26a2.672,2.672,0,0,0-3.013-2.994q-7.044,0-14.089,0c-1.372,0-1.372,0-1.473,1.32h-2.547c-.011-1.091.018-2.184-.047-3.272-.038-.628.186-.734.76-.73,3.7.026,7.4.014,11.107.014,1.3,0,1.3,0,1.383-1.3Z" transform="translate(-16.744 -42.061)" fill="#cbcfd6"/>
      <path id="Trazado_619193" data-name="Trazado 619193" d="M143.007,956.079c.011-1.118-.008-2.237.045-3.352.026-.55-.178-.649-.677-.647-3.729.019-7.458.01-11.187.01-1.3,0-1.3,0-1.383-1.3.01-2.027,0-4.055.041-6.081.009-.517-.24-.543-.636-.541-1.761.013-3.522-.011-5.283.015-.517.008-.749-.074-.745-.682q.043-5.963,0-11.926c0-.541.161-.655.673-.653q7.284.029,14.569,0c.519,0,.667.125.664.654q-.034,5.963,0,11.926c0,.6-.215.69-.738.682-1.761-.029-3.522.007-5.283-.022-.5-.009-.632.135-.619.627.034,1.333.043,2.669,0,4-.021.593.2.684.729.681,3.842-.02,7.685.017,11.527-.032.839-.011,1.158.214,1.013,1.038a1.171,1.171,0,0,0,.033.316v5.285q-.018,4.32-.035,8.641c-.005,1.945,0,1.919-1.941,1.946-.6.008-.755-.141-.751-.746C143.046,962.641,143.018,959.36,143.007,956.079ZM131.1,941.512c1.575,0,3.15-.017,4.724.01.472.008.641-.09.634-.607q-.047-3.322,0-6.645c.009-.585-.19-.7-.726-.692q-4.6.036-9.208,0c-.519,0-.675.131-.668.661.03,2.215.033,4.43,0,6.645-.009.559.191.647.681.638C128.058,941.494,129.579,941.512,131.1,941.512Z" transform="translate(-25.126 -0.004)" fill="#040404"/>
      <path id="Trazado_619194" data-name="Trazado 619194" d="M250.378,950.792c-.081,1.3-.081,1.3-1.383,1.3-3.7,0-7.4.013-11.107-.014-.574,0-.8.1-.76.73.065,1.088.037,2.181.047,3.272q-.016,4.361-.031,8.721c0,1.856,0,1.825-1.857,1.867-.658.015-.842-.153-.837-.827.027-3.253-.006-6.507-.018-9.761q0-2.642,0-5.285c.1-1.333.1-1.333,1.446-1.333,3.656,0,7.311-.025,10.967.021.765.01.92-.233.89-.931-.054-1.252-.039-2.508,0-3.761.014-.491-.122-.636-.619-.627-1.761.03-3.522-.006-5.283.022-.523.008-.742-.082-.738-.681q.041-5.963,0-11.926c0-.529.144-.657.663-.655q7.284.031,14.569,0c.511,0,.677.11.674.652q-.036,5.963,0,11.926c0,.607-.226.69-.744.682-1.761-.026-3.522,0-5.283-.015-.4,0-.646.023-.636.541C250.373,946.737,250.368,948.765,250.378,950.792Zm-1.348-9.28c1.548,0,3.1-.013,4.644.008.441.006.661-.037.653-.584-.035-2.268-.023-4.537-.006-6.805,0-.407-.1-.552-.531-.549q-4.764.025-9.528,0c-.431,0-.534.15-.531.556.016,2.268.02,4.537,0,6.805,0,.453.125.586.578.579C245.881,941.5,247.456,941.512,249.031,941.512Z" transform="translate(-100.686 -0.004)" fill="#040404"/>
      <path id="Trazado_619195" data-name="Trazado 619195" d="M195.778,950.78c.011-2.026.006-4.053.045-6.079.01-.524-.247-.537-.635-.534-1.734.011-3.468-.016-5.2.017-.586.011-.832-.085-.825-.768q.055-5.882,0-11.764c-.005-.62.176-.737.759-.734q7.2.036,14.405,0c.582,0,.764.113.759.734q-.048,5.881,0,11.764c.006.682-.239.779-.825.768-1.734-.033-3.468-.005-5.2-.017-.388,0-.646.01-.636.534.039,2.026.033,4.052.045,6.079q0,2.647,0,5.294-.017,4.354-.034,8.709c-.005,1.879,0,1.847-1.911,1.883-.633.012-.728-.2-.725-.764.015-3.276-.01-6.552-.021-9.827Zm1.331-9.273c1.572,0,3.144-.013,4.715.009.425.006.6-.072.6-.554-.026-2.264-.021-4.529,0-6.793,0-.433-.094-.6-.565-.592q-4.715.03-9.431,0c-.432,0-.6.088-.6.563.024,2.264.031,4.529,0,6.792-.009.547.212.588.651.582C194.019,941.494,195.564,941.507,197.109,941.507Z" transform="translate(-69.937 0)" fill="#050505"/>
      <path id="Trazado_619196" data-name="Trazado 619196" d="M198.747,992.833v5.294l-5.215,0v-5.285Z" transform="translate(-72.906 -42.053)" fill="#caced4"/>
      <path id="Trazado_619197" data-name="Trazado 619197" d="M218.176,998.126q0-2.647,0-5.294l5.215.011q0,2.642,0,5.285Z" transform="translate(-89.645 -42.052)" fill="#caced4"/>
      <path id="Trazado_619198" data-name="Trazado 619198" d="M123.618,1161.48q-11.129,0-22.259,0a6.555,6.555,0,0,1-6.7-5.176,5.851,5.851,0,0,1-.124-.949c-.08-1.3.362-1.779,1.637-1.779,8.46,0,16.921.006,25.381-.017.632,0,.779.2.721.77a4.148,4.148,0,0,0,4.526,4.564c4.081-.107,8.166-.024,12.25-.029,2.762,0,4.389-1.613,4.361-4.372-.007-.682.107-.941.886-.938,8.354.033,16.707.02,25.061.021,1.5,0,1.9.441,1.795,1.937a6.626,6.626,0,0,1-4.526,5.664c-.522.164-.726.1-.712-.493.029-1.28-.008-2.562.017-3.843.009-.474-.122-.657-.628-.651q-3.362.035-6.725,0c-.527-.006-.615.2-.606.659.026,1.334-.009,2.669.019,4,.01.476-.118.638-.619.648-2.037.04-2.036.058-2.036-1.963,0-.907-.015-1.815.006-2.722.01-.42-.08-.627-.567-.623q-3.4.032-6.806,0c-.477,0-.58.179-.572.611.022,1.254-.032,2.51.023,3.762.031.71-.144.946-.905.941-5.258-.036-10.515-.019-15.773-.019Z" transform="translate(-5.663 -151.212)" fill="#969ea8"/>
      <path id="Trazado_619199" data-name="Trazado 619199" d="M197.06,1153.564c2.4,0,4.8.017,7.2-.013.557-.007.72.148.713.709-.02,1.552-.368,1.932-1.936,1.933q-6.04,0-12.079,0c-1.535,0-2.169-.813-1.86-2.316.1-.481.44-.3.684-.3C192.207,1153.558,194.634,1153.564,197.06,1153.564Z" transform="translate(-69.843 -151.206)" fill="#ec8773"/>
      <path id="Trazado_619200" data-name="Trazado 619200" d="M303.192,1171.456c0,1.287,0,1.287-1.3,1.287-1.356,0-1.356,0-1.356-1.329,0-1.309,0-1.309,1.277-1.309C303.192,1170.1,303.192,1170.1,303.192,1171.456Z" transform="translate(-145.582 -162.456)" fill="#ec8773"/>
      <path id="Trazado_619201" data-name="Trazado 619201" d="M268.912,1170.1c1.3,0,1.3,0,1.3,1.276,0,1.348,0,1.348-1.32,1.348-1.345,0-1.345,0-1.345-1.335C267.542,1170.1,267.542,1170.1,268.912,1170.1Z" transform="translate(-123.175 -162.456)" fill="#ec8773"/>
      <path id="Trazado_619202" data-name="Trazado 619202" d="M156.521,1009.335l5.215,0c.012,3.254.045,6.507.018,9.761-.005.673.179.841.837.827,1.855-.042,1.852-.011,1.857-1.867q.011-4.361.031-8.721h2.547c.1,1.3.1,1.3,1.41,1.3,4.564,0,9.127.015,13.691-.017.676,0,.83.183.827.84-.026,5.871-.015,11.742-.015,17.612,0,5.951-.009,11.9.013,17.853,0,.586-.128.784-.744.76-1.279-.051-2.562-.04-3.842,0-.546.015-.734-.13-.725-.705.034-2.081,0-4.163.023-6.244a.7.7,0,0,0-.611-.833c-.849-.221-1.677-.519-2.512-.795-.527-.174-1.768-2.9-1.556-3.408.061-.147.147-.283.22-.425.379-.733.738-1.478,1.145-2.2a.57.57,0,0,0-.135-.813q-3.158-3.125-6.281-6.286a.576.576,0,0,0-.82-.089c-.8.424-1.612.825-2.41,1.25a.883.883,0,0,1-.819.1c-2.6-1.012-2.6-1.006-3.439-3.653-.056-.178-.126-.352-.165-.534-.088-.411-.331-.518-.742-.516-2.909.018-5.818.022-8.727,0a.675.675,0,0,0-.763.6c-.253.869-.543,1.726-.814,2.59a.828.828,0,0,1-.481.581c-2.563,1.128-2.561,1.133-5.1-.19a4.57,4.57,0,0,1-.421-.227.551.551,0,0,0-.818.1q-3.12,3.164-6.283,6.285a.571.571,0,0,0-.132.813c.453.814.856,1.655,1.29,2.48a.809.809,0,0,1,.093.739c-.989,2.625-.983,2.627-3.708,3.486a1.776,1.776,0,0,1-.3.1c-.56.068-.7.373-.7.926.036,2.054-.007,4.11.027,6.164.009.575-.179.72-.725.705-1.28-.036-2.563-.047-3.842,0-.615.024-.744-.174-.743-.76q.026-17.773,0-35.545c0-.589.132-.762.745-.758,4.59.028,9.181.015,13.771.015,1.313,0,1.313,0,1.41-1.3h2.546c.011,3.281.038,6.561.016,9.841,0,.605.156.754.751.746,1.94-.028,1.935,0,1.941-1.946q.012-4.321.035-8.641l5.215,0c.012,3.276.037,6.552.021,9.827,0,.567.092.776.725.764,1.91-.036,1.906,0,1.911-1.883Q156.5,1013.689,156.521,1009.335Z" transform="translate(-27.989 -53.261)" fill="#83d2ee"/>
      <path id="Trazado_619203" data-name="Trazado 619203" d="M137.712,1006.543c-.1,1.3-.1,1.3-1.41,1.3-4.59,0-9.181.013-13.771-.015-.613,0-.746.169-.745.758q.026,17.773,0,35.545c0,.586.128.784.743.76,1.279-.051,2.562-.04,3.842,0,.547.015.735-.13.725-.705-.034-2.054.008-4.11-.027-6.164-.009-.553.135-.858.7-.926a1.786,1.786,0,0,0,.3-.1c2.725-.859,2.719-.861,3.708-3.486a.809.809,0,0,0-.093-.738c-.434-.825-.837-1.666-1.29-2.48a.571.571,0,0,1,.132-.813q3.159-3.125,6.283-6.285a.551.551,0,0,1,.818-.1,4.555,4.555,0,0,0,.421.227c2.535,1.323,2.532,1.317,5.1.19a.828.828,0,0,0,.481-.581c.27-.864.561-1.721.814-2.59a.675.675,0,0,1,.763-.6c2.909.026,5.818.021,8.727,0,.411,0,.653.1.742.516.039.182.109.356.165.534.841,2.648.844,2.641,3.439,3.653a.882.882,0,0,0,.819-.1c.8-.425,1.611-.826,2.41-1.25a.576.576,0,0,1,.82.089q3.116,3.168,6.281,6.286a.57.57,0,0,1,.135.814c-.407.717-.766,1.462-1.145,2.2-.073.142-.159.279-.22.425-.211.508,1.029,3.234,1.556,3.408.834.276,1.663.573,2.512.795a.7.7,0,0,1,.611.833c-.025,2.081.01,4.163-.023,6.244-.009.575.179.72.725.705,1.28-.036,2.563-.047,3.842,0,.615.024.746-.174.744-.76-.021-5.951-.013-11.9-.013-17.853,0-5.871-.011-11.742.015-17.613,0-.657-.151-.844-.827-.84-4.563.032-9.127.017-13.691.017-1.312,0-1.312,0-1.41-1.3.1-1.32.1-1.32,1.473-1.32q7.044,0,14.089,0a2.672,2.672,0,0,1,3.013,2.994q0,18.131,0,36.261a2.714,2.714,0,0,1-3.05,3.06q-27.377,0-54.755,0a2.713,2.713,0,0,1-3.047-3.061q0-18.131,0-36.26a2.669,2.669,0,0,1,3.013-2.993q7.044,0,14.089,0C137.611,1005.222,137.611,1005.222,137.712,1006.543Zm-8,35.419c0,.8.015,1.6-.007,2.4-.01.373.1.52.493.516q2.241-.026,4.483,0c.42.005.56-.106.487-.547a13.78,13.78,0,0,1,0-4.3,14.548,14.548,0,0,1,27.523-4.037,14.1,14.1,0,0,1,1.266,8.253c-.073.5.032.651.55.64,1.441-.032,2.883-.027,4.323,0,.455.008.6-.134.586-.589-.031-.906,0-1.815-.012-2.722-.008-.77.242-1.745-.132-2.25s-1.376-.584-2.12-.781a1.337,1.337,0,0,1-1.129-1.132,5.306,5.306,0,0,0-.706-1.941,3.523,3.523,0,0,1,.116-4.6c.317-.405.157-.684-.179-1.006-.946-.9-1.856-1.842-2.781-2.767-1.005-1.005-1.056-1.087-2.259-.332a2.457,2.457,0,0,1-3.165.027,2.555,2.555,0,0,0-1.164-.506,3.4,3.4,0,0,1-3.147-3.336c-.056-.457-.327-.567-.775-.557-1.414.032-2.835.089-4.241-.015-.964-.071-1.406.257-1.537,1.172a2.587,2.587,0,0,1-2.424,2.536,2.822,2.822,0,0,0-.819.307c-.82.373-1.64,1.068-2.449,1.052s-1.622-.72-2.419-1.15a.532.532,0,0,0-.753.111q-1.762,1.8-3.568,3.564a.578.578,0,0,0-.12.823c.343.6.619,1.24.965,1.839a1.025,1.025,0,0,1,0,1.173,11.775,11.775,0,0,0-1.431,3.371,1.738,1.738,0,0,1-1.427,1.438c-2.048.571-2.035.618-2.035,2.713Q129.715,1041.641,129.715,1041.962Zm25.973,2.911h3.989c1.616,0,1.616,0,1.734-1.642a11.885,11.885,0,1,0-23.543,1.07c.058.3.08.578.5.575,1.677-.01,3.355,0,5.046,0-.863-3.933-.065-6.469,2.538-8.172a6.65,6.65,0,0,1,7.447.162C155.873,1038.639,156.642,1041.267,155.689,1044.873Zm-6.163,0c.8,0,1.6-.026,2.4.01a.986.986,0,0,0,.972-.528,3.953,3.953,0,1,0-6.749-.133,1.1,1.1,0,0,0,1.139.665C148.029,1044.831,148.779,1044.873,149.525,1044.873Z" transform="translate(-22.377 -50.467)" fill="#030403"/>
      <path id="Trazado_619204" data-name="Trazado 619204" d="M136.76,947.13c-1.521,0-3.043-.018-4.564.01-.49.009-.69-.08-.681-.638.035-2.215.031-4.43,0-6.645-.007-.53.149-.665.668-.66q4.6.035,9.208,0c.536,0,.735.106.726.692q-.053,3.322,0,6.645c.007.517-.162.616-.634.607C139.909,947.113,138.335,947.13,136.76,947.13Zm.056-5.29H136.1c-1.986,0-1.968,0-1.965,1.987,0,.511.118.712.66.687.876-.041,1.755-.011,2.633-.011,2.085,0,2.072,0,2.033-2.085-.008-.432-.1-.616-.569-.589C138.2,941.871,137.508,941.84,136.816,941.84Z" transform="translate(-30.785 -5.623)" fill="#e9cfb5"/>
      <path id="Trazado_619205" data-name="Trazado 619205" d="M268.713,947.137c-1.574,0-3.15-.016-4.724.01-.453.007-.583-.126-.578-.579.022-2.268.018-4.537,0-6.805,0-.405.1-.557.531-.556q4.764.023,9.528,0c.431,0,.534.143.531.55-.017,2.268-.028,4.537.006,6.805.008.547-.212.59-.653.584C271.809,947.124,270.261,947.137,268.713,947.137Zm.031-2.626h.638c2.042,0,2.042,0,2-2.039a1.2,1.2,0,0,1,0-.159c.039-.334-.085-.475-.443-.471-1.489.015-2.979.01-4.469,0-.254,0-.359.064-.4.347-.311,2.114-.145,2.32,1.957,2.32Z" transform="translate(-120.369 -5.629)" fill="#e9cfb5"/>
      <path id="Trazado_619206" data-name="Trazado 619206" d="M202.747,947.135c-1.545,0-3.09-.013-4.635.008-.439.006-.66-.035-.651-.582.035-2.264.028-4.528,0-6.792-.005-.474.163-.565.6-.563q4.715.025,9.431,0c.471,0,.569.159.565.592-.019,2.264-.023,4.529,0,6.793.006.482-.171.56-.6.554C205.89,947.122,204.319,947.135,202.747,947.135Zm0-2.625h.638c2.1,0,2.082,0,2.051-2.081-.008-.532-.2-.608-.658-.593-.9.03-1.808.009-2.713.009-1.991,0-1.966,0-1.972,1.983,0,.59.207.723.738.691C201.463,944.48,202.1,944.51,202.742,944.51Z" transform="translate(-75.575 -5.629)" fill="#ead0b6"/>
      <path id="Trazado_619207" data-name="Trazado 619207" d="M152.1,1078.256v-.641c0-2.1-.013-2.142,2.035-2.713a1.738,1.738,0,0,0,1.427-1.438,11.778,11.778,0,0,1,1.431-3.371,1.025,1.025,0,0,0,0-1.173c-.346-.6-.622-1.238-.965-1.839a.578.578,0,0,1,.12-.823q1.8-1.763,3.568-3.564a.532.532,0,0,1,.753-.111c.8.43,1.6,1.134,2.419,1.15s1.629-.678,2.449-1.052a2.833,2.833,0,0,1,.819-.307,2.587,2.587,0,0,0,2.424-2.536c.131-.915.572-1.243,1.537-1.172,1.407.1,2.828.047,4.241.015.448-.01.719.1.775.557a3.4,3.4,0,0,0,3.147,3.336,2.552,2.552,0,0,1,1.164.507,2.457,2.457,0,0,0,3.165-.027c1.2-.755,1.254-.674,2.259.332.925.925,1.835,1.865,2.781,2.767.337.321.5.6.179,1.006a3.523,3.523,0,0,0-.116,4.6,5.306,5.306,0,0,1,.706,1.941,1.337,1.337,0,0,0,1.129,1.132c.744.2,1.742.273,2.12.781s.124,1.481.133,2.25c.01.907-.02,1.815.012,2.722.016.455-.131.6-.586.589-1.441-.025-2.883-.031-4.323,0-.518.012-.623-.144-.55-.64a14.1,14.1,0,0,0-1.266-8.254,14.548,14.548,0,0,0-27.523,4.037,13.78,13.78,0,0,0,0,4.3c.073.441-.067.552-.487.547q-2.241-.027-4.483,0c-.392,0-.5-.143-.493-.516C152.113,1079.857,152.1,1079.056,152.1,1078.256Z" transform="translate(-44.76 -86.762)" fill="#f4c54e"/>
      <path id="Trazado_619208" data-name="Trazado 619208" d="M194.912,1098.075c.953-3.606.184-6.234-2.289-8.011a6.65,6.65,0,0,0-7.447-.162c-2.6,1.7-3.4,4.239-2.538,8.172-1.691,0-3.368-.006-5.046,0-.421,0-.443-.277-.5-.576a11.885,11.885,0,1,1,23.543-1.07c-.118,1.642-.118,1.642-1.734,1.642Z" transform="translate(-61.6 -103.669)" fill="#f3d57e"/>
      <path id="Trazado_619209" data-name="Trazado 619209" d="M205.562,1114.839c-.747,0-1.5-.042-2.239.014a1.1,1.1,0,0,1-1.139-.665,3.954,3.954,0,1,1,6.749.133.986.986,0,0,1-.972.528C207.163,1114.813,206.362,1114.839,205.562,1114.839Z" transform="translate(-78.414 -120.434)" fill="#82d1ed"/>
      <path id="Trazado_619210" data-name="Trazado 619210" d="M142.357,947.411c.692,0,1.385.03,2.074-.01.474-.028.561.156.569.589.039,2.085.052,2.085-2.033,2.085-.878,0-1.757-.03-2.633.011-.542.025-.66-.176-.66-.687,0-1.987-.021-1.987,1.965-1.987Z" transform="translate(-36.326 -11.193)" fill="#090807"/>
      <path id="Trazado_619211" data-name="Trazado 619211" d="M274.114,950.089H273.4c-2.1,0-2.268-.206-1.957-2.32.042-.283.146-.348.4-.347,1.489.007,2.979.012,4.469,0,.358,0,.482.138.443.471a1.2,1.2,0,0,0,0,.159c.044,2.039.044,2.039-2,2.039Z" transform="translate(-125.739 -11.208)" fill="#090807"/>
      <path id="Trazado_619212" data-name="Trazado 619212" d="M208.309,950.079c-.638,0-1.279-.03-1.915.009-.532.033-.74-.1-.738-.691.006-1.983-.019-1.983,1.972-1.983.9,0,1.81.021,2.713-.009.454-.015.65.061.658.593.031,2.081.053,2.081-2.051,2.081Z" transform="translate(-81.142 -11.197)" fill="#090807"/>
    </g>
  </g>
</svg>
