<svg xmlns="http://www.w3.org/2000/svg" width="124" height="124" viewBox="0 0 124 124">
  <g id="Grupo_940232" data-name="Grupo 940232" transform="translate(-1049 -4740)">
    <circle id="Elipse_7678" data-name="Elipse 7678" cx="50.5" cy="50.5" r="50.5" transform="translate(1061 4752)" fill="#fff"/>
    <rect id="Rectángulo_305813" data-name="Rectángulo 305813" width="124" height="124" transform="translate(1049 4740)" fill="none"/>
    <g id="Grupo_940235" data-name="Grupo 940235" transform="translate(713.261 3808.824)">
      <path id="Trazado_619213" data-name="Trazado 619213" d="M394.124,981.355c0,1.827-.015,3.653.011,5.479.007.47-.1.651-.6.621-.739-.043-1.484-.031-2.225,0a2.734,2.734,0,0,0,.023,5.466c.713.025,1.428.039,2.139-.005.512-.031.681.094.67.645-.039,1.854,0,3.71-.028,5.565-.009.515.1.683.649.666,1.425-.044,2.853-.03,4.279-.005.429.008.541-.107.6-.55a5.465,5.465,0,0,1,10.882.033c.064.5.259.513.633.512,2.283-.009,4.565.021,6.847-.021.631-.012.787.136.8.784.12,9.431-3.671,16.93-11.092,22.664-1.15.889-2.257,1.834-3.384,2.754-.089.072-.181.14-.262.22-.7.692-.3,1.562-.312,2.338-.014.691-.414,1.5.653,2.023a3.672,3.672,0,0,1,2.036,3.674,3.785,3.785,0,0,1-2.287,3.445c-.6.277-.66.537-.518,1.136a3.929,3.929,0,0,1-2.1,4.289,1.307,1.307,0,0,0-.769,1.077,9.558,9.558,0,0,1-18.772-.167,1.077,1.077,0,0,0-.669-.868,3.95,3.95,0,0,1-2.115-4.578c.1-.458-.018-.608-.434-.8a4.052,4.052,0,0,1-.182-7.348.757.757,0,0,0,.481-.769c.074-3.109.081-3.108-2.337-5.08a41.779,41.779,0,0,1-7.783-7.529c-9.968-13.7-4.235-33.6,11.487-39.94a32.518,32.518,0,0,1,13.25-1.981c.512.013.441.292.44.6Q394.122,978.53,394.124,981.355Zm-21.9,21.16c-1.6,0-3.2.025-4.792-.013-.579-.014-.7.159-.653.718a23.629,23.629,0,0,0,8.7,16.748q2.89,2.412,5.83,4.764a1.2,1.2,0,0,1,.509,1.077c-.033,1.169.014,2.34-.022,3.509-.015.5.153.611.625.607q4.193-.031,8.387,0c.513,0,.6-.179.6-.636q-.026-4.879,0-9.759c0-.415-.091-.552-.544-.613a5.467,5.467,0,0,1,.028-10.886c.5-.066.515-.27.512-.642-.01-1.427-.026-2.854.008-4.28.012-.5-.158-.612-.627-.605-1.769.025-3.537.016-5.306.008-.736,0-1.7.239-2.145-.13-.473-.39-.1-1.389-.149-2.12-.011-.171,0-.342,0-.513a2.736,2.736,0,0,0-5.472.006c-.02.684-.036,1.372.007,2.054.034.537-.1.736-.687.72C375.416,1002.486,373.818,1002.515,372.22,1002.515Zm21.9,20.524c0,2.083.012,4.166-.009,6.249,0,.455.078.647.594.638,1.882-.032,3.766-.027,5.648,0,.471.006.641-.107.626-.606-.036-1.169.011-2.34-.023-3.509a1.2,1.2,0,0,1,.512-1.075q2.9-2.332,5.761-4.713a23.647,23.647,0,0,0,8.761-16.8c.049-.564-.081-.724-.655-.716-2.225.032-4.451-.024-6.675.034-.746.02-.922-.214-.858-.9a14.259,14.259,0,0,0,.005-1.968,2.733,2.733,0,0,0-5.461,0,17,17,0,0,0,0,2.053c.047.613-.1.827-.773.812-2.252-.049-4.507,0-6.76-.032-.548-.007-.719.126-.711.7.034,2.283-.005,4.566.028,6.848.008.567-.154.737-.709.7-.682-.047-1.369-.026-2.053-.008a2.735,2.735,0,0,0-.026,5.47,19.986,19.986,0,0,0,2.138-.008c.557-.042.654.169.647.674C394.108,1018.929,394.124,1020.984,394.124,1023.039Zm-2.74-41.747c0-.884-.042-1.771.014-2.652.04-.628-.125-.807-.782-.8a23.815,23.815,0,0,0-23.747,21.27c-.057.508.008.69.581.681,2.309-.035,4.62-.024,6.929-.005.426,0,.546-.108.605-.552a5.468,5.468,0,0,1,10.888.035c.056.4.147.523.552.517q2.224-.036,4.449,0c.423.007.528-.138.519-.537-.024-1.026-.031-2.054,0-3.08.014-.435-.163-.48-.537-.533a5.47,5.47,0,0,1,0-10.892c.474-.062.539-.229.53-.625C391.37,983.175,391.384,982.234,391.384,981.292Zm-.011,51.363H381.2c-.285,0-.572-.017-.854.01a1.362,1.362,0,0,0-.022,2.717,5.161,5.161,0,0,0,.6.011h20.94a3.214,3.214,0,0,0,.682-.024,1.361,1.361,0,0,0,.021-2.686,3.567,3.567,0,0,0-.767-.027Q396.586,1032.654,391.373,1032.655Zm-6.651,10.989a6.809,6.809,0,0,0,6.91,5.445,6.733,6.733,0,0,0,6.385-5.445Zm6.666-2.769c2.62,0,5.24,0,7.86,0a1.66,1.66,0,0,0,1.271-.376,1.277,1.277,0,0,0,.348-1.478,1.43,1.43,0,0,0-1.5-.893q-7.946.01-15.891.005c-1.063,0-1.69.535-1.673,1.394s.636,1.341,1.725,1.343Q387.458,1040.879,391.388,1040.874Z" transform="translate(0 -15.684)" fill="#020202"/>
      <path id="Trazado_619214" data-name="Trazado 619214" d="M500.6,963.515c0,2.682.009,5.363,0,8.044a4.108,4.108,0,0,1-4.293,4.309c-2,.01-3.993-.023-5.988.017-.584.012-.719-.178-.684-.715.044-.682.026-1.369.006-2.053a2.734,2.734,0,0,0-5.468-.026c-.023.77-.025,1.541,0,2.311.014.383-.117.477-.485.475-3.336-.013-6.673-.018-10.009,0-.479,0-.478-.221-.476-.57.01-1.854-.006-3.709.012-5.563,0-.474-.023-.707-.636-.784a5.461,5.461,0,0,1,.033-10.857c.57-.069.621-.271.6-.726-.028-.712-.021-1.427,0-2.139a4.074,4.074,0,0,1,4.052-4.024q9.624-.035,19.249,0A4.059,4.059,0,0,1,500.6,955.3C500.624,958.038,500.6,960.777,500.6,963.515Zm-13.692-9.565q-4.619,0-9.239,0c-1.233,0-1.713.477-1.718,1.7-.007,1.512-.019,3.024.008,4.535.009.469-.1.655-.6.626-.739-.042-1.483-.032-2.223,0a2.734,2.734,0,0,0,.024,5.467c.712.025,1.428.038,2.138-.005.517-.032.681.106.67.651-.037,1.882,0,3.765-.024,5.647-.006.451.12.584.572.573,1.254-.03,2.511-.056,3.763.007.778.039,1.322-.025,1.262-1a2.093,2.093,0,0,1,.181-.742,5.459,5.459,0,0,1,10.611,1.06c.074.56.235.694.76.674,1-.039,2-.008,2.994-.012,1.327-.005,1.778-.462,1.779-1.812q0-7.787,0-15.575c0-1.338-.456-1.79-1.8-1.791Q491.488,953.947,486.911,953.95Z" transform="translate(-68.133)" fill="#010101"/>
      <path id="Trazado_619215" data-name="Trazado 619215" d="M377.511,1044.528c1.6,0,3.2-.029,4.792.015.586.016.721-.183.687-.72-.043-.682-.026-1.37-.007-2.054a2.736,2.736,0,0,1,5.472-.006c.006.171-.008.343,0,.513.047.731-.324,1.73.149,2.12.448.369,1.41.126,2.145.13,1.769.008,3.537.018,5.306-.008.469-.007.638.105.627.605-.033,1.426-.018,2.853-.008,4.28,0,.372-.012.575-.512.642a5.467,5.467,0,0,0-.028,10.886c.453.062.546.2.544.613q-.022,4.879,0,9.759c0,.457-.082.641-.6.636q-4.193-.038-8.387,0c-.472,0-.64-.109-.625-.607.036-1.169-.011-2.34.022-3.509a1.2,1.2,0,0,0-.509-1.077q-2.935-2.357-5.83-4.764a23.629,23.629,0,0,1-8.7-16.748c-.048-.559.074-.732.653-.718C374.315,1044.553,375.913,1044.528,377.511,1044.528Z" transform="translate(-5.291 -57.697)" fill="#f4d67e"/>
      <path id="Trazado_619216" data-name="Trazado 619216" d="M441.29,1065.052c0-2.055-.016-4.11.012-6.164.007-.5-.091-.716-.647-.674a19.986,19.986,0,0,1-2.138.008,2.735,2.735,0,0,1,.026-5.47c.684-.019,1.371-.04,2.053.007.555.039.717-.131.709-.7-.034-2.282.006-4.566-.028-6.848-.009-.571.163-.7.711-.7,2.254.031,4.508-.018,6.76.031.674.015.82-.2.773-.812a17,17,0,0,1,0-2.053,2.733,2.733,0,0,1,5.461,0,14.259,14.259,0,0,1-.005,1.968c-.064.687.112.921.858.9,2.224-.057,4.45,0,6.675-.034.574-.008.7.152.655.716a23.647,23.647,0,0,1-8.761,16.8q-2.864,2.376-5.761,4.713a1.2,1.2,0,0,0-.512,1.075c.034,1.169-.014,2.34.023,3.509.015.5-.155.613-.626.606-1.882-.025-3.766-.029-5.648,0-.516.009-.6-.183-.594-.638C441.3,1069.218,441.29,1067.135,441.29,1065.052Z" transform="translate(-47.166 -57.697)" fill="#f5d67e"/>
      <path id="Trazado_619217" data-name="Trazado 619217" d="M396.842,986.565c0,.941-.013,1.883.007,2.824.009.4-.056.563-.53.625a5.47,5.47,0,0,0,0,10.892c.373.052.551.1.537.533-.034,1.026-.027,2.054,0,3.08.009.4-.1.544-.519.537q-2.224-.036-4.449,0c-.4.006-.5-.115-.552-.517a5.468,5.468,0,0,0-10.887-.035c-.059.444-.18.555-.605.552-2.309-.019-4.62-.03-6.929.005-.574.009-.638-.173-.581-.681a23.815,23.815,0,0,1,23.747-21.27c.656,0,.822.174.782.8C396.8,984.794,396.842,985.681,396.842,986.565Z" transform="translate(-5.459 -20.958)" fill="#f4d57e"/>
      <path id="Trazado_619218" data-name="Trazado 619218" d="M420.2,1142.821h10.427a3.558,3.558,0,0,1,.767.028,1.361,1.361,0,0,1-.021,2.686,3.213,3.213,0,0,1-.682.024h-20.94a5.135,5.135,0,0,1-.6-.011,1.362,1.362,0,0,1,.022-2.717c.282-.028.569-.01.854-.01Z" transform="translate(-28.828 -125.85)" fill="#cbcfd6"/>
      <path id="Trazado_619219" data-name="Trazado 619219" d="M424.377,1174.85h13.295a6.733,6.733,0,0,1-6.385,5.445A6.81,6.81,0,0,1,424.377,1174.85Z" transform="translate(-39.655 -146.891)" fill="#a9b0ba"/>
      <path id="Trazado_619220" data-name="Trazado 619220" d="M425.456,1161.531q-3.93,0-7.86,0c-1.089,0-1.707-.491-1.725-1.343s.611-1.392,1.673-1.393q7.945-.006,15.891-.006a1.43,1.43,0,0,1,1.5.893,1.277,1.277,0,0,1-.348,1.479,1.659,1.659,0,0,1-1.271.375C430.7,1161.527,428.076,1161.531,425.456,1161.531Z" transform="translate(-34.068 -136.341)" fill="#cbcfd6"/>
      <path id="Trazado_619221" data-name="Trazado 619221" d="M492.153,959.208q4.577,0,9.153,0c1.343,0,1.8.453,1.8,1.791q0,7.787,0,15.575c0,1.35-.452,1.807-1.779,1.812-1,0-2-.027-2.994.012-.525.021-.685-.114-.76-.674a5.459,5.459,0,0,0-10.611-1.061,2.094,2.094,0,0,0-.181.742c.06.973-.484,1.036-1.262,1-1.252-.062-2.509-.036-3.763-.007-.452.011-.578-.122-.572-.573.024-1.882-.012-3.766.024-5.647.011-.545-.153-.683-.67-.651-.71.044-1.426.03-2.138.005a2.734,2.734,0,0,1-.024-5.467c.74-.027,1.484-.037,2.223,0,.5.028.613-.157.6-.626-.027-1.511-.015-3.024-.008-4.535.005-1.22.485-1.7,1.718-1.7Q487.533,959.2,492.153,959.208Z" transform="translate(-73.375 -5.257)" fill="#f5d67e"/>
    </g>
  </g>
</svg>
