<svg xmlns="http://www.w3.org/2000/svg" width="505" height="312" viewBox="0 0 505 312">
  <g id="Grupo_951859" data-name="Grupo 951859" transform="translate(9609 4236)">
    <path id="Trazado_628390" data-name="Trazado 628390" d="M15,0H490a15,15,0,0,1,15,15V297a15,15,0,0,1-15,15H15A15,15,0,0,1,0,297V15A15,15,0,0,1,15,0Z" transform="translate(-9609 -4236)" fill="#fff"/>
    <path id="Trazado_626429" data-name="Trazado 626429" d="M-9356.5-6036.794v30.183" transform="translate(0 1925)" fill="none" stroke="#449c6e" stroke-width="2"/>
    <path id="Trazado_626434" data-name="Trazado 626434" d="M-9356.5-6036.794v15.091" transform="translate(0 1982)" fill="none" stroke="#583cb6" stroke-width="2"/>
    <path id="Trazado_626431" data-name="Trazado 626431" d="M-9356.5-6036.794v15.091" transform="translate(165.523 1940.091)" fill="none" stroke="#449c6e" stroke-width="2"/>
    <path id="Trazado_626432" data-name="Trazado 626432" d="M-9356.5-6036.794v15.091" transform="translate(-165.523 1940.091)" fill="none" stroke="#449c6e" stroke-width="2"/>
    <path id="Trazado_626435" data-name="Trazado 626435" d="M-9356.5-6036.794v15.091" transform="translate(-49.397 1997.091)" fill="none" stroke="#583cb6" stroke-width="2"/>
    <path id="Trazado_626436" data-name="Trazado 626436" d="M-9356.5-6036.794v15.091" transform="translate(49.397 1997.091)" fill="none" stroke="#583cb6" stroke-width="2"/>
    <path id="Trazado_626430" data-name="Trazado 626430" d="M-9356.5-6036.793v331.047" transform="translate(-3485.23 -13453.203) rotate(-90)" fill="none" stroke="#449c6e" stroke-width="2"/>
    <path id="Trazado_626433" data-name="Trazado 626433" d="M-9356.5-6036.793V-5938" transform="translate(-3369.104 -13396.203) rotate(-90)" fill="none" stroke="#583cb6" stroke-width="2"/>
    <path id="Trazado_628391" data-name="Trazado 628391" d="M0,0H146V31H0Z" transform="translate(-9429 -4085)" fill="#583cb6"/>
    <g id="Trazado_626438" data-name="Trazado 626438" transform="translate(-9451 -4025)" fill="#ebe0ff">
      <path d="M 87 30 L 1 30 L 1 1 L 87 1 L 87 30 Z" stroke="none"/>
      <path d="M 2 2 L 2 29 L 86 29 L 86 2 L 2 2 M 0 0 L 88 0 L 88 31 L 0 31 L 0 0 Z" stroke="none" fill="#583cb6"/>
    </g>
    <g id="Trazado_626437" data-name="Trazado 626437" transform="translate(-9351 -4025)" fill="#ebe0ff">
      <path d="M 87 30 L 1 30 L 1 1 L 87 1 L 87 30 Z" stroke="none"/>
      <path d="M 2 2 L 2 29 L 86 29 L 86 2 L 2 2 M 0 0 L 88 0 L 88 31 L 0 31 L 0 0 Z" stroke="none" fill="#583cb6"/>
    </g>
    <path id="Trazado_628392" data-name="Trazado 628392" d="M43.69,8.611H40.6v2.095h3.631V12H38.985V4.18h5.231V5.485H40.6V7.349H43.69ZM47.106,10.1l1.08-3.916h1.622L47.847,12H46.365L44.4,6.188h1.622ZM53.777,12a1.724,1.724,0,0,1-.156-.521,1.878,1.878,0,0,1-1.466.628,2.063,2.063,0,0,1-1.415-.494,1.589,1.589,0,0,1-.561-1.246,1.642,1.642,0,0,1,.685-1.418,3.379,3.379,0,0,1,1.979-.5h.714V8.117a.958.958,0,0,0-.207-.645A.813.813,0,0,0,52.7,7.23a.925.925,0,0,0-.615.188.639.639,0,0,0-.223.516H50.307A1.559,1.559,0,0,1,50.619,7a2.059,2.059,0,0,1,.881-.674,3.21,3.21,0,0,1,1.278-.244,2.536,2.536,0,0,1,1.705.54,1.888,1.888,0,0,1,.631,1.517v2.519a2.778,2.778,0,0,0,.231,1.251V12Zm-1.284-1.08a1.337,1.337,0,0,0,.634-.153,1,1,0,0,0,.43-.411v-1h-.58q-1.166,0-1.241.806l-.005.091a.621.621,0,0,0,.2.478A.793.793,0,0,0,52.493,10.92ZM57.945,12H56.387V3.75h1.558Zm4.759-.591a1.947,1.947,0,0,1-1.59.7,1.836,1.836,0,0,1-1.426-.537,2.293,2.293,0,0,1-.5-1.574V6.188h1.552V9.943q0,.908.827.908A1.121,1.121,0,0,0,62.65,10.3V6.188h1.558V12H62.747ZM68.746,12a1.724,1.724,0,0,1-.156-.521,1.878,1.878,0,0,1-1.466.628,2.063,2.063,0,0,1-1.415-.494,1.589,1.589,0,0,1-.561-1.246,1.642,1.642,0,0,1,.685-1.418,3.379,3.379,0,0,1,1.979-.5h.714V8.117a.958.958,0,0,0-.207-.645.813.813,0,0,0-.653-.242.925.925,0,0,0-.615.188.639.639,0,0,0-.223.516H65.277A1.559,1.559,0,0,1,65.588,7a2.059,2.059,0,0,1,.881-.674,3.21,3.21,0,0,1,1.278-.244,2.536,2.536,0,0,1,1.705.54,1.888,1.888,0,0,1,.631,1.517v2.519a2.778,2.778,0,0,0,.231,1.251V12Zm-1.284-1.08a1.337,1.337,0,0,0,.634-.153,1,1,0,0,0,.43-.411v-1h-.58q-1.166,0-1.241.806l-.005.091a.621.621,0,0,0,.2.478A.793.793,0,0,0,67.463,10.92Zm6.23-.064a1.018,1.018,0,0,0,.7-.236.828.828,0,0,0,.279-.628h1.456a1.991,1.991,0,0,1-.322,1.082,2.126,2.126,0,0,1-.867.763,2.715,2.715,0,0,1-1.217.271,2.523,2.523,0,0,1-1.966-.792,3.135,3.135,0,0,1-.72-2.189v-.1a3.1,3.1,0,0,1,.714-2.143,2.494,2.494,0,0,1,1.96-.8,2.444,2.444,0,0,1,1.748.62,2.2,2.2,0,0,1,.669,1.652H74.671a1.058,1.058,0,0,0-.279-.733,1.04,1.04,0,0,0-1.528.113,2.285,2.285,0,0,0-.277,1.281v.161a2.314,2.314,0,0,0,.274,1.289A.947.947,0,0,0,73.693,10.856ZM78.651,12H77.093V6.188h1.558ZM77,4.685a.764.764,0,0,1,.234-.575,1.007,1.007,0,0,1,1.27,0,.76.76,0,0,1,.236.575.762.762,0,0,1-.239.58,1,1,0,0,1-1.262,0A.762.762,0,0,1,77,4.685Zm2.686,4.356A3.447,3.447,0,0,1,80.02,7.5a2.438,2.438,0,0,1,.959-1.047,2.8,2.8,0,0,1,1.453-.371,2.646,2.646,0,0,1,1.92.72,2.889,2.889,0,0,1,.83,1.955l.011.4a3.038,3.038,0,0,1-.747,2.146,2.894,2.894,0,0,1-4.01,0,3.091,3.091,0,0,1-.749-2.191Zm1.552.113a2.166,2.166,0,0,0,.312,1.265,1.12,1.12,0,0,0,1.772.005,2.371,2.371,0,0,0,.317-1.383,2.145,2.145,0,0,0-.317-1.257,1.031,1.031,0,0,0-.892-.446,1.014,1.014,0,0,0-.881.443A2.41,2.41,0,0,0,81.24,9.153Zm1.5-5.4H84.43L82.942,5.415H81.68Zm4.839,2.438.048.671a2.029,2.029,0,0,1,1.67-.779,1.686,1.686,0,0,1,1.375.542,2.531,2.531,0,0,1,.462,1.622V12H89.581V8.283a1.007,1.007,0,0,0-.215-.717.962.962,0,0,0-.714-.223,1.068,1.068,0,0,0-.983.559V12H86.116V6.188Z" transform="translate(-9421.156 -4077)" fill="#fff"/>
    <path id="Trazado_628393" data-name="Trazado 628393" d="M23.68,4.18V9.331a2.637,2.637,0,0,1-.8,2.03,3.1,3.1,0,0,1-2.194.747,3.131,3.131,0,0,1-2.175-.725,2.592,2.592,0,0,1-.822-1.993V4.18H19.3V9.341a1.49,1.49,0,0,0,.368,1.12,1.412,1.412,0,0,0,1.018.352q1.359,0,1.38-1.429V4.18Zm3.078.58V6.188h.994V7.327h-.994v2.9a.693.693,0,0,0,.124.462.62.62,0,0,0,.473.14,2.475,2.475,0,0,0,.457-.038v1.176a3.2,3.2,0,0,1-.94.14,1.482,1.482,0,0,1-1.665-1.649V7.327h-.849V6.188h.849V4.76Zm3.5,7.24H28.7V6.188h1.558ZM28.606,4.685a.764.764,0,0,1,.234-.575,1.007,1.007,0,0,1,1.27,0,.76.76,0,0,1,.236.575.762.762,0,0,1-.239.58,1,1,0,0,1-1.262,0A.762.762,0,0,1,28.606,4.685ZM33.171,12H31.614V3.75h1.558Zm2.917,0H34.53V6.188h1.558ZM34.439,4.685a.764.764,0,0,1,.234-.575,1.007,1.007,0,0,1,1.27,0,.76.76,0,0,1,.236.575.762.762,0,0,1-.239.58,1,1,0,0,1-1.262,0A.762.762,0,0,1,34.439,4.685Zm2.686,4.367a3.5,3.5,0,0,1,.61-2.165A1.978,1.978,0,0,1,39.4,6.081a1.78,1.78,0,0,1,1.4.634V3.75h1.558V12h-1.4l-.075-.618a1.827,1.827,0,0,1-1.493.725,1.973,1.973,0,0,1-1.646-.808A3.615,3.615,0,0,1,37.124,9.051Zm1.552.113a2.288,2.288,0,0,0,.285,1.251.928.928,0,0,0,.827.435,1.039,1.039,0,0,0,1.015-.607V7.95a1.024,1.024,0,0,0-1-.607Q38.677,7.343,38.677,9.164ZM46.932,12a1.724,1.724,0,0,1-.156-.521,1.878,1.878,0,0,1-1.466.628,2.063,2.063,0,0,1-1.415-.494,1.589,1.589,0,0,1-.561-1.246,1.642,1.642,0,0,1,.685-1.418A3.379,3.379,0,0,1,46,8.45h.714V8.117a.958.958,0,0,0-.207-.645.813.813,0,0,0-.653-.242.925.925,0,0,0-.615.188.639.639,0,0,0-.223.516H43.462A1.559,1.559,0,0,1,43.774,7a2.059,2.059,0,0,1,.881-.674,3.21,3.21,0,0,1,1.278-.244,2.536,2.536,0,0,1,1.705.54,1.888,1.888,0,0,1,.631,1.517v2.519a2.778,2.778,0,0,0,.231,1.251V12Zm-1.284-1.08a1.337,1.337,0,0,0,.634-.153,1,1,0,0,0,.43-.411v-1h-.58q-1.166,0-1.241.806l-.005.091a.621.621,0,0,0,.2.478A.793.793,0,0,0,45.648,10.92ZM49.22,9.051a3.5,3.5,0,0,1,.61-2.165A1.978,1.978,0,0,1,51.5,6.081a1.78,1.78,0,0,1,1.4.634V3.75h1.558V12h-1.4l-.075-.618a1.827,1.827,0,0,1-1.493.725A1.973,1.973,0,0,1,49.84,11.3,3.615,3.615,0,0,1,49.22,9.051Zm1.552.113a2.288,2.288,0,0,0,.285,1.251.928.928,0,0,0,.827.435,1.039,1.039,0,0,0,1.015-.607V7.95a1.024,1.024,0,0,0-1-.607Q50.772,7.343,50.772,9.164Z" transform="translate(-9443.156 -4017)" fill="#12263f"/>
    <path id="Trazado_628394" data-name="Trazado 628394" d="M26.656,10.061,28.428,4.18h1.794L27.5,12H25.818L23.106,4.18h1.789ZM33.977,12a1.724,1.724,0,0,1-.156-.521,1.878,1.878,0,0,1-1.466.628,2.063,2.063,0,0,1-1.415-.494,1.589,1.589,0,0,1-.561-1.246,1.642,1.642,0,0,1,.685-1.418,3.379,3.379,0,0,1,1.979-.5h.714V8.117a.958.958,0,0,0-.207-.645A.813.813,0,0,0,32.9,7.23a.925.925,0,0,0-.615.188.639.639,0,0,0-.223.516H30.507A1.559,1.559,0,0,1,30.819,7a2.059,2.059,0,0,1,.881-.674,3.21,3.21,0,0,1,1.278-.244,2.536,2.536,0,0,1,1.705.54,1.888,1.888,0,0,1,.631,1.517v2.519a2.778,2.778,0,0,0,.231,1.251V12Zm-1.284-1.08a1.337,1.337,0,0,0,.634-.153,1,1,0,0,0,.43-.411v-1h-.58q-1.166,0-1.241.806l-.005.091a.621.621,0,0,0,.2.478A.793.793,0,0,0,32.693,10.92ZM38.145,12H36.587V3.75h1.558Zm1.037-2.959A3.447,3.447,0,0,1,39.514,7.5a2.438,2.438,0,0,1,.959-1.047,2.8,2.8,0,0,1,1.453-.371,2.646,2.646,0,0,1,1.92.72,2.889,2.889,0,0,1,.83,1.955l.011.4A3.038,3.038,0,0,1,43.94,11.3a2.894,2.894,0,0,1-4.01,0,3.091,3.091,0,0,1-.749-2.191Zm1.552.113a2.166,2.166,0,0,0,.312,1.265,1.12,1.12,0,0,0,1.772.005,2.371,2.371,0,0,0,.317-1.383,2.145,2.145,0,0,0-.317-1.257,1.031,1.031,0,0,0-.892-.446,1.014,1.014,0,0,0-.881.443A2.41,2.41,0,0,0,40.734,9.153Zm8.175-1.509A4.217,4.217,0,0,0,48.35,7.6a1.137,1.137,0,0,0-1.155.6V12H45.643V6.188h1.466l.043.693a1.438,1.438,0,0,1,1.294-.8,1.626,1.626,0,0,1,.483.07Z" transform="translate(-9343.156 -4017)" fill="#12263f"/>
    <path id="Trazado_628395" data-name="Trazado 628395" d="M0,0H146V31H0Z" transform="translate(-9591 -4085)" fill="#f0bd51"/>
    <path id="Trazado_628396" data-name="Trazado 628396" d="M5.351,12H3.74V4.18H5.351ZM6.5,9.051a3.5,3.5,0,0,1,.61-2.165,1.978,1.978,0,0,1,1.668-.806,1.78,1.78,0,0,1,1.4.634V3.75h1.558V12h-1.4l-.075-.618a1.827,1.827,0,0,1-1.493.725A1.973,1.973,0,0,1,7.121,11.3,3.615,3.615,0,0,1,6.5,9.051Zm1.552.113a2.288,2.288,0,0,0,.285,1.251.928.928,0,0,0,.827.435,1.039,1.039,0,0,0,1.015-.607V7.95a1.024,1.024,0,0,0-1-.607Q8.053,7.343,8.053,9.164Zm7.563,2.943a2.853,2.853,0,0,1-2.081-.784,2.787,2.787,0,0,1-.8-2.089v-.15a3.511,3.511,0,0,1,.338-1.566,2.483,2.483,0,0,1,.959-1.063,2.691,2.691,0,0,1,1.415-.373,2.412,2.412,0,0,1,1.877.752,3.056,3.056,0,0,1,.685,2.132V9.6H14.3a1.442,1.442,0,0,0,.454.913,1.372,1.372,0,0,0,.959.344,1.675,1.675,0,0,0,1.4-.65l.763.854a2.33,2.33,0,0,1-.945.771A3.1,3.1,0,0,1,15.615,12.107Zm-.177-4.77a.972.972,0,0,0-.749.312,1.609,1.609,0,0,0-.368.892H16.48V8.417a1.147,1.147,0,0,0-.279-.8A1,1,0,0,0,15.438,7.338Zm4.877-1.149.048.671a2.029,2.029,0,0,1,1.67-.779,1.686,1.686,0,0,1,1.375.542,2.531,2.531,0,0,1,.462,1.622V12H22.319V8.283a1.007,1.007,0,0,0-.215-.717.962.962,0,0,0-.714-.223,1.068,1.068,0,0,0-.983.559V12H18.854V6.188Zm6.59-1.429V6.188H27.9V7.327h-.994v2.9a.693.693,0,0,0,.124.462.62.62,0,0,0,.473.14,2.475,2.475,0,0,0,.457-.038v1.176a3.2,3.2,0,0,1-.94.14,1.482,1.482,0,0,1-1.665-1.649V7.327H24.5V6.188h.849V4.76ZM30.4,12H28.844V6.188H30.4ZM28.753,4.685a.764.764,0,0,1,.234-.575,1.007,1.007,0,0,1,1.27,0,.76.76,0,0,1,.236.575.762.762,0,0,1-.239.58,1,1,0,0,1-1.262,0A.762.762,0,0,1,28.753,4.685ZM32.056,12V7.327h-.865V6.188h.865V5.92a2.179,2.179,0,0,1,.674-1.689A2.712,2.712,0,0,1,34.6,3.637a6.209,6.209,0,0,1,1.762.317l-.226,1.284a6.873,6.873,0,0,0-.816-.2,4.011,4.011,0,0,0-.623-.046q-1.085,0-1.085.961v.236h1.144V7.327H33.614V12Zm5.033,0H35.531V6.188h1.558Zm3.7-1.144a1.018,1.018,0,0,0,.7-.236.828.828,0,0,0,.279-.628h1.456a1.991,1.991,0,0,1-.322,1.082,2.126,2.126,0,0,1-.867.763,2.715,2.715,0,0,1-1.217.271,2.523,2.523,0,0,1-1.966-.792,3.135,3.135,0,0,1-.72-2.189v-.1a3.1,3.1,0,0,1,.714-2.143,2.494,2.494,0,0,1,1.96-.8,2.444,2.444,0,0,1,1.748.62,2.2,2.2,0,0,1,.669,1.652H41.767a1.058,1.058,0,0,0-.279-.733,1.04,1.04,0,0,0-1.528.113,2.285,2.285,0,0,0-.277,1.281v.161a2.314,2.314,0,0,0,.274,1.289A.947.947,0,0,0,40.79,10.856ZM47.477,12a1.724,1.724,0,0,1-.156-.521,1.878,1.878,0,0,1-1.466.628,2.063,2.063,0,0,1-1.415-.494,1.589,1.589,0,0,1-.561-1.246,1.642,1.642,0,0,1,.685-1.418,3.379,3.379,0,0,1,1.979-.5h.714V8.117a.958.958,0,0,0-.207-.645A.813.813,0,0,0,46.4,7.23a.925.925,0,0,0-.615.188.639.639,0,0,0-.223.516H44.007A1.559,1.559,0,0,1,44.319,7a2.059,2.059,0,0,1,.881-.674,3.21,3.21,0,0,1,1.278-.244,2.536,2.536,0,0,1,1.705.54,1.888,1.888,0,0,1,.631,1.517v2.519a2.778,2.778,0,0,0,.231,1.251V12Zm-1.284-1.08a1.337,1.337,0,0,0,.634-.153,1,1,0,0,0,.43-.411v-1h-.58q-1.166,0-1.241.806l-.005.091a.621.621,0,0,0,.2.478A.793.793,0,0,0,46.193,10.92Zm6.23-.064a1.018,1.018,0,0,0,.7-.236.828.828,0,0,0,.279-.628h1.456a1.991,1.991,0,0,1-.322,1.082,2.126,2.126,0,0,1-.867.763,2.715,2.715,0,0,1-1.217.271,2.523,2.523,0,0,1-1.966-.792,3.135,3.135,0,0,1-.72-2.189v-.1a3.1,3.1,0,0,1,.714-2.143,2.494,2.494,0,0,1,1.96-.8,2.444,2.444,0,0,1,1.748.62,2.2,2.2,0,0,1,.669,1.652H53.4a1.058,1.058,0,0,0-.279-.733,1.04,1.04,0,0,0-1.528.113,2.285,2.285,0,0,0-.277,1.281v.161a2.314,2.314,0,0,0,.274,1.289A.947.947,0,0,0,52.424,10.856ZM57.381,12H55.823V6.188h1.558ZM55.732,4.685a.764.764,0,0,1,.234-.575,1.007,1.007,0,0,1,1.27,0,.76.76,0,0,1,.236.575.762.762,0,0,1-.239.58,1,1,0,0,1-1.262,0A.762.762,0,0,1,55.732,4.685Zm2.686,4.356A3.447,3.447,0,0,1,58.751,7.5a2.438,2.438,0,0,1,.959-1.047,2.8,2.8,0,0,1,1.453-.371,2.646,2.646,0,0,1,1.92.72,2.889,2.889,0,0,1,.83,1.955l.011.4a3.038,3.038,0,0,1-.747,2.146,2.894,2.894,0,0,1-4.01,0,3.091,3.091,0,0,1-.749-2.191Zm1.552.113a2.166,2.166,0,0,0,.312,1.265,1.12,1.12,0,0,0,1.772.005,2.371,2.371,0,0,0,.317-1.383,2.145,2.145,0,0,0-.317-1.257,1.031,1.031,0,0,0-.892-.446,1.014,1.014,0,0,0-.881.443A2.41,2.41,0,0,0,59.97,9.153Zm1.5-5.4H63.16L61.673,5.415H60.41Zm4.839,2.438.048.671a2.029,2.029,0,0,1,1.67-.779,1.686,1.686,0,0,1,1.375.542,2.531,2.531,0,0,1,.462,1.622V12H68.311V8.283a1.007,1.007,0,0,0-.215-.717.962.962,0,0,0-.714-.223A1.068,1.068,0,0,0,66.4,7.9V12H64.847V6.188ZM75.949,9.8l1.074-3.615h1.665L76.352,12.9l-.129.306A1.771,1.771,0,0,1,74.5,14.347a2.442,2.442,0,0,1-.687-.1V13.069l.236.005a1.277,1.277,0,0,0,.658-.134.882.882,0,0,0,.341-.446l.183-.478L73.2,6.188h1.67ZM83.5,6.188l.048.65a2.042,2.042,0,0,1,1.67-.757,1.55,1.55,0,0,1,1.542.886A2,2,0,0,1,88.5,6.081a1.733,1.733,0,0,1,1.407.551,2.53,2.53,0,0,1,.462,1.657V12H88.813V8.294a1.107,1.107,0,0,0-.193-.722.857.857,0,0,0-.682-.228.969.969,0,0,0-.967.666L86.976,12H85.424V8.3a1.093,1.093,0,0,0-.2-.73.865.865,0,0,0-.677-.226,1.006,1.006,0,0,0-.956.548V12H82.04V6.188Zm10.742,5.919a2.853,2.853,0,0,1-2.081-.784,2.787,2.787,0,0,1-.8-2.089v-.15a3.511,3.511,0,0,1,.338-1.566,2.483,2.483,0,0,1,.959-1.063,2.691,2.691,0,0,1,1.415-.373,2.412,2.412,0,0,1,1.877.752,3.056,3.056,0,0,1,.685,2.132V9.6h-3.7a1.442,1.442,0,0,0,.454.913,1.372,1.372,0,0,0,.959.344,1.675,1.675,0,0,0,1.4-.65l.763.854a2.33,2.33,0,0,1-.945.771A3.1,3.1,0,0,1,94.238,12.107Zm-.177-4.77a.972.972,0,0,0-.749.312,1.609,1.609,0,0,0-.368.892H95.1V8.417a1.147,1.147,0,0,0-.279-.8A1,1,0,0,0,94.06,7.338Zm3.207,1.713a3.5,3.5,0,0,1,.61-2.165,1.978,1.978,0,0,1,1.668-.806,1.78,1.78,0,0,1,1.4.634V3.75H102.5V12h-1.4l-.075-.618a1.827,1.827,0,0,1-1.493.725,1.973,1.973,0,0,1-1.646-.808A3.615,3.615,0,0,1,97.267,9.051Zm1.552.113a2.288,2.288,0,0,0,.285,1.251.928.928,0,0,0,.827.435,1.039,1.039,0,0,0,1.015-.607V7.95a1.024,1.024,0,0,0-1-.607Q98.819,7.343,98.819,9.164ZM105.345,12h-1.558V6.188h1.558ZM103.7,4.685a.764.764,0,0,1,.234-.575,1.007,1.007,0,0,1,1.27,0,.76.76,0,0,1,.236.575.762.762,0,0,1-.239.58,1,1,0,0,1-1.262,0A.762.762,0,0,1,103.7,4.685Zm5.344,6.171a1.018,1.018,0,0,0,.7-.236.828.828,0,0,0,.279-.628h1.456a1.991,1.991,0,0,1-.322,1.082,2.126,2.126,0,0,1-.867.763,2.715,2.715,0,0,1-1.217.271,2.523,2.523,0,0,1-1.966-.792,3.135,3.135,0,0,1-.72-2.189v-.1a3.1,3.1,0,0,1,.714-2.143,2.494,2.494,0,0,1,1.96-.8,2.444,2.444,0,0,1,1.748.62,2.2,2.2,0,0,1,.669,1.652h-1.456a1.058,1.058,0,0,0-.279-.733,1.04,1.04,0,0,0-1.528.113,2.285,2.285,0,0,0-.277,1.281v.161a2.314,2.314,0,0,0,.274,1.289A.947.947,0,0,0,109.04,10.856ZM114,12H112.44V6.188H114Zm-1.649-7.315a.764.764,0,0,1,.234-.575,1.007,1.007,0,0,1,1.27,0,.76.76,0,0,1,.236.575.762.762,0,0,1-.239.58,1,1,0,0,1-1.262,0A.762.762,0,0,1,112.349,4.685Zm2.686,4.356a3.447,3.447,0,0,1,.333-1.542,2.438,2.438,0,0,1,.959-1.047,2.8,2.8,0,0,1,1.453-.371,2.646,2.646,0,0,1,1.92.72,2.889,2.889,0,0,1,.83,1.955l.011.4a3.038,3.038,0,0,1-.747,2.146,2.894,2.894,0,0,1-4.01,0,3.091,3.091,0,0,1-.749-2.191Zm1.552.113a2.166,2.166,0,0,0,.312,1.265,1.12,1.12,0,0,0,1.772.005,2.371,2.371,0,0,0,.317-1.383,2.145,2.145,0,0,0-.317-1.257,1.031,1.031,0,0,0-.892-.446,1.014,1.014,0,0,0-.881.443A2.41,2.41,0,0,0,116.587,9.153Zm1.5-5.4h1.692l-1.488,1.665h-1.262Zm4.839,2.438.048.671a2.029,2.029,0,0,1,1.67-.779,1.686,1.686,0,0,1,1.375.542,2.531,2.531,0,0,1,.462,1.622V12h-1.552V8.283a1.007,1.007,0,0,0-.215-.717A.962.962,0,0,0,124,7.343a1.068,1.068,0,0,0-.983.559V12h-1.552V6.188Z" transform="translate(-9583.035 -4077)" fill="#12263f"/>
    <g id="Trazado_628397" data-name="Trazado 628397" transform="translate(-9429 -4165)" fill="#86d3a2">
      <path d="M 139 53 L 7 53 C 3.691580057144165 53 1 50.30841827392578 1 47 L 1 7 C 1 3.691580057144165 3.691580057144165 1 7 1 L 139 1 C 142.3084259033203 1 145 3.691580057144165 145 7 L 145 47 C 145 50.30841827392578 142.3084259033203 53 139 53 Z" stroke="none"/>
      <path d="M 7 2 C 4.242996215820312 2 2 4.243000030517578 2 7 L 2 47 C 2 49.75699996948242 4.242996215820312 52 7 52 L 139 52 C 141.7570037841797 52 144 49.75699996948242 144 47 L 144 7 C 144 4.243000030517578 141.7570037841797 2 139 2 L 7 2 M 7 0 L 139 0 C 142.8659973144531 0 146 3.133998870849609 146 7 L 146 47 C 146 50.86600112915039 142.8659973144531 54 139 54 L 7 54 C 3.134002685546875 54 0 50.86600112915039 0 47 L 0 7 C 0 3.133998870849609 3.134002685546875 0 7 0 Z" stroke="none" fill="#5c9972"/>
    </g>
    <path id="Trazado_628398" data-name="Trazado 628398" d="M5.74,11.242H2.658L2.072,13H.2L3.379,4.469H5.008L8.2,13H6.332ZM3.133,9.818H5.266L4.193,6.625ZM10.164,6.66l.053.732a2.213,2.213,0,0,1,1.822-.85,1.84,1.84,0,0,1,1.5.592,2.761,2.761,0,0,1,.5,1.77V13H12.35V8.945a1.1,1.1,0,0,0-.234-.782,1.049,1.049,0,0,0-.779-.243,1.165,1.165,0,0,0-1.072.609V13H8.57V6.66ZM19,13a1.88,1.88,0,0,1-.17-.568,2.049,2.049,0,0,1-1.6.686,2.251,2.251,0,0,1-1.544-.539,1.734,1.734,0,0,1-.612-1.359,1.792,1.792,0,0,1,.747-1.547,3.686,3.686,0,0,1,2.159-.545h.779V8.764a1.045,1.045,0,0,0-.226-.7.887.887,0,0,0-.712-.264A1.009,1.009,0,0,0,17.151,8a.7.7,0,0,0-.243.563H15.215a1.7,1.7,0,0,1,.34-1.02,2.246,2.246,0,0,1,.961-.735,3.5,3.5,0,0,1,1.395-.267,2.767,2.767,0,0,1,1.86.589,2.06,2.06,0,0,1,.688,1.655v2.748a3.031,3.031,0,0,0,.252,1.365V13Zm-1.4-1.178a1.458,1.458,0,0,0,.691-.167,1.1,1.1,0,0,0,.469-.448v-1.09h-.633q-1.271,0-1.354.879l-.006.1a.678.678,0,0,0,.223.521A.865.865,0,0,0,17.6,11.822ZM18.244,4H20.09L18.467,5.816H17.09Zm5.3,9h-1.7V4h1.7Zm3.182,0h-1.7V6.66h1.7Zm-1.8-7.98a.834.834,0,0,1,.255-.627,1.1,1.1,0,0,1,1.386,0,.829.829,0,0,1,.258.627.831.831,0,0,1-.261.633,1.086,1.086,0,0,1-1.377,0A.831.831,0,0,1,24.93,5.02Zm6.627,6.229a.546.546,0,0,0-.308-.489,3.494,3.494,0,0,0-.987-.319Q28,9.965,28,8.518a1.742,1.742,0,0,1,.7-1.409,2.824,2.824,0,0,1,1.831-.565,3.04,3.04,0,0,1,1.931.568,1.791,1.791,0,0,1,.724,1.477H31.492a.819.819,0,0,0-.234-.6.992.992,0,0,0-.732-.237,1.013,1.013,0,0,0-.662.193.61.61,0,0,0-.234.492.522.522,0,0,0,.267.454,2.743,2.743,0,0,0,.9.3,7.346,7.346,0,0,1,1.066.284A1.752,1.752,0,0,1,33.2,11.178a1.654,1.654,0,0,1-.744,1.4,3.21,3.21,0,0,1-1.922.536,3.353,3.353,0,0,1-1.415-.284,2.374,2.374,0,0,1-.97-.779,1.811,1.811,0,0,1-.352-1.069h1.605a.884.884,0,0,0,.334.691,1.325,1.325,0,0,0,.832.24,1.226,1.226,0,0,0,.735-.185A.574.574,0,0,0,31.557,11.248ZM36.08,13h-1.7V6.66h1.7Zm-1.8-7.98a.834.834,0,0,1,.255-.627,1.1,1.1,0,0,1,1.386,0,.829.829,0,0,1,.258.627.831.831,0,0,1-.261.633,1.086,1.086,0,0,1-1.377,0A.831.831,0,0,1,34.281,5.02Zm6.627,6.229a.546.546,0,0,0-.308-.489,3.494,3.494,0,0,0-.987-.319q-2.262-.475-2.262-1.922a1.742,1.742,0,0,1,.7-1.409,2.824,2.824,0,0,1,1.831-.565,3.04,3.04,0,0,1,1.931.568,1.791,1.791,0,0,1,.724,1.477H40.844a.819.819,0,0,0-.234-.6.992.992,0,0,0-.732-.237,1.013,1.013,0,0,0-.662.193.61.61,0,0,0-.234.492.522.522,0,0,0,.267.454,2.743,2.743,0,0,0,.9.3,7.346,7.346,0,0,1,1.066.284,1.752,1.752,0,0,1,1.342,1.705,1.654,1.654,0,0,1-.744,1.4,3.21,3.21,0,0,1-1.922.536,3.353,3.353,0,0,1-1.415-.284,2.374,2.374,0,0,1-.97-.779,1.811,1.811,0,0,1-.352-1.069h1.605a.884.884,0,0,0,.334.691,1.325,1.325,0,0,0,.832.24,1.226,1.226,0,0,0,.735-.185A.574.574,0,0,0,40.908,11.248Zm5.461-1.465a3.821,3.821,0,0,1,.665-2.361,2.158,2.158,0,0,1,1.819-.879,1.942,1.942,0,0,1,1.529.691V4h1.7v9H50.553l-.082-.674a1.993,1.993,0,0,1-1.629.791,2.152,2.152,0,0,1-1.8-.882A3.944,3.944,0,0,1,46.369,9.783Zm1.693.123a2.5,2.5,0,0,0,.311,1.365,1.012,1.012,0,0,0,.9.475,1.133,1.133,0,0,0,1.107-.662v-2.5a1.117,1.117,0,0,0-1.1-.662Q48.063,7.92,48.063,9.906Zm8.25,3.211a3.112,3.112,0,0,1-2.271-.855,3.041,3.041,0,0,1-.876-2.279V9.818a3.83,3.83,0,0,1,.369-1.708,2.709,2.709,0,0,1,1.046-1.16,2.936,2.936,0,0,1,1.544-.407,2.631,2.631,0,0,1,2.048.82,3.333,3.333,0,0,1,.747,2.326v.691H54.883a1.573,1.573,0,0,0,.5,1,1.5,1.5,0,0,0,1.046.375,1.828,1.828,0,0,0,1.529-.709l.832.932a2.542,2.542,0,0,1-1.031.841A3.383,3.383,0,0,1,56.313,13.117Zm-.193-5.2a1.06,1.06,0,0,0-.817.34,1.756,1.756,0,0,0-.4.973h2.355V9.092a1.252,1.252,0,0,0-.3-.87A1.094,1.094,0,0,0,56.119,7.914Zm10.02,1.963h-1.4V13H62.98V4.469h3.17a3.583,3.583,0,0,1,2.332.674,2.326,2.326,0,0,1,.82,1.9A2.625,2.625,0,0,1,68.925,8.5a2.578,2.578,0,0,1-1.146.929l1.846,3.486V13H67.738Zm-1.4-1.424h1.418a1.452,1.452,0,0,0,1.025-.337,1.2,1.2,0,0,0,.363-.929,1.289,1.289,0,0,0-.343-.949,1.424,1.424,0,0,0-1.052-.346H64.738Zm8.707,4.664a3.112,3.112,0,0,1-2.271-.855A3.041,3.041,0,0,1,70.3,9.982V9.818a3.83,3.83,0,0,1,.369-1.708,2.709,2.709,0,0,1,1.046-1.16,2.936,2.936,0,0,1,1.544-.407,2.631,2.631,0,0,1,2.048.82,3.333,3.333,0,0,1,.747,2.326v.691H72.016a1.573,1.573,0,0,0,.5,1,1.5,1.5,0,0,0,1.046.375,1.828,1.828,0,0,0,1.529-.709l.832.932a2.542,2.542,0,0,1-1.031.841A3.383,3.383,0,0,1,73.445,13.117Zm-.193-5.2a1.06,1.06,0,0,0-.817.34,1.756,1.756,0,0,0-.4.973h2.355V9.092a1.252,1.252,0,0,0-.3-.87A1.094,1.094,0,0,0,73.252,7.914Zm6.4,3.838a1.111,1.111,0,0,0,.762-.258.9.9,0,0,0,.3-.686H82.3a2.172,2.172,0,0,1-.352,1.181,2.32,2.32,0,0,1-.946.832,2.962,2.962,0,0,1-1.327.3,2.752,2.752,0,0,1-2.145-.864,3.42,3.42,0,0,1-.785-2.388V9.754a3.381,3.381,0,0,1,.779-2.338,2.72,2.72,0,0,1,2.139-.873,2.667,2.667,0,0,1,1.907.677,2.4,2.4,0,0,1,.729,1.8H80.717a1.154,1.154,0,0,0-.3-.8,1.135,1.135,0,0,0-1.667.123,2.493,2.493,0,0,0-.3,1.4v.176a2.524,2.524,0,0,0,.3,1.406A1.033,1.033,0,0,0,79.65,11.752Zm7.418.6a2.124,2.124,0,0,1-1.734.762,2,2,0,0,1-1.556-.586,2.5,2.5,0,0,1-.548-1.717V6.66h1.693v4.1q0,.99.9.99a1.223,1.223,0,0,0,1.184-.6V6.66h1.7V13H87.115Zm6.48-4.107a4.6,4.6,0,0,0-.609-.047,1.24,1.24,0,0,0-1.26.65V13H89.986V6.66h1.6l.047.756a1.569,1.569,0,0,1,1.412-.873,1.774,1.774,0,0,1,.527.076Zm4.248,3a.546.546,0,0,0-.308-.489,3.494,3.494,0,0,0-.987-.319Q94.24,9.965,94.24,8.518a1.742,1.742,0,0,1,.7-1.409,2.824,2.824,0,0,1,1.831-.565,3.04,3.04,0,0,1,1.931.568,1.791,1.791,0,0,1,.724,1.477H97.732a.819.819,0,0,0-.234-.6.992.992,0,0,0-.732-.237,1.013,1.013,0,0,0-.662.193.61.61,0,0,0-.234.492.522.522,0,0,0,.267.454,2.743,2.743,0,0,0,.9.3,7.346,7.346,0,0,1,1.066.284,1.752,1.752,0,0,1,1.342,1.705,1.654,1.654,0,0,1-.744,1.4,3.21,3.21,0,0,1-1.922.536,3.353,3.353,0,0,1-1.415-.284,2.374,2.374,0,0,1-.97-.779,1.811,1.811,0,0,1-.352-1.069h1.605a.884.884,0,0,0,.334.691,1.325,1.325,0,0,0,.832.24,1.226,1.226,0,0,0,.735-.185A.574.574,0,0,0,97.8,11.248Zm2.473-1.477a3.76,3.76,0,0,1,.363-1.682,2.659,2.659,0,0,1,1.046-1.143,3.051,3.051,0,0,1,1.585-.4,2.887,2.887,0,0,1,2.095.785,3.151,3.151,0,0,1,.905,2.133l.012.434a3.314,3.314,0,0,1-.814,2.341,3.157,3.157,0,0,1-4.374,0,3.372,3.372,0,0,1-.817-2.391Zm1.693.123a2.363,2.363,0,0,0,.34,1.38,1.222,1.222,0,0,0,1.934.006,2.586,2.586,0,0,0,.346-1.509,2.34,2.34,0,0,0-.346-1.371,1.124,1.124,0,0,0-.973-.486,1.106,1.106,0,0,0-.961.483A2.63,2.63,0,0,0,101.963,9.895Zm8.789,1.354a.546.546,0,0,0-.308-.489,3.494,3.494,0,0,0-.987-.319Q107.2,9.965,107.2,8.518a1.742,1.742,0,0,1,.7-1.409,2.824,2.824,0,0,1,1.831-.565,3.04,3.04,0,0,1,1.931.568,1.791,1.791,0,0,1,.724,1.477h-1.693a.819.819,0,0,0-.234-.6.992.992,0,0,0-.732-.237,1.013,1.013,0,0,0-.662.193.61.61,0,0,0-.234.492.522.522,0,0,0,.267.454,2.743,2.743,0,0,0,.9.3,7.346,7.346,0,0,1,1.066.284,1.752,1.752,0,0,1,1.342,1.705,1.654,1.654,0,0,1-.744,1.4,3.21,3.21,0,0,1-1.922.536,3.353,3.353,0,0,1-1.415-.284,2.374,2.374,0,0,1-.97-.779A1.811,1.811,0,0,1,107,10.984H108.6a.884.884,0,0,0,.334.691,1.325,1.325,0,0,0,.832.24,1.226,1.226,0,0,0,.735-.185A.574.574,0,0,0,110.752,11.248ZM20.248,26.6,21.42,22.66h1.816l-2.549,7.324-.141.334a1.933,1.933,0,0,1-1.875,1.242,2.664,2.664,0,0,1-.75-.111V30.166l.258.006a1.393,1.393,0,0,0,.718-.146.962.962,0,0,0,.372-.486l.2-.521L17.248,22.66H19.07ZM33.7,26.158a3.019,3.019,0,0,1-1.017,2.168,3.57,3.57,0,0,1-2.417.791,3.21,3.21,0,0,1-2.581-1.1,4.529,4.529,0,0,1-.94-3.032v-.521a5.114,5.114,0,0,1,.434-2.168,3.249,3.249,0,0,1,1.239-1.438,3.873,3.873,0,0,1,4.251.29,3.244,3.244,0,0,1,1.043,2.221H31.955a1.782,1.782,0,0,0-.46-1.2,1.7,1.7,0,0,0-1.2-.372,1.494,1.494,0,0,0-1.315.63,3.53,3.53,0,0,0-.448,1.954v.645a3.778,3.778,0,0,0,.419,2.021,1.466,1.466,0,0,0,1.321.639,1.735,1.735,0,0,0,1.216-.372,1.681,1.681,0,0,0,.46-1.151ZM38.418,29a1.88,1.88,0,0,1-.17-.568,2.049,2.049,0,0,1-1.6.686,2.251,2.251,0,0,1-1.544-.539,1.734,1.734,0,0,1-.612-1.359,1.792,1.792,0,0,1,.747-1.547,3.686,3.686,0,0,1,2.159-.545h.779v-.363a1.045,1.045,0,0,0-.226-.7.887.887,0,0,0-.712-.264,1.009,1.009,0,0,0-.671.205.7.7,0,0,0-.243.563H34.633a1.7,1.7,0,0,1,.34-1.02,2.246,2.246,0,0,1,.961-.735,3.5,3.5,0,0,1,1.395-.267,2.767,2.767,0,0,1,1.86.589,2.06,2.06,0,0,1,.688,1.655v2.748a3.031,3.031,0,0,0,.252,1.365V29Zm-1.4-1.178a1.458,1.458,0,0,0,.691-.167,1.1,1.1,0,0,0,.469-.448v-1.09h-.633q-1.271,0-1.354.879l-.006.1a.678.678,0,0,0,.223.521A.865.865,0,0,0,37.018,27.822Zm9.867-1.934a3.8,3.8,0,0,1-.665,2.347,2.132,2.132,0,0,1-1.8.882,1.975,1.975,0,0,1-1.553-.668v2.988H41.178V22.66h1.57l.059.621a1.99,1.99,0,0,1,1.605-.738,2.147,2.147,0,0,1,1.822.867,3.905,3.905,0,0,1,.65,2.391Zm-1.693-.123a2.5,2.5,0,0,0-.313-1.365,1.021,1.021,0,0,0-.911-.48,1.109,1.109,0,0,0-1.1.609v2.6a1.128,1.128,0,0,0,1.107.627Q45.191,27.752,45.191,25.766ZM51.607,29a1.88,1.88,0,0,1-.17-.568,2.049,2.049,0,0,1-1.6.686,2.251,2.251,0,0,1-1.544-.539,1.734,1.734,0,0,1-.612-1.359,1.792,1.792,0,0,1,.747-1.547,3.686,3.686,0,0,1,2.159-.545h.779v-.363a1.045,1.045,0,0,0-.226-.7.887.887,0,0,0-.712-.264,1.009,1.009,0,0,0-.671.205.7.7,0,0,0-.243.563H47.822a1.7,1.7,0,0,1,.34-1.02,2.246,2.246,0,0,1,.961-.735,3.5,3.5,0,0,1,1.395-.267,2.767,2.767,0,0,1,1.86.589,2.06,2.06,0,0,1,.688,1.655v2.748a3.031,3.031,0,0,0,.252,1.365V29Zm-1.4-1.178a1.458,1.458,0,0,0,.691-.167,1.1,1.1,0,0,0,.469-.448v-1.09h-.633q-1.271,0-1.354.879l-.006.1a.678.678,0,0,0,.223.521A.865.865,0,0,0,50.207,27.822Zm6.8-.07a1.111,1.111,0,0,0,.762-.258.9.9,0,0,0,.3-.686h1.588a2.172,2.172,0,0,1-.352,1.181,2.32,2.32,0,0,1-.946.832,2.962,2.962,0,0,1-1.327.3,2.752,2.752,0,0,1-2.145-.864,3.42,3.42,0,0,1-.785-2.388v-.111a3.381,3.381,0,0,1,.779-2.338,2.72,2.72,0,0,1,2.139-.873,2.667,2.667,0,0,1,1.907.677,2.4,2.4,0,0,1,.729,1.8H58.07a1.154,1.154,0,0,0-.3-.8,1.135,1.135,0,0,0-1.667.123,2.493,2.493,0,0,0-.3,1.4v.176a2.524,2.524,0,0,0,.3,1.406A1.033,1.033,0,0,0,57,27.752ZM62.412,29h-1.7V22.66h1.7Zm-1.8-7.98a.834.834,0,0,1,.255-.627,1.1,1.1,0,0,1,1.386,0,.895.895,0,0,1,0,1.26,1.086,1.086,0,0,1-1.377,0A.831.831,0,0,1,60.613,21.02Zm2.93,4.764a3.821,3.821,0,0,1,.665-2.361,2.158,2.158,0,0,1,1.819-.879,1.942,1.942,0,0,1,1.529.691V20h1.7v9H67.727l-.082-.674a1.993,1.993,0,0,1-1.629.791,2.152,2.152,0,0,1-1.8-.882A3.944,3.944,0,0,1,63.543,25.783Zm1.693.123a2.5,2.5,0,0,0,.311,1.365,1.012,1.012,0,0,0,.9.475,1.133,1.133,0,0,0,1.107-.662v-2.5a1.117,1.117,0,0,0-1.1-.662Q65.236,23.92,65.236,25.906ZM74.242,29a1.88,1.88,0,0,1-.17-.568,2.049,2.049,0,0,1-1.6.686,2.251,2.251,0,0,1-1.544-.539,1.734,1.734,0,0,1-.612-1.359,1.792,1.792,0,0,1,.747-1.547,3.686,3.686,0,0,1,2.159-.545H74v-.363a1.045,1.045,0,0,0-.226-.7.887.887,0,0,0-.712-.264,1.009,1.009,0,0,0-.671.205.7.7,0,0,0-.243.563H70.457a1.7,1.7,0,0,1,.34-1.02,2.246,2.246,0,0,1,.961-.735,3.5,3.5,0,0,1,1.395-.267,2.767,2.767,0,0,1,1.86.589,2.06,2.06,0,0,1,.688,1.655v2.748a3.031,3.031,0,0,0,.252,1.365V29Zm-1.4-1.178a1.458,1.458,0,0,0,.691-.167A1.1,1.1,0,0,0,74,27.207v-1.09h-.633q-1.271,0-1.354.879l-.006.1a.678.678,0,0,0,.223.521A.865.865,0,0,0,72.842,27.822Zm3.9-2.039a3.821,3.821,0,0,1,.665-2.361,2.158,2.158,0,0,1,1.819-.879,1.942,1.942,0,0,1,1.529.691V20h1.7v9H80.922l-.082-.674a1.993,1.993,0,0,1-1.629.791,2.152,2.152,0,0,1-1.8-.882A3.944,3.944,0,0,1,76.738,25.783Zm1.693.123a2.5,2.5,0,0,0,.311,1.365,1.012,1.012,0,0,0,.9.475,1.133,1.133,0,0,0,1.107-.662v-2.5a1.117,1.117,0,0,0-1.1-.662Q78.432,23.92,78.432,25.906Zm8.25,3.211a3.112,3.112,0,0,1-2.271-.855,3.041,3.041,0,0,1-.876-2.279v-.164A3.83,3.83,0,0,1,83.9,24.11a2.709,2.709,0,0,1,1.046-1.16,2.936,2.936,0,0,1,1.544-.407,2.631,2.631,0,0,1,2.048.82,3.333,3.333,0,0,1,.747,2.326v.691H85.252a1.573,1.573,0,0,0,.5,1,1.5,1.5,0,0,0,1.046.375,1.828,1.828,0,0,0,1.529-.709l.832.932a2.542,2.542,0,0,1-1.031.841A3.383,3.383,0,0,1,86.682,29.117Zm-.193-5.2a1.06,1.06,0,0,0-.817.34,1.756,1.756,0,0,0-.4.973h2.355v-.135a1.252,1.252,0,0,0-.3-.87A1.094,1.094,0,0,0,86.488,23.914Zm7.2,3.334a.546.546,0,0,0-.308-.489,3.494,3.494,0,0,0-.987-.319q-2.262-.475-2.262-1.922a1.742,1.742,0,0,1,.7-1.409,2.824,2.824,0,0,1,1.831-.565,3.04,3.04,0,0,1,1.931.568,1.791,1.791,0,0,1,.724,1.477H93.619a.819.819,0,0,0-.234-.6.992.992,0,0,0-.732-.237,1.013,1.013,0,0,0-.662.193.61.61,0,0,0-.234.492.522.522,0,0,0,.267.454,2.743,2.743,0,0,0,.9.3,7.346,7.346,0,0,1,1.066.284,1.752,1.752,0,0,1,1.342,1.705,1.654,1.654,0,0,1-.744,1.4,3.21,3.21,0,0,1-1.922.536,3.353,3.353,0,0,1-1.415-.284,2.374,2.374,0,0,1-.97-.779,1.811,1.811,0,0,1-.352-1.069h1.605a.884.884,0,0,0,.334.691,1.325,1.325,0,0,0,.832.24,1.226,1.226,0,0,0,.735-.185A.574.574,0,0,0,93.684,27.248Z" transform="translate(-9412.5 -4154.975)" fill="#12263f"/>
    <path id="Trazado_628399" data-name="Trazado 628399" d="M0,0H146V31H0Z" transform="translate(-9267 -4085)" fill="#ef8b53"/>
    <path id="Trazado_628400" data-name="Trazado 628400" d="M22.488,11.012a2.8,2.8,0,0,1-1.23.808,5.151,5.151,0,0,1-1.762.287,3.49,3.49,0,0,1-1.781-.443,2.956,2.956,0,0,1-1.182-1.286A4.527,4.527,0,0,1,16.107,8.4V7.864A4.808,4.808,0,0,1,16.5,5.837,2.92,2.92,0,0,1,17.64,4.526a3.28,3.28,0,0,1,1.743-.454,3.266,3.266,0,0,1,2.175.663,2.835,2.835,0,0,1,.929,1.931H20.919a1.559,1.559,0,0,0-.475-.983,1.518,1.518,0,0,0-1.012-.312,1.429,1.429,0,0,0-1.251.618,3.248,3.248,0,0,0-.435,1.837v.5a3.092,3.092,0,0,0,.467,1.858,1.6,1.6,0,0,0,1.37.628,1.787,1.787,0,0,0,1.294-.387V9.078H19.41V7.891h3.078Zm3.878,1.1a2.853,2.853,0,0,1-2.081-.784,2.787,2.787,0,0,1-.8-2.089v-.15a3.511,3.511,0,0,1,.338-1.566,2.483,2.483,0,0,1,.959-1.063,2.691,2.691,0,0,1,1.415-.373,2.412,2.412,0,0,1,1.877.752,3.056,3.056,0,0,1,.685,2.132V9.6h-3.7a1.442,1.442,0,0,0,.454.913,1.372,1.372,0,0,0,.959.344,1.675,1.675,0,0,0,1.4-.65l.763.854a2.33,2.33,0,0,1-.945.771A3.1,3.1,0,0,1,26.366,12.107Zm-.177-4.77a.972.972,0,0,0-.749.312,1.609,1.609,0,0,0-.368.892H27.23V8.417a1.147,1.147,0,0,0-.279-.8A1,1,0,0,0,26.188,7.338Zm6.6,3.056a.5.5,0,0,0-.282-.448,3.2,3.2,0,0,0-.905-.293q-2.073-.435-2.073-1.762A1.6,1.6,0,0,1,30.166,6.6a2.589,2.589,0,0,1,1.678-.518,2.787,2.787,0,0,1,1.77.521,1.642,1.642,0,0,1,.663,1.354H32.725a.751.751,0,0,0-.215-.551.909.909,0,0,0-.671-.218.929.929,0,0,0-.607.177.56.56,0,0,0-.215.451.478.478,0,0,0,.244.416,2.514,2.514,0,0,0,.824.274,6.734,6.734,0,0,1,.978.26,1.606,1.606,0,0,1,1.23,1.563,1.516,1.516,0,0,1-.682,1.286,2.943,2.943,0,0,1-1.762.491,3.073,3.073,0,0,1-1.3-.26,2.176,2.176,0,0,1-.889-.714,1.66,1.66,0,0,1-.322-.98h1.472a.81.81,0,0,0,.306.634,1.214,1.214,0,0,0,.763.22,1.124,1.124,0,0,0,.674-.169A.526.526,0,0,0,32.784,10.394ZM37.151,4.76V6.188h.994V7.327h-.994v2.9a.693.693,0,0,0,.124.462.62.62,0,0,0,.473.14,2.475,2.475,0,0,0,.457-.038v1.176a3.2,3.2,0,0,1-.94.14A1.482,1.482,0,0,1,35.6,10.458V7.327H34.75V6.188H35.6V4.76Zm3.5,7.24H39.09V6.188h1.558ZM39,4.685a.764.764,0,0,1,.234-.575,1.007,1.007,0,0,1,1.27,0,.76.76,0,0,1,.236.575.762.762,0,0,1-.239.58,1,1,0,0,1-1.262,0A.762.762,0,0,1,39,4.685Zm2.686,4.356A3.447,3.447,0,0,1,42.017,7.5a2.438,2.438,0,0,1,.959-1.047,2.8,2.8,0,0,1,1.453-.371,2.646,2.646,0,0,1,1.92.72,2.889,2.889,0,0,1,.83,1.955l.011.4a3.038,3.038,0,0,1-.747,2.146,2.894,2.894,0,0,1-4.01,0,3.091,3.091,0,0,1-.749-2.191Zm1.552.113a2.166,2.166,0,0,0,.312,1.265,1.12,1.12,0,0,0,1.772.005,2.371,2.371,0,0,0,.317-1.383,2.145,2.145,0,0,0-.317-1.257,1.031,1.031,0,0,0-.892-.446,1.014,1.014,0,0,0-.881.443A2.41,2.41,0,0,0,43.236,9.153Zm1.5-5.4h1.692L44.939,5.415H43.677Zm4.839,2.438.048.671a2.029,2.029,0,0,1,1.67-.779,1.686,1.686,0,0,1,1.375.542,2.531,2.531,0,0,1,.462,1.622V12H51.578V8.283a1.007,1.007,0,0,0-.215-.717.962.962,0,0,0-.714-.223,1.068,1.068,0,0,0-.983.559V12H48.113V6.188ZM56.8,9.051a3.5,3.5,0,0,1,.61-2.165,1.978,1.978,0,0,1,1.668-.806,1.78,1.78,0,0,1,1.4.634V3.75h1.558V12h-1.4l-.075-.618a1.827,1.827,0,0,1-1.493.725,1.973,1.973,0,0,1-1.646-.808A3.615,3.615,0,0,1,56.8,9.051Zm1.552.113a2.288,2.288,0,0,0,.285,1.251.928.928,0,0,0,.827.435,1.039,1.039,0,0,0,1.015-.607V7.95a1.024,1.024,0,0,0-1-.607Q58.356,7.343,58.356,9.164Zm7.563,2.943a2.853,2.853,0,0,1-2.081-.784,2.787,2.787,0,0,1-.8-2.089v-.15a3.511,3.511,0,0,1,.338-1.566,2.483,2.483,0,0,1,.959-1.063,2.691,2.691,0,0,1,1.415-.373,2.412,2.412,0,0,1,1.877.752,3.056,3.056,0,0,1,.685,2.132V9.6h-3.7a1.442,1.442,0,0,0,.454.913,1.372,1.372,0,0,0,.959.344,1.675,1.675,0,0,0,1.4-.65l.763.854a2.33,2.33,0,0,1-.945.771A3.1,3.1,0,0,1,65.918,12.107Zm-.177-4.77a.972.972,0,0,0-.749.312,1.609,1.609,0,0,0-.368.892h2.159V8.417a1.147,1.147,0,0,0-.279-.8A1,1,0,0,0,65.741,7.338Zm5.946,1.713a3.5,3.5,0,0,1,.61-2.165,1.978,1.978,0,0,1,1.668-.806,1.78,1.78,0,0,1,1.4.634V3.75h1.558V12h-1.4l-.075-.618a1.827,1.827,0,0,1-1.493.725,1.973,1.973,0,0,1-1.646-.808A3.615,3.615,0,0,1,71.687,9.051Zm1.552.113a2.288,2.288,0,0,0,.285,1.251.928.928,0,0,0,.827.435,1.039,1.039,0,0,0,1.015-.607V7.95a1.024,1.024,0,0,0-1-.607Q73.239,7.343,73.239,9.164Zm4.646-.124A3.447,3.447,0,0,1,78.218,7.5a2.438,2.438,0,0,1,.959-1.047,2.8,2.8,0,0,1,1.453-.371,2.646,2.646,0,0,1,1.92.72,2.889,2.889,0,0,1,.83,1.955l.011.4a3.038,3.038,0,0,1-.747,2.146,2.894,2.894,0,0,1-4.01,0,3.091,3.091,0,0,1-.749-2.191Zm1.552.113a2.166,2.166,0,0,0,.312,1.265,1.12,1.12,0,0,0,1.772.005,2.371,2.371,0,0,0,.317-1.383,2.145,2.145,0,0,0-.317-1.257,1.031,1.031,0,0,0-.892-.446,1.014,1.014,0,0,0-.881.443A2.41,2.41,0,0,0,79.438,9.153ZM86.205,4.76V6.188H87.2V7.327h-.994v2.9a.693.693,0,0,0,.124.462.62.62,0,0,0,.473.14,2.475,2.475,0,0,0,.457-.038v1.176a3.2,3.2,0,0,1-.94.14,1.482,1.482,0,0,1-1.665-1.649V7.327H83.8V6.188h.849V4.76ZM91.431,12a1.724,1.724,0,0,1-.156-.521,1.878,1.878,0,0,1-1.466.628,2.063,2.063,0,0,1-1.415-.494,1.589,1.589,0,0,1-.561-1.246,1.642,1.642,0,0,1,.685-1.418,3.379,3.379,0,0,1,1.979-.5h.714V8.117A.958.958,0,0,0,91,7.472a.813.813,0,0,0-.653-.242.925.925,0,0,0-.615.188.639.639,0,0,0-.223.516H87.961A1.559,1.559,0,0,1,88.273,7a2.059,2.059,0,0,1,.881-.674,3.21,3.21,0,0,1,1.278-.244,2.536,2.536,0,0,1,1.705.54,1.888,1.888,0,0,1,.631,1.517v2.519A2.778,2.778,0,0,0,93,11.909V12Zm-1.284-1.08a1.337,1.337,0,0,0,.634-.153,1,1,0,0,0,.43-.411v-1h-.58q-1.166,0-1.241.806l-.005.091a.621.621,0,0,0,.2.478A.793.793,0,0,0,90.147,10.92Zm6.23-.064a1.018,1.018,0,0,0,.7-.236.828.828,0,0,0,.279-.628h1.456a1.991,1.991,0,0,1-.322,1.082,2.126,2.126,0,0,1-.867.763,2.715,2.715,0,0,1-1.217.271,2.523,2.523,0,0,1-1.966-.792,3.135,3.135,0,0,1-.72-2.189v-.1a3.1,3.1,0,0,1,.714-2.143,2.494,2.494,0,0,1,1.96-.8,2.444,2.444,0,0,1,1.748.62,2.2,2.2,0,0,1,.669,1.652H97.355a1.058,1.058,0,0,0-.279-.733,1.04,1.04,0,0,0-1.528.113,2.285,2.285,0,0,0-.277,1.281v.161a2.314,2.314,0,0,0,.274,1.289A.947.947,0,0,0,96.378,10.856ZM101.335,12H99.778V6.188h1.558ZM99.687,4.685a.764.764,0,0,1,.234-.575,1.007,1.007,0,0,1,1.27,0,.76.76,0,0,1,.236.575.762.762,0,0,1-.239.58,1,1,0,0,1-1.262,0A.762.762,0,0,1,99.687,4.685Zm2.686,4.356a3.447,3.447,0,0,1,.333-1.542,2.438,2.438,0,0,1,.959-1.047,2.8,2.8,0,0,1,1.453-.371,2.646,2.646,0,0,1,1.92.72,2.889,2.889,0,0,1,.83,1.955l.011.4a3.038,3.038,0,0,1-.747,2.146,2.894,2.894,0,0,1-4.01,0,3.091,3.091,0,0,1-.749-2.191Zm1.552.113a2.166,2.166,0,0,0,.312,1.265,1.12,1.12,0,0,0,1.772.005,2.371,2.371,0,0,0,.317-1.383,2.145,2.145,0,0,0-.317-1.257,1.031,1.031,0,0,0-.892-.446,1.014,1.014,0,0,0-.881.443A2.41,2.41,0,0,0,103.924,9.153Zm1.5-5.4h1.692l-1.488,1.665h-1.262Zm4.839,2.438.048.671a2.029,2.029,0,0,1,1.67-.779,1.686,1.686,0,0,1,1.375.542,2.531,2.531,0,0,1,.462,1.622V12h-1.552V8.283a1.007,1.007,0,0,0-.215-.717.962.962,0,0,0-.714-.223,1.068,1.068,0,0,0-.983.559V12H108.8V6.188Z" transform="translate(-9259.277 -4077.202)" fill="#fff"/>
  </g>
</svg>
