<svg xmlns="http://www.w3.org/2000/svg" width="505" height="312" viewBox="0 0 505 312">
  <g id="Grupo_951862" data-name="Grupo 951862" transform="translate(9609 2625)">
    <path id="Trazado_628463" data-name="Trazado 628463" d="M15,0H490a15,15,0,0,1,15,15V297a15,15,0,0,1-15,15H15A15,15,0,0,1,0,297V15A15,15,0,0,1,15,0Z" transform="translate(-9609 -2625)" fill="#fff"/>
    <path id="Trazado_115207" data-name="Trazado 115207" d="M114.954,434.014H25.089L46.5,406.9l-21.415-30.08h89.865l21.415,30.08Z" transform="translate(-9472.645 -2955.601)" fill="#f0bd51"/>
    <path id="Trazado_115208" data-name="Trazado 115208" d="M200.311,434.014H110.447l21.415-27.11-21.415-30.08h89.865l21.415,30.08Z" transform="translate(-9468.17 -2955.601)" fill="#faebcd"/>
    <path id="Trazado_628464" data-name="Trazado 628464" d="M10.34,11.977H5.566V17h-1.5V5.625h7.047V6.859H5.566V10.75H10.34ZM17.637,17a3.036,3.036,0,0,1-.2-.891,3.225,3.225,0,0,1-2.406,1.047,2.984,2.984,0,0,1-2.051-.707,2.287,2.287,0,0,1-.8-1.793,2.39,2.39,0,0,1,1-2.051A4.733,4.733,0,0,1,16,11.875H17.41v-.664A1.623,1.623,0,0,0,16.957,10a1.821,1.821,0,0,0-1.336-.449,2.107,2.107,0,0,0-1.3.391,1.151,1.151,0,0,0-.523.945H12.348A2,2,0,0,1,12.8,9.668a3.066,3.066,0,0,1,1.219-.934,4.1,4.1,0,0,1,1.691-.344A3.342,3.342,0,0,1,18,9.121a2.635,2.635,0,0,1,.859,2.012v3.891a4.757,4.757,0,0,0,.3,1.852V17Zm-2.4-1.1a2.54,2.54,0,0,0,1.289-.352,2.127,2.127,0,0,0,.883-.914V12.9H16.277q-2.656,0-2.656,1.555a1.316,1.316,0,0,0,.453,1.063A1.742,1.742,0,0,0,15.238,15.9Zm9.273.078a2.082,2.082,0,0,0,1.352-.469,1.649,1.649,0,0,0,.641-1.172h1.367a2.621,2.621,0,0,1-.5,1.383,3.293,3.293,0,0,1-1.23,1.047,3.55,3.55,0,0,1-1.629.391A3.482,3.482,0,0,1,21.766,16a4.59,4.59,0,0,1-1.02-3.152v-.242a5.089,5.089,0,0,1,.453-2.2,3.451,3.451,0,0,1,1.3-1.492,3.7,3.7,0,0,1,2-.531,3.39,3.39,0,0,1,2.363.852,3.043,3.043,0,0,1,1,2.211H26.5a1.992,1.992,0,0,0-.621-1.348A1.932,1.932,0,0,0,24.5,9.578a2.023,2.023,0,0,0-1.707.793,3.724,3.724,0,0,0-.605,2.293v.273a3.65,3.65,0,0,0,.6,2.25A2.033,2.033,0,0,0,24.512,15.977ZM31.457,6.5V8.547h1.578V9.664H31.457v5.242a1.171,1.171,0,0,0,.211.762.888.888,0,0,0,.719.254,3.5,3.5,0,0,0,.688-.094V17a4.19,4.19,0,0,1-1.109.156A1.8,1.8,0,0,1,30.5,16.57a2.517,2.517,0,0,1-.492-1.664V9.664H28.473V8.547h1.539V6.5Zm2.727,6.2a4.993,4.993,0,0,1,.488-2.234A3.643,3.643,0,0,1,36.031,8.93a3.7,3.7,0,0,1,1.988-.539,3.565,3.565,0,0,1,2.793,1.2,4.6,4.6,0,0,1,1.066,3.18v.1a5.036,5.036,0,0,1-.473,2.215,3.589,3.589,0,0,1-1.352,1.527,3.743,3.743,0,0,1-2.02.547,3.556,3.556,0,0,1-2.785-1.2A4.575,4.575,0,0,1,34.184,12.8Zm1.453.172a3.616,3.616,0,0,0,.652,2.258,2.211,2.211,0,0,0,3.5-.012,3.955,3.955,0,0,0,.648-2.418,3.61,3.61,0,0,0-.66-2.254,2.1,2.1,0,0,0-1.754-.863,2.075,2.075,0,0,0-1.727.852A3.925,3.925,0,0,0,35.637,12.867ZM47.777,9.844a4.331,4.331,0,0,0-.711-.055A1.9,1.9,0,0,0,45.137,11v6H43.691V8.547H45.1l.023.977a2.251,2.251,0,0,1,2.016-1.133,1.477,1.477,0,0,1,.641.109Zm4.836,7.313a3.693,3.693,0,0,1-2.8-1.129,4.19,4.19,0,0,1-1.078-3.02v-.266a5.073,5.073,0,0,1,.48-2.246,3.748,3.748,0,0,1,1.344-1.547,3.378,3.378,0,0,1,1.871-.559A3.166,3.166,0,0,1,55,9.477a4.7,4.7,0,0,1,.914,3.109v.6H50.184a3,3,0,0,0,.73,2.02,2.3,2.3,0,0,0,1.777.77,2.517,2.517,0,0,0,1.3-.312,3.259,3.259,0,0,0,.93-.828l.883.688A3.55,3.55,0,0,1,52.613,17.156Zm-.18-7.578a1.928,1.928,0,0,0-1.469.637A3.1,3.1,0,0,0,50.23,12h4.234v-.109a2.753,2.753,0,0,0-.594-1.707A1.815,1.815,0,0,0,52.434,9.578Zm10.07,5.18a1.064,1.064,0,0,0-.441-.91,4.249,4.249,0,0,0-1.539-.559,7.277,7.277,0,0,1-1.742-.562,2.479,2.479,0,0,1-.953-.781,1.869,1.869,0,0,1-.309-1.078A2.193,2.193,0,0,1,58.4,9.109a3.432,3.432,0,0,1,2.246-.719,3.532,3.532,0,0,1,2.332.742,2.357,2.357,0,0,1,.895,1.9H62.418a1.3,1.3,0,0,0-.5-1.023,1.888,1.888,0,0,0-1.27-.43,1.976,1.976,0,0,0-1.234.344,1.082,1.082,0,0,0-.445.9.877.877,0,0,0,.414.789,5.1,5.1,0,0,0,1.5.508,7.8,7.8,0,0,1,1.754.578,2.558,2.558,0,0,1,1,.809,1.988,1.988,0,0,1,.324,1.152,2.163,2.163,0,0,1-.906,1.816,3.8,3.8,0,0,1-2.352.684,4.257,4.257,0,0,1-1.8-.359,2.922,2.922,0,0,1-1.223-1A2.42,2.42,0,0,1,57.23,14.4h1.445a1.5,1.5,0,0,0,.582,1.152,2.258,2.258,0,0,0,1.434.426,2.331,2.331,0,0,0,1.316-.332A1.02,1.02,0,0,0,62.5,14.758Zm14.43-1.891a5.062,5.062,0,0,1-.883,3.109,2.829,2.829,0,0,1-2.391,1.18,3.1,3.1,0,0,1-2.422-.977v4.07H69.793V8.547h1.32l.07.938a2.977,2.977,0,0,1,2.453-1.094,2.882,2.882,0,0,1,2.41,1.148,5.117,5.117,0,0,1,.887,3.2ZM75.488,12.7a3.735,3.735,0,0,0-.609-2.258,1.963,1.963,0,0,0-1.672-.828,2.125,2.125,0,0,0-1.969,1.164V14.82a2.129,2.129,0,0,0,1.984,1.156,1.954,1.954,0,0,0,1.652-.824A4.077,4.077,0,0,0,75.488,12.7Zm2.9-.008a4.993,4.993,0,0,1,.488-2.234A3.643,3.643,0,0,1,80.234,8.93a3.7,3.7,0,0,1,1.988-.539,3.565,3.565,0,0,1,2.793,1.2,4.6,4.6,0,0,1,1.066,3.18v.1a5.036,5.036,0,0,1-.473,2.215,3.589,3.589,0,0,1-1.352,1.527,3.743,3.743,0,0,1-2.02.547,3.556,3.556,0,0,1-2.785-1.2A4.575,4.575,0,0,1,78.387,12.8Zm1.453.172a3.616,3.616,0,0,0,.652,2.258,2.211,2.211,0,0,0,3.5-.012,3.955,3.955,0,0,0,.648-2.418,3.61,3.61,0,0,0-.66-2.254,2.1,2.1,0,0,0-1.754-.863,2.075,2.075,0,0,0-1.727.852A3.925,3.925,0,0,0,79.84,12.867ZM91.98,9.844a4.331,4.331,0,0,0-.711-.055A1.9,1.9,0,0,0,89.34,11v6H87.895V8.547H89.3l.023.977A2.251,2.251,0,0,1,91.34,8.391a1.477,1.477,0,0,1,.641.109Zm8.68,6.133a2.082,2.082,0,0,0,1.352-.469,1.649,1.649,0,0,0,.641-1.172h1.367a2.621,2.621,0,0,1-.5,1.383,3.293,3.293,0,0,1-1.23,1.047,3.55,3.55,0,0,1-1.629.391A3.482,3.482,0,0,1,97.914,16a4.59,4.59,0,0,1-1.02-3.152v-.242a5.089,5.089,0,0,1,.453-2.2,3.451,3.451,0,0,1,1.3-1.492,3.7,3.7,0,0,1,2-.531,3.39,3.39,0,0,1,2.363.852,3.043,3.043,0,0,1,1,2.211h-1.367a1.992,1.992,0,0,0-.621-1.348,1.932,1.932,0,0,0-1.379-.527,2.023,2.023,0,0,0-1.707.793,3.724,3.724,0,0,0-.605,2.293v.273a3.65,3.65,0,0,0,.6,2.25A2.033,2.033,0,0,0,100.66,15.977ZM110.863,17a3.036,3.036,0,0,1-.2-.891,3.225,3.225,0,0,1-2.406,1.047,2.984,2.984,0,0,1-2.051-.707,2.288,2.288,0,0,1-.8-1.793,2.39,2.39,0,0,1,1-2.051,4.733,4.733,0,0,1,2.824-.73h1.406v-.664A1.623,1.623,0,0,0,110.184,10a1.821,1.821,0,0,0-1.336-.449,2.108,2.108,0,0,0-1.3.391,1.151,1.151,0,0,0-.523.945h-1.453a2,2,0,0,1,.449-1.223,3.066,3.066,0,0,1,1.219-.934,4.1,4.1,0,0,1,1.691-.344,3.342,3.342,0,0,1,2.289.73,2.635,2.635,0,0,1,.859,2.012v3.891a4.757,4.757,0,0,0,.3,1.852V17Zm-2.4-1.1a2.54,2.54,0,0,0,1.289-.352,2.127,2.127,0,0,0,.883-.914V12.9H109.5q-2.656,0-2.656,1.555a1.316,1.316,0,0,0,.453,1.063A1.742,1.742,0,0,0,108.465,15.9Zm7.242-7.352.039.938a3.122,3.122,0,0,1,2.508-1.094,2.417,2.417,0,0,1,2.414,1.359,3.2,3.2,0,0,1,1.1-.984,3.242,3.242,0,0,1,1.6-.375q2.781,0,2.828,2.945V17h-1.445V11.422a1.941,1.941,0,0,0-.414-1.355,1.823,1.823,0,0,0-1.391-.449,1.916,1.916,0,0,0-1.336.48,1.949,1.949,0,0,0-.617,1.293V17h-1.453V11.461a1.613,1.613,0,0,0-1.8-1.844,1.934,1.934,0,0,0-1.945,1.211V17H114.34V8.547Zm19.82,4.32a5.026,5.026,0,0,1-.891,3.113,2.846,2.846,0,0,1-2.391,1.176,2.947,2.947,0,0,1-2.477-1.133L129.7,17h-1.328V5h1.445V9.477a2.93,2.93,0,0,1,2.414-1.086,2.863,2.863,0,0,1,2.418,1.164,5.177,5.177,0,0,1,.879,3.188Zm-1.445-.164a3.906,3.906,0,0,0-.57-2.281,1.888,1.888,0,0,0-1.641-.8,2.122,2.122,0,0,0-2.055,1.328V14.6a2.181,2.181,0,0,0,2.07,1.328,1.878,1.878,0,0,0,1.617-.8A4.153,4.153,0,0,0,134.082,12.7Zm4.836,4.3h-1.445V8.547h1.445ZM137.355,6.3a.863.863,0,0,1,.215-.594.807.807,0,0,1,.637-.242.819.819,0,0,1,.641.242.854.854,0,0,1,.219.594.826.826,0,0,1-.219.586.834.834,0,0,1-.641.234.821.821,0,0,1-.637-.234A.834.834,0,0,1,137.355,6.3ZM146.449,17a3.036,3.036,0,0,1-.2-.891,3.225,3.225,0,0,1-2.406,1.047,2.984,2.984,0,0,1-2.051-.707,2.287,2.287,0,0,1-.8-1.793,2.39,2.39,0,0,1,1-2.051,4.733,4.733,0,0,1,2.824-.73h1.406v-.664A1.623,1.623,0,0,0,145.77,10a1.821,1.821,0,0,0-1.336-.449,2.107,2.107,0,0,0-1.3.391,1.151,1.151,0,0,0-.523.945H141.16a2,2,0,0,1,.449-1.223,3.066,3.066,0,0,1,1.219-.934,4.1,4.1,0,0,1,1.691-.344,3.342,3.342,0,0,1,2.289.73,2.635,2.635,0,0,1,.859,2.012v3.891a4.757,4.757,0,0,0,.3,1.852V17Zm-2.4-1.1a2.54,2.54,0,0,0,1.289-.352,2.127,2.127,0,0,0,.883-.914V12.9H145.09q-2.656,0-2.656,1.555a1.316,1.316,0,0,0,.453,1.063A1.742,1.742,0,0,0,144.051,15.9Zm9.969-6.055a4.331,4.331,0,0,0-.711-.055A1.9,1.9,0,0,0,151.379,11v6h-1.445V8.547h1.406l.023.977a2.251,2.251,0,0,1,2.016-1.133,1.477,1.477,0,0,1,.641.109Z" transform="translate(-9418 -2560.682)" fill="#12263f"/>
    <path id="Trazado_628465" data-name="Trazado 628465" d="M13.02,11.742H8.09v4.031h5.727V17H6.59V5.625h7.148V6.859H8.09v3.656h4.93Zm7.359,3.016a1.064,1.064,0,0,0-.441-.91,4.249,4.249,0,0,0-1.539-.559,7.277,7.277,0,0,1-1.742-.562,2.479,2.479,0,0,1-.953-.781,1.869,1.869,0,0,1-.309-1.078,2.193,2.193,0,0,1,.879-1.758,3.432,3.432,0,0,1,2.246-.719,3.532,3.532,0,0,1,2.332.742,2.357,2.357,0,0,1,.895,1.9H20.293a1.3,1.3,0,0,0-.5-1.023,1.888,1.888,0,0,0-1.27-.43,1.976,1.976,0,0,0-1.234.344,1.082,1.082,0,0,0-.445.9.877.877,0,0,0,.414.789,5.1,5.1,0,0,0,1.5.508A7.8,7.8,0,0,1,20.5,12.7a2.558,2.558,0,0,1,1,.809,1.988,1.988,0,0,1,.324,1.152,2.163,2.163,0,0,1-.906,1.816,3.8,3.8,0,0,1-2.352.684,4.257,4.257,0,0,1-1.8-.359,2.922,2.922,0,0,1-1.223-1,2.42,2.42,0,0,1-.441-1.395h1.445a1.5,1.5,0,0,0,.582,1.152,2.258,2.258,0,0,0,1.434.426,2.331,2.331,0,0,0,1.316-.332A1.02,1.02,0,0,0,20.379,14.758ZM25.668,6.5V8.547h1.578V9.664H25.668v5.242a1.171,1.171,0,0,0,.211.762.888.888,0,0,0,.719.254,3.5,3.5,0,0,0,.688-.094V17a4.19,4.19,0,0,1-1.109.156,1.8,1.8,0,0,1-1.461-.586,2.517,2.517,0,0,1-.492-1.664V9.664H22.684V8.547h1.539V6.5ZM34.152,17a3.036,3.036,0,0,1-.2-.891,3.225,3.225,0,0,1-2.406,1.047,2.984,2.984,0,0,1-2.051-.707,2.287,2.287,0,0,1-.8-1.793,2.39,2.39,0,0,1,1-2.051,4.733,4.733,0,0,1,2.824-.73h1.406v-.664A1.623,1.623,0,0,0,33.473,10a1.821,1.821,0,0,0-1.336-.449,2.107,2.107,0,0,0-1.3.391,1.151,1.151,0,0,0-.523.945H28.863a2,2,0,0,1,.449-1.223,3.066,3.066,0,0,1,1.219-.934,4.1,4.1,0,0,1,1.691-.344,3.342,3.342,0,0,1,2.289.73,2.635,2.635,0,0,1,.859,2.012v3.891a4.757,4.757,0,0,0,.3,1.852V17Zm-2.4-1.1a2.54,2.54,0,0,0,1.289-.352,2.127,2.127,0,0,0,.883-.914V12.9H32.793q-2.656,0-2.656,1.555a1.316,1.316,0,0,0,.453,1.063A1.742,1.742,0,0,0,31.754,15.9Zm5.531-3.2a4.952,4.952,0,0,1,.922-3.129,3.137,3.137,0,0,1,4.766-.168V5h1.445V17H43.09l-.07-.906a2.943,2.943,0,0,1-2.414,1.063,2.887,2.887,0,0,1-2.395-1.2,5.008,5.008,0,0,1-.926-3.141Zm1.445.164a3.749,3.749,0,0,0,.594,2.25,1.92,1.92,0,0,0,1.641.813A2.108,2.108,0,0,0,42.973,14.7V10.813a2.125,2.125,0,0,0-1.992-1.2,1.929,1.929,0,0,0-1.656.82A4.128,4.128,0,0,0,38.73,12.867Zm7.547-.172a4.993,4.993,0,0,1,.488-2.234A3.643,3.643,0,0,1,48.125,8.93a3.7,3.7,0,0,1,1.988-.539,3.565,3.565,0,0,1,2.793,1.2,4.6,4.6,0,0,1,1.066,3.18v.1a5.036,5.036,0,0,1-.473,2.215,3.589,3.589,0,0,1-1.352,1.527,3.743,3.743,0,0,1-2.02.547,3.556,3.556,0,0,1-2.785-1.2A4.575,4.575,0,0,1,46.277,12.8Zm1.453.172a3.616,3.616,0,0,0,.652,2.258,2.211,2.211,0,0,0,3.5-.012,3.955,3.955,0,0,0,.648-2.418,3.61,3.61,0,0,0-.66-2.254,2.1,2.1,0,0,0-1.754-.863,2.075,2.075,0,0,0-1.727.852A3.925,3.925,0,0,0,47.73,12.867ZM59.395,12.7a4.952,4.952,0,0,1,.922-3.129,3.137,3.137,0,0,1,4.766-.168V5h1.445V17H65.2l-.07-.906a2.943,2.943,0,0,1-2.414,1.063,2.887,2.887,0,0,1-2.395-1.2,5.008,5.008,0,0,1-.926-3.141Zm1.445.164a3.749,3.749,0,0,0,.594,2.25,1.92,1.92,0,0,0,1.641.813A2.108,2.108,0,0,0,65.082,14.7V10.813a2.125,2.125,0,0,0-1.992-1.2,1.929,1.929,0,0,0-1.656.82A4.128,4.128,0,0,0,60.84,12.867Zm11.438,4.289a3.693,3.693,0,0,1-2.8-1.129,4.19,4.19,0,0,1-1.078-3.02v-.266a5.073,5.073,0,0,1,.48-2.246,3.748,3.748,0,0,1,1.344-1.547A3.378,3.378,0,0,1,72.1,8.391,3.166,3.166,0,0,1,74.66,9.477a4.7,4.7,0,0,1,.914,3.109v.6H69.848a3,3,0,0,0,.73,2.02,2.3,2.3,0,0,0,1.777.77,2.517,2.517,0,0,0,1.3-.312,3.259,3.259,0,0,0,.93-.828l.883.688A3.55,3.55,0,0,1,72.277,17.156ZM72.1,9.578a1.928,1.928,0,0,0-1.469.637A3.1,3.1,0,0,0,69.895,12h4.234v-.109a2.753,2.753,0,0,0-.594-1.707A1.815,1.815,0,0,0,72.1,9.578Zm10.07,5.18a1.064,1.064,0,0,0-.441-.91,4.249,4.249,0,0,0-1.539-.559,7.277,7.277,0,0,1-1.742-.562,2.479,2.479,0,0,1-.953-.781,1.869,1.869,0,0,1-.309-1.078,2.193,2.193,0,0,1,.879-1.758,3.432,3.432,0,0,1,2.246-.719,3.532,3.532,0,0,1,2.332.742,2.357,2.357,0,0,1,.895,1.9H82.082a1.3,1.3,0,0,0-.5-1.023,1.888,1.888,0,0,0-1.27-.43,1.976,1.976,0,0,0-1.234.344,1.082,1.082,0,0,0-.445.9.877.877,0,0,0,.414.789,5.1,5.1,0,0,0,1.5.508,7.8,7.8,0,0,1,1.754.578,2.558,2.558,0,0,1,1,.809,1.988,1.988,0,0,1,.324,1.152,2.163,2.163,0,0,1-.906,1.816,3.8,3.8,0,0,1-2.352.684,4.257,4.257,0,0,1-1.8-.359,2.922,2.922,0,0,1-1.223-1,2.42,2.42,0,0,1-.441-1.395H78.34a1.5,1.5,0,0,0,.582,1.152,2.258,2.258,0,0,0,1.434.426,2.331,2.331,0,0,0,1.316-.332A1.02,1.02,0,0,0,82.168,14.758ZM89,17.156a3.693,3.693,0,0,1-2.8-1.129,4.19,4.19,0,0,1-1.078-3.02v-.266a5.073,5.073,0,0,1,.48-2.246,3.748,3.748,0,0,1,1.344-1.547,3.378,3.378,0,0,1,1.871-.559,3.166,3.166,0,0,1,2.563,1.086,4.7,4.7,0,0,1,.914,3.109v.6H86.574a3,3,0,0,0,.73,2.02,2.3,2.3,0,0,0,1.777.77,2.517,2.517,0,0,0,1.3-.312,3.259,3.259,0,0,0,.93-.828l.883.688A3.55,3.55,0,0,1,89,17.156Zm-.18-7.578a1.928,1.928,0,0,0-1.469.637A3.1,3.1,0,0,0,86.621,12h4.234v-.109a2.753,2.753,0,0,0-.594-1.707A1.815,1.815,0,0,0,88.824,9.578ZM99.191,17a3.036,3.036,0,0,1-.2-.891,3.225,3.225,0,0,1-2.406,1.047,2.984,2.984,0,0,1-2.051-.707,2.288,2.288,0,0,1-.8-1.793,2.39,2.39,0,0,1,1-2.051,4.733,4.733,0,0,1,2.824-.73h1.406v-.664A1.623,1.623,0,0,0,98.512,10a1.821,1.821,0,0,0-1.336-.449,2.108,2.108,0,0,0-1.3.391,1.151,1.151,0,0,0-.523.945H93.9a2,2,0,0,1,.449-1.223,3.066,3.066,0,0,1,1.219-.934,4.1,4.1,0,0,1,1.691-.344,3.342,3.342,0,0,1,2.289.73,2.635,2.635,0,0,1,.859,2.012v3.891a4.757,4.757,0,0,0,.3,1.852V17Zm-2.4-1.1a2.54,2.54,0,0,0,1.289-.352,2.127,2.127,0,0,0,.883-.914V12.9H97.832q-2.656,0-2.656,1.555a1.316,1.316,0,0,0,.453,1.063A1.742,1.742,0,0,0,96.793,15.9Zm5.531-3.2a4.952,4.952,0,0,1,.922-3.129,3.137,3.137,0,0,1,4.766-.168V5h1.445V17h-1.328l-.07-.906a2.943,2.943,0,0,1-2.414,1.063,2.887,2.887,0,0,1-2.395-1.2,5.008,5.008,0,0,1-.926-3.141Zm1.445.164a3.749,3.749,0,0,0,.594,2.25A1.92,1.92,0,0,0,106,15.93a2.108,2.108,0,0,0,2.008-1.234V10.813a2.125,2.125,0,0,0-1.992-1.2,1.929,1.929,0,0,0-1.656.82A4.128,4.128,0,0,0,103.77,12.867Zm7.547-.172a4.993,4.993,0,0,1,.488-2.234,3.643,3.643,0,0,1,1.359-1.531,3.7,3.7,0,0,1,1.988-.539,3.565,3.565,0,0,1,2.793,1.2,4.6,4.6,0,0,1,1.066,3.18v.1a5.036,5.036,0,0,1-.473,2.215,3.589,3.589,0,0,1-1.352,1.527,3.743,3.743,0,0,1-2.02.547,3.556,3.556,0,0,1-2.785-1.2,4.575,4.575,0,0,1-1.066-3.164Zm1.453.172a3.616,3.616,0,0,0,.652,2.258,2.211,2.211,0,0,0,3.5-.012,3.955,3.955,0,0,0,.648-2.418,3.61,3.61,0,0,0-.66-2.254,2.1,2.1,0,0,0-1.754-.863,2.075,2.075,0,0,0-1.727.852A3.925,3.925,0,0,0,112.77,12.867Z" transform="translate(-9252.5 -2500.587)" fill="#12263f"/>
    <g id="Trazado_628466" data-name="Trazado 628466" transform="translate(-9229.5 -2589.682)" fill="#ffb68d">
      <path d="M 39.5 78 C 34.30208969116211 78 29.26020050048828 76.98220825195312 24.51436614990234 74.97489166259766 C 19.92993354797363 73.03583526611328 15.8124885559082 70.25971221923828 12.27638912200928 66.72360992431641 C 8.740288734436035 63.1875114440918 5.964166641235352 59.070068359375 4.025111198425293 54.48563385009766 C 2.017788887023926 49.73979949951172 1 44.69791030883789 1 39.5 C 1 34.30208969116211 2.017788887023926 29.26020050048828 4.025111198425293 24.51436614990234 C 5.964166641235352 19.92993354797363 8.740288734436035 15.8124885559082 12.27638912200928 12.27638912200928 C 15.8124885559082 8.740288734436035 19.92993354797363 5.964166641235352 24.51436614990234 4.025111198425293 C 29.26020050048828 2.017788887023926 34.30208969116211 1 39.5 1 C 44.69791030883789 1 49.73979949951172 2.017788887023926 54.48563385009766 4.025111198425293 C 59.070068359375 5.964166641235352 63.1875114440918 8.740288734436035 66.72360992431641 12.27638912200928 C 70.25971221923828 15.8124885559082 73.03583526611328 19.92993354797363 74.97489166259766 24.51436614990234 C 76.98220825195312 29.26020050048828 78 34.30208969116211 78 39.5 C 78 44.69791030883789 76.98220825195312 49.73979949951172 74.97489166259766 54.48563385009766 C 73.03583526611328 59.070068359375 70.25971221923828 63.1875114440918 66.72360992431641 66.72360992431641 C 63.1875114440918 70.25971221923828 59.070068359375 73.03583526611328 54.48563385009766 74.97489166259766 C 49.73979949951172 76.98220825195312 44.69791030883789 78 39.5 78 Z" stroke="none"/>
      <path d="M 39.5 2 C 34.4366455078125 2 29.52582168579102 2.9912109375 24.9039192199707 4.946121215820312 C 20.43868255615234 6.834754943847656 16.42807006835938 9.538917541503906 12.98349761962891 12.98349761962891 C 9.538917541503906 16.42807006835938 6.834754943847656 20.43868255615234 4.946121215820312 24.9039192199707 C 2.9912109375 29.52582168579102 2 34.4366455078125 2 39.5 C 2 44.5633544921875 2.9912109375 49.47417449951172 4.946121215820312 54.09608459472656 C 6.834754943847656 58.56131744384766 9.538917541503906 62.57192993164062 12.98349761962891 66.01651000976562 C 16.42807006835938 69.46108245849609 20.43868255615234 72.16524505615234 24.9039192199707 74.05387878417969 C 29.52582168579102 76.0087890625 34.4366455078125 77 39.5 77 C 44.5633544921875 77 49.47417449951172 76.0087890625 54.09608459472656 74.05387878417969 C 58.56131744384766 72.16524505615234 62.57192993164062 69.46108245849609 66.01651000976562 66.01651000976562 C 69.46108245849609 62.57192993164062 72.16524505615234 58.56131744384766 74.05387878417969 54.09608459472656 C 76.0087890625 49.47417449951172 77 44.5633544921875 77 39.5 C 77 34.4366455078125 76.0087890625 29.52582168579102 74.05387878417969 24.9039192199707 C 72.16524505615234 20.43868255615234 69.46108245849609 16.42807006835938 66.01651000976562 12.98349761962891 C 62.57192993164062 9.538917541503906 58.56131744384766 6.834754943847656 54.09608459472656 4.946121215820312 C 49.47417449951172 2.9912109375 44.5633544921875 2 39.5 2 M 39.5 0 C 61.31524658203125 0 79 17.68475341796875 79 39.5 C 79 61.31524658203125 61.31524658203125 79 39.5 79 C 17.68475341796875 79 0 61.31524658203125 0 39.5 C 0 17.68475341796875 17.68475341796875 0 39.5 0 Z" stroke="none" fill="#ef8b53"/>
    </g>
    <path id="Trazado_628467" data-name="Trazado 628467" d="M21.7,11.742h-4.93v4.031H22.5V17H15.273V5.625h7.148V6.859H16.773v3.656H21.7Zm7.359,3.016a1.064,1.064,0,0,0-.441-.91,4.249,4.249,0,0,0-1.539-.559,7.277,7.277,0,0,1-1.742-.562,2.479,2.479,0,0,1-.953-.781,1.869,1.869,0,0,1-.309-1.078,2.193,2.193,0,0,1,.879-1.758A3.432,3.432,0,0,1,27.2,8.391a3.532,3.532,0,0,1,2.332.742,2.357,2.357,0,0,1,.895,1.9H28.977a1.3,1.3,0,0,0-.5-1.023,1.888,1.888,0,0,0-1.27-.43,1.976,1.976,0,0,0-1.234.344,1.082,1.082,0,0,0-.445.9.877.877,0,0,0,.414.789,5.1,5.1,0,0,0,1.5.508,7.8,7.8,0,0,1,1.754.578,2.558,2.558,0,0,1,1,.809,1.988,1.988,0,0,1,.324,1.152,2.163,2.163,0,0,1-.906,1.816,3.8,3.8,0,0,1-2.352.684,4.257,4.257,0,0,1-1.8-.359,2.922,2.922,0,0,1-1.223-1,2.42,2.42,0,0,1-.441-1.395h1.445a1.5,1.5,0,0,0,.582,1.152,2.258,2.258,0,0,0,1.434.426,2.331,2.331,0,0,0,1.316-.332A1.02,1.02,0,0,0,29.063,14.758ZM34.352,6.5V8.547H35.93V9.664H34.352v5.242a1.171,1.171,0,0,0,.211.762.888.888,0,0,0,.719.254,3.5,3.5,0,0,0,.688-.094V17a4.19,4.19,0,0,1-1.109.156A1.8,1.8,0,0,1,33.4,16.57a2.517,2.517,0,0,1-.492-1.664V9.664H31.367V8.547h1.539V6.5ZM42.836,17a3.036,3.036,0,0,1-.2-.891,3.225,3.225,0,0,1-2.406,1.047,2.984,2.984,0,0,1-2.051-.707,2.287,2.287,0,0,1-.8-1.793,2.39,2.39,0,0,1,1-2.051,4.733,4.733,0,0,1,2.824-.73h1.406v-.664A1.623,1.623,0,0,0,42.156,10a1.821,1.821,0,0,0-1.336-.449,2.107,2.107,0,0,0-1.3.391,1.151,1.151,0,0,0-.523.945H37.547A2,2,0,0,1,38,9.668a3.066,3.066,0,0,1,1.219-.934,4.1,4.1,0,0,1,1.691-.344,3.342,3.342,0,0,1,2.289.73,2.635,2.635,0,0,1,.859,2.012v3.891a4.757,4.757,0,0,0,.3,1.852V17Zm-2.4-1.1a2.54,2.54,0,0,0,1.289-.352,2.127,2.127,0,0,0,.883-.914V12.9H41.477q-2.656,0-2.656,1.555a1.316,1.316,0,0,0,.453,1.063A1.742,1.742,0,0,0,40.438,15.9Zm5.531-3.2a4.952,4.952,0,0,1,.922-3.129,3.137,3.137,0,0,1,4.766-.168V5H53.1V17H51.773l-.07-.906a2.943,2.943,0,0,1-2.414,1.063,2.887,2.887,0,0,1-2.395-1.2,5.008,5.008,0,0,1-.926-3.141Zm1.445.164a3.749,3.749,0,0,0,.594,2.25,1.92,1.92,0,0,0,1.641.813A2.108,2.108,0,0,0,51.656,14.7V10.813a2.125,2.125,0,0,0-1.992-1.2,1.929,1.929,0,0,0-1.656.82A4.128,4.128,0,0,0,47.414,12.867Zm7.547-.172a4.993,4.993,0,0,1,.488-2.234A3.643,3.643,0,0,1,56.809,8.93,3.7,3.7,0,0,1,58.8,8.391a3.565,3.565,0,0,1,2.793,1.2,4.6,4.6,0,0,1,1.066,3.18v.1a5.036,5.036,0,0,1-.473,2.215,3.589,3.589,0,0,1-1.352,1.527,3.743,3.743,0,0,1-2.02.547,3.556,3.556,0,0,1-2.785-1.2A4.575,4.575,0,0,1,54.961,12.8Zm1.453.172a3.616,3.616,0,0,0,.652,2.258,2.211,2.211,0,0,0,3.5-.012,3.955,3.955,0,0,0,.648-2.418,3.61,3.61,0,0,0-.66-2.254A2.1,2.1,0,0,0,58.8,9.578a2.075,2.075,0,0,0-1.727.852A3.925,3.925,0,0,0,56.414,12.867ZM73.648,17a3.036,3.036,0,0,1-.2-.891,3.225,3.225,0,0,1-2.406,1.047,2.984,2.984,0,0,1-2.051-.707,2.288,2.288,0,0,1-.8-1.793,2.39,2.39,0,0,1,1-2.051,4.733,4.733,0,0,1,2.824-.73h1.406v-.664A1.623,1.623,0,0,0,72.969,10a1.821,1.821,0,0,0-1.336-.449,2.108,2.108,0,0,0-1.3.391,1.151,1.151,0,0,0-.523.945H68.359a2,2,0,0,1,.449-1.223,3.066,3.066,0,0,1,1.219-.934,4.1,4.1,0,0,1,1.691-.344,3.342,3.342,0,0,1,2.289.73,2.635,2.635,0,0,1,.859,2.012v3.891a4.757,4.757,0,0,0,.3,1.852V17Zm-2.4-1.1a2.54,2.54,0,0,0,1.289-.352,2.127,2.127,0,0,0,.883-.914V12.9H72.289q-2.656,0-2.656,1.555a1.316,1.316,0,0,0,.453,1.063A1.742,1.742,0,0,0,71.25,15.9Zm9.273.078a2.082,2.082,0,0,0,1.352-.469,1.649,1.649,0,0,0,.641-1.172h1.367a2.621,2.621,0,0,1-.5,1.383,3.293,3.293,0,0,1-1.23,1.047,3.55,3.55,0,0,1-1.629.391A3.482,3.482,0,0,1,77.777,16a4.59,4.59,0,0,1-1.02-3.152v-.242a5.089,5.089,0,0,1,.453-2.2,3.451,3.451,0,0,1,1.3-1.492,3.7,3.7,0,0,1,2-.531,3.39,3.39,0,0,1,2.363.852,3.043,3.043,0,0,1,1,2.211H82.516a1.992,1.992,0,0,0-.621-1.348,1.932,1.932,0,0,0-1.379-.527,2.023,2.023,0,0,0-1.707.793,3.724,3.724,0,0,0-.605,2.293v.273a3.65,3.65,0,0,0,.6,2.25A2.033,2.033,0,0,0,80.523,15.977ZM87.469,6.5V8.547h1.578V9.664H87.469v5.242a1.171,1.171,0,0,0,.211.762.888.888,0,0,0,.719.254,3.5,3.5,0,0,0,.688-.094V17a4.19,4.19,0,0,1-1.109.156,1.8,1.8,0,0,1-1.461-.586,2.517,2.517,0,0,1-.492-1.664V9.664H84.484V8.547h1.539V6.5Zm8.484,9.664a3.07,3.07,0,0,1-2.477.992,2.628,2.628,0,0,1-2.059-.785,3.4,3.4,0,0,1-.715-2.324v-5.5h1.445v5.461q0,1.922,1.563,1.922a2.163,2.163,0,0,0,2.2-1.234V8.547h1.445V17H95.984Zm8.82.836a3.036,3.036,0,0,1-.2-.891,3.225,3.225,0,0,1-2.406,1.047,2.984,2.984,0,0,1-2.051-.707,2.288,2.288,0,0,1-.8-1.793,2.39,2.39,0,0,1,1-2.051,4.733,4.733,0,0,1,2.824-.73h1.406v-.664A1.623,1.623,0,0,0,104.094,10a1.821,1.821,0,0,0-1.336-.449,2.108,2.108,0,0,0-1.3.391,1.151,1.151,0,0,0-.523.945H99.484a2,2,0,0,1,.449-1.223,3.066,3.066,0,0,1,1.219-.934,4.1,4.1,0,0,1,1.691-.344,3.342,3.342,0,0,1,2.289.73,2.635,2.635,0,0,1,.859,2.012v3.891a4.757,4.757,0,0,0,.3,1.852V17Zm-2.4-1.1a2.54,2.54,0,0,0,1.289-.352,2.127,2.127,0,0,0,.883-.914V12.9h-1.133q-2.656,0-2.656,1.555a1.316,1.316,0,0,0,.453,1.063A1.742,1.742,0,0,0,102.375,15.9Zm7.453,1.1h-1.445V5h1.445Z" transform="translate(-9585.5 -2500.587)" fill="#12263f"/>
    <g id="Trazado_626440" data-name="Trazado 626440" transform="translate(-9566.5 -2589.682)" fill="#fca16e">
      <path d="M 17.5 34 C 13.09269046783447 34 8.949179649353027 32.28369903564453 5.83273983001709 29.16725921630859 C 2.716300010681152 26.05081939697266 1 21.90731048583984 1 17.5 C 1 13.09269046783447 2.716300010681152 8.949179649353027 5.83273983001709 5.83273983001709 C 8.949179649353027 2.716300010681152 13.09269046783447 1 17.5 1 C 21.90731048583984 1 26.05081939697266 2.716300010681152 29.16725921630859 5.83273983001709 C 32.28369903564453 8.949179649353027 34 13.09269046783447 34 17.5 C 34 21.90731048583984 32.28369903564453 26.05081939697266 29.16725921630859 29.16725921630859 C 26.05081939697266 32.28369903564453 21.90731048583984 34 17.5 34 Z" stroke="none"/>
      <path d="M 17.5 2 C 13.35980033874512 2 9.467409133911133 3.612279891967773 6.539850234985352 6.539850234985352 C 3.612279891967773 9.467409133911133 2 13.35980033874512 2 17.5 C 2 21.64019966125488 3.612279891967773 25.53258895874023 6.539850234985352 28.46014976501465 C 9.467409133911133 31.38772010803223 13.35980033874512 33 17.5 33 C 21.64019966125488 33 25.53258895874023 31.38772010803223 28.46014976501465 28.46014976501465 C 31.38772010803223 25.53258895874023 33 21.64019966125488 33 17.5 C 33 13.35980033874512 31.38772010803223 9.467409133911133 28.46014976501465 6.539850234985352 C 25.53258895874023 3.612279891967773 21.64019966125488 2 17.5 2 M 17.5 0 C 27.16497993469238 0 35 7.835020065307617 35 17.5 C 35 27.16497993469238 27.16497993469238 35 17.5 35 C 7.835020065307617 35 0 27.16497993469238 0 17.5 C 0 7.835020065307617 7.835020065307617 0 17.5 0 Z" stroke="none" fill="#ef8b53"/>
    </g>
    <g id="Trazado_628468" data-name="Trazado 628468" transform="translate(-9531.5 -2562.682)" fill="#e0dafc">
      <path d="M 26 51 C 22.62458038330078 51 19.35066032409668 50.33914184570312 16.26918029785156 49.03578948974609 C 13.29232025146484 47.77667999267578 10.61861038208008 45.97394943237305 8.322330474853516 43.67766952514648 C 6.026050090789795 41.38138961791992 4.223320007324219 38.70767974853516 2.964210033416748 35.73081970214844 C 1.660859942436218 32.64934158325195 1 29.37541961669922 1 26 C 1 22.62458038330078 1.660859942436218 19.35066032409668 2.964210033416748 16.26918029785156 C 4.223320007324219 13.29232025146484 6.026050090789795 10.61861038208008 8.322330474853516 8.322330474853516 C 10.61861038208008 6.026050090789795 13.29232025146484 4.223320007324219 16.26918029785156 2.964210033416748 C 19.35066032409668 1.660859942436218 22.62458038330078 1 26 1 C 29.37541961669922 1 32.64934158325195 1.660859942436218 35.73081970214844 2.964210033416748 C 38.70767974853516 4.223320007324219 41.38138961791992 6.026050090789795 43.67766952514648 8.322330474853516 C 45.97394943237305 10.61861038208008 47.77667999267578 13.29232025146484 49.03578948974609 16.26918029785156 C 50.33914184570312 19.35066032409668 51 22.62458038330078 51 26 C 51 29.37541961669922 50.33914184570312 32.64934158325195 49.03578948974609 35.73081970214844 C 47.77667999267578 38.70767974853516 45.97394943237305 41.38138961791992 43.67766952514648 43.67766952514648 C 41.38138961791992 45.97394943237305 38.70767974853516 47.77667999267578 35.73081970214844 49.03578948974609 C 32.64934158325195 50.33914184570312 29.37541961669922 51 26 51 Z" stroke="none"/>
      <path d="M 26 2 C 22.75914001464844 2 19.61627960205078 2.634281158447266 16.65872955322266 3.885219573974609 C 13.80107116699219 5.093910217285156 11.23419952392578 6.824668884277344 9.029441833496094 9.029441833496094 C 6.824668884277344 11.23419952392578 5.093910217285156 13.80107116699219 3.885219573974609 16.65872955322266 C 2.634281158447266 19.61627960205078 2 22.75914001464844 2 26 C 2 29.24085998535156 2.634281158447266 32.38372039794922 3.885219573974609 35.34127044677734 C 5.093910217285156 38.19892883300781 6.824668884277344 40.76580047607422 9.029441833496094 42.97055816650391 C 11.23419952392578 45.17533111572266 13.80107116699219 46.90608978271484 16.65872955322266 48.11478042602539 C 19.61627960205078 49.36571884155273 22.75914001464844 50 26 50 C 29.24085998535156 50 32.38372039794922 49.36571884155273 35.34127044677734 48.11478042602539 C 38.19892883300781 46.90608978271484 40.76580047607422 45.17533111572266 42.97055816650391 42.97055816650391 C 45.17533111572266 40.76580047607422 46.90608978271484 38.19892883300781 48.11478042602539 35.34127044677734 C 49.36571884155273 32.38372039794922 50 29.24085998535156 50 26 C 50 22.75914001464844 49.36571884155273 19.61627960205078 48.11478042602539 16.65872955322266 C 46.90608978271484 13.80107116699219 45.17533111572266 11.23419952392578 42.97055816650391 9.029441833496094 C 40.76580047607422 6.824668884277344 38.19892883300781 5.093910217285156 35.34127044677734 3.885219573974609 C 32.38372039794922 2.634281158447266 29.24085998535156 2 26 2 M 26 0 C 40.35939788818359 0 52 11.64059829711914 52 26 C 52 40.35939788818359 40.35939788818359 52 26 52 C 11.64059829711914 52 0 40.35939788818359 0 26 C 0 11.64059829711914 11.64059829711914 0 26 0 Z" stroke="none" fill="#583cb6"/>
    </g>
    <g id="Trazado_626439" data-name="Trazado 626439" transform="translate(-9522.5 -2598.682)" fill="#faebcd">
      <path d="M 13 25 C 9.794679641723633 25 6.781219959259033 23.75177955627441 4.51471996307373 21.48527908325195 C 2.248219966888428 19.21878051757812 1 16.20532035827637 1 13 C 1 9.794679641723633 2.248219966888428 6.781219959259033 4.51471996307373 4.51471996307373 C 6.781219959259033 2.248219966888428 9.794679641723633 1 13 1 C 16.20532035827637 1 19.21878051757812 2.248219966888428 21.48527908325195 4.51471996307373 C 23.75177955627441 6.781219959259033 25 9.794679641723633 25 13 C 25 16.20532035827637 23.75177955627441 19.21878051757812 21.48527908325195 21.48527908325195 C 19.21878051757812 23.75177955627441 16.20532035827637 25 13 25 Z" stroke="none"/>
      <path d="M 13 2 C 10.06179046630859 2 7.299449920654297 3.144199371337891 5.221830368041992 5.221830368041992 C 3.144199371337891 7.299449920654297 2 10.06179046630859 2 13 C 2 15.93820953369141 3.144199371337891 18.7005500793457 5.221830368041992 20.77816963195801 C 7.299449920654297 22.85580062866211 10.06179046630859 24 13 24 C 15.93820953369141 24 18.7005500793457 22.85580062866211 20.77816963195801 20.77816963195801 C 22.85580062866211 18.7005500793457 24 15.93820953369141 24 13 C 24 10.06179046630859 22.85580062866211 7.299449920654297 20.77816963195801 5.221830368041992 C 18.7005500793457 3.144199371337891 15.93820953369141 2 13 2 M 13 0 C 20.1796989440918 0 26 5.82029914855957 26 13 C 26 20.1796989440918 20.1796989440918 26 13 26 C 5.82029914855957 26 0 20.1796989440918 0 13 C 0 5.82029914855957 5.82029914855957 0 13 0 Z" stroke="none" fill="#f0bd51"/>
    </g>
    <g id="Trazado_628469" data-name="Trazado 628469" transform="translate(-9566.5 -2541.682)" fill="#8acca2">
      <path d="M 9 17 C 4.588789939880371 17 1 13.41121006011963 1 9 C 1 4.588789939880371 4.588789939880371 1 9 1 C 13.41121006011963 1 17 4.588789939880371 17 9 C 17 13.41121006011963 13.41121006011963 17 9 17 Z" stroke="none"/>
      <path d="M 9 2 C 5.140190124511719 2 2 5.140190124511719 2 9 C 2 12.85980987548828 5.140190124511719 16 9 16 C 12.85980987548828 16 16 12.85980987548828 16 9 C 16 5.140190124511719 12.85980987548828 2 9 2 M 9 0 C 13.97056007385254 0 18 4.029439926147461 18 9 C 18 13.97056007385254 13.97056007385254 18 9 18 C 4.029439926147461 18 0 13.97056007385254 0 9 C 0 4.029439926147461 4.029439926147461 0 9 0 Z" stroke="none" fill="#5c9972"/>
    </g>
    <path id="Trazado_626441" data-name="Trazado 626441" d="M39.229,123.98q-10.2-2.883-15.364-9.484T18.7,97.057V85.584q0-14.01-12.222-14.01v-8.36q12.222,0,12.222-13.952V37.271q.115-10.55,5.16-17.036t15.364-9.426l2.191,6.63Q29.37,21.3,29.37,37.559V49.205q0,13.087-9.628,18.218,9.628,5.189,9.628,18.391V97.691q.173,15.854,12.049,19.66Z" transform="translate(-9423.895 -2438.167) rotate(-90)" fill="#583cb6"/>
    <path id="Trazado_628470" data-name="Trazado 628470" d="M32.5,0A32.5,32.5,0,1,1,0,32.5,32.5,32.5,0,0,1,32.5,0Z" transform="translate(-9393.921 -2431.135)" fill="#449c6e"/>
    <path id="Trazado_617315" data-name="Trazado 617315" d="M1591.565,865.833h-2.852c-.181-.808-.442-1.017-1.311-1.017q-5.657,0-11.313,0c-.846,0-.846,0-.846-.862q0-29.478,0-58.955c0-.841,0-.842.866-.842h34.655c.216,0,.432.019.647.028q0,5.619,0,11.238c0,.247.1.527-.145.73a2.074,2.074,0,0,0-1.012-.157q-8.314,0-16.629,0a3.847,3.847,0,0,0-.584.016.887.887,0,0,0-.8.81.918.918,0,0,0,.536,1.012,1.572,1.572,0,0,0,.761.115q8.379,0,16.759,0a1.879,1.879,0,0,0,1.1-.295q.006,2.616.013,5.231c-.1.049-.188.1-.287.146a20.417,20.417,0,0,0-7.275,5.1,1.4,1.4,0,0,1-1.162.506c-3.1-.019-6.2-.006-9.294-.013-.589,0-1.024.19-1.148.811-.132.663.337,1.14,1.133,1.142,2.621.006,5.243,0,7.864.007.177,0,.382-.089.56.1a20.576,20.576,0,0,0-3.457,10.186c-.024.371-.207.395-.5.393q-2.21-.014-4.42,0c-.751,0-1.2.379-1.21.975s.435.971,1.193.974q2.21.008,4.419,0c.285,0,.493,0,.51.383a23.258,23.258,0,0,0,1.128,5.709c-.345.522-.008,1.04.054,1.541.126,1.018.375,2.021.574,3.03q-3.209.016-6.418.034a3.127,3.127,0,0,0-.769.072.952.952,0,0,0,.12,1.852,5.4,5.4,0,0,0,.712.025l7.258.043a19.85,19.85,0,0,0,6.421,7.983c.383.286.947.367,1.132.9-.238.008-.476.024-.714.024q-7.48,0-14.961,0C1592,864.815,1591.743,865.025,1591.565,865.833Zm-12.732-52.738h0c0,.823-.022,1.648,0,2.47a2.335,2.335,0,0,0,2.4,2.378q2.438.038,4.877,0a2.344,2.344,0,0,0,2.41-2.434c.014-1.235.011-2.471,0-3.706-.007-.753-.083-1.486.658-2.032a.8.8,0,0,0,.066-1.127c-.258-.38-.72-.627-1.06-.375-.557.415-1.007.2-1.523.033a2.348,2.348,0,0,0-.705-.08c-1.539-.006-3.078-.012-4.617,0a2.359,2.359,0,0,0-2.511,2.468C1578.818,811.491,1578.833,812.293,1578.833,813.095Zm4.858,17.487c.781,0,1.561,0,2.342,0a2.349,2.349,0,0,0,2.495-2.474q.017-1.853,0-3.706c-.006-.732-.087-1.444.644-1.975a.8.8,0,0,0,.052-1.175.791.791,0,0,0-1.078-.32,1.14,1.14,0,0,1-1.323.045,1.249,1.249,0,0,0-.572-.1c-1.713-.009-3.427-.052-5.137.006a2.277,2.277,0,0,0-2.27,2.363q-.045,2.47,0,4.941a2.329,2.329,0,0,0,2.443,2.394C1582.087,830.59,1582.889,830.582,1583.691,830.582Zm.073,15.592c-.867,0-1.734-.012-2.6,0a2.252,2.252,0,0,0-2.3,2.174q-.077,2.662,0,5.328a2.206,2.206,0,0,0,2.175,2.161q2.631.064,5.265,0a2.255,2.255,0,0,0,2.221-2.262q.038-2.566,0-5.134a2.285,2.285,0,0,0-2.285-2.269C1585.411,846.16,1584.588,846.174,1583.764,846.174Zm4.765-7.764c0-.823.01-1.647,0-2.47a2.278,2.278,0,0,0-2.286-2.4q-2.566-.071-5.135,0a2.24,2.24,0,0,0-2.26,2.289q-.056,2.534,0,5.069a2.286,2.286,0,0,0,2.376,2.314q2.47.024,4.941,0a2.308,2.308,0,0,0,2.363-2.332C1588.543,840.057,1588.528,839.233,1588.53,838.41Zm6.228,13.838v0h1.362a1.276,1.276,0,0,0,.13,0,.969.969,0,0,0,.984-.99.943.943,0,0,0-1.012-.952q-1.491-.037-2.984,0a.959.959,0,0,0-1.023.947.982.982,0,0,0,1.05.994C1593.762,852.266,1594.26,852.248,1594.758,852.248Zm-.032-12.662v0h1.428c.043,0,.087,0,.13,0a.92.92,0,0,0,.945-.881.9.9,0,0,0-.846-1.034c-1.1-.049-2.206-.049-3.306,0a.96.96,0,0,0,.092,1.914C1593.687,839.6,1594.207,839.587,1594.726,839.587Zm.008-12.637c.5,0,1,.014,1.492,0a.958.958,0,0,0,1.008-.956.94.94,0,0,0-.923-.977q-1.588-.048-3.178,0a.965.965,0,0,0,.045,1.929C1593.695,826.965,1594.215,826.948,1594.734,826.949Zm.009-14.581c-.5,0-1-.012-1.492,0a.973.973,0,1,0,0,1.942c.994.019,1.99.021,2.984,0a.97.97,0,1,0,0-1.939C1595.738,812.354,1595.24,812.368,1594.743,812.368Z" transform="translate(-10957.053 -3233.304)" fill="#f5f1ef"/>
    <path id="Trazado_617316" data-name="Trazado 617316" d="M1647.295,885.371l-7.258-.043a5.412,5.412,0,0,1-.712-.025.952.952,0,0,1-.12-1.852,3.131,3.131,0,0,1,.769-.072q3.209-.023,6.418-.034h1.754a24.121,24.121,0,0,1-2.382-4.571,23.263,23.263,0,0,1-1.128-5.709c-.017-.383-.224-.385-.51-.383q-2.209.013-4.419,0c-.759,0-1.2-.369-1.193-.974s.459-.971,1.21-.975q2.21-.01,4.42,0c.292,0,.475-.022.5-.393a20.576,20.576,0,0,1,3.457-10.186c-.178-.19-.383-.1-.56-.1-2.622-.007-5.243,0-7.864-.007-.8,0-1.265-.479-1.133-1.142.124-.621.559-.812,1.148-.811,3.1.007,6.2-.006,9.294.013a1.4,1.4,0,0,0,1.162-.506,20.416,20.416,0,0,1,7.275-5.1c.1-.041.192-.1.287-.146a22.743,22.743,0,0,1,3.286-.963c.445-.076.537-.263.532-.678-.022-1.818-.014-3.637-.007-5.455,0-.815.226-1.078,1.008-1.251a1.024,1.024,0,0,1,.947,1.171c-.011,1.734.015,3.468-.016,5.2-.009.493.114.608.612.584a20.067,20.067,0,0,1,16.542,6.63c5.369,5.9,6.992,12.849,4.548,20.441-2.474,7.688-7.935,12.338-15.815,14.1a16.754,16.754,0,0,1-5.3.318c-.443-.043-.627.056-.584.533a7.166,7.166,0,0,1-.013,1.233,2.2,2.2,0,0,1-2.04,2c-.194.014-.39.011-.585.011q-10.827,0-21.654,0c-.887,0-1.086-.148-1.307-.933.178-.808.439-1.018,1.31-1.018q7.48,0,14.961,0c.238,0,.476-.016.714-.024,1.69.008,3.38.042,5.069.019,1.9-.026,1.558.412,1.608-1.723a.409.409,0,0,0-.385-.482,20.479,20.479,0,0,1-11.268-6.506.609.609,0,0,0-.5-.24C1648.678,885.349,1647.986,885.357,1647.295,885.371Zm21.109,4.894,0,.01c.236-.023.476-.029.709-.072a18.883,18.883,0,0,0,15.108-17.622,18.447,18.447,0,0,0-8.248-16.438,19.269,19.269,0,0,0-13.794-2.99,18.776,18.776,0,0,0-15.468,20.959c.933,6.952,4.757,11.921,11.119,14.857a17.385,17.385,0,0,0,10.154,1.377C1668.133,890.361,1668.283,890.39,1668.4,890.265Z" transform="translate(-11003.351 -3262.772)" fill="#030304"/>
    <path id="Trazado_617317" data-name="Trazado 617317" d="M1605.873,798.645c-.215-.01-.431-.028-.647-.028h-34.655c-.866,0-.866,0-.866.842q0,29.478,0,58.955c0,.861,0,.862.846.862q5.656,0,11.313,0c.869,0,1.13.21,1.311,1.017a1.034,1.034,0,0,1-1.179.939c-3.967-.01-7.934,0-11.9-.009a2.22,2.22,0,0,1-2.341-2.383q0-29.906,0-59.812a2.222,2.222,0,0,1,2.362-2.361q19.574-.008,39.148,0a2.2,2.2,0,0,1,2.366,2.35c.017,1.972-.01,3.944.012,5.916a1.114,1.114,0,0,1-.955,1.254c-.825-.256-1-.483-1-1.336,0-1.876-.01-3.752.005-5.629,0-.431-.112-.628-.583-.613C1608.029,798.642,1606.95,798.635,1605.873,798.645Z" transform="translate(-10951.515 -3227.764)" fill="#020202"/>
    <path id="Trazado_617318" data-name="Trazado 617318" d="M1713.579,804.16c1.078-.01,2.156,0,3.233-.037.47-.015.586.182.583.613-.015,1.876-.009,3.752-.005,5.628,0,.853.179,1.08,1,1.336q0,1.41,0,2.819c-.782.174-1.005.437-1.008,1.251-.007,1.818-.015,3.637.007,5.455,0,.415-.087.6-.533.678a22.746,22.746,0,0,0-3.286.963q-.007-2.615-.013-5.231a1.088,1.088,0,0,0-.135-1.508c.245-.2.145-.484.145-.73Q1713.585,809.779,1713.579,804.16Z" transform="translate(-11059.222 -3233.28)" fill="#f5f1ef"/>
    <path id="Trazado_617319" data-name="Trazado 617319" d="M1589,824.476c0-.8-.015-1.6,0-2.405a2.359,2.359,0,0,1,2.511-2.468c1.539-.011,3.078-.006,4.617,0a2.348,2.348,0,0,1,.705.08c.515.168.965.382,1.523-.033.339-.253.8-.005,1.06.375a.8.8,0,0,1-.066,1.127c-.742.546-.665,1.279-.658,2.032.011,1.235.013,2.471,0,3.706a2.344,2.344,0,0,1-2.41,2.434q-2.438.038-4.877,0a2.335,2.335,0,0,1-2.4-2.378c-.026-.823,0-1.647,0-2.47Zm5.121,2.876c.672.009,1.343.02,2.014.026.344,0,.6-.108.606-.509,0-.965,0-1.93,0-3-.987.806-1.674,1.769-2.623,2.445a1.045,1.045,0,0,1-.913-.2c-.336-.3-.654-.624-.971-.946-.521-.529-.593-1.039-.219-1.478.392-.461.94-.473,1.519.033.29.254.435.173.593-.1l1.924-2.049h-1.929c-.843-.008-1.687-.005-2.529-.028-.486-.013-.642.222-.638.675q.017,2.238,0,4.477c0,.455.157.69.638.679C1592.433,827.361,1593.276,827.36,1594.119,827.352Z" transform="translate(-10967.219 -3244.684)" fill="#030304"/>
    <path id="Trazado_617320" data-name="Trazado 617320" d="M1593.838,877.845c-.8,0-1.6.007-2.406,0a2.329,2.329,0,0,1-2.443-2.394q-.043-2.47,0-4.941a2.277,2.277,0,0,1,2.27-2.363c1.71-.058,3.425-.015,5.137-.006a1.249,1.249,0,0,1,.572.1,1.14,1.14,0,0,0,1.323-.045.791.791,0,0,1,1.078.32.8.8,0,0,1-.052,1.175c-.73.53-.65,1.242-.644,1.975q.016,1.853,0,3.706a2.349,2.349,0,0,1-2.495,2.474C1595.4,877.85,1594.618,877.845,1593.838,877.845Zm.26-7.74q-1.264-.016-2.527-.032c-.419-.006-.639.166-.636.617q.015,2.3,0,4.605c0,.446.2.613.639.6.842-.022,1.686-.018,2.529-.024l2.066.021c.289,0,.537-.085.542-.415.014-1,.005-1.994.005-3.1-.973.843-1.681,1.776-2.612,2.469a1.175,1.175,0,0,1-1.02-.289c-.3-.308-.616-.606-.915-.917a.986.986,0,0,1-.123-1.482.944.944,0,0,1,1.43.055c.293.272.459.241.637-.076l1.9-2.033Z" transform="translate(-10967.199 -3280.566)" fill="#020202"/>
    <path id="Trazado_617321" data-name="Trazado 617321" d="M1593.917,965.344c.823,0,1.647-.014,2.47,0a2.285,2.285,0,0,1,2.286,2.269q.039,2.567,0,5.134a2.255,2.255,0,0,1-2.221,2.262q-2.631.06-5.265,0a2.206,2.206,0,0,1-2.175-2.161q-.075-2.662,0-5.328a2.252,2.252,0,0,1,2.3-2.174C1592.183,965.331,1593.05,965.344,1593.917,965.344Zm.194,7.7c.692.011,1.384.021,2.076.034.378.007.547-.167.545-.552q-.012-2.338,0-4.677c0-.38-.157-.559-.544-.549-.692.016-1.385.02-2.077.028-.865-.009-1.729-.01-2.594-.03-.375-.008-.574.138-.574.523q0,2.368,0,4.737c0,.34.158.525.511.521Z" transform="translate(-10967.206 -3352.473)" fill="#030304"/>
    <path id="Trazado_617322" data-name="Trazado 617322" d="M1598.672,921.658c0,.823.014,1.647,0,2.47a2.308,2.308,0,0,1-2.363,2.332q-2.47.025-4.941,0a2.285,2.285,0,0,1-2.376-2.314q-.055-2.534,0-5.069a2.24,2.24,0,0,1,2.26-2.289q2.566-.071,5.135,0a2.278,2.278,0,0,1,2.286,2.4C1598.682,920.011,1598.672,920.834,1598.672,921.658Zm-4.572,2.826c.692.009,1.384.013,2.076.027.385.008.546-.174.544-.552q-.008-2.337,0-4.673c0-.385-.172-.562-.544-.558-.692.008-1.383.021-2.074.032-.864-.012-1.728-.021-2.592-.036-.409-.007-.582.188-.581.593q.011,2.3,0,4.606c0,.4.15.6.576.592C1592.371,924.492,1593.236,924.492,1594.1,924.483Z" transform="translate(-10967.195 -3316.551)" fill="#030304"/>
    <path id="Trazado_617323" data-name="Trazado 617323" d="M1674.046,1002.548c.692-.014,1.384-.023,2.075-.046a.609.609,0,0,1,.5.24,20.481,20.481,0,0,0,11.269,6.506.409.409,0,0,1,.384.482c-.05,2.135.3,1.7-1.608,1.724-1.689.023-3.379-.01-5.069-.019-.184-.537-.749-.618-1.132-.9A19.851,19.851,0,0,1,1674.046,1002.548Z" transform="translate(-11030.103 -3379.949)" fill="#f5f1ef"/>
    <path id="Trazado_617324" data-name="Trazado 617324" d="M1659.432,849.735a1.088,1.088,0,0,1,.135,1.508,1.879,1.879,0,0,1-1.1.295q-8.379-.012-16.759,0a1.573,1.573,0,0,1-.761-.116.919.919,0,0,1-.536-1.012.887.887,0,0,1,.8-.81,3.853,3.853,0,0,1,.583-.016q8.315,0,16.629,0A2.074,2.074,0,0,1,1659.432,849.735Z" transform="translate(-11005.222 -3266.886)" fill="#030304"/>
    <path id="Trazado_617325" data-name="Trazado 617325" d="M1642.9,983.093c-.5,0-1,.018-1.492,0a.982.982,0,0,1-1.05-.994.959.959,0,0,1,1.023-.947q1.491-.035,2.984,0a.943.943,0,0,1,1.012.952.969.969,0,0,1-.984.99,1.261,1.261,0,0,1-.13,0H1642.9Z" transform="translate(-11005.195 -3364.148)" fill="#070707"/>
    <path id="Trazado_617326" data-name="Trazado 617326" d="M1642.875,934.549c-.519,0-1.039.013-1.557,0a.96.96,0,0,1-.092-1.914c1.1-.047,2.205-.048,3.305,0a.9.9,0,0,1,.846,1.034.92.92,0,0,1-.945.881c-.043,0-.086,0-.13,0h-1.427Z" transform="translate(-11005.202 -3328.266)" fill="#070707"/>
    <path id="Trazado_617327" data-name="Trazado 617327" d="M1642.88,886.042c-.519,0-1.039.017-1.557-.005a.965.965,0,0,1-.045-1.929q1.588-.051,3.178,0a.94.94,0,0,1,.924.977.958.958,0,0,1-1.008.956C1643.875,886.057,1643.377,886.043,1642.88,886.042Z" transform="translate(-11005.199 -3292.397)" fill="#030304"/>
    <path id="Trazado_617328" data-name="Trazado 617328" d="M1642.891,835.65c.5,0,1-.014,1.492,0a.97.97,0,1,1,0,1.939c-.994.023-1.99.021-2.984,0a.973.973,0,1,1,0-1.942C1641.9,835.639,1642.393,835.65,1642.891,835.65Z" transform="translate(-11005.201 -3256.586)" fill="#020202"/>
    <path id="Trazado_617329" data-name="Trazado 617329" d="M1667.74,977.366a24.11,24.11,0,0,0,2.382,4.571h-1.754c-.2-1.009-.448-2.012-.574-3.03C1667.732,978.406,1667.395,977.888,1667.74,977.366Z" transform="translate(-11025.327 -3361.366)" fill="#f5f1ef"/>
    <path id="Trazado_617330" data-name="Trazado 617330" d="M1692.6,915.449a17.384,17.384,0,0,1-10.154-1.377c-6.362-2.936-10.187-7.905-11.119-14.857a18.776,18.776,0,0,1,15.468-20.959,16.573,16.573,0,0,1,6.071-.02c.233.33.636.345.96.494a19.919,19.919,0,0,1,7.3,5.665,3.288,3.288,0,0,1,1.033,1.719c-.065-.056-.136-.106-.2-.168a15.994,15.994,0,0,0-14.576-5.076,16.2,16.2,0,0,0-13.267,12.994c-.141.857,0,1.117.788,1.449a9.06,9.06,0,0,0-.005,2.834c-.764.295-.969.608-.855,1.3a16.191,16.191,0,0,0,22.184,12.294,17.578,17.578,0,0,0,5.763-4.02c.194.341-.112.534-.261.731a20.632,20.632,0,0,1-7.9,6.469c-.278.128-.664.094-.813.459l0-.011A.351.351,0,0,0,1692.6,915.449Z" transform="translate(-11027.97 -3287.874)" fill="#608fce"/>
    <path id="Trazado_617331" data-name="Trazado 617331" d="M1763.734,886.883a3.285,3.285,0,0,0-1.033-1.72,19.92,19.92,0,0,0-7.3-5.665c-.324-.149-.727-.163-.96-.494a16.622,16.622,0,0,1,7.723,3.01,18.447,18.447,0,0,1,8.248,16.438,18.883,18.883,0,0,1-15.109,17.622c-.233.044-.472.049-.709.073.149-.364.535-.33.813-.458a20.632,20.632,0,0,0,7.9-6.469c.149-.2.455-.39.261-.73a.051.051,0,0,1,.064.046c.156-.026.172-.135.156-.262l-.016,0c.092,0,.137-.026.054-.112.062-.087.118-.179.185-.262a15.926,15.926,0,0,0,3.167-14.563,16.413,16.413,0,0,0-3.119-6.067l-.137-.179.007.013c0-.119-.015-.228-.157-.26Z" transform="translate(-11089.544 -3288.644)" fill="#608fce"/>
    <path id="Trazado_617332" data-name="Trazado 617332" d="M1753.424,1021.444a.35.35,0,0,1,.417-.082C1753.722,1021.487,1753.571,1021.458,1753.424,1021.444Z" transform="translate(-11088.79 -3393.869)" fill="#3273c2"/>
    <path id="Trazado_617333" data-name="Trazado 617333" d="M1599.687,829.3c-.158.272-.3.353-.593.1-.579-.506-1.127-.495-1.519-.033-.373.439-.3.948.219,1.478.317.322.635.644.971.946a1.045,1.045,0,0,0,.914.2v1.034c-.843.009-1.686.01-2.529.028-.481.011-.642-.224-.638-.679q.019-2.238,0-4.477c0-.453.152-.688.638-.675.843.022,1.686.02,2.529.028Z" transform="translate(-10972.78 -3250.359)" fill="#5eb8c3"/>
    <path id="Trazado_617334" data-name="Trazado 617334" d="M1608.658,839.619v-1.034c.949-.676,1.635-1.639,2.623-2.445,0,1.066,0,2.031,0,3,0,.4-.262.512-.606.509C1610,839.639,1609.33,839.628,1608.658,839.619Z" transform="translate(-10981.758 -3256.952)" fill="#4fa4b1"/>
    <path id="Trazado_617335" data-name="Trazado 617335" d="M1608.672,829.38l-.006-2.049h1.929Z" transform="translate(-10981.765 -3250.439)" fill="#4fa4b1"/>
    <path id="Trazado_617336" data-name="Trazado 617336" d="M1599.695,877.792c-.178.318-.344.349-.637.076a.944.944,0,0,0-1.43-.055.986.986,0,0,0,.123,1.482c.3.312.612.61.915.917a1.175,1.175,0,0,0,1.02.289v1.026c-.843.006-1.687,0-2.529.024-.434.011-.641-.156-.639-.6q.01-2.3,0-4.605c0-.451.218-.623.636-.617l2.527.032Q1599.687,876.775,1599.695,877.792Z" transform="translate(-10972.78 -3286.22)" fill="#5eb8c3"/>
    <path id="Trazado_617337" data-name="Trazado 617337" d="M1608.673,888.064v-1.026c.931-.694,1.639-1.627,2.612-2.469,0,1.106.009,2.1-.005,3.1,0,.33-.253.418-.542.415Z" transform="translate(-10981.77 -3292.757)" fill="#4fa4b1"/>
    <path id="Trazado_617338" data-name="Trazado 617338" d="M1608.668,877.883q-.008-1.016-.016-2.033h1.917Z" transform="translate(-10981.754 -3286.311)" fill="#4fa4b1"/>
    <path id="Trazado_617339" data-name="Trazado 617339" d="M1599.692,978.583l-2.657.034c-.354,0-.511-.18-.511-.521q0-2.369,0-4.737c0-.385.2-.531.574-.523.865.02,1.729.021,2.594.03Q1599.691,975.724,1599.692,978.583Z" transform="translate(-10972.787 -3358.016)" fill="#f9e179"/>
    <path id="Trazado_617340" data-name="Trazado 617340" d="M1608.677,978.587q0-2.858,0-5.717c.692-.009,1.385-.012,2.077-.028.387-.009.546.17.544.549q-.009,2.339,0,4.677c0,.385-.167.559-.545.552C1610.061,978.608,1609.369,978.6,1608.677,978.587Z" transform="translate(-10981.771 -3358.021)" fill="#f9e179"/>
    <path id="Trazado_617341" data-name="Trazado 617341" d="M1599.687,930.072c-.864.009-1.729.008-2.593.029-.426.01-.577-.2-.575-.592q.008-2.3,0-4.606c0-.405.172-.6.581-.593.864.015,1.728.024,2.592.036Q1599.689,927.209,1599.687,930.072Z" transform="translate(-10972.783 -3322.139)" fill="#efa84b"/>
    <path id="Trazado_617342" data-name="Trazado 617342" d="M1608.677,930.085q0-2.862,0-5.725c.691-.011,1.382-.024,2.074-.032.372,0,.546.173.544.558q-.013,2.337,0,4.673c0,.378-.16.56-.544.552C1610.061,930.1,1609.369,930.094,1608.677,930.085Z" transform="translate(-10981.772 -3322.153)" fill="#efa84b"/>
    <path id="Trazado_617343" data-name="Trazado 617343" d="M1685.213,911.31a9.06,9.06,0,0,1,.005-2.834c.759-.015,1.026-.5,1.153-1.161a14.169,14.169,0,0,1,16.932-11.193.354.354,0,0,0,.226.288,15.031,15.031,0,0,1,4.927,4,8.547,8.547,0,0,1,1.743,2.908,1.05,1.05,0,0,0-.892.542.9.9,0,0,0,.17,1.122,1.022,1.022,0,0,0,1.351.085c.333.023.329.322.388.527a10.914,10.914,0,0,1,.544,3.367c-.728.131-1.054.438-1.054.994s.326.864,1.054.994c-.025.448-.01.893-.068,1.346-.124.965-.5,1.864-.644,2.82-.589-.578-1.128-.643-1.572-.2a1,1,0,0,0,.731,1.686,1.081,1.081,0,0,1-.163.615,15.587,15.587,0,0,1-6.073,6.079c-.235.127-.61.146-.658.53a11.8,11.8,0,0,1-5.971.036,13.949,13.949,0,0,1-10.99-11.308C1686.206,911.89,1686.016,911.341,1685.213,911.31Zm14.174-7.17c0,.737-.021,1.474.008,2.21a.757.757,0,0,1-.49.832,3.077,3.077,0,0,0-.541,5.227,6.406,6.406,0,0,1,1.678,1.987c.45.738.882,1.488,1.335,2.225a1.7,1.7,0,0,0,2.549.632c.375-.216.746-.437,1.113-.666a1.693,1.693,0,0,0,.626-2.6q-.971-1.649-1.967-3.283a1.489,1.489,0,0,1-.236-.786,2.972,2.972,0,0,0-1.686-2.722.7.7,0,0,1-.444-.73q.027-2.34,0-4.68a.946.946,0,0,0-1.015-1.021.931.931,0,0,0-.926,1.031C1699.376,902.58,1699.387,903.36,1699.386,904.14Zm7.608-4.015a.949.949,0,0,0-1-.955.974.974,0,0,0,.026,1.949A.976.976,0,0,0,1706.994,900.125Zm0,19.681a.974.974,0,0,0-.953-1.01.975.975,0,0,0-.059,1.95A.95.95,0,0,0,1706.994,919.806Zm-15.54-4.232a1,1,0,0,0-1.029-.944.978.978,0,0,0-.924,1.038.952.952,0,0,0,.982.905A.989.989,0,0,0,1691.454,915.574Zm3.183,5.174a.976.976,0,0,0-.012-1.952.968.968,0,0,0-.974.987A.946.946,0,0,0,1694.637,920.748Zm-5.643-9.816a.974.974,0,0,0-.034-1.948.975.975,0,1,0,.034,1.948Zm2.46-6.6a.981.981,0,0,0-.981-.987.939.939,0,0,0-.973.909.974.974,0,0,0,.933,1.03A1,1,0,0,0,1691.454,904.333Zm8.895,17.947a.98.98,0,0,0,.987-.98,1.015,1.015,0,0,0-1.008-.975.979.979,0,0,0-.938.964A.945.945,0,0,0,1700.349,922.28Zm-5.7-21.158a.977.977,0,1,0-.093-1.952.944.944,0,0,0-.9.983A.977.977,0,0,0,1694.645,901.122Zm5.629-1.529a.979.979,0,0,0,.975-.991.93.93,0,0,0-.917-.963.97.97,0,0,0-1.024.938A1.018,1.018,0,0,0,1700.274,899.593Z" transform="translate(-11038.277 -3301.038)" fill="#f5f1ef"/>
    <path id="Trazado_617344" data-name="Trazado 617344" d="M1683.015,905.827c.8.031.993.58,1.139,1.249a13.949,13.949,0,0,0,10.99,11.309,11.8,11.8,0,0,0,5.971-.036,5.718,5.718,0,0,0,.573-.092,14.2,14.2,0,0,0,8.291-21.567,14.2,14.2,0,0,0-25.806,5.143c-.127.663-.394,1.146-1.153,1.161-.788-.332-.929-.592-.788-1.449a16.2,16.2,0,0,1,13.267-12.994,16,16,0,0,1,14.576,5.076c.059.062.13.112.2.168l.041-.037c-.038.141.055.2.157.26l-.006-.013.137.179a16.414,16.414,0,0,1,3.119,6.067,15.926,15.926,0,0,1-3.167,14.563c-.067.083-.124.174-.185.262l-.054.112.016,0c-.113.051-.232.1-.156.262a.05.05,0,0,0-.064-.046,17.591,17.591,0,0,1-5.764,4.02,16.191,16.191,0,0,1-22.184-12.294C1682.045,906.434,1682.251,906.121,1683.015,905.827Z" transform="translate(-11036.079 -3295.554)" fill="#030304"/>
    <path id="Trazado_617345" data-name="Trazado 617345" d="M1790.378,909.345c-.1-.057-.195-.119-.157-.26C1790.363,909.117,1790.379,909.226,1790.378,909.345Z" transform="translate(-11115.988 -3310.883)" fill="#608fce"/>
    <path id="Trazado_617346" data-name="Trazado 617346" d="M1789.639,991.552c-.075-.163.043-.211.156-.263C1789.811,991.417,1789.794,991.526,1789.639,991.552Z" transform="translate(-11115.547 -3371.659)" fill="#608fce"/>
    <path id="Trazado_617347" data-name="Trazado 617347" d="M1790.96,910.212l-.137-.179Z" transform="translate(-11116.44 -3311.584)" fill="#608fce"/>
    <path id="Trazado_617348" data-name="Trazado 617348" d="M1790.246,990.98l.054-.112C1790.383,990.954,1790.338,990.979,1790.246,990.98Z" transform="translate(-11116.014 -3371.348)" fill="#608fce"/>
    <path id="Trazado_617349" data-name="Trazado 617349" d="M1754.925,897.124a13.6,13.6,0,0,1,8.874,6.05,14.2,14.2,0,0,1-8.291,21.567,5.736,5.736,0,0,1-.573.091c.048-.384.423-.4.658-.53a15.586,15.586,0,0,0,6.073-6.079,1.08,1.08,0,0,0,.163-.615c.871-.271,1.041-.572.841-1.489.14-.956.52-1.855.644-2.82.058-.453.043-.9.068-1.346a1,1,0,0,0,0-1.989,10.921,10.921,0,0,0-.544-3.367c-.059-.2-.055-.5-.388-.527.577-.868.357-1.481-.629-1.75a8.552,8.552,0,0,0-1.743-2.908,15.028,15.028,0,0,0-4.927-4A.355.355,0,0,1,1754.925,897.124Z" transform="translate(-11089.899 -3302.04)" fill="#e1dee2"/>
    <path id="Trazado_617350" data-name="Trazado 617350" d="M1733.54,918.32c0-.78-.011-1.56,0-2.34a.931.931,0,0,1,.926-1.031.946.946,0,0,1,1.015,1.021c.02,1.56.018,3.12,0,4.68a.7.7,0,0,0,.444.73,2.972,2.972,0,0,1,1.686,2.722,1.489,1.489,0,0,0,.236.786q.992,1.636,1.967,3.283a1.693,1.693,0,0,1-.626,2.6c-.367.229-.739.45-1.113.666a1.7,1.7,0,0,1-2.549-.632c-.452-.737-.884-1.487-1.335-2.225a6.41,6.41,0,0,0-1.678-1.987,3.077,3.077,0,0,1,.541-5.227.757.757,0,0,0,.491-.832C1733.518,919.794,1733.539,919.056,1733.54,918.32Zm.958,7.051a1.209,1.209,0,1,0-1.218-1.167A1.2,1.2,0,0,0,1734.5,925.371Zm2,1.239c-.271,0-.841.607-.733.789.4.687.817,1.369,1.226,2.054.265.443.476.03.673-.068s.554-.13.3-.529c-.429-.672-.826-1.364-1.239-2.046C1736.675,926.723,1736.638,926.607,1736.5,926.61Z" transform="translate(-11072.431 -3315.217)" fill="#030304"/>
    <path id="Trazado_617351" data-name="Trazado 617351" d="M1779.378,968.615c.2.917.029,1.218-.841,1.489a1,1,0,0,1-.731-1.686C1778.25,967.972,1778.789,968.037,1779.378,968.615Z" transform="translate(-11106.607 -3354.534)" fill="#070707"/>
    <path id="Trazado_617352" data-name="Trazado 617352" d="M1763.564,909.769a.976.976,0,0,1-.97.993.975.975,0,0,1-.026-1.949A.949.949,0,0,1,1763.564,909.769Z" transform="translate(-11094.848 -3310.682)" fill="#070707"/>
    <path id="Trazado_617353" data-name="Trazado 617353" d="M1763.563,985.118a.95.95,0,0,1-1.012.94.975.975,0,0,1,.059-1.95A.974.974,0,0,1,1763.563,985.118Z" transform="translate(-11094.847 -3366.351)" fill="#070707"/>
    <path id="Trazado_617354" data-name="Trazado 617354" d="M1703.921,969.067a.989.989,0,0,1-.972,1,.952.952,0,0,1-.982-.905.978.978,0,0,1,.925-1.038A1,1,0,0,1,1703.921,969.067Z" transform="translate(-11050.744 -3354.531)" fill="#070707"/>
    <path id="Trazado_617355" data-name="Trazado 617355" d="M1718.88,986.058a.946.946,0,0,1-.987-.965.968.968,0,0,1,.974-.987.976.976,0,0,1,.012,1.952Z" transform="translate(-11062.521 -3366.349)" fill="#070707"/>
    <path id="Trazado_617356" data-name="Trazado 617356" d="M1697.136,948.414a.975.975,0,1,1-.034-1.948.974.974,0,0,1,.034,1.948Z" transform="translate(-11046.42 -3338.52)" fill="#070707"/>
    <path id="Trazado_617357" data-name="Trazado 617357" d="M1703.921,925.823a1,1,0,0,1-1.021.952.974.974,0,0,1-.933-1.03.939.939,0,0,1,.973-.909A.981.981,0,0,1,1703.921,925.823Z" transform="translate(-11050.745 -3322.528)" fill="#070707"/>
    <path id="Trazado_617358" data-name="Trazado 617358" d="M1740.868,991.927a.945.945,0,0,1-.96-.991.979.979,0,0,1,.938-.964,1.015,1.015,0,0,1,1.008.975A.98.98,0,0,1,1740.868,991.927Z" transform="translate(-11078.797 -3370.686)" fill="#070707"/>
    <path id="Trazado_617359" data-name="Trazado 617359" d="M1718.886,910.762a.976.976,0,0,1-1-.969.944.944,0,0,1,.9-.983.977.977,0,1,1,.093,1.952Z" transform="translate(-11062.519 -3310.678)" fill="#070707"/>
    <path id="Trazado_617360" data-name="Trazado 617360" d="M1740.563,904.893a1.018,1.018,0,0,1-.966-1.016.97.97,0,0,1,1.024-.938.93.93,0,0,1,.917.963A.979.979,0,0,1,1740.563,904.893Z" transform="translate(-11078.566 -3306.339)" fill="#070707"/>
    <path id="Trazado_617361" data-name="Trazado 617361" d="M1784.382,946.388a1,1,0,0,1,0,1.989c-.728-.13-1.053-.437-1.054-.994S1783.654,946.519,1784.382,946.388Z" transform="translate(-11110.898 -3338.462)" fill="#070707"/>
    <path id="Trazado_617362" data-name="Trazado 617362" d="M1778.5,924.738c.985.269,1.206.882.629,1.75a1.023,1.023,0,0,1-1.351-.086.9.9,0,0,1-.17-1.122A1.05,1.05,0,0,1,1778.5,924.738Z" transform="translate(-11106.58 -3322.456)" fill="#070707"/>
    <path id="Trazado_617363" data-name="Trazado 617363" d="M1740.12,948.079a1.209,1.209,0,1,1,1.169-1.216A1.2,1.2,0,0,1,1740.12,948.079Z" transform="translate(-11078.053 -3337.925)" fill="#ea8c3f"/>
    <path id="Trazado_617364" data-name="Trazado 617364" d="M1749.146,959.69c.137,0,.173.112.226.2.413.682.81,1.374,1.239,2.046.255.4-.117.439-.3.529s-.408.511-.673.068c-.409-.685-.822-1.367-1.226-2.054C1748.306,960.3,1748.876,959.691,1749.146,959.69Z" transform="translate(-11085.075 -3348.297)" fill="#f9e179"/>
    <path id="Trazado_628471" data-name="Trazado 628471" d="M13.211,12.547V17h-1.5V5.625h4.2a4.215,4.215,0,0,1,2.926.953A3.231,3.231,0,0,1,19.891,9.1a3.189,3.189,0,0,1-1.035,2.551,4.4,4.4,0,0,1-2.965.895Zm0-1.227h2.7a2.7,2.7,0,0,0,1.844-.566,2.069,2.069,0,0,0,.641-1.637,2.138,2.138,0,0,0-.641-1.625,2.528,2.528,0,0,0-1.758-.633H13.211ZM23.148,17H21.7V5h1.445Zm7.531,0a3.036,3.036,0,0,1-.2-.891,3.225,3.225,0,0,1-2.406,1.047,2.984,2.984,0,0,1-2.051-.707,2.287,2.287,0,0,1-.8-1.793,2.39,2.39,0,0,1,1-2.051,4.733,4.733,0,0,1,2.824-.73h1.406v-.664A1.623,1.623,0,0,0,30,10a1.821,1.821,0,0,0-1.336-.449,2.107,2.107,0,0,0-1.3.391,1.151,1.151,0,0,0-.523.945H25.391a2,2,0,0,1,.449-1.223,3.066,3.066,0,0,1,1.219-.934,4.1,4.1,0,0,1,1.691-.344,3.342,3.342,0,0,1,2.289.73,2.635,2.635,0,0,1,.859,2.012v3.891a4.757,4.757,0,0,0,.3,1.852V17Zm-2.4-1.1a2.54,2.54,0,0,0,1.289-.352,2.127,2.127,0,0,0,.883-.914V12.9H29.32q-2.656,0-2.656,1.555a1.316,1.316,0,0,0,.453,1.063A1.742,1.742,0,0,0,28.281,15.9Zm7.25-7.352.047,1.063a3.08,3.08,0,0,1,2.531-1.219q2.68,0,2.7,3.023V17H39.367V11.406a1.946,1.946,0,0,0-.418-1.352,1.675,1.675,0,0,0-1.277-.437,2.086,2.086,0,0,0-1.234.375,2.546,2.546,0,0,0-.828.984V17H34.164V8.547ZM46.6,12.7a4.952,4.952,0,0,1,.922-3.129,3.137,3.137,0,0,1,4.766-.168V5h1.445V17H52.406l-.07-.906a2.943,2.943,0,0,1-2.414,1.063,2.887,2.887,0,0,1-2.395-1.2,5.008,5.008,0,0,1-.926-3.141Zm1.445.164a3.749,3.749,0,0,0,.594,2.25,1.92,1.92,0,0,0,1.641.813A2.108,2.108,0,0,0,52.289,14.7V10.813a2.125,2.125,0,0,0-1.992-1.2,1.929,1.929,0,0,0-1.656.82A4.128,4.128,0,0,0,48.047,12.867Zm11.438,4.289a3.693,3.693,0,0,1-2.8-1.129,4.19,4.19,0,0,1-1.078-3.02v-.266a5.073,5.073,0,0,1,.48-2.246,3.748,3.748,0,0,1,1.344-1.547A3.378,3.378,0,0,1,59.3,8.391a3.166,3.166,0,0,1,2.563,1.086,4.7,4.7,0,0,1,.914,3.109v.6H57.055a3,3,0,0,0,.73,2.02,2.3,2.3,0,0,0,1.777.77,2.517,2.517,0,0,0,1.3-.312,3.259,3.259,0,0,0,.93-.828l.883.688A3.55,3.55,0,0,1,59.484,17.156ZM59.3,9.578a1.928,1.928,0,0,0-1.469.637A3.1,3.1,0,0,0,57.1,12h4.234v-.109a2.753,2.753,0,0,0-.594-1.707A1.815,1.815,0,0,0,59.3,9.578ZM73.633,17a3.036,3.036,0,0,1-.2-.891,3.225,3.225,0,0,1-2.406,1.047,2.984,2.984,0,0,1-2.051-.707,2.288,2.288,0,0,1-.8-1.793,2.39,2.39,0,0,1,1-2.051A4.733,4.733,0,0,1,72,11.875h1.406v-.664A1.623,1.623,0,0,0,72.953,10a1.821,1.821,0,0,0-1.336-.449,2.108,2.108,0,0,0-1.3.391,1.151,1.151,0,0,0-.523.945H68.344a2,2,0,0,1,.449-1.223,3.066,3.066,0,0,1,1.219-.934A4.1,4.1,0,0,1,71.7,8.391a3.342,3.342,0,0,1,2.289.73,2.635,2.635,0,0,1,.859,2.012v3.891a4.757,4.757,0,0,0,.3,1.852V17Zm-2.4-1.1a2.54,2.54,0,0,0,1.289-.352,2.127,2.127,0,0,0,.883-.914V12.9H72.273q-2.656,0-2.656,1.555a1.316,1.316,0,0,0,.453,1.063A1.742,1.742,0,0,0,71.234,15.9Zm9.273.078a2.082,2.082,0,0,0,1.352-.469,1.649,1.649,0,0,0,.641-1.172h1.367a2.621,2.621,0,0,1-.5,1.383,3.293,3.293,0,0,1-1.23,1.047,3.55,3.55,0,0,1-1.629.391A3.482,3.482,0,0,1,77.762,16a4.59,4.59,0,0,1-1.02-3.152v-.242a5.089,5.089,0,0,1,.453-2.2,3.451,3.451,0,0,1,1.3-1.492,3.7,3.7,0,0,1,2-.531,3.39,3.39,0,0,1,2.363.852,3.043,3.043,0,0,1,1,2.211H82.5a1.992,1.992,0,0,0-.621-1.348A1.932,1.932,0,0,0,80.5,9.578a2.023,2.023,0,0,0-1.707.793,3.724,3.724,0,0,0-.605,2.293v.273a3.65,3.65,0,0,0,.6,2.25A2.033,2.033,0,0,0,80.508,15.977Zm8.375,0a2.082,2.082,0,0,0,1.352-.469,1.649,1.649,0,0,0,.641-1.172h1.367a2.621,2.621,0,0,1-.5,1.383,3.293,3.293,0,0,1-1.23,1.047,3.55,3.55,0,0,1-1.629.391A3.482,3.482,0,0,1,86.137,16a4.59,4.59,0,0,1-1.02-3.152v-.242a5.089,5.089,0,0,1,.453-2.2,3.451,3.451,0,0,1,1.3-1.492,3.7,3.7,0,0,1,2-.531,3.39,3.39,0,0,1,2.363.852,3.043,3.043,0,0,1,1,2.211H90.875a1.992,1.992,0,0,0-.621-1.348,1.932,1.932,0,0,0-1.379-.527,2.023,2.023,0,0,0-1.707.793,3.724,3.724,0,0,0-.605,2.293v.273a3.65,3.65,0,0,0,.6,2.25A2.033,2.033,0,0,0,88.883,15.977ZM95.438,17H93.992V8.547h1.445ZM93.875,6.3a.863.863,0,0,1,.215-.594.807.807,0,0,1,.637-.242.819.819,0,0,1,.641.242.854.854,0,0,1,.219.594.826.826,0,0,1-.219.586.834.834,0,0,1-.641.234.821.821,0,0,1-.637-.234A.834.834,0,0,1,93.875,6.3ZM97.367,12.7a4.993,4.993,0,0,1,.488-2.234A3.643,3.643,0,0,1,99.215,8.93a3.7,3.7,0,0,1,1.988-.539A3.565,3.565,0,0,1,104,9.586a4.6,4.6,0,0,1,1.066,3.18v.1a5.036,5.036,0,0,1-.473,2.215,3.589,3.589,0,0,1-1.352,1.527,3.743,3.743,0,0,1-2.02.547,3.556,3.556,0,0,1-2.785-1.2A4.575,4.575,0,0,1,97.367,12.8Zm1.453.172a3.616,3.616,0,0,0,.652,2.258,2.211,2.211,0,0,0,3.5-.012,3.955,3.955,0,0,0,.648-2.418,3.61,3.61,0,0,0-.66-2.254,2.1,2.1,0,0,0-1.754-.863,2.075,2.075,0,0,0-1.727.852A3.925,3.925,0,0,0,98.82,12.867ZM101.859,5h1.75l-2.094,2.3h-1.164Zm6.383,3.547.047,1.063a3.08,3.08,0,0,1,2.531-1.219q2.68,0,2.7,3.023V17h-1.445V11.406a1.946,1.946,0,0,0-.418-1.352,1.675,1.675,0,0,0-1.277-.437,2.086,2.086,0,0,0-1.234.375,2.546,2.546,0,0,0-.828.984V17h-1.445V8.547Z" transform="translate(-9418 -2360.317)" fill="#12263f"/>
  </g>
</svg>
