<svg id="Grupo_949496" data-name="Grupo 949496" xmlns="http://www.w3.org/2000/svg" xmlns:xlink="http://www.w3.org/1999/xlink" width="357.71" height="231.135" viewBox="0 0 357.71 231.135">
  <defs>
    <clipPath id="clip-path">
      <rect id="Rectángulo_298216" data-name="Rectángulo 298216" width="309.832" height="184.073" fill="none"/>
    </clipPath>
    <clipPath id="clip-path-8">
      <rect id="Rectángulo_298206" data-name="Rectángulo 298206" width="25.569" height="5.301" fill="none"/>
    </clipPath>
    <clipPath id="clip-path-9">
      <rect id="Rectángulo_298207" data-name="Rectángulo 298207" width="24.328" height="2.555" fill="none"/>
    </clipPath>
    <clipPath id="clip-path-11">
      <rect id="Rectángulo_298209" data-name="Rectángulo 298209" width="29.347" height="14.079" fill="#fff"/>
    </clipPath>
    <clipPath id="clip-path-12">
      <rect id="Rectángulo_298210" data-name="Rectángulo 298210" width="5.941" height="5.941" fill="#fff"/>
    </clipPath>
    <clipPath id="clip-path-14">
      <rect id="Rectángulo_298212" data-name="Rectángulo 298212" width="12.696" height="5.515" fill="none"/>
    </clipPath>
    <clipPath id="clip-path-15">
      <rect id="Rectángulo_298213" data-name="Rectángulo 298213" width="14.843" height="8.572" fill="none"/>
    </clipPath>
    <clipPath id="clip-path-16">
      <rect id="Rectángulo_298214" data-name="Rectángulo 298214" width="14.416" height="18" fill="none"/>
    </clipPath>
  </defs>
  <rect id="Rectángulo_298217" data-name="Rectángulo 298217" width="357.71" height="231.136" transform="translate(0)" fill="none"/>
  <g id="Grupo_878619" data-name="Grupo 878619" transform="translate(23.939 23.531)">
    <g id="Grupo_878579" data-name="Grupo 878579" clip-path="url(#clip-path)">
      <g id="Grupo_878543" data-name="Grupo 878543">
        <g id="Grupo_878542" data-name="Grupo 878542" clip-path="url(#clip-path)">
          <path id="Trazado_601710" data-name="Trazado 601710" d="M2.337,318.282s-2.349.951.361,5.939a65.657,65.657,0,0,0,4.561,7.443s.488,1.162-.495,1.369-3.167-.082-3.576,1.138c-.424,1.265.517,2.424,2.39,3.413s5.9,3.308,6.26,3.519.723.744.076.993-5.526.886-5.085,3.183,6.112,4.2,6.728,4.415.769.474.727.81-1.7.4-3.081.634-2.939.756-2.573,2.06,3.765,3.975,11.865,4.558l3.771.024,1.968-3.236c3.79-7.183,3.32-11.481,2.407-12.481s-2.177.049-3.109,1.094-1.861,2.423-2.167,2.28-.443-.407-.3-1.046,1.527-6.456-.189-8.045-4.837,2.215-5.39,2.632-.816-.177-.8-.589c.009-.305.1-2.842.22-5.4.021-.436.063-1.2.1-1.778.151-2.113-.335-3.525-1.633-3.834-1.252-.3-2.16,1.709-2.856,2.433s-1.424-.3-1.424-.3a65.708,65.708,0,0,0-3.9-7.807c-2.8-4.937-4.894-3.4-4.894-3.4" transform="translate(-0.764 -174.707)" fill="#f7e9e1"/>
          <path id="Trazado_601711" data-name="Trazado 601711" d="M28.583,364.36c-2.042-3.634-5.563-10.154-8.615-15.736s-5.817-10.63-7.841-14.274l-2.4-4.313-.652-1.173-.167-.307c-.037-.069-.053-.106-.053-.106s.023.033.064.1l.177.3.671,1.163c.582,1.01,1.413,2.478,2.433,4.3,2.042,3.634,4.821,8.678,7.871,14.258s6.561,12.108,8.584,15.753" transform="translate(-4.864 -180.404)" fill="#ef8b53"/>
          <path id="Trazado_601712" data-name="Trazado 601712" d="M12.117,354.954a1.2,1.2,0,0,1,.265.066c.169.05.41.128.707.228.594.2,1.407.5,2.3.843l2.278.891.691.266a1.235,1.235,0,0,1,.251.108,1.23,1.23,0,0,1-.265-.064c-.168-.05-.41-.128-.706-.231-.592-.207-1.4-.515-2.292-.86l-2.283-.874-.694-.262a1.221,1.221,0,0,1-.25-.109" transform="translate(-6.655 -194.961)" fill="#ef8b53"/>
          <path id="Trazado_601713" data-name="Trazado 601713" d="M27.07,350.51c-.031-.01.51-1.713,1.207-3.8s1.287-3.777,1.318-3.767-.51,1.713-1.207,3.8S27.1,350.52,27.07,350.51" transform="translate(-14.868 -188.362)" fill="#ef8b53"/>
          <path id="Trazado_601714" data-name="Trazado 601714" d="M36.609,371.95a1.3,1.3,0,0,1,.147-.237l.431-.622c.362-.526.86-1.254,1.38-2.078s.969-1.584,1.287-2.138l.378-.655a1.273,1.273,0,0,1,.151-.234,1.261,1.261,0,0,1-.11.256c-.078.161-.2.392-.346.674-.3.565-.737,1.335-1.26,2.16s-1.032,1.549-1.412,2.063c-.192.257-.348.462-.462.6a1.258,1.258,0,0,1-.183.21" transform="translate(-20.108 -201.02)" fill="#ef8b53"/>
          <path id="Trazado_601715" data-name="Trazado 601715" d="M22.131,377.865a1.08,1.08,0,0,1,.257,0l.7.037c.59.037,1.4.1,2.3.167s1.711.143,2.3.2l.7.074a1.107,1.107,0,0,1,.254.043,1.08,1.08,0,0,1-.258,0l-.7-.037c-.59-.037-1.4-.1-2.3-.167s-1.711-.143-2.3-.2l-.7-.074a1.087,1.087,0,0,1-.254-.043" transform="translate(-12.156 -207.542)" fill="#ef8b53"/>
          <path id="Trazado_601716" data-name="Trazado 601716" d="M28.367,396.136a1.751,1.751,0,0,1,.329,0l.9.044c.757.043,1.8.11,2.952.191s2.2.161,2.951.225l.892.082a1.8,1.8,0,0,1,.326.046,1.744,1.744,0,0,1-.329,0l-.9-.044c-.756-.043-1.8-.109-2.953-.191s-2.2-.161-2.949-.224l-.893-.082a1.767,1.767,0,0,1-.326-.046" transform="translate(-15.581 -217.577)" fill="#ef8b53"/>
          <path id="Trazado_601717" data-name="Trazado 601717" d="M46.45,387.913a1.934,1.934,0,0,1,.178-.3l.517-.809c.436-.683,1.035-1.629,1.666-2.692s1.182-2.039,1.573-2.749l.464-.841a1.94,1.94,0,0,1,.183-.3,2.072,2.072,0,0,1-.142.323c-.1.2-.245.5-.432.859-.374.72-.911,1.705-1.545,2.769s-1.244,2.005-1.7,2.678c-.228.336-.416.605-.549.789a2.129,2.129,0,0,1-.216.279" transform="translate(-25.513 -208.836)" fill="#e0e0e0"/>
          <path id="Trazado_601718" data-name="Trazado 601718" d="M73.7,41.718H42.531a2.663,2.663,0,0,1-2.663-2.663v-27.9a2.663,2.663,0,0,1,2.663-2.663H73.7a2.663,2.663,0,0,1,2.663,2.663v27.9A2.663,2.663,0,0,1,73.7,41.718" transform="translate(-21.898 -4.664)" fill="#fff"/>
          <path id="Trazado_601719" data-name="Trazado 601719" d="M76.366,14.146h-36.5V11.227A2.736,2.736,0,0,1,42.6,8.491H73.845a2.52,2.52,0,0,1,2.52,2.52Z" transform="translate(-21.898 -4.664)" fill="#ebebeb"/>
          <path id="Trazado_601720" data-name="Trazado 601720" d="M49.347,14.963a.9.9,0,1,1-.895-.842.87.87,0,0,1,.895.842" transform="translate(-26.122 -7.756)" fill="#fff"/>
          <path id="Trazado_601721" data-name="Trazado 601721" d="M54.756,14.963a.9.9,0,1,1-.895-.842.87.87,0,0,1,.895.842" transform="translate(-29.093 -7.756)" fill="#fff"/>
          <path id="Trazado_601722" data-name="Trazado 601722" d="M60.166,14.963a.9.9,0,1,1-.895-.842.87.87,0,0,1,.895.842" transform="translate(-32.064 -7.756)" fill="#fff"/>
          <path id="Trazado_601723" data-name="Trazado 601723" d="M73.559,41.575c0-.007.119-.006.345-.037a2.569,2.569,0,0,0,.953-.33A2.634,2.634,0,0,0,76.178,39c.007-.375,0-.78,0-1.206-.009-3.42-.022-8.355-.037-14.453,0-3.051-.009-6.393-.014-9.98q0-.673,0-1.357c-.011-.451.024-.929-.032-1.363A2.564,2.564,0,0,0,73.8,8.464c-.227-.017-.473-.011-.714-.012H71.624l-2.987,0-26.246.009a2.556,2.556,0,0,0-2.456,1.871,2.748,2.748,0,0,0-.093.821v.858q0,.857,0,1.707,0,3.4,0,6.7c0,4.39,0,8.625-.007,12.66q0,3.024,0,5.893a2.57,2.57,0,0,0,1.359,2.205,2.634,2.634,0,0,0,1.282.3h1.357l9.98.014,14.452.037,3.929.022,1.022.011c.23,0,.348.012.348.012s-.118.008-.348.012L72.19,41.6l-3.929.022-14.452.037-9.98.014H42.472a2.828,2.828,0,0,1-1.376-.32,2.773,2.773,0,0,1-1.471-2.377q0-2.868-.008-5.9c0-4.035,0-8.27-.007-12.66q0-3.293,0-6.7,0-.851,0-1.707v-.858a3,3,0,0,1,.1-.883,2.791,2.791,0,0,1,2.682-2.044l26.246.009,2.987,0h1.464c.243,0,.48,0,.734.014a2.77,2.77,0,0,1,2.469,2.356A13.688,13.688,0,0,1,76.321,12q0,.684,0,1.357c0,3.587-.01,6.929-.014,9.98-.016,6.1-.028,11.033-.037,14.453,0,.427,0,.828-.01,1.209a2.684,2.684,0,0,1-1.377,2.247,2.512,2.512,0,0,1-.973.312,2.133,2.133,0,0,1-.348.013" transform="translate(-21.755 -4.521)" fill="#ebebeb"/>
          <path id="Trazado_601724" data-name="Trazado 601724" d="M74.852,48.8H47.783a2.008,2.008,0,0,1-2.009-2.009V28.7a2.008,2.008,0,0,1,2.009-2.009H74.852A2.008,2.008,0,0,1,76.86,28.7v18.1A2.008,2.008,0,0,1,74.852,48.8" transform="translate(-25.142 -14.659)" fill="#f5f5f5"/>
          <path id="Trazado_601725" data-name="Trazado 601725" d="M51.373,59.073l7.588-10.8a.859.859,0,0,1,1.372-.046l5.214,6.466a.86.86,0,0,0,1.264.08l3.054-2.933a.859.859,0,0,1,1.253.066l5.987,7.106a.859.859,0,0,1-.657,1.413H52.076a.859.859,0,0,1-.7-1.353" transform="translate(-28.13 -26.314)" fill="#ebebeb"/>
          <path id="Trazado_601726" data-name="Trazado 601726" d="M83.564,38.916a2.643,2.643,0,1,1-2.192-2.192,2.644,2.644,0,0,1,2.192,2.192" transform="translate(-43.014 -20.153)" fill="#ebebeb"/>
          <path id="Trazado_601727" data-name="Trazado 601727" d="M653.611,217.583H633.592a2.663,2.663,0,0,1-2.663-2.663V197.173a2.663,2.663,0,0,1,2.663-2.663h20.019a2.663,2.663,0,0,1,2.663,2.663v17.747a2.663,2.663,0,0,1-2.663,2.663" transform="translate(-346.542 -106.836)" fill="#fff"/>
          <path id="Trazado_601728" data-name="Trazado 601728" d="M656.274,198.437H630.929v-1.19a2.736,2.736,0,0,1,2.736-2.736h20.089a2.52,2.52,0,0,1,2.52,2.52Z" transform="translate(-346.542 -106.837)" fill="#e0e0e0"/>
          <path id="Trazado_601729" data-name="Trazado 601729" d="M637.511,199a.622.622,0,1,1-.621-.585.6.6,0,0,1,.621.585" transform="translate(-349.475 -108.984)" fill="#fff"/>
          <path id="Trazado_601730" data-name="Trazado 601730" d="M641.268,199a.622.622,0,1,1-.621-.585.6.6,0,0,1,.621.585" transform="translate(-351.539 -108.984)" fill="#fff"/>
          <path id="Trazado_601731" data-name="Trazado 601731" d="M645.024,199a.622.622,0,1,1-.621-.585.6.6,0,0,1,.621.585" transform="translate(-353.601 -108.984)" fill="#fff"/>
          <path id="Trazado_601732" data-name="Trazado 601732" d="M653.468,217.44a3.206,3.206,0,0,0,.909-.188,2.636,2.636,0,0,0,1.651-1.932,4.323,4.323,0,0,0,.052-.91q0-.486,0-1.019,0-1.066-.01-2.31c-.005-1.66-.011-3.547-.017-5.633s-.009-4.374-.014-6.827c-.008-.609.012-1.249-.018-1.861a2.573,2.573,0,0,0-.824-1.619c-.949-.954-2.435-.6-3.786-.666l-17.954.009a2.541,2.541,0,0,0-2.474,1.945,4.625,4.625,0,0,0-.075,1.134q0,2.327,0,4.581c0,3,0,5.9-.007,8.66q0,2.068,0,4.031a2.532,2.532,0,0,0,.68,1.684,2.56,2.56,0,0,0,1.57.805c2.43.044,4.734.02,6.815.034l9.886.037,2.688.022.7.011c.157,0,.238.012.238.012s-.081.008-.238.012l-.7.011-2.688.022-9.886.037c-2.091,0-4.362.032-6.838-.007a2.764,2.764,0,0,1-2.434-2.677q0-1.963-.008-4.035c0-2.76,0-5.657-.007-8.66q0-2.253,0-4.581a4.828,4.828,0,0,1,.081-1.189,2.776,2.776,0,0,1,2.7-2.125l17.954.009,2.043,0a2.774,2.774,0,0,1,2.767,2.478c.03.654.007,1.264.013,1.882-.005,2.453-.01,4.739-.015,6.827s-.012,3.973-.017,5.633q-.005,1.243-.01,2.31,0,.532,0,1.019a4.4,4.4,0,0,1-.064.929,2.677,2.677,0,0,1-1.724,1.958,2.5,2.5,0,0,1-.687.143c-.158,0-.239,0-.239,0" transform="translate(-346.4 -106.693)" fill="#e0e0e0"/>
          <path id="Trazado_601733" data-name="Trazado 601733" d="M654.609,222.5h-17.57a2.008,2.008,0,0,1-2.008-2.009V209.156a2.008,2.008,0,0,1,2.008-2.009h17.57a2.008,2.008,0,0,1,2.008,2.009v11.338a2.008,2.008,0,0,1-2.008,2.009" transform="translate(-348.795 -113.777)" fill="#f5f5f5"/>
          <path id="Trazado_601734" data-name="Trazado 601734" d="M638.919,229.635l5.269-7.5a.6.6,0,0,1,.953-.032l3.621,4.49a.6.6,0,0,0,.878.056l2.121-2.037a.6.6,0,0,1,.869.046l4.158,4.935a.6.6,0,0,1-.456.981H639.407a.6.6,0,0,1-.488-.94" transform="translate(-350.871 -121.87)" fill="#ebebeb"/>
          <path id="Trazado_601735" data-name="Trazado 601735" d="M661.273,215.638a1.835,1.835,0,1,1-1.522-1.522,1.836,1.836,0,0,1,1.522,1.522" transform="translate(-361.206 -117.593)" fill="#ebebeb"/>
          <path id="Trazado_601736" data-name="Trazado 601736" d="M30.365,238.759H2.923A2.663,2.663,0,0,1,.26,236.1V205.748a2.663,2.663,0,0,1,2.663-2.663H30.365a2.663,2.663,0,0,1,2.663,2.663V236.1a2.663,2.663,0,0,1-2.663,2.663" transform="translate(-0.143 -111.546)" fill="#fff"/>
          <path id="Trazado_601737" data-name="Trazado 601737" d="M33.028,209.155H.26V205.82A2.736,2.736,0,0,1,3,203.084H30.508a2.52,2.52,0,0,1,2.52,2.52Z" transform="translate(-0.143 -111.545)" fill="#e0e0e0"/>
          <path id="Trazado_601738" data-name="Trazado 601738" d="M10.436,210.033a.962.962,0,1,1-.961-.9.934.934,0,0,1,.961.9" transform="translate(-4.677 -114.866)" fill="#fff"/>
          <path id="Trazado_601739" data-name="Trazado 601739" d="M16.244,210.033a.962.962,0,1,1-.961-.9.934.934,0,0,1,.961.9" transform="translate(-7.867 -114.866)" fill="#fff"/>
          <path id="Trazado_601740" data-name="Trazado 601740" d="M22.052,210.033a.962.962,0,1,1-.961-.9.934.934,0,0,1,.961.9" transform="translate(-11.057 -114.866)" fill="#fff"/>
          <path id="Trazado_601741" data-name="Trazado 601741" d="M30.222,238.616c0-.007.116-.007.339-.036a2.646,2.646,0,0,0,2.021-1.477,2.606,2.606,0,0,0,.254-.985c.015-.366,0-.765,0-1.182-.009-3.355-.022-8.2-.037-14.178,0-2.993-.009-6.272-.014-9.791q0-2.638-.01-5.45a2.556,2.556,0,0,0-1.409-2.2,2.728,2.728,0,0,0-1.363-.273H28.531l-25.747.009a2.564,2.564,0,0,0-2.44,1.81,6.057,6.057,0,0,0-.109,1.641v1.675q0,3.336,0,6.57c0,4.307,0,8.461-.007,12.419q0,2.968,0,5.784,0,1.406,0,2.77A2.617,2.617,0,0,0,1.234,238a2.49,2.49,0,0,0,1.147.489,10.835,10.835,0,0,0,1.268.036l2.5,0,4.7.008,14.177.037,3.855.022,1,.011c.226,0,.342.012.342.012s-.116.008-.342.012l-1,.012-3.855.022-14.177.037-4.7.008-2.5,0a10.817,10.817,0,0,1-1.3-.035,2.678,2.678,0,0,1-1.235-.523,2.816,2.816,0,0,1-1.1-2.425q0-1.364,0-2.77,0-2.813,0-5.784c0-3.958,0-8.112-.007-12.419q0-3.23,0-6.57,0-.834,0-1.675v-.842a3.045,3.045,0,0,1,.119-.867,2.8,2.8,0,0,1,2.665-1.977l25.747.009h1.474a2.934,2.934,0,0,1,1.458.3,2.765,2.765,0,0,1,1.52,2.378q0,2.814,0,5.458c-.005,3.519-.01,6.8-.014,9.791-.016,5.981-.028,10.823-.037,14.178-.005.419,0,.811-.014,1.187a2.69,2.69,0,0,1-1.4,2.181,2.558,2.558,0,0,1-.957.3,2.238,2.238,0,0,1-.342.012" transform="translate(0 -111.403)" fill="#e0e0e0"/>
          <path id="Trazado_601742" data-name="Trazado 601742" d="M20.132,234.282,11.9,225.918a11.738,11.738,0,1,1-2.967,11.864Z" transform="translate(-4.904 -122.24)" fill="#f5f5f5"/>
          <path id="Trazado_601743" data-name="Trazado 601743" d="M17.132,238.94l-9.778,2.931a10.206,10.206,0,0,1,2.519-10.107Z" transform="translate(-3.803 -127.298)" fill="#f5f5f5"/>
          <path id="Trazado_601744" data-name="Trazado 601744" d="M408.03,26.174H388.276a3.21,3.21,0,0,1-3.21-3.21V3.21A3.21,3.21,0,0,1,388.276,0H408.03a3.21,3.21,0,0,1,3.21,3.21V22.964a3.21,3.21,0,0,1-3.21,3.21" transform="translate(-211.5 0)" fill="#f5f5f5"/>
          <path id="Trazado_601745" data-name="Trazado 601745" d="M394.05,21.779l2.636-2.636,5.085,4.52,8.492-8.524,2.448,2.636L401.4,28.747Z" transform="translate(-216.435 -8.315)" fill="#fff"/>
          <path id="Trazado_601746" data-name="Trazado 601746" d="M568.543,23.547l-.317-17.889.317,0a17.891,17.891,0,1,1-17.077,23.228Z" transform="translate(-302.897 -3.107)" fill="#ebebeb"/>
          <path id="Trazado_601747" data-name="Trazado 601747" d="M565.409,22.815l-15.327,4.863A15.558,15.558,0,0,1,564.651,6.659q.206,0,.411.005Z" transform="translate(-301.593 -3.658)" fill="#ebebeb"/>
        </g>
      </g>
      <g id="Grupo_878545" data-name="Grupo 878545">
        <g id="Grupo_878544" data-name="Grupo 878544" clip-path="url(#clip-path)">
          <path id="Trazado_601748" data-name="Trazado 601748" d="M309.651,407.975c0,.065-66.426.117-148.348.117-81.95,0-148.362-.052-148.362-.117s66.412-.117,148.362-.117c81.922,0,148.348.052,148.348.117" transform="translate(-7.108 -224.019)" fill="#263238"/>
        </g>
      </g>
      <g id="Grupo_878547" data-name="Grupo 878547">
        <g id="Grupo_878546" data-name="Grupo 878546" clip-path="url(#clip-path)">
          <path id="Trazado_601749" data-name="Trazado 601749" d="M195.2,67.54H154.31a2.663,2.663,0,0,1-2.663-2.663V28.131a2.663,2.663,0,0,1,2.663-2.663H195.2a2.663,2.663,0,0,1,2.663,2.663V64.877A2.663,2.663,0,0,1,195.2,67.54" transform="translate(-83.293 -13.988)" fill="#fff"/>
          <path id="Trazado_601750" data-name="Trazado 601750" d="M197.86,32.629H151.647V28.205a2.736,2.736,0,0,1,2.736-2.736H195.34a2.52,2.52,0,0,1,2.52,2.52Z" transform="translate(-83.293 -13.989)" fill="#e0e0e0"/>
          <path id="Trazado_601751" data-name="Trazado 601751" d="M163.648,33.663a1.135,1.135,0,1,1-1.133-1.066,1.1,1.1,0,0,1,1.133,1.066" transform="translate(-88.641 -17.904)" fill="#fff"/>
          <path id="Trazado_601752" data-name="Trazado 601752" d="M170.5,33.663a1.135,1.135,0,1,1-1.133-1.066,1.1,1.1,0,0,1,1.133,1.066" transform="translate(-92.403 -17.904)" fill="#fff"/>
          <path id="Trazado_601753" data-name="Trazado 601753" d="M177.347,33.663a1.135,1.135,0,1,1-1.133-1.066,1.1,1.1,0,0,1,1.133,1.066" transform="translate(-96.165 -17.904)" fill="#fff"/>
          <path id="Trazado_601754" data-name="Trazado 601754" d="M162.922,49.73V75.465c0-.238,37.147,0,37.147,0" transform="translate(-89.486 -27.315)" fill="#fff"/>
          <path id="Trazado_601755" data-name="Trazado 601755" d="M199.919,75.465a.834.834,0,0,1-.162.011l-.477.009-1.832.011h-6.739l-22.232-.015-3.214.02-1.572.024c-.259.007-.52.013-.77.031l-.087.009-.011,0h0c.267-.007-.209-.134-.166-.1v-.626c0-2.047,0-4.022.007-5.9.009-3.759.018-7.146.025-10s.028-5.133.037-6.738c.009-.785.017-1.4.022-1.832,0-.2.009-.357.012-.476a.821.821,0,0,1,.012-.162.837.837,0,0,1,.012.162c0,.119.007.277.012.476,0,.433.013,1.048.022,1.832.009,1.605.022,3.9.037,6.738s.016,6.236.025,10c0,1.881,0,3.856.007,5.9v.626c.039.043-.425-.1-.152-.11l.024-.008a.309.309,0,0,1,.036-.007l.105-.012c.265-.019.522-.024.783-.032l1.575-.026,3.217-.021c8.683-.019,16.543.038,22.233.084l6.739.073,1.832.033.476.014a.822.822,0,0,1,.162.013" transform="translate(-89.336 -27.315)" fill="#263238"/>
          <rect id="Rectángulo_298200" data-name="Rectángulo 298200" width="7.926" height="10.323" transform="translate(77.219 34.937)" fill="#455a64"/>
          <rect id="Rectángulo_298201" data-name="Rectángulo 298201" width="7.926" height="15.845" transform="translate(87.984 29.415)" fill="#455a64"/>
          <rect id="Rectángulo_298202" data-name="Rectángulo 298202" width="7.926" height="20.47" transform="translate(98.749 24.79)" fill="#455a64"/>
          <path id="Trazado_601756" data-name="Trazado 601756" d="M195.047,67.4c0-.012.152,0,.44-.051a2.654,2.654,0,0,0,2.168-2.3c.037-.828,0-1.8.009-2.887-.009-4.358-.022-10.653-.037-18.43,0-3.891-.009-8.153-.014-12.727q0-.858,0-1.73,0-.436,0-.876a4.6,4.6,0,0,0-.044-.862,2.566,2.566,0,0,0-2.42-2.1h-7.513l-33.47.009a2.544,2.544,0,0,0-1.885.834,2.624,2.624,0,0,0-.665,1.952q0,2.2,0,4.368,0,4.337,0,8.54c0,5.6,0,11-.007,16.145q0,3.857,0,7.515a2.559,2.559,0,0,0,2.063,2.452,4.334,4.334,0,0,0,.861.05h2.606l12.728.014,18.429.037,5.01.022,1.3.012c.293,0,.444.012.444.012s-.151.008-.444.012l-1.3.011-5.01.022-18.429.037-12.728.014h-2.606a4.524,4.524,0,0,1-.9-.052A2.762,2.762,0,0,1,151.4,64.8q0-3.657-.008-7.52c0-5.145,0-10.546-.007-16.145q0-4.2,0-8.54,0-2.169,0-4.368a2.865,2.865,0,0,1,.727-2.11,2.778,2.778,0,0,1,2.058-.91l33.47.009,7.521.01a2.769,2.769,0,0,1,2.609,2.269,4.75,4.75,0,0,1,.046.9q0,.44,0,.876,0,.873,0,1.73c-.005,4.575-.01,8.836-.014,12.727-.016,7.778-.028,14.073-.037,18.43-.013,1.089.014,2.051-.031,2.9a2.69,2.69,0,0,1-1.04,1.807,2.594,2.594,0,0,1-1.194.509,1.975,1.975,0,0,1-.331.028c-.075,0-.112,0-.112,0" transform="translate(-83.143 -13.846)" fill="#263238"/>
        </g>
      </g>
      <g id="Grupo_878549" data-name="Grupo 878549">
        <g id="Grupo_878548" data-name="Grupo 878548" clip-path="url(#clip-path)">
          <path id="Trazado_601757" data-name="Trazado 601757" d="M630.851,129.952l-.594-4.11a13.852,13.852,0,1,1,4.217,2.615l.006,0Z" transform="translate(-343.678 -55.895)" fill="#fff"/>
          <path id="Trazado_601758" data-name="Trazado 601758" d="M640.061,125.3l2.085-2.085,4.021,3.574,6.714-6.74,1.936,2.085-8.948,8.675Z" transform="translate(-351.558 -65.94)" fill="#449c6e"/>
          <path id="Trazado_601759" data-name="Trazado 601759" d="M630.742,129.808s.084-.041.242-.11l.7-.3,2.668-1.131-.012.1-.006,0a.055.055,0,0,1,.053-.1,13.7,13.7,0,0,0,8.692.427c.356-.094.7-.238,1.064-.357a7.6,7.6,0,0,0,1.071-.447A13.606,13.606,0,0,0,649.266,125a13.67,13.67,0,0,0,1.934-16.525,13.925,13.925,0,0,0-2-2.619,14.2,14.2,0,0,0-5.674-3.468,13.8,13.8,0,0,0-3.213-.589,13.555,13.555,0,0,0-6.172,1.024,13.759,13.759,0,0,0-3.94,22.846c.177,1.329.314,2.356.408,3.064.044.341.078.6.1.8s.031.279.031.279-.018-.081-.047-.254l-.125-.778c-.11-.71-.271-1.739-.478-3.071l.018.033a13.763,13.763,0,0,1-3.775-5.591,13.952,13.952,0,0,1,7.706-17.565,13.8,13.8,0,0,1,6.29-1.052,14.056,14.056,0,0,1,3.278.6,13.779,13.779,0,0,1,7.823,6.208,13.948,13.948,0,0,1-2,16.819,13.777,13.777,0,0,1-4.132,2.911,7.734,7.734,0,0,1-1.089.448c-.367.119-.72.262-1.081.356a14.086,14.086,0,0,1-2.113.406,13.863,13.863,0,0,1-6.669-.914l.053-.1.006,0a.055.055,0,0,1,.013.077.062.062,0,0,1-.024.019l-2.727,1.084-.694.271c-.155.059-.232.088-.229.084" transform="translate(-343.569 -55.751)" fill="#263238"/>
        </g>
      </g>
      <g id="Grupo_878551" data-name="Grupo 878551">
        <g id="Grupo_878550" data-name="Grupo 878550" clip-path="url(#clip-path)">
          <path id="Trazado_601760" data-name="Trazado 601760" d="M25.92,144.433l.1-4.108c3.567-4.1,4.8-10.428,1.183-17.24-12.622-13.367-31.633.243-23.045,16.5,5.765,6.125,12.835,6.609,18.027,3.8l-.005,0Z" transform="translate(-1.1 -64.63)" fill="#fff"/>
          <path id="Trazado_601761" data-name="Trazado 601761" d="M25.772,144.285s-.088-.031-.251-.079l-.721-.213-2.754-.8.023.092.005,0a.054.054,0,0,0,0-.077.055.055,0,0,0-.066-.011,13.545,13.545,0,0,1-8.489,1.442c-.36-.05-.718-.151-1.087-.226a7.494,7.494,0,0,1-1.1-.313,13.46,13.46,0,0,1-4.324-2.357,13.527,13.527,0,0,1-3.845-16.007,13.787,13.787,0,0,1,1.656-2.808,14.048,14.048,0,0,1,5.166-4.075,13.656,13.656,0,0,1,3.088-.956,13.416,13.416,0,0,1,6.185.279,13.615,13.615,0,0,1,6.56,21.982c-.018,1.327-.031,2.351-.041,3.058,0,.34,0,.6-.006.794s0,.278,0,.278.008-.082.016-.255.018-.445.032-.778c.025-.711.061-1.741.108-3.073l-.014.035a13.62,13.62,0,0,0,3.051-5.938,13.8,13.8,0,0,0-9.638-16.349,13.647,13.647,0,0,0-6.3-.293,13.915,13.915,0,0,0-3.149.973,13.635,13.635,0,0,0-6.955,7.02,13.8,13.8,0,0,0,3.947,16.288,13.625,13.625,0,0,0,4.4,2.375,7.664,7.664,0,0,0,1.122.311c.375.074.738.174,1.1.222a13.927,13.927,0,0,0,2.123.151,13.723,13.723,0,0,0,6.445-1.683L22,143.2l-.005,0a.054.054,0,0,0,0,.077.057.057,0,0,0,.026.016l2.807.744.714.185a2.292,2.292,0,0,0,.235.055" transform="translate(-0.952 -64.482)" fill="#263238"/>
          <path id="Trazado_601762" data-name="Trazado 601762" d="M41.952,145.234a1.727,1.727,0,0,0,2.44,2.44,1.727,1.727,0,0,0-2.44-2.44" transform="translate(-22.798 -79.526)" fill="#263238"/>
          <path id="Trazado_601763" data-name="Trazado 601763" d="M29.091,145.234a1.727,1.727,0,0,0,2.44,2.44,1.727,1.727,0,0,0-2.44-2.44" transform="translate(-15.734 -79.526)" fill="#263238"/>
          <path id="Trazado_601764" data-name="Trazado 601764" d="M16.231,145.234a1.727,1.727,0,0,0,2.44,2.441,1.727,1.727,0,0,0-2.44-2.441" transform="translate(-8.67 -79.526)" fill="#263238"/>
        </g>
      </g>
      <g id="Grupo_878559" data-name="Grupo 878559">
        <g id="Grupo_878558" data-name="Grupo 878558" clip-path="url(#clip-path)">
          <path id="Trazado_601765" data-name="Trazado 601765" d="M165.524,239.032l-8.819-2.378-1.755,7.981-4.4-12.037c-2.053-5.755-4.861-7.737-6.8-8.273l-.7.912,1.856,31.838,5.879,7.313a5.792,5.792,0,0,0,9.887-1.342c3.3-8.5,4.423-21.427,4.854-24.013" transform="translate(-78.571 -123.212)" fill="#f0bd51"/>
          <path id="Trazado_601766" data-name="Trazado 601766" d="M55.1,366.789H99.22L94.6,335.112,66.474,333.1s-4.85,4.754-6.457,10.337S55.1,366.789,55.1,366.789" transform="translate(-30.263 -182.957)" fill="#263238"/>
          <path id="Trazado_601767" data-name="Trazado 601767" d="M63.369,151.261c1.042-9.4,3.091-19.744,16.486-19.227,0,0,10.089.352,13.3,7.523,1.739,3.882,1.249,18.632,2.045,30.792l1.958,15.6-40.51-6.259s6.073-22.589,6.721-28.432" transform="translate(-31.114 -72.511)" fill="#263238"/>
          <path id="Trazado_601768" data-name="Trazado 601768" d="M97.636,139.375l-.862-.769-8.916,3.938a2.523,2.523,0,0,0-2.3,2.52l2.039,29.9c.054,2-.481,3.247.776,4.8l8.64,10.336c3.019,3.725,2.475-4.676,4.628-8.96.15-.3-.579-1.372-.537-1.583a5.971,5.971,0,0,0,.113-.663c.191-2.377.139-4.431.139-4.431.076-2.606.094-3.674.1-3.65,0,0,5.513-.818,6.776-7.97.628-3.557.328-8.413-.038-13.189-.507-6.61-5.23-10.458-10.551-10.277" transform="translate(-46.993 -76.13)" fill="#ffc09d"/>
          <path id="Trazado_601769" data-name="Trazado 601769" d="M110.262,174.164a.92.92,0,0,1-.9.913.88.88,0,0,1-.934-.846.92.92,0,0,1,.9-.913.88.88,0,0,1,.935.846" transform="translate(-59.553 -95.196)" fill="#263238"/>
          <path id="Trazado_601770" data-name="Trazado 601770" d="M129.926,173.965a.92.92,0,0,1-.9.913.88.88,0,0,1-.934-.846.921.921,0,0,1,.9-.913.88.88,0,0,1,.935.846" transform="translate(-70.354 -95.087)" fill="#263238"/>
          <path id="Trazado_601771" data-name="Trazado 601771" d="M129.374,166.163c-.116.118-.8-.41-1.794-.424s-1.724.468-1.829.345c-.052-.055.068-.269.388-.494a2.531,2.531,0,0,1,1.467-.425,2.425,2.425,0,0,1,1.425.488c.3.239.4.458.343.51" transform="translate(-69.064 -90.718)" fill="#263238"/>
          <path id="Trazado_601772" data-name="Trazado 601772" d="M107.171,166.883c-.128.105-.759-.49-1.741-.606s-1.763.288-1.855.156c-.046-.06.094-.261.437-.452a2.528,2.528,0,0,1,1.5-.272,2.428,2.428,0,0,1,1.368.631c.273.268.35.5.288.543" transform="translate(-56.885 -91.006)" fill="#263238"/>
          <path id="Trazado_601773" data-name="Trazado 601773" d="M119.355,173.986a6.561,6.561,0,0,1,1.612-.262c.253-.022.494-.068.539-.239a1.286,1.286,0,0,0-.156-.752l-.714-1.937a33.1,33.1,0,0,1-1.592-5.063,33.177,33.177,0,0,1,2,4.923q.357,1.02.682,1.949a1.463,1.463,0,0,1,.114.994.636.636,0,0,1-.422.362,1.73,1.73,0,0,1-.43.052,6.437,6.437,0,0,1-1.629-.026" transform="translate(-65.38 -91.029)" fill="#263238"/>
          <path id="Trazado_601774" data-name="Trazado 601774" d="M109.164,206.732A18.252,18.252,0,0,1,99.6,204s2.329,5.006,9.52,4.459Z" transform="translate(-54.708 -112.051)" fill="#ff9b6c"/>
          <path id="Trazado_601775" data-name="Trazado 601775" d="M107.85,158.512c-.129.256-1.1.011-2.265.012-1.17-.023-2.141.2-2.265-.055-.055-.123.137-.355.545-.568a3.941,3.941,0,0,1,3.451.032c.4.221.59.457.534.579" transform="translate(-56.745 -86.519)" fill="#263238"/>
          <path id="Trazado_601776" data-name="Trazado 601776" d="M129.075,156.685c-.178.222-.856-.023-1.675-.049-.819-.054-1.517.125-1.673-.113-.068-.115.045-.339.352-.546a2.428,2.428,0,0,1,2.7.13c.286.236.377.469.3.578" transform="translate(-69.046 -85.481)" fill="#263238"/>
          <path id="Trazado_601777" data-name="Trazado 601777" d="M84.716,157.032s5.113,1.409,7.567-11.176c.839-4.3,4.685-7.892,4.685-7.892l-1.622-.43s-9.888,3.139-10.052,3.271-2.348,5.245-2.348,5.245Z" transform="translate(-45.558 -75.541)" fill="#263238"/>
          <path id="Trazado_601778" data-name="Trazado 601778" d="M83.334,177.258c.008-.534-.588-1.8-1.114-1.9-1.4-.244-3.946-.174-4.031,3.4-.117,4.89,4.816,4,4.828,3.858.009-.109.289-3.52.316-5.365" transform="translate(-42.945 -96.273)" fill="#ffc09d"/>
          <path id="Trazado_601779" data-name="Trazado 601779" d="M83.081,182.642c-.021-.016-.087.058-.232.12a.852.852,0,0,1-.637,0,2.108,2.108,0,0,1-.93-1.914,2.81,2.81,0,0,1,.268-1.214.982.982,0,0,1,.656-.638.434.434,0,0,1,.5.245c.062.138.029.235.055.244s.107-.079.072-.282a.543.543,0,0,0-.185-.311.644.644,0,0,0-.468-.136,1.2,1.2,0,0,0-.908.737,2.891,2.891,0,0,0-.328,1.356,2.21,2.21,0,0,0,1.192,2.141.912.912,0,0,0,.782-.111c.155-.117.183-.225.166-.235" transform="translate(-44.457 -98.181)" fill="#ff9b6c"/>
          <path id="Trazado_601780" data-name="Trazado 601780" d="M94.315,155.639a7.12,7.12,0,0,0,.726-.172,4.409,4.409,0,0,0,1.705-1.066,6.031,6.031,0,0,0,.871-1.091,8.164,8.164,0,0,0,.691-1.451,30.545,30.545,0,0,0,.935-3.583c.3-1.285.633-2.5,1.006-3.581a20.422,20.422,0,0,1,1.181-2.8,14.629,14.629,0,0,1,1.062-1.751c.137-.2.259-.343.335-.444a1.129,1.129,0,0,1,.125-.148,1.083,1.083,0,0,1-.1.164c-.07.106-.184.255-.315.457a16.729,16.729,0,0,0-1.021,1.765,21.416,21.416,0,0,0-1.149,2.8c-.365,1.08-.693,2.29-.993,3.572a29.353,29.353,0,0,1-.949,3.6,8.156,8.156,0,0,1-.711,1.466,6.05,6.05,0,0,1-.9,1.1,4.331,4.331,0,0,1-1.753,1.048,2.714,2.714,0,0,1-.741.123" transform="translate(-51.803 -76.65)" fill="#263238"/>
          <path id="Trazado_601781" data-name="Trazado 601781" d="M77.555,174.647a1.377,1.377,0,0,1-.06-.234c-.036-.171-.085-.4-.146-.69-.124-.623-.3-1.51-.526-2.635l.117-.021c.03.176.064.372.1.574l-.006-.018.109.216-.121.049a47.072,47.072,0,0,1-1.823-7.805,47.711,47.711,0,0,1-.465-5.072,23.275,23.275,0,0,1,.3-5.587,8.773,8.773,0,0,1,.815-2.245,12.1,12.1,0,0,1,1.288-1.924c.955-1.179,1.991-2.2,2.936-3.211l5.07-5.327,3.432-3.578.942-.965.249-.247a.474.474,0,0,1,.091-.079.5.5,0,0,1-.074.094l-.233.262-.911.994-3.381,3.627-5.036,5.36c-.94,1.015-1.975,2.041-2.915,3.207a9.631,9.631,0,0,0-2.055,4.08,23.306,23.306,0,0,0-.3,5.531,48.654,48.654,0,0,0,.445,5.052,49.187,49.187,0,0,0,1.752,7.793l-.121.049-.106-.217,0-.009v-.009c-.032-.2-.063-.4-.091-.575l.117-.021c.2,1.13.36,2.02.471,2.645.048.293.087.524.115.7a1.367,1.367,0,0,1,.029.24" transform="translate(-41.029 -74.615)" fill="#455a64"/>
          <path id="Trazado_601782" data-name="Trazado 601782" d="M81.159,191.727a2.011,2.011,0,1,0,1.944-2.076,2.011,2.011,0,0,0-1.944,2.076" transform="translate(-44.576 -104.167)" fill="#455a64"/>
          <path id="Trazado_601783" data-name="Trazado 601783" d="M146.577,241.514a2.312,2.312,0,0,1,.074.462l.142,1.331c.127,1.156.243,2.834.352,4.909.213,4.152.208,9.9,0,16.233s-.376,12.068-.32,16.218c.022,2.074.062,3.754.115,4.913.018.55.032.994.042,1.336a2.262,2.262,0,0,1-.009.468,2.247,2.247,0,0,1-.063-.463l-.11-1.334c-.1-1.158-.175-2.839-.23-4.916-.123-4.156.008-9.9.214-16.233s.253-12.065.106-16.212c-.076-2.073-.153-3.751-.236-4.909-.031-.55-.056-.993-.075-1.336a2.234,2.234,0,0,1,0-.468" transform="translate(-80.479 -132.653)" fill="#263238"/>
          <path id="Trazado_601784" data-name="Trazado 601784" d="M73.185,228.514l4.932,38.979,26.675,1.912,1.727.88-1.761-32.207L95.5,216.058l-.93-.567s-.777,6.509-3.283,6.4c-1.708-.075-8.163-3.139-9.582-4.092l-1.424-4.145Z" transform="translate(-40.197 -117.351)" fill="#fff"/>
          <path id="Trazado_601785" data-name="Trazado 601785" d="M51.629,274.06,57.3,261.05l-5.5-41.64,9.566-4.009,3.134-3.381s2.908,10.742,3.816,14.5,3.5,12.035,4.664,19.45-.342,21.457-1.493,26.2S65.68,300.41,65.68,300.41H44.266s3.46-18.116,7.363-26.35" transform="translate(-24.313 -116.454)" fill="#f0bd51"/>
          <path id="Trazado_601786" data-name="Trazado 601786" d="M120.7,212.6l2.269,2.313,8.453,2.972s2.489,9.75,2.588,12.755-.046,36.35.005,37.917,5.991,30.724,5.512,32.047h-5.795s-3.113-23.959-3.319-30.229-.974-21.675-2.529-29.209S120.6,215.1,120.6,215.1Z" transform="translate(-66.243 -116.772)" fill="#f0bd51"/>
          <path id="Trazado_601787" data-name="Trazado 601787" d="M133.549,276.689a.558.558,0,0,1-.017-.156c0-.123-.01-.273-.017-.458-.008-.43-.019-1.018-.033-1.76-.016-1.558-.038-3.761-.065-6.473-.051-5.465-.079-13.016-.217-21.351-.024-1.042-.044-2.072-.086-3.083-.027-1-.172-1.994-.279-2.974-.222-1.954-.439-3.837-.682-5.625s-.5-3.484-.824-5.053a21.661,21.661,0,0,0-1.358-4.223,55.286,55.286,0,0,0-2.929-5.754l-.891-1.516-.233-.394a.581.581,0,0,1-.071-.14.534.534,0,0,1,.1.121l.261.377c.224.334.549.832.946,1.486a49.52,49.52,0,0,1,3.034,5.726A21.547,21.547,0,0,1,131.6,229.7c.335,1.578.607,3.277.857,5.068s.476,3.676.7,5.63c.109.974.256,1.967.286,3s.063,2.048.087,3.092c.138,8.341.128,15.891.119,21.357-.017,2.711-.031,4.915-.041,6.473-.013.742-.023,1.33-.03,1.76-.007.184-.012.335-.016.458a.556.556,0,0,1-.017.156" transform="translate(-69.123 -119.59)" fill="#263238"/>
          <path id="Trazado_601788" data-name="Trazado 601788" d="M92.656,267.683a2.341,2.341,0,0,1-.089-.467c-.044-.308-.1-.763-.16-1.35-.115-1.175-.246-2.881-.279-4.993-.018-1.056-.01-2.214.033-3.455a15.017,15.017,0,0,0-.617-3.859,63.674,63.674,0,0,0-3.287-8.464c-1.354-2.937-2.749-5.692-4.039-8.187a33.68,33.68,0,0,1-1.728-3.606,30.832,30.832,0,0,1-.962-3.334c-.487-2.06-.771-3.747-.958-4.913-.091-.583-.154-1.038-.192-1.346a2.4,2.4,0,0,1-.039-.473,2.622,2.622,0,0,1,.105.463l.253,1.335c.226,1.158.544,2.836,1.059,4.881a32.045,32.045,0,0,0,.993,3.3,34.589,34.589,0,0,0,1.743,3.564c1.305,2.489,2.711,5.244,4.069,8.189a61.457,61.457,0,0,1,3.278,8.518,15.026,15.026,0,0,1,.6,3.945c-.054,1.237-.076,2.39-.073,3.443,0,2.106.1,3.809.172,4.985.041.563.073,1.014.1,1.354a2.779,2.779,0,0,1,.022.474" transform="translate(-44.126 -122.613)" fill="#263238"/>
          <path id="Trazado_601789" data-name="Trazado 601789" d="M147.721,237.455a2.31,2.31,0,0,1,.234.4c.15.263.341.665.578,1.188a23.914,23.914,0,0,1,1.446,4.636,35.276,35.276,0,0,1,.7,7.169c-.01,2.715-.222,5.688-.493,8.8-.576,6.22-.94,11.856-1.062,15.945-.072,2.044-.113,3.7-.137,4.843-.017.545-.03.982-.04,1.317a2.321,2.321,0,0,1-.037.459,2.388,2.388,0,0,1-.031-.46c-.006-.335-.014-.773-.023-1.318-.016-1.144-.011-2.8.03-4.848.062-4.094.388-9.749.965-15.968.271-3.108.491-6.073.518-8.771a36.535,36.535,0,0,0-.621-7.121,26.183,26.183,0,0,0-1.334-4.633c-.217-.527-.388-.937-.518-1.208a2.384,2.384,0,0,1-.173-.427" transform="translate(-81.136 -130.424)" fill="#263238"/>
          <path id="Trazado_601790" data-name="Trazado 601790" d="M111.921,187.922a2.875,2.875,0,0,0-.305,1.669,1.373,1.373,0,0,0,.335.9,1.168,1.168,0,0,0,.854.315,2.334,2.334,0,0,0,.9-.233,3.188,3.188,0,0,0,1.216-1.556c-.787-.272-2.172-.837-3-1.1" transform="translate(-61.301 -103.218)" fill="#ff9b6c"/>
          <path id="Trazado_601791" data-name="Trazado 601791" d="M113.722,190.317a1.257,1.257,0,0,1-1.1.391,1.583,1.583,0,0,1-.594-.166,1.155,1.155,0,0,1-.5-.517,1.589,1.589,0,0,1-.164-.769,4.382,4.382,0,0,1,.09-.811,3.281,3.281,0,0,1,.229-.75l.044-.094.094.035c.855.318,1.6.607,2.131.823a4.043,4.043,0,0,1,.834.386,4.012,4.012,0,0,1-.883-.243c-.542-.177-1.3-.438-2.152-.746l.138-.058a3.261,3.261,0,0,0-.206.693,2.376,2.376,0,0,0,.037,1.437,1.134,1.134,0,0,0,.92.615,1.72,1.72,0,0,0,.8-.105,2.666,2.666,0,0,1,.283-.121" transform="translate(-61.168 -103.041)" fill="#263238"/>
          <path id="Trazado_601792" data-name="Trazado 601792" d="M315.053,266.553H175.519a6.9,6.9,0,0,1-6.9-6.9V157.275a6.9,6.9,0,0,1,6.9-6.9H315.053a6.9,6.9,0,0,1,6.9,6.9V259.658a6.9,6.9,0,0,1-6.9,6.9" transform="translate(-92.618 -82.597)" fill="#fff"/>
          <path id="Trazado_601793" data-name="Trazado 601793" d="M322.008,166.063H168.624v-8.888a6.794,6.794,0,0,1,6.795-6.794H314.9a7.1,7.1,0,0,1,7.105,7.1Z" transform="translate(-92.618 -82.597)" fill="#e0e0e0"/>
          <path id="Trazado_601794" data-name="Trazado 601794" d="M314.909,266.41s.115-.01.342-.023c.114-.01.256-.009.424-.031l.584-.092c.219-.051.463-.115.731-.191a7.441,7.441,0,0,0,.85-.343,6.671,6.671,0,0,0,1.885-1.317,6.742,6.742,0,0,0,1.588-2.437l.14-.384c.041-.132.07-.269.107-.4a6.319,6.319,0,0,0,.159-.85,16.644,16.644,0,0,0,.051-1.845c0-2.567-.007-5.529-.011-8.864-.009-13.34-.022-32.639-.037-56.487q0-8.944-.008-18.717,0-4.882,0-9.957,0-2.537,0-5.12c-.009-.859.019-1.732-.02-2.59a6.78,6.78,0,0,0-4.344-5.966,7.066,7.066,0,0,0-2.591-.457h-2.706l-11.037,0-23.039,0-102.584.009a6.77,6.77,0,0,0-5.66,3.033,6.9,6.9,0,0,0-1.1,3.107c-.039.549-.033,1.115-.032,1.677v1.686q0,6.74,0,13.388,0,13.293,0,26.174c0,17.16,0,33.713-.007,49.481q0,2.957,0,5.876,0,1.46,0,2.91a22.415,22.415,0,0,0,.087,2.869,6.758,6.758,0,0,0,5.513,5.641,17.311,17.311,0,0,0,2.786.111l21.733.006,39.009.014,56.484.037,15.356.022,3.994.012c.9,0,1.361.012,1.361.012s-.461.008-1.361.012l-3.994.011-15.356.022-56.484.037-39.009.014-21.733.006a17.422,17.422,0,0,1-2.823-.113,6.968,6.968,0,0,1-5.686-5.814,22.571,22.571,0,0,1-.091-2.9q0-1.45,0-2.91,0-2.919,0-5.876c0-15.768,0-32.321-.007-49.481q0-12.87,0-26.174,0-6.647,0-13.388V158.17c0-.562-.008-1.123.033-1.7a7.139,7.139,0,0,1,1.136-3.215,7.008,7.008,0,0,1,5.856-3.138l102.584.009,23.039,0,11.037,0h2.706a7.277,7.277,0,0,1,2.663.471,6.976,6.976,0,0,1,4.466,6.14c.038.878.01,1.737.018,2.6q0,2.583,0,5.12,0,5.074,0,9.957,0,9.762-.008,18.717c-.016,23.847-.028,43.147-.037,56.487,0,3.335-.008,6.3-.011,8.864a16.723,16.723,0,0,1-.057,1.853,6.481,6.481,0,0,1-.163.857c-.037.138-.068.275-.109.408l-.143.387a6.769,6.769,0,0,1-1.61,2.45,6.667,6.667,0,0,1-1.9,1.315,7.348,7.348,0,0,1-.856.34c-.27.074-.515.136-.735.186l-.587.087c-.169.02-.311.017-.425.025-.228.009-.343.011-.343.011" transform="translate(-92.474 -82.454)" fill="#263238"/>
          <path id="Trazado_601795" data-name="Trazado 601795" d="M186.554,167.675a1.8,1.8,0,1,1-1.8-1.8,1.8,1.8,0,0,1,1.8,1.8" transform="translate(-100.493 -91.11)" fill="#fff"/>
          <path id="Trazado_601796" data-name="Trazado 601796" d="M198.507,167.675a1.8,1.8,0,1,1-1.8-1.8,1.8,1.8,0,0,1,1.8,1.8" transform="translate(-107.058 -91.11)" fill="#fff"/>
          <path id="Trazado_601797" data-name="Trazado 601797" d="M210.46,167.675a1.8,1.8,0,1,1-1.8-1.8,1.8,1.8,0,0,1,1.8,1.8" transform="translate(-113.623 -91.11)" fill="#fff"/>
          <path id="Trazado_601798" data-name="Trazado 601798" d="M324.534,287.81H211.751a2.009,2.009,0,0,1-2.008-2.009V206.736a2.008,2.008,0,0,1,2.008-2.009H324.534a2.009,2.009,0,0,1,2.009,2.009V285.8a2.009,2.009,0,0,1-2.009,2.009" transform="translate(-115.202 -112.448)" fill="#f5f5f5"/>
          <path id="Trazado_601799" data-name="Trazado 601799" d="M230.779,326.4l28.51-40.578a3.228,3.228,0,0,1,5.155-.17l19.592,24.293a3.228,3.228,0,0,0,4.749.3l11.477-11.02a3.228,3.228,0,0,1,4.7.248l22.5,26.7a3.229,3.229,0,0,1-2.469,5.309H233.42a3.228,3.228,0,0,1-2.641-5.084" transform="translate(-126.431 -156.236)" fill="#ebebeb"/>
          <path id="Trazado_601800" data-name="Trazado 601800" d="M351.728,250.667a9.929,9.929,0,1,1-8.235-8.235,9.936,9.936,0,0,1,8.235,8.235" transform="translate(-182.353 -133.092)" fill="#ebebeb"/>
          <path id="Trazado_601801" data-name="Trazado 601801" d="M144,299.219s1.345-1.478-.833-1.9-13.231-.228-17.16,1.046l-5.332.906.935,8.761,3.33-.767,7.945,1.2c.913.138,3.705-1.027,1.5-2.482,0,0,2.623-1.285.639-2.986,0,0,1.929-1.016.365-3.028Z" transform="translate(-66.284 -163.193)" fill="#ffc09d"/>
          <path id="Trazado_601802" data-name="Trazado 601802" d="M118.447,300.983l2.068-.167-.23,9.4-2.015.416Z" transform="translate(-64.96 -165.225)" fill="#ebebeb"/>
          <path id="Trazado_601803" data-name="Trazado 601803" d="M53.6,227.941S48.55,229.676,47.5,236.6c-1.141,7.538,1.834,20.683,1.958,25.45.092,3.521,2.4,11.635,9.917,11.356a117.632,117.632,0,0,0,20.18-2.691l-.034-9.869-17.872.012-1.774-16.748" transform="translate(-25.948 -125.198)" fill="#f0bd51"/>
          <path id="Trazado_601804" data-name="Trazado 601804" d="M59.789,244.108s.018.1.043.291.059.487.1.859c.086.765.212,1.879.374,3.315.316,2.892.771,7.076,1.338,12.274l-.083-.075,17.871-.038h.109v.109c.013,3.132.027,6.44.041,9.869v.093l-.09.02a120.618,120.618,0,0,1-14.449,2.306c-2.039.192-4.053.334-6.052.393a8.759,8.759,0,0,1-2.952-.463A8.138,8.138,0,0,1,53.49,271.6,11.557,11.557,0,0,1,50.3,266.9a15.649,15.649,0,0,1-1.067-5.343c-.107-1.759-.361-3.47-.585-5.132l-.669-4.837c-.409-3.124-.738-6.045-.852-8.726a29.536,29.536,0,0,1,.4-7.218,6.176,6.176,0,0,1,.193-.763c.074-.247.137-.493.217-.728a12.926,12.926,0,0,1,.553-1.321,10.833,10.833,0,0,1,1.329-2.116,9.814,9.814,0,0,1,2.6-2.262,6.818,6.818,0,0,1,.8-.411,2.234,2.234,0,0,1,.287-.106s-.095.042-.277.128a7.834,7.834,0,0,0-.784.43,10,10,0,0,0-2.55,2.279,10.825,10.825,0,0,0-1.3,2.107,12.925,12.925,0,0,0-.538,1.311c-.078.233-.138.477-.211.722a6.247,6.247,0,0,0-.187.757,29.653,29.653,0,0,0-.364,7.182c.124,2.673.462,5.588.88,8.708l.681,4.834c.227,1.663.485,3.372.6,5.15a15.434,15.434,0,0,0,1.06,5.271,11.341,11.341,0,0,0,3.127,4.6,7.912,7.912,0,0,0,2.479,1.421,8.544,8.544,0,0,0,2.873.449c1.981-.06,4-.2,6.03-.393A121.615,121.615,0,0,0,79.442,270.6l-.089.113c-.009-3.428-.018-6.736-.027-9.869l.109.109-17.871-.014h-.075l-.008-.074c-.535-5.2-.966-9.388-1.263-12.282-.143-1.438-.254-2.553-.329-3.319-.035-.373-.061-.659-.08-.861s-.019-.294-.019-.294" transform="translate(-25.859 -125.198)" fill="#263238"/>
          <path id="Trazado_601805" data-name="Trazado 601805" d="M75.014,305.688a5.614,5.614,0,0,1,1.863-4.726,8.96,8.96,0,0,0-1.863,4.726" transform="translate(-41.172 -165.305)" fill="#263238"/>
          <path id="Trazado_601806" data-name="Trazado 601806" d="M66.948,243.093a9.533,9.533,0,0,1-.322-1.19,18.973,18.973,0,0,0-2.348-5.4,9.449,9.449,0,0,1-.65-1.047,4.75,4.75,0,0,1,.791.953,14.777,14.777,0,0,1,2.372,5.458,4.748,4.748,0,0,1,.157,1.229" transform="translate(-34.947 -129.325)" fill="#263238"/>
          <path id="Trazado_601807" data-name="Trazado 601807" d="M333.268,75.562l-7.372-27c-1.615-6.776-6.9-11.484-13.633-9.682l-.612.2a12.453,12.453,0,0,0-8.183,14.774c1.432,5.866,3.09,12.327,4.144,15.38,2.181,6.319,8.854,5.2,8.854,5.2s1.157,3.895,1.694,5.782l-.248,4.837,4.915-2.8Z" transform="translate(-166.486 -21.143)" fill="#ae7461"/>
          <path id="Trazado_601808" data-name="Trazado 601808" d="M332.74,111.928a16.148,16.148,0,0,0,7.451-5.18s-.407,5.429-6.927,6.955Z" transform="translate(-182.76 -58.632)" fill="#6f4439"/>
          <path id="Trazado_601809" data-name="Trazado 601809" d="M313.3,83.333a.955.955,0,0,0,1.177.625.912.912,0,0,0,.663-1.126.955.955,0,0,0-1.176-.626.914.914,0,0,0-.664,1.127" transform="translate(-172.065 -45.133)" fill="#263238"/>
          <path id="Trazado_601810" data-name="Trazado 601810" d="M308.914,75.761c.151.081.669-.654,1.646-.975s1.852-.07,1.918-.224c.034-.07-.151-.246-.537-.369a2.623,2.623,0,0,0-1.584.033,2.519,2.519,0,0,0-1.261.924c-.224.329-.254.576-.181.611" transform="translate(-169.654 -40.692)" fill="#263238"/>
          <path id="Trazado_601811" data-name="Trazado 601811" d="M331.447,77.473a.954.954,0,0,0,1.176.624.912.912,0,0,0,.664-1.126.955.955,0,0,0-1.176-.626.913.913,0,0,0-.664,1.127" transform="translate(-182.03 -41.914)" fill="#263238"/>
          <path id="Trazado_601812" data-name="Trazado 601812" d="M330.284,69.235c.152.081.671-.654,1.646-.975s1.852-.07,1.918-.224c.034-.07-.15-.245-.538-.369a2.618,2.618,0,0,0-1.584.033,2.52,2.52,0,0,0-1.261.924c-.223.329-.254.577-.182.611" transform="translate(-181.391 -37.108)" fill="#263238"/>
          <path id="Trazado_601813" data-name="Trazado 601813" d="M324.69,80.39a6.81,6.81,0,0,0-1.678.239c-.258.057-.51.086-.608-.07a1.34,1.34,0,0,1-.078-.793q.052-1.02.108-2.14a34.346,34.346,0,0,0,.01-5.507,34.373,34.373,0,0,0-.453,5.493c-.026.748-.051,1.46-.073,2.141a1.522,1.522,0,0,0,.195,1.02.658.658,0,0,0,.53.229,1.78,1.78,0,0,0,.443-.082,6.67,6.67,0,0,0,1.606-.53" transform="translate(-176.812 -39.612)" fill="#263238"/>
          <path id="Trazado_601814" data-name="Trazado 601814" d="M327.34,62.289c.215.205,1.075-.371,2.218-.777,1.136-.43,2.163-.546,2.195-.842.01-.139-.258-.3-.73-.366a4.085,4.085,0,0,0-3.362,1.233c-.317.357-.419.652-.32.751" transform="translate(-179.774 -33.107)" fill="#263238"/>
          <path id="Trazado_601815" data-name="Trazado 601815" d="M306.668,69.262c.274.158,1-.324,1.954-.637.946-.341,1.818-.408,1.932-.7.046-.138-.152-.321-.573-.42a3.239,3.239,0,0,0-1.709.137,3.182,3.182,0,0,0-1.423.94c-.267.335-.306.6-.182.68" transform="translate(-168.403 -37.045)" fill="#263238"/>
          <path id="Trazado_601816" data-name="Trazado 601816" d="M355.966,70.575c.092-.082,3.932-2.734,5.231,1.65s-3.37,4.783-3.415,4.66-1.816-6.31-1.816-6.31" transform="translate(-195.517 -38.287)" fill="#ae7461"/>
          <path id="Trazado_601817" data-name="Trazado 601817" d="M361.126,76.506c.015-.02.092.031.239.052a.8.8,0,0,0,.574-.157,1.972,1.972,0,0,0,.372-1.954,2.624,2.624,0,0,0-.538-1.03.919.919,0,0,0-.748-.416.405.405,0,0,0-.389.343c-.022.14.032.219.01.233s-.116-.046-.134-.237a.509.509,0,0,1,.091-.326.6.6,0,0,1,.389-.237,1.12,1.12,0,0,1,1,.443,2.7,2.7,0,0,1,.626,1.144,2.067,2.067,0,0,1-.553,2.223.853.853,0,0,1-.732.091c-.168-.068-.22-.159-.207-.172" transform="translate(-198.013 -39.965)" fill="#6f4439"/>
          <path id="Trazado_601818" data-name="Trazado 601818" d="M332.568,89.855c-.154.034.128,1.045-.535,2.005s-1.77,1.152-1.738,1.3c0,.067.3.129.754.014a2.616,2.616,0,0,0,1.467-1.025,2.277,2.277,0,0,0,.384-1.663c-.08-.434-.264-.652-.331-.627" transform="translate(-181.416 -49.352)" fill="#263238"/>
          <path id="Trazado_601819" data-name="Trazado 601819" d="M280.551,45.417a1.084,1.084,0,0,1,.307-.752,3.338,3.338,0,0,1,1.559-.755,9.627,9.627,0,0,0,3.708-2.2,4.776,4.776,0,0,1-1.426-.476,2.869,2.869,0,0,1-1.607-2.5.635.635,0,0,1,.218-.521c.259-.173.591.033.856.2a2.47,2.47,0,0,0,2.51.279,4.055,4.055,0,0,0,1.519-.99c.013-.025.023-.052.036-.078.158-.3.313-.594.467-.877v0h0a15.128,15.128,0,0,1,3.523-4.705,15.537,15.537,0,0,1,7.759-3,6.276,6.276,0,0,1,5.94,3.323,4.827,4.827,0,0,1,4.521-1.825l.033-.028c1.876.1,3.375,1.6,4.392,3.184.055.087.108.175.162.263a7.027,7.027,0,0,0,2.949,1.548c.192.046.415.107.492.29a.572.572,0,0,1-.156.539,3.532,3.532,0,0,1-1.2.98,7.9,7.9,0,0,0,.918,1.024c.288.267.632.588.565.975a.747.747,0,0,1-.652.55,2.184,2.184,0,0,1-.9-.122l.973,1.19a4.189,4.189,0,0,1-1.882.428c.122,1.725.746,4.8.656,6.023a6.954,6.954,0,0,0-2.005.7c-.683.478.007,1.735-1.094,1.648-.56-.044-1.9-1.719-2.222-2.18a26.11,26.11,0,0,1-4.244-10.266,8.4,8.4,0,0,0-3.018-1.051l.1.046c-1.977-.087-4.186-.1-5.634,1.254-1.123,1.046-1.49,2.645-2.15,4.031a9.569,9.569,0,0,1-5.784,5.313c.326,2.009,1.2,5.194,1.64,7.027l-2.62-3.152,0,.015c-.188-.174-.354-.357-.517-.541l-.054-.055,0-.008a11.8,11.8,0,0,0-.814-.875l-.013.02a1.176,1.176,0,0,1-2.1-1.016,2.659,2.659,0,0,1,.381-.711,1.861,1.861,0,0,1-1.568.948,1.46,1.46,0,0,1-1.4-1.089,1.242,1.242,0,0,1,.424-1.167,4.2,4.2,0,0,1-2.437.178c-.528-.123-1.1-.414-1.114-1.028" transform="translate(-154.094 -15.947)" fill="#263238"/>
          <path id="Trazado_601820" data-name="Trazado 601820" d="M332.849,39.385a5.828,5.828,0,0,1,.819.4,4.8,4.8,0,0,1,1.619,1.835,8.422,8.422,0,0,1,.65,1.581c.179.59.32,1.236.474,1.916a17.648,17.648,0,0,0,.58,2.117,7.665,7.665,0,0,0,.476,1.066,2.408,2.408,0,0,0,.774.941,1.009,1.009,0,0,0,1,.034,1.5,1.5,0,0,0,.677-.7,3.467,3.467,0,0,0,.131-1.815l-.13.056a5.609,5.609,0,0,0,1.181,1.111,2,2,0,0,0,1.45.307,1.286,1.286,0,0,0,.626-.313,1.115,1.115,0,0,0,.317-.576,1.143,1.143,0,0,0-.034-.609.832.832,0,0,0-.354-.437l-.05.081a4.308,4.308,0,0,0,1.686.622,3.922,3.922,0,0,0,.476.039.728.728,0,0,0,.164-.008.854.854,0,0,0-.163-.018c-.107-.011-.266-.026-.469-.063a4.443,4.443,0,0,1-1.642-.652l-.05.081a.858.858,0,0,1,.327.94,1,1,0,0,1-.289.513,1.166,1.166,0,0,1-.57.276,1.866,1.866,0,0,1-1.35-.3,5.517,5.517,0,0,1-1.144-1.09l-.154-.178.024.234a3.351,3.351,0,0,1-.124,1.733,1.349,1.349,0,0,1-.606.629.851.851,0,0,1-.846-.028,2.283,2.283,0,0,1-.719-.882,7.647,7.647,0,0,1-.468-1.044,17.913,17.913,0,0,1-.583-2.1c-.157-.678-.3-1.327-.49-1.922a8.4,8.4,0,0,0-.677-1.6,4.73,4.73,0,0,0-1.684-1.834,2.713,2.713,0,0,0-.85-.344" transform="translate(-182.82 -21.633)" fill="#455a64"/>
          <path id="Trazado_601821" data-name="Trazado 601821" d="M292.976,48.323a.243.243,0,0,0,.064.028l.2.069a2.231,2.231,0,0,0,.324.093,3.619,3.619,0,0,0,.451.089,5.937,5.937,0,0,0,2.892-.325,7.582,7.582,0,0,0,3.443-2.584,13.137,13.137,0,0,0,2.181-4.824c.234-.915.377-1.825.577-2.685a8.879,8.879,0,0,1,.85-2.379,4.571,4.571,0,0,1,1.513-1.673,3.278,3.278,0,0,1,.941-.4,3.605,3.605,0,0,1,.943-.095,3.876,3.876,0,0,1,2.581,1.128,4.607,4.607,0,0,1,.618.863.213.213,0,0,0-.025-.066l-.089-.188a3.345,3.345,0,0,0-.46-.651,3.81,3.81,0,0,0-1.008-.759,3.915,3.915,0,0,0-1.612-.439,3.7,3.7,0,0,0-.976.088,3.371,3.371,0,0,0-.981.411,4.671,4.671,0,0,0-1.57,1.712,8.939,8.939,0,0,0-.874,2.416c-.2.867-.346,1.775-.579,2.681a13.144,13.144,0,0,1-2.143,4.775,7.534,7.534,0,0,1-3.367,2.567,6.027,6.027,0,0,1-2.845.369,9.424,9.424,0,0,1-1.043-.219" transform="translate(-160.919 -18.411)" fill="#455a64"/>
          <path id="Trazado_601822" data-name="Trazado 601822" d="M289.816,58.289a1.013,1.013,0,0,0,.278.092,5.146,5.146,0,0,0,.784.142,6.9,6.9,0,0,0,1.184.032,7.277,7.277,0,0,0,2.793-.737,6.934,6.934,0,0,0,1.014-.613,5.136,5.136,0,0,0,.611-.511c.134-.133.2-.209.2-.217s-.32.266-.871.637a7.873,7.873,0,0,1-1.013.573,7.8,7.8,0,0,1-2.74.723,7.941,7.941,0,0,1-1.164,0c-.662-.05-1.065-.152-1.072-.124" transform="translate(-159.184 -31.021)" fill="#455a64"/>
          <path id="Trazado_601823" data-name="Trazado 601823" d="M294.992,130.257s-.652-1.844,1.562-4.327,16.136-7.723,16.136-7.723,5.164,5.029,11.009,1.849c4.548-2.475,4.2-6.354,4.2-6.354l17.692,2.961.6,13.368-6.339.037Z" transform="translate(-161.977 -62.452)" fill="#f7e9e1"/>
          <path id="Trazado_601824" data-name="Trazado 601824" d="M363.426,171.395l21.823-6.843-7.128-17.268,13.761.263s9.93,19.374,6.174,25.029c-3.421,5.151-31.585,6.189-31.585,6.189Z" transform="translate(-199.614 -80.896)" fill="#ae7461"/>
          <path id="Trazado_601825" data-name="Trazado 601825" d="M346.652,221.87l-.092,1.177A2.016,2.016,0,0,1,344,224.537l-22.348-2.263.411-3.537,22.563.778c1.5-.012,2.129,1,2.023,2.357" transform="translate(-176.671 -120.142)" fill="#455a64"/>
          <path id="Trazado_601826" data-name="Trazado 601826" d="M280.366,215.856a13.724,13.724,0,1,1,8.3-9.412,13.651,13.651,0,0,1-8.3,9.412m-9.679-24.7a12.8,12.8,0,1,0,7.814-.5,12.8,12.8,0,0,0-7.814.5" transform="translate(-143.698 -103.999)" fill="#263238"/>
          <path id="Trazado_601827" data-name="Trazado 601827" d="M280.192,214.043a13.724,13.724,0,1,1,8.3-9.412,13.651,13.651,0,0,1-8.3,9.412m-9.679-24.7a12.8,12.8,0,1,0,7.814-.5,12.8,12.8,0,0,0-7.814.5" transform="translate(-143.602 -103.003)" fill="#455a64"/>
          <path id="Trazado_601828" data-name="Trazado 601828" d="M285.921,195.43a1.324,1.324,0,0,1-.184-.132c-.121-.084-.279-.235-.517-.385a9.829,9.829,0,0,0-2.086-1.108,12.266,12.266,0,0,0-1.557-.49,13.267,13.267,0,0,0-1.85-.293,12.718,12.718,0,0,0-2.068-.019,12.166,12.166,0,0,0-2.193.342,11.294,11.294,0,0,0-2.084.756,12.216,12.216,0,0,0-1.767,1.071,11.64,11.64,0,0,0-2.466,2.476,11.15,11.15,0,0,0-1.191,2.042c-.125.251-.189.459-.251.594a1.375,1.375,0,0,1-.093.206,1.238,1.238,0,0,1,.065-.216c.052-.138.109-.351.226-.607a10.412,10.412,0,0,1,1.16-2.08,11.475,11.475,0,0,1,2.469-2.524,12.1,12.1,0,0,1,1.785-1.092,11.3,11.3,0,0,1,2.112-.769,12.14,12.14,0,0,1,2.219-.343,12.559,12.559,0,0,1,2.091.028,13.088,13.088,0,0,1,1.867.309,12.042,12.042,0,0,1,1.567.512,9.256,9.256,0,0,1,2.08,1.158,5.877,5.877,0,0,1,.5.409,1.247,1.247,0,0,1,.165.154" transform="translate(-146.989 -105.912)" fill="#fff"/>
          <path id="Trazado_601829" data-name="Trazado 601829" d="M307.433,226.438c-.02-.029.556-.368,1.335-1.1l.3-.291c.1-.1.2-.22.305-.335.217-.227.415-.5.632-.774a10.657,10.657,0,0,0,1.849-4.152c.061-.347.13-.675.153-.988.014-.156.038-.306.044-.451s.01-.284.015-.418c.021-1.067-.112-1.722-.077-1.727a2.952,2.952,0,0,1,.089.458,4.057,4.057,0,0,1,.063.544,6.607,6.607,0,0,1,.029.726q0,.2-.005.423c0,.147-.024.3-.036.457a9.676,9.676,0,0,1-.142,1,10.33,10.33,0,0,1-1.873,4.206,9.869,9.869,0,0,1-.65.776c-.11.115-.209.232-.316.333l-.311.287a6.618,6.618,0,0,1-.559.464,4.058,4.058,0,0,1-.446.317,2.846,2.846,0,0,1-.4.24" transform="translate(-168.86 -118.752)" fill="#fff"/>
          <path id="Trazado_601830" data-name="Trazado 601830" d="M291.778,210.332c0,.041-2.515.3-5.626.58s-5.636.474-5.639.433,2.515-.3,5.626-.58,5.635-.474,5.639-.433" transform="translate(-154.074 -115.524)" fill="#fff"/>
          <path id="Trazado_601831" data-name="Trazado 601831" d="M287.013,219a.862.862,0,0,1-.181.021l-.52.031-1.912.1c-1.615.079-3.845.194-6.306.348s-4.689.319-6.3.442l-1.909.144-.52.034a.875.875,0,0,1-.182,0,.856.856,0,0,1,.179-.032l.517-.061c.45-.05,1.1-.116,1.906-.191,1.61-.15,3.837-.331,6.3-.485s4.695-.253,6.311-.305c.808-.026,1.463-.042,1.915-.049l.521,0a.838.838,0,0,1,.182.009" transform="translate(-147.85 -120.281)" fill="#fff"/>
          <g id="Grupo_878554" data-name="Grupo 878554" transform="translate(118.826 95.264)" opacity="0.3">
            <g id="Grupo_878553" data-name="Grupo 878553">
              <g id="Grupo_878552" data-name="Grupo 878552" clip-path="url(#clip-path-8)">
                <path id="Trazado_601832" data-name="Trazado 601832" d="M263.85,212.889l24.844-1.539a13.3,13.3,0,0,1,.477,3.756l-25.4,1.545a9.839,9.839,0,0,1,.079-3.762" transform="translate(-263.623 -211.35)" fill="#fff"/>
              </g>
            </g>
          </g>
          <g id="Grupo_878557" data-name="Grupo 878557" transform="translate(119.699 101.401)" opacity="0.3">
            <g id="Grupo_878556" data-name="Grupo 878556">
              <g id="Grupo_878555" data-name="Grupo 878555" clip-path="url(#clip-path-9)">
                <path id="Trazado_601833" data-name="Trazado 601833" d="M265.559,226.585l24.3-1.62s.162-.066-.334,1l-23.562,1.552a2.278,2.278,0,0,1-.407-.934" transform="translate(-265.559 -224.965)" fill="#fff"/>
              </g>
            </g>
          </g>
          <path id="Trazado_601834" data-name="Trazado 601834" d="M341.182,200.776s-12.515,3.633-12.872,3.838-5.285,3.714-5.379,4.982,1.569,6.94,1.569,6.94,1.688.242,1.813-2.789l.124-3.031,2.077-1.86a21.1,21.1,0,0,0-.572,4.5c.194.991,1.84,3.5,2.761,3.3a2.681,2.681,0,0,0,1.427-.824s.806,2.233,3.157.919a3.731,3.731,0,0,0,2.75.033,7.567,7.567,0,0,0,2.3-2.568,1.05,1.05,0,0,0-1.178-1.15,4.813,4.813,0,0,0-2.415.944l-.119-1.272a14.64,14.64,0,0,1,3.083-2.785c.988-.593,5.086-.689,6.359-1.984,1.079-1.1-.958-3.516-2.311-4.25a2.335,2.335,0,0,0-.65-.236Z" transform="translate(-177.37 -110.278)" fill="#ae7461"/>
          <path id="Trazado_601835" data-name="Trazado 601835" d="M346.93,223.176a.907.907,0,0,0-.137.222,4.052,4.052,0,0,0-.266.66,4.579,4.579,0,0,0,.97,4.413,4.016,4.016,0,0,0,.519.488.9.9,0,0,0,.217.144c.016-.019-.287-.237-.667-.692a4.761,4.761,0,0,1-.951-4.328c.154-.572.337-.9.315-.908" transform="translate(-190.222 -122.581)" fill="#6f4439"/>
          <path id="Trazado_601836" data-name="Trazado 601836" d="M341.457,219.2a1.165,1.165,0,0,0-.143.239,2.546,2.546,0,0,0-.142.3,4.311,4.311,0,0,0-.16.4,6.405,6.405,0,0,0-.28,1.1,6.706,6.706,0,0,0,.126,2.754,6.367,6.367,0,0,0,.379,1.066c.062.149.137.275.2.387a2.656,2.656,0,0,0,.168.281,1.146,1.146,0,0,0,.165.225c.022-.014-.2-.345-.445-.931a7.089,7.089,0,0,1-.347-1.058,7.753,7.753,0,0,1-.192-1.348,9.143,9.143,0,0,1,.022-1.451,5.545,5.545,0,0,1,.3-.994c.193-.606.382-.956.359-.967" transform="translate(-187.102 -120.4)" fill="#6f4439"/>
          <path id="Trazado_601837" data-name="Trazado 601837" d="M336.035,213.985c-.009-.011-.132.071-.279.255a2.033,2.033,0,0,0-.384.829,1.707,1.707,0,0,0,.015.914.744.744,0,0,0,.152.346,2.582,2.582,0,0,1,.5-2.344" transform="translate(-184.176 -117.532)" fill="#6f4439"/>
          <path id="Trazado_601838" data-name="Trazado 601838" d="M418.313,188.427c-.038.019-.259-.494-.81-1.186a6.794,6.794,0,0,0-2.714-2.042,5.79,5.79,0,0,0-3.366-.259c-.867.178-1.378.4-1.393.36a1.168,1.168,0,0,1,.346-.183,6.53,6.53,0,0,1,1.011-.338,5.588,5.588,0,0,1,3.49.2,6.445,6.445,0,0,1,2.758,2.158,5.479,5.479,0,0,1,.546.917,1.141,1.141,0,0,1,.133.369" transform="translate(-225.212 -101.389)" fill="#6f4439"/>
          <path id="Trazado_601839" data-name="Trazado 601839" d="M389.155,127.947c-.216-7.29,9.287-10.533,13.547-4.614l.072.1c4.016,5.72,8.869,19.244,8.869,19.244l-17.192,2.67-4.291-11.738a21.872,21.872,0,0,1-1.005-5.665" transform="translate(-213.744 -66.056)" fill="#f7e9e1"/>
          <path id="Trazado_601840" data-name="Trazado 601840" d="M269.888,145.72c.028.061.053.123.076.187a3.291,3.291,0,0,1,.182.9,2.989,2.989,0,0,0,.02.432,1.651,1.651,0,0,0,.119.254,4.342,4.342,0,0,1,.158,1.785,3.424,3.424,0,0,0,.33,1.913,1.261,1.261,0,0,0,1.68.518.859.859,0,0,0,.643.938,1.241,1.241,0,0,0,1.144-.355,2.312,2.312,0,0,0,.574-1.1.948.948,0,0,0,.945.917,1.462,1.462,0,0,0,1.2-.736,3.358,3.358,0,0,0,.413-1.4,16.676,16.676,0,0,1,.3-1.875s.616.1.9.126l.082.008a11.418,11.418,0,0,0,.59-1.023c.393-.808.692-1.32.992-2.054.225-.549.371-1.1.031-1.455-.818-.861-2.417.889-2.417.889-.226-.609-2.085-.709-2.446.1-.147-.447-.091-.706-.453-1.006a1.5,1.5,0,0,0-1.317-.332,1.072,1.072,0,0,0-.8,1.032,1.765,1.765,0,0,0-3.2.527.7.7,0,0,0-.044.243.3.3,0,0,0,.038.107c.083.156.192.294.265.457" transform="translate(-148.071 -78.715)" fill="#ae7461"/>
          <path id="Trazado_601841" data-name="Trazado 601841" d="M264.112,146.018a1.407,1.407,0,0,0-1.115.371,2.3,2.3,0,0,0-.348,1.546c.561.106.851.127,1.412.233.119.022.217-.008.315.062.259.183.217.8.321,1.1a1.08,1.08,0,0,0,1.363.583,1.448,1.448,0,0,0,.874-1.29,2.237,2.237,0,0,0-.57-1.509,3.125,3.125,0,0,0-2.251-1.1" transform="translate(-144.256 -80.201)" fill="#ae7461"/>
          <path id="Trazado_601842" data-name="Trazado 601842" d="M276.238,145.335a18.575,18.575,0,0,1,0,3.749,18.559,18.559,0,0,1-.381,3.73,18.583,18.583,0,0,1,0-3.75,18.569,18.569,0,0,1,.381-3.729" transform="translate(-151.472 -79.826)" fill="#6f4439"/>
          <path id="Trazado_601843" data-name="Trazado 601843" d="M281.776,146.124a15.905,15.905,0,0,1-.581,6.743,27.6,27.6,0,0,1,.274-3.373,27.737,27.737,0,0,1,.306-3.37" transform="translate(-154.433 -80.26)" fill="#6f4439"/>
          <path id="Trazado_601844" data-name="Trazado 601844" d="M287.339,146.89a7.9,7.9,0,0,1-.046,2.811,11.012,11.012,0,0,1-.533,2.755,9.926,9.926,0,0,1,.155-2.8,15.531,15.531,0,0,1,.424-2.765" transform="translate(-157.476 -80.68)" fill="#6f4439"/>
          <path id="Trazado_601845" data-name="Trazado 601845" d="M267.7,146.544c0-.045.269-.105.657.072a2.105,2.105,0,0,1,1.031,1.207,4.224,4.224,0,0,1,.256,1.544c-.046.465-.383.6-.391.54-.03-.042.153-.2.122-.548a7.586,7.586,0,0,0-.343-1.4,2.292,2.292,0,0,0-.809-1.107c-.292-.206-.529-.247-.524-.306" transform="translate(-147.036 -80.465)" fill="#6f4439"/>
          <path id="Trazado_601846" data-name="Trazado 601846" d="M399.131,121.385a19.563,19.563,0,0,0-1.847.773,9.22,9.22,0,0,0-5.01,7.7,19.566,19.566,0,0,0,.041,2,2.094,2.094,0,0,1-.122-.529,7.992,7.992,0,0,1-.086-1.48,8.964,8.964,0,0,1,5.1-7.838,7.968,7.968,0,0,1,1.388-.521,2.092,2.092,0,0,1,.533-.1" transform="translate(-215.366 -66.67)" fill="#263238"/>
          <path id="Trazado_601847" data-name="Trazado 601847" d="M164.6,231.245c-.412-.146-.654-.1-.926-.441a1.392,1.392,0,0,1-.282-1.231,1,1,0,0,1,.975-.722,1.64,1.64,0,0,1,.554-2.963.647.647,0,0,1,.226-.036.264.264,0,0,1,.1.037c.143.08.269.184.419.255.056.027.114.051.172.074a3.061,3.061,0,0,0,.829.188,2.7,2.7,0,0,1,.4.027,1.485,1.485,0,0,1,.234.116,4.041,4.041,0,0,0,1.656.182,3.177,3.177,0,0,1,1.771.345,1.172,1.172,0,0,1,.448,1.571.8.8,0,0,1,.859.616,1.155,1.155,0,0,1-.353,1.057,2.153,2.153,0,0,1-1.03.511.881.881,0,0,1,.833.9,1.355,1.355,0,0,1-.708,1.1,3.109,3.109,0,0,1-1.309.357c-.454.043-1.892.25-2.335.359l-1.675.022a1.352,1.352,0,0,1-1.289-1.87.864.864,0,0,1,.431-.451" transform="translate(-89.718 -124.05)" fill="#ffc09d"/>
          <path id="Trazado_601848" data-name="Trazado 601848" d="M166.129,220.766a1.309,1.309,0,0,1,.367-1.029,1.121,1.121,0,0,1,1.008-.3,8.668,8.668,0,0,0,.493,1.359,1.609,1.609,0,0,0,.182.263c.166.244.741.217,1.018.32a1,1,0,0,1,.515,1.278.923.923,0,0,1-.976.655A3.077,3.077,0,0,1,167,222.72a2.47,2.47,0,0,1-.869-1.954" transform="translate(-91.247 -120.518)" fill="#ffc09d"/>
          <path id="Trazado_601849" data-name="Trazado 601849" d="M165.278,232.231c0,.043,1.56.032,3.481-.025s3.478-.138,3.477-.182-1.56-.032-3.482.025-3.478.138-3.477.182" transform="translate(-90.78 -127.427)" fill="#ff9b6c"/>
          <path id="Trazado_601850" data-name="Trazado 601850" d="M165.9,237.343a4.647,4.647,0,0,0,.922.076c.571.02,1.362.017,2.232-.039s1.656-.155,2.219-.248a4.63,4.63,0,0,0,.9-.194,6.392,6.392,0,0,0-.92.085c-.566.065-1.348.145-2.214.2s-1.652.076-2.221.085a6.349,6.349,0,0,0-.923.035" transform="translate(-91.119 -130.136)" fill="#ff9b6c"/>
          <path id="Trazado_601851" data-name="Trazado 601851" d="M167.707,242.6a4.808,4.808,0,0,0,.68-.015c.421-.023,1-.072,1.645-.14s1.22-.139,1.639-.191a5.915,5.915,0,0,0,.677-.1,5.3,5.3,0,0,0-.682.041c-.421.037-1,.1-1.641.167s-1.218.125-1.638.164a6.668,6.668,0,0,0-.68.073" transform="translate(-92.114 -133.004)" fill="#ff9b6c"/>
          <path id="Trazado_601852" data-name="Trazado 601852" d="M166.617,224.084a.852.852,0,0,0,.115.579,1.983,1.983,0,0,0,1.076.924,4.152,4.152,0,0,0,.755.214,3.057,3.057,0,0,0,.638.077.676.676,0,0,0,.419-.148c.081-.071.1-.131.092-.135a.756.756,0,0,1-.511.172,3.726,3.726,0,0,1-.607-.107,4.863,4.863,0,0,1-.726-.218,2.05,2.05,0,0,1-1.038-.832,3.431,3.431,0,0,1-.212-.526" transform="translate(-91.508 -123.08)" fill="#ff9b6c"/>
        </g>
      </g>
      <g id="Grupo_878567" data-name="Grupo 878567">
        <g id="Grupo_878566" data-name="Grupo 878566" clip-path="url(#clip-path)">
          <path id="Trazado_601853" data-name="Trazado 601853" d="M486.372,119.915H450.65a2.663,2.663,0,0,1-2.663-2.663V85.208a2.663,2.663,0,0,1,2.663-2.663h35.722a2.663,2.663,0,0,1,2.663,2.663v32.044a2.663,2.663,0,0,1-2.663,2.663" transform="translate(-246.06 -45.338)" fill="#fff"/>
          <path id="Trazado_601854" data-name="Trazado 601854" d="M489.035,88.9H447.987V85.28a2.736,2.736,0,0,1,2.736-2.736h35.792a2.52,2.52,0,0,1,2.52,2.52Z" transform="translate(-246.06 -45.338)" fill="#e0e0e0"/>
          <path id="Trazado_601855" data-name="Trazado 601855" d="M458.647,89.824a1.008,1.008,0,1,1-1.006-.947.978.978,0,0,1,1.006.947" transform="translate(-250.81 -48.816)" fill="#fff"/>
          <path id="Trazado_601856" data-name="Trazado 601856" d="M464.731,89.824a1.008,1.008,0,1,1-1.006-.947.978.978,0,0,1,1.006.947" transform="translate(-254.152 -48.816)" fill="#fff"/>
          <path id="Trazado_601857" data-name="Trazado 601857" d="M470.815,89.824a1.008,1.008,0,1,1-1.006-.947.978.978,0,0,1,1.006.947" transform="translate(-257.493 -48.816)" fill="#fff"/>
          <path id="Trazado_601858" data-name="Trazado 601858" d="M486.228,119.772c0-.009.134,0,.389-.044a2.648,2.648,0,0,0,2.131-1.881,3.826,3.826,0,0,0,.1-1.177q0-.64,0-1.363c-.009-3.859-.022-9.431-.037-16.316,0-3.445-.01-7.217-.014-11.267q0-.759,0-1.532,0-.386,0-.775a4.385,4.385,0,0,0-.037-.764,2.57,2.57,0,0,0-1.987-2.091,10.128,10.128,0,0,0-1.6-.057h-1.653l-3.372,0-29.63.009a2.555,2.555,0,0,0-2.536,2.291c-.026,1.274-.007,2.58-.013,3.855q0,3.84,0,7.56c0,4.957,0,9.737-.007,14.292q0,3.414,0,6.652a2.567,2.567,0,0,0,1.68,2.345,3.988,3.988,0,0,0,1.5.159h1.532l11.267.014,16.314.037,4.436.022,1.154.012c.26,0,.393.012.393.012s-.133.008-.393.012l-1.154.011-4.436.022-16.314.037-11.267.014h-1.532a4.169,4.169,0,0,1-1.572-.168,2.771,2.771,0,0,1-1.818-2.529q0-3.237-.008-6.657c0-4.555,0-9.335-.007-14.292q0-3.717,0-7.56c.006-1.285-.014-2.558.014-3.878a2.789,2.789,0,0,1,2.77-2.5l29.63.009,3.372,0h2.471a3.814,3.814,0,0,1,.829.064,2.774,2.774,0,0,1,2.141,2.261,4.593,4.593,0,0,1,.038.8q0,.389,0,.775,0,.772,0,1.532c-.005,4.05-.01,7.822-.014,11.267-.016,6.885-.028,12.457-.037,16.316q0,.722-.005,1.363a3.887,3.887,0,0,1-.115,1.2,2.693,2.693,0,0,1-1.114,1.486,2.629,2.629,0,0,1-1.081.4,1.926,1.926,0,0,1-.393.02" transform="translate(-245.916 -45.196)" fill="#263238"/>
          <path id="Trazado_601859" data-name="Trazado 601859" d="M487.583,127.881H456.638a2.009,2.009,0,0,1-2.009-2.008V105.021a2.009,2.009,0,0,1,2.009-2.009h30.945a2.008,2.008,0,0,1,2.008,2.009v20.852a2.008,2.008,0,0,1-2.008,2.008" transform="translate(-249.708 -56.58)" fill="#fed5b1"/>
          <g id="Grupo_878562" data-name="Grupo 878562" transform="translate(207.679 57.188)" opacity="0.3">
            <g id="Grupo_878561" data-name="Grupo 878561">
              <g id="Grupo_878560" data-name="Grupo 878560" clip-path="url(#clip-path-11)">
                <path id="Trazado_601860" data-name="Trazado 601860" d="M460.926,139.432l8.534-12.146a.966.966,0,0,1,1.543-.051l5.864,7.272a.966.966,0,0,0,1.422.091l3.436-3.3a.966.966,0,0,1,1.408.074l6.734,7.993a.966.966,0,0,1-.739,1.589H461.717a.966.966,0,0,1-.791-1.522" transform="translate(-460.749 -126.875)" fill="#fff"/>
              </g>
            </g>
          </g>
          <g id="Grupo_878565" data-name="Grupo 878565" transform="translate(221.416 51.503)" opacity="0.3">
            <g id="Grupo_878564" data-name="Grupo 878564">
              <g id="Grupo_878563" data-name="Grupo 878563" clip-path="url(#clip-path-12)">
                <path id="Trazado_601861" data-name="Trazado 601861" d="M497.166,117.232a2.971,2.971,0,1,1-2.971-2.971,2.971,2.971,0,0,1,2.971,2.971" transform="translate(-491.224 -114.261)" fill="#fff"/>
              </g>
            </g>
          </g>
        </g>
      </g>
      <path id="Trazado_601862" data-name="Trazado 601862" d="M542.306,385.09h49.425L586.4,366.561l-44.871-.179Z" transform="translate(-297.438 -201.238)" fill="#263238"/>
      <g id="Grupo_878578" data-name="Grupo 878578">
        <g id="Grupo_878577" data-name="Grupo 878577" clip-path="url(#clip-path)">
          <path id="Trazado_601863" data-name="Trazado 601863" d="M564.9,394.259a1.753,1.753,0,0,1-.167-.432c-.09-.284-.208-.7-.339-1.213-.264-1.03-.576-2.464-.9-4.05l-.837-4.06-.265-1.227a1.782,1.782,0,0,1-.079-.456,1.746,1.746,0,0,1,.167.432c.09.284.208.7.339,1.213.265,1.03.577,2.464.9,4.051l.837,4.06.266,1.227a1.78,1.78,0,0,1,.079.456" transform="translate(-308.85 -210.267)" fill="#455a64"/>
          <path id="Trazado_601864" data-name="Trazado 601864" d="M621.6,381.595c0,.007-.047.037-.144.085a4.656,4.656,0,0,1-.435.2,8.216,8.216,0,0,1-1.69.47,12.791,12.791,0,0,1-5.733-.459,31.95,31.95,0,0,1-5.307-2.256l-1.547-.806a3.41,3.41,0,0,1-.555-.321,3.366,3.366,0,0,1,.6.239c.376.169.915.423,1.58.74a37.423,37.423,0,0,0,5.3,2.179,13.388,13.388,0,0,0,5.641.521,14.239,14.239,0,0,0,2.294-.587" transform="translate(-332.953 -207.895)" fill="#455a64"/>
          <path id="Trazado_601865" data-name="Trazado 601865" d="M570.993,382.1a1.463,1.463,0,1,1-1.463-1.463,1.463,1.463,0,0,1,1.463,1.463" transform="translate(-312.014 -209.07)" fill="#455a64"/>
          <path id="Trazado_601866" data-name="Trazado 601866" d="M606.012,152.707a50.658,50.658,0,0,0,2.785-8.276,17.681,17.681,0,0,0-.089-8.652c-.125-.423-1.24-3.286-1.682-3.274-.316.009.31,2.65.133,2.912a14.991,14.991,0,0,0-2.292,8.6,39.469,39.469,0,0,0,1.146,8.689" transform="translate(-332.227 -72.779)" fill="#263238"/>
          <path id="Trazado_601867" data-name="Trazado 601867" d="M560.478,161.352c.122-2.055.212-3.678.2-3.678,0,0-7-1.2-6.969-8.218.013-3.387.608-10.359,1.219-16.663a13.07,13.07,0,0,1,13.22-11.807l.677.011c7.289.544,10.9,7.039,10.153,14.31l-1.8,25.517-5.361,5.552a6.6,6.6,0,0,1-11.336-5.022" transform="translate(-304.127 -66.451)" fill="#ffc09d"/>
          <path id="Trazado_601868" data-name="Trazado 601868" d="M569.019,199.275a16.943,16.943,0,0,0,9.174-2.552s-2.309,5.064-9.3,4.319Z" transform="translate(-312.471 -108.052)" fill="#ff9b6c"/>
          <path id="Trazado_601869" data-name="Trazado 601869" d="M560.088,159.815a1,1,0,0,0,.949,1.026.959.959,0,0,0,1.047-.887,1,1,0,0,0-.948-1.026.958.958,0,0,0-1.048.887" transform="translate(-307.631 -87.291)" fill="#263238"/>
          <path id="Trazado_601870" data-name="Trazado 601870" d="M559.612,152.436c.122.133.89-.416,1.968-.4,1.077,0,1.859.572,1.977.442.059-.057-.064-.3-.4-.552a2.749,2.749,0,0,0-1.581-.515,2.638,2.638,0,0,0-1.569.479c-.335.249-.452.483-.391.543" transform="translate(-307.363 -83.166)" fill="#263238"/>
          <path id="Trazado_601871" data-name="Trazado 601871" d="M581.4,161.138a1,1,0,0,0,.949,1.026.958.958,0,0,0,1.047-.886,1,1,0,0,0-.948-1.027.959.959,0,0,0-1.048.887" transform="translate(-319.338 -88.018)" fill="#263238"/>
          <path id="Trazado_601872" data-name="Trazado 601872" d="M581.857,153.64c.122.133.891-.417,1.968-.4,1.076,0,1.858.572,1.977.442.059-.058-.063-.3-.4-.552a2.752,2.752,0,0,0-1.58-.516,2.644,2.644,0,0,0-1.569.479c-.334.249-.451.483-.392.543" transform="translate(-319.581 -83.827)" fill="#263238"/>
          <path id="Trazado_601873" data-name="Trazado 601873" d="M570.83,162.328a7.124,7.124,0,0,0-1.745-.344c-.274-.032-.534-.092-.577-.28a1.4,1.4,0,0,1,.2-.813l.847-2.082a36.08,36.08,0,0,0,1.917-5.451,35.973,35.973,0,0,0-2.351,5.284c-.284.732-.555,1.428-.814,2.1a1.593,1.593,0,0,0-.16,1.078.688.688,0,0,0,.445.41,1.868,1.868,0,0,0,.466.073,7.019,7.019,0,0,0,1.774.031" transform="translate(-312.031 -84.232)" fill="#263238"/>
          <path id="Trazado_601874" data-name="Trazado 601874" d="M582.2,145.413c.15.274,1.192-.027,2.465-.068,1.272-.067,2.336.143,2.462-.142.055-.136-.163-.381-.614-.6a4.288,4.288,0,0,0-3.753.16c-.43.256-.627.519-.56.649" transform="translate(-319.768 -79.229)" fill="#263238"/>
          <path id="Trazado_601875" data-name="Trazado 601875" d="M560.444,144c.186.248.932.005,1.825.008.893-.029,1.646.191,1.824-.062.078-.123-.037-.37-.363-.607a2.642,2.642,0,0,0-2.941.044c-.319.246-.427.5-.345.618" transform="translate(-307.813 -78.498)" fill="#263238"/>
          <path id="Trazado_601876" data-name="Trazado 601876" d="M607.839,164.019c.12-.05,4.841-1.347,4.611,3.445s-4.994,3.572-5,3.434.385-6.878.385-6.878" transform="translate(-333.648 -89.981)" fill="#ffc09d"/>
          <path id="Trazado_601877" data-name="Trazado 601877" d="M610.89,171.08c.021-.014.08.062.218.134a.836.836,0,0,0,.623.043,2.066,2.066,0,0,0,1.045-1.807,2.764,2.764,0,0,0-.176-1.206.966.966,0,0,0-.6-.671.425.425,0,0,0-.5.205c-.071.131-.045.228-.071.235s-.1-.085-.05-.281a.533.533,0,0,1,.2-.291.632.632,0,0,1,.467-.1,1.175,1.175,0,0,1,.836.785,2.837,2.837,0,0,1,.225,1.35,2.169,2.169,0,0,1-1.318,2.011.9.9,0,0,1-.757-.164c-.143-.125-.163-.233-.146-.242" transform="translate(-335.533 -91.908)" fill="#ff9b6c"/>
          <path id="Trazado_601878" data-name="Trazado 601878" d="M564.121,124.051c-.751-.472,1.719-2.85,3.673-3.605,2.953-1.142,7.4-1.7,10.007-.792,3.144,1.089,5.709,2.83,7.147,5.83a18.867,18.867,0,0,1,1.566,9.739,5.73,5.73,0,0,1-.841,2.888c-.729,1.02-2.051,1.615-2.078,3.079a2.009,2.009,0,0,1-.581,1.433c-.929.883-1.952-.055-2.394-.961a13.878,13.878,0,0,1-.906-6.337,14.024,14.024,0,0,1,.562-4.538c.28-.785.7-1.518.935-2.317a2.882,2.882,0,0,0-.2-2.41,2.976,2.976,0,0,0-.366-.416,5,5,0,0,0-4.9-1.226c-2.752.8-7.439,1.963-8.59.979a7.39,7.39,0,0,1-2.021-2.3Z" transform="translate(-309.772 -65.473)" fill="#263238"/>
          <path id="Trazado_601879" data-name="Trazado 601879" d="M574.591,178.692c0,.085.237.192.653.18a2.855,2.855,0,0,0,2.469-1.826c.133-.394.1-.657.019-.677-.183-.045-.518.8-1.381,1.419-.841.643-1.751.716-1.761.9" transform="translate(-315.598 -96.871)" fill="#263238"/>
          <path id="Trazado_601880" data-name="Trazado 601880" d="M468.262,235.121c-.981-1.613-2.146-3.372-2.146-3.372l-.952-1.618a2.091,2.091,0,0,0-.216.308,1.406,1.406,0,0,1-.456.537,1.12,1.12,0,0,1-1.235-.3,2.74,2.74,0,0,1-.827-2.58,2.7,2.7,0,0,1,1.744-1.926,1.982,1.982,0,0,1,.495-.593c1.368-1.111,3.816-.356,3.816-.356l-.254-.613s-1.46-1.443-4.683-.313a2.1,2.1,0,0,1-1.491-.019,1.068,1.068,0,0,1-.656-.632c-.255-.791.239-1.173,2.241-1.905s4.18-.777,5.38.008a14.259,14.259,0,0,1,1.619,1.169s-1.969-5.659-2.079-6.022c-.319-1.05-.116-2.07.565-2.346.437-.177,1.12-.078,1.529,1.134.354,1.048,5.347,11.339,5.347,11.339l1.942,4.681.974,4.12-7.012,1.976-.507-.17a5.865,5.865,0,0,1-3.139-2.507" transform="translate(-253.395 -117.804)" fill="#ffc09d"/>
          <path id="Trazado_601881" data-name="Trazado 601881" d="M485.566,245.765a1.569,1.569,0,0,1-1.8-.3c-.5-.421-.843-1-1.312-1.451-1.4-1.36-3.709-1.469-5.043-2.893-.186-.2-.353-.5-.2-.723.143-.206.45-.182.7-.135l6.351,1.193" transform="translate(-262.081 -131.951)" fill="#ffc09d"/>
          <path id="Trazado_601882" data-name="Trazado 601882" d="M484.041,241.241a2.609,2.609,0,0,0-.674-.2c-.439-.1-1.075-.244-1.862-.409l-2.77-.56-.8-.157a1.28,1.28,0,0,0-.966.041.537.537,0,0,0-.2.574,1.118,1.118,0,0,0,.256.462,4.259,4.259,0,0,0,.723.622,25.009,25.009,0,0,0,3.155,1.479,4.919,4.919,0,0,1,1.215.806c.331.311.593.667.869.97a2.293,2.293,0,0,0,1.693.923c.486-.014.68-.243.664-.247a1.875,1.875,0,0,1-.66.1,2.221,2.221,0,0,1-1.5-.949c-.254-.3-.5-.67-.854-1.019a5.069,5.069,0,0,0-1.275-.89,29.09,29.09,0,0,1-3.1-1.478,4.012,4.012,0,0,1-.656-.559c-.181-.2-.247-.439-.12-.507.126-.1.418-.041.69.013l.8.145,2.784.483c.794.133,1.437.233,1.883.294a2.6,2.6,0,0,0,.7.059" transform="translate(-261.858 -131.732)" fill="#ff9b6c"/>
          <path id="Trazado_601883" data-name="Trazado 601883" d="M468.549,235.928a2.677,2.677,0,0,0-.743-.969,2.073,2.073,0,0,0-1.23-.39,5.262,5.262,0,0,0-1.609.285,8.373,8.373,0,0,1-1.651.389,2.725,2.725,0,0,1-1.394-.2,1.064,1.064,0,0,1-.6-.733.617.617,0,0,1,0-.347c.023,0,.023.123.087.323a1.006,1.006,0,0,0,.585.6,2.707,2.707,0,0,0,1.3.136,9.28,9.28,0,0,0,1.6-.4,5.109,5.109,0,0,1,1.684-.276,2.176,2.176,0,0,1,1.328.476,1.937,1.937,0,0,1,.563.763.662.662,0,0,1,.076.337" transform="translate(-253.372 -128.505)" fill="#ff9b6c"/>
          <path id="Trazado_601884" data-name="Trazado 601884" d="M477.1,218.933a6.712,6.712,0,0,1,.4,1.123l.891,2.725.932,2.712a6.694,6.694,0,0,1,.358,1.135,5.347,5.347,0,0,1-.515-1.077c-.284-.68-.643-1.632-1-2.7s-.644-2.04-.827-2.753a5.326,5.326,0,0,1-.238-1.168" transform="translate(-262.047 -120.25)" fill="#ff9b6c"/>
          <path id="Trazado_601885" data-name="Trazado 601885" d="M470.783,241.6a1.451,1.451,0,0,1-.373-.019,1.1,1.1,0,0,0-.887.247.584.584,0,0,0-.134.567,3.149,3.149,0,0,0,.3.716,1.334,1.334,0,0,1,.167.933,1.125,1.125,0,0,1-.713.734,1.3,1.3,0,0,1-1.019-.091,1.633,1.633,0,0,1-.687-.65,5.245,5.245,0,0,1-.469-1.459,3.051,3.051,0,0,1-.028-1.029.673.673,0,0,1,.137-.352c.02.008-.028.131-.046.364a3.623,3.623,0,0,0,.1.986,5.632,5.632,0,0,0,.5,1.385,1.29,1.29,0,0,0,1.433.624.9.9,0,0,0,.57-.574,1.137,1.137,0,0,0-.14-.777,3.18,3.18,0,0,1-.3-.773.761.761,0,0,1,.21-.723,1.155,1.155,0,0,1,1.016-.218.982.982,0,0,1,.362.11" transform="translate(-256.454 -132.481)" fill="#ff9b6c"/>
          <path id="Trazado_601886" data-name="Trazado 601886" d="M466.072,244.192c.01-.005.082.1.077.331a1.024,1.024,0,0,1-.461.8,1.386,1.386,0,0,1-1.373.027,2.284,2.284,0,0,1-1.061-1.31,2.721,2.721,0,0,1-.028-1.674,2.587,2.587,0,0,1,.738-1.146,2.457,2.457,0,0,1,.78-.48.7.7,0,0,1,.327-.073,4.262,4.262,0,0,0-.99.674,2.544,2.544,0,0,0-.645,1.088,2.587,2.587,0,0,0,.043,1.536,2.119,2.119,0,0,0,.936,1.192,1.233,1.233,0,0,0,1.184.024.971.971,0,0,0,.459-.667c.032-.2-.005-.316.015-.321" transform="translate(-254.365 -132.185)" fill="#ff9b6c"/>
          <path id="Trazado_601887" data-name="Trazado 601887" d="M481.211,250.049a.968.968,0,0,1,.545-.171,2.263,2.263,0,0,1,1.424.325l-.172.119a6.66,6.66,0,0,1-.131-.8,5.068,5.068,0,0,1,.368-2.754,12.823,12.823,0,0,0-.132,2.731c.028.273.069.534.117.773l.053.265-.225-.147a2.376,2.376,0,0,0-1.294-.373c-.343,0-.545.059-.554.029" transform="translate(-264.308 -135.54)" fill="#ff9b6c"/>
          <path id="Trazado_601888" data-name="Trazado 601888" d="M472.057,232.7c.063.009-.019.488-.445.866s-.911.411-.912.348.386-.19.753-.525.54-.711.6-.689" transform="translate(-258.535 -127.813)" fill="#ff9b6c"/>
          <path id="Trazado_601889" data-name="Trazado 601889" d="M516.779,213.791s-3.568.431-3.958.455c-3.01.185-7.921,1.963-10.228,6.271-1.683,3.142-4.888,15.936-5.746,19.393l-1.243,4.073-7.519-11.932-10.689,6.1s11.106,26.87,18.294,26.867,10.522-7.176,10.522-7.176l-.111-16.16Z" transform="translate(-262.213 -117.426)" fill="#e0e0e0"/>
          <path id="Trazado_601890" data-name="Trazado 601890" d="M534.785,238.705a1.411,1.411,0,0,0-.031.362c-.005.277-.012.62-.02,1.038-.013.9,0,2.206.027,3.817.058,3.222.254,7.671.529,12.578s.51,9.351.631,12.569c.058,1.571.1,2.861.138,3.811.018.418.033.76.046,1.037a1.465,1.465,0,0,0,.039.361,1.4,1.4,0,0,0,.031-.362c.006-.276.013-.619.02-1.038.013-.9,0-2.205-.027-3.816-.059-3.223-.255-7.672-.529-12.58s-.51-9.349-.631-12.567c-.058-1.571-.1-2.861-.138-3.811-.018-.418-.033-.76-.046-1.037a1.467,1.467,0,0,0-.039-.361" transform="translate(-293.703 -131.111)" fill="#263238"/>
          <path id="Trazado_601891" data-name="Trazado 601891" d="M641.418,230.514c-1.826-8.165-10.85-10.432-10.85-10.432L627.5,249.555l1.9,4.784,16.148-3.486s-1.842-10.1-4.132-20.337" transform="translate(-344.66 -120.882)" fill="#e0e0e0"/>
          <path id="Trazado_601892" data-name="Trazado 601892" d="M616.9,268.951l6.035,5.815-1.95-11.123,12.248-3.874s3.253,15.264,3.819,18.875c1.015,6.479-.231,15.687-6.268,16.334-6.531.7-11.462-5.74-14.6-9.967-2.413-3.249-6.306-8.931-6.306-8.931Z" transform="translate(-334.982 -142.681)" fill="#e0e0e0"/>
          <path id="Trazado_601893" data-name="Trazado 601893" d="M582.664,254.616l-.476-13.846.722-32.084-12.864-5.85-1.7-5.034-14.384,6.409-2.885-3.023-1.665,3.234-5.124,1.158L540.1,217.416l-3.549,9.32s1.024,32.322,1.907,44.177c.116,1.555-1.907,2.232.336,3.966,0,0,3.367,1.977,10.666,2.167,20.768.542,33.527-2.774,34.206-3.079a4.275,4.275,0,0,0,1.264-3.577c-.062-.49-.164-1.019-.259-1.687Z" transform="translate(-294.705 -108.644)" fill="#e0e0e0"/>
          <path id="Trazado_601894" data-name="Trazado 601894" d="M562.486,291.967a.6.6,0,0,1-.027-.177c-.011-.143-.024-.314-.039-.523l-.114-2.013c-.079-1.786-.191-4.307-.328-7.405-.233-6.255-.529-14.9-.431-24.463.058-4.781.219-9.341.676-13.47.477-4.125,1.185-7.792,1.824-10.857s1.242-5.525,1.656-7.224l.491-1.954c.055-.2.1-.368.137-.505a.629.629,0,0,1,.06-.169.6.6,0,0,1-.021.178c-.027.14-.06.309-.1.515l-.42,1.971c-.368,1.71-.921,4.181-1.534,7.247s-1.283,6.734-1.737,10.839c-.435,4.106-.585,8.658-.644,13.431-.1,9.547.155,18.192.317,24.448.086,3.1.155,5.623.2,7.41q.025,1.271.04,2.016c0,.21,0,.382,0,.525a.638.638,0,0,1-.013.179" transform="translate(-308.423 -122.598)" fill="#263238"/>
          <path id="Trazado_601895" data-name="Trazado 601895" d="M582.107,256.415a6.539,6.539,0,0,1,.852.025l2.486.149,9.059.62.172.012-.013.174c-.313,4.151-.688,9.118-1.093,14.483l-.007.1-.077.056c-.424.307-.883.618-1.354.924a26.5,26.5,0,0,1-2.547,1.476,7.5,7.5,0,0,1-2.761.888,5.5,5.5,0,0,1-2.738-.634,12,12,0,0,1-2.215-1.481c-.333-.275-.654-.556-.96-.842a1.864,1.864,0,0,1-.43-.519,2.758,2.758,0,0,1-.241-.608,9.32,9.32,0,0,1-.222-2.389,34.488,34.488,0,0,1,.382-4.23c.374-2.565.819-4.613,1.137-6.025.162-.705.3-1.25.4-1.618a2.9,2.9,0,0,1,.173-.556,3.164,3.164,0,0,1-.091.575c-.081.414-.187.957-.319,1.633-.27,1.419-.669,3.473-1,6.031a35.361,35.361,0,0,0-.329,4.192,9.074,9.074,0,0,0,.229,2.287,1.773,1.773,0,0,0,.572.949q.456.421.948.821a11.68,11.68,0,0,0,2.148,1.421,5.114,5.114,0,0,0,2.538.584,7.159,7.159,0,0,0,2.6-.852A26.705,26.705,0,0,0,591.9,272.6c.464-.3.922-.612,1.334-.911l-.085.152c.432-5.363.832-10.327,1.166-14.477l.158.185-8.947-.785-2.514-.241-.669-.073a1.261,1.261,0,0,1-.24-.039" transform="translate(-318.579 -140.834)" fill="#263238"/>
          <path id="Trazado_601896" data-name="Trazado 601896" d="M595.954,265.6a103.193,103.193,0,0,1-13.1-1.021,103.171,103.171,0,0,1,13.1,1.021" transform="translate(-320.137 -145.301)" fill="#263238"/>
          <g id="Grupo_878570" data-name="Grupo 878570" transform="translate(262.091 130.969)" opacity="0.3">
            <g id="Grupo_878569" data-name="Grupo 878569">
              <g id="Grupo_878568" data-name="Grupo 878568" clip-path="url(#clip-path-14)">
                <path id="Trazado_601897" data-name="Trazado 601897" d="M581.464,290.563a19.789,19.789,0,0,0,2.332,3.726,5.71,5.71,0,0,0,3.581,1.781,5.872,5.872,0,0,0,3.4-1.01,8.975,8.975,0,0,0,3.385-4.441c.1-.131-2.35,1.506-3.683,2.215a6,6,0,0,1-3.771.81c-1.973-.16-3.742-1.787-5.239-3.082" transform="translate(-581.464 -290.563)"/>
              </g>
            </g>
          </g>
          <g id="Grupo_878573" data-name="Grupo 878573" transform="translate(259.496 94.669)" opacity="0.3">
            <g id="Grupo_878572" data-name="Grupo 878572">
              <g id="Grupo_878571" data-name="Grupo 878571" clip-path="url(#clip-path-15)">
                <path id="Trazado_601898" data-name="Trazado 601898" d="M575.708,211.859l.526,6.744,14.316-8.572-13.811,7.287Z" transform="translate(-575.708 -210.03)"/>
              </g>
            </g>
          </g>
          <path id="Trazado_601899" data-name="Trazado 601899" d="M561.36,232.1a230.838,230.838,0,0,0-5.24,34.209c-.6,7.993-1.052,18.584-1.052,18.584l4.638,5.744,5.543-5.5s-1.128-22.99-1.1-30.694c.019-6.2-.232-22.212-.232-22.212Z" transform="translate(-304.875 -127.485)" fill="#583cb6"/>
          <path id="Trazado_601900" data-name="Trazado 601900" d="M630.474,254.3a3.81,3.81,0,0,1,.146.641l.318,1.759,1,5.811c.4,2.269.733,4.328.954,5.821.112.746.2,1.351.251,1.77a3.787,3.787,0,0,1,.062.654,3.8,3.8,0,0,1-.146-.641c-.082-.453-.19-1.045-.319-1.759-.267-1.524-.623-3.559-1.016-5.809-.392-2.27-.714-4.33-.936-5.823-.1-.718-.185-1.313-.25-1.77a3.808,3.808,0,0,1-.062-.654" transform="translate(-346.29 -139.678)" fill="#263238"/>
          <path id="Trazado_601901" data-name="Trazado 601901" d="M635.123,224.008c.024.031-.425.38-1.059,1.034a12.812,12.812,0,0,0-3.321,6.178c-.2.89-.239,1.456-.278,1.453a1.4,1.4,0,0,1,0-.4,8.223,8.223,0,0,1,.13-1.083,11.551,11.551,0,0,1,3.363-6.257,8.245,8.245,0,0,1,.832-.706,1.412,1.412,0,0,1,.336-.218" transform="translate(-346.281 -123.037)" fill="#263238"/>
          <path id="Trazado_601902" data-name="Trazado 601902" d="M571.921,218.549l-1.437-.318-1.4,2.516-.059,3.738,2.552.129,1.582-2.964Z" transform="translate(-312.543 -119.865)" fill="#583cb6"/>
          <path id="Trazado_601903" data-name="Trazado 601903" d="M570.971,232.658c-.032.051-.388-.116-.794-.372s-.71-.506-.678-.557.388.116.794.373.709.505.678.556" transform="translate(-312.801 -127.274)" fill="#263238"/>
          <path id="Trazado_601904" data-name="Trazado 601904" d="M571.425,226.563a20.614,20.614,0,0,1-1.7-3.872,20.56,20.56,0,0,1,1.7,3.872" transform="translate(-312.922 -122.315)" fill="#263238"/>
          <g id="Grupo_878576" data-name="Grupo 878576" transform="translate(274.668 135.865)" opacity="0.3">
            <g id="Grupo_878575" data-name="Grupo 878575">
              <g id="Grupo_878574" data-name="Grupo 878574" clip-path="url(#clip-path-16)">
                <path id="Trazado_601905" data-name="Trazado 601905" d="M610.934,303.479a34.373,34.373,0,0,1,5,5.915c1.044,1.822,4,4.255,7.33,6.384l.519,3.647c-1.847-.367-5.089-2.768-6.339-4.176a26.864,26.864,0,0,1-3.489-4.523c-1.684-3.01-4-5.9-4.588-9.3Z" transform="translate(-609.367 -301.425)"/>
              </g>
            </g>
          </g>
          <path id="Trazado_601906" data-name="Trazado 601906" d="M622.221,301.321a1.929,1.929,0,0,0-.311-.238c-.205-.153-.529-.348-.916-.645a34.215,34.215,0,0,1-3.144-2.74,92.35,92.35,0,0,1-9.2-10.838l.02.165,2.042-4.946c.852-2.072,1.677-4.081,2.448-5.958l-.265.064,14.4,12.182a1.323,1.323,0,0,0-.239-.278c-.171-.169-.428-.415-.768-.724-.677-.622-1.678-1.511-2.94-2.617-2.526-2.212-6.1-5.291-10.238-8.82l-.176-.15-.088.215c-.775,1.876-1.6,3.883-2.459,5.953l-2.035,4.95-.037.089.056.076a85.454,85.454,0,0,0,9.321,10.8,29.728,29.728,0,0,0,3.227,2.677c.4.284.737.464.953.6a1.846,1.846,0,0,0,.344.185" transform="translate(-334.124 -151.473)" fill="#263238"/>
          <path id="Trazado_601907" data-name="Trazado 601907" d="M530.852,249.926l5.037,19.026a2.367,2.367,0,0,0,2.334,1.761l26.08-.512a2.366,2.366,0,0,0,2.269-2.854l-3.841-18.222a2.366,2.366,0,0,0-2.315-1.878h-27.5a2.134,2.134,0,0,0-2.062,2.68" transform="translate(-291.535 -135.802)" fill="#263238"/>
          <path id="Trazado_601908" data-name="Trazado 601908" d="M566.041,270.451a.512.512,0,0,1-.039-.123c-.023-.1-.053-.217-.091-.368l-.326-1.419-1.156-5.229c-.481-2.215-1.051-4.843-1.684-7.761-.315-1.462-.645-3-.987-4.585a1.061,1.061,0,0,0-.673-.824,1.445,1.445,0,0,0-.573-.066h-3.182l-17.669-.035-5.354-.037-1.456-.022-.379-.011a.065.065,0,1,1,0-.024l.379-.011,1.456-.022,5.354-.037,17.669-.034h3.182a1.667,1.667,0,0,1,.655.081,1.3,1.3,0,0,1,.816.993l.974,4.588,1.635,7.771,1.083,5.244.283,1.428c.028.153.05.275.068.373a.535.535,0,0,1,.015.128" transform="translate(-292.394 -137.228)" fill="#455a64"/>
          <path id="Trazado_601909" data-name="Trazado 601909" d="M567.261,260.37a1.355,1.355,0,1,1-1.773-.907,1.411,1.411,0,0,1,1.773.907" transform="translate(-310.126 -142.469)" fill="#e0e0e0"/>
          <path id="Trazado_601910" data-name="Trazado 601910" d="M605.046,269.589l-1.239-1.157a14.353,14.353,0,0,0-1.34-3.249,5.728,5.728,0,0,0-1.906-.9l-3.114-2.86.567,2.551-4.518-.033a1.285,1.285,0,0,0-1.23.789.512.512,0,0,0-.039.247,1.651,1.651,0,0,0,.9,1.183l.649.306a1.533,1.533,0,0,0-1.065,1.109,1.414,1.414,0,0,0,.941,1.523,1.251,1.251,0,0,0-.472,1.828s-1.034,1.226-.436,2.055,4.025,2.219,4.025,2.219l1.9.863a3.217,3.217,0,0,0,1.424.08l.742.1.792.657s4.534-2.476,3.414-7.312" transform="translate(-325.284 -143.587)" fill="#ffc09d"/>
          <path id="Trazado_601911" data-name="Trazado 601911" d="M601.573,273.512a3.423,3.423,0,0,1-1.027.009,19.248,19.248,0,0,1-4.84-.977,3.434,3.434,0,0,1-.942-.407c.027-.077,1.507.41,3.385.785s3.429.509,3.424.59" transform="translate(-326.678 -149.469)" fill="#ff9b6c"/>
          <path id="Trazado_601912" data-name="Trazado 601912" d="M603.164,280.535a59.746,59.746,0,0,1-7.761-2.1,59.526,59.526,0,0,1,7.761,2.1" transform="translate(-327.029 -152.931)" fill="#ff9b6c"/>
          <path id="Trazado_601913" data-name="Trazado 601913" d="M602.06,285.382a4.83,4.83,0,0,1-1.252-.162,20.087,20.087,0,0,1-5.7-2.112,4.829,4.829,0,0,1-1.055-.693,7.3,7.3,0,0,1,1.144.523c.7.337,1.669.778,2.774,1.189s2.131.709,2.878.907a7.352,7.352,0,0,1,1.208.349" transform="translate(-326.288 -155.116)" fill="#ff9b6c"/>
          <path id="Trazado_601914" data-name="Trazado 601914" d="M613.225,278.636c-.075-.027.071-.531-.037-1.142s-.4-1.044-.335-1.092c.046-.056.49.35.6,1.048a1.341,1.341,0,0,1-.23,1.186" transform="translate(-336.609 -151.813)" fill="#ff9b6c"/>
          <path id="Trazado_601915" data-name="Trazado 601915" d="M613.785,272.209c-.051-.058.183-.336.219-.756.051-.419-.122-.739-.06-.785.028-.021.119.036.2.18a1.094,1.094,0,0,1-.126,1.226c-.114.124-.215.161-.237.135" transform="translate(-337.122 -148.664)" fill="#ff9b6c"/>
          <path id="Trazado_601916" data-name="Trazado 601916" d="M613.106,286.91c-.058-.052.119-.332.226-.709s.116-.707.193-.719.2.352.068.8-.438.686-.487.633" transform="translate(-336.747 -156.802)" fill="#ff9b6c"/>
          <path id="Trazado_601917" data-name="Trazado 601917" d="M597.631,266.856a113.462,113.462,0,0,0,5.289.373,11.215,11.215,0,0,0-5.289-.373" transform="translate(-328.253 -146.481)" fill="#ff9b6c"/>
          <path id="Trazado_601918" data-name="Trazado 601918" d="M565.651,211.452a1.772,1.772,0,0,1,.128.314c.082.231.189.535.324.916.281.824.672,1.976,1.152,3.392l-.153-.014L569.788,211l.138-.261.066.289,1.27,5.6c.024.1.047.209.069.305l-.169-.078,10.068-5.272,3.053-1.569.834-.416a1.738,1.738,0,0,1,.3-.131,1.715,1.715,0,0,1-.277.173l-.814.454-3.019,1.635-10.035,5.335-.136.072-.034-.15-.069-.305-1.256-5.605.2.028-2.731,5.036-.094.174-.059-.187-1.081-3.415-.282-.93a1.862,1.862,0,0,1-.083-.329" transform="translate(-310.688 -115.052)" fill="#263238"/>
        </g>
      </g>
    </g>
  </g>
</svg>
