<svg xmlns="http://www.w3.org/2000/svg" width="82.563" height="82.563" viewBox="0 0 82.563 82.563">
  <g id="Grupo_930467" data-name="Grupo 930467" transform="translate(0.444 -0.103)">
    <rect id="Rectángulo_305741" data-name="Rectángulo 305741" width="82.563" height="82.563" transform="translate(-0.444 0.103)" fill="none"/>
    <g id="Grupo_930470" data-name="Grupo 930470" transform="translate(8.79 8.723)">
      <path id="Trazado_612027" data-name="Trazado 612027" d="M982.068,529.061c-.746-.192-.924-.406-.928-1.2-.008-1.879-.022-3.758.01-5.636.008-.483-.123-.583-.589-.582-4.793.019-9.586,0-14.378.021a2.569,2.569,0,0,1-2.374-1.268c-.838-1.315-1.708-2.61-2.6-3.892a2.389,2.389,0,0,1-.017-2.985c.921-1.336,1.815-2.691,2.706-4.047a2.346,2.346,0,0,1,2.123-1.132c1.457.015,2.914,0,4.37.005.777,0,1.031.22,1.2,1a1.071,1.071,0,0,1-1.23.908c-1.408-.021-2.817,0-4.225-.009a.658.658,0,0,0-.651.273c-.844,1.3-1.7,2.6-2.552,3.894-.412.351-.4.687-.085,1.135.86,1.224,1.679,2.477,2.494,3.732a.91.91,0,0,0,.862.486q7.183-.024,14.367,0c.547,0,.676-.179.523-.659.012-2.839.018-5.678.042-8.517,0-.423-.265-.341-.5-.341-1.789,0-3.578-.014-5.367.005a1.069,1.069,0,0,1-1.225-.913c.176-.78.426-.993,1.207-.995,1.775,0,3.549-.013,5.324.008.412,0,.578-.056.574-.531-.025-2.852-.018-5.7-.005-8.555a.593.593,0,0,0-.412-.657,2.306,2.306,0,0,1-1.472-2.109,8.257,8.257,0,0,1,.015-1.327,2.4,2.4,0,0,1,2.342-2.158q2.376-.042,4.753,0a2.413,2.413,0,0,1,2.342,2.163,6.144,6.144,0,0,1,0,1.517,2.471,2.471,0,0,1-1.225,1.825c-.215.136-.609.074-.626.434a10.552,10.552,0,0,0,.025,1.707c.03.257.358.141.55.141,2.3.008,4.606,0,6.908.006.852,0,1.03.136,1.276.925-.228.8-.418.958-1.245.965-2.28.019-4.56.029-6.84.043-.549-.13-.728.067-.723.645q.043,4.083,0,8.166c-.007.578.181.7.722.695q7.027-.03,14.055,0a1.055,1.055,0,0,0,1.159-.739c.836-1.239,1.666-2.482,2.513-3.713a.572.572,0,0,0-.042-.74c-.883-1.309-1.765-2.62-2.625-3.945a.8.8,0,0,0-.783-.4c-.822.019-1.644.016-2.466,0-.79-.012-1.022-.208-1.236-.982a1.045,1.045,0,0,1,1.21-.932c.908.023,1.816.01,2.725,0a2.258,2.258,0,0,1,2.017,1.091q1.394,2.111,2.807,4.21a2.243,2.243,0,0,1-.011,2.713c-.883,1.312-1.781,2.615-2.62,3.955a2.712,2.712,0,0,1-2.529,1.354c-4.668-.023-9.336-.013-14-.007-.995,0-.843-.149-.852.881-.009,1.014,0,1.014.981,1.014,4.647,0,9.293.014,13.94-.011a2.607,2.607,0,0,1,2.427,1.291c.846,1.336,1.737,2.643,2.626,3.95a2.3,2.3,0,0,1,.007,2.823c-.887,1.309-1.783,2.613-2.625,3.951a2.671,2.671,0,0,1-2.485,1.316c-4.731-.02-9.462,0-14.193-.022-.556,0-.7.128-.7.692.034,2.534.023,5.068.006,7.6,0,.4.076.55.51.53.843-.037,1.689-.019,2.534-.009a1.587,1.587,0,0,1,1.715,1.688c.012.781,0,1.563,0,2.344a1.486,1.486,0,0,1-.622,1.317.762.762,0,0,0-.333.746c.011,1.267.008,2.534,0,3.8a.7.7,0,0,0,.3.7,1.512,1.512,0,0,1,.651,1.367c-.008.507.04,1.018-.013,1.519-.056.531.167.6.63.6,2.872-.02,5.745-.012,8.617-.009.782,0,1.03.21,1.213.989-.25.77-.457.912-1.355.912H955.154c-.274,0-.548.015-.822.023-.891-.052-.891-.052-.891.815a1.825,1.825,0,0,1,0,.316c-.109.606.123.76.74.759q29.762-.028,59.524-.015c.867,0,.867,0,.816-.891.06-1.009.06-1.009-.944-1.009-2.555,0-5.109-.016-7.663.011-.715.008-1.182-.218-1.358-.933.256-.822.459-.978,1.3-.979q4.371,0,8.743,0a1.627,1.627,0,0,1,1.846,1.813c0,.739.012,1.478,0,2.217a1.591,1.591,0,0,1-1.669,1.673c-.148,0-.3,0-.443,0H953.635c-1.559,0-2.1-.532-2.1-2.071,0-.612,0-1.225,0-1.837a1.614,1.614,0,0,1,1.8-1.8q6.431-.006,12.861,0c3.168,0,6.336-.019,9.5.017.608.007.74-.186.693-.731-.044-.5-.01-1.013-.007-1.52a1.281,1.281,0,0,1,.5-1.112,1.07,1.07,0,0,0,.449-1.076c-.015-1.182-.011-2.365,0-3.547a.756.756,0,0,0-.331-.747,1.434,1.434,0,0,1-.621-1.252c0-.823-.014-1.647,0-2.47a1.573,1.573,0,0,1,1.645-1.628c.887-.016,1.774-.021,2.661,0,.364.011.456-.1.452-.459-.019-1.626,0-3.252-.013-4.877a1.116,1.116,0,0,1,.948-1.274,1.151,1.151,0,0,1,.949,1.341c-.038,1.328-.011,2.658-.011,3.987,0,1.282,0,1.25,1.3,1.29.659.02.769-.237.589-.782.008-.273.022-.547.022-.821q0-18.352,0-36.7c0-1.031,0-1.031-1.058-.983-.85-.045-.85-.045-.85.811q0,14.015,0,28.03C983.017,528.682,982.888,528.862,982.068,529.061Zm-2.129,14.793c-.587-.151-.763.078-.728.668.05.839.013,1.683.013,2.525,0,1.372,0,1.345,1.377,1.373.561.011.658-.195.5-.661.011-.925.027-1.85.031-2.776C981.141,543.806,981.137,543.806,979.938,543.854Zm8.789,3.91c.005-.843.014-1.685.015-2.528,0-1.48,0-1.469-1.517-1.407-.309.012-.39.1-.385.4.02,1.18.017,2.36.022,3.539-.173.472-.062.716.493.661a4.44,4.44,0,0,1,.881,0C988.79,548.481,988.9,548.235,988.727,547.764Zm-3.8,0c.005-.843.014-1.685.015-2.528,0-1.48,0-1.469-1.517-1.407-.309.012-.39.1-.385.4.02,1.18.017,2.36.022,3.539-.173.472-.062.716.492.661a4.44,4.44,0,0,1,.88,0C984.987,548.481,985.1,548.235,984.924,547.764Zm-5.873,2.562c-.594-.143-.869.057-.768.694a1.873,1.873,0,0,1,0,.569c-.078.507.133.627.624.624,3.357-.021,6.714-.028,10.07,0,.636.006.837-.184.694-.778.007-.252,0-.506.026-.757.031-.318-.118-.385-.405-.383Q984.172,550.32,979.051,550.326Zm0-10.267c-.594-.143-.869.057-.768.694a1.874,1.874,0,0,1,0,.569c-.078.507.133.627.624.624,3.357-.021,6.714-.028,10.07,0,.636.006.837-.184.694-.778.007-.252,0-.506.026-.757.031-.318-.118-.385-.405-.384Q984.172,540.053,979.051,540.059Zm23.691-13.336c.838-1.24,1.668-2.485,2.518-3.717a.569.569,0,0,0-.048-.74c-.851-1.258-1.706-2.514-2.522-3.794a1.052,1.052,0,0,0-1.02-.556c-3.126.022-6.251.008-9.377.013-1.625,0-3.251.021-4.876.031-.527-.192-.6.084-.594.529.012,2.741.021,5.483-.006,8.223-.006.563.121.748.723.745q7.022-.04,14.045,0A1.043,1.043,0,0,0,1002.742,526.723Zm-18.785-29.789c.7,0,1.391-.017,2.085.005.571.019.815-.242.8-.793-.006-.189.005-.379,0-.569-.013-.425-.213-.668-.661-.667q-2.18,0-4.36,0a.594.594,0,0,0-.667.659c-.005.189,0,.379,0,.568-.023.551.215.818.788.8C982.608,496.918,983.282,496.935,983.956,496.935Z" transform="translate(-951.536 -492.996)" fill="#030302"/>
      <path id="Trazado_612028" data-name="Trazado 612028" d="M1007.536,557.356a1.069,1.069,0,0,0,1.225.913c1.789-.019,3.578-.007,5.367-.005.238,0,.506-.082.5.341-.024,2.839-.03,5.678-.042,8.518q-7.177.006-14.354.015a1.136,1.136,0,0,1-1.047-.564c-.905-1.392-1.837-2.766-2.759-4.146.852-1.3,1.708-2.592,2.552-3.894a.658.658,0,0,1,.651-.273c1.409.006,2.817-.012,4.226.009a1.071,1.071,0,0,0,1.23-.908Zm.756,4.709c1.077,0,2.154.005,3.231,0,.716,0,1.159-.4,1.139-.981-.019-.561-.446-.915-1.14-.917q-3.168-.008-6.335,0c-.7,0-1.119.354-1.139.917-.02.586.423.976,1.139.981C1006.222,562.07,1007.257,562.065,1008.292,562.065Zm1.014,3.8c.76,0,1.52.009,2.28,0a.955.955,0,1,0,0-1.9q-2.28-.014-4.561,0a.955.955,0,1,0,0,1.9C1007.786,565.876,1008.546,565.867,1009.306,565.867Zm-9.463-5.7a.887.887,0,0,0-.686.4c-.4.59-.813,1.178-1.185,1.788a1.252,1.252,0,0,0,.028,1.378c.357.57.727,1.134,1.119,1.681a.947.947,0,1,0,1.581-1.042,10.02,10.02,0,0,0-.667-1,.519.519,0,0,1,0-.724,8.025,8.025,0,0,0,.721-1.109A.944.944,0,0,0,999.843,560.167Z" transform="translate(-985.028 -541.011)" fill="#bbe0a5"/>
      <path id="Trazado_612029" data-name="Trazado 612029" d="M1093.267,528.422c2.28-.014,4.56-.024,6.84-.043.827-.007,1.017-.164,1.245-.965h2.487c.214.774.446.97,1.236.982.822.013,1.645.016,2.466,0a.8.8,0,0,1,.782.4c.861,1.324,1.742,2.635,2.625,3.945a.572.572,0,0,1,.042.74c-.848,1.231-1.677,2.474-2.513,3.713l-14.311.005c-.809,0-.9-.091-.9-.922Q1093.267,532.348,1093.267,528.422Zm6.221,3.826c1.267,0,2.534.005,3.8,0,.717,0,1.16-.4,1.14-.981-.02-.562-.445-.915-1.141-.916q-3.8-.007-7.6,0c-.7,0-1.12.354-1.139.917-.02.586.423.976,1.14.98C1096.955,532.254,1098.222,532.248,1099.488,532.248Zm-.636,1.9c-1.056,0-2.111-.005-3.167,0-.7,0-1.119.354-1.138.918-.019.586.423.977,1.141.979q3.166.009,6.333,0c.693,0,1.119-.358,1.139-.919.02-.584-.424-.974-1.142-.978C1100.963,534.145,1099.908,534.15,1098.852,534.15Zm10.556-1.066a1.2,1.2,0,0,0-.159-.666c-.393-.6-.771-1.2-1.192-1.782a.907.907,0,0,0-1.281-.26.864.864,0,0,0-.261,1.314,1.777,1.777,0,0,1,.013,2.744.864.864,0,0,0,.226,1.322.927.927,0,0,0,1.328-.277c.406-.562.775-1.151,1.156-1.731A1.192,1.192,0,0,0,1109.409,533.084Z" transform="translate(-1057.272 -518.673)" fill="#d46b70"/>
      <path id="Trazado_612030" data-name="Trazado 612030" d="M1012.764,729.98c.176.715.643.941,1.358.933,2.554-.027,5.109-.011,7.663-.011,1,0,1,0,.944,1.009l-59.3,0c-.829,0-.889-.07-.89-.986.274-.008.548-.023.822-.023H1008.9c.9,0,1.1-.141,1.355-.912Z" transform="translate(-959.749 -669.794)" fill="#9a9da4"/>
      <path id="Trazado_612031" data-name="Trazado 612031" d="M1071.754,546.239c.821-.2.95-.379.95-1.36q0-14.015,0-28.031c0-.856,0-.856.85-.811q0,18.742-.005,37.484c0,.99.051,1.039,1.04,1.024.181.545.071.8-.589.782-1.3-.04-1.3-.008-1.3-1.29,0-1.329-.027-2.659.011-3.987a1.151,1.151,0,0,0-.949-1.341Q1071.76,547.475,1071.754,546.239Z" transform="translate(-1041.223 -510.175)" fill="#9f6941"/>
      <path id="Trazado_612032" data-name="Trazado 612032" d="M1092.806,591.165c1.625-.011,3.25-.029,4.876-.031,3.126-.005,6.251.009,9.377-.013a1.052,1.052,0,0,1,1.02.556c.816,1.28,1.672,2.536,2.522,3.794a.569.569,0,0,1,.047.74c-.849,1.232-1.68,2.477-2.518,3.717q-7.219,0-14.439,0c-.7,0-.889-.2-.89-.916Q1092.8,595.091,1092.806,591.165Zm6.277,1.92c-1.288,0-2.577,0-3.865,0-.72,0-1.162.388-1.145.974.017.565.44.922,1.133.923q3.865.008,7.73,0c.72,0,1.162-.389,1.145-.975-.016-.564-.44-.919-1.134-.922C1101.659,593.08,1100.371,593.085,1099.083,593.085Zm9.979,2.7a1.182,1.182,0,0,0-.177-.663c-.381-.581-.753-1.168-1.16-1.73a.92.92,0,0,0-1.331-.255.868.868,0,0,0-.2,1.328,1.724,1.724,0,0,1,.005,2.689.868.868,0,0,0,.191,1.331.939.939,0,0,0,1.372-.3c.38-.53.727-1.083,1.089-1.626A1.3,1.3,0,0,0,1109.062,595.783Zm-12.267,3.006c.57,0,1.141.014,1.71,0a.948.948,0,1,0,0-1.893q-1.71-.023-3.421,0a.948.948,0,1,0,0,1.893C1095.654,598.8,1096.225,598.789,1096.795,598.789Z" transform="translate(-1056.925 -566.2)" fill="#f4cb46"/>
      <path id="Trazado_612033" data-name="Trazado 612033" d="M959.843,733.654c0,.916.061.986.89.986l59.3,0c.051.89.051.891-.816.891q-29.762,0-59.524.015c-.617,0-.849-.153-.74-.759a1.818,1.818,0,0,0,0-.316C958.953,733.6,958.953,733.6,959.843,733.654Z" transform="translate(-957.048 -672.521)" fill="#84838f"/>
      <path id="Trazado_612034" data-name="Trazado 612034" d="M1079.864,554.544c-.989.016-1.04-.034-1.04-1.024q0-18.742.005-37.484c1.058-.048,1.058-.048,1.058.983q0,18.352,0,36.7C1079.886,554,1079.872,554.271,1079.864,554.544Z" transform="translate(-1046.497 -510.173)" fill="#b87f56"/>
      <path id="Trazado_612035" data-name="Trazado 612035" d="M1091.141,531.272q0,3.925,0,7.851c0,.831.088.922.9.922l14.311-.005a1.055,1.055,0,0,1-1.159.739q-7.027-.034-14.055,0c-.541,0-.728-.117-.722-.695q.046-4.083,0-8.166C1090.413,531.338,1090.592,531.142,1091.141,531.272Z" transform="translate(-1055.146 -521.522)" fill="#b94a51"/>
      <path id="Trazado_612036" data-name="Trazado 612036" d="M1091.056,591.113q0,3.926,0,7.851c0,.717.191.915.89.916q7.219,0,14.438,0a1.042,1.042,0,0,1-1.156.732q-7.022-.034-14.045,0c-.6,0-.728-.182-.723-.745.027-2.741.018-5.482.006-8.223C1090.46,591.2,1090.529,590.921,1091.056,591.113Z" transform="translate(-1055.175 -566.148)" fill="#daa53e"/>
      <path id="Trazado_612037" data-name="Trazado 612037" d="M995.5,577.325c.922,1.381,1.854,2.755,2.759,4.146a1.135,1.135,0,0,0,1.047.564q7.177-.014,14.354-.015c.153.48.024.661-.523.659q-7.184-.029-14.367,0a.909.909,0,0,1-.862-.486c-.815-1.255-1.634-2.508-2.494-3.731C995.1,578.012,995.089,577.676,995.5,577.325Z" transform="translate(-984.1 -555.908)" fill="#9cc9a0"/>
      <path id="Trazado_612038" data-name="Trazado 612038" d="M1059.876,678.226q5.121-.012,10.241-.027c.287,0,.437.065.405.383-.024.251-.019.5-.026.757l-9.491,0C1059.993,679.342,1059.875,679.225,1059.876,678.226Z" transform="translate(-1032.361 -631.164)" fill="#b87f56"/>
      <path id="Trazado_612039" data-name="Trazado 612039" d="M1059.876,718.653q5.121-.011,10.242-.027c.287,0,.436.065.405.383-.024.251-.019.5-.026.757l-9.491,0C1059.993,719.768,1059.875,719.652,1059.876,718.653Z" transform="translate(-1032.361 -661.324)" fill="#b87f56"/>
      <path id="Trazado_612040" data-name="Trazado 612040" d="M1070.932,502.56c-.674,0-1.349-.017-2.022.005-.574.019-.812-.248-.788-.8.008-.189,0-.379,0-.568a.594.594,0,0,1,.667-.659q2.18,0,4.36,0c.449,0,.648.242.661.667.006.189-.005.379,0,.569.017.551-.227.812-.8.793C1072.323,502.542,1071.628,502.56,1070.932,502.56Z" transform="translate(-1038.512 -498.621)" fill="#f1f5f6"/>
      <path id="Trazado_612041" data-name="Trazado 612041" d="M1057.561,678.179c0,1,.117,1.115,1.13,1.115l9.491,0c.142.594-.058.784-.694.778-3.356-.033-6.713-.026-10.07,0-.491,0-.7-.117-.624-.624a1.873,1.873,0,0,0,0-.569C1056.692,678.236,1056.966,678.036,1057.561,678.179Z" transform="translate(-1030.046 -631.116)" fill="#a97045"/>
      <path id="Trazado_612042" data-name="Trazado 612042" d="M1057.561,718.605c0,1,.117,1.115,1.13,1.115l9.491,0c.142.594-.058.785-.694.778-3.356-.032-6.713-.025-10.07,0-.491,0-.7-.117-.624-.624a1.873,1.873,0,0,0,0-.569C1056.692,718.663,1056.966,718.463,1057.561,718.605Z" transform="translate(-1030.046 -661.276)" fill="#a97045"/>
      <path id="Trazado_612043" data-name="Trazado 612043" d="M1075.591,697.027c-.006-1.18,0-2.36-.022-3.539-.005-.3.076-.384.385-.4,1.518-.061,1.52-.073,1.517,1.407,0,.843-.01,1.685-.015,2.528A6,6,0,0,1,1075.591,697.027Z" transform="translate(-1044.069 -642.259)" fill="#f1f5f6"/>
      <path id="Trazado_612044" data-name="Trazado 612044" d="M1090.566,697.027c-.005-1.18,0-2.36-.022-3.539-.005-.3.075-.384.385-.4,1.519-.061,1.52-.073,1.518,1.407,0,.843-.01,1.685-.015,2.528A6,6,0,0,1,1090.566,697.027Z" transform="translate(-1055.241 -642.259)" fill="#f1f5f6"/>
      <path id="Trazado_612045" data-name="Trazado 612045" d="M1062.385,697.023c.153.466.057.672-.5.661-1.376-.028-1.377,0-1.377-1.373,0-.842.037-1.686-.013-2.525-.035-.59.141-.819.728-.668,0,.921-.011,1.842-.013,2.762C1061.2,696.852,1061.409,697.049,1062.385,697.023Z" transform="translate(-1032.817 -642.26)" fill="#c7cfd2"/>
      <path id="Trazado_612046" data-name="Trazado 612046" d="M1064.5,697.112c-.976.026-1.181-.171-1.179-1.143,0-.921.009-1.841.013-2.762,1.2-.048,1.2-.048,1.2,1.13C1064.523,695.262,1064.507,696.187,1064.5,697.112Z" transform="translate(-1034.928 -642.349)" fill="#f1f5f6"/>
      <path id="Trazado_612047" data-name="Trazado 612047" d="M1075.435,708.646a6,6,0,0,0,1.865,0c.173.471.063.717-.492.661a4.44,4.44,0,0,0-.88,0C1075.373,709.363,1075.262,709.118,1075.435,708.646Z" transform="translate(-1043.913 -653.878)" fill="#9a9da4"/>
      <path id="Trazado_612048" data-name="Trazado 612048" d="M1090.409,708.646a6,6,0,0,0,1.866,0c.173.471.063.717-.492.661a4.44,4.44,0,0,0-.88,0C1090.347,709.363,1090.236,709.118,1090.409,708.646Z" transform="translate(-1055.084 -653.878)" fill="#9a9da4"/>
      <path id="Trazado_612049" data-name="Trazado 612049" d="M1030.672,570.306c-1.035,0-2.07.005-3.1,0-.716,0-1.159-.395-1.139-.981.019-.563.443-.915,1.139-.917q3.168-.008,6.335,0c.694,0,1.12.356,1.14.917.02.586-.423.977-1.139.981C1032.826,570.311,1031.749,570.306,1030.672,570.306Z" transform="translate(-1007.408 -549.252)" fill="#010101"/>
      <path id="Trazado_612050" data-name="Trazado 612050" d="M1037.272,585.274c-.76,0-1.521.009-2.28,0a.955.955,0,1,1,0-1.9q2.28-.014,4.561,0a.955.955,0,1,1,0,1.9C1038.793,585.283,1038.032,585.274,1037.272,585.274Z" transform="translate(-1012.994 -560.417)" fill="#010101"/>
      <path id="Trazado_612051" data-name="Trazado 612051" d="M1003.807,568.422a.944.944,0,0,1,.911,1.376,8.028,8.028,0,0,1-.721,1.109.519.519,0,0,0,0,.724,10.009,10.009,0,0,1,.667,1,.947.947,0,1,1-1.581,1.042c-.392-.547-.762-1.11-1.119-1.681a1.251,1.251,0,0,1-.028-1.378c.372-.61.781-1.2,1.185-1.788A.887.887,0,0,1,1003.807,568.422Z" transform="translate(-988.992 -549.266)" fill="#030302"/>
      <path id="Trazado_612052" data-name="Trazado 612052" d="M1103.249,540.861c-1.267,0-2.534.005-3.8,0-.717,0-1.16-.394-1.14-.98.019-.563.443-.916,1.139-.917q3.8-.007,7.6,0c.7,0,1.121.354,1.141.916.021.585-.423.977-1.14.981C1105.783,540.866,1104.516,540.861,1103.249,540.861Z" transform="translate(-1061.033 -527.285)" fill="#010101"/>
      <path id="Trazado_612053" data-name="Trazado 612053" d="M1102.613,553.932c1.056,0,2.111-.005,3.167,0,.717,0,1.162.394,1.142.979-.02.561-.446.917-1.139.919q-3.166.008-6.333,0c-.718,0-1.16-.393-1.141-.979.018-.564.441-.913,1.138-.918C1100.5,553.927,1101.557,553.932,1102.613,553.932Z" transform="translate(-1061.033 -538.455)" fill="#010101"/>
      <path id="Trazado_612054" data-name="Trazado 612054" d="M1147.719,541.313a1.191,1.191,0,0,1-.17.664c-.38.581-.749,1.169-1.156,1.731a.927.927,0,0,1-1.328.277.864.864,0,0,1-.226-1.322,1.777,1.777,0,0,0-.013-2.744.864.864,0,0,1,.261-1.314.907.907,0,0,1,1.281.26c.421.578.8,1.185,1.192,1.782A1.2,1.2,0,0,1,1147.719,541.313Z" transform="translate(-1095.583 -526.902)" fill="#030302"/>
      <path id="Trazado_612055" data-name="Trazado 612055" d="M1102.816,598.851c1.288,0,2.577,0,3.865,0,.693,0,1.118.358,1.134.922.016.586-.426.974-1.145.975q-3.865.007-7.73,0c-.693,0-1.116-.358-1.133-.923-.017-.586.425-.971,1.145-.974C1100.24,598.846,1101.528,598.851,1102.816,598.851Z" transform="translate(-1060.659 -571.966)" fill="#010101"/>
      <path id="Trazado_612056" data-name="Trazado 612056" d="M1147.721,601.161a1.3,1.3,0,0,1-.215.778c-.362.543-.709,1.1-1.089,1.626a.939.939,0,0,1-1.372.3.869.869,0,0,1-.191-1.331,1.723,1.723,0,0,0-.005-2.689.868.868,0,0,1,.2-1.328.92.92,0,0,1,1.331.255c.407.562.779,1.15,1.16,1.73A1.184,1.184,0,0,1,1147.721,601.161Z" transform="translate(-1095.583 -571.58)" fill="#030302"/>
      <path id="Trazado_612057" data-name="Trazado 612057" d="M1100.529,615.71c-.57,0-1.141.014-1.71,0a.948.948,0,1,1,0-1.893q1.71-.022,3.42,0a.948.948,0,1,1,0,1.893C1101.669,615.724,1101.1,615.71,1100.529,615.71Z" transform="translate(-1060.659 -583.122)" fill="#010101"/>
    </g>
  </g>
</svg>
