<svg xmlns="http://www.w3.org/2000/svg" width="85" height="85" viewBox="0 0 85 85">
  <g id="Grupo_930465" data-name="Grupo 930465" transform="translate(-0.472)">
    <rect id="Rectángulo_305741" data-name="Rectángulo 305741" width="85" height="85" transform="translate(0.472)" fill="none"/>
    <g id="Grupo_930468" data-name="Grupo 930468" transform="translate(13.708 13.424)">
      <path id="Trazado_611970" data-name="Trazado 611970" d="M11.525,676.318q-12.405,0-24.81,0a6.8,6.8,0,0,1-6.8-5.238,7.139,7.139,0,0,1-.2-1.744q0-19.268,0-38.537a6.82,6.82,0,0,1,5.8-6.88,6.772,6.772,0,0,1,7.652,5.3c.091.385.253.412.564.411,2.635-.008,5.27-.013,7.905.005.375,0,.47-.09.467-.466C2.1,626.5,2.1,623.821,2.1,621.147a2.938,2.938,0,0,1,3.164-3.192q8.513,0,17.026,0a2.936,2.936,0,0,1,3.164,3.193c0,2.654.012,5.309-.01,7.962,0,.428.1.533.53.528,2.006-.025,4.013-.013,6.02-.01.914,0,1.243.33,1.245,1.242,0,1.378.015,2.756-.009,4.133-.006.37.08.482.464.47,1.033-.03,2.067-.012,3.1-.01,1,0,1.31.308,1.31,1.3q0,8.57,0,17.141,0,10.485,0,20.97c0,1.188-.262,1.444-1.472,1.444Zm16.853-44.726c-.849-.007-1.7,0-2.548-.026-.291-.008-.38.082-.376.374q.024,1.577,0,3.155c0,.292.085.382.376.374.849-.023,1.7-.019,2.548-.026s1.7,0,2.548.025c.287.008.384-.079.379-.373q-.023-1.577,0-3.155c0-.295-.092-.381-.379-.373C30.076,631.589,29.227,631.586,28.378,631.593Zm-7.787,17.469c.748.007,1.5-.022,2.244.031.546.039.694-.12.692-.68q-.029-13.535-.014-27.07c0-.162.008-.324,0-.486a.951.951,0,0,0-.98-.949c-.687-.017-1.375.011-2.062.019-.162-.009-.323-.026-.484-.026q-7.327,0-14.654,0c-.956,0-1.276.319-1.277,1.272q0,13.676-.015,27.35c0,.519.185.569.616.567,3.912-.014,7.824-.008,11.735-.008,1.287,0,1.258,0,1.3,1.272.019.55-.129.691-.684.688-4.135-.026-8.269-.006-12.4-.026-.456,0-.59.106-.561.563.043.666.01,1.337.011,2.005,0,1.034.3,1.334,1.338,1.334q4.652,0,9.3,0c1.925,0,3.85-.017,5.774-.026.664.009,1.328.033,1.992.022a.968.968,0,0,0,1.051-1.058c.015-.805-.008-1.612.01-2.417.007-.3-.054-.431-.392-.419-.845.029-1.691.021-2.537.027-.969-.05-.969-.05-.969-.932C19.621,649.112,19.621,649.112,20.591,649.062Zm12.653-11.633c-2.391-.007-4.782,0-7.173-.033-.507-.008-.625.119-.623.624.021,5.186.013,10.372.013,15.559a2.961,2.961,0,0,1-3.257,3.285H5.36A2.964,2.964,0,0,1,2.1,653.578c0-5.206-.007-10.413.011-15.62,0-.454-.107-.566-.561-.561-2.513.025-5.027.031-7.539,0-.558-.008-.682.143-.682.688q.026,15.437.013,30.875c0,.182.009.366,0,.547a.974.974,0,0,1-.963.974.978.978,0,0,1-.979-.959,10.39,10.39,0,0,0-.129-1.083,4.847,4.847,0,0,0-5.76-3.676,4.847,4.847,0,0,0-3.76,5.6,4.856,4.856,0,0,0,5.04,4.013q22.923,0,45.846,0c.2,0,.4-.012.606-.019.749.006,1.5-.024,2.247.032.558.042.687-.137.687-.686q-.026-17.808-.013-35.616a2.336,2.336,0,0,1,0-.3c.038-.29-.077-.384-.371-.376C34.946,637.426,34.094,637.422,33.244,637.429ZM-8.615,664.7c.008-.166.014-.239.014-.312q0-16.924,0-33.848c0-.081,0-.162-.008-.243a4.881,4.881,0,0,0-4.684-4.557,4.862,4.862,0,0,0-5.036,5q-.008,16.772,0,33.544c0,.108-.063.241.059.333C-14.533,662.039-11.85,662.041-8.615,664.7Zm6.4-33.127c-1.336,0-2.672.005-4.008,0-.276,0-.445.013-.437.374.024,1.052.019,2.1,0,3.157,0,.3.1.371.38.37q4.008-.014,8.017,0c.293,0,.378-.086.374-.376-.016-1.032-.021-2.064,0-3.1.008-.351-.106-.437-.443-.432C.375,631.583-.921,631.572-2.217,631.572Z" transform="translate(20.28 -617.944)" fill="#010000"/>
      <path id="Trazado_611971" data-name="Trazado 611971" d="M194.741,619.872c-.993,0-1.986-.012-2.979.007-.315.006-.4-.081-.407-.4-.033-1.552-.044-1.552,1.5-1.552,1.621,0,3.242.012,4.863-.009.372,0,.47.085.47.464,0,1.491.014,1.491-1.5,1.491Z" transform="translate(-139.785 -617.917)"/>
      <path id="Trazado_611972" data-name="Trazado 611972" d="M194.738,635.84c-.993,0-1.986-.014-2.979.008-.328.007-.393-.1-.4-.408-.033-1.545-.042-1.545,1.5-1.545,1.621,0,3.242.014,4.863-.01.385-.006.462.105.462.471,0,1.484.014,1.484-1.445,1.484Z" transform="translate(-139.788 -629.994)"/>
      <path id="Trazado_611973" data-name="Trazado 611973" d="M194.741,651.812c-.993,0-1.986-.012-2.979.007-.315.006-.4-.081-.407-.4-.033-1.552-.044-1.552,1.5-1.552,1.621,0,3.243.012,4.863-.01.372,0,.47.085.47.464,0,1.491.014,1.491-1.5,1.491Z" transform="translate(-139.785 -642.075)"/>
      <path id="Trazado_611974" data-name="Trazado 611974" d="M176.435,617.957c.952,0,.952,0,.952.933,0,1.013,0,1.013-.994,1.013-.952,0-.952,0-.952-.933C175.441,617.957,175.441,617.957,176.435,617.957Z" transform="translate(-127.755 -617.947)"/>
      <path id="Trazado_611975" data-name="Trazado 611975" d="M176.37,635.872c-.929,0-.929,0-.929-.956,0-.989,0-.989,1.017-.989.929,0,.929,0,.929.956C177.387,635.872,177.387,635.872,176.37,635.872Z" transform="translate(-127.755 -630.026)"/>
      <path id="Trazado_611976" data-name="Trazado 611976" d="M176.423,649.9c.964,0,.964,0,.964.982,0,.964,0,.964-.982.964-.964,0-.964,0-.964-.982C175.441,649.9,175.441,649.9,176.423,649.9Z" transform="translate(-127.755 -642.105)"/>
      <path id="Trazado_611977" data-name="Trazado 611977" d="M39.291,734.7c-.2.007-.4.019-.606.019q-22.923,0-45.846,0a4.856,4.856,0,0,1-5.04-4.013,4.847,4.847,0,0,1,3.76-5.6,4.847,4.847,0,0,1,5.76,3.676,10.394,10.394,0,0,1,.129,1.083.978.978,0,0,0,.979.959.974.974,0,0,0,.963-.974c.013-.182,0-.365,0-.547q0-15.437-.013-30.875c0-.545.124-.7.682-.688,2.513.033,5.026.027,7.539,0,.455,0,.563.107.561.561-.018,5.206-.012,10.413-.011,15.62a2.964,2.964,0,0,0,3.256,3.285H28.25a2.961,2.961,0,0,0,3.257-3.285c0-5.187.008-10.373-.013-15.559,0-.505.116-.631.623-.624,2.391.036,4.782.027,7.173.034q0,7.008,0,14.017,0,5.279-.015,10.558a3.932,3.932,0,0,0-2.632-1.232c-3-.029-6-.015-9-.014a.823.823,0,0,0-.872.535c-.128.447-.4.44-.758.439q-8.727-.008-17.453-.005a2.9,2.9,0,0,0-.956.124q-2.7.915-5.405,1.805c-.487.16-.845.412-.859.961-.014.579.346.854.86,1.021,1.441.468,2.886.928,4.31,1.446a8.365,8.365,0,0,0,2.963.494c4.845-.028,9.69-.012,14.534-.012.75,0,1.5,0,2.25,0,.165,0,.339-.066.413.212.162.61.627.769,1.217.764,2.027-.015,4.054-.006,6.081-.006,1.441,0,1.42,0,1.44,1.435.006.441-.129.524-.541.52-2.27-.021-4.541-.01-6.811-.01-1.434,0-1.421,0-1.427,1.444,0,.373.064.515.485.512,3.02-.02,6.041-.008,9.061-.013.82,0,1.161-.36,1.167-1.2.005-.811,0-1.621,0-2.432,0-.2-.029-.4.244-.477a4.431,4.431,0,0,0,1.686-1.042Q39.284,731.165,39.291,734.7Z" transform="translate(14.233 -678.296)" fill="#fae8b1"/>
      <path id="Trazado_611978" data-name="Trazado 611978" d="M95.951,660.934c-1.925.009-3.85.023-5.774.025q-4.652.007-9.3,0c-1.037,0-1.336-.3-1.338-1.334,0-.668.032-1.339-.011-2.005-.029-.456.105-.565.561-.563,4.135.02,8.269,0,12.4.026.555,0,.7-.137.684-.687-.043-1.271-.013-1.272-1.3-1.272-3.912,0-7.824-.006-11.735.008-.431,0-.617-.048-.616-.567q.029-13.675.015-27.35c0-.953.32-1.272,1.277-1.272q7.327,0,14.654,0c.161,0,.323.017.484.026-.009.384.14.743.137,1.134-.018,2.281-.007,4.562-.012,6.843,0,.212.08.449-.115.63a7.78,7.78,0,1,0,0,8.025c.183.16.116.375.116.569q0,5.968,0,11.936c-.969.05-.969.05-.969,1.053,0,.882,0,.882.969.932A24.617,24.617,0,0,1,95.951,660.934Z" transform="translate(-55.204 -623.986)" fill="#7ef4fc"/>
      <path id="Trazado_611979" data-name="Trazado 611979" d="M-2.607,688.867c-3.235-2.658-5.917-2.661-9.654-.082-.122-.092-.059-.225-.059-.333q-.005-16.772,0-33.544a4.862,4.862,0,0,1,5.036-5A4.881,4.881,0,0,1-2.6,654.464c0,.081.008.162.008.243q0,16.924,0,33.848C-2.592,688.628-2.6,688.7-2.607,688.867Z" transform="translate(14.271 -642.112)" fill="#f5c481"/>
      <path id="Trazado_611980" data-name="Trazado 611980" d="M199.338,722.382q.008-5.279.015-10.558,0-7.008,0-14.017c.851-.007,1.7,0,2.552-.026.293-.008.409.086.371.376a2.337,2.337,0,0,0,0,.3q0,17.808.013,35.616c0,.55-.128.728-.687.686-.746-.056-1.5-.026-2.247-.032q-.008-3.539-.015-7.078C200.671,725.693,200.672,724.342,199.338,722.382Z" transform="translate(-145.828 -678.323)" fill="#f8d350"/>
      <path id="Trazado_611981" data-name="Trazado 611981" d="M147.08,655.112q0-5.968,0-11.936c0-.193.067-.409-.116-.569a7.888,7.888,0,0,0,0-8.024c.195-.181.114-.417.115-.63.006-2.281-.006-4.562.012-6.843,0-.391-.145-.75-.137-1.134.687-.008,1.375-.036,2.062-.019a.952.952,0,0,1,.98.95c.013.161,0,.323,0,.486q0,13.535.014,27.07c0,.56-.146.719-.692.681C148.58,655.09,147.829,655.118,147.08,655.112Z" transform="translate(-106.209 -623.994)" fill="#5fd3dc"/>
      <path id="Trazado_611982" data-name="Trazado 611982" d="M40.056,673.829c1.3,0,2.591.011,3.887-.007.337,0,.45.082.443.432-.023,1.032-.018,2.064,0,3.1,0,.29-.081.377-.374.376q-4.008-.015-8.017,0c-.285,0-.385-.072-.38-.37.017-1.052.022-2.1,0-3.157-.008-.362.161-.376.437-.374C37.383,673.834,38.72,673.829,40.056,673.829Z" transform="translate(-21.993 -660.201)" fill="#f5c481"/>
      <path id="Trazado_611983" data-name="Trazado 611983" d="M170.351,677.7c-.849.007-1.7,0-2.548.026-.291.008-.38-.082-.376-.374q.024-1.577,0-3.155c0-.292.085-.382.376-.374.849.023,1.7.019,2.548.026Z" transform="translate(-121.693 -660.204)" fill="#f5c481"/>
      <path id="Trazado_611984" data-name="Trazado 611984" d="M179.427,677.7v-3.851c.849-.007,1.7,0,2.548-.025.287-.008.384.079.379.373q-.023,1.577,0,3.155c0,.295-.092.381-.379.373C181.126,677.708,180.276,677.711,179.427,677.7Z" transform="translate(-130.769 -660.206)" fill="#f2a84e"/>
      <path id="Trazado_611985" data-name="Trazado 611985" d="M146.957,757.539a24.614,24.614,0,0,0,.124-3.844c.846-.007,1.692,0,2.537-.027.337-.012.4.12.392.419-.018.805,0,1.611-.01,2.417a.968.968,0,0,1-1.051,1.058C148.285,757.572,147.621,757.548,146.957,757.539Z" transform="translate(-106.211 -720.592)" fill="#5fd3dc"/>
      <path id="Trazado_611986" data-name="Trazado 611986" d="M81.582,794.869c1.333,1.961,1.333,3.312,0,5.271a4.43,4.43,0,0,1-1.686,1.042c-.274.073-.245.274-.244.478,0,.811,0,1.621,0,2.432-.005.841-.347,1.2-1.167,1.2-3.02,0-6.041-.008-9.061.013-.421,0-.487-.139-.485-.512.006-1.444-.007-1.444,1.427-1.444,2.27,0,4.541-.011,6.811.01.412,0,.547-.079.541-.52-.019-1.435,0-1.435-1.44-1.435-2.027,0-4.054-.009-6.081.006-.591,0-1.056-.154-1.217-.764-.074-.278-.248-.211-.413-.212-.75-.005-1.5,0-2.25,0-4.845,0-9.69-.016-14.534.012a8.362,8.362,0,0,1-2.963-.494c-1.424-.518-2.869-.978-4.31-1.446-.514-.167-.874-.442-.86-1.021.014-.549.372-.8.859-.961q2.708-.886,5.405-1.805a2.906,2.906,0,0,1,.956-.124q8.727,0,17.453.005c.353,0,.63.008.758-.439a.823.823,0,0,1,.872-.535c3,0,6-.015,9,.014A3.933,3.933,0,0,1,81.582,794.869Zm-4.608,4.57c.586.005,1.172.031,1.757.011a1.94,1.94,0,0,0,0-3.879c-.585-.019-1.171.006-1.757.011-1.9-.005-3.8-.006-5.7-.022-.283,0-.389.076-.385.373q.023,1.577,0,3.154c0,.3.1.376.384.374C73.172,799.446,75.073,799.445,76.974,799.439Zm-29.05-1.945a10.832,10.832,0,0,0,4.59,1.017c5.044-.073,10.089-.027,15.134-.027,1.3,0,1.275,0,1.311-1.329.014-.5-.117-.631-.626-.629-5.571.02-11.143.037-16.714-.005A11.89,11.89,0,0,0,47.924,797.494Z" transform="translate(-28.072 -750.81)" fill="#010101"/>
      <path id="Trazado_611987" data-name="Trazado 611987" d="M102.04,649.726a7.888,7.888,0,0,1,0,8.024,7.775,7.775,0,1,1,0-8.024Zm-3.78,8.993h0a5.19,5.19,0,0,0,2.561-3c.393-1.027.375-1.034-.738-.988q-2.249-.008-4.5-.016c-.873-.005-1.211-.341-1.213-1.214,0-1.661-.017-3.322.009-4.983.008-.474-.117-.52-.547-.4a5.855,5.855,0,0,0-4.071,7.233,5.753,5.753,0,0,0,8.261,3.512C98.129,658.852,98.224,658.836,98.261,658.719Zm0-9.962a.177.177,0,0,0-.25-.106,3.482,3.482,0,0,0-1.292-.583c-.262-.068-.411-.062-.407.282q.02,2.025,0,4.051c0,.3.107.373.386.369,1.129-.017,2.257-.016,3.386-.021.222.005.444.006.666.017s.354-.064.286-.315a5.472,5.472,0,0,0-2.776-3.7Z" transform="translate(-61.284 -639.138)" fill="#020302"/>
      <path id="Trazado_611988" data-name="Trazado 611988" d="M61.2,806.5a11.892,11.892,0,0,1,3.695-.973c5.571.042,11.143.025,16.714.005.509,0,.64.124.626.629-.036,1.328-.01,1.329-1.311,1.329-5.045,0-10.09-.047-15.134.027A10.835,10.835,0,0,1,61.2,806.5Z" transform="translate(-41.349 -759.819)" fill="#abaaaf"/>
      <path id="Trazado_611989" data-name="Trazado 611989" d="M161.535,805.469c-1.9.006-3.8.007-5.7.022-.283,0-.389-.077-.384-.374q.023-1.576,0-3.154c0-.3.1-.375.385-.373,1.9.015,3.8.016,5.7.022A2.9,2.9,0,0,1,161.535,805.469Z" transform="translate(-112.632 -756.84)" fill="#ea4656"/>
      <path id="Trazado_611990" data-name="Trazado 611990" d="M180.431,805.48a2.9,2.9,0,0,0,0-3.856c.586-.005,1.172-.031,1.757-.011a1.94,1.94,0,0,1,0,3.879C181.6,805.511,181.017,805.485,180.431,805.48Z" transform="translate(-131.529 -756.85)" fill="#ba391d"/>
      <path id="Trazado_611991" data-name="Trazado 611991" d="M104.2,665.321a5.753,5.753,0,0,1-8.261-3.511,5.855,5.855,0,0,1,4.071-7.233c.43-.117.555-.071.547.4-.026,1.661-.013,3.322-.009,4.983,0,.873.341,1.209,1.213,1.214q2.249.012,4.5.017a5.977,5.977,0,0,1-1.316,3.189,1.944,1.944,0,0,0-.508.8h0A.2.2,0,0,0,104.2,665.321Z" transform="translate(-67.454 -645.604)" fill="#a8d744"/>
      <path id="Trazado_611992" data-name="Trazado 611992" d="M127.269,659.146c-1.129.005-2.258,0-3.386.021-.279,0-.39-.07-.386-.369q.02-2.025,0-4.051c0-.344.144-.35.407-.282a3.479,3.479,0,0,1,1.292.583.236.236,0,0,0,.25.106h0a1.608,1.608,0,0,0,.463.758A6.117,6.117,0,0,1,127.269,659.146Z" transform="translate(-88.466 -645.535)" fill="#ea4656"/>
      <path id="Trazado_611993" data-name="Trazado 611993" d="M133.317,661.387a6.117,6.117,0,0,0-1.361-3.235,1.607,1.607,0,0,1-.463-.758,5.472,5.472,0,0,1,2.776,3.7c.068.251-.057.326-.286.315S133.539,661.392,133.317,661.387Z" transform="translate(-94.514 -647.776)" fill="#ba391d"/>
      <path id="Trazado_611994" data-name="Trazado 611994" d="M131.488,685.849a1.945,1.945,0,0,1,.508-.8,5.977,5.977,0,0,0,1.316-3.189c1.112-.047,1.131-.039.738.988A5.19,5.19,0,0,1,131.488,685.849Z" transform="translate(-94.51 -666.269)" fill="#6fa53c"/>
      <path id="Trazado_611995" data-name="Trazado 611995" d="M130.721,657.018a.236.236,0,0,1-.25-.106A.177.177,0,0,1,130.721,657.018Z" transform="translate(-93.741 -647.399)" fill="#ba391d"/>
      <path id="Trazado_611996" data-name="Trazado 611996" d="M130.52,698.414a.2.2,0,0,1,.235-.136C130.718,698.394,130.623,698.411,130.52,698.414Z" transform="translate(-93.778 -678.696)" fill="#6fa53c"/>
    </g>
  </g>
</svg>
