<svg xmlns="http://www.w3.org/2000/svg" width="349" height="226" viewBox="0 0 349 226">
  <g id="Grupo_951874" data-name="Grupo 951874" transform="translate(431 8772)">
    <path id="Trazado_628532" data-name="Trazado 628532" d="M8,0H341a8,8,0,0,1,8,8V218a8,8,0,0,1-8,8H8a8,8,0,0,1-8-8V8A8,8,0,0,1,8,0Z" transform="translate(-431 -8772)" fill="#fff"/>
    <path id="Trazado_628533" data-name="Trazado 628533" d="M0,0H107V86H0Z" transform="translate(-351.677 -8749.705)" fill="#ef8b53"/>
    <path id="Trazado_628534" data-name="Trazado 628534" d="M0,0H107V86H0Z" transform="translate(-351.677 -8663.705)" fill="#f7e9e1"/>
    <path id="Trazado_628535" data-name="Trazado 628535" d="M0,0H107V86H0Z" transform="translate(-244.677 -8749.705)" fill="#449c6e"/>
    <path id="Trazado_628536" data-name="Trazado 628536" d="M0,0H107V86H0Z" transform="translate(-244.677 -8663.705)" fill="#e2d9ff"/>
    <path id="Trazado_628537" data-name="Trazado 628537" d="M10.59,12H8.979V4.18H10.59Zm2.82-5.812.048.671a2.029,2.029,0,0,1,1.67-.779,1.686,1.686,0,0,1,1.375.542,2.531,2.531,0,0,1,.462,1.622V12H15.413V8.283a1.007,1.007,0,0,0-.215-.717.962.962,0,0,0-.714-.223A1.068,1.068,0,0,0,13.5,7.9V12H11.949V6.188ZM20,4.76V6.188h.994V7.327H20v2.9a.693.693,0,0,0,.124.462.62.62,0,0,0,.473.14,2.475,2.475,0,0,0,.457-.038v1.176a3.2,3.2,0,0,1-.94.14,1.482,1.482,0,0,1-1.665-1.649V7.327H17.6V6.188h.849V4.76Zm4.533,7.348a2.853,2.853,0,0,1-2.081-.784,2.787,2.787,0,0,1-.8-2.089v-.15a3.511,3.511,0,0,1,.338-1.566,2.483,2.483,0,0,1,.959-1.063,2.691,2.691,0,0,1,1.415-.373,2.412,2.412,0,0,1,1.877.752,3.056,3.056,0,0,1,.685,2.132V9.6h-3.7a1.442,1.442,0,0,0,.454.913,1.372,1.372,0,0,0,.959.344,1.675,1.675,0,0,0,1.4-.65l.763.854a2.33,2.33,0,0,1-.945.771A3.1,3.1,0,0,1,24.533,12.107Zm-.177-4.77a.972.972,0,0,0-.749.312,1.609,1.609,0,0,0-.368.892H25.4V8.417a1.147,1.147,0,0,0-.279-.8A1,1,0,0,0,24.356,7.338Zm6.714.306a4.217,4.217,0,0,0-.559-.043,1.137,1.137,0,0,0-1.155.6V12H27.8V6.188h1.466l.043.693a1.438,1.438,0,0,1,1.294-.8,1.626,1.626,0,0,1,.483.07Zm3.421,4.463a2.853,2.853,0,0,1-2.081-.784,2.787,2.787,0,0,1-.8-2.089v-.15a3.511,3.511,0,0,1,.338-1.566A2.483,2.483,0,0,1,32.9,6.454a2.691,2.691,0,0,1,1.415-.373,2.412,2.412,0,0,1,1.877.752,3.056,3.056,0,0,1,.685,2.132V9.6h-3.7a1.442,1.442,0,0,0,.454.913,1.372,1.372,0,0,0,.959.344,1.675,1.675,0,0,0,1.4-.65l.763.854a2.33,2.33,0,0,1-.945.771A3.1,3.1,0,0,1,34.491,12.107Zm-.177-4.77a.972.972,0,0,0-.749.312,1.609,1.609,0,0,0-.368.892h2.159V8.417a1.147,1.147,0,0,0-.279-.8A1,1,0,0,0,34.314,7.338Zm.14-3.588h1.692L34.658,5.415H33.4Zm6.456,6.644a.5.5,0,0,0-.282-.448,3.2,3.2,0,0,0-.905-.293q-2.073-.435-2.073-1.762A1.6,1.6,0,0,1,38.291,6.6a2.589,2.589,0,0,1,1.678-.518,2.787,2.787,0,0,1,1.77.521A1.642,1.642,0,0,1,42.4,7.956H40.851a.751.751,0,0,0-.215-.551.909.909,0,0,0-.671-.218.929.929,0,0,0-.607.177.56.56,0,0,0-.215.451.478.478,0,0,0,.244.416,2.514,2.514,0,0,0,.824.274,6.734,6.734,0,0,1,.978.26,1.606,1.606,0,0,1,1.23,1.563,1.516,1.516,0,0,1-.682,1.286,2.943,2.943,0,0,1-1.762.491,3.073,3.073,0,0,1-1.3-.26,2.176,2.176,0,0,1-.889-.714,1.66,1.66,0,0,1-.322-.98h1.472a.81.81,0,0,0,.306.634,1.214,1.214,0,0,0,.763.22,1.124,1.124,0,0,0,.674-.169A.526.526,0,0,0,40.91,10.394Z" transform="translate(-269.677 -8572.705)" fill="#12263f"/>
    <path id="Trazado_628538" data-name="Trazado 628538" d="M8.424,9.959H5.147L4.412,12H3.348L6.334,4.18h.9L10.229,12H9.17ZM5.459,9.11H8.118L6.786,5.453ZM12.205,12h-.994V3.75h.994Zm2.938-7.219V6.188h1.085v.768H15.143v3.6a.8.8,0,0,0,.145.524.611.611,0,0,0,.494.175,2.406,2.406,0,0,0,.473-.064V12a2.881,2.881,0,0,1-.763.107,1.237,1.237,0,0,1-1-.4,1.731,1.731,0,0,1-.338-1.144v-3.6H13.091V6.188h1.058V4.781Zm1.875,4.259A3.433,3.433,0,0,1,17.353,7.5a2.5,2.5,0,0,1,.935-1.053,2.544,2.544,0,0,1,1.367-.371,2.451,2.451,0,0,1,1.92.822,3.162,3.162,0,0,1,.733,2.186v.07a3.462,3.462,0,0,1-.325,1.523,2.467,2.467,0,0,1-.929,1.05,2.573,2.573,0,0,1-1.388.376,2.445,2.445,0,0,1-1.915-.822,3.146,3.146,0,0,1-.733-2.175Zm1,.118a2.486,2.486,0,0,0,.448,1.552,1.52,1.52,0,0,0,2.4-.008,2.719,2.719,0,0,0,.446-1.662,2.482,2.482,0,0,0-.454-1.55A1.443,1.443,0,0,0,19.655,6.9a1.427,1.427,0,0,0-1.187.585A2.7,2.7,0,0,0,18.017,9.159Z" transform="translate(-163.677 -8572.705)" fill="#12263f"/>
    <path id="Trazado_628539" data-name="Trazado 628539" d="M3.042,12V4.18H5.6a2.968,2.968,0,0,1,1.915.526,1.9,1.9,0,0,1,.642,1.558,1.588,1.588,0,0,1-.312.969A2.02,2.02,0,0,1,7,7.886,1.814,1.814,0,0,1,8,8.56a1.935,1.935,0,0,1,.368,1.184A2.092,2.092,0,0,1,7.683,11.4a2.821,2.821,0,0,1-1.928.6ZM4.073,8.342v2.814h1.7a1.639,1.639,0,0,0,1.136-.373,1.311,1.311,0,0,0,.416-1.029q0-1.413-1.536-1.413Zm0-.827H5.631a1.635,1.635,0,0,0,1.082-.338,1.133,1.133,0,0,0,.406-.918,1.114,1.114,0,0,0-.376-.937A1.849,1.849,0,0,0,5.6,5.028H4.073ZM13.322,12a2.087,2.087,0,0,1-.14-.612,2.217,2.217,0,0,1-1.654.72,2.051,2.051,0,0,1-1.41-.486,1.573,1.573,0,0,1-.551-1.233,1.643,1.643,0,0,1,.69-1.41,3.254,3.254,0,0,1,1.942-.5h.967V8.02a1.116,1.116,0,0,0-.312-.83,1.252,1.252,0,0,0-.918-.309,1.449,1.449,0,0,0-.892.269.791.791,0,0,0-.36.65h-1a1.371,1.371,0,0,1,.309-.841,2.108,2.108,0,0,1,.838-.642A2.819,2.819,0,0,1,12,6.081a2.3,2.3,0,0,1,1.574.5,1.812,1.812,0,0,1,.591,1.383v2.675a3.27,3.27,0,0,0,.2,1.273V12Zm-1.649-.757A1.746,1.746,0,0,0,12.56,11a1.462,1.462,0,0,0,.607-.628V9.18h-.779q-1.826,0-1.826,1.069a.9.9,0,0,0,.312.73A1.2,1.2,0,0,0,11.673,11.243Zm5.07-5.054v6.483q0,1.676-1.52,1.676a1.844,1.844,0,0,1-.607-.1v-.795a1.921,1.921,0,0,0,.451.043.675.675,0,0,0,.508-.18.889.889,0,0,0,.175-.626v-6.5Zm-1.1-1.542a.6.6,0,0,1,.148-.406.543.543,0,0,1,.432-.169.563.563,0,0,1,.44.167.587.587,0,0,1,.15.408.568.568,0,0,1-.15.4.573.573,0,0,1-.44.161.556.556,0,0,1-.435-.161A.58.58,0,0,1,15.648,4.647Zm2.433,4.394A3.433,3.433,0,0,1,18.417,7.5a2.5,2.5,0,0,1,.935-1.053,2.544,2.544,0,0,1,1.367-.371,2.451,2.451,0,0,1,1.92.822,3.162,3.162,0,0,1,.733,2.186v.07a3.462,3.462,0,0,1-.325,1.523,2.467,2.467,0,0,1-.929,1.05,2.573,2.573,0,0,1-1.388.376,2.445,2.445,0,0,1-1.915-.822,3.146,3.146,0,0,1-.733-2.175Zm1,.118a2.486,2.486,0,0,0,.448,1.552,1.52,1.52,0,0,0,2.4-.008,2.719,2.719,0,0,0,.446-1.662,2.482,2.482,0,0,0-.454-1.55A1.443,1.443,0,0,0,20.718,6.9a1.427,1.427,0,0,0-1.187.585A2.7,2.7,0,0,0,19.08,9.159Z" transform="translate(-351.677 -8572.705)" fill="#12263f"/>
    <path id="Trazado_628540" data-name="Trazado 628540" d="M3.042,12V4.18H5.6a2.968,2.968,0,0,1,1.915.526,1.9,1.9,0,0,1,.642,1.558,1.588,1.588,0,0,1-.312.969A2.02,2.02,0,0,1,7,7.886,1.814,1.814,0,0,1,8,8.56a1.935,1.935,0,0,1,.368,1.184A2.092,2.092,0,0,1,7.683,11.4a2.821,2.821,0,0,1-1.928.6ZM4.073,8.342v2.814h1.7a1.639,1.639,0,0,0,1.136-.373,1.311,1.311,0,0,0,.416-1.029q0-1.413-1.536-1.413Zm0-.827H5.631a1.635,1.635,0,0,0,1.082-.338,1.133,1.133,0,0,0,.406-.918,1.114,1.114,0,0,0-.376-.937A1.849,1.849,0,0,0,5.6,5.028H4.073ZM13.322,12a2.087,2.087,0,0,1-.14-.612,2.217,2.217,0,0,1-1.654.72,2.051,2.051,0,0,1-1.41-.486,1.573,1.573,0,0,1-.551-1.233,1.643,1.643,0,0,1,.69-1.41,3.254,3.254,0,0,1,1.942-.5h.967V8.02a1.116,1.116,0,0,0-.312-.83,1.252,1.252,0,0,0-.918-.309,1.449,1.449,0,0,0-.892.269.791.791,0,0,0-.36.65h-1a1.371,1.371,0,0,1,.309-.841,2.108,2.108,0,0,1,.838-.642A2.819,2.819,0,0,1,12,6.081a2.3,2.3,0,0,1,1.574.5,1.812,1.812,0,0,1,.591,1.383v2.675a3.27,3.27,0,0,0,.2,1.273V12Zm-1.649-.757A1.746,1.746,0,0,0,12.56,11a1.462,1.462,0,0,0,.607-.628V9.18h-.779q-1.826,0-1.826,1.069a.9.9,0,0,0,.312.73A1.2,1.2,0,0,0,11.673,11.243Zm5.07-5.054v6.483q0,1.676-1.52,1.676a1.844,1.844,0,0,1-.607-.1v-.795a1.921,1.921,0,0,0,.451.043.675.675,0,0,0,.508-.18.889.889,0,0,0,.175-.626v-6.5Zm-1.1-1.542a.6.6,0,0,1,.148-.406.543.543,0,0,1,.432-.169.563.563,0,0,1,.44.167.587.587,0,0,1,.15.408.568.568,0,0,1-.15.4.573.573,0,0,1-.44.161.556.556,0,0,1-.435-.161A.58.58,0,0,1,15.648,4.647Zm2.433,4.394A3.433,3.433,0,0,1,18.417,7.5a2.5,2.5,0,0,1,.935-1.053,2.544,2.544,0,0,1,1.367-.371,2.451,2.451,0,0,1,1.92.822,3.162,3.162,0,0,1,.733,2.186v.07a3.462,3.462,0,0,1-.325,1.523,2.467,2.467,0,0,1-.929,1.05,2.573,2.573,0,0,1-1.388.376,2.445,2.445,0,0,1-1.915-.822,3.146,3.146,0,0,1-.733-2.175Zm1,.118a2.486,2.486,0,0,0,.448,1.552,1.52,1.52,0,0,0,2.4-.008,2.719,2.719,0,0,0,.446-1.662,2.482,2.482,0,0,0-.454-1.55A1.443,1.443,0,0,0,20.718,6.9a1.427,1.427,0,0,0-1.187.585A2.7,2.7,0,0,0,19.08,9.159Z" transform="translate(-383.677 -8592.705)" fill="#12263f"/>
    <path id="Trazado_628541" data-name="Trazado 628541" d="M8.424,9.959H5.147L4.412,12H3.348L6.334,4.18h.9L10.229,12H9.17ZM5.459,9.11H8.118L6.786,5.453ZM12.205,12h-.994V3.75h.994Zm2.938-7.219V6.188h1.085v.768H15.143v3.6a.8.8,0,0,0,.145.524.611.611,0,0,0,.494.175,2.406,2.406,0,0,0,.473-.064V12a2.881,2.881,0,0,1-.763.107,1.237,1.237,0,0,1-1-.4,1.731,1.731,0,0,1-.338-1.144v-3.6H13.091V6.188h1.058V4.781Zm1.875,4.259A3.433,3.433,0,0,1,17.353,7.5a2.5,2.5,0,0,1,.935-1.053,2.544,2.544,0,0,1,1.367-.371,2.451,2.451,0,0,1,1.92.822,3.162,3.162,0,0,1,.733,2.186v.07a3.462,3.462,0,0,1-.325,1.523,2.467,2.467,0,0,1-.929,1.05,2.573,2.573,0,0,1-1.388.376,2.445,2.445,0,0,1-1.915-.822,3.146,3.146,0,0,1-.733-2.175Zm1,.118a2.486,2.486,0,0,0,.448,1.552,1.52,1.52,0,0,0,2.4-.008,2.719,2.719,0,0,0,.446-1.662,2.482,2.482,0,0,0-.454-1.55A1.443,1.443,0,0,0,19.655,6.9a1.427,1.427,0,0,0-1.187.585A2.7,2.7,0,0,0,18.017,9.159Z" transform="translate(-383.677 -8748.705)" fill="#12263f"/>
    <path id="Trazado_628542" data-name="Trazado 628542" d="M13.109,9.245V12H11.5V4.18h3.051A3.53,3.53,0,0,1,16.1,4.5a2.375,2.375,0,0,1,1.029.916,2.553,2.553,0,0,1,.36,1.351A2.245,2.245,0,0,1,16.7,8.581a3.277,3.277,0,0,1-2.178.663Zm0-1.305h1.439a1.415,1.415,0,0,0,.975-.3,1.094,1.094,0,0,0,.336-.859,1.29,1.29,0,0,0-.338-.929,1.264,1.264,0,0,0-.935-.365H13.109Zm5.07,1.1A3.447,3.447,0,0,1,18.512,7.5a2.438,2.438,0,0,1,.959-1.047,2.8,2.8,0,0,1,1.453-.371,2.646,2.646,0,0,1,1.92.72,2.889,2.889,0,0,1,.83,1.955l.011.4a3.038,3.038,0,0,1-.747,2.146,2.6,2.6,0,0,1-2,.808,2.608,2.608,0,0,1-2.006-.806,3.091,3.091,0,0,1-.749-2.191Zm1.552.113a2.166,2.166,0,0,0,.312,1.265,1.12,1.12,0,0,0,1.772.005,2.371,2.371,0,0,0,.317-1.383,2.145,2.145,0,0,0-.317-1.257,1.031,1.031,0,0,0-.892-.446,1.014,1.014,0,0,0-.881.443A2.41,2.41,0,0,0,19.731,9.153Zm4.667-.1a3.5,3.5,0,0,1,.61-2.165,1.978,1.978,0,0,1,1.668-.806,1.78,1.78,0,0,1,1.4.634V3.75h1.558V12h-1.4l-.075-.618a1.827,1.827,0,0,1-1.493.725,1.973,1.973,0,0,1-1.646-.808A3.615,3.615,0,0,1,24.4,9.051Zm1.552.113a2.288,2.288,0,0,0,.285,1.251.928.928,0,0,0,.827.435,1.039,1.039,0,0,0,1.015-.607V7.95a1.024,1.024,0,0,0-1-.607Q25.951,7.343,25.951,9.164Zm7.563,2.943a2.853,2.853,0,0,1-2.081-.784,2.787,2.787,0,0,1-.8-2.089v-.15a3.511,3.511,0,0,1,.338-1.566,2.483,2.483,0,0,1,.959-1.063,2.691,2.691,0,0,1,1.415-.373,2.412,2.412,0,0,1,1.877.752A3.056,3.056,0,0,1,35.9,8.965V9.6H32.2a1.442,1.442,0,0,0,.454.913,1.372,1.372,0,0,0,.959.344,1.675,1.675,0,0,0,1.4-.65l.763.854a2.33,2.33,0,0,1-.945.771A3.1,3.1,0,0,1,33.514,12.107Zm-.177-4.77a.972.972,0,0,0-.749.312,1.609,1.609,0,0,0-.368.892h2.159V8.417a1.147,1.147,0,0,0-.279-.8A1,1,0,0,0,33.336,7.338Zm6.714.306a4.217,4.217,0,0,0-.559-.043,1.137,1.137,0,0,0-1.155.6V12H36.785V6.188h1.466l.043.693a1.438,1.438,0,0,1,1.294-.8,1.626,1.626,0,0,1,.483.07Z" transform="translate(-372.677 -8637.705) rotate(-90)" fill="#12263f"/>
    <path id="Trazado_611438" data-name="Trazado 611438" d="M-3478-8842v-182.589" transform="translate(3126.323 264.294)" fill="none" stroke="#16263d" stroke-width="1"/>
    <path id="Trazado_611439" data-name="Trazado 611439" d="M-3478-8801.734v-222.854" transform="translate(-9153.911 -5099.705) rotate(90)" fill="none" stroke="#16263d" stroke-width="1"/>
    <path id="Trazado_611440" data-name="Trazado 611440" d="M-3482.351-9020.273l4.951-4.951,4.657,4.951" transform="translate(3125.87 264.93)" fill="none" stroke="#16263d" stroke-width="1"/>
    <path id="Trazado_611441" data-name="Trazado 611441" d="M-3482.351-9020.273l4.951-4.951,4.657,4.951" transform="translate(-9154.548 -5100.159) rotate(90)" fill="none" stroke="#16263d" stroke-width="1"/>
    <path id="Trazado_628543" data-name="Trazado 628543" d="M5.5,0A5.5,5.5,0,1,1,0,5.5,5.5,5.5,0,0,1,5.5,0Z" transform="translate(-330.677 -8718.705)" fill="#583cb6"/>
    <path id="Trazado_628544" data-name="Trazado 628544" d="M5.5,0A5.5,5.5,0,1,1,0,5.5,5.5,5.5,0,0,1,5.5,0Z" transform="translate(-258.677 -8718.705)" fill="#f0bd51"/>
    <path id="Trazado_628545" data-name="Trazado 628545" d="M5.5,0A5.5,5.5,0,1,1,0,5.5,5.5,5.5,0,0,1,5.5,0Z" transform="translate(-239.677 -8727.705)" fill="#faebcd"/>
    <path id="Trazado_628546" data-name="Trazado 628546" d="M5.5,0A5.5,5.5,0,1,1,0,5.5,5.5,5.5,0,0,1,5.5,0Z" transform="translate(-225.677 -8732.705)" fill="#f7e9e1"/>
    <path id="Trazado_628547" data-name="Trazado 628547" d="M5.5,0A5.5,5.5,0,1,1,0,5.5,5.5,5.5,0,0,1,5.5,0Z" transform="translate(-157.677 -8738.705)" fill="#f0bd51"/>
    <path id="Trazado_628548" data-name="Trazado 628548" d="M5.5,0A5.5,5.5,0,1,1,0,5.5,5.5,5.5,0,0,1,5.5,0Z" transform="translate(-151.677 -8726.705)" fill="#ef8b53"/>
    <path id="Trazado_628549" data-name="Trazado 628549" d="M5.5,0A5.5,5.5,0,1,1,0,5.5,5.5,5.5,0,0,1,5.5,0Z" transform="translate(-241.677 -8665.705)" fill="#583cb6"/>
    <path id="Trazado_628550" data-name="Trazado 628550" d="M5.5,0A5.5,5.5,0,1,1,0,5.5,5.5,5.5,0,0,1,5.5,0Z" transform="translate(-256.677 -8612.705)" fill="#ef8b53"/>
    <path id="Trazado_628551" data-name="Trazado 628551" d="M10.392,4.18l2.557,6.381L15.5,4.18h1.337V12H15.811V8.955l.1-3.287L13.34,12h-.79L9.989,5.684l.1,3.271V12H9.06V4.18ZM22.1,12a2.087,2.087,0,0,1-.14-.612,2.217,2.217,0,0,1-1.654.72,2.051,2.051,0,0,1-1.41-.486,1.573,1.573,0,0,1-.551-1.233,1.643,1.643,0,0,1,.69-1.41,3.254,3.254,0,0,1,1.942-.5h.967V8.02a1.116,1.116,0,0,0-.312-.83,1.252,1.252,0,0,0-.918-.309,1.449,1.449,0,0,0-.892.269.791.791,0,0,0-.36.65h-1a1.371,1.371,0,0,1,.309-.841,2.108,2.108,0,0,1,.838-.642,2.819,2.819,0,0,1,1.163-.236,2.3,2.3,0,0,1,1.574.5,1.812,1.812,0,0,1,.591,1.383v2.675a3.27,3.27,0,0,0,.2,1.273V12Zm-1.649-.757A1.746,1.746,0,0,0,21.333,11a1.462,1.462,0,0,0,.607-.628V9.18h-.779q-1.826,0-1.826,1.069a.9.9,0,0,0,.312.73A1.2,1.2,0,0,0,20.446,11.243Zm4.984-5.054.032.73a2.118,2.118,0,0,1,1.74-.838q1.842,0,1.858,2.079V12h-.994V8.154a1.338,1.338,0,0,0-.287-.929,1.152,1.152,0,0,0-.878-.3,1.434,1.434,0,0,0-.849.258,1.751,1.751,0,0,0-.569.677V12h-.994V6.188Zm6.478-1.407V6.188h1.085v.768H31.908v3.6a.8.8,0,0,0,.145.524.611.611,0,0,0,.494.175,2.406,2.406,0,0,0,.473-.064V12a2.881,2.881,0,0,1-.763.107,1.237,1.237,0,0,1-1-.4,1.731,1.731,0,0,1-.338-1.144v-3.6H29.856V6.188h1.058V4.781Zm4.657,7.326a2.539,2.539,0,0,1-1.923-.776A2.881,2.881,0,0,1,33.9,9.255V9.073a3.487,3.487,0,0,1,.33-1.544,2.577,2.577,0,0,1,.924-1.063,2.323,2.323,0,0,1,1.286-.384,2.177,2.177,0,0,1,1.762.747,3.232,3.232,0,0,1,.628,2.138v.414H34.895a2.066,2.066,0,0,0,.5,1.388,1.579,1.579,0,0,0,1.222.529,1.731,1.731,0,0,0,.892-.215,2.24,2.24,0,0,0,.639-.569l.607.473A2.44,2.44,0,0,1,36.565,12.107ZM36.441,6.9a1.325,1.325,0,0,0-1.01.438,2.128,2.128,0,0,0-.5,1.227h2.911V8.487a1.893,1.893,0,0,0-.408-1.174A1.248,1.248,0,0,0,36.441,6.9Zm4.479-.709.032.73a2.118,2.118,0,0,1,1.74-.838q1.842,0,1.858,2.079V12h-.994V8.154a1.338,1.338,0,0,0-.287-.929,1.152,1.152,0,0,0-.878-.3,1.434,1.434,0,0,0-.849.258,1.751,1.751,0,0,0-.569.677V12h-.994V6.188Zm7.541,5.919a2.539,2.539,0,0,1-1.923-.776A2.881,2.881,0,0,1,45.8,9.255V9.073a3.487,3.487,0,0,1,.33-1.544,2.577,2.577,0,0,1,.924-1.063,2.323,2.323,0,0,1,1.286-.384,2.177,2.177,0,0,1,1.762.747,3.232,3.232,0,0,1,.628,2.138v.414H46.792a2.066,2.066,0,0,0,.5,1.388,1.579,1.579,0,0,0,1.222.529,1.731,1.731,0,0,0,.892-.215,2.24,2.24,0,0,0,.639-.569l.607.473A2.44,2.44,0,0,1,48.462,12.107ZM48.338,6.9a1.325,1.325,0,0,0-1.01.438,2.128,2.128,0,0,0-.5,1.227h2.911V8.487a1.893,1.893,0,0,0-.408-1.174A1.248,1.248,0,0,0,48.338,6.9Zm6.349.183a2.978,2.978,0,0,0-.489-.038,1.309,1.309,0,0,0-1.327.833V12h-.994V6.188h.967l.016.671a1.547,1.547,0,0,1,1.386-.779,1.015,1.015,0,0,1,.44.075ZM9.973,21.458a.731.731,0,0,0-.3-.626,2.921,2.921,0,0,0-1.058-.384,5,5,0,0,1-1.2-.387,1.7,1.7,0,0,1-.655-.537,1.285,1.285,0,0,1-.212-.741,1.508,1.508,0,0,1,.6-1.208,2.36,2.36,0,0,1,1.544-.494,2.428,2.428,0,0,1,1.6.51,1.621,1.621,0,0,1,.615,1.305h-1a.9.9,0,0,0-.346-.7,1.3,1.3,0,0,0-.873-.3,1.358,1.358,0,0,0-.849.236.744.744,0,0,0-.306.618.6.6,0,0,0,.285.542,3.5,3.5,0,0,0,1.029.349,5.359,5.359,0,0,1,1.206.4,1.759,1.759,0,0,1,.685.556,1.367,1.367,0,0,1,.223.792,1.487,1.487,0,0,1-.623,1.249,2.613,2.613,0,0,1-1.617.47,2.926,2.926,0,0,1-1.235-.247,2.009,2.009,0,0,1-.841-.69,1.664,1.664,0,0,1-.3-.959h.994a1.029,1.029,0,0,0,.4.792,1.552,1.552,0,0,0,.986.293,1.6,1.6,0,0,0,.905-.228A.7.7,0,0,0,9.973,21.458ZM15.849,23a2.087,2.087,0,0,1-.14-.612,2.217,2.217,0,0,1-1.654.72,2.051,2.051,0,0,1-1.41-.486,1.573,1.573,0,0,1-.551-1.233,1.643,1.643,0,0,1,.69-1.41,3.254,3.254,0,0,1,1.942-.5h.967V19.02a1.116,1.116,0,0,0-.312-.83,1.252,1.252,0,0,0-.918-.309,1.449,1.449,0,0,0-.892.269.791.791,0,0,0-.36.65h-1a1.371,1.371,0,0,1,.309-.841,2.108,2.108,0,0,1,.838-.642,2.819,2.819,0,0,1,1.163-.236,2.3,2.3,0,0,1,1.574.5,1.812,1.812,0,0,1,.591,1.383v2.675a3.27,3.27,0,0,0,.2,1.273V23ZM14.2,22.243A1.746,1.746,0,0,0,15.086,22a1.462,1.462,0,0,0,.607-.628V20.18h-.779q-1.826,0-1.826,1.069a.9.9,0,0,0,.312.73A1.2,1.2,0,0,0,14.2,22.243Zm5.393-6.461v1.407h1.085v.768H19.592v3.6a.8.8,0,0,0,.145.524.611.611,0,0,0,.494.175,2.406,2.406,0,0,0,.473-.064V23a2.881,2.881,0,0,1-.763.107,1.237,1.237,0,0,1-1-.4,1.731,1.731,0,0,1-.338-1.144v-3.6H17.541v-.768H18.6V15.781ZM22.917,23h-.994V17.188h.994Zm-1.074-7.353a.593.593,0,0,1,.148-.408.555.555,0,0,1,.438-.167.563.563,0,0,1,.44.167.587.587,0,0,1,.15.408.568.568,0,0,1-.15.4.573.573,0,0,1-.44.161.565.565,0,0,1-.438-.161A.573.573,0,0,1,21.843,15.647Zm6.048,5.812a.732.732,0,0,0-.3-.626,2.921,2.921,0,0,0-1.058-.384,5,5,0,0,1-1.2-.387,1.7,1.7,0,0,1-.655-.537,1.285,1.285,0,0,1-.212-.741,1.508,1.508,0,0,1,.6-1.208,2.36,2.36,0,0,1,1.544-.494,2.428,2.428,0,0,1,1.6.51,1.621,1.621,0,0,1,.615,1.305h-1a.9.9,0,0,0-.346-.7,1.3,1.3,0,0,0-.873-.3,1.358,1.358,0,0,0-.849.236.744.744,0,0,0-.306.618.6.6,0,0,0,.285.542,3.5,3.5,0,0,0,1.029.349,5.359,5.359,0,0,1,1.206.4,1.759,1.759,0,0,1,.685.556,1.367,1.367,0,0,1,.223.792,1.487,1.487,0,0,1-.623,1.249,2.613,2.613,0,0,1-1.617.47,2.926,2.926,0,0,1-1.235-.247,2.009,2.009,0,0,1-.841-.69,1.664,1.664,0,0,1-.3-.959h.994a1.029,1.029,0,0,0,.4.792,1.552,1.552,0,0,0,.986.293,1.6,1.6,0,0,0,.905-.228A.7.7,0,0,0,27.891,21.458ZM30.667,23V17.957h-.918v-.768h.918v-.6a1.979,1.979,0,0,1,.5-1.445,1.887,1.887,0,0,1,1.413-.51,2.608,2.608,0,0,1,.682.091l-.054.806a2.854,2.854,0,0,0-.537-.048.971.971,0,0,0-.747.282,1.141,1.141,0,0,0-.263.808v.612H32.9v.768H31.661V23Zm5.742.107a2.539,2.539,0,0,1-1.923-.776,2.881,2.881,0,0,1-.741-2.076v-.183a3.487,3.487,0,0,1,.33-1.544A2.577,2.577,0,0,1,35,17.465a2.323,2.323,0,0,1,1.286-.384,2.177,2.177,0,0,1,1.762.747,3.232,3.232,0,0,1,.628,2.138v.414H34.739a2.066,2.066,0,0,0,.5,1.388,1.579,1.579,0,0,0,1.222.529,1.731,1.731,0,0,0,.892-.215,2.24,2.24,0,0,0,.639-.569l.607.473A2.44,2.44,0,0,1,36.409,23.107Zm-.124-5.21a1.325,1.325,0,0,0-1.01.438,2.128,2.128,0,0,0-.5,1.227h2.911v-.075a1.893,1.893,0,0,0-.408-1.174A1.248,1.248,0,0,0,36.286,17.9Zm5.871,4.4a1.431,1.431,0,0,0,.929-.322,1.134,1.134,0,0,0,.44-.806h.94a1.8,1.8,0,0,1-.344.951,2.264,2.264,0,0,1-.846.72,2.441,2.441,0,0,1-1.12.269,2.394,2.394,0,0,1-1.888-.792,3.155,3.155,0,0,1-.7-2.167v-.167a3.5,3.5,0,0,1,.312-1.509,2.373,2.373,0,0,1,.894-1.026,2.54,2.54,0,0,1,1.378-.365,2.331,2.331,0,0,1,1.625.585,2.092,2.092,0,0,1,.69,1.52h-.94a1.369,1.369,0,0,0-.427-.927,1.328,1.328,0,0,0-.948-.363,1.391,1.391,0,0,0-1.174.545,2.56,2.56,0,0,0-.416,1.576v.188a2.509,2.509,0,0,0,.414,1.547A1.4,1.4,0,0,0,42.156,22.3Zm4.42-4.4a2.113,2.113,0,0,1,1.719-.811q1.842,0,1.858,2.079V23H49.16V19.154a1.338,1.338,0,0,0-.287-.929,1.152,1.152,0,0,0-.878-.3,1.434,1.434,0,0,0-.849.258,1.751,1.751,0,0,0-.569.677V23h-.994V14.75h.994Zm4.8,2.148a3.433,3.433,0,0,1,.336-1.536,2.5,2.5,0,0,1,.935-1.053,2.544,2.544,0,0,1,1.367-.371,2.451,2.451,0,0,1,1.92.822,3.162,3.162,0,0,1,.733,2.186v.07a3.463,3.463,0,0,1-.325,1.523,2.467,2.467,0,0,1-.929,1.05,2.573,2.573,0,0,1-1.388.376,2.445,2.445,0,0,1-1.915-.822,3.146,3.146,0,0,1-.733-2.175Zm1,.118a2.486,2.486,0,0,0,.448,1.552,1.52,1.52,0,0,0,2.4-.008,2.719,2.719,0,0,0,.446-1.662,2.482,2.482,0,0,0-.454-1.55,1.443,1.443,0,0,0-1.206-.594,1.427,1.427,0,0,0-1.187.585A2.7,2.7,0,0,0,52.377,20.159Z" transform="translate(-330.677 -8718.705)" fill="#12263f"/>
    <path id="Trazado_628552" data-name="Trazado 628552" d="M20.425,4.18l2.557,6.381L25.538,4.18h1.337V12H25.844V8.955l.1-3.287L23.373,12h-.79L20.022,5.684l.1,3.271V12H19.093V4.18Zm7.853,4.861A3.433,3.433,0,0,1,28.613,7.5a2.5,2.5,0,0,1,.935-1.053,2.544,2.544,0,0,1,1.367-.371,2.451,2.451,0,0,1,1.92.822,3.162,3.162,0,0,1,.733,2.186v.07a3.463,3.463,0,0,1-.325,1.523,2.467,2.467,0,0,1-.929,1.05,2.573,2.573,0,0,1-1.388.376,2.445,2.445,0,0,1-1.915-.822,3.146,3.146,0,0,1-.733-2.175Zm1,.118a2.486,2.486,0,0,0,.448,1.552,1.52,1.52,0,0,0,2.4-.008,2.719,2.719,0,0,0,.446-1.662,2.482,2.482,0,0,0-.454-1.55A1.443,1.443,0,0,0,30.914,6.9a1.427,1.427,0,0,0-1.187.585A2.7,2.7,0,0,0,29.276,9.159Zm6.478-2.97.032.73a2.118,2.118,0,0,1,1.74-.838q1.842,0,1.858,2.079V12h-.994V8.154a1.338,1.338,0,0,0-.287-.929,1.152,1.152,0,0,0-.878-.3,1.434,1.434,0,0,0-.849.258,1.751,1.751,0,0,0-.569.677V12h-.994V6.188ZM41.963,12h-.994V6.188h.994ZM40.888,4.647a.593.593,0,0,1,.148-.408.555.555,0,0,1,.438-.167.563.563,0,0,1,.44.167.587.587,0,0,1,.15.408.568.568,0,0,1-.15.4.573.573,0,0,1-.44.161.565.565,0,0,1-.438-.161A.573.573,0,0,1,40.888,4.647Zm4.012.134V6.188h1.085v.768H44.9v3.6a.8.8,0,0,0,.145.524.611.611,0,0,0,.494.175,2.406,2.406,0,0,0,.473-.064V12a2.881,2.881,0,0,1-.763.107,1.237,1.237,0,0,1-1-.4,1.731,1.731,0,0,1-.338-1.144v-3.6H42.849V6.188h1.058V4.781Zm1.875,4.259A3.433,3.433,0,0,1,47.111,7.5a2.5,2.5,0,0,1,.935-1.053,2.544,2.544,0,0,1,1.367-.371,2.451,2.451,0,0,1,1.92.822,3.162,3.162,0,0,1,.733,2.186v.07a3.463,3.463,0,0,1-.325,1.523,2.467,2.467,0,0,1-.929,1.05,2.573,2.573,0,0,1-1.388.376,2.445,2.445,0,0,1-1.915-.822,3.146,3.146,0,0,1-.733-2.175Zm1,.118a2.486,2.486,0,0,0,.448,1.552,1.52,1.52,0,0,0,2.4-.008,2.719,2.719,0,0,0,.446-1.662,2.482,2.482,0,0,0-.454-1.55A1.443,1.443,0,0,0,49.412,6.9a1.427,1.427,0,0,0-1.187.585A2.7,2.7,0,0,0,47.774,9.159ZM56.121,7.08a2.978,2.978,0,0,0-.489-.038,1.309,1.309,0,0,0-1.327.833V12h-.994V6.188h.967l.016.671a1.547,1.547,0,0,1,1.386-.779,1.015,1.015,0,0,1,.44.075Zm3.325,5.027a2.539,2.539,0,0,1-1.923-.776,2.881,2.881,0,0,1-.741-2.076V9.073a3.487,3.487,0,0,1,.33-1.544,2.577,2.577,0,0,1,.924-1.063,2.323,2.323,0,0,1,1.286-.384,2.177,2.177,0,0,1,1.762.747,3.232,3.232,0,0,1,.628,2.138v.414H57.775a2.066,2.066,0,0,0,.5,1.388A1.579,1.579,0,0,0,59.5,11.3a1.731,1.731,0,0,0,.892-.215,2.24,2.24,0,0,0,.639-.569l.607.473A2.44,2.44,0,0,1,59.446,12.107ZM59.322,6.9a1.325,1.325,0,0,0-1.01.438,2.128,2.128,0,0,0-.5,1.227h2.911V8.487a1.893,1.893,0,0,0-.408-1.174A1.248,1.248,0,0,0,59.322,6.9ZM66.449,12a2.087,2.087,0,0,1-.14-.612,2.217,2.217,0,0,1-1.654.72,2.051,2.051,0,0,1-1.41-.486,1.573,1.573,0,0,1-.551-1.233,1.643,1.643,0,0,1,.69-1.41,3.254,3.254,0,0,1,1.942-.5h.967V8.02a1.116,1.116,0,0,0-.312-.83,1.252,1.252,0,0,0-.918-.309,1.449,1.449,0,0,0-.892.269.791.791,0,0,0-.36.65h-1a1.371,1.371,0,0,1,.309-.841,2.108,2.108,0,0,1,.838-.642,2.819,2.819,0,0,1,1.163-.236,2.3,2.3,0,0,1,1.574.5,1.812,1.812,0,0,1,.591,1.383v2.675a3.27,3.27,0,0,0,.2,1.273V12ZM64.8,11.243A1.746,1.746,0,0,0,65.687,11a1.462,1.462,0,0,0,.607-.628V9.18h-.779q-1.826,0-1.826,1.069a.9.9,0,0,0,.312.73A1.2,1.2,0,0,0,64.8,11.243ZM71.654,7.08a2.978,2.978,0,0,0-.489-.038,1.309,1.309,0,0,0-1.327.833V12h-.994V6.188h.967l.016.671a1.547,1.547,0,0,1,1.386-.779,1.015,1.015,0,0,1,.44.075ZM.769,19.826a8.3,8.3,0,0,1,.325-2.331,6.772,6.772,0,0,1,.969-2.03A4.124,4.124,0,0,1,3.4,14.175l.2.655a4.278,4.278,0,0,0-1.286,1.837,7.963,7.963,0,0,0-.551,2.766l-.005.457a8,8,0,0,0,.757,3.6A4.3,4.3,0,0,0,3.6,24.917l-.2.607a4.257,4.257,0,0,1-1.364-1.332A7.466,7.466,0,0,1,.769,19.826ZM5.5,17.188l.027.645a2.146,2.146,0,0,1,1.724-.752,1.662,1.662,0,0,1,1.66.935,2.2,2.2,0,0,1,.755-.677,2.229,2.229,0,0,1,1.1-.258q1.912,0,1.944,2.025V23h-.994V19.165a1.334,1.334,0,0,0-.285-.932,1.254,1.254,0,0,0-.956-.309,1.318,1.318,0,0,0-.918.33,1.34,1.34,0,0,0-.424.889V23h-1V19.192a1.109,1.109,0,0,0-1.241-1.268,1.329,1.329,0,0,0-1.337.833V23H4.561V17.188ZM15.287,23h-1V17.188h1Zm.011-8.245h1.2l-1.439,1.579h-.8Zm2.567,2.433.032.73a2.118,2.118,0,0,1,1.74-.838q1.842,0,1.858,2.079V23H20.5V19.154a1.338,1.338,0,0,0-.287-.929,1.152,1.152,0,0,0-.878-.3,1.434,1.434,0,0,0-.849.258,1.751,1.751,0,0,0-.569.677V23h-.994V17.188ZM24.074,23h-.994V17.188h.994ZM23,15.647a.593.593,0,0,1,.148-.408.555.555,0,0,1,.438-.167.563.563,0,0,1,.44.167.587.587,0,0,1,.15.408.568.568,0,0,1-.15.4.573.573,0,0,1-.44.161.565.565,0,0,1-.438-.161A.573.573,0,0,1,23,15.647Zm3.6,1.542.027.645a2.146,2.146,0,0,1,1.724-.752,1.662,1.662,0,0,1,1.66.935,2.2,2.2,0,0,1,.755-.677,2.229,2.229,0,0,1,1.1-.258q1.912,0,1.944,2.025V23h-.994V19.165a1.334,1.334,0,0,0-.285-.932,1.254,1.254,0,0,0-.956-.309,1.318,1.318,0,0,0-.918.33,1.34,1.34,0,0,0-.424.889V23h-1V19.192a1.109,1.109,0,0,0-1.241-1.268,1.329,1.329,0,0,0-1.337.833V23h-.994V17.188Zm8.443,2.852a3.433,3.433,0,0,1,.336-1.536,2.5,2.5,0,0,1,.935-1.053,2.544,2.544,0,0,1,1.367-.371,2.451,2.451,0,0,1,1.92.822,3.162,3.162,0,0,1,.733,2.186v.07a3.463,3.463,0,0,1-.325,1.523,2.467,2.467,0,0,1-.929,1.05,2.573,2.573,0,0,1-1.388.376,2.445,2.445,0,0,1-1.915-.822,3.146,3.146,0,0,1-.733-2.175Zm1,.118a2.486,2.486,0,0,0,.448,1.552,1.52,1.52,0,0,0,2.4-.008,2.719,2.719,0,0,0,.446-1.662,2.482,2.482,0,0,0-.454-1.55,1.443,1.443,0,0,0-1.206-.594,1.427,1.427,0,0,0-1.187.585A2.7,2.7,0,0,0,36.041,20.159Zm10.672,2.949a2.539,2.539,0,0,1-1.923-.776,2.881,2.881,0,0,1-.741-2.076v-.183a3.487,3.487,0,0,1,.33-1.544,2.577,2.577,0,0,1,.924-1.063,2.323,2.323,0,0,1,1.286-.384,2.177,2.177,0,0,1,1.762.747,3.232,3.232,0,0,1,.628,2.138v.414H45.043a2.066,2.066,0,0,0,.5,1.388,1.579,1.579,0,0,0,1.222.529,1.731,1.731,0,0,0,.892-.215,2.24,2.24,0,0,0,.639-.569l.607.473A2.44,2.44,0,0,1,46.713,23.107ZM46.59,17.9a1.325,1.325,0,0,0-1.01.438,2.128,2.128,0,0,0-.5,1.227h2.911v-.075a1.893,1.893,0,0,0-.408-1.174A1.248,1.248,0,0,0,46.59,17.9Zm6.923,3.561a.731.731,0,0,0-.3-.626,2.921,2.921,0,0,0-1.058-.384,5,5,0,0,1-1.2-.387,1.7,1.7,0,0,1-.655-.537,1.285,1.285,0,0,1-.212-.741,1.508,1.508,0,0,1,.6-1.208,2.36,2.36,0,0,1,1.544-.494,2.428,2.428,0,0,1,1.6.51,1.621,1.621,0,0,1,.615,1.305h-1a.9.9,0,0,0-.346-.7,1.3,1.3,0,0,0-.873-.3,1.358,1.358,0,0,0-.849.236.744.744,0,0,0-.306.618.6.6,0,0,0,.285.542,3.5,3.5,0,0,0,1.029.349,5.359,5.359,0,0,1,1.206.4,1.759,1.759,0,0,1,.685.556,1.367,1.367,0,0,1,.223.792,1.487,1.487,0,0,1-.623,1.249,2.613,2.613,0,0,1-1.617.47,2.926,2.926,0,0,1-1.235-.247,2.009,2.009,0,0,1-.841-.69,1.663,1.663,0,0,1-.3-.959h.994a1.029,1.029,0,0,0,.4.792,1.552,1.552,0,0,0,.986.293,1.6,1.6,0,0,0,.905-.228A.7.7,0,0,0,53.513,21.458ZM56.29,23V17.957h-.918v-.768h.918v-.6a1.979,1.979,0,0,1,.5-1.445,1.887,1.887,0,0,1,1.413-.51,2.608,2.608,0,0,1,.682.091l-.054.806a2.854,2.854,0,0,0-.537-.048.971.971,0,0,0-.747.282,1.141,1.141,0,0,0-.263.808v.612h1.241v.768H57.284V23Zm6.918-.575a2.111,2.111,0,0,1-1.7.682,1.807,1.807,0,0,1-1.415-.54,2.336,2.336,0,0,1-.491-1.6V17.188h.994v3.754q0,1.321,1.074,1.321a1.487,1.487,0,0,0,1.515-.849V17.188h.994V23h-.945Zm4.888.682a2.539,2.539,0,0,1-1.923-.776,2.881,2.881,0,0,1-.741-2.076v-.183a3.487,3.487,0,0,1,.33-1.544,2.577,2.577,0,0,1,.924-1.063,2.323,2.323,0,0,1,1.286-.384,2.177,2.177,0,0,1,1.762.747,3.232,3.232,0,0,1,.628,2.138v.414H66.425a2.066,2.066,0,0,0,.5,1.388,1.579,1.579,0,0,0,1.222.529,1.731,1.731,0,0,0,.892-.215,2.24,2.24,0,0,0,.639-.569l.607.473A2.44,2.44,0,0,1,68.1,23.107Zm-.124-5.21a1.325,1.325,0,0,0-1.01.438,2.128,2.128,0,0,0-.5,1.227h2.911v-.075a1.893,1.893,0,0,0-.408-1.174A1.248,1.248,0,0,0,67.972,17.9Zm6.349.183a2.978,2.978,0,0,0-.489-.038,1.309,1.309,0,0,0-1.327.833V23h-.994V17.188h.967l.016.671a1.547,1.547,0,0,1,1.386-.779,1.015,1.015,0,0,1,.44.075Zm1.848,4.109h3.4V23H74.955v-.73l3.207-4.259H75v-.822h4.4v.7Zm4.168-2.148a3.433,3.433,0,0,1,.336-1.536,2.5,2.5,0,0,1,.935-1.053,2.544,2.544,0,0,1,1.367-.371,2.451,2.451,0,0,1,1.92.822,3.162,3.162,0,0,1,.733,2.186v.07a3.462,3.462,0,0,1-.325,1.523,2.467,2.467,0,0,1-.929,1.05,2.573,2.573,0,0,1-1.388.376,2.445,2.445,0,0,1-1.915-.822,3.146,3.146,0,0,1-.733-2.175Zm1,.118a2.486,2.486,0,0,0,.448,1.552,1.52,1.52,0,0,0,2.4-.008,2.719,2.719,0,0,0,.446-1.662,2.482,2.482,0,0,0-.454-1.55,1.443,1.443,0,0,0-1.206-.594,1.427,1.427,0,0,0-1.187.585A2.7,2.7,0,0,0,81.335,20.159Zm7.831-.279a8.308,8.308,0,0,1-.314,2.3,6.79,6.79,0,0,1-.961,2.028,4.212,4.212,0,0,1-1.356,1.321l-.209-.607a4.318,4.318,0,0,0,1.329-1.969,8.516,8.516,0,0,0,.513-2.962v-.172a8.842,8.842,0,0,0-.236-2.1,7.079,7.079,0,0,0-.658-1.738,4.013,4.013,0,0,0-.948-1.2l.209-.607a4.2,4.2,0,0,1,1.351,1.311,6.8,6.8,0,0,1,.961,2.025A8.5,8.5,0,0,1,89.167,19.879Z" transform="translate(-343.677 -8635.705)" fill="#12263f"/>
    <path id="Trazado_628553" data-name="Trazado 628553" d="M14.53,10.974a2.382,2.382,0,0,1-1.109.851,4.48,4.48,0,0,1-1.657.282,3.213,3.213,0,0,1-1.7-.448A2.988,2.988,0,0,1,8.92,10.383,4.406,4.406,0,0,1,8.5,8.466V7.784a4.113,4.113,0,0,1,.824-2.739,2.873,2.873,0,0,1,2.318-.972,2.967,2.967,0,0,1,1.971.626,2.726,2.726,0,0,1,.913,1.775H13.5a1.7,1.7,0,0,0-1.848-1.552,1.826,1.826,0,0,0-1.571.728,3.551,3.551,0,0,0-.54,2.108V8.4a3.328,3.328,0,0,0,.6,2.092,1.951,1.951,0,0,0,1.627.776,3.587,3.587,0,0,0,1.015-.129,1.569,1.569,0,0,0,.72-.435V8.944h-1.81V8.106H14.53ZM18.5,12.107a2.539,2.539,0,0,1-1.923-.776,2.881,2.881,0,0,1-.741-2.076V9.073a3.487,3.487,0,0,1,.33-1.544,2.577,2.577,0,0,1,.924-1.063,2.323,2.323,0,0,1,1.286-.384,2.177,2.177,0,0,1,1.762.747,3.232,3.232,0,0,1,.628,2.138v.414H16.834a2.066,2.066,0,0,0,.5,1.388,1.579,1.579,0,0,0,1.222.529,1.731,1.731,0,0,0,.892-.215,2.24,2.24,0,0,0,.639-.569l.607.473A2.44,2.44,0,0,1,18.5,12.107ZM18.381,6.9a1.325,1.325,0,0,0-1.01.438,2.128,2.128,0,0,0-.5,1.227h2.911V8.487a1.893,1.893,0,0,0-.408-1.174A1.248,1.248,0,0,0,18.381,6.9ZM25.3,10.458a.732.732,0,0,0-.3-.626,2.921,2.921,0,0,0-1.058-.384,5,5,0,0,1-1.2-.387,1.7,1.7,0,0,1-.655-.537,1.285,1.285,0,0,1-.212-.741,1.508,1.508,0,0,1,.6-1.208,2.36,2.36,0,0,1,1.544-.494,2.428,2.428,0,0,1,1.6.51A1.621,1.621,0,0,1,26.244,7.9h-1a.9.9,0,0,0-.346-.7,1.3,1.3,0,0,0-.873-.3,1.358,1.358,0,0,0-.849.236.744.744,0,0,0-.306.618.6.6,0,0,0,.285.542,3.5,3.5,0,0,0,1.029.349,5.359,5.359,0,0,1,1.206.4,1.759,1.759,0,0,1,.685.556,1.367,1.367,0,0,1,.223.792,1.487,1.487,0,0,1-.623,1.249,2.613,2.613,0,0,1-1.617.47,2.926,2.926,0,0,1-1.235-.247,2.009,2.009,0,0,1-.841-.69,1.664,1.664,0,0,1-.3-.959h.994a1.029,1.029,0,0,0,.4.792,1.552,1.552,0,0,0,.986.293,1.6,1.6,0,0,0,.905-.228A.7.7,0,0,0,25.3,10.458Zm3.636-5.677V6.188h1.085v.768H28.941v3.6a.8.8,0,0,0,.145.524.611.611,0,0,0,.494.175,2.406,2.406,0,0,0,.473-.064V12a2.881,2.881,0,0,1-.763.107,1.237,1.237,0,0,1-1-.4,1.731,1.731,0,0,1-.338-1.144v-3.6H26.889V6.188h1.058V4.781ZM32.265,12h-.994V6.188h.994ZM31.191,4.647a.593.593,0,0,1,.148-.408.555.555,0,0,1,.438-.167.563.563,0,0,1,.44.167.587.587,0,0,1,.15.408.568.568,0,0,1-.15.4.573.573,0,0,1-.44.161.565.565,0,0,1-.438-.161A.573.573,0,0,1,31.191,4.647Zm2.4,4.394A3.433,3.433,0,0,1,33.928,7.5a2.5,2.5,0,0,1,.935-1.053,2.544,2.544,0,0,1,1.367-.371,2.451,2.451,0,0,1,1.92.822,3.162,3.162,0,0,1,.733,2.186v.07a3.463,3.463,0,0,1-.325,1.523,2.467,2.467,0,0,1-.929,1.05,2.573,2.573,0,0,1-1.388.376,2.445,2.445,0,0,1-1.915-.822,3.146,3.146,0,0,1-.733-2.175Zm1,.118a2.486,2.486,0,0,0,.448,1.552,1.52,1.52,0,0,0,2.4-.008,2.719,2.719,0,0,0,.446-1.662,2.482,2.482,0,0,0-.454-1.55A1.443,1.443,0,0,0,36.229,6.9a1.427,1.427,0,0,0-1.187.585A2.7,2.7,0,0,0,34.591,9.159Zm6.478-2.97.032.73a2.118,2.118,0,0,1,1.74-.838q1.842,0,1.858,2.079V12h-.994V8.154a1.338,1.338,0,0,0-.287-.929,1.152,1.152,0,0,0-.878-.3,1.434,1.434,0,0,0-.849.258,1.751,1.751,0,0,0-.569.677V12h-.994V6.188ZM49.786,12a2.087,2.087,0,0,1-.14-.612,2.217,2.217,0,0,1-1.654.72,2.051,2.051,0,0,1-1.41-.486,1.573,1.573,0,0,1-.551-1.233,1.643,1.643,0,0,1,.69-1.41,3.254,3.254,0,0,1,1.942-.5h.967V8.02a1.116,1.116,0,0,0-.312-.83,1.252,1.252,0,0,0-.918-.309,1.449,1.449,0,0,0-.892.269.791.791,0,0,0-.36.65h-1a1.371,1.371,0,0,1,.309-.841,2.108,2.108,0,0,1,.838-.642,2.819,2.819,0,0,1,1.163-.236,2.3,2.3,0,0,1,1.574.5,1.812,1.812,0,0,1,.591,1.383v2.675a3.27,3.27,0,0,0,.2,1.273V12Zm-1.649-.757A1.746,1.746,0,0,0,49.023,11a1.462,1.462,0,0,0,.607-.628V9.18h-.779q-1.826,0-1.826,1.069a.9.9,0,0,0,.312.73A1.2,1.2,0,0,0,48.137,11.243ZM54.99,7.08a2.978,2.978,0,0,0-.489-.038,1.309,1.309,0,0,0-1.327.833V12h-.994V6.188h.967l.016.671a1.547,1.547,0,0,1,1.386-.779,1.015,1.015,0,0,1,.44.075ZM4.835,23a2.087,2.087,0,0,1-.14-.612,2.217,2.217,0,0,1-1.654.72,2.051,2.051,0,0,1-1.41-.486,1.573,1.573,0,0,1-.551-1.233,1.643,1.643,0,0,1,.69-1.41,3.254,3.254,0,0,1,1.942-.5h.967V19.02a1.116,1.116,0,0,0-.312-.83,1.252,1.252,0,0,0-.918-.309,1.449,1.449,0,0,0-.892.269.791.791,0,0,0-.36.65h-1a1.371,1.371,0,0,1,.309-.841,2.108,2.108,0,0,1,.838-.642,2.819,2.819,0,0,1,1.163-.236,2.3,2.3,0,0,1,1.574.5,1.812,1.812,0,0,1,.591,1.383v2.675a3.27,3.27,0,0,0,.2,1.273V23Zm-1.649-.757A1.746,1.746,0,0,0,4.073,22a1.462,1.462,0,0,0,.607-.628V20.18H3.9q-1.826,0-1.826,1.069a.9.9,0,0,0,.312.73A1.2,1.2,0,0,0,3.186,22.243Zm5.393-6.461v1.407H9.664v.768H8.579v3.6a.8.8,0,0,0,.145.524.611.611,0,0,0,.494.175,2.406,2.406,0,0,0,.473-.064V23a2.881,2.881,0,0,1-.763.107,1.237,1.237,0,0,1-1-.4,1.731,1.731,0,0,1-.338-1.144v-3.6H6.527v-.768H7.585V15.781Zm4.657,7.326a2.539,2.539,0,0,1-1.923-.776,2.881,2.881,0,0,1-.741-2.076v-.183a3.487,3.487,0,0,1,.33-1.544,2.577,2.577,0,0,1,.924-1.063,2.323,2.323,0,0,1,1.286-.384,2.177,2.177,0,0,1,1.762.747,3.232,3.232,0,0,1,.628,2.138v.414H11.565a2.066,2.066,0,0,0,.5,1.388,1.579,1.579,0,0,0,1.222.529,1.731,1.731,0,0,0,.892-.215,2.24,2.24,0,0,0,.639-.569l.607.473A2.44,2.44,0,0,1,13.236,23.107Zm-.124-5.21a1.325,1.325,0,0,0-1.01.438,2.128,2.128,0,0,0-.5,1.227h2.911v-.075a1.893,1.893,0,0,0-.408-1.174A1.248,1.248,0,0,0,13.112,17.9Zm4.479-.709.032.73a2.118,2.118,0,0,1,1.74-.838q1.842,0,1.858,2.079V23h-.994V19.154a1.338,1.338,0,0,0-.287-.929,1.152,1.152,0,0,0-.878-.3,1.434,1.434,0,0,0-.849.258,1.751,1.751,0,0,0-.569.677V23h-.994V17.188Zm6.478-1.407v1.407h1.085v.768H24.069v3.6a.8.8,0,0,0,.145.524.611.611,0,0,0,.494.175,2.406,2.406,0,0,0,.473-.064V23a2.881,2.881,0,0,1-.763.107,1.237,1.237,0,0,1-1-.4,1.731,1.731,0,0,1-.338-1.144v-3.6H22.017v-.768h1.058V15.781ZM29.9,23a2.087,2.087,0,0,1-.14-.612,2.217,2.217,0,0,1-1.654.72,2.051,2.051,0,0,1-1.41-.486,1.573,1.573,0,0,1-.551-1.233,1.643,1.643,0,0,1,.69-1.41,3.254,3.254,0,0,1,1.942-.5h.967V19.02a1.116,1.116,0,0,0-.312-.83,1.252,1.252,0,0,0-.918-.309,1.449,1.449,0,0,0-.892.269.791.791,0,0,0-.36.65h-1a1.371,1.371,0,0,1,.309-.841,2.108,2.108,0,0,1,.838-.642,2.819,2.819,0,0,1,1.163-.236,2.3,2.3,0,0,1,1.574.5,1.812,1.812,0,0,1,.591,1.383v2.675a3.27,3.27,0,0,0,.2,1.273V23Zm-1.649-.757A1.746,1.746,0,0,0,29.139,22a1.462,1.462,0,0,0,.607-.628V20.18h-.779q-1.826,0-1.826,1.069a.9.9,0,0,0,.312.73A1.2,1.2,0,0,0,28.253,22.243Zm4.979-5.054.027.645a2.146,2.146,0,0,1,1.724-.752,1.662,1.662,0,0,1,1.66.935,2.2,2.2,0,0,1,.755-.677,2.229,2.229,0,0,1,1.1-.258q1.912,0,1.944,2.025V23h-.994V19.165a1.334,1.334,0,0,0-.285-.932,1.254,1.254,0,0,0-.956-.309,1.318,1.318,0,0,0-.918.33,1.34,1.34,0,0,0-.424.889V23h-1V19.192a1.109,1.109,0,0,0-1.241-1.268,1.329,1.329,0,0,0-1.337.833V23h-.994V17.188ZM44.35,23.107a2.539,2.539,0,0,1-1.923-.776,2.881,2.881,0,0,1-.741-2.076v-.183a3.487,3.487,0,0,1,.33-1.544,2.577,2.577,0,0,1,.924-1.063,2.323,2.323,0,0,1,1.286-.384,2.177,2.177,0,0,1,1.762.747,3.232,3.232,0,0,1,.628,2.138v.414H42.68a2.066,2.066,0,0,0,.5,1.388A1.579,1.579,0,0,0,44.4,22.3a1.731,1.731,0,0,0,.892-.215,2.24,2.24,0,0,0,.639-.569l.607.473A2.44,2.44,0,0,1,44.35,23.107Zm-.124-5.21a1.325,1.325,0,0,0-1.01.438,2.128,2.128,0,0,0-.5,1.227h2.911v-.075a1.893,1.893,0,0,0-.408-1.174A1.248,1.248,0,0,0,44.227,17.9Zm4.479-.709.032.73a2.118,2.118,0,0,1,1.74-.838q1.842,0,1.858,2.079V23h-.994V19.154a1.338,1.338,0,0,0-.287-.929,1.152,1.152,0,0,0-.878-.3,1.434,1.434,0,0,0-.849.258,1.751,1.751,0,0,0-.569.677V23h-.994V17.188Zm6.478-1.407v1.407h1.085v.768H55.184v3.6a.8.8,0,0,0,.145.524.611.611,0,0,0,.494.175,2.406,2.406,0,0,0,.473-.064V23a2.881,2.881,0,0,1-.763.107,1.237,1.237,0,0,1-1-.4,1.731,1.731,0,0,1-.338-1.144v-3.6H53.132v-.768H54.19V15.781Zm4.657,7.326a2.539,2.539,0,0,1-1.923-.776,2.881,2.881,0,0,1-.741-2.076v-.183a3.487,3.487,0,0,1,.33-1.544,2.577,2.577,0,0,1,.924-1.063,2.323,2.323,0,0,1,1.286-.384,2.177,2.177,0,0,1,1.762.747,3.232,3.232,0,0,1,.628,2.138v.414H58.17a2.066,2.066,0,0,0,.5,1.388,1.579,1.579,0,0,0,1.222.529,1.731,1.731,0,0,0,.892-.215,2.24,2.24,0,0,0,.639-.569l.607.473A2.44,2.44,0,0,1,59.841,23.107Zm-.124-5.21a1.325,1.325,0,0,0-1.01.438,2.128,2.128,0,0,0-.5,1.227h2.911v-.075a1.893,1.893,0,0,0-.408-1.174A1.248,1.248,0,0,0,59.717,17.9Z" transform="translate(-226.677 -8718.705)" fill="#12263f"/>
    <path id="Trazado_628554" data-name="Trazado 628554" d="M10.392,4.18l2.557,6.381L15.5,4.18h1.337V12H15.811V8.955l.1-3.287L13.34,12h-.79L9.989,5.684l.1,3.271V12H9.06V4.18ZM22.1,12a2.087,2.087,0,0,1-.14-.612,2.217,2.217,0,0,1-1.654.72,2.051,2.051,0,0,1-1.41-.486,1.573,1.573,0,0,1-.551-1.233,1.643,1.643,0,0,1,.69-1.41,3.254,3.254,0,0,1,1.942-.5h.967V8.02a1.116,1.116,0,0,0-.312-.83,1.252,1.252,0,0,0-.918-.309,1.449,1.449,0,0,0-.892.269.791.791,0,0,0-.36.65h-1a1.371,1.371,0,0,1,.309-.841,2.108,2.108,0,0,1,.838-.642,2.819,2.819,0,0,1,1.163-.236,2.3,2.3,0,0,1,1.574.5,1.812,1.812,0,0,1,.591,1.383v2.675a3.27,3.27,0,0,0,.2,1.273V12Zm-1.649-.757A1.746,1.746,0,0,0,21.333,11a1.462,1.462,0,0,0,.607-.628V9.18h-.779q-1.826,0-1.826,1.069a.9.9,0,0,0,.312.73A1.2,1.2,0,0,0,20.446,11.243Zm4.984-5.054.032.73a2.118,2.118,0,0,1,1.74-.838q1.842,0,1.858,2.079V12h-.994V8.154a1.338,1.338,0,0,0-.287-.929,1.152,1.152,0,0,0-.878-.3,1.434,1.434,0,0,0-.849.258,1.751,1.751,0,0,0-.569.677V12h-.994V6.188Zm6.478-1.407V6.188h1.085v.768H31.908v3.6a.8.8,0,0,0,.145.524.611.611,0,0,0,.494.175,2.406,2.406,0,0,0,.473-.064V12a2.881,2.881,0,0,1-.763.107,1.237,1.237,0,0,1-1-.4,1.731,1.731,0,0,1-.338-1.144v-3.6H29.856V6.188h1.058V4.781Zm4.657,7.326a2.539,2.539,0,0,1-1.923-.776A2.881,2.881,0,0,1,33.9,9.255V9.073a3.487,3.487,0,0,1,.33-1.544,2.577,2.577,0,0,1,.924-1.063,2.323,2.323,0,0,1,1.286-.384,2.177,2.177,0,0,1,1.762.747,3.232,3.232,0,0,1,.628,2.138v.414H34.895a2.066,2.066,0,0,0,.5,1.388,1.579,1.579,0,0,0,1.222.529,1.731,1.731,0,0,0,.892-.215,2.24,2.24,0,0,0,.639-.569l.607.473A2.44,2.44,0,0,1,36.565,12.107ZM36.441,6.9a1.325,1.325,0,0,0-1.01.438,2.128,2.128,0,0,0-.5,1.227h2.911V8.487a1.893,1.893,0,0,0-.408-1.174A1.248,1.248,0,0,0,36.441,6.9Zm4.479-.709.032.73a2.118,2.118,0,0,1,1.74-.838q1.842,0,1.858,2.079V12h-.994V8.154a1.338,1.338,0,0,0-.287-.929,1.152,1.152,0,0,0-.878-.3,1.434,1.434,0,0,0-.849.258,1.751,1.751,0,0,0-.569.677V12h-.994V6.188Zm7.541,5.919a2.539,2.539,0,0,1-1.923-.776A2.881,2.881,0,0,1,45.8,9.255V9.073a3.487,3.487,0,0,1,.33-1.544,2.577,2.577,0,0,1,.924-1.063,2.323,2.323,0,0,1,1.286-.384,2.177,2.177,0,0,1,1.762.747,3.232,3.232,0,0,1,.628,2.138v.414H46.792a2.066,2.066,0,0,0,.5,1.388,1.579,1.579,0,0,0,1.222.529,1.731,1.731,0,0,0,.892-.215,2.24,2.24,0,0,0,.639-.569l.607.473A2.44,2.44,0,0,1,48.462,12.107ZM48.338,6.9a1.325,1.325,0,0,0-1.01.438,2.128,2.128,0,0,0-.5,1.227h2.911V8.487a1.893,1.893,0,0,0-.408-1.174A1.248,1.248,0,0,0,48.338,6.9Zm6.349.183a2.978,2.978,0,0,0-.489-.038,1.309,1.309,0,0,0-1.327.833V12h-.994V6.188h.967l.016.671a1.547,1.547,0,0,1,1.386-.779,1.015,1.015,0,0,1,.44.075ZM8,23H7.01V17.188H8ZM6.93,15.647a.593.593,0,0,1,.148-.408.555.555,0,0,1,.438-.167.563.563,0,0,1,.44.167.587.587,0,0,1,.15.408.568.568,0,0,1-.15.4.573.573,0,0,1-.44.161.565.565,0,0,1-.438-.161A.573.573,0,0,1,6.93,15.647Zm3.6,1.542.032.73a2.118,2.118,0,0,1,1.74-.838q1.842,0,1.858,2.079V23h-.994V19.154a1.338,1.338,0,0,0-.287-.929,1.152,1.152,0,0,0-.878-.3,1.434,1.434,0,0,0-.849.258,1.751,1.751,0,0,0-.569.677V23H9.594V17.188ZM16.152,23V17.957h-.918v-.768h.918v-.6a1.979,1.979,0,0,1,.5-1.445,1.887,1.887,0,0,1,1.413-.51,2.608,2.608,0,0,1,.682.091l-.054.806a2.854,2.854,0,0,0-.537-.048.971.971,0,0,0-.747.282,1.141,1.141,0,0,0-.263.808v.612h1.241v.768H17.146V23Zm3.067-2.959a3.433,3.433,0,0,1,.336-1.536,2.5,2.5,0,0,1,.935-1.053,2.544,2.544,0,0,1,1.367-.371,2.451,2.451,0,0,1,1.92.822,3.162,3.162,0,0,1,.733,2.186v.07a3.462,3.462,0,0,1-.325,1.523,2.467,2.467,0,0,1-.929,1.05,2.573,2.573,0,0,1-1.388.376,2.445,2.445,0,0,1-1.915-.822,3.146,3.146,0,0,1-.733-2.175Zm1,.118a2.486,2.486,0,0,0,.448,1.552,1.52,1.52,0,0,0,2.4-.008,2.719,2.719,0,0,0,.446-1.662,2.482,2.482,0,0,0-.454-1.55,1.443,1.443,0,0,0-1.206-.594,1.427,1.427,0,0,0-1.187.585A2.7,2.7,0,0,0,20.218,20.159Zm8.347-2.079a2.978,2.978,0,0,0-.489-.038,1.309,1.309,0,0,0-1.327.833V23h-.994V17.188h.967l.016.671a1.547,1.547,0,0,1,1.386-.779,1.015,1.015,0,0,1,.44.075Zm1.848-.892.027.645a2.146,2.146,0,0,1,1.724-.752,1.662,1.662,0,0,1,1.66.935,2.2,2.2,0,0,1,.755-.677,2.229,2.229,0,0,1,1.1-.258q1.912,0,1.944,2.025V23h-.994V19.165a1.334,1.334,0,0,0-.285-.932,1.254,1.254,0,0,0-.956-.309,1.318,1.318,0,0,0-.918.33,1.34,1.34,0,0,0-.424.889V23h-1V19.192A1.109,1.109,0,0,0,31.8,17.924a1.329,1.329,0,0,0-1.337.833V23h-.994V17.188ZM42.707,23a2.087,2.087,0,0,1-.14-.612,2.217,2.217,0,0,1-1.654.72,2.051,2.051,0,0,1-1.41-.486,1.573,1.573,0,0,1-.551-1.233,1.643,1.643,0,0,1,.69-1.41,3.254,3.254,0,0,1,1.942-.5h.967V19.02a1.116,1.116,0,0,0-.312-.83,1.252,1.252,0,0,0-.918-.309,1.449,1.449,0,0,0-.892.269.791.791,0,0,0-.36.65h-1a1.371,1.371,0,0,1,.309-.841,2.108,2.108,0,0,1,.838-.642,2.819,2.819,0,0,1,1.163-.236,2.3,2.3,0,0,1,1.574.5,1.812,1.812,0,0,1,.591,1.383v2.675a3.27,3.27,0,0,0,.2,1.273V23Zm-1.649-.757A1.746,1.746,0,0,0,41.944,22a1.462,1.462,0,0,0,.607-.628V20.18h-.779q-1.826,0-1.826,1.069a.9.9,0,0,0,.312.73A1.2,1.2,0,0,0,41.058,22.243Zm3.8-2.2a3.4,3.4,0,0,1,.634-2.151,2.156,2.156,0,0,1,3.276-.115V14.75h.994V23h-.913l-.048-.623a2.024,2.024,0,0,1-1.66.73A1.985,1.985,0,0,1,45.5,22.28a3.443,3.443,0,0,1-.636-2.159Zm.994.113a2.578,2.578,0,0,0,.408,1.547,1.32,1.32,0,0,0,1.128.559,1.45,1.45,0,0,0,1.38-.849V18.746a1.461,1.461,0,0,0-1.37-.822,1.326,1.326,0,0,0-1.139.564A2.838,2.838,0,0,0,45.854,20.159Zm5.188-.118a3.433,3.433,0,0,1,.336-1.536,2.5,2.5,0,0,1,.935-1.053,2.544,2.544,0,0,1,1.367-.371,2.451,2.451,0,0,1,1.92.822,3.162,3.162,0,0,1,.733,2.186v.07a3.463,3.463,0,0,1-.325,1.523,2.467,2.467,0,0,1-.929,1.05,2.573,2.573,0,0,1-1.388.376,2.445,2.445,0,0,1-1.915-.822,3.146,3.146,0,0,1-.733-2.175Zm1,.118a2.486,2.486,0,0,0,.448,1.552,1.52,1.52,0,0,0,2.4-.008,2.719,2.719,0,0,0,.446-1.662,2.482,2.482,0,0,0-.454-1.55A1.443,1.443,0,0,0,53.68,17.9a1.427,1.427,0,0,0-1.187.585A2.7,2.7,0,0,0,52.042,20.159Z" transform="translate(-226.677 -8635.705)" fill="#12263f"/>
  </g>
</svg>
