<svg xmlns="http://www.w3.org/2000/svg" xmlns:xlink="http://www.w3.org/1999/xlink" width="85" height="85" viewBox="0 0 85 85">
  <defs>
    <clipPath id="clip-path">
      <rect id="Rect치ngulo_34175" data-name="Rect치ngulo 34175" width="70" height="70" transform="translate(195 6111)" fill="#ffd41c"/>
    </clipPath>
  </defs>
  <g id="_12" data-name="12" transform="translate(-180 -6099)">
    <rect id="Rect치ngulo_34178" data-name="Rect치ngulo 34178" width="85" height="85" transform="translate(180 6099)" fill="none"/>
    <g id="Enmascarar_grupo_96" data-name="Enmascarar grupo 96" transform="translate(-7 -4)" clip-path="url(#clip-path)">
      <g id="surface1" transform="translate(204.788 6111)">
        <path id="Trazado_115175" data-name="Trazado 115175" d="M.859,7.523V63.269A1.343,1.343,0,0,0,2.2,64.612h43.3a1.343,1.343,0,0,0,1.343-1.343V7.523A1.343,1.343,0,0,0,45.505,6.18H2.2A1.343,1.343,0,0,0,.859,7.523Zm0,0" transform="translate(0.166 1.685)" fill="#f2f2f2"/>
        <path id="Trazado_115176" data-name="Trazado 115176" d="M37.177,6.18H31.4V64.612h5.78a1.344,1.344,0,0,0,1.344-1.343V7.523A1.344,1.344,0,0,0,37.177,6.18Zm0,0" transform="translate(8.494 1.685)" fill="#dbd9d1"/>
        <path id="Trazado_115177" data-name="Trazado 115177" d="M38.989,4.853h-11.1V2.683A1.878,1.878,0,0,0,26.007.806H19.153a1.877,1.877,0,0,0-1.877,1.878v2.17H6.172a.643.643,0,0,0-.643.644V9.872a.643.643,0,0,0,.643.644H38.989a.643.643,0,0,0,.643-.644V5.5A.643.643,0,0,0,38.989,4.853Zm0,0" transform="translate(1.44 0.22)" fill="#ee5646"/>
        <path id="Trazado_115178" data-name="Trazado 115178" d="M17.786,2.04V3.4a1.456,1.456,0,0,0,1.456,1.456h5.637V2.683A1.878,1.878,0,0,0,23,.806h-6.45A1.234,1.234,0,0,1,17.786,2.04Zm0,0" transform="translate(4.446 0.22)" fill="#d83e3a"/>
        <path id="Trazado_115179" data-name="Trazado 115179" d="M33.2,3.986h-6.45V9.648H33.2A.644.644,0,0,0,33.844,9V4.629A.644.644,0,0,0,33.2,3.986Zm0,0" transform="translate(7.227 1.087)" fill="#d83e3a"/>
        <path id="Trazado_115180" data-name="Trazado 115180" d="M9.328,32.021H6.838a1.068,1.068,0,0,0-1.068,1.068V50.133H10.4V33.089A1.068,1.068,0,0,0,9.328,32.021Zm0,0" transform="translate(1.505 8.733)" fill="#ee5646"/>
        <path id="Trazado_115181" data-name="Trazado 115181" d="M16.888,26.3H14.4a1.068,1.068,0,0,0-1.067,1.068v24.32h4.625V27.372A1.068,1.068,0,0,0,16.888,26.3Zm0,0" transform="translate(3.567 7.174)" fill="#f5b556"/>
        <path id="Trazado_115182" data-name="Trazado 115182" d="M24.447,21.286h-2.49a1.068,1.068,0,0,0-1.068,1.068V53.061h4.625V22.354A1.068,1.068,0,0,0,24.447,21.286Zm0,0" transform="translate(5.629 5.805)" fill="#97b4fc"/>
        <path id="Trazado_115183" data-name="Trazado 115183" d="M32.006,17.065h-2.49a1.068,1.068,0,0,0-1.068,1.068V54.212h4.626V18.133A1.069,1.069,0,0,0,32.006,17.065Zm0,0" transform="translate(7.69 4.654)" fill="#54dac4"/>
        <path id="Trazado_115184" data-name="Trazado 115184" d="M41.472,48.039H4.586a.7.7,0,0,1-.7-.7V45.415a.7.7,0,0,1,.7-.7H41.472a.7.7,0,0,1,.7.7v1.923A.7.7,0,0,1,41.472,48.039Zm0,0" transform="translate(0.991 12.195)" fill="#3c5666"/>
        <path id="Trazado_115185" data-name="Trazado 115185" d="M30.788,48.961l7.273,7.273a.771.771,0,0,0,1.091,0l1.755-1.754a.772.772,0,0,0,0-1.091l-7.273-7.273a.772.772,0,0,0-1.091,0L30.788,47.87A.772.772,0,0,0,30.788,48.961Zm0,0" transform="translate(8.267 12.516)" fill="#cc996a"/>
        <path id="Trazado_115186" data-name="Trazado 115186" d="M33.949,31.853a12.267,12.267,0,1,0,0,17.349A12.267,12.267,0,0,0,33.949,31.853Zm0,0" transform="translate(3.479 7.707)" fill="#cdd6df"/>
        <path id="Trazado_115187" data-name="Trazado 115187" d="M32.06,31.853a12.264,12.264,0,0,0-12.123-3.1,12.211,12.211,0,0,1,5.225,3.1c.076.076.148.155.222.233a8.674,8.674,0,0,1,0,16.882c-.074.078-.145.157-.222.233a12.212,12.212,0,0,1-5.225,3.1A12.268,12.268,0,0,0,32.06,31.853Zm0,0" transform="translate(5.369 7.708)" fill="#aebcc4"/>
        <path id="Trazado_115188" data-name="Trazado 115188" d="M30.639,45.891a8.674,8.674,0,1,1,0-12.267A8.674,8.674,0,0,1,30.639,45.891Zm0,0" transform="translate(4.249 8.477)" fill="#87dbfd"/>
        <path id="Trazado_115189" data-name="Trazado 115189" d="M29.9,33.624a8.675,8.675,0,0,0-11.362-.787,8.673,8.673,0,0,1,4.385,14.629,8.748,8.748,0,0,1-.906.787A8.674,8.674,0,0,0,29.9,33.624Zm0,0" transform="translate(4.988 8.478)" fill="#59c2e9"/>
        <path id="Trazado_115190" data-name="Trazado 115190" d="M17.865,33.118a9.7,9.7,0,1,0,13.718,0A9.711,9.711,0,0,0,17.865,33.118ZM30.132,45.385a7.645,7.645,0,1,1,0-10.817A7.658,7.658,0,0,1,30.132,45.385Zm0,0" transform="translate(4.03 8.259)"/>
        <path id="Trazado_115191" data-name="Trazado 115191" d="M49.952,65.179l-1.859-1.858V9.209A2.371,2.371,0,0,0,45.725,6.84H42.15V5.717a1.67,1.67,0,0,0-1.668-1.669H30.4V2.9A2.905,2.905,0,0,0,27.5,0H20.646a2.906,2.906,0,0,0-2.9,2.9V4.048H7.665A1.67,1.67,0,0,0,6,5.717V6.84H2.422A2.372,2.372,0,0,0,.054,9.209V64.955a2.371,2.371,0,0,0,2.369,2.369H43.505l2.151,2.151a1.8,1.8,0,0,0,2.541,0l1.754-1.754a1.8,1.8,0,0,0,0-2.541ZM8.047,6.1H18.769a1.025,1.025,0,0,0,1.025-1.025V2.9a.853.853,0,0,1,.852-.852H27.5a.853.853,0,0,1,.852.852v2.17A1.025,1.025,0,0,0,29.378,6.1H40.1V9.71H8.047ZM2.422,65.273a.318.318,0,0,1-.318-.318V9.209a.318.318,0,0,1,.318-.318H6v1.2A1.67,1.67,0,0,0,7.665,11.76H40.482a1.671,1.671,0,0,0,1.669-1.669v-1.2h3.574a.318.318,0,0,1,.318.318V61.27l-1.8-1.8V57.61a1.728,1.728,0,0,0-1.726-1.726h-.673V50.86a13.511,13.511,0,0,0,0-5.25V22.787a2.1,2.1,0,0,0-2.093-2.094h-2.49a2.1,2.1,0,0,0-2.093,2.094V25.98a1.025,1.025,0,0,0,2.051,0V22.787a.043.043,0,0,1,.042-.043h2.49a.043.043,0,0,1,.043.043V40.744a13.431,13.431,0,0,0-1.585-1.908q-.477-.478-.99-.9V30.754a1.025,1.025,0,0,0-2.051,0v5.811A13.213,13.213,0,0,0,32.222,35.4V28.16a2.1,2.1,0,0,0-2.093-2.093h-2.49a2.1,2.1,0,0,0-2.094,2.093v7.195A13.247,13.247,0,0,0,22.6,36.48V34.546a2.1,2.1,0,0,0-2.093-2.093h-2.49a2.1,2.1,0,0,0-2.093,2.093V44.94a13.444,13.444,0,0,0,0,6.591v4.354H12.981V41.822a2.1,2.1,0,0,0-2.093-2.094H8.4A2.1,2.1,0,0,0,6.3,41.822V55.884H5.63A1.728,1.728,0,0,0,3.9,57.61v1.923A1.728,1.728,0,0,0,5.63,61.259H9.568a1.025,1.025,0,0,0,0-2.051H5.955V57.935H19.724a13.335,13.335,0,0,0,1.585,1.273H14.342a1.025,1.025,0,1,0,0,2.051H26.178a13.314,13.314,0,0,0,5.259,0h6.451a1.786,1.786,0,0,0,.5.943l3.071,3.07Zm34.335-9.088a11.244,11.244,0,0,1-18.8-5,1.078,1.078,0,0,0-.042-.153,11.346,11.346,0,0,1,0-5.587,1.068,1.068,0,0,0,.042-.153,11.244,11.244,0,0,1,21.848.608,1.033,1.033,0,0,0,.031.141,11.408,11.408,0,0,1,0,4.4,1.066,1.066,0,0,0-.031.14A11.162,11.162,0,0,1,36.757,56.184Zm3.034-.458v.158h-.108C39.72,55.832,39.756,55.779,39.792,55.726Zm-1.461,3.482H36.306a13.209,13.209,0,0,0,1.145-.879ZM17.976,40.526v-5.98a.043.043,0,0,1,.043-.042h2.49a.043.043,0,0,1,.042.042v3.275a13.253,13.253,0,0,0-2.575,2.7ZM27.6,35.005V28.16a.042.042,0,0,1,.042-.043h2.49a.042.042,0,0,1,.042.043v6.86A13.388,13.388,0,0,0,27.6,35.005ZM40.11,57.935l-.076.076-.076-.076ZM10.93,41.822V55.884H8.355V41.822a.042.042,0,0,1,.042-.042h2.49A.042.042,0,0,1,10.93,41.822Zm36,26.023-6.913-6.913,1.395-1.4,6.914,6.913Zm0,0" transform="translate(-0.054)"/>
      </g>
    </g>
  </g>
</svg>
