<svg xmlns="http://www.w3.org/2000/svg" width="106" height="106" viewBox="0 0 106 106">
  <g id="_4" data-name="4" transform="translate(-258 -1219)">
    <g id="Grupo_944882" data-name="Grupo 944882" transform="translate(298.726 1566.512)">
      <path id="Trazado_623354" data-name="Trazado 623354" d="M24.592-284.927H46.646a2.437,2.437,0,0,0-1.874-2.6,5.489,5.489,0,0,0-1.327-.141c-2.991-.012-5.982.023-8.972-.016a5.438,5.438,0,0,1-5.646-5.464h2.621c.829,2.357,1.36,2.729,3.9,2.729,2.571,0,5.149.1,7.713-.025,3.632-.184,6.218,1.947,6.538,5.528a5.636,5.636,0,0,1,3.987,1.8,5.261,5.261,0,0,1,1.034,5.915,5.427,5.427,0,0,1-5.4,3.39q-10.146.02-20.293,0H24.642v22.1H-30.726v-74.74h17.941c-.176-3.558.819-6.595,3.576-8.866A9.463,9.463,0,0,1-2.52-337.5c4.515.223,9.576,4.043,9.175,11.012H24.592ZM1.156-279.354c2.6-1.559,5.1-2.986,7.518-4.538a5.784,5.784,0,0,1,3.684-1.01c1.3.09,2.6.019,3.922.019v-33.164H10.767v5.43H5.3v-2.754H7.919V-323.6H-14.116v8.241h16.5v2.719H-16.934v-5.425h-5.453v58H16.262V-273.8a29.384,29.384,0,0,0-2.991.017,7.734,7.734,0,0,1-5.323-1.457C5.8-276.685,3.52-277.935,1.156-279.354Zm17.9,5.6v16.5H-25.171V-320.94h8.2v-2.636H-27.942v69.082H21.794v-19.258Zm-12.5-5.6c1.351.813,2.594,1.6,3.879,2.313a3.216,3.216,0,0,0,1.479.422q12.112.039,24.225.016c.3,0,.593-.026.908-.041v-5.436c-.242-.021-.431-.052-.62-.052q-12.364,0-24.728,0a1.5,1.5,0,0,0-.724.137C9.53-281.154,8.1-280.287,6.555-279.356Zm15.259-5.549v-38.679H10.849v2.7H19.1v35.984ZM3.74-326.491a7.134,7.134,0,0,0-3.08-7.141A7.023,7.023,0,0,0-7-333.508a7.036,7.036,0,0,0-2.867,7.016Zm41.713,44.37v5.517c1.373,0,2.681.019,3.988-.005a2.707,2.707,0,0,0,2.853-2.652,2.687,2.687,0,0,0-2.667-2.843C48.268-282.183,46.9-282.121,45.453-282.121Zm-2.864.032H39.91v5.442h2.68Z" transform="translate(0)" fill="#faebcd"/>
      <path id="Trazado_623355" data-name="Trazado 623355" d="M17.512-223.066l-4.148-5.518-2.852,4.233c-1.059-1.589-2.066-3.057-3.02-4.558a1.422,1.422,0,0,0-1.419-.773c-1.251.059-2.508.017-3.818.017v-2.862h1.7c1.285,0,2.571-.042,3.852.028a1.66,1.66,0,0,1,1.069.567c.575.712,1.044,1.511,1.632,2.389l2.709-4.013,4.15,5.513c.613-.916,1.148-1.765,1.741-2.571a1.178,1.178,0,0,1,.773-.486c5.137-.029,10.274-.021,15.485-.021v2.832c-.355.016-.708.047-1.062.047-4.161,0-8.323.016-12.484-.013a1.384,1.384,0,0,0-1.349.727C19.555-226.067,18.569-224.647,17.512-223.066Z" transform="translate(-21.904 -69.039)" fill="#faebcd"/>
      <path id="Trazado_623356" data-name="Trazado 623356" d="M27.122-180.671v2.646h-16.5v-2.646Z" transform="translate(-27.457 -104.163)" fill="#faebcd"/>
      <path id="Trazado_623357" data-name="Trazado 623357" d="M10.529-145.044v-2.649H27.062v2.649Z" transform="translate(-27.399 -126.064)" fill="#faebcd"/>
      <path id="Trazado_623358" data-name="Trazado 623358" d="M39.391-164.208h6.834v2.645H39.391Z" transform="translate(-46.567 -115.096)" fill="#faebcd"/>
      <path id="Trazado_623359" data-name="Trazado 623359" d="M17.373-164.163v2.646H10.547v-2.646Z" transform="translate(-27.411 -115.126)" fill="#faebcd"/>
      <path id="Trazado_623360" data-name="Trazado 623360" d="M54.4-128.562H51.688v-2.648H54.4Z" transform="translate(-54.734 -137.011)" fill="#faebcd"/>
      <path id="Trazado_623361" data-name="Trazado 623361" d="M10.54-131.229H13.2v2.648H10.54Z" transform="translate(-27.406 -136.998)" fill="#faebcd"/>
      <path id="Trazado_623362" data-name="Trazado 623362" d="M31.095-128.53v-2.63h2.672v2.63Z" transform="translate(-41.057 -137.044)" fill="#faebcd"/>
    </g>
    <rect id="Rectángulo_306248" data-name="Rectángulo 306248" width="106" height="106" transform="translate(258 1219)" fill="none"/>
  </g>
</svg>
