<svg xmlns="http://www.w3.org/2000/svg" width="106" height="106" viewBox="0 0 106 106">
  <g id="_5" data-name="5" transform="translate(-258 -1219)">
    <rect id="Rectángulo_306248" data-name="Rectángulo 306248" width="106" height="106" transform="translate(258 1219)" fill="none"/>
    <g id="Grupo_944889" data-name="Grupo 944889" transform="translate(-790.374 1374.361)">
      <path id="Trazado_623385" data-name="Trazado 623385" d="M1129.872-102.066c0-1.636,0-1.641-1.6-1.633-1.231.006-1.049-.1-1.049,1.021q-.008,13.7.012,27.4c0,.646-.167.827-.814.816-2.257-.04-4.515-.019-6.772-.014-1.278,0-1.743.464-1.745,1.733-.005,2.231-.027,4.463.014,6.694.012.686-.14.907-.879.906q-23.7-.036-47.409,0c-.7,0-.908-.164-.907-.889q.03-36.35,0-72.7c0-.693.188-.852.866-.852q28.414.029,56.829,0c.642,0,.822.155.819.809-.029,4.878-.016,9.756-.016,14.633,0,1.854,0,1.81,1.842,1.87.741.024.826-.245.824-.879-.022-5.682-.013-11.364-.013-17.046,0-1.69-.342-2.025-2.064-2.025h-59.631c-1.777,0-2.1.318-2.1,2.074q0,18.875,0,37.751,0,18.992,0,37.984c0,1.5.4,1.905,1.881,1.905q25.378,0,50.756.012a2.412,2.412,0,0,0,1.856-.772q4.187-4.235,8.426-8.416a2.819,2.819,0,0,0,.894-2.2Q1129.851-87.978,1129.872-102.066Zm-9.315,34.783c0-1.381,0-2.789,0-4.2,0-.34.241-.343.484-.343h4.039Z" fill="#ef8b53"/>
      <path id="Trazado_623386" data-name="Trazado 623386" d="M1223.39-73.243a4.252,4.252,0,0,0-5.958.042c-.449.431-.882.878-1.322,1.318q-10.755,10.754-21.514,21.506a1.949,1.949,0,0,0-.747,1.392c0,1.271-.026,2.542.011,3.812a1.332,1.332,0,0,0,1.436,1.407c.622.025,1.245,0,1.867.006.571,0,1.141-.012,1.711,0a1.8,1.8,0,0,0,1.4-.558q11.52-11.53,23.043-23.058A4.112,4.112,0,0,0,1223.39-73.243Zm-8.466,10.518a4.511,4.511,0,0,0-.332.328q-7.643,7.642-15.277,15.292a1.691,1.691,0,0,1-1.7.679c-.345-.087-.787.213-1.067-.184a3.854,3.854,0,0,1,.209-2.164c.283-.3.582-.591.875-.884q7.478-7.477,14.946-14.963c.425-.427.682-.483,1.08,0a14.3,14.3,0,0,0,1.26,1.267C1215.165-63.128,1215.19-62.942,1214.924-62.725Zm2.263-2.333c-.286.2-.424-.264-.629-.421a4.353,4.353,0,0,1-.606-.6c-.285-.325-.922-.639-.807-.945.183-.489.722-.844,1.113-1.254a.244.244,0,0,1,.4.012c.566.567,1.134,1.131,1.7,1.7a2.34,2.34,0,0,1,.187.276A12.267,12.267,0,0,1,1217.187-65.058Zm4.6-4.692a4.9,4.9,0,0,1-1.177,1.322c-.228.23-.368-.014-.5-.147-.48-.469-.941-.958-1.431-1.417-.256-.24-.327-.423-.026-.683.536-.462.925-1.148,1.77-1.121A1.444,1.444,0,0,1,1221.785-69.75Z" transform="translate(-87.91 -46.639)" fill="#ef8b53"/>
      <path id="Trazado_623387" data-name="Trazado 623387" d="M1176.234-50.482a5.309,5.309,0,0,0,1.916.088c.424.021.527-.176.524-.557-.013-1.556.015-3.113-.018-4.668a1.272,1.272,0,0,0-1.422-1.389c-1.063-.021-2.127-.007-3.191-.007-2.1,0-2.1,0-2,2.087a.537.537,0,0,1,0,.078c-.041.368.12.513.491.5.48-.021.961-.005,1.48-.005a1.687,1.687,0,0,1-.529.76,37.483,37.483,0,0,0-5.613,8.369,38.235,38.235,0,0,0-3.809,18.15c.052,2.006.008,1.987,2.027,1.946.533-.011.662-.2.648-.689-.028-.933-.01-1.867-.007-2.8a34.4,34.4,0,0,1,8.677-23.128c.142-.163.239-.4.518-.435C1176.2-51.624,1175.646-50.771,1176.234-50.482Z" transform="translate(-67.408 -58.625)" fill="#ef8b53"/>
      <path id="Trazado_623388" data-name="Trazado 623388" d="M1132.815-34.653c.472.585.774.416,1.177-.088a21.829,21.829,0,0,0,4.251-20.452,21.548,21.548,0,0,0-4.02-7.653c.793-.037,1.616.166,2.022-.156.495-.392.115-1.264.188-1.923.052-.464-.127-.641-.611-.633-1.53.025-3.061-.006-4.59.017a1.294,1.294,0,0,0-1.438,1.451c-.016,1.089,0,2.178,0,3.267,0,1.922,0,1.9,1.96,1.9.526,0,.762-.116.7-.683a1.674,1.674,0,0,1,.095-1c.187.243.336.422.469.612a19.368,19.368,0,0,1-.444,22.751c-.342.45-.974.915-.951,1.346C1131.647-35.386,1132.445-35.111,1132.815-34.653Z" transform="translate(-43.837 -52.751)" fill="#ef8b53"/>
      <path id="Trazado_623389" data-name="Trazado 623389" d="M1129.9-88.358c-.022.749.241.892.924.888,4.925-.026,9.849-.016,14.774-.007.281,0,.606-.114.864.149-.5.537-1.351,1.051-1.345,1.554s.873,1,1.335,1.52c.276.312.462.287.745,0,1.159-1.187,2.351-2.341,3.508-3.529a1.333,1.333,0,0,0-.041-2.111q-1.22-1.254-2.475-2.473c-.442-.43-.82-1.2-1.35-1.2-.58,0-.916.824-1.418,1.22-.411.324-.483.593-.023.947.4.309.753.681,1.15,1.046a1.183,1.183,0,0,1-.934.2q-6.959.01-13.918,0C1129.913-90.15,1129.954-90.149,1129.9-88.358Z" transform="translate(-43.916 -33.48)" fill="#ef8b53"/>
      <path id="Trazado_623390" data-name="Trazado 623390" d="M1098.022-81.51a5.276,5.276,0,0,0-5.257-5.325,5.317,5.317,0,0,0-5.353,5.247,5.3,5.3,0,0,0,5.313,5.358A5.264,5.264,0,0,0,1098.022-81.51Zm-5.295,2.626a2.657,2.657,0,0,1-2.662-2.663,2.678,2.678,0,0,1,2.619-2.637,2.631,2.631,0,0,1,2.682,2.632A2.616,2.616,0,0,1,1092.728-78.884Z" transform="translate(-14.683 -38.111)" fill="#ef8b53"/>
      <path id="Trazado_623391" data-name="Trazado 623391" d="M1211.983-80.49a5.319,5.319,0,0,0,5.319-5.359,5.306,5.306,0,0,0-5.318-5.278,5.326,5.326,0,0,0-5.29,5.316A5.335,5.335,0,0,0,1211.983-80.49Zm-.014-7.972a2.637,2.637,0,0,1,2.679,2.637A2.655,2.655,0,0,1,1212-83.152a2.672,2.672,0,0,1-2.649-2.684A2.655,2.655,0,0,1,1211.969-88.461Z" transform="translate(-96.754 -35.158)" fill="#ef8b53"/>
      <path id="Trazado_623392" data-name="Trazado 623392" d="M1105.541,43.032a5.3,5.3,0,1,0-5.293-5.287A5.32,5.32,0,0,0,1105.541,43.032Zm-.054-7.952a2.65,2.65,0,1,1,.076,5.3,2.65,2.65,0,0,1-.076-5.3Z" transform="translate(-23.514 -120.169)" fill="#ef8b53"/>
      <path id="Trazado_623393" data-name="Trazado 623393" d="M1156.645,64.352A5.311,5.311,0,1,0,1151.3,59,5.313,5.313,0,0,0,1156.645,64.352Zm-.015-7.961a2.605,2.605,0,0,1,2.629,2.672,2.661,2.661,0,0,1-2.695,2.63,2.693,2.693,0,0,1-2.606-2.657A2.638,2.638,0,0,1,1156.63,56.391Z" transform="translate(-58.643 -134.826)" fill="#ef8b53"/>
      <path id="Trazado_623394" data-name="Trazado 623394" d="M1212.842,37.4c-.264.255-.261.412-.008.692,1.466,1.621,1.456,1.626,3,.091.513-.511,1.014-1.374,1.569-1.416.641-.048,1.073.923,1.633,1.411.505.44.92,1.323,1.466,1.277.519-.043.953-.867,1.466-1.3.4-.339.286-.55-.035-.854-.771-.732-1.5-1.512-2.268-2.242-.3-.286-.276-.457.009-.73.769-.734,1.51-1.5,2.26-2.25.125-.126.241-.261.387-.421l-.26-.306c-1.45-1.708-1.447-1.7-3.035-.126-.513.51-1.026,1.375-1.573,1.4-.629.032-1.067-.932-1.628-1.419-.5-.436-.9-1.321-1.463-1.255-.533.063-.965.861-1.472,1.3-.35.3-.3.505.013.8.77.733,1.5,1.513,2.268,2.243.325.307.318.5,0,.8C1214.373,35.846,1213.626,36.639,1212.842,37.4Z" transform="translate(-100.848 -118.463)" fill="#ef8b53"/>
      <path id="Trazado_623395" data-name="Trazado 623395" d="M1160.224-123.665c.736-.651,1.388-1.4,2.106-2.07.333-.314.411-.536.021-.863a8.833,8.833,0,0,1-1.043-1.043c-.306-.358-.516-.375-.852-.01-.683.743-1.441,1.418-2.127,2.16-.359.388-.593.436-.974.018-.68-.746-1.418-1.439-2.135-2.152-.127-.127-.265-.242-.4-.368a.873.873,0,0,0-.207.114c-.537.557-1.261,1.042-1.526,1.708-.144.363.725.828,1.11,1.272.051.059.11.11.164.165.506.519,1.386,1.016,1.418,1.564.038.632-.927,1.072-1.418,1.631-.442.5-1.322.916-1.273,1.464.047.522.867.955,1.3,1.47.337.4.545.288.848-.031.732-.77,1.508-1.5,2.242-2.265.28-.294.465-.3.738,0,.4.443.832.853,1.259,1.269.462.45.921,1.231,1.4,1.247.569.02.955-.848,1.471-1.272.367-.3.377-.521.014-.855-.723-.668-1.379-1.407-2.1-2.071C1159.82-122.973,1159.738-123.236,1160.224-123.665Z" transform="translate(-59.857 -9.792)" fill="#ef8b53"/>
      <path id="Trazado_623396" data-name="Trazado 623396" d="M1115.579-22.33c-.77-.733-1.494-1.513-2.268-2.24-.339-.319-.384-.519-.017-.86.779-.722,1.5-1.5,2.268-2.241.269-.259.361-.445.032-.733a11.964,11.964,0,0,1-1.154-1.153c-.312-.361-.517-.265-.8.032-.7.731-1.456,1.407-2.127,2.161-.41.461-.646.39-1.022-.023-.644-.709-1.376-1.339-2.015-2.053-.4-.443-.657-.443-1.029.008-.393.477-1.168.883-1.2,1.356-.033.55.8.922,1.216,1.4.5.581,1.5,1.033,1.468,1.687-.03.566-.936,1.084-1.452,1.627-.443.466-1.233.941-1.226,1.4s.819.916,1.23,1.412c.365.44.613.369.971-.017.7-.76,1.471-1.462,2.185-2.213.281-.3.459-.29.738,0,.733.769,1.5,1.51,2.249,2.26.125.124.261.237.423.382.138-.12.257-.213.364-.319.388-.382.755-.786,1.161-1.148C1115.88-21.866,1115.872-22.05,1115.579-22.33Z" transform="translate(-27.644 -77.361)" fill="#ef8b53"/>
    </g>
  </g>
</svg>
