<svg xmlns="http://www.w3.org/2000/svg" width="106" height="106" viewBox="0 0 106 106">
  <g id="_6" data-name="6" transform="translate(-258 -1219)">
    <rect id="Rectángulo_306248" data-name="Rectángulo 306248" width="106" height="106" transform="translate(258 1219)" fill="none"/>
    <g id="Grupo_944888" data-name="Grupo 944888" transform="translate(-428.291 1567.622)">
      <path id="Trazado_623377" data-name="Trazado 623377" d="M776.481-313.177c-.253-.273-.446-.5-.653-.7-3.243-3.246-6.508-6.469-9.725-9.74a5.536,5.536,0,0,1,2.344-9.337,5.646,5.646,0,0,1,4.816.865,5.752,5.752,0,0,1,3.613-3.675,5.638,5.638,0,0,1,5.061.766c.1-.183.181-.327.249-.479a5.526,5.526,0,0,1,9.132-1.785c2.573,2.506,5.087,5.072,7.627,7.612,2.391,2.39,4.793,4.768,7.162,7.18a1.988,1.988,0,0,0,1.571.663c5.886-.027,11.772-.016,17.657-.016h1.054v2.891H820.7v23.163h5.7v2.928h-.925c-5.976,0-11.953-.012-17.929.024a2.232,2.232,0,0,0-1.314.551c-.82.709-1.546,1.525-2.325,2.282a5.088,5.088,0,0,1-3.674,1.49c-2.323,0-4.645,0-7.107,0v1.076q0,15.121,0,30.242c0,3.191-1.724,4.9-4.933,4.9q-5.252,0-10.5,0c-3.122,0-4.851-1.747-4.852-4.894q0-15.212.014-30.423c0-.667-.13-.973-.841-1.181a4.943,4.943,0,0,1-3.515-4.846q-.026-5.342,0-10.684a8.658,8.658,0,0,1,7.312-8.7C776-313.048,776.2-313.107,776.481-313.177Zm14.143-9.128c-.253-.242-.5-.464-.727-.7q-4.58-4.574-9.152-9.155a2.812,2.812,0,0,0-2.328-.979,2.478,2.478,0,0,0-2.246,1.706,2.615,2.615,0,0,0,.711,2.9q4.646,4.636,9.292,9.273a4.236,4.236,0,0,0,.816.516l-2.156,2.239c-.27-.259-.512-.481-.744-.713q-4.708-4.7-9.412-9.408c-.96-.96-1.907-1.935-2.888-2.873a2.527,2.527,0,0,0-2.847-.55,2.474,2.474,0,0,0-1.617,2.214,2.813,2.813,0,0,0,.984,2.326q5.552,5.523,11.079,11.071a7.579,7.579,0,0,1,.622.656,2.1,2.1,0,0,1,.31,2.214,2.063,2.063,0,0,1-1.892,1.323c-.481.033-.965,0-1.448.018a5.683,5.683,0,0,0-5.544,5.312c-.119,3.8-.052,7.6-.028,11.405a1.957,1.957,0,0,0,1.433,1.925c0-1-.021-1.9.005-2.806a3.672,3.672,0,0,1,1.728-3.3,2.15,2.15,0,0,0,1.162-2.481,4.6,4.6,0,0,1,0-.543,5.053,5.053,0,0,1,5.152-5.166q7.153-.028,14.3,0a5.064,5.064,0,0,1,5.177,5.047,5.074,5.074,0,0,1-5.139,5.09c-1.358.016-2.716-.008-4.074.007a2.192,2.192,0,0,0-2.369,2.186,2.2,2.2,0,0,0,2.407,2.149c2.958.012,5.916.05,8.872-.033a3.277,3.277,0,0,0,1.918-.787c1.331-1.177,2.557-2.476,3.789-3.761a1.493,1.493,0,0,0,.376-.938q.031-10.411,0-20.822a1.465,1.465,0,0,0-.371-.941q-8.236-8.28-16.511-16.521a2.628,2.628,0,0,0-3.809-.066,2.651,2.651,0,0,0,.092,3.811c.628.652,1.277,1.283,1.918,1.923l5.2,5.2ZM786-295.731c.142.043.062,0-.018,0-2.9-.005-5.8-.021-8.693,0-1.03.007-1.546.592-1.547,1.7q-.008,18.562,0,37.123c0,1.19.529,1.726,1.706,1.729q5.524.016,11.047,0c1.187,0,1.725-.533,1.725-1.711q.01-15.483.014-30.966c0-.51-.148-.706-.657-.856a4.682,4.682,0,0,1-3.547-3.828A19.1,19.1,0,0,1,786-295.731ZM809.132-318.9v23.109H817.7v-23.059h-2.871v15.8h-2.913V-318.9Zm-30.478,20.1c.092.085.114.123.136.123,5.544.009,11.087.033,16.631.006a2.108,2.108,0,0,0,2.041-2.129,2.123,2.123,0,0,0-2.094-2.171q-7.321-.045-14.644,0a2.068,2.068,0,0,0-2.058,1.913C778.6-300.286,778.654-299.507,778.654-298.8Z" transform="translate(-43.694)" fill="#faebcd"/>
      <path id="Trazado_623378" data-name="Trazado 623378" d="M705.973-239.808c1.871,0,3.742-.01,5.612,0a4.38,4.38,0,0,1,4.521,4.326q.959,15.943,1.942,31.884c.193,3.162.4,6.322.568,9.485.164,3.12-1.664,5.014-4.792,5.016q-5.386,0-10.772,0a4.413,4.413,0,0,1-4.711-4.509c-.5-8.552-1.041-17.1-1.563-25.652-.316-5.179-.645-10.357-.935-15.537-.174-3.119,1.662-5.012,4.79-5.015Q703.3-239.811,705.973-239.808ZM708.443-192c1.871,0,3.742.011,5.613,0,1.162-.009,1.695-.584,1.673-1.754-.005-.271-.025-.542-.042-.813q-.415-6.638-.829-13.277-.833-13.73-1.654-27.461a1.482,1.482,0,0,0-1.668-1.6q-5.568-.017-11.135,0a1.477,1.477,0,0,0-1.668,1.753c.046,1.206.133,2.409.206,3.614q1.154,18.924,2.309,37.847c.073,1.189.569,1.683,1.763,1.69C704.822-191.987,706.633-192,708.443-192Z" transform="translate(0 -63.184)" fill="#faebcd"/>
      <path id="Trazado_623379" data-name="Trazado 623379" d="M875.937-202.585l2.752.122c0,.885.042,1.689-.007,2.487q-.856,14.141-1.734,28.279c-.021.331-.04.664-.03,1a1.391,1.391,0,0,0,1.469,1.49q5.75.033,11.5,0c.925-.005,1.442-.582,1.5-1.582.257-4.186.5-8.373.751-12.56q.617-10.119,1.246-20.238c.007-.115.036-.229.072-.445l2.834.147c-.145,2.474-.28,4.849-.424,7.224q-.6,9.848-1.2,19.7c-.132,2.169-.232,4.339-.391,6.506a4.345,4.345,0,0,1-4.5,4.162q-5.659.022-11.319,0a4.257,4.257,0,0,1-4.434-4.551c.205-4.491.509-8.977.778-13.464q.51-8.493,1.034-16.986C875.864-201.691,875.9-202.077,875.937-202.585Z" transform="translate(-113.542 -85.979)" fill="#faebcd"/>
      <path id="Trazado_623380" data-name="Trazado 623380" d="M906.474-160.186l2.887.28c-.489,4.855-.97,9.632-1.46,14.489l-2.883-.3C905.506-150.562,905.984-155.314,906.474-160.186Z" transform="translate(-133.291 -113.92)" fill="#faebcd"/>
      <path id="Trazado_623381" data-name="Trazado 623381" d="M757.595-251.6v2.786h-5.686V-251.6Z" transform="translate(-35.732 -55.672)" fill="#faebcd"/>
      <path id="Trazado_623382" data-name="Trazado 623382" d="M759.467-268.151l-1.611,2.406-4.345-2.893,1.6-2.411Z" transform="translate(-36.753 -43.279)" fill="#faebcd"/>
      <path id="Trazado_623383" data-name="Trazado 623383" d="M769.364-275.69l-1.44-4.327,2.731-.924,1.459,4.343Z" transform="translate(-45.937 -36.977)" fill="#faebcd"/>
      <path id="Trazado_623384" data-name="Trazado 623384" d="M727.852-160.056l2.883-.3c.488,4.837.97,9.611,1.461,14.478l-2.887.288Z" transform="translate(-20.404 -113.814)" fill="#faebcd"/>
    </g>
  </g>
</svg>
