<svg xmlns="http://www.w3.org/2000/svg" xmlns:xlink="http://www.w3.org/1999/xlink" width="505" height="297.733" viewBox="0 0 505 297.733">
  <defs>
    <clipPath id="clip-path">
      <rect id="Rectángulo_298011" data-name="Rectángulo 298011" width="73.084" height="64.092" fill="none"/>
    </clipPath>
    <clipPath id="clip-path-2">
      <rect id="Rectángulo_298012" data-name="Rectángulo 298012" width="27.946" height="18.989" fill="none"/>
    </clipPath>
    <clipPath id="clip-path-3">
      <rect id="Rectángulo_298013" data-name="Rectángulo 298013" width="4.299" height="32.937" fill="none"/>
    </clipPath>
    <clipPath id="clip-path-4">
      <rect id="Rectángulo_298014" data-name="Rectángulo 298014" width="33.837" height="69.232" fill="none"/>
    </clipPath>
    <clipPath id="clip-path-5">
      <rect id="Rectángulo_298015" data-name="Rectángulo 298015" width="20.356" height="109.227" fill="none"/>
    </clipPath>
    <clipPath id="clip-path-6">
      <rect id="Rectángulo_298017" data-name="Rectángulo 298017" width="16.581" height="30.286" fill="none"/>
    </clipPath>
    <clipPath id="clip-path-7">
      <rect id="Rectángulo_298018" data-name="Rectángulo 298018" width="8.129" height="8.453" fill="none"/>
    </clipPath>
    <clipPath id="clip-path-8">
      <rect id="Rectángulo_298019" data-name="Rectángulo 298019" width="16.483" height="7.273" fill="none"/>
    </clipPath>
    <clipPath id="clip-path-9">
      <rect id="Rectángulo_298020" data-name="Rectángulo 298020" width="17.77" height="7.838" fill="none"/>
    </clipPath>
    <clipPath id="clip-path-11">
      <rect id="Rectángulo_298022" data-name="Rectángulo 298022" width="17.771" height="7.838" fill="none"/>
    </clipPath>
    <clipPath id="clip-path-12">
      <rect id="Rectángulo_298023" data-name="Rectángulo 298023" width="28.122" height="19.582" fill="none"/>
    </clipPath>
  </defs>
  <g id="_8" data-name="8" transform="translate(6646.918 6449.86)">
    <path id="Trazado_600495" data-name="Trazado 600495" d="M261.349,220.94a21.6,21.6,0,0,1,10.885,2.383,12.114,12.114,0,0,0,4.939,1.21l4.41-.1.052-49.02a8.408,8.408,0,0,0-8.434-8.382l-46.6.172v-1a12.966,12.966,0,0,1,1.367-5.664,25.767,25.767,0,0,0,2.214-15.745,26.2,26.2,0,0,0-51.987,4.487,25.709,25.709,0,0,0,2.223,10.474A12.922,12.922,0,0,1,181.586,165l.276,2.2H125.7a8.408,8.408,0,0,0-8.434,8.382v47.93h-4a12.266,12.266,0,0,1-5.36-1.294,25.266,25.266,0,0,0-15.174-2.1,24.794,24.794,0,0,0,4.246,49.193,24.314,24.314,0,0,0,9.91-2.1,12.234,12.234,0,0,1,4.967-1.1H117l.1,58.627a6.847,6.847,0,0,0,6.868,6.826H274.271c3.794,0,6.765-4.762,6.765-8.532V269.748h-6.084a11,11,0,0,0-4.1.8,22.757,22.757,0,0,1-31.233-21.914c.456-11.386,10.291-26.9,21.728-27.695" transform="translate(-6666.979 -6505.874)" fill="#fdfcfa"/>
    <path id="Trazado_600496" data-name="Trazado 600496" d="M261.287,220.887s-.133.02-.4.052a10.949,10.949,0,0,0-1.178.177,16.047,16.047,0,0,0-4.409,1.567c-3.668,1.871-8.48,6.146-12.1,13.283a31.657,31.657,0,0,0-3.563,12.722,23.37,23.37,0,0,0,1.037,7.534,22.338,22.338,0,0,0,3.858,7.278,22.589,22.589,0,0,0,15.83,8.434,22.268,22.268,0,0,0,9.945-1.369,11.852,11.852,0,0,1,5.213-.985l5.454,0h.117v.117q.006,12.639.014,26.841,0,7.091.007,14.548,0,3.728,0,7.544,0,1.907,0,3.837a10.85,10.85,0,0,1-.131,1.953,10.429,10.429,0,0,1-.539,1.895,9.944,9.944,0,0,1-2.1,3.352,6.149,6.149,0,0,1-3.48,1.943,19.687,19.687,0,0,1-2.017.051H266.8l-16.6.006-35.051.009-76.69.015H128.321c-1.706-.016-3.384.036-5.125-.035a7.049,7.049,0,0,1-6.343-7.206q0-2.587-.009-5.187-.01-5.2-.02-10.451-.038-21-.078-42.754l.187.187h-3.2c-1.073.017-2.154-.048-3.2.075a12.32,12.32,0,0,0-3.09.789,31.743,31.743,0,0,1-3.056,1.182,24.651,24.651,0,0,1-24.855-6.04,23.944,23.944,0,0,1-5.627-8.51c-.2-.538-.439-1.061-.6-1.612l-.452-1.662A24.949,24.949,0,0,1,85.658,222.24a24.981,24.981,0,0,1,7.83-2.479,25.806,25.806,0,0,1,8.166.191,25.08,25.08,0,0,1,3.937,1.067c.639.232,1.27.484,1.884.772a19.547,19.547,0,0,0,1.837.79c2.5.986,5.23.626,7.9.694l-.186.187q0-15.55,0-30.7,0-7.571,0-15.034a23.292,23.292,0,0,1,.149-3.748,8.3,8.3,0,0,1,1.485-3.45A8.585,8.585,0,0,1,125.04,167l56.76-.021-.169.192c-.094-.756-.185-1.48-.275-2.2v-.021a12.353,12.353,0,0,0-.672-3.958c-.211-.639-.489-1.244-.757-1.876s-.492-1.27-.7-1.916a25.939,25.939,0,0,1-1.254-7.967l.109-2c.025-.333.022-.669.07-1l.161-.986c.124-.654.181-1.321.358-1.96l.531-1.916a6.021,6.021,0,0,1,.319-.936l.363-.92a12.967,12.967,0,0,1,.8-1.8l.913-1.741,1.082-1.634a25.589,25.589,0,0,1,5.313-5.619l.749-.605.8-.528c.539-.345,1.065-.71,1.612-1.035a28.046,28.046,0,0,1,3.443-1.627,26.034,26.034,0,0,1,7.3-1.749,25.745,25.745,0,0,1,3.719-.059c.616.041,1.234.052,1.846.119l1.823.276a26.526,26.526,0,0,1,12.786,6.393,26.033,26.033,0,0,1,7.953,24.962,27.378,27.378,0,0,1-2.2,6.136,13.392,13.392,0,0,0-.947,3.019,15.332,15.332,0,0,0-.2,3.135l-.135-.134,35.448-.114,8.064-.025,1.965-.006c.65-.007,1.3-.009,1.953.038a8.585,8.585,0,0,1,3.639,1.226,8.457,8.457,0,0,1,3.975,6.051,32.671,32.671,0,0,1,.086,3.577q0,1.761-.006,3.479c-.038,18.324-.068,32.891-.089,43.137v.054h-.054c-1.777.024-3.428.106-4.974.075a12.476,12.476,0,0,1-4.127-1.08,27.411,27.411,0,0,0-6.091-2.16,18.733,18.733,0,0,0-3.789-.408c-.42,0-.733.008-.941.018s-.311.008-.311.008a12.279,12.279,0,0,1,1.252-.055,18.253,18.253,0,0,1,3.8.382,27.262,27.262,0,0,1,6.114,2.139,12.41,12.41,0,0,0,4.1,1.06c1.531.027,3.193-.06,4.966-.088l-.054.055c0-10.246,0-24.812,0-43.136q0-1.718,0-3.48a32.821,32.821,0,0,0-.088-3.548,8.247,8.247,0,0,0-3.884-5.9,8.36,8.36,0,0,0-3.547-1.191c-.631-.044-1.279-.043-1.932-.035l-1.964.009-8.064.035-35.448.148h-.134v-.135a15.627,15.627,0,0,1,.2-3.183,13.651,13.651,0,0,1,.964-3.082,27.133,27.133,0,0,0,2.18-6.086,25.751,25.751,0,0,0-7.882-24.679,26.23,26.23,0,0,0-12.643-6.31l-1.8-.272c-.6-.065-1.216-.075-1.826-.116a25.352,25.352,0,0,0-3.676.06,25.715,25.715,0,0,0-7.211,1.732,27.675,27.675,0,0,0-3.4,1.609c-.54.321-1.059.683-1.592,1.024l-.793.522-.739.6a25.275,25.275,0,0,0-5.245,5.552l-1.067,1.614-.9,1.719a12.717,12.717,0,0,0-.789,1.779l-.358.909a5.855,5.855,0,0,0-.315.925l-.523,1.89c-.175.631-.231,1.29-.353,1.935l-.16.974c-.048.326-.043.657-.068.985l-.106,1.979a25.578,25.578,0,0,0,1.241,7.863c.209.637.439,1.268.7,1.89s.549,1.243.765,1.9a12.687,12.687,0,0,1,.692,4.067v-.021c.09.723.181,1.448.276,2.2l.024.192H181.8l-56.736.039a8.223,8.223,0,0,0-6.111,3.382,7.948,7.948,0,0,0-1.421,3.3,23.118,23.118,0,0,0-.141,3.682q0,7.462,0,15.034,0,15.144,0,30.7v.186h-4.2a11.994,11.994,0,0,1-4.007-.715,19.521,19.521,0,0,1-1.869-.8c-.6-.284-1.226-.532-1.856-.76a24.7,24.7,0,0,0-3.878-1.05,25.418,25.418,0,0,0-8.046-.188A24.465,24.465,0,0,0,74.713,234.2a24.907,24.907,0,0,0-1.5,16.176l.446,1.637c.157.542.4,1.058.591,1.587a23.567,23.567,0,0,0,5.542,8.382,24.277,24.277,0,0,0,24.476,5.95,31.336,31.336,0,0,0,3.033-1.174,12.676,12.676,0,0,1,3.184-.812c1.1-.127,2.175-.059,3.246-.077h3.392v.187q.036,21.733.072,42.755.009,5.251.017,10.45,0,2.6.008,5.188a6.686,6.686,0,0,0,6.014,6.847c1.669.067,3.4.019,5.089.034h10.133l76.69.015,35.051.01,16.6.005h6.057c.665-.007,1.346.024,1.976-.048a5.86,5.86,0,0,0,3.313-1.853,9.669,9.669,0,0,0,2.037-3.256,10.142,10.142,0,0,0,.526-1.841,10.484,10.484,0,0,0,.128-1.9q0-1.93,0-3.837,0-3.816,0-7.544,0-7.455.007-14.548.007-14.181.014-26.841l.116.116-5.454,0a11.622,11.622,0,0,0-5.134.964,22.463,22.463,0,0,1-10.041,1.37,22.775,22.775,0,0,1-15.955-8.528,22.516,22.516,0,0,1-3.877-7.342,23.522,23.522,0,0,1-1.03-7.589,31.748,31.748,0,0,1,3.6-12.773c3.652-7.151,8.5-11.424,12.186-13.284a15.838,15.838,0,0,1,4.432-1.542,10.233,10.233,0,0,1,1.182-.162c.266-.026.4-.035.4-.035" transform="translate(-6666.917 -6505.821)" fill="#263238"/>
    <path id="Trazado_600497" data-name="Trazado 600497" d="M519.276,239.841a25.115,25.115,0,0,0-10.233,2.173,13.215,13.215,0,0,1-3.426,1.008V191.495a6.868,6.868,0,0,0-6.867-6.868H445.135v6.084a10.931,10.931,0,0,0,.806,4.1,22.742,22.742,0,0,1-22.049,31.233,22.95,22.95,0,0,1-21.786-21.149,22.56,22.56,0,0,1,2.089-11.209,11.29,11.29,0,0,0,1.113-4.792v-4.266l-54.318-.172a8.434,8.434,0,0,0-8.434,8.433l-.052,47.787h-3.7c-.42,0-.847-.012-1.272-.043a27.75,27.75,0,1,0-2.571,46.515,10.631,10.631,0,0,1,2.249-.247h4.752v53.335a8.434,8.434,0,0,0,8.433,8.434H498.749a6.868,6.868,0,0,0,6.867-6.868V287.5a13.651,13.651,0,0,1,2.661.974,25.175,25.175,0,0,0,15.383,2.163,25.6,25.6,0,0,0-4.384-50.793" transform="translate(-6728.007 -6522.768)" fill="#fff4eb"/>
    <path id="Trazado_600490" data-name="Trazado 600490" d="M181.357,21.46a11.013,11.013,0,0,0-4.132,1.995,5.752,5.752,0,0,1-1.354.787L170.487,2.294A3.012,3.012,0,0,0,166.844.087l-22.836,5.6.637,2.592a4.773,4.773,0,0,0,.771,1.662,9.974,9.974,0,0,1-6.128,15.607A10.067,10.067,0,0,1,127.8,18.819a9.911,9.911,0,0,1-.282-4.992,4.963,4.963,0,0,0-.025-2.157l-.447-1.817-23.153,5.6a3.7,3.7,0,0,0-2.712,4.474l4.973,20.359-1.578.387c-.179.044-.362.084-.547.115a12.171,12.171,0,1,0,3.767,20.081,4.626,4.626,0,0,1,.932-.34l2.024-.5,5.573,22.717a3.7,3.7,0,0,0,4.473,2.711l63.19-15.5a3.012,3.012,0,0,0,2.208-3.643l-5.675-23.13a6.033,6.033,0,0,1,1.235.137,11.038,11.038,0,0,0,6.778-.686,11.227,11.227,0,0,0-7.175-21.176" transform="translate(-6671.088 -6449.86)" fill="#fff4eb"/>
    <path id="Trazado_600491" data-name="Trazado 600491" d="M604.36,187.691a6.937,6.937,0,0,0,2.818.647,3.67,3.67,0,0,1,.977.147l-6,12.918a1.9,1.9,0,0,0,.922,2.522l13.441,6.243.708-1.525a3.019,3.019,0,0,0,.276-1.121,6.222,6.222,0,0,1,.573-2.318,6.295,6.295,0,1,1,9.762,7.462,3.118,3.118,0,0,0-.837,1.071l-.5,1.07,13.6,6.369a2.331,2.331,0,0,0,3.1-1.132l5.578-11.974.928.431c.106.049.211.1.314.159a7.671,7.671,0,1,0,6.061-11.362,2.926,2.926,0,0,1-.592-.2l-1.192-.554,6.211-13.371a2.33,2.33,0,0,0-1.132-3.1L622.18,162.8a1.9,1.9,0,0,0-2.521.922l-6.324,13.614a3.738,3.738,0,0,1-.554-.554,6.958,6.958,0,0,0-3.6-2.334,7.077,7.077,0,0,0-4.816,13.245" transform="translate(-6806.316 -6509.985)" fill="#ffd1aa"/>
    <path id="Trazado_600492" data-name="Trazado 600492" d="M632.49,380.924a5.449,5.449,0,0,0,1.358-1.815,2.844,2.844,0,0,1,.415-.653l7.354,8.4a1.488,1.488,0,0,0,2.1.14l8.74-7.652-.867-.993a2.381,2.381,0,0,0-.718-.553,4.929,4.929,0,0,1-.862-8.239,4.974,4.974,0,0,1,6.571.339,4.888,4.888,0,0,1,1.259,2.126,2.444,2.444,0,0,0,.5.94l.608.7,8.881-7.725a1.826,1.826,0,0,0,.172-2.579l-6.812-7.8.6-.529c.068-.06.14-.119.213-.174a6.013,6.013,0,1,0-6.22-7.951,2.272,2.272,0,0,1-.332.361l-.775.678-7.612-8.7a1.828,1.828,0,0,0-2.579-.172L620.3,360.25a1.488,1.488,0,0,0-.139,2.1l7.75,8.854a2.949,2.949,0,0,1-.573.221,5.455,5.455,0,0,0-2.817,1.842,5.548,5.548,0,0,0,7.965,7.656" transform="translate(-6825.811 -6547.864)" fill="#fff4eb"/>
    <path id="Trazado_600493" data-name="Trazado 600493" d="M488.582,38.257a8.686,8.686,0,0,0-3.61-.222,4.579,4.579,0,0,1-1.234.019L488.5,20.887a2.375,2.375,0,0,0-1.654-2.923l-17.862-4.957-.562,2.027a3.759,3.759,0,0,0-.11,1.44A7.864,7.864,0,0,1,458.08,24.84a7.936,7.936,0,0,1-5.3-9.06,7.81,7.81,0,0,1,1.732-3.541,3.9,3.9,0,0,0,.814-1.494l.395-1.421-18.08-5.08a2.916,2.916,0,0,0-3.589,2.03l-4.436,15.916-1.234-.342c-.14-.039-.281-.083-.42-.132A9.594,9.594,0,1,0,422.8,36.976a3.692,3.692,0,0,1,.772.126l1.583.439L420.224,55.31a2.917,2.917,0,0,0,2.031,3.589l49.426,13.717a2.375,2.375,0,0,0,2.923-1.654l5.021-18.092a4.728,4.728,0,0,1,.8.57,8.7,8.7,0,0,0,4.925,2.143,8.851,8.851,0,0,0,3.235-17.327" transform="translate(-6760.415 -6451.002)" fill="#f0bd51"/>
    <path id="Trazado_600494" data-name="Trazado 600494" d="M5.366,294.854a8.164,8.164,0,0,0,3.361.5,4.265,4.265,0,0,1,1.156.082l-5.84,15.68a2.23,2.23,0,0,0,1.311,2.868L21.67,320.06l.689-1.852a3.543,3.543,0,0,0,.219-1.339,7.386,7.386,0,0,1,10.25-7.006,7.454,7.454,0,0,1,4.233,8.906,7.326,7.326,0,0,1-1.906,3.175,3.665,3.665,0,0,0-.882,1.332l-.484,1.3,16.51,6.209a2.739,2.739,0,0,0,3.523-1.61l5.432-14.537,1.127.419c.128.048.256.1.382.158a9.012,9.012,0,1,0,6.055-13.865,3.422,3.422,0,0,1-.712-.18l-1.446-.539L70.705,284.4a2.738,2.738,0,0,0-1.61-3.523L23.947,264.062a2.23,2.23,0,0,0-2.868,1.312L14.924,281.9a4.418,4.418,0,0,1-.7-.6,8.173,8.173,0,0,0-4.436-2.4,8.314,8.314,0,0,0-4.423,15.954" transform="translate(-6646.918 -6502.672)" fill="#f0bd51"/>
    <path id="Trazado_600498" data-name="Trazado 600498" d="M519.209,239.772s.544.018,1.612.071a12.628,12.628,0,0,1,1.984.19l1.273.2a9.242,9.242,0,0,1,1.441.327c.507.139,1.044.287,1.611.442.557.188,1.127.434,1.734.665.3.122.615.235.927.371l.927.481a16.436,16.436,0,0,1,1.94,1.091,25.613,25.613,0,0,1,11.964,20.03c.026.62.082,1.246.085,1.879q-.051.95-.1,1.921c-.025.323-.019.65-.069.974s-.1.649-.147.977-.1.656-.152.987q-.116.488-.232.981a25.574,25.574,0,0,1-3.253,7.734A25.416,25.416,0,0,1,526.065,290.1c-.8.245-1.633.372-2.456.565-.837.132-1.682.251-2.541.306a25.2,25.2,0,0,1-10.44-1.429c-1.732-.583-3.3-1.6-5.107-2l.146-.114q.007,12.51.014,26.525,0,7,.006,14.35,0,3.675,0,7.434,0,1.88,0,3.781,0,.95,0,1.906c.007.316-.019.645-.033.969a7.378,7.378,0,0,1-.164.964,7.029,7.029,0,0,1-5.385,5.241,9.7,9.7,0,0,1-1.988.147H492.16l-16.331.006-34.451.009-75.29.014-9.943,0h-5.012a12.621,12.621,0,0,1-2.541-.174,9.441,9.441,0,0,1-2.409-.888,8.708,8.708,0,0,1-3.537-3.666,8.242,8.242,0,0,1-.806-2.456,14.363,14.363,0,0,1-.128-2.57q0-5.1,0-10.253,0-20.6,0-41.942l.187.187h-3.427c-.586,0-1.194-.011-1.776.01a10.72,10.72,0,0,0-1.759.232l.054-.02a27.857,27.857,0,0,1-11.29,3.566,27.89,27.89,0,0,1-28.972-18.735,28.64,28.64,0,0,1-1.528-8.841,29.839,29.839,0,0,1,1.346-8.827,27.881,27.881,0,0,1,4.059-7.9,29.981,29.981,0,0,1,2.879-3.374l1.641-1.491c.553-.487,1.171-.9,1.753-1.349a28.935,28.935,0,0,1,7.843-3.949,30.714,30.714,0,0,1,8.637-1.287,27.814,27.814,0,0,1,16.22,5.358l-.1-.034c1.64.083,3.316.024,4.962.042l-.185.185q.018-15.313.036-30.225.009-7.453.017-14.795l0-1.833c-.007-.607,0-1.223.051-1.848a8.632,8.632,0,0,1,7.1-7.565,23.428,23.428,0,0,1,3.628-.126l3.589.012,7.133.024,14.078.047,27.357.093h.168v.168q0,1.919,0,3.826a11.336,11.336,0,0,1-.539,3.8,14.623,14.623,0,0,1-.712,1.772c-.263.567-.489,1.149-.7,1.734a22.292,22.292,0,0,0,1.231,17.826,22.688,22.688,0,0,0,4.24,5.761,23.518,23.518,0,0,0,5.727,4.115,22.282,22.282,0,0,0,13.448,2.185,22.6,22.6,0,0,0,11.934-5.7,22.215,22.215,0,0,0,4.123-5.058,21.513,21.513,0,0,0,2.475-5.915,22.223,22.223,0,0,0-.267-12.37c-.279-.988-.738-1.9-1.019-2.91a11.035,11.035,0,0,1-.416-3.052q0-3.036,0-6.014v-.135h.135l39.237.02,8.819.005,4.255,0c.7,0,1.394-.017,2.1.05a7.22,7.22,0,0,1,2.013.547,6.99,6.99,0,0,1,4.159,6.425q0,3.884-.006,7.553c-.021,19.559-.038,34.44-.048,43.928l-.053-.046c2.414-.313,4.232-1.489,5.951-1.959a24.931,24.931,0,0,1,4.292-.966,24.24,24.24,0,0,1,2.577-.206c.568-.012.845,0,.845,0s-.277.007-.844.027a25.365,25.365,0,0,0-6.849,1.213c-1.706.473-3.522,1.659-5.958,1.984L505.5,243v-.051c-.01-9.488-.027-24.369-.048-43.928q0-3.667-.005-7.553a6.79,6.79,0,0,0-4.045-6.233,7.024,7.024,0,0,0-1.953-.527c-.674-.064-1.374-.043-2.074-.046l-4.255,0-8.819.006-39.237.019.134-.135q0,2.978,0,6.014a10.761,10.761,0,0,0,.408,2.976c.269.966.734,1.9,1.02,2.9a22.513,22.513,0,0,1,.28,12.525,21.84,21.84,0,0,1-2.5,5.994,22.479,22.479,0,0,1-4.173,5.126,22.891,22.891,0,0,1-12.09,5.782,22.582,22.582,0,0,1-13.637-2.207A23.812,23.812,0,0,1,408.7,219.5a23.016,23.016,0,0,1-4.3-5.838,22.624,22.624,0,0,1-1.257-18.088c.216-.594.447-1.184.713-1.76a14.312,14.312,0,0,0,.7-1.736,11.009,11.009,0,0,0,.521-3.7q0-1.907,0-3.826l.169.169-27.357-.081-14.077-.042-7.133-.022-3.589-.011a23.213,23.213,0,0,0-3.566.122,8.27,8.27,0,0,0-6.8,7.25c-.046.59-.056,1.195-.049,1.809l0,1.834q-.007,7.342-.014,14.794-.015,14.9-.03,30.226v.188h-.186c-1.658-.019-3.3.041-4.989-.043l-.051,0-.045-.033a27.436,27.436,0,0,0-16-5.284,30.345,30.345,0,0,0-8.521,1.271,28.542,28.542,0,0,0-7.737,3.9c-.574.447-1.184.849-1.73,1.331l-1.618,1.47a29.54,29.54,0,0,0-2.841,3.33,27.518,27.518,0,0,0-4,7.791,29.444,29.444,0,0,0-1.327,8.709,27.713,27.713,0,0,0,7.986,19.168,27.767,27.767,0,0,0,22.1,8.037,27.468,27.468,0,0,0,11.138-3.517l.025-.014.028-.006a10.965,10.965,0,0,1,1.82-.24c.616-.022,1.2-.007,1.793-.011h3.614v.187q0,21.319,0,41.942,0,5.151,0,10.253a13.982,13.982,0,0,0,.123,2.51,7.886,7.886,0,0,0,.77,2.352,8.343,8.343,0,0,0,3.387,3.513,9.093,9.093,0,0,0,2.307.851,12.363,12.363,0,0,0,2.469.168h14.955l75.29.015,34.451.009,16.331.006h5.963a9.454,9.454,0,0,0,1.929-.14,6.742,6.742,0,0,0,5.166-5.021,7.4,7.4,0,0,0,.19-1.868q0-.956,0-1.906,0-1.9,0-3.781,0-3.76,0-7.434,0-7.35.007-14.35.008-14,.014-26.525v-.148l.146.034c1.849.424,3.424,1.444,5.127,2.017a24.982,24.982,0,0,0,10.347,1.429c.851-.054,1.69-.17,2.52-.3.817-.191,1.646-.316,2.437-.558a25.512,25.512,0,0,0,17.83-18.578q.116-.49.232-.974.076-.492.153-.98t.148-.97c.05-.321.045-.647.07-.968q.054-.964.107-1.908c0-.629-.056-1.252-.081-1.868a25.528,25.528,0,0,0-11.86-19.959,16.524,16.524,0,0,0-1.93-1.093q-.471-.247-.922-.484c-.31-.138-.623-.251-.922-.374-.605-.232-1.172-.481-1.727-.67l-1.6-.448a9.3,9.3,0,0,0-1.436-.334l-1.268-.212a12.756,12.756,0,0,0-1.979-.206c-1.066-.062-1.61-.1-1.61-.1" transform="translate(-6727.94 -6522.699)" fill="#263238"/>
    <path id="Trazado_600499" data-name="Trazado 600499" d="M355.669,273.751a7.969,7.969,0,0,1,4.585-.784c2.151.471,9.958,5.562,9.958,5.562l6.29-1.175,3.707,17.762-24.54,10.2Z" transform="translate(-6745.185 -6525.179)" fill="#ae7461"/>
    <path id="Trazado_600500" data-name="Trazado 600500" d="M329.693,279.984s5.622-.71,7.658-1.728,6.892-5.326,7.91-5.248,4.7.783,4.7.783l-1.488,4.465s7.362,4.464,9.555,6.109,9.085,9.007,9.4,10.808-.235,3.916-1.1,4.621-3.994-.705-3.994-.705a3.914,3.914,0,0,1-.705,3.211c-1.174,1.567-3.916,1.019-3.916,1.019s-.235,2.585-1.488,3.054-4.073-.94-4.073-.94-.851,2.193-1.874,2.427-3.921-1.488-3.921-1.488-12.531-9.007-15.351-10.338a14.408,14.408,0,0,0-3.681-1.41Z" transform="translate(-6737.361 -6525.219)" fill="#ffbe9d"/>
    <path id="Trazado_600501" data-name="Trazado 600501" d="M360.92,316.427c-.056,0-.092-.221-.224-.55a9.834,9.834,0,0,0-.63-1.25,7.991,7.991,0,0,1-.969-1.786,4.4,4.4,0,0,1,1.3,1.6,4.673,4.673,0,0,1,.559,1.365c.077.382.016.628-.032.624" transform="translate(-6746.128 -6536.214)" fill="#eb996e"/>
    <path id="Trazado_600502" data-name="Trazado 600502" d="M367.556,313.927a19.829,19.829,0,0,1-1.58-2.366c-.857-1.3-1.775-2.175-1.709-2.256a5.533,5.533,0,0,1,2.021,2.044,7.6,7.6,0,0,1,1.268,2.577" transform="translate(-6747.557 -6535.237)" fill="#eb996e"/>
    <path id="Trazado_600503" data-name="Trazado 600503" d="M374.569,307.421c-.111.028-.46-1.328-1.326-2.789s-1.863-2.438-1.785-2.521a7.685,7.685,0,0,1,3.111,5.31" transform="translate(-6749.542 -6533.251)" fill="#eb996e"/>
    <path id="Trazado_600504" data-name="Trazado 600504" d="M370.67,295.946a7.052,7.052,0,0,1,.187,4.229,42.656,42.656,0,0,1-.187-4.229" transform="translate(-6749.313 -6531.551)" fill="#eb996e"/>
    <path id="Trazado_600505" data-name="Trazado 600505" d="M345.5,282.562s1.958-6.266,2.663-7.048,7.254-2.508,7.254-2.508l2.031,5.249-1.453,1.537-3.133-.206a5.364,5.364,0,0,1-7.362,2.976" transform="translate(-6742.378 -6525.219)" fill="#ae7461"/>
    <path id="Trazado_600506" data-name="Trazado 600506" d="M328.749,303.32s-.9.689,0,2.334,3.324.47,4.107,0c0,0-1.175,2.741.313,3.6a5.846,5.846,0,0,0,3.29.627,3.2,3.2,0,0,0,2.036,2.741c2.115,1.1,2.663,0,2.663,0s.235,2.742,2.663,2.976,3.283-.6,3.283-.6l-1.09-1.619s1.41-2.873.314-4.127a3.755,3.755,0,0,0-2.9-1.1s.479-2.545-.917-3.254a2.57,2.57,0,0,0-3.7,1.139s-.157-2.789-2.194-2.726a4.534,4.534,0,0,0-3.133,1.316Z" transform="translate(-6737.645 -6533.586)" fill="#ae7461"/>
    <path id="Trazado_600507" data-name="Trazado 600507" d="M341.912,307.085a10.3,10.3,0,0,1-2.306,3.92,21.083,21.083,0,0,1,2.306-3.92" transform="translate(-6740.748 -6534.625)" fill="#6f4439"/>
    <path id="Trazado_600508" data-name="Trazado 600508" d="M348.215,310.493a8.539,8.539,0,0,1-2.7,3.948,82.113,82.113,0,0,1,2.7-3.948" transform="translate(-6742.38 -6535.566)" fill="#6f4439"/>
    <path id="Trazado_600509" data-name="Trazado 600509" d="M276.55,351.318h-11.88l-3.041,43.2h11.911c2.028-6.579,7.1-40.867,7.1-40.867Z" transform="translate(-6719.227 -6546.835)" fill="#263238"/>
    <path id="Trazado_600510" data-name="Trazado 600510" d="M186.671,351.318s-7.6,17.829-6.843,25.046,5.03,18.156,5.03,18.156H243.7a135.179,135.179,0,0,0,2.91-14.942c1.267-8.915,4.688-28.26,4.688-28.26Z" transform="translate(-6696.632 -6546.835)" fill="#263238"/>
    <path id="Trazado_600511" data-name="Trazado 600511" d="M267.963,101.586c-1.987-2.508-4.444-4.923-4.952-8.082-.468-2.9.8-6.085-.5-8.723-1.6-3.246-6.208-3.879-8.205-6.9-.967-1.462-1.2-3.314-2.151-4.783-1.626-2.506-4.966-3.311-7.948-3.14s-5.891,1.1-8.877,1.161c-4.1.086-8.245-1.451-12.223-.47-4.389,1.083-7.222,4.782-10.215,8.35l-3.878,4.119a16.166,16.166,0,0,1-2.541,1.863c-1.592.923-3.392,1.527-4.781,2.734a7.236,7.236,0,0,0-.032,10.435,7.737,7.737,0,0,0-5.578,7.326,22.216,22.216,0,0,0,1.145,5.313,7.728,7.728,0,0,1-.113,5.333c-.8,1.63-2.989,2.668-4.526,1.7a8.14,8.14,0,0,0,4.17,5.632,4.872,4.872,0,0,1-3.34,1.294c2.937,7.937,11.749,12.458,20.2,12.905s16.695-2.371,24.687-5.152l23.042-4.833c2.02-.362,2.968-2.752,3.036-4.8s-.35-4.209.473-6.089c1.129-2.578,4.248-3.827,5.422-6.385,1.335-2.907-.326-6.3-2.314-8.807" transform="translate(-6700.168 -6469.165)" fill="#263238"/>
    <path id="Trazado_600512" data-name="Trazado 600512" d="M219.645,124.527a93.871,93.871,0,0,1-3.272-15.865,32.786,32.786,0,0,1,2.106-15.914c.324-.752,3.021-5.774,3.831-5.652.579.087-1.166,4.811-.9,5.333,2.561,4.97,3.025,10.812,2.29,16.354a73.259,73.259,0,0,1-4.059,15.744" transform="translate(-6706.686 -6473.9)" fill="#263238"/>
    <path id="Trazado_600513" data-name="Trazado 600513" d="M220.748,101.116c.258-13.558,8.363-24.708,21.908-24.075l1.249.131a24.242,24.242,0,0,1,21.7,24.7c-.289,11.75-.759,24.729-1.494,30.971-1.524,12.923-14.678,13.571-14.678,13.571-.029,0-.353,21.347-.353,21.347l-30.8-21.342Z" transform="translate(-6707.26 -6471.119)" fill="#ffbe9d"/>
    <path id="Trazado_600514" data-name="Trazado 600514" d="M255.084,170.3a31.428,31.428,0,0,1-16.323-6.757s3.033,10.936,16.068,11.132Z" transform="translate(-6712.915 -6495.002)" fill="#eb996e"/>
    <path id="Trazado_600515" data-name="Trazado 600515" d="M276.037,124.487a1.858,1.858,0,0,1-1.979,1.677,1.777,1.777,0,0,1-1.729-1.867,1.859,1.859,0,0,1,1.976-1.678,1.779,1.779,0,0,1,1.731,1.869" transform="translate(-6722.179 -6483.706)" fill="#263238"/>
    <path id="Trazado_600516" data-name="Trazado 600516" d="M276.263,117.468c-.254.216-1.545-.967-3.534-1.171-1.984-.232-3.551.636-3.741.37-.095-.119.185-.529.869-.925a5.1,5.1,0,0,1,3.026-.594,4.9,4.9,0,0,1,2.781,1.233c.562.534.723.991.6,1.087" transform="translate(-6721.253 -6481.636)" fill="#263238"/>
    <path id="Trazado_600517" data-name="Trazado 600517" d="M251.18,124.487a1.858,1.858,0,0,1-1.979,1.677,1.777,1.777,0,0,1-1.729-1.867,1.859,1.859,0,0,1,1.977-1.678,1.779,1.779,0,0,1,1.73,1.869" transform="translate(-6715.318 -6483.706)" fill="#263238"/>
    <path id="Trazado_600518" data-name="Trazado 600518" d="M249.242,115.744c-.255.216-1.548-.967-3.535-1.171-1.984-.232-3.551.637-3.741.371-.093-.119.183-.529.869-.924a5.1,5.1,0,0,1,3.026-.6,4.9,4.9,0,0,1,2.781,1.233c.56.534.723.991.6,1.087" transform="translate(-6713.794 -6481.16)" fill="#263238"/>
    <path id="Trazado_600519" data-name="Trazado 600519" d="M259.651,132.43a13.237,13.237,0,0,1,3.291-.243c.513,0,1-.049,1.126-.387a2.6,2.6,0,0,0-.18-1.541q-.523-1.919-1.095-4.025c-1.505-5.724-2.538-10.41-2.307-10.469s1.639,4.534,3.143,10.259q.54,2.116,1.029,4.041a2.952,2.952,0,0,1,.053,2.021,1.28,1.28,0,0,1-.912.655,3.453,3.453,0,0,1-.876.028,12.986,12.986,0,0,1-3.273-.34" transform="translate(-6718.681 -6481.815)" fill="#263238"/>
    <path id="Trazado_600520" data-name="Trazado 600520" d="M251.193,139.831c.326.015.1,2.174,1.788,3.9s4.009,1.732,3.993,2.035c.016.139-.557.366-1.53.29a5.408,5.408,0,0,1-3.347-1.577,4.711,4.711,0,0,1-1.36-3.256c.012-.911.31-1.42.456-1.392" transform="translate(-6716.22 -6488.457)" fill="#263238"/>
    <path id="Trazado_600521" data-name="Trazado 600521" d="M249.55,104.737c-.253.521-2.212.054-4.574.09-2.364-.012-4.317.472-4.575-.045-.113-.247.269-.721,1.085-1.164a7.954,7.954,0,0,1,6.97-.034c.82.436,1.207.906,1.1,1.153" transform="translate(-6713.362 -6478.235)" fill="#263238"/>
    <path id="Trazado_600522" data-name="Trazado 600522" d="M276.3,108.179c-.4.415-1.718-.2-3.363-.395-1.638-.253-3.074-.017-3.345-.523-.116-.243.151-.673.805-1.037a4.905,4.905,0,0,1,5.406.74c.533.526.675,1.011.5,1.215" transform="translate(-6721.418 -6479.044)" fill="#263238"/>
    <path id="Trazado_600523" data-name="Trazado 600523" d="M218.21,123.405c-.211-.119-8.614-3.567-9.264,5.31s8.4,7.7,8.43,7.445.834-12.754.834-12.754" transform="translate(-6704.675 -6483.715)" fill="#ffbe9d"/>
    <path id="Trazado_600524" data-name="Trazado 600524" d="M215.774,133.666c-.037-.031-.163.1-.433.2a1.549,1.549,0,0,1-1.158-.062c-.912-.412-1.593-1.959-1.519-3.562a5.123,5.123,0,0,1,.6-2.182,1.79,1.79,0,0,1,1.25-1.1.788.788,0,0,1,.881.491c.1.257.031.43.077.448.023.025.2-.134.157-.506a.99.99,0,0,0-.309-.582,1.171,1.171,0,0,0-.838-.288,2.178,2.178,0,0,0-1.716,1.258,5.263,5.263,0,0,0-.717,2.435c-.074,1.793.719,3.534,1.975,4a1.658,1.658,0,0,0,1.431-.131c.291-.2.353-.395.323-.413" transform="translate(-6705.539 -6484.783)" fill="#eb996e"/>
    <path id="Trazado_600525" data-name="Trazado 600525" d="M260.33,86.144c1.488-.7-2.526-5.633-5.955-7.463-5.183-2.766-13.239-4.782-18.252-3.7-6.034,1.3-11.148,3.93-14.471,9.133a35.01,35.01,0,0,0-5.069,17.584,10.631,10.631,0,0,0,.9,5.506c1.114,2.044,3.415,3.434,3.136,6.136a3.725,3.725,0,0,0,.749,2.771c1.513,1.834,3.606.337,4.625-1.232,2.176-3.353,2.661-7.493,3.089-11.467a26.037,26.037,0,0,0-.018-8.483c-.34-1.508-.947-2.952-1.2-4.476a5.348,5.348,0,0,1,.914-4.394,5.645,5.645,0,0,1,.769-.683,9.281,9.281,0,0,1,9.3-1.158c4.887,2.092,13.259,5.284,15.6,3.73,3.366-2.236,4.237-3.778,4.237-3.778Z" transform="translate(-6706.788 -6470.475)" fill="#263238"/>
    <path id="Trazado_600526" data-name="Trazado 600526" d="M239.344,73.193A19.55,19.55,0,0,1,254.3,74.982a10.17,10.17,0,0,1,4.974,6.243c.57,2.677-.76,5.84-3.356,6.708l-.182.1c-3.871,1.032-6.3.366-10-1.185-3.108-1.305-5.81-3.449-8.924-4.739a18.083,18.083,0,0,0-10.545-.987,29.526,29.526,0,0,1,13.076-7.927" transform="translate(-6709.466 -6469.865)" fill="#263238"/>
    <path id="Trazado_600527" data-name="Trazado 600527" d="M247.433,71.334a3.917,3.917,0,0,1,.9.09,14.561,14.561,0,0,1,2.391.65A15.231,15.231,0,0,1,254,73.76a12.666,12.666,0,0,1,3.259,3.12,12.066,12.066,0,0,1,1.793,4.141,21.692,21.692,0,0,1,.547,3.633c.073,1.042.076,1.887.065,2.469a3.944,3.944,0,0,1-.064.9,4.413,4.413,0,0,1-.083-.9c-.034-.58-.077-1.419-.184-2.448a24.111,24.111,0,0,0-.618-3.571,12.152,12.152,0,0,0-1.764-4.009,12.787,12.787,0,0,0-3.148-3.052,16.108,16.108,0,0,0-3.17-1.723,32.321,32.321,0,0,0-3.2-.989" transform="translate(-6715.308 -6469.548)" fill="#455a64"/>
    <path id="Trazado_600528" data-name="Trazado 600528" d="M258.722,70.654a3.21,3.21,0,0,1,.767.212,6.349,6.349,0,0,1,.877.329l1.11.562a11.451,11.451,0,0,1,4.605,5.416,11.682,11.682,0,0,1,.943,3.847,13.278,13.278,0,0,1,.034,1.732,12.6,12.6,0,0,1-.2,1.5,7.625,7.625,0,0,1-.329,1.2,5.6,5.6,0,0,1-.358.867,3.2,3.2,0,0,1-.411.683,16.318,16.318,0,0,0,.835-2.8,10.945,10.945,0,0,0,.086-3.149,14.747,14.747,0,0,0-.3-1.839,14.493,14.493,0,0,0-.642-1.894,11.765,11.765,0,0,0-4.4-5.335l-1.06-.6a8.192,8.192,0,0,0-.838-.382,3.3,3.3,0,0,1-.715-.349" transform="translate(-6718.424 -6469.361)" fill="#455a64"/>
    <path id="Trazado_600529" data-name="Trazado 600529" d="M241.369,190.118c0,1.218,6.106,28.037,8.443,34.624s9.737,72.647,8.764,77.352-3.505,4.517-3.505,4.517-59.787-3.764-66.214-3.2-9.153.376-10.711-6.964.046-45.487-1.317-54.71-1.375-13.692-1.9-27.393c-.457-11.875,2.245-21.4,7.893-28.275s18.149-13.825,18.149-13.825l4.435-6.467,31.38,16.6.717-3.777,1.9,5.881Z" transform="translate(-6695.279 -6495.62)" fill="#449c6e"/>
    <g id="Grupo_878286" data-name="Grupo 878286" transform="translate(-6513.372 -6281.01)" opacity="0.3">
      <g id="Grupo_878285" data-name="Grupo 878285">
        <g id="Grupo_878284" data-name="Grupo 878284" clip-path="url(#clip-path)">
          <path id="Trazado_600530" data-name="Trazado 600530" d="M257.537,290.475c-.523-1.332-2.218-1.667-3.64-1.825-13.3-1.475-27.135-4.794-36.846-13.994a68.965,68.965,0,0,1-9.682-12.315c-6.311-9.542-12.244-19.328-18.174-29.111l-4.605,1.742c2.825,13.813,5.6,23.814,10.2,35.136s8.172,22.308,19.831,26.016c7.536,2.4,21.85.56,29.734-.058a46.141,46.141,0,0,0,9.768-1.53,6.367,6.367,0,0,0,2.642-1.344,2.606,2.606,0,0,0,.769-2.716" transform="translate(-184.589 -233.23)"/>
        </g>
      </g>
    </g>
    <path id="Trazado_600531" data-name="Trazado 600531" d="M182.083,219.45c.344.612,26.952,57.442,38.831,59.779s48.8,2.883,56.005,1.52,14.256-2.632,14.256-2.632,5.217-12.393.455-22.951l-9.917.314s-27.574-1.487-31.47-2.553-7.26-4.717-10.765-4.523L218.5,199.586s-13.632-12.659-23.37-8.764-15.9,23.552-13.048,28.628" transform="translate(-6697.076 -6502.328)" fill="#449c6e"/>
    <path id="Trazado_600532" data-name="Trazado 600532" d="M320.635,305.152a4.839,4.839,0,0,1,.2-.955c.157-.605.353-1.489.56-2.585s.394-2.413.526-3.881a41.463,41.463,0,0,0,.1-4.79,39.089,39.089,0,0,0-1.349-8.59c-.3-1.076-.565-1.94-.772-2.53a4.877,4.877,0,0,1-.275-.935,4.714,4.714,0,0,1,.413.885,25.884,25.884,0,0,1,.891,2.506,34.99,34.99,0,0,1,1.47,8.648,37.958,37.958,0,0,1-.134,4.837,33.825,33.825,0,0,1-.612,3.9,25.7,25.7,0,0,1-.68,2.572,4.806,4.806,0,0,1-.338.916" transform="translate(-6735.234 -6527.394)" fill="#263238"/>
    <path id="Trazado_600533" data-name="Trazado 600533" d="M218.768,203.211s.141.291.4.865.631,1.437,1.12,2.551l4.243,9.774c3.66,8.478,8.924,20.67,15.355,35.568l-.145-.091a9.076,9.076,0,0,1,4.65,1.425c1.447.8,2.849,1.725,4.386,2.427a14.738,14.738,0,0,0,4.991,1.161c1.746.206,3.529.36,5.338.517,7.236.6,14.9,1.069,22.887,1.515h-.015l9.917-.317.125,0,.049.112A25.532,25.532,0,0,1,294.05,270.1a37.256,37.256,0,0,1-2.434,11.718l-.036.093-.1.02-6.306,1.165-6.9,1.274a46.138,46.138,0,0,1-6.909.712c-4.588.209-9.11.227-13.551.2s-8.8-.127-13.074-.286-8.448-.372-12.519-.683c-2.036-.146-4.044-.342-6.022-.558a42,42,0,0,1-5.832-.968,10.145,10.145,0,0,1-2.524-1.457,21.3,21.3,0,0,1-2.145-1.881,46.2,46.2,0,0,1-3.682-4.153,152.419,152.419,0,0,1-11.177-16.813C194.6,247.824,190.094,238.9,187,232.73c-1.537-3.09-2.7-5.5-3.482-7.143s-1.171-2.511-1.171-2.511.118.208.325.625l.915,1.853,3.544,7.111c3.13,6.147,7.667,15.051,13.928,25.681A153.189,153.189,0,0,0,212.253,275.1a46.043,46.043,0,0,0,3.664,4.117,20.9,20.9,0,0,0,2.116,1.85,9.826,9.826,0,0,0,2.44,1.407,42.3,42.3,0,0,0,5.757.943c1.973.213,3.977.406,6.01.549q6.1.457,12.506.669c4.267.154,8.626.254,13.063.277s8.956,0,13.531-.209A45.783,45.783,0,0,0,278.2,284l6.9-1.276,6.307-1.164-.14.112a36.955,36.955,0,0,0,2.409-11.587,25.191,25.191,0,0,0-1.948-11.215l.174.108-9.918.31h-.015c-7.987-.452-15.654-.932-22.9-1.541-1.811-.16-3.594-.316-5.348-.526-.877-.1-1.745-.213-2.608-.376a9.753,9.753,0,0,1-2.476-.82c-1.567-.72-2.971-1.654-4.4-2.447a8.812,8.812,0,0,0-4.485-1.4l-.1.005-.041-.095c-6.382-14.919-11.6-27.13-15.235-35.62-1.8-4.239-3.21-7.547-4.17-9.805l-1.08-2.567c-.241-.581-.355-.883-.355-.883" transform="translate(-6697.342 -6505.953)" fill="#263238"/>
    <path id="Trazado_600534" data-name="Trazado 600534" d="M217.129,195.422c-.025.023-.371-.342-1.032-.956a19.924,19.924,0,0,0-8.21-4.531,18.466,18.466,0,0,0-13.427,1.342,19.93,19.93,0,0,0-7.15,6.067c-.527.733-.793,1.159-.823,1.141a1.375,1.375,0,0,1,.161-.328c.123-.2.279-.524.541-.9a17.533,17.533,0,0,1,2.466-2.961,18.956,18.956,0,0,1,23.54-2.354,17.506,17.506,0,0,1,3,2.414c.331.313.547.6.708.772a1.354,1.354,0,0,1,.223.29" transform="translate(-6698.484 -6501.996)" fill="#263238"/>
    <path id="Trazado_600535" data-name="Trazado 600535" d="M260.355,270.7a49.894,49.894,0,0,1-3.038,8.114,50.08,50.08,0,0,1,3.038-8.114" transform="translate(-6718.034 -6524.582)" fill="#263238"/>
    <path id="Trazado_600536" data-name="Trazado 600536" d="M327.541,283.6c0-.021.1-.05.274.012a1.031,1.031,0,0,1,.533.521,1.139,1.139,0,0,1-.027,1.128,1.3,1.3,0,0,1-1.259.582,1.221,1.221,0,0,1-.948-1.012,1.169,1.169,0,0,1,.362-1.069.955.955,0,0,1,.713-.232c.174.017.259.062.256.085.012.072-.422-.027-.783.34a.925.925,0,0,0-.206.811.9.9,0,0,0,.67.706.993.993,0,0,0,.907-.4.9.9,0,0,0,.072-.829c-.185-.518-.577-.59-.562-.639" transform="translate(-6737.022 -6528.123)" fill="#263238"/>
    <path id="Trazado_600537" data-name="Trazado 600537" d="M248.232,187.059a4.959,4.959,0,0,1-.715-.37q-.74-.422-1.981-1.132l.14-.061c-.392,1.979-.77,4.89-1.434,8.38l-.043.232-.2-.127c-2.913-1.836-6.409-3.935-10.137-6.188-2.781-1.664-5.38-3.345-7.775-4.8s-4.6-2.687-6.455-3.725l-4.394-2.444-1.192-.67a2.218,2.218,0,0,1-.4-.255,2.329,2.329,0,0,1,.439.188l1.226.608c1.059.538,2.584,1.331,4.453,2.34s4.083,2.233,6.506,3.66l7.791,4.772c3.727,2.252,7.216,4.37,10.116,6.236l-.246.1c.693-3.463,1.121-6.378,1.569-8.352l.03-.13.109.069,1.934,1.208a4.951,4.951,0,0,1,.665.454" transform="translate(-6705.98 -6498.414)" fill="#263238"/>
    <g id="Grupo_878289" data-name="Grupo 878289" transform="translate(-6487.931 -6320.168)" opacity="0.3">
      <g id="Grupo_878288" data-name="Grupo 878288">
        <g id="Grupo_878287" data-name="Grupo 878287" clip-path="url(#clip-path-2)">
          <path id="Trazado_600538" data-name="Trazado 600538" d="M219.731,179.14l16.375,12.2c3.6,2.684,7.292,5.415,11.571,6.788l-.237-11.381-1.676,7.989Z" transform="translate(-219.731 -179.14)"/>
        </g>
      </g>
    </g>
    <path id="Trazado_600539" data-name="Trazado 600539" d="M450.125,89a5.869,5.869,0,0,1-2.7-11.362,6.106,6.106,0,0,1,5.123-10.4,7.307,7.307,0,0,1,10.9-6.2,8.217,8.217,0,0,1,10.111-.4,5.844,5.844,0,0,1,5.349,9.813" transform="translate(-6769.428 -6466.173)" fill="#263238"/>
    <path id="Trazado_600540" data-name="Trazado 600540" d="M451.04,92.631a24.9,24.9,0,0,1,24.353-23.4l1.289-.027c13.919.529,21.246,12.646,20.332,26.545l.828,49.589-33.822,12.14-.3-17.858s-13.407-1.806-13.844-15.165c-.211-6.452.435-19.774,1.161-31.823" transform="translate(-6771.179 -6468.962)" fill="#ae7461"/>
    <path id="Trazado_600541" data-name="Trazado 600541" d="M468.865,164.354a32.421,32.421,0,0,0,17.4-5.481s-3.922,9.7-17.28,8.769Z" transform="translate(-6776.431 -6493.714)" fill="#6f4439"/>
    <path id="Trazado_600542" data-name="Trazado 600542" d="M456.682,117.581a1.909,1.909,0,0,0,1.879,1.888,1.826,1.826,0,0,0,1.932-1.761,1.91,1.91,0,0,0-1.877-1.89,1.828,1.828,0,0,0-1.934,1.762" transform="translate(-6773.067 -6481.829)" fill="#263238"/>
    <path id="Trazado_600543" data-name="Trazado 600543" d="M455.638,109.719c.241.244,1.665-.855,3.719-.892,2.05-.066,3.579.961,3.8.705.108-.114-.143-.559-.809-1.023a5.237,5.237,0,0,0-3.046-.872,5.034,5.034,0,0,0-2.954,1.021c-.622.5-.826.952-.707,1.061" transform="translate(-6772.771 -6479.571)" fill="#263238"/>
    <path id="Trazado_600544" data-name="Trazado 600544" d="M482.526,117.581a1.907,1.907,0,0,0,1.879,1.887,1.824,1.824,0,0,0,1.932-1.761,1.91,1.91,0,0,0-1.877-1.889,1.826,1.826,0,0,0-1.934,1.762" transform="translate(-6780.201 -6481.829)" fill="#263238"/>
    <path id="Trazado_600545" data-name="Trazado 600545" d="M483.529,109.68c.242.244,1.667-.855,3.72-.891,2.05-.066,3.579.96,3.8.7.107-.114-.14-.558-.809-1.023a5.235,5.235,0,0,0-3.045-.872,5.045,5.045,0,0,0-2.955,1.021c-.62.5-.825.952-.707,1.061" transform="translate(-6780.47 -6479.56)" fill="#263238"/>
    <path id="Trazado_600546" data-name="Trazado 600546" d="M471.669,125.189a13.548,13.548,0,0,0-3.347-.534c-.526-.043-1.024-.138-1.12-.494a2.671,2.671,0,0,1,.319-1.561q.7-1.918,1.469-4.025c2.038-5.729,3.5-10.435,3.27-10.515s-2.071,4.5-4.109,10.227q-.734,2.118-1.4,4.046a3.038,3.038,0,0,0-.23,2.064,1.315,1.315,0,0,0,.878.749,3.526,3.526,0,0,0,.893.106,13.408,13.408,0,0,0,3.381-.064" transform="translate(-6775.752 -6479.688)" fill="#263238"/>
    <path id="Trazado_600547" data-name="Trazado 600547" d="M482.474,99.965c.282.515,2.029-.085,4.2-.2,2.162-.163,4,.208,4.183-.337.08-.259-.314-.719-1.1-1.12a6.506,6.506,0,0,0-3.265-.618,6.27,6.27,0,0,0-3.117,1.027c-.709.5-1.019,1-.893,1.247" transform="translate(-6780.18 -6476.822)" fill="#263238"/>
    <path id="Trazado_600548" data-name="Trazado 600548" d="M455.075,99.635c.442.458,2.127-.062,4.165-.125,2.035-.124,3.77.237,4.157-.259.169-.24-.112-.7-.875-1.129a6.643,6.643,0,0,0-3.4-.7,6.526,6.526,0,0,0-3.3,1.006c-.71.494-.937.979-.741,1.2" transform="translate(-6772.606 -6476.751)" fill="#263238"/>
    <path id="Trazado_600549" data-name="Trazado 600549" d="M453.087,85.87s3.354-8.44,7.35-10.475c4.837-2.464,7.049,2.855,11.678,1.46s9.246-3.76,14.077-.258c5.288,3.833,2.9,6.646,3.346,12.569,1.794,24.011,6.322,30.719,7.34,19.372.111-1.244,3.534-2.3,3.938-7.552.523-6.809.616-15.066-1-19.858-1.362-4.039-3.736-6.8-7.956-9.812-6.66-4.754-15.675-4.675-21.782-3.935S452.316,75.4,453.087,85.87" transform="translate(-6772.065 -6468.355)" fill="#263238"/>
    <path id="Trazado_600550" data-name="Trazado 600550" d="M512.329,122.527a3.627,3.627,0,0,1,3.845-3.575c2.5.186,5.3,1.545,5.239,6.7-.106,9.141-9.262,7.149-9.274,6.887-.009-.178.112-6.186.19-10.01" transform="translate(-6788.375 -6482.692)" fill="#ae7461"/>
    <path id="Trazado_600551" data-name="Trazado 600551" d="M514.938,130.252c.04-.028.159.114.426.24a1.592,1.592,0,0,0,1.19.038c.97-.343,1.8-1.866,1.864-3.514a5.258,5.258,0,0,0-.42-2.285,1.834,1.834,0,0,0-1.183-1.236.81.81,0,0,0-.945.425c-.126.254-.07.437-.119.452-.025.023-.194-.156-.117-.532a1.021,1.021,0,0,1,.366-.568,1.2,1.2,0,0,1,.884-.222,2.237,2.237,0,0,1,1.646,1.436,5.415,5.415,0,0,1,.523,2.555c-.08,1.841-1.043,3.554-2.369,3.921a1.708,1.708,0,0,1-1.454-.259c-.281-.229-.327-.434-.295-.45" transform="translate(-6789.146 -6483.823)" fill="#6f4439"/>
    <path id="Trazado_600552" data-name="Trazado 600552" d="M497.753,89.322a8.681,8.681,0,0,1-3.833,1.866c-1.427.17-3.079-.618-3.348-2.029-.122-.634.019-1.375-.409-1.858-.511-.576-1.428-.374-2.191-.277a5.833,5.833,0,0,1-6.138-4.057c-.657,1.028-2.238,1.016-3.277.376a13.116,13.116,0,0,1-2.541-2.611,3.76,3.76,0,0,0-3.168-1.5,9.007,9.007,0,0,1-1.978.478c-1.2-.082-1.816-1.475-2.022-2.662s-.376-2.573-1.4-3.2c-.954-.581-2.168-.209-3.268-.024s-2.532-.045-2.837-1.119a2.17,2.17,0,0,1,.375-1.666,5.918,5.918,0,0,1,6.939-2.382,8.021,8.021,0,0,1,14.7-1.855,8.14,8.14,0,0,1,13.07,2.7,5.9,5.9,0,0,1,6.826,8.446,5.6,5.6,0,0,1,3.172,4.4c.073,1.89-1.731,3.812-3.566,3.351a3.268,3.268,0,0,1-5.584,3.374" transform="translate(-6774.338 -6467.183)" fill="#263238"/>
    <path id="Trazado_600553" data-name="Trazado 600553" d="M470.6,74.633a.477.477,0,0,0,.006.167c.014.109.024.276.068.487a5.754,5.754,0,0,0,.7,1.747,6.545,6.545,0,0,0,2.07,2.119,6.086,6.086,0,0,0,3.764.99l-.159-.2a3.306,3.306,0,0,0,.235,2.519,9.444,9.444,0,0,0,1.609,2.215,6.788,6.788,0,0,0,1.043,1.028,3.2,3.2,0,0,0,1.459.507,3.335,3.335,0,0,0,2.919-1.113l-.343-.09a6.858,6.858,0,0,0,3,4.682,5,5,0,0,0,3.02.922,9,9,0,0,0,2.943-.709l-.246-.1a7.194,7.194,0,0,0,2.22,2.776,3.833,3.833,0,0,0,3.2.8,5.033,5.033,0,0,0,3.795-4.017l-.2.1a4.71,4.71,0,0,0,3.149.4,5.1,5.1,0,0,0,2.169-1.021,4.416,4.416,0,0,0,1-1.137,2.165,2.165,0,0,0,.222-.478,5.5,5.5,0,0,1-1.315,1.494,5.071,5.071,0,0,1-2.118.924,4.507,4.507,0,0,1-2.972-.426l-.173-.093-.032.194a4.747,4.747,0,0,1-3.592,3.723,3.481,3.481,0,0,1-2.906-.761,6.869,6.869,0,0,1-2.086-2.634l-.075-.168-.172.065a8.721,8.721,0,0,1-2.815.675,4.612,4.612,0,0,1-2.789-.859,6.485,6.485,0,0,1-2.839-4.412l-.066-.431-.278.34a2.966,2.966,0,0,1-2.578.982,2.824,2.824,0,0,1-1.292-.439,6.621,6.621,0,0,1-.984-.963,9.194,9.194,0,0,1-1.573-2.119,3,3,0,0,1-.245-2.278l.07-.219-.229.02a5.873,5.873,0,0,1-3.605-.893,6.509,6.509,0,0,1-2.055-2,7.068,7.068,0,0,1-.918-2.31" transform="translate(-6776.907 -6470.46)" fill="#455a64"/>
    <path id="Trazado_600554" data-name="Trazado 600554" d="M481.4,132.7c-.327.038.051,2.193-1.523,4.048s-3.907,2.023-3.871,2.327c-.006.14.585.328,1.559.183a5.451,5.451,0,0,0,3.253-1.821,4.746,4.746,0,0,0,1.138-3.369c-.077-.915-.412-1.406-.557-1.368" transform="translate(-6778.401 -6486.487)" fill="#263238"/>
    <path id="Trazado_600555" data-name="Trazado 600555" d="M380.336,269.362c1.158-.463,39.419-5.06,39.419-5.06l15.523-13.143-1.457,38.047-48.853,4.71Z" transform="translate(-6751.994 -6519.188)" fill="#583cb6"/>
    <g id="Grupo_878292" data-name="Grupo 878292" transform="translate(-6327.878 -6262.218)" opacity="0.3">
      <g id="Grupo_878291" data-name="Grupo 878291">
        <g id="Grupo_878290" data-name="Grupo 878290" clip-path="url(#clip-path-3)">
          <path id="Trazado_600556" data-name="Trazado 600556" d="M445.107,259.186c-.466.232-4.3,3.64-4.3,3.64l1.17,29.3Z" transform="translate(-440.808 -259.186)"/>
        </g>
      </g>
    </g>
    <path id="Trazado_600557" data-name="Trazado 600557" d="M512.148,354.356H447.522s3.421,18.235,4.689,26.638a107.6,107.6,0,0,0,3.119,14.364H513.86s4.369-10.592,5.13-17.395-6.843-23.607-6.843-23.607" transform="translate(-6770.54 -6547.674)" fill="#263238"/>
    <path id="Trazado_600558" data-name="Trazado 600558" d="M440.565,357.4s-1.806,20.786,0,38.8h22.386V379.6Z" transform="translate(-6768.397 -6548.513)" fill="#263238"/>
    <path id="Trazado_600559" data-name="Trazado 600559" d="M458.051,200.545l6.965-15.251.865-9.42s13.354-8.394,19.69-11.562a138.505,138.505,0,0,1,14.871-6.036v8.889Z" transform="translate(-6773.445 -6493.55)" fill="#ebebeb"/>
    <path id="Trazado_600560" data-name="Trazado 600560" d="M510.5,279.65s3.783-50.835,4.039-54.613c0,0,2.234-27.162-2.589-37.505S496.331,168.1,496.331,168.1l-.994-5.43-21.08,13.287-9.745,8.475a97.36,97.36,0,0,0-9.194,11.44,40.367,40.367,0,0,0-7.21,14.942c-.5,2.264-6.3,29.325-6.473,48.188,0,0-.891,16.456-1.842,25.778-1.176,11.537-2.969,37.838-2.579,53.421l68.308-2.086c16.881-2.575,13.912-4.253,13.912-4.253Z" transform="translate(-6767.679 -6494.762)" fill="#583cb6"/>
    <path id="Trazado_600561" data-name="Trazado 600561" d="M496.2,170.555s-.159.082-.473.216l-1.394.583c-.6.287-1.32.665-2.17,1.107-.816.5-1.79,1.027-2.8,1.745a77.584,77.584,0,0,0-15.009,13.872l-.039.046-.056.011-6.554,1.2.141-.163c-.1,3.044-.211,6.241-.322,9.548l0,.075-.056.054a90.676,90.676,0,0,0-9.637,10.563,41.5,41.5,0,0,0-3.3,4.994l-.357.644-.273.672a11.756,11.756,0,0,0-.494,1.363c-.292.925-.58,1.844-.818,2.772-1.011,3.691-1.846,7.295-2.628,10.728-1.555,6.869-2.85,13.079-3.925,18.3-2.144,10.437-3.352,16.914-3.352,16.914a10.544,10.544,0,0,1,.147-1.188c.119-.776.318-1.916.578-3.382.53-2.933,1.328-7.17,2.366-12.4s2.309-11.443,3.847-18.321c.773-3.438,1.6-7.044,2.611-10.749.237-.93.526-1.856.82-2.79a11.988,11.988,0,0,1,.505-1.4l.283-.7.361-.653a41.611,41.611,0,0,1,3.332-5.042,90.051,90.051,0,0,1,9.69-10.6l-.059.128c.119-3.307.234-6.5.343-9.547l.005-.139.137-.025,6.558-1.183-.1.056A75.9,75.9,0,0,1,489.26,174.05c1.019-.709,2.005-1.222,2.831-1.716.862-.431,1.6-.8,2.2-1.07l1.417-.54c.321-.119.491-.169.491-.169" transform="translate(-6769.202 -6496.939)" fill="#263238"/>
    <path id="Trazado_600562" data-name="Trazado 600562" d="M481.3,219.072l.82,67.833-10.33,66.066h27.232s12.375-50.162,15.258-60.7c2.8-10.235,6.992-61.759,7.364-64.29.146-.991,3.1-18.785-5.593-27.18" transform="translate(-6777.239 -6505.287)" fill="#583cb6"/>
    <path id="Trazado_600563" data-name="Trazado 600563" d="M515.97,200.8s.2.187.57.566a15.144,15.144,0,0,1,1.488,1.828,22.765,22.765,0,0,1,3.4,8.359,46.778,46.778,0,0,1,.518,14.313c-.409,2.779-.614,5.749-.915,8.915s-.591,6.5-.91,10.015c-.649,7.02-1.383,14.712-2.269,22.966-.455,4.125-.926,8.393-1.509,12.779a104.277,104.277,0,0,1-2.4,13.447c-4.549,18.12-9.556,38.063-14.821,59.03l-.036.143H496l-24.293,0h-.218l.033-.215c3.822-24.367,7.35-46.858,10.361-66.061l0,.026c-.221-20.541-.4-37.5-.529-49.326-.054-5.906-.095-10.531-.124-13.688-.009-1.569-.016-2.772-.02-3.592s.009-1.229.009-1.229.021.418.038,1.229.037,2.022.066,3.591c.048,3.157.118,7.781.207,13.687.159,11.83.387,28.784.662,49.325v.012l0,.013c-2.994,19.206-6.5,41.7-10.3,66.071l-.184-.215,24.293,0h2.938l-.182.143c5.276-20.967,10.294-40.91,14.854-59.031a104.28,104.28,0,0,0,2.405-13.4c.588-4.381,1.066-8.647,1.527-12.77.9-8.248,1.648-15.938,2.314-22.956q.492-5.265.936-10.012c.309-3.152.528-6.158.944-8.916a46.9,46.9,0,0,0-.452-14.26,22.961,22.961,0,0,0-3.322-8.346,16.191,16.191,0,0,0-1.454-1.845c-.362-.387-.542-.591-.542-.591" transform="translate(-6777.155 -6505.287)" fill="#263238"/>
    <path id="Trazado_600564" data-name="Trazado 600564" d="M499.629,326.65a11.132,11.132,0,0,1-2.1-.61c-1.28-.437-3.028-1.1-4.916-1.939s-3.555-1.689-4.738-2.346a11.045,11.045,0,0,1-1.863-1.152,14.558,14.558,0,0,1,1.987.916c1.21.594,2.887,1.4,4.767,2.237s3.6,1.535,4.856,2.034a14.423,14.423,0,0,1,2.012.859" transform="translate(-6781.163 -6538.356)" fill="#263238"/>
    <path id="Trazado_600565" data-name="Trazado 600565" d="M440.425,309.145a.625.625,0,0,1-.007-.178c.005-.139.011-.31.018-.519q.039-.731.107-2c.112-1.765.271-4.261.467-7.333.418-6.191,1.014-14.741,1.849-24.173s1.8-17.956,2.584-24.111c.395-3.078.729-5.566.981-7.282q.187-1.251.3-1.976l.086-.513a.089.089,0,1,1,.038.005c-.013.139-.03.309-.049.518q-.083.728-.225,1.985c-.207,1.756-.5,4.24-.861,7.3-.717,6.162-1.638,14.682-2.474,24.112s-1.473,17.973-1.958,24.158c-.245,3.068-.445,5.562-.586,7.324-.075.84-.134,1.5-.177,1.99-.022.208-.04.378-.056.517a.614.614,0,0,1-.032.175" transform="translate(-6768.579 -6516.354)" fill="#263238"/>
    <path id="Trazado_600566" data-name="Trazado 600566" d="M514.194,185.142a25.293,25.293,0,0,0-6.322-10.055,6.038,6.038,0,0,1,1.381,1.116,18.088,18.088,0,0,1,4.533,7.211,6.046,6.046,0,0,1,.408,1.728" transform="translate(-6787.197 -6498.189)" fill="#263238"/>
    <path id="Trazado_600567" data-name="Trazado 600567" d="M448.741,304.578c.019,0,.088.167.067.493a1.97,1.97,0,0,1-.592,1.228,1.876,1.876,0,0,1-1.964.446,2.177,2.177,0,0,1-1.009-.722,2.005,2.005,0,0,1-.408-1.273,2.638,2.638,0,0,1,.524-1.578,1.625,1.625,0,0,1,.635-.5c.261-.1.45-.142.665-.211l.027-.008h.024a2.276,2.276,0,0,1,1.313.378,1.691,1.691,0,0,1,.608.863,1.725,1.725,0,0,1,.112.885c-.045.009-.085-.319-.292-.814a1.572,1.572,0,0,0-.581-.71,2.071,2.071,0,0,0-1.159-.271l.05-.008c-.2.07-.447.144-.626.216a1.3,1.3,0,0,0-.487.4,2.332,2.332,0,0,0-.435,1.357,1.729,1.729,0,0,0,1.158,1.664,1.611,1.611,0,0,0,1.665-.313,1.986,1.986,0,0,0,.628-1.055c.064-.293.047-.468.079-.471" transform="translate(-6769.797 -6533.347)" fill="#263238"/>
    <path id="Trazado_600568" data-name="Trazado 600568" d="M447.342,337.708c.019,0,.088.167.067.493a1.97,1.97,0,0,1-.592,1.228,1.876,1.876,0,0,1-1.964.446,2.177,2.177,0,0,1-1.009-.722,2.005,2.005,0,0,1-.408-1.273,2.638,2.638,0,0,1,.524-1.578,1.626,1.626,0,0,1,.635-.5c.261-.1.45-.142.665-.211l.027-.008h.024a2.277,2.277,0,0,1,1.313.378,1.691,1.691,0,0,1,.608.863,1.726,1.726,0,0,1,.112.885c-.045.009-.085-.319-.292-.814a1.572,1.572,0,0,0-.581-.71,2.071,2.071,0,0,0-1.159-.271l.05-.008c-.2.07-.447.144-.626.216a1.3,1.3,0,0,0-.487.4,2.333,2.333,0,0,0-.435,1.357,1.729,1.729,0,0,0,1.158,1.664,1.611,1.611,0,0,0,1.665-.313,1.986,1.986,0,0,0,.628-1.055c.064-.293.047-.468.079-.471" transform="translate(-6769.411 -6542.492)" fill="#263238"/>
    <path id="Trazado_600569" data-name="Trazado 600569" d="M521.841,194.247c-.038.064-.937-.511-2.526-1.12a17.58,17.58,0,0,0-2.865-.816,17.726,17.726,0,0,0-7.246.1,17.62,17.62,0,0,0-2.842.895c-1.572.653-2.454,1.252-2.494,1.189a2.829,2.829,0,0,1,.6-.451,6.417,6.417,0,0,1,.751-.456,10.608,10.608,0,0,1,1.04-.527,15.829,15.829,0,0,1,2.87-.989,16.806,16.806,0,0,1,7.392-.1,15.876,15.876,0,0,1,2.9.909,10.8,10.8,0,0,1,1.053.5,6.252,6.252,0,0,1,.763.436,2.852,2.852,0,0,1,.61.434" transform="translate(-6786.093 -6502.75)" fill="#263238"/>
    <g id="Grupo_878295" data-name="Grupo 878295" transform="translate(-6323.9 -6314.285)" opacity="0.3">
      <g id="Grupo_878294" data-name="Grupo 878294">
        <g id="Grupo_878293" data-name="Grupo 878293" clip-path="url(#clip-path-4)">
          <path id="Trazado_600570" data-name="Trazado 600570" d="M446.3,256.5c2.95-4.292,4.032-8.341,5.609-13.305,2.342-7.377,2.995-15.712,6.671-22.524,2.165-4.011,4.709-8.127,8.473-10.7,3.671-2.509,4.214-5.7,4.142-14.324a10.1,10.1,0,0,0,5.727-2.351,14.6,14.6,0,0,0,3.217-6.029c-1.84,2-4.909,5.321-4.909,5.321s-6.654,1.236-6.556,1.194c-.164,3.319-.169,6.229-.333,9.548,0,0-12.765,13.543-13.758,16.266s-8.281,36.9-8.281,36.9" transform="translate(-446.303 -187.267)"/>
        </g>
      </g>
    </g>
    <g id="Grupo_878298" data-name="Grupo 878298" transform="translate(-6276.507 -6269.726)" opacity="0.3">
      <g id="Grupo_878297" data-name="Grupo 878297">
        <g id="Grupo_878296" data-name="Grupo 878296" clip-path="url(#clip-path-5)">
          <path id="Trazado_600571" data-name="Trazado 600571" d="M511.765,358.043c16.177-30.619,21.2-70.878,20.241-109.227,0,0-4.643,46.613-6.208,54.614-1.554,7.945-14.033,54.613-14.033,54.613" transform="translate(-511.765 -248.816)"/>
        </g>
      </g>
    </g>
    <path id="Trazado_600572" data-name="Trazado 600572" d="M502.351,163.748a2.03,2.03,0,0,1-.363.277l-1.078.732-4,2.631-13.279,8.557L477.9,179.6l.012-.009L476.081,181a14.651,14.651,0,0,0-1.635,1.4c-1,.969-1.9,1.911-2.7,2.766l-.145.154-.083-.191-2.089-4.829-.55-1.322a2.3,2.3,0,0,1-.167-.473,2.462,2.462,0,0,1,.24.44l.617,1.292,2.2,4.779-.228-.037c.791-.87,1.674-1.825,2.675-2.812a14.884,14.884,0,0,1,1.656-1.439l1.814-1.423.007-.005.006,0,5.722-3.67,13.341-8.466,4.067-2.529,1.116-.672a2.078,2.078,0,0,1,.4-.212" transform="translate(-6776.388 -6495.059)" fill="#263238"/>
    <g id="Grupo_878322" data-name="Grupo 878322" transform="translate(-6646.918 -6402.802)">
      <path id="Trazado_600573" data-name="Trazado 600573" d="M39.829,111.115c-.086.049-3.164-5.29-6.873-11.923s-6.647-12.05-6.56-12.1,3.163,5.289,6.873,11.924,6.645,12.05,6.559,12.1" transform="translate(-17.011 -87.093)" fill="#263238"/>
      <path id="Trazado_600574" data-name="Trazado 600574" d="M58.917,88.471c.1.006-.047,4.094-.326,9.131s-.585,9.118-.683,9.112.046-4.093.325-9.131.585-9.117.684-9.111" transform="translate(-25.701 -87.473)" fill="#263238"/>
      <path id="Trazado_600575" data-name="Trazado 600575" d="M28.816,126.108c-.032.094-3.5-.994-7.749-2.43S13.4,121,13.433,120.909s3.5.994,7.749,2.43,7.665,2.676,7.633,2.77" transform="translate(-13.433 -96.426)" fill="#263238"/>
      <path id="Trazado_600576" data-name="Trazado 600576" d="M85.446,135.685a28.872,28.872,0,1,0-27.232,40.449l2.923,6.671,11.014-4.825,12.165-5.329s-1.5-3.806-2.913-7.171a28.864,28.864,0,0,0,4.043-29.8" transform="translate(-18.039 -95.732)" fill="#ef8b53"/>
      <path id="Trazado_600577" data-name="Trazado 600577" d="M89.18,183.669s-.066-.1-.187-.308l-.53-.914c-.462-.807-1.134-2-1.977-3.553-1.678-3.106-4.041-7.642-6.632-13.4q-.974-2.158-1.98-4.543l-1.01-2.435a9.057,9.057,0,0,1-.785-2.636,3.066,3.066,0,0,1,.206-1.416,1.867,1.867,0,0,1,1.006-1.056,1.747,1.747,0,0,1,1.47.164,2.735,2.735,0,0,1,1.048,1.078,3.367,3.367,0,0,1-.049,2.984,5.08,5.08,0,0,1-2.134,2.246,5.485,5.485,0,0,1-3.106.674,5.786,5.786,0,0,1-3.023-1.2,6.9,6.9,0,0,1-2.082-2.593,5.039,5.039,0,0,1-.475-1.638,2.389,2.389,0,0,1,.379-1.688,1.535,1.535,0,0,1,.735-.521,1.972,1.972,0,0,1,.894-.064,2.765,2.765,0,0,1,1.554.823,6.021,6.021,0,0,1,1.022,1.437,17.407,17.407,0,0,1,.741,1.6,11.957,11.957,0,0,1,.874,3.452,6.575,6.575,0,0,1-.6,3.549,5.245,5.245,0,0,1-1.08,1.475,4.087,4.087,0,0,1-1.57.924,3.784,3.784,0,0,1-1.81.063,4.864,4.864,0,0,1-1.653-.7,10.915,10.915,0,0,1-2.546-2.417c-.363-.452-.705-.919-1.032-1.391a10.05,10.05,0,0,1-.9-1.472,2.833,2.833,0,0,1-.282-1.706,1.843,1.843,0,0,1,.346-.812,1.242,1.242,0,0,1,.759-.463,1.485,1.485,0,0,1,.872.114,2.943,2.943,0,0,1,.725.456,5.751,5.751,0,0,1,1.088,1.265,9.663,9.663,0,0,1,1.782,6.1,6.178,6.178,0,0,1-1.045,2.924,4.629,4.629,0,0,1-2.387,1.837,4,4,0,0,1-2.909-.241,4.546,4.546,0,0,1-2.1-1.911,3.723,3.723,0,0,1-.452-1.329,2.1,2.1,0,0,1,.245-1.365,1.071,1.071,0,0,1,1.259-.437,2.531,2.531,0,0,1,1.069.8,10.541,10.541,0,0,1,1.285,2.2l1.084,2.167c2.817,5.651,5.012,10.264,6.472,13.48.731,1.607,1.275,2.865,1.64,3.72q.264.639.4.977c.09.221.13.336.13.336s-.054-.11-.151-.328-.239-.546-.424-.968c-.376-.849-.932-2.1-1.675-3.7-1.482-3.2-3.7-7.807-6.529-13.447l-1.09-2.164a10.362,10.362,0,0,0-1.269-2.159,2.368,2.368,0,0,0-1-.745.91.91,0,0,0-1.07.371,1.937,1.937,0,0,0-.216,1.253,3.576,3.576,0,0,0,.435,1.265,4.377,4.377,0,0,0,2.02,1.833,3.816,3.816,0,0,0,2.779.228,4.443,4.443,0,0,0,2.287-1.769,5.991,5.991,0,0,0,1.008-2.835,9.476,9.476,0,0,0-1.756-5.971,5.526,5.526,0,0,0-1.051-1.223,1.829,1.829,0,0,0-1.431-.526,1.255,1.255,0,0,0-.943,1.113,2.625,2.625,0,0,0,.267,1.585,9.819,9.819,0,0,0,.885,1.44c.325.469.664.932,1.024,1.379a10.709,10.709,0,0,0,2.5,2.37,4.652,4.652,0,0,0,1.583.667,3.56,3.56,0,0,0,1.708-.059,4.322,4.322,0,0,0,2.523-2.291,6.358,6.358,0,0,0,.578-3.439,11.738,11.738,0,0,0-.859-3.391,9.294,9.294,0,0,0-1.715-2.968,2.558,2.558,0,0,0-1.439-.767,1.479,1.479,0,0,0-1.437.506,2.188,2.188,0,0,0-.338,1.544,4.861,4.861,0,0,0,.455,1.573,6.722,6.722,0,0,0,2.02,2.519,5.593,5.593,0,0,0,2.918,1.166,5.3,5.3,0,0,0,3-.646,4.888,4.888,0,0,0,2.057-2.158,3.185,3.185,0,0,0,.059-2.818,2.559,2.559,0,0,0-.975-1.007,1.569,1.569,0,0,0-1.317-.155,1.685,1.685,0,0,0-.907.957,2.874,2.874,0,0,0-.2,1.335,8.916,8.916,0,0,0,.767,2.586l1,2.435q1,2.384,1.967,4.546c2.571,5.763,4.912,10.307,6.568,13.424.832,1.557,1.492,2.758,1.942,3.571l.512.925c.114.208.168.319.168.319" transform="translate(-26.378 -105.236)" fill="#fff"/>
      <path id="Trazado_600578" data-name="Trazado 600578" d="M61.758,188.432a2.265,2.265,0,0,1-.354.033c-.232.009-.576.044-1.019.042a25.381,25.381,0,0,1-3.743-.222,27.177,27.177,0,0,1-11.507-4.32,27.249,27.249,0,0,1-5.125-4.485,26.915,26.915,0,0,1-3.248-4.515,25.339,25.339,0,0,1-1.629-3.377c-.17-.409-.269-.739-.348-.958a2.311,2.311,0,0,1-.1-.34,2.207,2.207,0,0,1,.144.326c.093.214.2.539.384.941a28.19,28.19,0,0,0,1.681,3.335,27.369,27.369,0,0,0,19.772,13.247,28.131,28.131,0,0,0,3.723.287c.442.014.784-.007,1.017,0a2.281,2.281,0,0,1,.355.009" transform="translate(-19.298 -110.058)" fill="#263238"/>
      <path id="Trazado_600579" data-name="Trazado 600579" d="M33.173,162.646a10.749,10.749,0,0,1,.508,2.944,10.75,10.75,0,0,1-.508-2.944" transform="translate(-18.877 -107.948)" fill="#263238"/>
      <path id="Trazado_600580" data-name="Trazado 600580" d="M98.975,144.371a1.746,1.746,0,0,1-.08-.3l-.188-.858q-.06-.282-.13-.62c-.055-.224-.132-.465-.2-.725-.156-.518-.3-1.119-.549-1.752l-.366-1c-.13-.348-.3-.694-.462-1.061-.3-.741-.725-1.486-1.145-2.281a27.748,27.748,0,0,0-7.707-8.688c-.738-.513-1.428-1.019-2.128-1.409-.345-.2-.669-.415-1-.586l-.953-.482c-.6-.327-1.179-.538-1.674-.754-.25-.1-.479-.209-.7-.29l-.6-.2-.83-.289a1.637,1.637,0,0,1-.285-.114,1.73,1.73,0,0,1,.3.075l.843.252.609.187c.219.076.452.176.705.274a18.023,18.023,0,0,1,1.7.729l.964.474c.334.167.661.379,1.011.578.709.386,1.406.891,2.153,1.4a27.235,27.235,0,0,1,7.761,8.749c.419.8.837,1.555,1.136,2.3.156.371.327.721.453,1.073s.242.69.355,1.014a18.019,18.019,0,0,1,.522,1.771c.067.263.139.505.188.733s.078.437.113.627l.15.867a1.633,1.633,0,0,1,.038.3" transform="translate(-31.802 -96.993)" fill="#263238"/>
      <g id="Grupo_878303" data-name="Grupo 878303" transform="translate(16.111 31.951)" opacity="0.2">
        <g id="Grupo_878302" data-name="Grupo 878302">
          <g id="Grupo_878301" data-name="Grupo 878301" clip-path="url(#clip-path-6)">
            <path id="Trazado_600581" data-name="Trazado 600581" d="M51.185,132.268a5.14,5.14,0,0,0-4.179-.978,9.087,9.087,0,0,0-5.952,3.444c-4.352,5.478-5.986,10.5-5.161,17.77.279,2.464,1.517,6.193,3.513,7.853a4.692,4.692,0,0,0,3.584,1.121c3.366-.442,4.464-4.383,4.174-7.56-.271-2.961-1.239-6.014-.285-8.83.786-2.32,2.736-4.022,4.088-6.064s1.983-5.057.219-6.755" transform="translate(-35.686 -131.226)" fill="#fff"/>
          </g>
        </g>
      </g>
      <g id="Grupo_878306" data-name="Grupo 878306" transform="translate(35.01 26.532)" opacity="0.2">
        <g id="Grupo_878305" data-name="Grupo 878305">
          <g id="Grupo_878304" data-name="Grupo 878304" clip-path="url(#clip-path-7)">
            <path id="Trazado_600582" data-name="Trazado 600582" d="M68.543,124.523a4.585,4.585,0,0,0-5.616.378,4.7,4.7,0,0,0-1.039,3.975,4.312,4.312,0,0,0,3.521,3.285,4.071,4.071,0,0,0,4.173-2.326c.678-1.57.336-4.3-1.04-5.312" transform="translate(-61.791 -123.74)" fill="#fff"/>
          </g>
        </g>
      </g>
      <path id="Trazado_600583" data-name="Trazado 600583" d="M90.025,220.3a7.879,7.879,0,0,1,2.1.678,1.7,1.7,0,0,0,1.488.046l4.662-2.047a1.717,1.717,0,0,0,1-1.263,3.184,3.184,0,0,1,1.049-1.939Z" transform="translate(-34.575 -122.613)" fill="#263238"/>
      <path id="Trazado_600584" data-name="Trazado 600584" d="M75.179,203.792c.041.094,4.32,6.9,5.957,9.506a3.747,3.747,0,0,0,3.086,1.793,3.457,3.457,0,0,0,1.455-.292l10.2-4.478s2.665-1.17,2.341-3.55c-.341-2.5-2.979-11.785-2.979-11.785Z" transform="translate(-30.477 -116.875)" fill="#e0e0e0"/>
      <path id="Trazado_600585" data-name="Trazado 600585" d="M100.236,209.1,82.5,216.961a.552.552,0,0,1-.728-.281l-.024-.056a.551.551,0,0,1,.281-.728l17.739-7.862a.552.552,0,0,1,.728.281l.025.055a.552.552,0,0,1-.281.728" transform="translate(-32.276 -120.464)" fill="#e0e0e0"/>
      <path id="Trazado_600586" data-name="Trazado 600586" d="M100.2,209.085a.619.619,0,0,0,.272-.311.561.561,0,0,0-.053-.484.52.52,0,0,0-.563-.271c-.97.411-2.389,1.074-4.138,1.851l-13.691,6.1a.459.459,0,0,0-.248.567.677.677,0,0,0,.111.206.46.46,0,0,0,.4.156,2.674,2.674,0,0,0,.471-.187l1.925-.851,3.641-1.608L94.5,211.54l4.165-1.814,1.136-.484.3-.122a.5.5,0,0,1,.1-.035.46.46,0,0,1-.1.053l-.29.139-1.122.517-4.141,1.868L88.4,214.41l-3.636,1.617-1.924.854-.245.109a.939.939,0,0,1-.279.093.649.649,0,0,1-.567-.219.866.866,0,0,1-.146-.269.644.644,0,0,1,.35-.8l13.713-6.047c1.763-.764,3.167-1.4,4.179-1.8a.583.583,0,0,1,.626.319.6.6,0,0,1,.038.522.486.486,0,0,1-.308.3" transform="translate(-32.241 -120.45)" fill="#263238"/>
      <path id="Trazado_600587" data-name="Trazado 600587" d="M99.079,205.7l-18.491,8.2a.552.552,0,0,1-.728-.281l-.025-.055a.552.552,0,0,1,.281-.728l18.491-8.2a.552.552,0,0,1,.728.281l.025.055a.552.552,0,0,1-.281.728" transform="translate(-31.749 -119.526)" fill="#e0e0e0"/>
      <path id="Trazado_600588" data-name="Trazado 600588" d="M99.043,205.688a.61.61,0,0,0,.278-.326.582.582,0,0,0-.075-.5.524.524,0,0,0-.605-.226l-4.3,1.934L80.119,212.9a.458.458,0,0,0-.269.362.444.444,0,0,0,.03.229.556.556,0,0,0,.126.208.458.458,0,0,0,.429.12c.145-.047.334-.143.5-.211l2-.885,3.782-1.67,6.407-2.818,4.326-1.884,1.179-.5.309-.127a.509.509,0,0,1,.108-.037.5.5,0,0,1-.1.055l-.3.143-1.166.536-4.3,1.939-6.39,2.855-3.777,1.68-2,.887c-.177.074-.319.154-.528.223a.647.647,0,0,1-.605-.169.747.747,0,0,1-.167-.27.635.635,0,0,1-.043-.324.647.647,0,0,1,.379-.51l14.245-6.283c1.827-.8,3.3-1.445,4.331-1.882a.586.586,0,0,1,.675.268.623.623,0,0,1,.062.541.487.487,0,0,1-.313.313" transform="translate(-31.713 -119.513)" fill="#263238"/>
      <path id="Trazado_600589" data-name="Trazado 600589" d="M97.836,202.386l-18.97,8.407a.552.552,0,0,1-.728-.281l-.025-.055a.553.553,0,0,1,.282-.728l18.969-8.407a.552.552,0,0,1,.728.281l.025.055a.552.552,0,0,1-.281.728" transform="translate(-31.274 -118.61)" fill="#e0e0e0"/>
      <path id="Trazado_600590" data-name="Trazado 600590" d="M97.8,202.373a.6.6,0,0,0,.281-.335.59.59,0,0,0-.09-.509.519.519,0,0,0-.628-.194l-4.4,1.983L78.4,209.8a.458.458,0,0,0-.271.373.47.47,0,0,0,.038.235.526.526,0,0,0,.135.206.461.461,0,0,0,.445.1c.158-.064.344-.151.513-.224l2.047-.906,3.871-1.709,6.56-2.886,4.429-1.93,1.208-.516.316-.13a.549.549,0,0,1,.11-.038.535.535,0,0,1-.1.056l-.308.147-1.194.549-4.4,1.984-6.544,2.922-3.867,1.72-2.046.909c-.178.077-.337.153-.532.232a.649.649,0,0,1-.628-.135.713.713,0,0,1-.182-.27.646.646,0,0,1,.328-.856L92.9,203.2l4.431-1.929a.582.582,0,0,1,.7.232.631.631,0,0,1,.079.551.488.488,0,0,1-.317.324" transform="translate(-31.238 -118.597)" fill="#263238"/>
      <path id="Trazado_600591" data-name="Trazado 600591" d="M96.684,198.982l-19.74,8.748a.551.551,0,0,1-.728-.281l-.025-.055a.552.552,0,0,1,.281-.728l19.739-8.748a.552.552,0,0,1,.728.281l.025.055a.552.552,0,0,1-.281.728" transform="translate(-30.743 -117.671)" fill="#e0e0e0"/>
      <path id="Trazado_600592" data-name="Trazado 600592" d="M96.648,198.969a.6.6,0,0,0,.286-.351.607.607,0,0,0-.115-.523.527.527,0,0,0-.668-.14l-4.57,2.058-15.1,6.725a.462.462,0,0,0-.272.391.571.571,0,0,0,.2.447.463.463,0,0,0,.469.054l.541-.24,2.124-.94,4.015-1.774,6.8-2.994,4.594-2,1.252-.536.328-.135a.614.614,0,0,1,.114-.04.587.587,0,0,1-.106.058l-.32.152-1.239.568-4.57,2.057-6.788,3.031-4.011,1.784-2.123.943-.541.24a.652.652,0,0,1-.66-.076.667.667,0,0,1-.207-.273.677.677,0,0,1-.068-.334.651.651,0,0,1,.384-.552l15.127-6.674,4.594-2a.59.59,0,0,1,.743.173.645.645,0,0,1,.107.567.553.553,0,0,1-.213.287.376.376,0,0,1-.11.053" transform="translate(-30.707 -117.658)" fill="#263238"/>
      <path id="Trazado_600593" data-name="Trazado 600593" d="M67.816,195.753c.083.189,2.461,4.465,3.684,6.66a3.013,3.013,0,0,0,2.151,1.508l1.336.216,19.719-8.656.734-1.114a3.015,3.015,0,0,0,.336-2.634l-2.452-7.177Z" transform="translate(-28.444 -113.996)" fill="#ef8b53"/>
      <g id="Grupo_878309" data-name="Grupo 878309" transform="translate(50.862 88.889)" opacity="0.3">
        <g id="Grupo_878308" data-name="Grupo 878308">
          <g id="Grupo_878307" data-name="Grupo 878307" clip-path="url(#clip-path-8)">
            <path id="Trazado_600594" data-name="Trazado 600594" d="M83.687,217.146a28.061,28.061,0,0,0,6.078-2.123c1.68-.746,3.351-1.425,5.162-2.265,1.327-.615,2.53-1.223,3.839-1.868a4.015,4.015,0,0,0,1.4-1.017Z" transform="translate(-83.687 -209.873)"/>
          </g>
        </g>
      </g>
      <g id="Grupo_878312" data-name="Grupo 878312" transform="translate(49.147 86.33)" opacity="0.3">
        <g id="Grupo_878311" data-name="Grupo 878311">
          <g id="Grupo_878310" data-name="Grupo 878310" clip-path="url(#clip-path-9)">
            <path id="Trazado_600595" data-name="Trazado 600595" d="M81.32,214.177a32.565,32.565,0,0,0,6.537-2.325c1.811-.8,3.611-1.539,5.564-2.441,1.431-.662,2.73-1.313,4.143-2a4.62,4.62,0,0,0,1.526-1.07Z" transform="translate(-81.32 -206.338)"/>
          </g>
        </g>
      </g>
      <g id="Grupo_878315" data-name="Grupo 878315" transform="translate(48.148 84.053)" opacity="0.3">
        <g id="Grupo_878314" data-name="Grupo 878314">
          <g id="Grupo_878313" data-name="Grupo 878313" clip-path="url(#clip-path-9)">
            <path id="Trazado_600596" data-name="Trazado 600596" d="M79.939,211.031a32.6,32.6,0,0,0,6.537-2.325c1.811-.8,3.611-1.539,5.564-2.442,1.431-.661,2.73-1.312,4.144-2a4.593,4.593,0,0,0,1.525-1.071Z" transform="translate(-79.939 -203.193)"/>
          </g>
        </g>
      </g>
      <g id="Grupo_878318" data-name="Grupo 878318" transform="translate(47.148 81.776)" opacity="0.3">
        <g id="Grupo_878317" data-name="Grupo 878317">
          <g id="Grupo_878316" data-name="Grupo 878316" clip-path="url(#clip-path-11)">
            <path id="Trazado_600597" data-name="Trazado 600597" d="M78.558,207.885a32.593,32.593,0,0,0,6.537-2.325c1.811-.8,3.611-1.539,5.564-2.442,1.431-.661,2.73-1.312,4.144-2a4.593,4.593,0,0,0,1.525-1.071Z" transform="translate(-78.558 -200.048)"/>
          </g>
        </g>
      </g>
      <path id="Trazado_600599" data-name="Trazado 600599" d="M97.363,196.072c.021.048-5.236,2.4-11.741,5.257s-11.8,5.133-11.818,5.085,5.235-2.4,11.742-5.257,11.8-5.133,11.817-5.085" transform="translate(-30.098 -117.174)" fill="#263238"/>
      <path id="Trazado_600600" data-name="Trazado 600600" d="M93.037,184.459c.025.052-5.674,2.632-12.727,5.761s-12.794,5.626-12.819,5.574,5.673-2.631,12.728-5.761,12.792-5.625,12.818-5.573" transform="translate(-28.355 -113.969)" fill="#263238"/>
    </g>
    <path id="Trazado_600601" data-name="Trazado 600601" d="M400.547,98.331,391.5,97.276a29.077,29.077,0,1,1,5.862-8.612l.01-.013Z" transform="translate(-6741.357 -6463.068)" fill="#fff"/>
    <path id="Trazado_600602" data-name="Trazado 600602" d="M400.484,98.265s-.082-.221-.224-.64-.355-1.046-.629-1.855l-2.4-7.158.156.028-.01.013a.091.091,0,0,1-.127.014.092.092,0,0,1-.026-.108,29.026,29.026,0,0,0,2.35-14.107,28.493,28.493,0,0,0-.723-4.418A32.594,32.594,0,0,0,397.3,65.5a28.83,28.83,0,0,0-55.091,7.573,29.372,29.372,0,0,0,1.334,13.2,28.406,28.406,0,0,0,6.566,10.632,28.938,28.938,0,0,0,19.842,8.75l1.238.016a7.829,7.829,0,0,0,1.217-.038l2.369-.209a40.068,40.068,0,0,0,4.4-.966,28.923,28.923,0,0,0,12.2-7.314.089.089,0,0,1,.072-.025l6.692.835,1.74.222c.393.051.6.084.6.084s-.185-.013-.569-.053L398.2,98.03l-6.766-.736.071-.025a28.915,28.915,0,0,1-12.245,7.45,40.146,40.146,0,0,1-4.436.995l-2.392.222a7.894,7.894,0,0,1-1.229.043l-1.252-.011a29.218,29.218,0,0,1-20.1-8.8,28.727,28.727,0,0,1-6.671-10.762,29.723,29.723,0,0,1-1.365-13.383,29.049,29.049,0,0,1,5.144-13.11,12.975,12.975,0,0,1,1.072-1.406l1.122-1.359,1.239-1.242a12.068,12.068,0,0,1,1.28-1.184l1.341-1.105c.436-.38.945-.66,1.412-.993.482-.313.942-.658,1.439-.94l1.507-.809a28.8,28.8,0,0,1,12.775-3.259,29.309,29.309,0,0,1,21.678,8.992,29.012,29.012,0,0,1,5.772,8.773,32.849,32.849,0,0,1,1.541,4.584,28.589,28.589,0,0,1,.709,4.464,29.028,29.028,0,0,1-2.456,14.2l-.154-.094.01-.012a.09.09,0,0,1,.127-.014.094.094,0,0,1,.03.043l2.318,7.255c.253.8.447,1.415.583,1.843.129.41.185.611.185.611" transform="translate(-6741.293 -6463.002)" fill="#263238"/>
    <path id="Trazado_600603" data-name="Trazado 600603" d="M363.438,84.884l3.474-3.842,7.371,5.916,10.946-12.572,3.581,3.487L374.115,94.039Z" transform="translate(-6747.329 -6470.393)" fill="#263238"/>
    <path id="Trazado_600604" data-name="Trazado 600604" d="M312.142,104.714,317.88,104a.075.075,0,0,1,.061.022,24.809,24.809,0,0,0,10.461,6.272,34.38,34.38,0,0,0,3.773.828l2.031.179a6.672,6.672,0,0,0,1.043.033l1.062-.014a24.723,24.723,0,0,0,11.046-2.988c-.226-.088-.452-.169-.676-.263a28.8,28.8,0,0,1-9.511-6.446,28.157,28.157,0,0,1-6.538-10.55,29.138,29.138,0,0,1-1.339-13.117,28.473,28.473,0,0,1,5.042-12.85,12.8,12.8,0,0,1,1.05-1.378l1.1-1.331.473-.474c-.271-.013-.542-.032-.813-.035a24.728,24.728,0,0,0-23.281,15,27.971,27.971,0,0,0-1.323,3.885,24.416,24.416,0,0,0-.619,3.789,24.884,24.884,0,0,0,2.015,12.1.081.081,0,0,1-.022.092l-2.047,6.091c-.235.693-.414,1.221-.539,1.591s-.193.548-.193.548.18-.028.517-.072l1.491-.19" transform="translate(-6732.616 -6466.941)" fill="#f5f5f5"/>
    <path id="Trazado_600605" data-name="Trazado 600605" d="M312.119,104.645s-.168.036-.5.086l-1.5.218-.068.01.022-.067,2.728-8.245.03-.043c-.014-.007,0,.047-.016,0l-.05-.118-.1-.237c-.066-.16-.132-.322-.2-.485-.133-.326-.255-.666-.379-1.011-.244-.693-.461-1.425-.656-2.191a24.556,24.556,0,0,1-.726-5,23.682,23.682,0,0,1,1.179-8.594A21.127,21.127,0,0,1,313.04,76,24.754,24.754,0,0,1,322.1,65.616a25.008,25.008,0,0,1,14.847-3.949l.412.023-.29.292-.473.474.012-.012a29.246,29.246,0,0,0-6.873,13.7A28.4,28.4,0,0,0,347.39,108.11l.353.135-.334.159a30.755,30.755,0,0,1-3.914,1.7,25.379,25.379,0,0,1-3.937.973,26.256,26.256,0,0,1-7.418.1h-.015c-.834-.169-1.657-.307-2.454-.486a20.987,20.987,0,0,1-2.288-.67,25.262,25.262,0,0,1-3.968-1.787,24.788,24.788,0,0,1-5.517-4.206c-.01-.069-.162,0-.271,0l-.339.041-.648.076-1.171.138-1.835.211-1.129.122c-.255.025-.386.029-.386.029s.128-.029.381-.067l1.124-.159,1.832-.247,1.17-.154.646-.085.338-.044.173-.022a.405.405,0,0,1,.109-.007.146.146,0,0,1,.076.04l.033.032a24.91,24.91,0,0,0,14.176,6.99h-.015a31.061,31.061,0,0,0,3.568.2,24.247,24.247,0,0,0,3.779-.329,25.136,25.136,0,0,0,3.886-.974,30.59,30.59,0,0,0,3.859-1.694l.019.293A28.7,28.7,0,0,1,329.359,76.07a29.566,29.566,0,0,1,6.959-13.862l.009-.011,0,0,.473-.474.122.314a24.619,24.619,0,0,0-23.608,14.091,20.841,20.841,0,0,0-1.156,2.922,23.456,23.456,0,0,0-1.205,8.5,24.392,24.392,0,0,0,.689,4.958q.281,1.141.635,2.177c.121.344.239.681.368,1.006l.193.483.1.236.049.117c.024.021.047.177-.038.227l.03-.043c-1.279,3.748-2.231,6.558-2.829,8.215l-.046-.057,1.506-.177c.337-.036.509-.043.509-.043" transform="translate(-6732.592 -6466.872)" fill="#263238"/>
    <g id="Grupo_878323" data-name="Grupo 878323" transform="translate(-6244.463 -6439.583)">
      <path id="Trazado_600606" data-name="Trazado 600606" d="M644.29,105.853h-9.008a3.222,3.222,0,0,1-3.222-3.222V53.392a3.222,3.222,0,0,1,3.222-3.222h9.008a3.221,3.221,0,0,1,3.222,3.222v49.24a3.221,3.221,0,0,1-3.222,3.222" transform="translate(-580.349 -30.993)" fill="#ef8b53"/>
      <path id="Trazado_600607" data-name="Trazado 600607" d="M577.318,120.711h-8.785a3.333,3.333,0,0,1-3.332-3.332V98.765a3.333,3.333,0,0,1,3.332-3.333h8.785a3.333,3.333,0,0,1,3.333,3.333v18.613a3.333,3.333,0,0,1-3.333,3.332" transform="translate(-561.893 -43.487)" fill="#ef8b53"/>
      <path id="Trazado_600608" data-name="Trazado 600608" d="M610.069,115.47H601.74a3.561,3.561,0,0,1-3.561-3.561v-31.9a3.561,3.561,0,0,1,3.561-3.56h8.329a3.561,3.561,0,0,1,3.561,3.56v31.9a3.561,3.561,0,0,1-3.561,3.561" transform="translate(-570.996 -38.246)" fill="#ef8b53"/>
      <path id="Trazado_600609" data-name="Trazado 600609" d="M622.082,24.754a2.746,2.746,0,0,1-.371.491c-.3.35-.675.8-1.147,1.354l-4.36,5-15.152,17.08-.169.19-.214-.14-9.481-6.192.4-.059-.361.427c-7.811,9.162-14.88,17.456-20.05,23.519l-.133.156-.161-.121c-3.143-2.334-5.7-4.235-7.539-5.6l-2.031-1.546a4.927,4.927,0,0,1-.683-.573,4.816,4.816,0,0,1,.757.473l2.1,1.453,7.654,5.439-.294.036L590.76,42.5l.362-.426.176-.208.227.15,9.468,6.212-.383.051,15.315-16.935,4.489-4.883c.5-.528.9-.955,1.22-1.289a2.854,2.854,0,0,1,.447-.422" transform="translate(-560.631 -23.977)" fill="#263238"/>
      <path id="Trazado_600610" data-name="Trazado 600610" d="M641.376,36.214a20.589,20.589,0,0,1-.215-3.553c-.056-2.2-.09-5.242-.093-8.618l.358.3-.307.051c-3.4.561-6.487,1.035-8.725,1.348a21.5,21.5,0,0,1-3.642.381,21.55,21.55,0,0,1,3.571-.81c2.22-.423,5.294-.965,8.695-1.526l.307-.051.358-.059v.362c0,3.377-.037,6.419-.093,8.618a20.757,20.757,0,0,1-.215,3.553" transform="translate(-579.435 -23.681)" fill="#263238"/>
    </g>
  </g>
</svg>
