<svg xmlns="http://www.w3.org/2000/svg" width="498.758" height="437.954" viewBox="0 0 498.758 437.954">
  <g id="Grupo_951866" data-name="Grupo 951866" transform="translate(-291.242 -606)">
    <g id="Grupo_951865" data-name="Grupo 951865">
      <g id="Trazado_628497" data-name="Trazado 628497" transform="translate(410 672)" fill="#ffecc6">
        <path d="M 160 56 L 11 56 C 5.485978126525879 56 1 51.51402282714844 1 46 L 1 11 C 1 5.485978126525879 5.485978126525879 1 11 1 L 160 1 C 165.5140228271484 1 170 5.485978126525879 170 11 L 170 46 C 170 51.51402282714844 165.5140228271484 56 160 56 Z" stroke="none"/>
        <path d="M 11 2 C 6.037384033203125 2 2 6.037387847900391 2 11 L 2 46 C 2 50.96261215209961 6.037384033203125 55 11 55 L 160 55 C 164.9626159667969 55 169 50.96261215209961 169 46 L 169 11 C 169 6.037387847900391 164.9626159667969 2 160 2 L 11 2 M 11 0 L 160 0 C 166.0751342773438 0 171 4.924861907958984 171 11 L 171 46 C 171 52.07513427734375 166.0751342773438 57 160 57 L 11 57 C 4.92486572265625 57 0 52.07513427734375 0 46 L 0 11 C 0 4.924861907958984 4.92486572265625 0 11 0 Z" stroke="none" fill="#e9be64"/>
      </g>
      <g id="Trazado_628498" data-name="Trazado 628498" transform="translate(410 740)" fill="#ffecc6">
        <path d="M 160 55 L 11 55 C 5.485978126525879 55 1 50.51402282714844 1 45 L 1 11 C 1 5.485978126525879 5.485978126525879 1 11 1 L 160 1 C 165.5140228271484 1 170 5.485978126525879 170 11 L 170 45 C 170 50.51402282714844 165.5140228271484 55 160 55 Z" stroke="none"/>
        <path d="M 11 2 C 6.037384033203125 2 2 6.037387847900391 2 11 L 2 45 C 2 49.96261215209961 6.037384033203125 54 11 54 L 160 54 C 164.9626159667969 54 169 49.96261215209961 169 45 L 169 11 C 169 6.037387847900391 164.9626159667969 2 160 2 L 11 2 M 11 0 L 160 0 C 166.0751342773438 0 171 4.924861907958984 171 11 L 171 45 C 171 51.07513427734375 166.0751342773438 56 160 56 L 11 56 C 4.92486572265625 56 0 51.07513427734375 0 45 L 0 11 C 0 4.924861907958984 4.92486572265625 0 11 0 Z" stroke="none" fill="#e9be64"/>
      </g>
      <g id="Trazado_628499" data-name="Trazado 628499" transform="translate(410 808)" fill="#ffecc6">
        <path d="M 160 56 L 11 56 C 5.485978126525879 56 1 51.51402282714844 1 46 L 1 11 C 1 5.485978126525879 5.485978126525879 1 11 1 L 160 1 C 165.5140228271484 1 170 5.485978126525879 170 11 L 170 46 C 170 51.51402282714844 165.5140228271484 56 160 56 Z" stroke="none"/>
        <path d="M 11 2 C 6.037384033203125 2 2 6.037387847900391 2 11 L 2 46 C 2 50.96261215209961 6.037384033203125 55 11 55 L 160 55 C 164.9626159667969 55 169 50.96261215209961 169 46 L 169 11 C 169 6.037387847900391 164.9626159667969 2 160 2 L 11 2 M 11 0 L 160 0 C 166.0751342773438 0 171 4.924861907958984 171 11 L 171 46 C 171 52.07513427734375 166.0751342773438 57 160 57 L 11 57 C 4.92486572265625 57 0 52.07513427734375 0 46 L 0 11 C 0 4.924861907958984 4.92486572265625 0 11 0 Z" stroke="none" fill="#e9be64"/>
      </g>
      <g id="Trazado_628500" data-name="Trazado 628500" transform="translate(410 606)" fill="#ffdd96">
        <path d="M 160 56 L 11 56 C 5.485978126525879 56 1 51.51402282714844 1 46 L 1 11 C 1 5.485978126525879 5.485978126525879 1 11 1 L 160 1 C 165.5140228271484 1 170 5.485978126525879 170 11 L 170 46 C 170 51.51402282714844 165.5140228271484 56 160 56 Z" stroke="none"/>
        <path d="M 11 2 C 6.037384033203125 2 2 6.037387847900391 2 11 L 2 46 C 2 50.96261215209961 6.037384033203125 55 11 55 L 160 55 C 164.9626159667969 55 169 50.96261215209961 169 46 L 169 11 C 169 6.037387847900391 164.9626159667969 2 160 2 L 11 2 M 11 0 L 160 0 C 166.0751342773438 0 171 4.924861907958984 171 11 L 171 46 C 171 52.07513427734375 166.0751342773438 57 160 57 L 11 57 C 4.92486572265625 57 0 52.07513427734375 0 46 L 0 11 C 0 4.924861907958984 4.92486572265625 0 11 0 Z" stroke="none" fill="#e9be64"/>
      </g>
      <path id="Trazado_628501" data-name="Trazado 628501" d="M9.066,12.992V17H6.723V5.625H11.16a5.134,5.134,0,0,1,2.254.469,3.454,3.454,0,0,1,1.5,1.332,3.714,3.714,0,0,1,.523,1.965,3.266,3.266,0,0,1-1.145,2.637,4.767,4.767,0,0,1-3.168.965Zm0-1.9H11.16a2.059,2.059,0,0,0,1.418-.437,1.591,1.591,0,0,0,.488-1.25,1.876,1.876,0,0,0-.492-1.352,1.839,1.839,0,0,0-1.359-.531H9.066ZM21.707,17a2.507,2.507,0,0,1-.227-.758,2.732,2.732,0,0,1-2.133.914,3,3,0,0,1-2.059-.719,2.312,2.312,0,0,1-.816-1.812,2.389,2.389,0,0,1,1-2.062,4.915,4.915,0,0,1,2.879-.727h1.039v-.484a1.393,1.393,0,0,0-.3-.937,1.183,1.183,0,0,0-.949-.352,1.345,1.345,0,0,0-.895.273.929.929,0,0,0-.324.75H16.66a2.268,2.268,0,0,1,.453-1.359,3,3,0,0,1,1.281-.98,4.669,4.669,0,0,1,1.859-.355,3.689,3.689,0,0,1,2.48.785,2.747,2.747,0,0,1,.918,2.207v3.664a4.041,4.041,0,0,0,.336,1.82V17ZM19.84,15.43a1.945,1.945,0,0,0,.922-.223,1.462,1.462,0,0,0,.625-.6V13.156h-.844q-1.7,0-1.8,1.172l-.008.133a.9.9,0,0,0,.3.7A1.153,1.153,0,0,0,19.84,15.43Zm10.3-4.766a6.134,6.134,0,0,0-.812-.062,1.654,1.654,0,0,0-1.68.867V17H25.387V8.547H27.52l.063,1.008a2.092,2.092,0,0,1,1.883-1.164,2.366,2.366,0,0,1,.7.1Zm4.18-4.2V8.547h1.445V10.2H34.316v4.219a1.007,1.007,0,0,0,.18.672.9.9,0,0,0,.688.2,3.6,3.6,0,0,0,.664-.055v1.711a4.648,4.648,0,0,1-1.367.2,2.156,2.156,0,0,1-2.422-2.4V10.2H30.824V8.547h1.234V6.469ZM40.91,17.156a4.15,4.15,0,0,1-3.027-1.141,4.054,4.054,0,0,1-1.168-3.039v-.219a5.106,5.106,0,0,1,.492-2.277A3.612,3.612,0,0,1,38.6,8.934a3.914,3.914,0,0,1,2.059-.543,3.508,3.508,0,0,1,2.73,1.094,4.444,4.444,0,0,1,1,3.1v.922H39a2.1,2.1,0,0,0,.66,1.328,2,2,0,0,0,1.395.5,2.437,2.437,0,0,0,2.039-.945l1.109,1.242a3.389,3.389,0,0,1-1.375,1.121A4.511,4.511,0,0,1,40.91,17.156Zm-.258-6.937a1.414,1.414,0,0,0-1.09.453,2.341,2.341,0,0,0-.535,1.3h3.141v-.18a1.669,1.669,0,0,0-.406-1.16A1.459,1.459,0,0,0,40.652,10.219Zm9.594,4.445a.727.727,0,0,0-.41-.652,4.659,4.659,0,0,0-1.316-.426Q45.5,12.953,45.5,11.023a2.323,2.323,0,0,1,.934-1.879,3.766,3.766,0,0,1,2.441-.754,4.053,4.053,0,0,1,2.574.758,2.388,2.388,0,0,1,.965,1.969H50.16a1.092,1.092,0,0,0-.312-.8A1.322,1.322,0,0,0,48.871,10a1.351,1.351,0,0,0-.883.258.814.814,0,0,0-.312.656.7.7,0,0,0,.355.605,3.657,3.657,0,0,0,1.2.4,9.8,9.8,0,0,1,1.422.379,2.336,2.336,0,0,1,1.789,2.273,2.2,2.2,0,0,1-.992,1.871,4.28,4.28,0,0,1-2.562.715A4.47,4.47,0,0,1,47,16.777a3.166,3.166,0,0,1-1.293-1.039,2.414,2.414,0,0,1-.469-1.426h2.141a1.179,1.179,0,0,0,.445.922,1.766,1.766,0,0,0,1.109.32,1.635,1.635,0,0,0,.98-.246A.766.766,0,0,0,50.246,14.664ZM60.52,17H58.176V5.625H60.52Zm4.1-8.453.07.977a2.951,2.951,0,0,1,2.43-1.133,2.453,2.453,0,0,1,2,.789,3.682,3.682,0,0,1,.672,2.359V17H67.535V11.594a1.465,1.465,0,0,0-.312-1.043,1.4,1.4,0,0,0-1.039-.324,1.553,1.553,0,0,0-1.43.813V17H62.5V8.547Zm9.586-2.078V8.547h1.445V10.2H74.207v4.219a1.007,1.007,0,0,0,.18.672.9.9,0,0,0,.688.2,3.6,3.6,0,0,0,.664-.055v1.711a4.648,4.648,0,0,1-1.367.2,2.156,2.156,0,0,1-2.422-2.4V10.2H70.715V8.547h1.234V6.469ZM80.8,17.156a4.15,4.15,0,0,1-3.027-1.141,4.054,4.054,0,0,1-1.168-3.039v-.219A5.106,5.106,0,0,1,77.1,10.48a3.612,3.612,0,0,1,1.395-1.547,3.914,3.914,0,0,1,2.059-.543,3.508,3.508,0,0,1,2.73,1.094,4.444,4.444,0,0,1,1,3.1v.922H78.895a2.1,2.1,0,0,0,.66,1.328,2,2,0,0,0,1.395.5,2.437,2.437,0,0,0,2.039-.945L84.1,15.633a3.389,3.389,0,0,1-1.375,1.121A4.511,4.511,0,0,1,80.8,17.156Zm-.258-6.937a1.414,1.414,0,0,0-1.09.453,2.341,2.341,0,0,0-.535,1.3h3.141v-.18a1.669,1.669,0,0,0-.406-1.16A1.459,1.459,0,0,0,80.543,10.219Zm9.766.445A6.134,6.134,0,0,0,89.5,10.6a1.654,1.654,0,0,0-1.68.867V17H85.559V8.547h2.133l.063,1.008a2.092,2.092,0,0,1,1.883-1.164,2.366,2.366,0,0,1,.7.1Zm3.164-2.117.07.977a2.951,2.951,0,0,1,2.43-1.133,2.453,2.453,0,0,1,2,.789,3.682,3.682,0,0,1,.672,2.359V17H96.387V11.594a1.465,1.465,0,0,0-.312-1.043,1.4,1.4,0,0,0-1.039-.324,1.553,1.553,0,0,0-1.43.813V17H91.348V8.547ZM105.254,17a2.507,2.507,0,0,1-.227-.758,2.732,2.732,0,0,1-2.133.914,3,3,0,0,1-2.059-.719,2.312,2.312,0,0,1-.816-1.812,2.389,2.389,0,0,1,1-2.062,4.915,4.915,0,0,1,2.879-.727h1.039v-.484a1.393,1.393,0,0,0-.3-.937,1.183,1.183,0,0,0-.949-.352,1.345,1.345,0,0,0-.895.273.929.929,0,0,0-.324.75h-2.258a2.268,2.268,0,0,1,.453-1.359,3,3,0,0,1,1.281-.98,4.669,4.669,0,0,1,1.859-.355,3.689,3.689,0,0,1,2.48.785,2.747,2.747,0,0,1,.918,2.207v3.664a4.041,4.041,0,0,0,.336,1.82V17Zm-1.867-1.57a1.945,1.945,0,0,0,.922-.223,1.462,1.462,0,0,0,.625-.6V13.156h-.844q-1.7,0-1.8,1.172l-.008.133a.9.9,0,0,0,.3.7A1.153,1.153,0,0,0,103.387,15.43Zm10.125-.766a.727.727,0,0,0-.41-.652,4.659,4.659,0,0,0-1.316-.426q-3.016-.633-3.016-2.562a2.323,2.323,0,0,1,.934-1.879,3.766,3.766,0,0,1,2.441-.754,4.053,4.053,0,0,1,2.574.758,2.388,2.388,0,0,1,.965,1.969h-2.258a1.092,1.092,0,0,0-.312-.8,1.322,1.322,0,0,0-.977-.316,1.351,1.351,0,0,0-.883.258.814.814,0,0,0-.312.656.7.7,0,0,0,.355.605,3.657,3.657,0,0,0,1.2.4,9.8,9.8,0,0,1,1.422.379,2.336,2.336,0,0,1,1.789,2.273,2.2,2.2,0,0,1-.992,1.871,4.28,4.28,0,0,1-2.562.715,4.47,4.47,0,0,1-1.887-.379,3.166,3.166,0,0,1-1.293-1.039,2.414,2.414,0,0,1-.469-1.426h2.141a1.179,1.179,0,0,0,.445.922,1.766,1.766,0,0,0,1.109.32,1.635,1.635,0,0,0,.98-.246A.766.766,0,0,0,113.512,14.664Z" transform="translate(425 623)" fill="#12263f"/>
      <path id="Trazado_628502" data-name="Trazado 628502" d="M18.973,11.742h-4.93v4.031H19.77V17H12.543V5.625h7.148V6.859H14.043v3.656h4.93Zm3.8-3.2.039.938a3.122,3.122,0,0,1,2.508-1.094A2.417,2.417,0,0,1,27.73,9.75a3.2,3.2,0,0,1,1.1-.984,3.242,3.242,0,0,1,1.6-.375q2.781,0,2.828,2.945V17H31.809V11.422a1.941,1.941,0,0,0-.414-1.355A1.823,1.823,0,0,0,30,9.617a1.916,1.916,0,0,0-1.336.48,1.949,1.949,0,0,0-.617,1.293V17H26.6V11.461a1.613,1.613,0,0,0-1.8-1.844,1.934,1.934,0,0,0-1.945,1.211V17H21.4V8.547Zm19.8,4.32a5.062,5.062,0,0,1-.883,3.109,2.829,2.829,0,0,1-2.391,1.18,3.1,3.1,0,0,1-2.422-.977v4.07H35.434V8.547h1.32l.07.938a2.977,2.977,0,0,1,2.453-1.094,2.882,2.882,0,0,1,2.41,1.148,5.117,5.117,0,0,1,.887,3.2ZM41.129,12.7a3.735,3.735,0,0,0-.609-2.258,1.963,1.963,0,0,0-1.672-.828,2.125,2.125,0,0,0-1.969,1.164V14.82a2.129,2.129,0,0,0,1.984,1.156,1.954,1.954,0,0,0,1.652-.824A4.077,4.077,0,0,0,41.129,12.7ZM45.98,17H44.535V5H45.98Zm5.82.156A3.693,3.693,0,0,1,49,16.027a4.19,4.19,0,0,1-1.078-3.02v-.266a5.073,5.073,0,0,1,.48-2.246A3.748,3.748,0,0,1,49.75,8.949a3.378,3.378,0,0,1,1.871-.559,3.166,3.166,0,0,1,2.563,1.086,4.7,4.7,0,0,1,.914,3.109v.6H49.371a3,3,0,0,0,.73,2.02,2.3,2.3,0,0,0,1.777.77,2.517,2.517,0,0,0,1.3-.312,3.259,3.259,0,0,0,.93-.828l.883.688A3.55,3.55,0,0,1,51.8,17.156Zm-.18-7.578a1.928,1.928,0,0,0-1.469.637A3.1,3.1,0,0,0,49.418,12h4.234v-.109a2.753,2.753,0,0,0-.594-1.707A1.815,1.815,0,0,0,51.621,9.578ZM61.988,17a3.036,3.036,0,0,1-.2-.891,3.225,3.225,0,0,1-2.406,1.047,2.984,2.984,0,0,1-2.051-.707,2.287,2.287,0,0,1-.8-1.793,2.39,2.39,0,0,1,1-2.051,4.733,4.733,0,0,1,2.824-.73h1.406v-.664A1.623,1.623,0,0,0,61.309,10a1.821,1.821,0,0,0-1.336-.449,2.107,2.107,0,0,0-1.3.391,1.151,1.151,0,0,0-.523.945H56.7a2,2,0,0,1,.449-1.223,3.066,3.066,0,0,1,1.219-.934,4.1,4.1,0,0,1,1.691-.344,3.342,3.342,0,0,1,2.289.73,2.635,2.635,0,0,1,.859,2.012v3.891a4.757,4.757,0,0,0,.3,1.852V17Zm-2.4-1.1a2.54,2.54,0,0,0,1.289-.352,2.127,2.127,0,0,0,.883-.914V12.9H60.629q-2.656,0-2.656,1.555a1.316,1.316,0,0,0,.453,1.063A1.742,1.742,0,0,0,59.59,15.9Zm5.531-3.2a4.952,4.952,0,0,1,.922-3.129,3.137,3.137,0,0,1,4.766-.168V5h1.445V17H70.926l-.07-.906a2.943,2.943,0,0,1-2.414,1.063,2.887,2.887,0,0,1-2.395-1.2,5.008,5.008,0,0,1-.926-3.141Zm1.445.164a3.749,3.749,0,0,0,.594,2.25,1.92,1.92,0,0,0,1.641.813A2.108,2.108,0,0,0,70.809,14.7V10.813a2.125,2.125,0,0,0-1.992-1.2,1.929,1.929,0,0,0-1.656.82A4.128,4.128,0,0,0,66.566,12.867Zm7.547-.172a4.993,4.993,0,0,1,.488-2.234A3.643,3.643,0,0,1,75.961,8.93a3.7,3.7,0,0,1,1.988-.539,3.565,3.565,0,0,1,2.793,1.2,4.6,4.6,0,0,1,1.066,3.18v.1a5.036,5.036,0,0,1-.473,2.215,3.589,3.589,0,0,1-1.352,1.527,3.743,3.743,0,0,1-2.02.547,3.556,3.556,0,0,1-2.785-1.2A4.575,4.575,0,0,1,74.113,12.8Zm1.453.172a3.616,3.616,0,0,0,.652,2.258,2.211,2.211,0,0,0,3.5-.012,3.955,3.955,0,0,0,.648-2.418,3.61,3.61,0,0,0-.66-2.254,2.1,2.1,0,0,0-1.754-.863,2.075,2.075,0,0,0-1.727.852A3.925,3.925,0,0,0,75.566,12.867Zm12.977,1.891a1.064,1.064,0,0,0-.441-.91,4.249,4.249,0,0,0-1.539-.559,7.277,7.277,0,0,1-1.742-.562,2.479,2.479,0,0,1-.953-.781,1.869,1.869,0,0,1-.309-1.078,2.193,2.193,0,0,1,.879-1.758,3.432,3.432,0,0,1,2.246-.719,3.532,3.532,0,0,1,2.332.742,2.357,2.357,0,0,1,.895,1.9H88.457a1.3,1.3,0,0,0-.5-1.023,1.888,1.888,0,0,0-1.27-.43,1.976,1.976,0,0,0-1.234.344,1.082,1.082,0,0,0-.445.9.877.877,0,0,0,.414.789,5.1,5.1,0,0,0,1.5.508,7.8,7.8,0,0,1,1.754.578,2.558,2.558,0,0,1,1,.809,1.988,1.988,0,0,1,.324,1.152,2.163,2.163,0,0,1-.906,1.816,3.8,3.8,0,0,1-2.352.684,4.257,4.257,0,0,1-1.8-.359,2.922,2.922,0,0,1-1.223-1A2.42,2.42,0,0,1,83.27,14.4h1.445a1.5,1.5,0,0,0,.582,1.152,2.258,2.258,0,0,0,1.434.426,2.331,2.331,0,0,0,1.316-.332A1.02,1.02,0,0,0,88.543,14.758Z" transform="translate(445 691)" fill="#12263f"/>
      <path id="Trazado_628503" data-name="Trazado 628503" d="M28.7,15.508a3.465,3.465,0,0,1-1.613,1.238,6.517,6.517,0,0,1-2.41.41A4.674,4.674,0,0,1,22.2,16.5a4.346,4.346,0,0,1-1.668-1.855,6.408,6.408,0,0,1-.605-2.789v-.992a5.982,5.982,0,0,1,1.2-3.984A4.179,4.179,0,0,1,24.5,5.469a4.316,4.316,0,0,1,2.867.91A3.965,3.965,0,0,1,28.7,8.961H27.2A2.478,2.478,0,0,0,24.508,6.7a2.656,2.656,0,0,0-2.285,1.059,5.165,5.165,0,0,0-.785,3.066v.93a4.841,4.841,0,0,0,.875,3.043A2.837,2.837,0,0,0,24.68,15.93a5.217,5.217,0,0,0,1.477-.187,2.282,2.282,0,0,0,1.047-.633V12.555H24.57V11.336H28.7Zm5.781,1.648a3.693,3.693,0,0,1-2.8-1.129,4.19,4.19,0,0,1-1.078-3.02v-.266a5.073,5.073,0,0,1,.48-2.246,3.748,3.748,0,0,1,1.344-1.547A3.378,3.378,0,0,1,34.3,8.391a3.166,3.166,0,0,1,2.563,1.086,4.7,4.7,0,0,1,.914,3.109v.6H32.047a3,3,0,0,0,.73,2.02,2.3,2.3,0,0,0,1.777.77,2.517,2.517,0,0,0,1.3-.312,3.259,3.259,0,0,0,.93-.828l.883.688A3.55,3.55,0,0,1,34.477,17.156ZM34.3,9.578a1.928,1.928,0,0,0-1.469.637A3.1,3.1,0,0,0,32.094,12h4.234v-.109a2.753,2.753,0,0,0-.594-1.707A1.815,1.815,0,0,0,34.3,9.578Zm9.234.266a4.331,4.331,0,0,0-.711-.055A1.9,1.9,0,0,0,40.891,11v6H39.445V8.547h1.406l.023.977a2.251,2.251,0,0,1,2.016-1.133,1.477,1.477,0,0,1,.641.109Zm4.836,7.313a3.693,3.693,0,0,1-2.8-1.129,4.19,4.19,0,0,1-1.078-3.02v-.266a5.073,5.073,0,0,1,.48-2.246,3.748,3.748,0,0,1,1.344-1.547,3.378,3.378,0,0,1,1.871-.559A3.166,3.166,0,0,1,50.75,9.477a4.7,4.7,0,0,1,.914,3.109v.6H45.938a3,3,0,0,0,.73,2.02,2.3,2.3,0,0,0,1.777.77,2.517,2.517,0,0,0,1.3-.312,3.259,3.259,0,0,0,.93-.828l.883.688A3.55,3.55,0,0,1,48.367,17.156Zm-.18-7.578a1.928,1.928,0,0,0-1.469.637A3.1,3.1,0,0,0,45.984,12h4.234v-.109a2.753,2.753,0,0,0-.594-1.707A1.815,1.815,0,0,0,48.188,9.578ZM54.7,8.547l.047,1.063a3.08,3.08,0,0,1,2.531-1.219q2.68,0,2.7,3.023V17H58.539V11.406a1.946,1.946,0,0,0-.418-1.352,1.675,1.675,0,0,0-1.277-.437,2.086,2.086,0,0,0-1.234.375,2.546,2.546,0,0,0-.828.984V17H53.336V8.547ZM64.125,6.5V8.547H65.7V9.664H64.125v5.242a1.171,1.171,0,0,0,.211.762.888.888,0,0,0,.719.254,3.5,3.5,0,0,0,.688-.094V17a4.19,4.19,0,0,1-1.109.156,1.8,1.8,0,0,1-1.461-.586,2.517,2.517,0,0,1-.492-1.664V9.664H61.141V8.547H62.68V6.5ZM70.9,17.156a3.693,3.693,0,0,1-2.8-1.129,4.19,4.19,0,0,1-1.078-3.02v-.266A5.073,5.073,0,0,1,67.5,10.5a3.748,3.748,0,0,1,1.344-1.547,3.378,3.378,0,0,1,1.871-.559,3.166,3.166,0,0,1,2.563,1.086,4.7,4.7,0,0,1,.914,3.109v.6H68.469a3,3,0,0,0,.73,2.02,2.3,2.3,0,0,0,1.777.77,2.517,2.517,0,0,0,1.3-.312,3.259,3.259,0,0,0,.93-.828l.883.688A3.55,3.55,0,0,1,70.9,17.156Zm-.18-7.578a1.928,1.928,0,0,0-1.469.637A3.1,3.1,0,0,0,68.516,12H72.75v-.109a2.753,2.753,0,0,0-.594-1.707A1.815,1.815,0,0,0,70.719,9.578Zm10.07,5.18a1.064,1.064,0,0,0-.441-.91,4.249,4.249,0,0,0-1.539-.559,7.277,7.277,0,0,1-1.742-.562,2.479,2.479,0,0,1-.953-.781,1.869,1.869,0,0,1-.309-1.078,2.193,2.193,0,0,1,.879-1.758,3.432,3.432,0,0,1,2.246-.719,3.532,3.532,0,0,1,2.332.742,2.357,2.357,0,0,1,.895,1.9H80.7a1.3,1.3,0,0,0-.5-1.023,1.888,1.888,0,0,0-1.27-.43,1.976,1.976,0,0,0-1.234.344,1.082,1.082,0,0,0-.445.9.877.877,0,0,0,.414.789,5.1,5.1,0,0,0,1.5.508,7.8,7.8,0,0,1,1.754.578,2.558,2.558,0,0,1,1,.809,1.988,1.988,0,0,1,.324,1.152,2.163,2.163,0,0,1-.906,1.816,3.8,3.8,0,0,1-2.352.684,4.257,4.257,0,0,1-1.8-.359,2.922,2.922,0,0,1-1.223-1,2.42,2.42,0,0,1-.441-1.395h1.445a1.5,1.5,0,0,0,.582,1.152,2.258,2.258,0,0,0,1.434.426,2.331,2.331,0,0,0,1.316-.332A1.02,1.02,0,0,0,80.789,14.758Z" transform="translate(445 755)" fill="#12263f"/>
      <path id="Trazado_628504" data-name="Trazado 628504" d="M10.613,12.547V17h-1.5V5.625h4.2a4.215,4.215,0,0,1,2.926.953A3.231,3.231,0,0,1,17.293,9.1a3.189,3.189,0,0,1-1.035,2.551,4.4,4.4,0,0,1-2.965.895Zm0-1.227h2.7a2.7,2.7,0,0,0,1.844-.566,2.069,2.069,0,0,0,.641-1.637,2.138,2.138,0,0,0-.641-1.625,2.528,2.528,0,0,0-1.758-.633H10.613ZM23.066,9.844a4.331,4.331,0,0,0-.711-.055A1.9,1.9,0,0,0,20.426,11v6H18.98V8.547h1.406l.023.977a2.251,2.251,0,0,1,2.016-1.133,1.477,1.477,0,0,1,.641.109Zm.789,2.852a4.993,4.993,0,0,1,.488-2.234A3.643,3.643,0,0,1,25.7,8.93a3.7,3.7,0,0,1,1.988-.539,3.565,3.565,0,0,1,2.793,1.2,4.6,4.6,0,0,1,1.066,3.18v.1a5.036,5.036,0,0,1-.473,2.215,3.589,3.589,0,0,1-1.352,1.527,3.743,3.743,0,0,1-2.02.547,3.556,3.556,0,0,1-2.785-1.2A4.575,4.575,0,0,1,23.855,12.8Zm1.453.172a3.616,3.616,0,0,0,.652,2.258,2.211,2.211,0,0,0,3.5-.012,3.955,3.955,0,0,0,.648-2.418,3.61,3.61,0,0,0-.66-2.254,2.1,2.1,0,0,0-1.754-.863,2.075,2.075,0,0,0-1.727.852A3.925,3.925,0,0,0,25.309,12.867Zm15.2,0a5.062,5.062,0,0,1-.883,3.109,2.829,2.829,0,0,1-2.391,1.18,3.1,3.1,0,0,1-2.422-.977v4.07H33.363V8.547h1.32l.07.938a2.977,2.977,0,0,1,2.453-1.094,2.882,2.882,0,0,1,2.41,1.148,5.117,5.117,0,0,1,.887,3.2ZM39.059,12.7a3.735,3.735,0,0,0-.609-2.258,1.963,1.963,0,0,0-1.672-.828,2.125,2.125,0,0,0-1.969,1.164V14.82a2.129,2.129,0,0,0,1.984,1.156,1.954,1.954,0,0,0,1.652-.824A4.077,4.077,0,0,0,39.059,12.7ZM43.91,17H42.465V8.547H43.91ZM42.348,6.3a.863.863,0,0,1,.215-.594.807.807,0,0,1,.637-.242.819.819,0,0,1,.641.242.854.854,0,0,1,.219.594.826.826,0,0,1-.219.586.834.834,0,0,1-.641.234.821.821,0,0,1-.637-.234A.834.834,0,0,1,42.348,6.3ZM49.73,17.156a3.693,3.693,0,0,1-2.8-1.129,4.19,4.19,0,0,1-1.078-3.02v-.266a5.073,5.073,0,0,1,.48-2.246A3.748,3.748,0,0,1,47.68,8.949a3.378,3.378,0,0,1,1.871-.559,3.166,3.166,0,0,1,2.563,1.086,4.7,4.7,0,0,1,.914,3.109v.6H47.3a3,3,0,0,0,.73,2.02,2.3,2.3,0,0,0,1.777.77,2.517,2.517,0,0,0,1.3-.312,3.259,3.259,0,0,0,.93-.828l.883.688A3.55,3.55,0,0,1,49.73,17.156Zm-.18-7.578a1.928,1.928,0,0,0-1.469.637A3.1,3.1,0,0,0,47.348,12h4.234v-.109a2.753,2.753,0,0,0-.594-1.707A1.815,1.815,0,0,0,49.551,9.578ZM56.66,6.5V8.547h1.578V9.664H56.66v5.242a1.171,1.171,0,0,0,.211.762.888.888,0,0,0,.719.254,3.5,3.5,0,0,0,.688-.094V17a4.19,4.19,0,0,1-1.109.156,1.8,1.8,0,0,1-1.461-.586,2.517,2.517,0,0,1-.492-1.664V9.664H53.676V8.547h1.539V6.5ZM65.145,17a3.036,3.036,0,0,1-.2-.891,3.225,3.225,0,0,1-2.406,1.047,2.984,2.984,0,0,1-2.051-.707,2.287,2.287,0,0,1-.8-1.793,2.39,2.39,0,0,1,1-2.051,4.733,4.733,0,0,1,2.824-.73h1.406v-.664A1.623,1.623,0,0,0,64.465,10a1.821,1.821,0,0,0-1.336-.449,2.107,2.107,0,0,0-1.3.391,1.151,1.151,0,0,0-.523.945H59.855A2,2,0,0,1,60.3,9.668a3.066,3.066,0,0,1,1.219-.934,4.1,4.1,0,0,1,1.691-.344,3.342,3.342,0,0,1,2.289.73,2.635,2.635,0,0,1,.859,2.012v3.891a4.757,4.757,0,0,0,.3,1.852V17Zm-2.4-1.1a2.54,2.54,0,0,0,1.289-.352,2.127,2.127,0,0,0,.883-.914V12.9H63.785q-2.656,0-2.656,1.555a1.316,1.316,0,0,0,.453,1.063A1.742,1.742,0,0,0,62.746,15.9Zm9.969-6.055A4.331,4.331,0,0,0,72,9.789,1.9,1.9,0,0,0,70.074,11v6H68.629V8.547h1.406l.023.977a2.251,2.251,0,0,1,2.016-1.133,1.477,1.477,0,0,1,.641.109ZM75.613,17H74.168V8.547h1.445ZM74.051,6.3a.863.863,0,0,1,.215-.594.807.807,0,0,1,.637-.242.819.819,0,0,1,.641.242.854.854,0,0,1,.219.594.826.826,0,0,1-.219.586.834.834,0,0,1-.641.234.821.821,0,0,1-.637-.234A.834.834,0,0,1,74.051,6.3ZM77.543,12.7a4.993,4.993,0,0,1,.488-2.234A3.643,3.643,0,0,1,79.391,8.93a3.7,3.7,0,0,1,1.988-.539,3.565,3.565,0,0,1,2.793,1.2,4.6,4.6,0,0,1,1.066,3.18v.1a5.036,5.036,0,0,1-.473,2.215,3.589,3.589,0,0,1-1.352,1.527,3.743,3.743,0,0,1-2.02.547,3.556,3.556,0,0,1-2.785-1.2A4.575,4.575,0,0,1,77.543,12.8ZM79,12.867a3.616,3.616,0,0,0,.652,2.258,2.211,2.211,0,0,0,3.5-.012,3.955,3.955,0,0,0,.648-2.418,3.61,3.61,0,0,0-.66-2.254,2.1,2.1,0,0,0-1.754-.863,2.075,2.075,0,0,0-1.727.852A3.925,3.925,0,0,0,79,12.867Zm12.977,1.891a1.064,1.064,0,0,0-.441-.91,4.249,4.249,0,0,0-1.539-.559,7.277,7.277,0,0,1-1.742-.562,2.479,2.479,0,0,1-.953-.781,1.869,1.869,0,0,1-.309-1.078,2.193,2.193,0,0,1,.879-1.758,3.432,3.432,0,0,1,2.246-.719,3.532,3.532,0,0,1,2.332.742,2.357,2.357,0,0,1,.895,1.9H91.887a1.3,1.3,0,0,0-.5-1.023,1.888,1.888,0,0,0-1.27-.43,1.976,1.976,0,0,0-1.234.344,1.082,1.082,0,0,0-.445.9.877.877,0,0,0,.414.789,5.1,5.1,0,0,0,1.5.508A7.8,7.8,0,0,1,92.1,12.7a2.558,2.558,0,0,1,1,.809,1.988,1.988,0,0,1,.324,1.152,2.163,2.163,0,0,1-.906,1.816,3.8,3.8,0,0,1-2.352.684,4.257,4.257,0,0,1-1.8-.359,2.922,2.922,0,0,1-1.223-1A2.42,2.42,0,0,1,86.7,14.4h1.445a1.5,1.5,0,0,0,.582,1.152,2.258,2.258,0,0,0,1.434.426,2.331,2.331,0,0,0,1.316-.332A1.02,1.02,0,0,0,91.973,14.758Z" transform="translate(445 827)" fill="#12263f"/>
      <path id="Trazado_611442" data-name="Trazado 611442" d="M-2086.091-11007.5H-2106v201.808h19.913" transform="translate(2496.004 11641.915)" fill="none" stroke="#e9be64" stroke-width="2"/>
      <path id="Trazado_611443" data-name="Trazado 611443" d="M-2106-10934.5h21.772" transform="translate(2496.004 11634.979)" fill="none" stroke="#e9be64" stroke-width="2"/>
      <path id="Trazado_611444" data-name="Trazado 611444" d="M-2106-10934.5h21.772" transform="translate(2496.004 11702.851)" fill="none" stroke="#e9be64" stroke-width="2"/>
      <path id="Trazado_611442-2" data-name="Trazado 611442" d="M-2086.091-11007.5H-2106v342.079h19.913" transform="translate(2705.96 11641.915)" fill="none" stroke="#5342af" stroke-width="2"/>
      <path id="Trazado_611443-2" data-name="Trazado 611443" d="M-2106-10934.32h21.772" transform="translate(2705.96 11705.313)" fill="none" stroke="#5342af" stroke-width="2"/>
      <path id="Trazado_611445" data-name="Trazado 611445" d="M-2106-10934.32h21.772" transform="translate(2705.96 11636.536)" fill="none" stroke="#5342af" stroke-width="2"/>
      <path id="Trazado_611446" data-name="Trazado 611446" d="M-2106-10934.32h21.772" transform="translate(2705.96 11838.299)" fill="none" stroke="#5342af" stroke-width="2"/>
      <path id="Trazado_611444-2" data-name="Trazado 611444" d="M-2106-10934.5h21.772" transform="translate(2705.96 11769.701)" fill="none" stroke="#5342af" stroke-width="2"/>
      <g id="Trazado_628505" data-name="Trazado 628505" transform="translate(618 672)" fill="#e0dafc">
        <path d="M 161 56 L 11 56 C 5.485978126525879 56 1 51.51402282714844 1 46 L 1 11 C 1 5.485978126525879 5.485978126525879 1 11 1 L 161 1 C 166.5140228271484 1 171 5.485978126525879 171 11 L 171 46 C 171 51.51402282714844 166.5140228271484 56 161 56 Z" stroke="none"/>
        <path d="M 11 2 C 6.037384033203125 2 2 6.037387847900391 2 11 L 2 46 C 2 50.96261215209961 6.037384033203125 55 11 55 L 161 55 C 165.9626159667969 55 170 50.96261215209961 170 46 L 170 11 C 170 6.037387847900391 165.9626159667969 2 161 2 L 11 2 M 11 0 L 161 0 C 167.0751342773438 0 172 4.924861907958984 172 11 L 172 46 C 172 52.07513427734375 167.0751342773438 57 161 57 L 11 57 C 4.92486572265625 57 0 52.07513427734375 0 46 L 0 11 C 0 4.924861907958984 4.92486572265625 0 11 0 Z" stroke="none" fill="#5342af"/>
      </g>
      <g id="Trazado_628506" data-name="Trazado 628506" transform="translate(618 740)" fill="#e0dafc">
        <path d="M 161 55 L 11 55 C 5.485978126525879 55 1 50.51402282714844 1 45 L 1 11 C 1 5.485978126525879 5.485978126525879 1 11 1 L 161 1 C 166.5140228271484 1 171 5.485978126525879 171 11 L 171 45 C 171 50.51402282714844 166.5140228271484 55 161 55 Z" stroke="none"/>
        <path d="M 11 2 C 6.037384033203125 2 2 6.037387847900391 2 11 L 2 45 C 2 49.96261215209961 6.037384033203125 54 11 54 L 161 54 C 165.9626159667969 54 170 49.96261215209961 170 45 L 170 11 C 170 6.037387847900391 165.9626159667969 2 161 2 L 11 2 M 11 0 L 161 0 C 167.0751342773438 0 172 4.924861907958984 172 11 L 172 45 C 172 51.07513427734375 167.0751342773438 56 161 56 L 11 56 C 4.92486572265625 56 0 51.07513427734375 0 45 L 0 11 C 0 4.924861907958984 4.92486572265625 0 11 0 Z" stroke="none" fill="#5342af"/>
      </g>
      <g id="Trazado_628507" data-name="Trazado 628507" transform="translate(618 808)" fill="#e0dafc">
        <path d="M 161 56 L 11 56 C 5.485978126525879 56 1 51.51402282714844 1 46 L 1 11 C 1 5.485978126525879 5.485978126525879 1 11 1 L 161 1 C 166.5140228271484 1 171 5.485978126525879 171 11 L 171 46 C 171 51.51402282714844 166.5140228271484 56 161 56 Z" stroke="none"/>
        <path d="M 11 2 C 6.037384033203125 2 2 6.037387847900391 2 11 L 2 46 C 2 50.96261215209961 6.037384033203125 55 11 55 L 161 55 C 165.9626159667969 55 170 50.96261215209961 170 46 L 170 11 C 170 6.037387847900391 165.9626159667969 2 161 2 L 11 2 M 11 0 L 161 0 C 167.0751342773438 0 172 4.924861907958984 172 11 L 172 46 C 172 52.07513427734375 167.0751342773438 57 161 57 L 11 57 C 4.92486572265625 57 0 52.07513427734375 0 46 L 0 11 C 0 4.924861907958984 4.92486572265625 0 11 0 Z" stroke="none" fill="#5342af"/>
      </g>
      <g id="Trazado_628508" data-name="Trazado 628508" transform="translate(618 875)" fill="#e0dafc">
        <path d="M 161 57 L 11 57 C 5.485978126525879 57 1 52.51402282714844 1 47 L 1 11 C 1 5.485978126525879 5.485978126525879 1 11 1 L 161 1 C 166.5140228271484 1 171 5.485978126525879 171 11 L 171 47 C 171 52.51402282714844 166.5140228271484 57 161 57 Z" stroke="none"/>
        <path d="M 11 2 C 6.037384033203125 2 2 6.037387847900391 2 11 L 2 47 C 2 51.96261215209961 6.037384033203125 56 11 56 L 161 56 C 165.9626159667969 56 170 51.96261215209961 170 47 L 170 11 C 170 6.037387847900391 165.9626159667969 2 161 2 L 11 2 M 11 0 L 161 0 C 167.0751342773438 0 172 4.924861907958984 172 11 L 172 47 C 172 53.07513427734375 167.0751342773438 58 161 58 L 11 58 C 4.92486572265625 58 0 53.07513427734375 0 47 L 0 11 C 0 4.924861907958984 4.92486572265625 0 11 0 Z" stroke="none" fill="#5342af"/>
      </g>
      <g id="Trazado_628509" data-name="Trazado 628509" transform="translate(618 948)" fill="#e0dafc">
        <path d="M 161 56 L 11 56 C 5.485978126525879 56 1 51.51402282714844 1 46 L 1 11 C 1 5.485978126525879 5.485978126525879 1 11 1 L 161 1 C 166.5140228271484 1 171 5.485978126525879 171 11 L 171 46 C 171 51.51402282714844 166.5140228271484 56 161 56 Z" stroke="none"/>
        <path d="M 11 2 C 6.037384033203125 2 2 6.037387847900391 2 11 L 2 46 C 2 50.96261215209961 6.037384033203125 55 11 55 L 161 55 C 165.9626159667969 55 170 50.96261215209961 170 46 L 170 11 C 170 6.037387847900391 165.9626159667969 2 161 2 L 11 2 M 11 0 L 161 0 C 167.0751342773438 0 172 4.924861907958984 172 11 L 172 46 C 172 52.07513427734375 167.0751342773438 57 161 57 L 11 57 C 4.92486572265625 57 0 52.07513427734375 0 46 L 0 11 C 0 4.924861907958984 4.92486572265625 0 11 0 Z" stroke="none" fill="#5342af"/>
      </g>
      <g id="Trazado_626466" data-name="Trazado 626466" transform="translate(618 606)" fill="#c5baff">
        <path d="M 161 56 L 11 56 C 5.485978126525879 56 1 51.51402282714844 1 46 L 1 11 C 1 5.485978126525879 5.485978126525879 1 11 1 L 161 1 C 166.5140228271484 1 171 5.485978126525879 171 11 L 171 46 C 171 51.51402282714844 166.5140228271484 56 161 56 Z" stroke="none"/>
        <path d="M 11 2 C 6.037384033203125 2 2 6.037387847900391 2 11 L 2 46 C 2 50.96261215209961 6.037384033203125 55 11 55 L 161 55 C 165.9626159667969 55 170 50.96261215209961 170 46 L 170 11 C 170 6.037387847900391 165.9626159667969 2 161 2 L 11 2 M 11 0 L 161 0 C 167.0751342773438 0 172 4.924861907958984 172 11 L 172 46 C 172 52.07513427734375 167.0751342773438 57 161 57 L 11 57 C 4.92486572265625 57 0 52.07513427734375 0 46 L 0 11 C 0 4.924861907958984 4.92486572265625 0 11 0 Z" stroke="none" fill="#5342af"/>
      </g>
      <path id="Trazado_628510" data-name="Trazado 628510" d="M17.309,12.992V17H14.965V5.625H19.4a5.134,5.134,0,0,1,2.254.469,3.454,3.454,0,0,1,1.5,1.332,3.714,3.714,0,0,1,.523,1.965,3.266,3.266,0,0,1-1.145,2.637,4.767,4.767,0,0,1-3.168.965Zm0-1.9H19.4a2.059,2.059,0,0,0,1.418-.437,1.591,1.591,0,0,0,.488-1.25,1.876,1.876,0,0,0-.492-1.352,1.839,1.839,0,0,0-1.359-.531H17.309ZM29.949,17a2.507,2.507,0,0,1-.227-.758,2.732,2.732,0,0,1-2.133.914,3,3,0,0,1-2.059-.719,2.312,2.312,0,0,1-.816-1.812,2.389,2.389,0,0,1,1-2.062,4.915,4.915,0,0,1,2.879-.727h1.039v-.484a1.393,1.393,0,0,0-.3-.937,1.183,1.183,0,0,0-.949-.352,1.345,1.345,0,0,0-.895.273.929.929,0,0,0-.324.75H24.9a2.268,2.268,0,0,1,.453-1.359,3,3,0,0,1,1.281-.98A4.669,4.669,0,0,1,28.5,8.391a3.689,3.689,0,0,1,2.48.785,2.747,2.747,0,0,1,.918,2.207v3.664a4.041,4.041,0,0,0,.336,1.82V17Zm-1.867-1.57A1.945,1.945,0,0,0,29,15.207a1.462,1.462,0,0,0,.625-.6V13.156h-.844q-1.7,0-1.8,1.172l-.008.133a.9.9,0,0,0,.3.7A1.153,1.153,0,0,0,28.082,15.43Zm10.3-4.766a6.134,6.134,0,0,0-.812-.062,1.654,1.654,0,0,0-1.68.867V17H33.629V8.547h2.133l.063,1.008a2.092,2.092,0,0,1,1.883-1.164,2.366,2.366,0,0,1,.7.1Zm4.18-4.2V8.547H44V10.2H42.559v4.219a1.007,1.007,0,0,0,.18.672.9.9,0,0,0,.688.2,3.6,3.6,0,0,0,.664-.055v1.711a4.648,4.648,0,0,1-1.367.2,2.156,2.156,0,0,1-2.422-2.4V10.2H39.066V8.547H40.3V6.469Zm6.594,10.688a4.15,4.15,0,0,1-3.027-1.141,4.054,4.054,0,0,1-1.168-3.039v-.219a5.106,5.106,0,0,1,.492-2.277,3.612,3.612,0,0,1,1.395-1.547A3.914,3.914,0,0,1,48.9,8.391a3.508,3.508,0,0,1,2.73,1.094,4.444,4.444,0,0,1,1,3.1v.922H47.246a2.1,2.1,0,0,0,.66,1.328,2,2,0,0,0,1.395.5,2.437,2.437,0,0,0,2.039-.945l1.109,1.242a3.389,3.389,0,0,1-1.375,1.121A4.511,4.511,0,0,1,49.152,17.156Zm-.258-6.937a1.414,1.414,0,0,0-1.09.453,2.341,2.341,0,0,0-.535,1.3H50.41v-.18A1.669,1.669,0,0,0,50,10.629,1.459,1.459,0,0,0,48.895,10.219Zm9.594,4.445a.727.727,0,0,0-.41-.652,4.659,4.659,0,0,0-1.316-.426q-3.016-.633-3.016-2.562a2.323,2.323,0,0,1,.934-1.879,3.766,3.766,0,0,1,2.441-.754,4.053,4.053,0,0,1,2.574.758,2.388,2.388,0,0,1,.965,1.969H58.4a1.092,1.092,0,0,0-.312-.8A1.322,1.322,0,0,0,57.113,10a1.351,1.351,0,0,0-.883.258.814.814,0,0,0-.312.656.7.7,0,0,0,.355.605,3.657,3.657,0,0,0,1.2.4,9.8,9.8,0,0,1,1.422.379,2.336,2.336,0,0,1,1.789,2.273,2.2,2.2,0,0,1-.992,1.871,4.28,4.28,0,0,1-2.562.715,4.47,4.47,0,0,1-1.887-.379,3.166,3.166,0,0,1-1.293-1.039,2.414,2.414,0,0,1-.469-1.426h2.141a1.179,1.179,0,0,0,.445.922,1.766,1.766,0,0,0,1.109.32,1.635,1.635,0,0,0,.98-.246A.766.766,0,0,0,58.488,14.664ZM73.113,12.07h-4.5v3.047h5.281V17H66.27V5.625h7.609v1.9H68.613v2.711h4.5Zm5.227-1,1.422-2.523h2.414L79.77,12.688,82.277,17H79.855l-1.508-2.656L76.848,17h-2.43l2.508-4.312-2.4-4.141h2.422Zm7.625-4.6V8.547H87.41V10.2H85.965v4.219a1.007,1.007,0,0,0,.18.672.9.9,0,0,0,.688.2,3.6,3.6,0,0,0,.664-.055v1.711a4.648,4.648,0,0,1-1.367.2,2.156,2.156,0,0,1-2.422-2.4V10.2H82.473V8.547h1.234V6.469Zm6.594,10.688a4.15,4.15,0,0,1-3.027-1.141,4.054,4.054,0,0,1-1.168-3.039v-.219a5.106,5.106,0,0,1,.492-2.277A3.612,3.612,0,0,1,90.25,8.934a3.914,3.914,0,0,1,2.059-.543,3.508,3.508,0,0,1,2.73,1.094,4.444,4.444,0,0,1,1,3.1v.922H90.652a2.1,2.1,0,0,0,.66,1.328,2,2,0,0,0,1.395.5,2.437,2.437,0,0,0,2.039-.945l1.109,1.242a3.389,3.389,0,0,1-1.375,1.121A4.511,4.511,0,0,1,92.559,17.156ZM92.3,10.219a1.414,1.414,0,0,0-1.09.453,2.341,2.341,0,0,0-.535,1.3h3.141v-.18a1.669,1.669,0,0,0-.406-1.16A1.459,1.459,0,0,0,92.3,10.219Zm9.766.445a6.134,6.134,0,0,0-.812-.062,1.654,1.654,0,0,0-1.68.867V17H97.316V8.547h2.133l.063,1.008a2.092,2.092,0,0,1,1.883-1.164,2.366,2.366,0,0,1,.7.1Zm3.164-2.117.07.977a2.951,2.951,0,0,1,2.43-1.133,2.453,2.453,0,0,1,2,.789,3.682,3.682,0,0,1,.672,2.359V17h-2.258V11.594a1.465,1.465,0,0,0-.312-1.043,1.4,1.4,0,0,0-1.039-.324,1.553,1.553,0,0,0-1.43.813V17h-2.258V8.547ZM117.012,17a2.507,2.507,0,0,1-.227-.758,2.732,2.732,0,0,1-2.133.914,3,3,0,0,1-2.059-.719,2.312,2.312,0,0,1-.816-1.812,2.389,2.389,0,0,1,1-2.062,4.915,4.915,0,0,1,2.879-.727h1.039v-.484a1.393,1.393,0,0,0-.3-.937,1.183,1.183,0,0,0-.949-.352,1.345,1.345,0,0,0-.895.273.929.929,0,0,0-.324.75h-2.258a2.268,2.268,0,0,1,.453-1.359,3,3,0,0,1,1.281-.98,4.669,4.669,0,0,1,1.859-.355,3.689,3.689,0,0,1,2.48.785,2.747,2.747,0,0,1,.918,2.207v3.664a4.041,4.041,0,0,0,.336,1.82V17Zm-1.867-1.57a1.945,1.945,0,0,0,.922-.223,1.462,1.462,0,0,0,.625-.6V13.156h-.844q-1.7,0-1.8,1.172l-.008.133a.9.9,0,0,0,.3.7A1.153,1.153,0,0,0,115.145,15.43Zm10.125-.766a.727.727,0,0,0-.41-.652,4.659,4.659,0,0,0-1.316-.426q-3.016-.633-3.016-2.562a2.323,2.323,0,0,1,.934-1.879,3.766,3.766,0,0,1,2.441-.754,4.053,4.053,0,0,1,2.574.758,2.388,2.388,0,0,1,.965,1.969h-2.258a1.092,1.092,0,0,0-.312-.8,1.322,1.322,0,0,0-.977-.316,1.351,1.351,0,0,0-.883.258.814.814,0,0,0-.312.656.7.7,0,0,0,.355.605,3.657,3.657,0,0,0,1.2.4,9.8,9.8,0,0,1,1.422.379,2.336,2.336,0,0,1,1.789,2.273,2.2,2.2,0,0,1-.992,1.871,4.28,4.28,0,0,1-2.562.715,4.47,4.47,0,0,1-1.887-.379,3.166,3.166,0,0,1-1.293-1.039,2.414,2.414,0,0,1-.469-1.426H122.4a1.179,1.179,0,0,0,.445.922,1.766,1.766,0,0,0,1.109.32,1.635,1.635,0,0,0,.98-.246A.766.766,0,0,0,125.27,14.664Z" transform="translate(633 624)" fill="#12263f"/>
      <path id="Trazado_628511" data-name="Trazado 628511" d="M9.145,12.547V17h-1.5V5.625h4.2a4.215,4.215,0,0,1,2.926.953A3.231,3.231,0,0,1,15.824,9.1a3.189,3.189,0,0,1-1.035,2.551,4.4,4.4,0,0,1-2.965.895Zm0-1.227h2.7a2.7,2.7,0,0,0,1.844-.566,2.069,2.069,0,0,0,.641-1.637,2.138,2.138,0,0,0-.641-1.625,2.528,2.528,0,0,0-1.758-.633H9.145ZM21.6,9.844a4.331,4.331,0,0,0-.711-.055A1.9,1.9,0,0,0,18.957,11v6H17.512V8.547h1.406l.023.977a2.251,2.251,0,0,1,2.016-1.133A1.477,1.477,0,0,1,21.6,8.5Zm.789,2.852a4.993,4.993,0,0,1,.488-2.234A3.643,3.643,0,0,1,24.234,8.93a3.7,3.7,0,0,1,1.988-.539,3.565,3.565,0,0,1,2.793,1.2,4.6,4.6,0,0,1,1.066,3.18v.1a5.036,5.036,0,0,1-.473,2.215,3.589,3.589,0,0,1-1.352,1.527,3.743,3.743,0,0,1-2.02.547,3.556,3.556,0,0,1-2.785-1.2A4.575,4.575,0,0,1,22.387,12.8Zm1.453.172a3.616,3.616,0,0,0,.652,2.258,2.211,2.211,0,0,0,3.5-.012,3.955,3.955,0,0,0,.648-2.418,3.61,3.61,0,0,0-.66-2.254,2.1,2.1,0,0,0-1.754-.863,2.075,2.075,0,0,0-1.727.852A3.925,3.925,0,0,0,23.84,12.867Zm10.727,2.172L36.66,8.547h1.477L35.105,17H34L30.941,8.547h1.477Zm8.469,2.117a3.693,3.693,0,0,1-2.8-1.129,4.19,4.19,0,0,1-1.078-3.02v-.266a5.073,5.073,0,0,1,.48-2.246,3.748,3.748,0,0,1,1.344-1.547,3.378,3.378,0,0,1,1.871-.559,3.166,3.166,0,0,1,2.563,1.086,4.7,4.7,0,0,1,.914,3.109v.6H40.605a3,3,0,0,0,.73,2.02,2.3,2.3,0,0,0,1.777.77,2.517,2.517,0,0,0,1.3-.312,3.259,3.259,0,0,0,.93-.828l.883.688A3.55,3.55,0,0,1,43.035,17.156Zm-.18-7.578a1.928,1.928,0,0,0-1.469.637A3.1,3.1,0,0,0,40.652,12h4.234v-.109a2.753,2.753,0,0,0-.594-1.707A1.815,1.815,0,0,0,42.855,9.578Zm8.656,7.578a3.693,3.693,0,0,1-2.8-1.129,4.19,4.19,0,0,1-1.078-3.02v-.266a5.073,5.073,0,0,1,.48-2.246,3.748,3.748,0,0,1,1.344-1.547,3.378,3.378,0,0,1,1.871-.559,3.166,3.166,0,0,1,2.563,1.086,4.7,4.7,0,0,1,.914,3.109v.6H49.082a3,3,0,0,0,.73,2.02,2.3,2.3,0,0,0,1.777.77,2.517,2.517,0,0,0,1.3-.312,3.259,3.259,0,0,0,.93-.828l.883.688A3.55,3.55,0,0,1,51.512,17.156Zm-.18-7.578a1.928,1.928,0,0,0-1.469.637A3.1,3.1,0,0,0,49.129,12h4.234v-.109a2.753,2.753,0,0,0-.594-1.707A1.815,1.815,0,0,0,51.332,9.578Zm4.8,3.125a4.952,4.952,0,0,1,.922-3.129,3.137,3.137,0,0,1,4.766-.168V5h1.445V17H61.934l-.07-.906a2.943,2.943,0,0,1-2.414,1.063,2.887,2.887,0,0,1-2.395-1.2,5.008,5.008,0,0,1-.926-3.141Zm1.445.164a3.749,3.749,0,0,0,.594,2.25,1.92,1.92,0,0,0,1.641.813A2.108,2.108,0,0,0,61.816,14.7V10.813a2.125,2.125,0,0,0-1.992-1.2,1.929,1.929,0,0,0-1.656.82A4.128,4.128,0,0,0,57.574,12.867Zm7.547-.172a4.993,4.993,0,0,1,.488-2.234A3.643,3.643,0,0,1,66.969,8.93a3.7,3.7,0,0,1,1.988-.539,3.565,3.565,0,0,1,2.793,1.2,4.6,4.6,0,0,1,1.066,3.18v.1a5.036,5.036,0,0,1-.473,2.215,3.589,3.589,0,0,1-1.352,1.527,3.743,3.743,0,0,1-2.02.547,3.556,3.556,0,0,1-2.785-1.2A4.575,4.575,0,0,1,65.121,12.8Zm1.453.172a3.616,3.616,0,0,0,.652,2.258,2.211,2.211,0,0,0,3.5-.012,3.955,3.955,0,0,0,.648-2.418,3.61,3.61,0,0,0-.66-2.254,2.1,2.1,0,0,0-1.754-.863,2.075,2.075,0,0,0-1.727.852A3.925,3.925,0,0,0,66.574,12.867ZM78.715,9.844A4.331,4.331,0,0,0,78,9.789,1.9,1.9,0,0,0,76.074,11v6H74.629V8.547h1.406l.023.977a2.251,2.251,0,0,1,2.016-1.133,1.477,1.477,0,0,1,.641.109Zm4.836,7.313a3.693,3.693,0,0,1-2.8-1.129,4.19,4.19,0,0,1-1.078-3.02v-.266a5.073,5.073,0,0,1,.48-2.246A3.748,3.748,0,0,1,81.5,8.949a3.378,3.378,0,0,1,1.871-.559,3.166,3.166,0,0,1,2.563,1.086,4.7,4.7,0,0,1,.914,3.109v.6H81.121a3,3,0,0,0,.73,2.02,2.3,2.3,0,0,0,1.777.77,2.517,2.517,0,0,0,1.3-.312,3.259,3.259,0,0,0,.93-.828l.883.688A3.55,3.55,0,0,1,83.551,17.156Zm-.18-7.578a1.928,1.928,0,0,0-1.469.637A3.1,3.1,0,0,0,81.168,12H85.4v-.109a2.753,2.753,0,0,0-.594-1.707A1.815,1.815,0,0,0,83.371,9.578Zm10.07,5.18a1.064,1.064,0,0,0-.441-.91,4.249,4.249,0,0,0-1.539-.559,7.277,7.277,0,0,1-1.742-.562,2.479,2.479,0,0,1-.953-.781,1.869,1.869,0,0,1-.309-1.078,2.193,2.193,0,0,1,.879-1.758,3.432,3.432,0,0,1,2.246-.719,3.532,3.532,0,0,1,2.332.742,2.357,2.357,0,0,1,.895,1.9H93.355a1.3,1.3,0,0,0-.5-1.023,1.888,1.888,0,0,0-1.27-.43,1.976,1.976,0,0,0-1.234.344,1.082,1.082,0,0,0-.445.9.877.877,0,0,0,.414.789,5.1,5.1,0,0,0,1.5.508,7.8,7.8,0,0,1,1.754.578,2.558,2.558,0,0,1,1,.809,1.988,1.988,0,0,1,.324,1.152,2.163,2.163,0,0,1-.906,1.816,3.8,3.8,0,0,1-2.352.684,4.257,4.257,0,0,1-1.8-.359,2.922,2.922,0,0,1-1.223-1,2.42,2.42,0,0,1-.441-1.395h1.445a1.5,1.5,0,0,0,.582,1.152,2.258,2.258,0,0,0,1.434.426,2.331,2.331,0,0,0,1.316-.332A1.02,1.02,0,0,0,93.441,14.758Z" transform="translate(654 691)" fill="#12263f"/>
      <path id="Trazado_628512" data-name="Trazado 628512" d="M22.621,11.93a7.053,7.053,0,0,1-2.809-1.363,2.6,2.6,0,0,1-.879-2,2.751,2.751,0,0,1,1.074-2.223A4.269,4.269,0,0,1,22.8,5.469a4.66,4.66,0,0,1,2.09.453,3.436,3.436,0,0,1,1.422,1.25,3.2,3.2,0,0,1,.5,1.742H25.309a2.069,2.069,0,0,0-.656-1.621A2.675,2.675,0,0,0,22.8,6.7a2.736,2.736,0,0,0-1.73.488,1.628,1.628,0,0,0-.621,1.355,1.465,1.465,0,0,0,.59,1.176,5.79,5.79,0,0,0,2.008.879,9.3,9.3,0,0,1,2.219.879A3.367,3.367,0,0,1,26.453,12.6a2.861,2.861,0,0,1,.387,1.508,2.658,2.658,0,0,1-1.078,2.215,4.6,4.6,0,0,1-2.883.832,5.347,5.347,0,0,1-2.187-.449,3.681,3.681,0,0,1-1.566-1.23,3,3,0,0,1-.551-1.773h1.508a1.959,1.959,0,0,0,.762,1.629,3.207,3.207,0,0,0,2.035.6,2.948,2.948,0,0,0,1.82-.484,1.573,1.573,0,0,0,.633-1.32,1.545,1.545,0,0,0-.586-1.293A6.755,6.755,0,0,0,22.621,11.93Zm5.531.766a4.993,4.993,0,0,1,.488-2.234A3.643,3.643,0,0,1,30,8.93a3.7,3.7,0,0,1,1.988-.539,3.565,3.565,0,0,1,2.793,1.2,4.6,4.6,0,0,1,1.066,3.18v.1a5.036,5.036,0,0,1-.473,2.215,3.589,3.589,0,0,1-1.352,1.527,3.743,3.743,0,0,1-2.02.547,3.556,3.556,0,0,1-2.785-1.2A4.575,4.575,0,0,1,28.152,12.8Zm1.453.172a3.616,3.616,0,0,0,.652,2.258,2.211,2.211,0,0,0,3.5-.012A3.955,3.955,0,0,0,34.4,12.7a3.61,3.61,0,0,0-.66-2.254,2.1,2.1,0,0,0-1.754-.863,2.075,2.075,0,0,0-1.727.852A3.925,3.925,0,0,0,29.605,12.867Zm11.445,3.109a2.082,2.082,0,0,0,1.352-.469,1.649,1.649,0,0,0,.641-1.172H44.41a2.621,2.621,0,0,1-.5,1.383,3.293,3.293,0,0,1-1.23,1.047,3.55,3.55,0,0,1-1.629.391A3.482,3.482,0,0,1,38.3,16a4.59,4.59,0,0,1-1.02-3.152v-.242a5.089,5.089,0,0,1,.453-2.2,3.451,3.451,0,0,1,1.3-1.492,3.7,3.7,0,0,1,2-.531,3.39,3.39,0,0,1,2.363.852,3.043,3.043,0,0,1,1,2.211H43.043a1.992,1.992,0,0,0-.621-1.348,1.932,1.932,0,0,0-1.379-.527,2.023,2.023,0,0,0-1.707.793,3.724,3.724,0,0,0-.605,2.293v.273a3.65,3.65,0,0,0,.6,2.25A2.033,2.033,0,0,0,41.051,15.977ZM47.605,17H46.16V8.547h1.445ZM46.043,6.3a.863.863,0,0,1,.215-.594.807.807,0,0,1,.637-.242.819.819,0,0,1,.641.242.854.854,0,0,1,.219.594.826.826,0,0,1-.219.586.834.834,0,0,1-.641.234.821.821,0,0,1-.637-.234A.834.834,0,0,1,46.043,6.3Zm7.383,10.852a3.693,3.693,0,0,1-2.8-1.129,4.19,4.19,0,0,1-1.078-3.02v-.266a5.073,5.073,0,0,1,.48-2.246,3.748,3.748,0,0,1,1.344-1.547,3.378,3.378,0,0,1,1.871-.559,3.166,3.166,0,0,1,2.563,1.086,4.7,4.7,0,0,1,.914,3.109v.6H51a3,3,0,0,0,.73,2.02,2.3,2.3,0,0,0,1.777.77,2.517,2.517,0,0,0,1.3-.312,3.259,3.259,0,0,0,.93-.828l.883.688A3.55,3.55,0,0,1,53.426,17.156Zm-.18-7.578a1.928,1.928,0,0,0-1.469.637A3.1,3.1,0,0,0,51.043,12h4.234v-.109a2.753,2.753,0,0,0-.594-1.707A1.815,1.815,0,0,0,53.246,9.578Zm4.8,3.125a4.952,4.952,0,0,1,.922-3.129,3.137,3.137,0,0,1,4.766-.168V5h1.445V17H63.848l-.07-.906a2.943,2.943,0,0,1-2.414,1.063,2.887,2.887,0,0,1-2.395-1.2,5.008,5.008,0,0,1-.926-3.141Zm1.445.164a3.749,3.749,0,0,0,.594,2.25,1.92,1.92,0,0,0,1.641.813A2.108,2.108,0,0,0,63.73,14.7V10.813a2.125,2.125,0,0,0-1.992-1.2,1.929,1.929,0,0,0-1.656.82A4.128,4.128,0,0,0,59.488,12.867ZM72.637,17a3.036,3.036,0,0,1-.2-.891,3.225,3.225,0,0,1-2.406,1.047,2.984,2.984,0,0,1-2.051-.707,2.288,2.288,0,0,1-.8-1.793,2.39,2.39,0,0,1,1-2.051A4.733,4.733,0,0,1,71,11.875H72.41v-.664A1.623,1.623,0,0,0,71.957,10a1.821,1.821,0,0,0-1.336-.449,2.108,2.108,0,0,0-1.3.391,1.151,1.151,0,0,0-.523.945H67.348A2,2,0,0,1,67.8,9.668a3.066,3.066,0,0,1,1.219-.934,4.1,4.1,0,0,1,1.691-.344A3.342,3.342,0,0,1,73,9.121a2.635,2.635,0,0,1,.859,2.012v3.891a4.757,4.757,0,0,0,.3,1.852V17Zm-2.4-1.1a2.54,2.54,0,0,0,1.289-.352,2.127,2.127,0,0,0,.883-.914V12.9H71.277q-2.656,0-2.656,1.555a1.316,1.316,0,0,0,.453,1.063A1.742,1.742,0,0,0,70.238,15.9Zm5.531-3.2a4.952,4.952,0,0,1,.922-3.129,3.137,3.137,0,0,1,4.766-.168V5H82.9V17H81.574l-.07-.906a2.943,2.943,0,0,1-2.414,1.063,2.887,2.887,0,0,1-2.395-1.2,5.008,5.008,0,0,1-.926-3.141Zm1.445.164a3.749,3.749,0,0,0,.594,2.25,1.92,1.92,0,0,0,1.641.813A2.108,2.108,0,0,0,81.457,14.7V10.813a2.125,2.125,0,0,0-1.992-1.2,1.929,1.929,0,0,0-1.656.82A4.128,4.128,0,0,0,77.215,12.867Z" transform="translate(654 755)" fill="#12263f"/>
      <path id="Trazado_628513" data-name="Trazado 628513" d="M24.23,15.508a3.465,3.465,0,0,1-1.613,1.238,6.517,6.517,0,0,1-2.41.41,4.674,4.674,0,0,1-2.469-.652,4.346,4.346,0,0,1-1.668-1.855,6.408,6.408,0,0,1-.605-2.789v-.992a5.982,5.982,0,0,1,1.2-3.984,4.179,4.179,0,0,1,3.371-1.414,4.316,4.316,0,0,1,2.867.91A3.965,3.965,0,0,1,24.23,8.961h-1.5A2.478,2.478,0,0,0,20.043,6.7a2.656,2.656,0,0,0-2.285,1.059,5.165,5.165,0,0,0-.785,3.066v.93a4.841,4.841,0,0,0,.875,3.043,2.837,2.837,0,0,0,2.367,1.129,5.217,5.217,0,0,0,1.477-.187,2.282,2.282,0,0,0,1.047-.633V12.555H20.105V11.336H24.23ZM26.121,12.7a4.993,4.993,0,0,1,.488-2.234A3.643,3.643,0,0,1,27.969,8.93a3.7,3.7,0,0,1,1.988-.539,3.565,3.565,0,0,1,2.793,1.2,4.6,4.6,0,0,1,1.066,3.18v.1a5.036,5.036,0,0,1-.473,2.215,3.589,3.589,0,0,1-1.352,1.527,3.743,3.743,0,0,1-2.02.547,3.556,3.556,0,0,1-2.785-1.2A4.575,4.575,0,0,1,26.121,12.8Zm1.453.172a3.616,3.616,0,0,0,.652,2.258,2.211,2.211,0,0,0,3.5-.012,3.955,3.955,0,0,0,.648-2.418,3.61,3.61,0,0,0-.66-2.254,2.1,2.1,0,0,0-1.754-.863,2.075,2.075,0,0,0-1.727.852A3.925,3.925,0,0,0,27.574,12.867Zm15.211,0a5.026,5.026,0,0,1-.891,3.113A2.846,2.846,0,0,1,39.5,17.156a2.947,2.947,0,0,1-2.477-1.133l-.07.977H35.629V5h1.445V9.477a2.93,2.93,0,0,1,2.414-1.086,2.863,2.863,0,0,1,2.418,1.164,5.177,5.177,0,0,1,.879,3.188ZM41.34,12.7a3.906,3.906,0,0,0-.57-2.281,1.888,1.888,0,0,0-1.641-.8,2.122,2.122,0,0,0-2.055,1.328V14.6a2.181,2.181,0,0,0,2.07,1.328,1.878,1.878,0,0,0,1.617-.8A4.153,4.153,0,0,0,41.34,12.7ZM46.176,17H44.73V8.547h1.445ZM44.613,6.3a.863.863,0,0,1,.215-.594.807.807,0,0,1,.637-.242.819.819,0,0,1,.641.242.854.854,0,0,1,.219.594.826.826,0,0,1-.219.586.834.834,0,0,1-.641.234.821.821,0,0,1-.637-.234A.834.834,0,0,1,44.613,6.3ZM52,17.156a3.693,3.693,0,0,1-2.8-1.129,4.19,4.19,0,0,1-1.078-3.02v-.266A5.073,5.073,0,0,1,48.6,10.5a3.748,3.748,0,0,1,1.344-1.547,3.378,3.378,0,0,1,1.871-.559,3.166,3.166,0,0,1,2.563,1.086,4.7,4.7,0,0,1,.914,3.109v.6H49.566a3,3,0,0,0,.73,2.02,2.3,2.3,0,0,0,1.777.77,2.517,2.517,0,0,0,1.3-.312,3.259,3.259,0,0,0,.93-.828l.883.688A3.55,3.55,0,0,1,52,17.156Zm-.18-7.578a1.928,1.928,0,0,0-1.469.637A3.1,3.1,0,0,0,49.613,12h4.234v-.109a2.753,2.753,0,0,0-.594-1.707A1.815,1.815,0,0,0,51.816,9.578Zm9.234.266a4.331,4.331,0,0,0-.711-.055A1.9,1.9,0,0,0,58.41,11v6H56.965V8.547h1.406l.023.977A2.251,2.251,0,0,1,60.41,8.391a1.477,1.477,0,0,1,.641.109Zm2.7-1.3.047,1.063a3.08,3.08,0,0,1,2.531-1.219q2.68,0,2.7,3.023V17H67.582V11.406a1.946,1.946,0,0,0-.418-1.352,1.675,1.675,0,0,0-1.277-.437,2.086,2.086,0,0,0-1.234.375,2.546,2.546,0,0,0-.828.984V17H62.379V8.547ZM70.824,12.7a4.993,4.993,0,0,1,.488-2.234A3.643,3.643,0,0,1,72.672,8.93a3.7,3.7,0,0,1,1.988-.539,3.565,3.565,0,0,1,2.793,1.2,4.6,4.6,0,0,1,1.066,3.18v.1a5.036,5.036,0,0,1-.473,2.215A3.589,3.589,0,0,1,76.7,16.609a3.743,3.743,0,0,1-2.02.547,3.556,3.556,0,0,1-2.785-1.2A4.575,4.575,0,0,1,70.824,12.8Zm1.453.172a3.616,3.616,0,0,0,.652,2.258,2.211,2.211,0,0,0,3.5-.012,3.955,3.955,0,0,0,.648-2.418,3.61,3.61,0,0,0-.66-2.254,2.1,2.1,0,0,0-1.754-.863,2.075,2.075,0,0,0-1.727.852A3.925,3.925,0,0,0,72.277,12.867Zm12.977,1.891a1.064,1.064,0,0,0-.441-.91,4.249,4.249,0,0,0-1.539-.559,7.277,7.277,0,0,1-1.742-.562,2.479,2.479,0,0,1-.953-.781,1.869,1.869,0,0,1-.309-1.078,2.193,2.193,0,0,1,.879-1.758,3.432,3.432,0,0,1,2.246-.719,3.532,3.532,0,0,1,2.332.742,2.357,2.357,0,0,1,.895,1.9H85.168a1.3,1.3,0,0,0-.5-1.023,1.888,1.888,0,0,0-1.27-.43,1.976,1.976,0,0,0-1.234.344,1.082,1.082,0,0,0-.445.9.877.877,0,0,0,.414.789,5.1,5.1,0,0,0,1.5.508,7.8,7.8,0,0,1,1.754.578,2.558,2.558,0,0,1,1,.809,1.988,1.988,0,0,1,.324,1.152,2.163,2.163,0,0,1-.906,1.816,3.8,3.8,0,0,1-2.352.684,4.257,4.257,0,0,1-1.8-.359,2.922,2.922,0,0,1-1.223-1A2.42,2.42,0,0,1,79.98,14.4h1.445a1.5,1.5,0,0,0,.582,1.152,2.258,2.258,0,0,0,1.434.426,2.331,2.331,0,0,0,1.316-.332A1.02,1.02,0,0,0,85.254,14.758Z" transform="translate(654 827)" fill="#12263f"/>
      <path id="Trazado_628514" data-name="Trazado 628514" d="M17.867,14.031H13.1L12.031,17H10.484L14.828,5.625h1.313L20.492,17H18.953ZM13.555,12.8h3.867l-1.937-5.32Zm11.633,3.18a2.082,2.082,0,0,0,1.352-.469,1.649,1.649,0,0,0,.641-1.172h1.367a2.621,2.621,0,0,1-.5,1.383,3.293,3.293,0,0,1-1.23,1.047,3.55,3.55,0,0,1-1.629.391A3.482,3.482,0,0,1,22.441,16a4.59,4.59,0,0,1-1.02-3.152v-.242a5.089,5.089,0,0,1,.453-2.2,3.451,3.451,0,0,1,1.3-1.492,3.7,3.7,0,0,1,2-.531,3.39,3.39,0,0,1,2.363.852,3.043,3.043,0,0,1,1,2.211H27.18a1.992,1.992,0,0,0-.621-1.348,1.932,1.932,0,0,0-1.379-.527,2.023,2.023,0,0,0-1.707.793,3.724,3.724,0,0,0-.605,2.293v.273a3.65,3.65,0,0,0,.6,2.25A2.033,2.033,0,0,0,25.188,15.977Zm9.07-6.133a4.331,4.331,0,0,0-.711-.055A1.9,1.9,0,0,0,31.617,11v6H30.172V8.547h1.406l.023.977a2.251,2.251,0,0,1,2.016-1.133,1.477,1.477,0,0,1,.641.109Zm4.836,7.313a3.693,3.693,0,0,1-2.8-1.129,4.19,4.19,0,0,1-1.078-3.02v-.266A5.073,5.073,0,0,1,35.7,10.5a3.748,3.748,0,0,1,1.344-1.547,3.378,3.378,0,0,1,1.871-.559,3.166,3.166,0,0,1,2.563,1.086,4.7,4.7,0,0,1,.914,3.109v.6H36.664a3,3,0,0,0,.73,2.02,2.3,2.3,0,0,0,1.777.77,2.517,2.517,0,0,0,1.3-.312,3.259,3.259,0,0,0,.93-.828l.883.688A3.55,3.55,0,0,1,39.094,17.156Zm-.18-7.578a1.928,1.928,0,0,0-1.469.637A3.1,3.1,0,0,0,36.711,12h4.234v-.109a2.753,2.753,0,0,0-.594-1.707A1.815,1.815,0,0,0,38.914,9.578Zm8.656,7.578a3.693,3.693,0,0,1-2.8-1.129,4.19,4.19,0,0,1-1.078-3.02v-.266a5.073,5.073,0,0,1,.48-2.246A3.748,3.748,0,0,1,45.52,8.949a3.378,3.378,0,0,1,1.871-.559,3.166,3.166,0,0,1,2.563,1.086,4.7,4.7,0,0,1,.914,3.109v.6H45.141a3,3,0,0,0,.73,2.02,2.3,2.3,0,0,0,1.777.77,2.517,2.517,0,0,0,1.3-.312,3.259,3.259,0,0,0,.93-.828l.883.688A3.55,3.55,0,0,1,47.57,17.156Zm-.18-7.578a1.928,1.928,0,0,0-1.469.637A3.1,3.1,0,0,0,45.188,12h4.234v-.109a2.753,2.753,0,0,0-.594-1.707A1.815,1.815,0,0,0,47.391,9.578Zm4.8,3.125a4.952,4.952,0,0,1,.922-3.129,3.137,3.137,0,0,1,4.766-.168V5H59.32V17H57.992l-.07-.906a2.943,2.943,0,0,1-2.414,1.063,2.887,2.887,0,0,1-2.395-1.2,5.008,5.008,0,0,1-.926-3.141Zm1.445.164a3.749,3.749,0,0,0,.594,2.25,1.92,1.92,0,0,0,1.641.813A2.108,2.108,0,0,0,57.875,14.7V10.813a2.125,2.125,0,0,0-1.992-1.2,1.929,1.929,0,0,0-1.656.82A4.128,4.128,0,0,0,53.633,12.867ZM61.18,12.7a4.993,4.993,0,0,1,.488-2.234A3.643,3.643,0,0,1,63.027,8.93a3.7,3.7,0,0,1,1.988-.539,3.565,3.565,0,0,1,2.793,1.2,4.6,4.6,0,0,1,1.066,3.18v.1a5.036,5.036,0,0,1-.473,2.215,3.589,3.589,0,0,1-1.352,1.527,3.743,3.743,0,0,1-2.02.547,3.556,3.556,0,0,1-2.785-1.2A4.575,4.575,0,0,1,61.18,12.8Zm1.453.172a3.616,3.616,0,0,0,.652,2.258,2.211,2.211,0,0,0,3.5-.012A3.955,3.955,0,0,0,67.43,12.7a3.61,3.61,0,0,0-.66-2.254,2.1,2.1,0,0,0-1.754-.863,2.075,2.075,0,0,0-1.727.852A3.925,3.925,0,0,0,62.633,12.867ZM74.773,9.844a4.331,4.331,0,0,0-.711-.055A1.9,1.9,0,0,0,72.133,11v6H70.688V8.547h1.406l.023.977a2.251,2.251,0,0,1,2.016-1.133,1.477,1.477,0,0,1,.641.109Zm4.836,7.313a3.693,3.693,0,0,1-2.8-1.129,4.19,4.19,0,0,1-1.078-3.02v-.266a5.073,5.073,0,0,1,.48-2.246,3.748,3.748,0,0,1,1.344-1.547,3.378,3.378,0,0,1,1.871-.559,3.166,3.166,0,0,1,2.563,1.086,4.7,4.7,0,0,1,.914,3.109v.6H77.18a3,3,0,0,0,.73,2.02,2.3,2.3,0,0,0,1.777.77,2.517,2.517,0,0,0,1.3-.312,3.259,3.259,0,0,0,.93-.828l.883.688A3.55,3.55,0,0,1,79.609,17.156Zm-.18-7.578a1.928,1.928,0,0,0-1.469.637A3.1,3.1,0,0,0,77.227,12h4.234v-.109a2.753,2.753,0,0,0-.594-1.707A1.815,1.815,0,0,0,79.43,9.578Zm10.07,5.18a1.064,1.064,0,0,0-.441-.91,4.249,4.249,0,0,0-1.539-.559,7.277,7.277,0,0,1-1.742-.562,2.479,2.479,0,0,1-.953-.781,1.869,1.869,0,0,1-.309-1.078,2.193,2.193,0,0,1,.879-1.758,3.432,3.432,0,0,1,2.246-.719,3.532,3.532,0,0,1,2.332.742,2.357,2.357,0,0,1,.895,1.9H89.414a1.3,1.3,0,0,0-.5-1.023,1.888,1.888,0,0,0-1.27-.43,1.976,1.976,0,0,0-1.234.344,1.082,1.082,0,0,0-.445.9.877.877,0,0,0,.414.789,5.1,5.1,0,0,0,1.5.508,7.8,7.8,0,0,1,1.754.578,2.558,2.558,0,0,1,1,.809,1.988,1.988,0,0,1,.324,1.152,2.163,2.163,0,0,1-.906,1.816,3.8,3.8,0,0,1-2.352.684,4.257,4.257,0,0,1-1.8-.359,2.922,2.922,0,0,1-1.223-1,2.42,2.42,0,0,1-.441-1.395h1.445a1.5,1.5,0,0,0,.582,1.152,2.258,2.258,0,0,0,1.434.426A2.331,2.331,0,0,0,89,15.645,1.02,1.02,0,0,0,89.5,14.758Z" transform="translate(654 895)" fill="#12263f"/>
      <path id="Trazado_628515" data-name="Trazado 628515" d="M31.969,13.391a4.185,4.185,0,0,1-1.332,2.785,4.365,4.365,0,0,1-2.98.98,4.008,4.008,0,0,1-3.23-1.445,5.815,5.815,0,0,1-1.215-3.867V10.75a6.481,6.481,0,0,1,.566-2.789,4.231,4.231,0,0,1,1.605-1.848,4.47,4.47,0,0,1,2.406-.645A4.11,4.11,0,0,1,30.7,6.48a4.235,4.235,0,0,1,1.273,2.8H30.461a3.254,3.254,0,0,0-.848-1.969A2.569,2.569,0,0,0,27.789,6.7a2.685,2.685,0,0,0-2.254,1.063,4.875,4.875,0,0,0-.816,3.023v1.1a5.011,5.011,0,0,0,.773,2.945,2.5,2.5,0,0,0,2.164,1.094,2.886,2.886,0,0,0,1.918-.566,3.143,3.143,0,0,0,.887-1.973ZM35.359,17H33.914V5h1.445Zm3.883,0H37.8V8.547h1.445ZM37.68,6.3a.863.863,0,0,1,.215-.594.807.807,0,0,1,.637-.242.819.819,0,0,1,.641.242.854.854,0,0,1,.219.594.826.826,0,0,1-.219.586.834.834,0,0,1-.641.234.821.821,0,0,1-.637-.234A.834.834,0,0,1,37.68,6.3Zm7.383,10.852a3.693,3.693,0,0,1-2.8-1.129,4.19,4.19,0,0,1-1.078-3.02v-.266a5.073,5.073,0,0,1,.48-2.246,3.748,3.748,0,0,1,1.344-1.547,3.378,3.378,0,0,1,1.871-.559,3.166,3.166,0,0,1,2.563,1.086,4.7,4.7,0,0,1,.914,3.109v.6H42.633a3,3,0,0,0,.73,2.02,2.3,2.3,0,0,0,1.777.77,2.517,2.517,0,0,0,1.3-.312,3.259,3.259,0,0,0,.93-.828l.883.688A3.55,3.55,0,0,1,45.063,17.156Zm-.18-7.578a1.928,1.928,0,0,0-1.469.637A3.1,3.1,0,0,0,42.68,12h4.234v-.109a2.753,2.753,0,0,0-.594-1.707A1.815,1.815,0,0,0,44.883,9.578ZM51.4,8.547l.047,1.063a3.08,3.08,0,0,1,2.531-1.219q2.68,0,2.7,3.023V17H55.234V11.406a1.946,1.946,0,0,0-.418-1.352,1.675,1.675,0,0,0-1.277-.437,2.086,2.086,0,0,0-1.234.375,2.546,2.546,0,0,0-.828.984V17H50.031V8.547ZM60.82,6.5V8.547H62.4V9.664H60.82v5.242a1.171,1.171,0,0,0,.211.762.888.888,0,0,0,.719.254,3.5,3.5,0,0,0,.688-.094V17a4.19,4.19,0,0,1-1.109.156,1.8,1.8,0,0,1-1.461-.586,2.517,2.517,0,0,1-.492-1.664V9.664H57.836V8.547h1.539V6.5Zm6.773,10.656a3.693,3.693,0,0,1-2.8-1.129,4.19,4.19,0,0,1-1.078-3.02v-.266A5.073,5.073,0,0,1,64.2,10.5a3.748,3.748,0,0,1,1.344-1.547,3.378,3.378,0,0,1,1.871-.559,3.166,3.166,0,0,1,2.563,1.086,4.7,4.7,0,0,1,.914,3.109v.6H65.164a3,3,0,0,0,.73,2.02,2.3,2.3,0,0,0,1.777.77,2.517,2.517,0,0,0,1.3-.312,3.259,3.259,0,0,0,.93-.828l.883.688A3.55,3.55,0,0,1,67.594,17.156Zm-.18-7.578a1.928,1.928,0,0,0-1.469.637A3.1,3.1,0,0,0,65.211,12h4.234v-.109a2.753,2.753,0,0,0-.594-1.707A1.815,1.815,0,0,0,67.414,9.578Zm10.07,5.18a1.064,1.064,0,0,0-.441-.91,4.249,4.249,0,0,0-1.539-.559,7.277,7.277,0,0,1-1.742-.562,2.479,2.479,0,0,1-.953-.781,1.869,1.869,0,0,1-.309-1.078,2.193,2.193,0,0,1,.879-1.758,3.432,3.432,0,0,1,2.246-.719,3.532,3.532,0,0,1,2.332.742,2.357,2.357,0,0,1,.895,1.9H77.4a1.3,1.3,0,0,0-.5-1.023,1.888,1.888,0,0,0-1.27-.43,1.976,1.976,0,0,0-1.234.344,1.082,1.082,0,0,0-.445.9.877.877,0,0,0,.414.789,5.1,5.1,0,0,0,1.5.508,7.8,7.8,0,0,1,1.754.578,2.558,2.558,0,0,1,1,.809,1.988,1.988,0,0,1,.324,1.152,2.163,2.163,0,0,1-.906,1.816,3.8,3.8,0,0,1-2.352.684,4.257,4.257,0,0,1-1.8-.359,2.922,2.922,0,0,1-1.223-1,2.42,2.42,0,0,1-.441-1.395h1.445a1.5,1.5,0,0,0,.582,1.152,2.258,2.258,0,0,0,1.434.426,2.331,2.331,0,0,0,1.316-.332A1.02,1.02,0,0,0,77.484,14.758Z" transform="translate(654 967)" fill="#12263f"/>
    </g>
    <g id="Grupo_930449" data-name="Grupo 930449" transform="translate(0 -18)">
      <g id="Plant" transform="translate(291.242 845.152)">
        <g id="Grupo_930447" data-name="Grupo 930447">
          <g id="Grupo_930446" data-name="Grupo 930446">
            <g id="Grupo_930443" data-name="Grupo 930443">
              <g id="Grupo_930440" data-name="Grupo 930440" transform="translate(19.038)">
                <path id="Trazado_611857" data-name="Trazado 611857" d="M114.1,362.859c-1.2,5.113-2.472,10.141-2.72,15.387.139.258.111,1.209-.043.95-.03.845-1.317.691-1.317-.143.012-.544.026-1.088.053-1.616-3.006-3.733-7.372-6.1-10.9-9.341A20.41,20.41,0,0,1,93.2,358.59c-2.926-10.086-.183-20.775-3.7-30.835-3.035-8.675-8.478-16.216-13.085-24.075-4.859-8.312-8.448-17.046-8.807-26.781-.286-7.454.6-17.388,6.28-22.971,6.019-5.926,13.478-1.486,18.089,3.8,13.36,15.333,19.541,34.711,22.041,54.523,1.378,10.967,2.809,22,2.478,33.067A89.117,89.117,0,0,1,114.1,362.859Z" transform="translate(-67.56 -251.103)" fill="#449c6e"/>
                <path id="Trazado_611858" data-name="Trazado 611858" d="M108.615,376.884a188.907,188.907,0,0,0-.366-31.065c.018-.038.05-.062.051-.113.169-8.4.835-16.761.506-25.168a149.575,149.575,0,0,0-3.7-27c-.024-.1-.183-.079-.164.026a175.905,175.905,0,0,1,2.922,26.4q.255,7.116-.114,14.233c-.081,1.542-.224,3.1-.326,4.652l0-.014a166.153,166.153,0,0,0-24.983-66.115c-.175-.273-.659.019-.488.3a172.7,172.7,0,0,1,20.335,49.021c-6.425-11.9-16.129-21.692-23.329-33.129-.039-.062-.143,0-.109.066C85.319,301.715,96,311.756,102.815,324.3c1.182,5.113,2.148,10.274,2.869,15.467a173.146,173.146,0,0,1,1.549,21.488c-3.913-7.315-7.975-14.313-11.177-22.048-.085-.206-.381-.065-.311.139,2.724,8.037,6.385,16.694,11.509,23.548.028,5.086-.123,10.174-.423,15.254-.8,13.564-3.115,26.944-4.187,40.463a.312.312,0,0,0,.62.068A310.907,310.907,0,0,0,108.615,376.884Z" transform="translate(-64.734 -245.715)" fill="#263238"/>
                <path id="Trazado_611859" data-name="Trazado 611859" d="M91.166,272.365c-.041-.1-.186-.031-.151.067,2.478,6.85,3.878,13.79,5.667,20.813a.259.259,0,0,0,.511-.084C96.466,286.037,93.922,278.931,91.166,272.365Z" transform="translate(-61.687 -245.789)" fill="#263238"/>
              </g>
              <g id="Grupo_930441" data-name="Grupo 930441" transform="translate(57.412 47.578)">
                <path id="Trazado_611860" data-name="Trazado 611860" d="M151.238,296.858a103.377,103.377,0,0,1-5.7,11.7c-4.46,8.1-9.113,15.523-9.955,24.956-.376,4.212-.51,8.444-1.794,12.5a37.465,37.465,0,0,1-4.982,9.786c-4.834,7.043-10.878,13.112-15.358,20.42a85.97,85.97,0,0,0-10.2,24.606c-.111.474-.858.346-.748-.126a.37.37,0,0,0,.029-.108.162.162,0,0,1-.044-.1c-.71-20.225.9-40.609,7.073-59.985a207.636,207.636,0,0,1,9.8-24.951c3.3-7.026,7.424-13.78,13.225-19.03,3.764-3.39,11.929-9.816,17.288-6.416C152.442,291.752,152.251,294.333,151.238,296.858Z" transform="translate(-97.226 -289.151)" fill="#449c6e"/>
                <path id="Trazado_611861" data-name="Trazado 611861" d="M131.932,339.25a165.626,165.626,0,0,1-11.753,16.9c-1.958,2.557-3.944,5.092-5.9,7.652-.924,1.211-1.959,2.415-2.807,3.713.534-2.126,1.055-4.257,1.6-6.381,2.608-10.219,5.118-20.528,9-30.353,3.8-9.6,8.852-18.623,14.043-27.53.136-.234-.241-.4-.379-.176-4.274,7.028-8.612,14.048-12.2,21.457a113.116,113.116,0,0,0-5.179,12.731,196.05,196.05,0,0,1,6.9-27.2c.027-.08-.088-.138-.121-.056a93.064,93.064,0,0,0-7.156,28.3.087.087,0,0,0,.014.045q-1.313,3.941-2.435,7.952c-3.185,11.314-5.983,22.749-8.577,34.222a122.46,122.46,0,0,1,1.952-22.491c.033-.171-.225-.211-.265-.045a71.342,71.342,0,0,0-1.953,23.71q-1.471,6.544-2.866,13.1c-1.99,9.324-4.432,18.812-5.593,28.279a.19.19,0,0,0,.374.063c1.387-5.1,2.225-10.393,3.359-15.558q1.707-7.773,3.516-15.523c1.757-7.525,3.6-15.029,5.471-22.526,1.253-2.75,3.675-5.189,5.49-7.5,1.991-2.53,3.983-5.059,5.921-7.63a113.81,113.81,0,0,0,9.731-15.061C132.172,339.22,132,339.142,131.932,339.25Z" transform="translate(-98.247 -285.692)" fill="#263238"/>
                <path id="Trazado_611862" data-name="Trazado 611862" d="M128.18,325.071a105.436,105.436,0,0,0-11.5,18.276c-.04.083.088.169.139.089,3.871-6.067,7.678-12.18,11.542-18.252C128.424,325.083,128.254,324.976,128.18,325.071Z" transform="translate(-93.633 -280.164)" fill="#263238"/>
              </g>
              <g id="Grupo_930442" data-name="Grupo 930442" transform="translate(0 51.715)">
                <path id="Trazado_611863" data-name="Trazado 611863" d="M58.2,315.2c2.621,4.514,5.613,9.935,4.488,15.356-.714,3.43-3.225,6.216-3.678,9.716-1.015,7.725,6.683,12.83,12.255,16.48,13.886,9.112,32.934,17.237,35.46,35.845.1.658,1.234.494,1.152-.151a.369.369,0,0,0-.028-.124c.028-.041.069-.055.069-.109a71.289,71.289,0,0,0-.26-28.421c-2.072-9.592-6.257-18.209-11.2-26.636C88.1,322.9,79.249,308.3,66.609,297.379c-3.5-3.02-10.662-8.453-13.448-1.633C50.458,302.374,54.986,309.7,58.2,315.2Z" transform="translate(-52.336 -292.459)" fill="#449c6e"/>
                <path id="Trazado_611864" data-name="Trazado 611864" d="M67.227,338.782C76.434,348.751,91.072,354.338,99,365.5c-4.7-17.113-12.47-32.5-24.419-45.867a.36.36,0,0,1,.508-.509,90.434,90.434,0,0,1,19.954,28.9,129.047,129.047,0,0,0-8.592-21.975.236.236,0,0,1,.408-.239,83.779,83.779,0,0,1,9.261,24.7c10.444,25.282,11.412,54.935,9.222,81.582-.03.38-.61.391-.6,0,.6-21,.26-42.367-4.773-62.876-.105-.429-.223-.85-.33-1.277-8.623-12.019-23.2-17.59-32.571-29C66.976,338.831,67.127,338.673,67.227,338.782Z" transform="translate(-48.653 -285.806)" fill="#263238"/>
                <path id="Trazado_611865" data-name="Trazado 611865" d="M65.549,327.99c4.834,4.434,9.592,8.97,14.434,13.4.049.045-.015.131-.071.093a70.646,70.646,0,0,1-14.651-13.206A.2.2,0,0,1,65.549,327.99Z" transform="translate(-49.111 -283.575)" fill="#263238"/>
                <path id="Trazado_611866" data-name="Trazado 611866" d="M64.926,312.628a151.838,151.838,0,0,0,14.46,19.892c.073.083-.04.2-.12.121a70.06,70.06,0,0,1-14.6-19.863A.151.151,0,0,1,64.926,312.628Z" transform="translate(-49.251 -287.426)" fill="#263238"/>
              </g>
            </g>
            <g id="Grupo_930445" data-name="Grupo 930445" transform="translate(37.437 153.527)">
              <g id="Grupo_930444" data-name="Grupo 930444" transform="translate(0 6.311)">
                <path id="Trazado_611867" data-name="Trazado 611867" d="M82.274,435.889h42.339l-5.706-56.963H88.795Z" transform="translate(-82.274 -378.925)" fill="#455a64"/>
                <path id="Trazado_611868" data-name="Trazado 611868" d="M86.639,388.184h32.107l-.929-9.259H87.7Z" transform="translate(-81.181 -378.925)" fill="#263238"/>
              </g>
              <rect id="Rectngulo_305731" data-name="Rectngulo 305731" width="39.687" height="9.095" transform="translate(41.013 9.095) rotate(180)" fill="#455a64"/>
            </g>
          </g>
        </g>
      </g>
    </g>
  </g>
</svg>
