<svg xmlns="http://www.w3.org/2000/svg" xmlns:xlink="http://www.w3.org/1999/xlink" width="400" height="366" viewBox="0 0 400 366">
  <defs>
    <clipPath id="clip-path">
      <rect id="Rectángulo_298008" data-name="Rectángulo 298008" width="347.465" height="335.521" fill="none"/>
    </clipPath>
    <clipPath id="clip-path-5">
      <rect id="Rectángulo_297997" data-name="Rectángulo 297997" width="5.019" height="6.882" fill="#583cb6"/>
    </clipPath>
    <clipPath id="clip-path-6">
      <rect id="Rectángulo_297998" data-name="Rectángulo 297998" width="12.948" height="41.175" fill="#583cb6"/>
    </clipPath>
    <clipPath id="clip-path-8">
      <rect id="Rectángulo_298000" data-name="Rectángulo 298000" width="18.766" height="11.764" fill="none"/>
    </clipPath>
    <clipPath id="clip-path-9">
      <rect id="Rectángulo_298001" data-name="Rectángulo 298001" width="2.223" height="2.223" fill="none"/>
    </clipPath>
    <clipPath id="clip-path-11">
      <rect id="Rectángulo_298003" data-name="Rectángulo 298003" width="27.369" height="17.09" fill="#f0bd51"/>
    </clipPath>
    <clipPath id="clip-path-12">
      <rect id="Rectángulo_298004" data-name="Rectángulo 298004" width="26.869" height="18.474" fill="#f0bd51"/>
    </clipPath>
    <clipPath id="clip-path-13">
      <rect id="Rectángulo_298005" data-name="Rectángulo 298005" width="9.874" height="20.392" fill="#ef8b53"/>
    </clipPath>
  </defs>
  <g id="Grupo_944256" data-name="Grupo 944256" transform="translate(-180 -4358)">
    <rect id="Rectángulo_306173" data-name="Rectángulo 306173" width="400" height="366" transform="translate(180 4358)" fill="none"/>
    <g id="Grupo_949491" data-name="Grupo 949491" transform="translate(206.267 4373.24)">
      <g id="Grupo_878278" data-name="Grupo 878278" clip-path="url(#clip-path)">
        <g id="Grupo_878246" data-name="Grupo 878246">
          <g id="Grupo_878245" data-name="Grupo 878245" clip-path="url(#clip-path)">
            <path id="Trazado_600282" data-name="Trazado 600282" d="M13.36,261.347s6.824-2.243,10.094,13.507,3.763,24.451,3.763,24.451,1.072,3.4,3.578,2.055,6.7-5.977,9.817-4.086c3.234,1.961,3.319,6.191,1.08,11.761s-6.7,17.952-7.1,19.074c-.392,1.1-.2,2.932,1.655,2.286s13.575-8.2,16.826-2.424-5.537,20.267-6.468,21.87-.794,2.433-.09,3.084,4.4-2.259,7.825-4.27,7.741-3.745,9.338-.255-.865,15.491-17.322,31.583l-8.113,6.958-10.184-3.4C6.711,374.942-.142,364.786,0,360.952s4.8-3.88,8.729-3.325,8.461,1.835,8.863.963.211-1.691-1.26-2.817S1.213,344.6,2.015,338.023s14.518-4.067,16.479-4.177,1.44-1.876.658-2.744c-.8-.884-9.641-10.631-13.836-14.925s-5.728-8.238-3.488-11.284c2.161-2.937,7.8-.258,10.634.033s2.524-3.265,2.524-3.265-2.864-8.232-5.847-24.038S13.5,261.311,13.5,261.311" transform="translate(0 -63.263)" fill="#ffe5ad"/>
            <path id="Trazado_600283" data-name="Trazado 600283" d="M43.513,389.233c-2.233-11.6-5.456-27.6-9.076-45.262s-6.88-33.646-9.179-45.232c-1.141-5.782-2.067-10.467-2.709-13.724l-.741-3.731c-.086-.414-.153-.735-.2-.969-.048-.218-.081-.327-.081-.327s.008.114.044.334c.04.235.1.559.166.975.158.873.383,2.131.674,3.744.59,3.251,1.476,7.948,2.6,13.748,2.234,11.6,5.456,27.6,9.074,45.255s6.882,33.653,9.18,45.24" transform="translate(-5.213 -67.804)" fill="#fc8116"/>
            <path id="Trazado_600284" data-name="Trazado 600284" d="M43.113,317.643a3.132,3.132,0,0,0-.457.624c-.275.414-.655,1.025-1.116,1.783-.92,1.52-2.135,3.651-3.431,6.029-1.264,2.343-2.408,4.462-3.291,6.1l-1,1.844a3.075,3.075,0,0,0-.34.695,3.192,3.192,0,0,0,.462-.622c.274-.414.654-1.025,1.108-1.789.9-1.529,2.092-3.675,3.388-6.053l3.334-6.076,1.015-1.839a3.147,3.147,0,0,0,.334-.7" transform="translate(-8.105 -76.923)" fill="#fc8116"/>
            <path id="Trazado_600285" data-name="Trazado 600285" d="M25.983,336.32c.052-.086-4.23-2.788-9.565-6.033s-9.7-5.807-9.756-5.721,4.229,2.787,9.566,6.034,9.7,5.806,9.756,5.72" transform="translate(-1.613 -78.599)" fill="#fc8116"/>
            <path id="Trazado_600286" data-name="Trazado 600286" d="M35,373.615a3.321,3.321,0,0,0-.75-.249l-2.07-.563c-1.747-.477-4.157-1.142-6.789-1.972s-5-1.652-6.7-2.263l-2.02-.72a3.264,3.264,0,0,0-.757-.225,3.284,3.284,0,0,0,.7.357c.463.208,1.138.495,1.981.831,1.684.674,4.037,1.542,6.681,2.37s5.069,1.461,6.835,1.873c.884.2,1.6.358,2.1.451a3.246,3.246,0,0,0,.782.111" transform="translate(-3.855 -89.025)" fill="#fc8116"/>
            <path id="Trazado_600287" data-name="Trazado 600287" d="M54.072,358.034a2.843,2.843,0,0,0-.566.461c-.347.315-.842.778-1.447,1.357-1.211,1.156-2.866,2.772-4.677,4.573s-3.439,3.446-4.6,4.649c-.582.6-1.048,1.093-1.365,1.438a2.778,2.778,0,0,0-.465.563,2.864,2.864,0,0,0,.565-.461c.348-.315.842-.778,1.447-1.357,1.211-1.156,2.866-2.772,4.678-4.574s3.438-3.444,4.6-4.649c.582-.6,1.049-1.093,1.366-1.438a2.778,2.778,0,0,0,.465-.563" transform="translate(-9.916 -86.704)" fill="#fc8116"/>
            <path id="Trazado_600288" data-name="Trazado 600288" d="M64.714,388.33a4.576,4.576,0,0,0-.717.6l-1.86,1.732c-1.56,1.474-3.7,3.528-6.04,5.813s-4.454,4.37-5.966,5.891l-1.779,1.816a4.554,4.554,0,0,0-.618.7,4.642,4.642,0,0,0,.717-.6l1.86-1.732c1.56-1.474,3.7-3.528,6.041-5.815s4.452-4.369,5.965-5.891l1.779-1.815a4.6,4.6,0,0,0,.618-.7" transform="translate(-11.56 -94.041)" fill="#fc8116"/>
            <path id="Trazado_600289" data-name="Trazado 600289" d="M40.453,406.86a5.389,5.389,0,0,0-.942-.337l-2.6-.807c-2.194-.683-5.22-1.635-8.532-2.777s-6.288-2.246-8.435-3.062l-2.546-.963a5.324,5.324,0,0,0-.95-.313,5.139,5.139,0,0,0,.9.445c.586.266,1.441.635,2.5,1.072,2.126.878,5.091,2.026,8.412,3.167s6.364,2.06,8.578,2.68c1.109.306,2.008.546,2.633.7a5.146,5.146,0,0,0,.981.2" transform="translate(-3.983 -96.527)" fill="#fc8116"/>
            <rect id="Rectángulo_297988" data-name="Rectángulo 297988" width="70.954" height="102.844" transform="translate(252.853 16.431)" fill="#583cb6"/>
            <rect id="Rectángulo_297989" data-name="Rectángulo 297989" width="70.954" height="102.844" transform="translate(249.299 16.431)" fill="#e2d9ff"/>
            <rect id="Rectángulo_297990" data-name="Rectángulo 297990" width="53.323" height="80.567" transform="translate(258.115 27.569)" fill="#fefdff"/>
            <path id="Trazado_600290" data-name="Trazado 600290" d="M393.857,116.884s-.007-.136-.011-.394-.006-.646-.01-1.143c-.005-1.012-.012-2.494-.022-4.419-.011-3.861-.027-9.488-.048-16.6-.021-14.207-.052-34.324-.087-58.015l.177.177-53.317.016h-.006l.193-.193c-.015,30.393-.029,58.416-.039,80.567l-.154-.154,38.812.081,10.723.039,2.815.017c.637.005.973.017.973.017s-.314.011-.941.017l-2.786.017-10.688.039-38.907.081h-.154v-.154c-.011-22.151-.024-50.174-.039-80.567v-.193h.2l53.317.016h.177v.177c-.036,23.738-.066,43.9-.087,58.131-.02,7.091-.037,12.7-.048,16.556-.01,1.909-.017,3.379-.022,4.383,0,.488-.008.861-.01,1.122s-.011.374-.011.374" transform="translate(-82.42 -8.748)" fill="#583cb6"/>
            <path id="Trazado_600291" data-name="Trazado 600291" d="M419.765,21.681a12.3,12.3,0,0,1-1.265,1.838c-.825,1.1-1.994,2.6-3.329,4.223s-2.583,3.056-3.507,4.077a12.292,12.292,0,0,1-1.56,1.593,13.188,13.188,0,0,1,1.354-1.771l3.416-4.145,3.413-4.146a13.29,13.29,0,0,1,1.479-1.669" transform="translate(-99.313 -5.25)" fill="#583cb6"/>
            <path id="Trazado_600292" data-name="Trazado 600292" d="M411.316,142.348a66.035,66.035,0,0,0,9.3,11.631" transform="translate(-99.607 -34.472)" fill="#fff"/>
            <path id="Trazado_600293" data-name="Trazado 600293" d="M420.615,153.979a10.607,10.607,0,0,1-1.621-1.475,51.886,51.886,0,0,1-6.6-8.251,10.552,10.552,0,0,1-1.082-1.906,14.648,14.648,0,0,1,1.308,1.753c.782,1.1,1.882,2.6,3.164,4.206s2.507,3.006,3.406,4.01a14.632,14.632,0,0,1,1.422,1.662" transform="translate(-99.606 -34.472)" fill="#583cb6"/>
            <path id="Trazado_600294" data-name="Trazado 600294" d="M328.95,153.617l9.294-11.466" transform="translate(-79.661 -34.424)" fill="#fff"/>
            <path id="Trazado_600295" data-name="Trazado 600295" d="M338.243,142.151a70.75,70.75,0,0,1-4.5,5.855,70.619,70.619,0,0,1-4.8,5.612,70.618,70.618,0,0,1,4.5-5.855,70.7,70.7,0,0,1,4.8-5.612" transform="translate(-79.66 -34.424)" fill="#583cb6"/>
            <path id="Trazado_600296" data-name="Trazado 600296" d="M328.963,21.681a64.4,64.4,0,0,1,4.51,5.393,64.28,64.28,0,0,1,4.209,5.632,64.011,64.011,0,0,1-4.511-5.393,63.843,63.843,0,0,1-4.207-5.631" transform="translate(-79.664 -5.25)" fill="#583cb6"/>
            <rect id="Rectángulo_297991" data-name="Rectángulo 297991" width="17.855" height="50.694" transform="translate(276.97 43.928)" fill="#e2d9ff"/>
            <path id="Trazado_600297" data-name="Trazado 600297" d="M106.426,0V56.667H25.037L22.105.4Z" transform="translate(-5.353)" fill="#ef8b53"/>
            <rect id="Rectángulo_297992" data-name="Rectángulo 297992" width="81.389" height="56.151" transform="translate(16.752 0.396)" fill="#fff0e3"/>
            <path id="Trazado_600298" data-name="Trazado 600298" d="M103.756,56.937H21.6V.014h82.161Zm-81.389-.772h80.617V.785H22.367Z" transform="translate(-5.23 -0.003)" fill="#ffd8b7"/>
            <rect id="Rectángulo_297993" data-name="Rectángulo 297993" width="63.759" height="42.198" transform="translate(25.567 7.373)" fill="#fff0e3"/>
            <path id="Trazado_600299" data-name="Trazado 600299" d="M97.431,9.67s-.11.008-.315.011l-.906.011-3.5.022-13.139.05-45.9.09.184-.184c.005,12.893.011,27.178.017,42.194v0l-.2-.2,63.759.041-.16.16c.035-12.841.064-23.371.084-30.7.017-3.665.031-6.528.041-8.49q.011-1.455.017-2.231c.006-.506.017-.775.017-.775s.011.246.017.74q.006.765.018,2.2c.009,1.954.023,4.8.04,8.454.02,7.356.049,17.919.084,30.8v.16h-.161l-63.759.04h-.2v-.206c.006-15.016.012-29.3.017-42.194V9.485h.185l46.018.09,13.1.05,3.465.022.886.011c.2,0,.293.011.293.011" transform="translate(-8.106 -2.297)" fill="#ffd8b7"/>
            <path id="Trazado_600300" data-name="Trazado 600300" d="M22.1.314a6.865,6.865,0,0,1,1.4.906c.833.6,1.967,1.454,3.191,2.433s2.3,1.907,3.059,2.6A6.623,6.623,0,0,1,30.92,7.448c-.076.085-2.033-1.529-4.477-3.481A44.463,44.463,0,0,1,22.1.314" transform="translate(-5.353 -0.075)" fill="#ffd8b7"/>
            <path id="Trazado_600301" data-name="Trazado 600301" d="M126.685.522A39.419,39.419,0,0,1,122.4,4.168,39.636,39.636,0,0,1,117.869,7.5a39.383,39.383,0,0,1,4.283-3.646A39.4,39.4,0,0,1,126.685.522" transform="translate(-28.544 -0.125)" fill="#ffd8b7"/>
            <path id="Trazado_600302" data-name="Trazado 600302" d="M126.517,72.278l-9.074-7.355" transform="translate(-28.441 -15.722)" fill="#fff"/>
            <path id="Trazado_600303" data-name="Trazado 600303" d="M117.441,64.922a42.632,42.632,0,0,1,4.664,3.521,42.541,42.541,0,0,1,4.411,3.834,42.6,42.6,0,0,1-4.664-3.521,42.634,42.634,0,0,1-4.411-3.834" transform="translate(-28.44 -15.721)" fill="#e0e0e0"/>
            <path id="Trazado_600304" data-name="Trazado 600304" d="M22.1,72.411A38.6,38.6,0,0,1,26.342,68.8a38.5,38.5,0,0,1,4.487-3.292,38.709,38.709,0,0,1-4.238,3.608A38.61,38.61,0,0,1,22.1,72.411" transform="translate(-5.353 -15.864)" fill="#ffd8b7"/>
            <rect id="Rectángulo_297994" data-name="Rectángulo 297994" width="40.118" height="14.13" transform="translate(38.512 20.52)" fill="#ffd8b7"/>
            <path id="Trazado_600317" data-name="Trazado 600317" d="M235.852,41.379A22.156,22.156,0,0,0,216.8,8.428a21.646,21.646,0,0,0-5.813.8,22.181,22.181,0,0,1,0,42.63,21.62,21.62,0,0,0,17.391-2.561l10.281,3.975Z" transform="translate(-51.095 -2.041)" fill="#ef8b53"/>
          </g>
        </g>
        <g id="Grupo_878248" data-name="Grupo 878248">
          <g id="Grupo_878247" data-name="Grupo 878247" clip-path="url(#clip-path)">
            <path id="Trazado_600318" data-name="Trazado 600318" d="M328.464,427.045c0,.109-72.063.2-160.936.2-88.9,0-160.952-.088-160.952-.2s72.048-.2,160.952-.2c88.873,0,160.936.088,160.936.2" transform="translate(-1.592 -103.369)" fill="#263238"/>
          </g>
        </g>
        <g id="Grupo_878256" data-name="Grupo 878256">
          <g id="Grupo_878255" data-name="Grupo 878255" clip-path="url(#clip-path)">
            <path id="Trazado_600319" data-name="Trazado 600319" d="M116.642,395l.619,18.859,4.79,14.776a1.934,1.934,0,0,1-3.093,2.068c-3.029-2.6-14.123-12.207-14.091-13.589.037-1.6-1.973-19.851-1.973-19.851Z" transform="translate(-24.918 -95.656)" fill="#7f8d93"/>
            <path id="Trazado_600320" data-name="Trazado 600320" d="M121.291,437.766,105.405,422.5l.045.8a2.91,2.91,0,0,0,.794,1.846c1.274,1.339,4.875,4.96,13.267,12.221a1.932,1.932,0,0,0,1.78.4" transform="translate(-25.526 -102.316)" fill="#e0e0e0"/>
            <path id="Trazado_600321" data-name="Trazado 600321" d="M109.531,414.148a1.169,1.169,0,0,1,.4,1.507,1.125,1.125,0,0,1-1.491.415,1.234,1.234,0,0,1-.421-1.6,1.166,1.166,0,0,1,1.6-.258" transform="translate(-26.123 -100.256)" fill="#fff"/>
            <path id="Trazado_600322" data-name="Trazado 600322" d="M120.072,431.357c.11.046.48-.965,1.57-1.557a5.884,5.884,0,0,1,2.146-.536c.014-.047-.233-.18-.678-.218a3.083,3.083,0,0,0-2.874,1.619c-.2.4-.212.679-.164.692" transform="translate(-29.072 -103.899)" fill="#263238"/>
            <path id="Trazado_600323" data-name="Trazado 600323" d="M122.031,434.855c.094.077.665-.57,1.624-.9a15.743,15.743,0,0,1,1.826-.34,2.143,2.143,0,0,0-1.967-.05c-1.09.387-1.584,1.247-1.483,1.293" transform="translate(-29.549 -104.95)" fill="#263238"/>
            <path id="Trazado_600324" data-name="Trazado 600324" d="M116.543,427.226a19.357,19.357,0,0,1,2.411-1.563,19.312,19.312,0,0,1,2.759-.808,5.284,5.284,0,0,0-5.17,2.37" transform="translate(-28.221 -102.862)" fill="#263238"/>
            <path id="Trazado_600325" data-name="Trazado 600325" d="M115.663,420.167c.057.11,1.073-.383,2.425-.507,1.35-.143,2.443.141,2.477.022a4.8,4.8,0,0,0-4.9.485" transform="translate(-28.009 -101.521)" fill="#263238"/>
            <path id="Trazado_600326" data-name="Trazado 600326" d="M115.239,412.848a9.443,9.443,0,0,1,2.51-.595,9.466,9.466,0,0,1,2.533.488c.029-.041-.19-.266-.639-.493a4.213,4.213,0,0,0-3.788.08c-.438.246-.647.48-.617.52" transform="translate(-27.906 -99.734)" fill="#263238"/>
            <path id="Trazado_600327" data-name="Trazado 600327" d="M117.536,409.85a1.623,1.623,0,0,0-.014-.714,4.942,4.942,0,0,0-.67-1.835,2.2,2.2,0,0,0-1-1,.776.776,0,0,0-.865.221,1.265,1.265,0,0,0-.25.867,2.733,2.733,0,0,0,2.532,2.392,3.17,3.17,0,0,0,3.016-1.829,1.1,1.1,0,0,0,0-.916.762.762,0,0,0-.818-.358,2.707,2.707,0,0,0-1.2.715,5.515,5.515,0,0,0-1.2,1.535,1.667,1.667,0,0,0-.253.667,8.779,8.779,0,0,1,1.648-1.98,2.519,2.519,0,0,1,1.066-.6.406.406,0,0,1,.447.192.759.759,0,0,1-.036.6,2.83,2.83,0,0,1-2.634,1.555,2.372,2.372,0,0,1-2.178-2,.911.911,0,0,1,.149-.612.42.42,0,0,1,.475-.13,1.986,1.986,0,0,1,.862.828,7.328,7.328,0,0,1,.931,2.392" transform="translate(-27.785 -98.382)" fill="#263238"/>
            <path id="Trazado_600328" data-name="Trazado 600328" d="M164.911,398.538l-.977,14.1s14.006,5.729,14.079,8.353L150.6,420.08l.621-22.035Z" transform="translate(-36.471 -96.394)" fill="#7f8d93"/>
            <path id="Trazado_600329" data-name="Trazado 600329" d="M156.8,415.352a1.12,1.12,0,0,0-.816,1.252,1.075,1.075,0,0,0,1.233.82,1.181,1.181,0,0,0,.858-1.33,1.117,1.117,0,0,0-1.378-.711" transform="translate(-37.769 -100.575)" fill="#e0e0e0"/>
            <path id="Trazado_600330" data-name="Trazado 600330" d="M150.6,426.413l.149-2.219,26.226,1.7s1.2.572,1.036,1.427Z" transform="translate(-36.471 -102.726)" fill="#e0e0e0"/>
            <path id="Trazado_600331" data-name="Trazado 600331" d="M167.973,417.095c-.009.133-.681.172-1.353.581-.684.391-1.043.959-1.164.9-.123-.03.1-.824.927-1.3s1.623-.3,1.59-.179" transform="translate(-40.061 -100.973)" fill="#263238"/>
            <path id="Trazado_600332" data-name="Trazado 600332" d="M171.929,418.816c.027.131-.561.34-1.034.89-.49.536-.624,1.145-.758,1.135-.127.017-.193-.771.408-1.444s1.385-.709,1.384-.581" transform="translate(-41.181 -101.409)" fill="#263238"/>
            <path id="Trazado_600333" data-name="Trazado 600333" d="M174.486,422.72c-.123.024-.286-.65.082-1.372s1-.993,1.056-.88c.072.113-.348.493-.64,1.09-.308.59-.365,1.153-.5,1.162" transform="translate(-42.22 -101.818)" fill="#263238"/>
            <path id="Trazado_600334" data-name="Trazado 600334" d="M167.7,412.7c-.06.12-.668-.085-1.426-.059s-1.356.246-1.422.128c-.074-.1.517-.575,1.41-.594s1.507.422,1.438.525" transform="translate(-39.92 -99.815)" fill="#263238"/>
            <path id="Trazado_600335" data-name="Trazado 600335" d="M167.486,408.365a2.573,2.573,0,0,1-1.372-.053,6.163,6.163,0,0,1-1.422-.489,6.536,6.536,0,0,1-.775-.444,1.7,1.7,0,0,1-.4-.337.585.585,0,0,1-.038-.714.735.735,0,0,1,.6-.286,1.791,1.791,0,0,1,.512.088,4.93,4.93,0,0,1,.843.321,4.857,4.857,0,0,1,1.238.873c.617.61.817,1.118.771,1.142-.062.042-.358-.387-.989-.9a5.471,5.471,0,0,0-1.2-.73,5.132,5.132,0,0,0-.781-.27c-.287-.086-.534-.1-.613.031-.029.048-.033.067.025.155a1.368,1.368,0,0,0,.3.246,7.055,7.055,0,0,0,.711.439,7.649,7.649,0,0,0,1.31.553,9.347,9.347,0,0,1,1.289.371" transform="translate(-39.563 -98.33)" fill="#263238"/>
            <path id="Trazado_600336" data-name="Trazado 600336" d="M168.461,407.971a2.184,2.184,0,0,1-.318-1.338,4.441,4.441,0,0,1,.615-2.318,1.133,1.133,0,0,1,.9-.664.641.641,0,0,1,.56.4,1.831,1.831,0,0,1,.124.508,3.042,3.042,0,0,1-.03.925,3.159,3.159,0,0,1-.634,1.4c-.559.693-1.123.834-1.133.788-.042-.069.433-.311.865-.981a3.169,3.169,0,0,0,.477-1.275,2.844,2.844,0,0,0,0-.794c-.033-.293-.135-.531-.245-.505-.136-.006-.375.205-.495.434a4.525,4.525,0,0,0-.365.733,4.946,4.946,0,0,0-.311,1.361c-.064.8.062,1.309-.011,1.327" transform="translate(-40.719 -97.751)" fill="#263238"/>
            <path id="Trazado_600337" data-name="Trazado 600337" d="M95.119,213.4,99.17,365l21.623-.649,5.157-156.119Z" transform="translate(-23.035 -50.427)" fill="#263238"/>
            <path id="Trazado_600338" data-name="Trazado 600338" d="M147.279,207.893s16.054,64.267,16.547,75.226-3.435,79.45-3.435,79.45H139.219l1.768-78-16.08-66.006L128.8,208.23Z" transform="translate(-30.248 -50.345)" fill="#263238"/>
            <path id="Trazado_600339" data-name="Trazado 600339" d="M135.835,218.307a.794.794,0,0,1,.009.205c0,.158-.007.356-.012.6-.02.558-.049,1.33-.086,2.309-.094,2.036-.227,4.929-.39,8.49-.368,7.193-.875,17.079-1.433,28-.6,10.923-1.151,20.808-1.549,28-.216,3.559-.392,6.449-.515,8.484-.068.978-.121,1.749-.16,2.306-.021.245-.039.442-.052.6a.842.842,0,0,1-.031.2.8.8,0,0,1-.01-.2c0-.158.008-.356.013-.6.02-.558.049-1.329.086-2.308.093-2.036.226-4.927.39-8.488.368-7.193.874-17.082,1.433-28.008.6-10.92,1.151-20.805,1.549-28,.216-3.559.391-6.449.515-8.484.068-.978.121-1.748.16-2.305.021-.245.038-.442.052-.6a.776.776,0,0,1,.031-.2" transform="translate(-31.871 -52.867)" fill="#455a64"/>
            <path id="Trazado_600340" data-name="Trazado 600340" d="M125.986,98.517s7.855,38.981,7.969,49.966,3.971,32.442,3.971,32.442H103.9l-.734-59.39-2.424-17.715,5.11-7.287Z" transform="translate(-24.396 -23.377)" fill="#f5f5f5"/>
            <path id="Trazado_600341" data-name="Trazado 600341" d="M134.6,100.666s8.118,2.383,10.264,5.387c1.693,2.368,3.976,47.208,3.976,47.208l3.484,39.494-3.406-.32-4.807-14.783Z" transform="translate(-32.595 -24.378)" fill="#449c6e"/>
            <path id="Trazado_600342" data-name="Trazado 600342" d="M148.14,107.774,171.059,128.8l28.2-9.136,5.617,11.839-30.089,13.658c-4.3,1.835-7,.825-9.981-1.566l-15.786-12.643Z" transform="translate(-35.875 -26.099)" fill="#449c6e"/>
            <path id="Trazado_600343" data-name="Trazado 600343" d="M208.293,128.341a.618.618,0,1,1-.837-.254.619.619,0,0,1,.837.254" transform="translate(-50.16 -31.001)" fill="#263238"/>
            <path id="Trazado_600344" data-name="Trazado 600344" d="M207.742,129.264a.651.651,0,0,1-.186-.027.638.638,0,0,1-.115-1.172.637.637,0,0,1,.862.262.637.637,0,0,1-.562.937m0-1.237a.6.6,0,1,0,.53.317.6.6,0,0,0-.53-.317" transform="translate(-50.154 -30.995)" fill="#263238"/>
            <path id="Trazado_600345" data-name="Trazado 600345" d="M211.413,127.6a.618.618,0,1,1-.837-.254.619.619,0,0,1,.837.254" transform="translate(-50.915 -30.821)" fill="#263238"/>
            <path id="Trazado_600346" data-name="Trazado 600346" d="M210.862,128.523a.64.64,0,0,1-.562-.337.637.637,0,1,1,1.124-.6.638.638,0,0,1-.562.937m0-1.238a.6.6,0,0,0-.527.882.591.591,0,0,0,.354.291.6.6,0,0,0,.7-.856.592.592,0,0,0-.355-.291.605.605,0,0,0-.175-.027" transform="translate(-50.91 -30.815)" fill="#263238"/>
            <path id="Trazado_600347" data-name="Trazado 600347" d="M214.382,127a.618.618,0,1,1-.837-.254.619.619,0,0,1,.837.254" transform="translate(-51.635 -30.676)" fill="#263238"/>
            <path id="Trazado_600348" data-name="Trazado 600348" d="M213.832,127.923a.637.637,0,1,1,.3-.075.632.632,0,0,1-.3.075m0-1.238a.6.6,0,0,0-.282.071.6.6,0,0,0,.108,1.1.6.6,0,0,0,.7-.856.6.6,0,0,0-.53-.318" transform="translate(-51.628 -30.67)" fill="#263238"/>
            <path id="Trazado_600349" data-name="Trazado 600349" d="M215.964,123.99l2.181-.8,5.008,10.55-2.132.909Z" transform="translate(-52.299 -29.833)" fill="#e0e0e0"/>
            <path id="Trazado_600350" data-name="Trazado 600350" d="M149.1,118.739a7.052,7.052,0,0,1,.132,1.179c.085.828.195,1.91.328,3.212.314,2.779.735,6.49,1.2,10.591.458,4.14.824,7.9.995,10.622.091,1.363.13,2.468.139,3.233a6.828,6.828,0,0,1-.039,1.187,6.824,6.824,0,0,1-.114-1.181c-.056-.76-.138-1.86-.264-3.217-.242-2.715-.65-6.461-1.109-10.6s-.861-7.886-1.084-10.608c-.114-1.36-.177-2.465-.2-3.229a6.678,6.678,0,0,1,.022-1.188" transform="translate(-36.1 -28.755)" fill="#263238"/>
            <path id="Trazado_600351" data-name="Trazado 600351" d="M154.673,125.681a43.221,43.221,0,0,1-1.435,5.651,43.151,43.151,0,0,1-1.815,5.54,43.255,43.255,0,0,1,1.435-5.651,43.307,43.307,0,0,1,1.815-5.541" transform="translate(-36.667 -30.436)" fill="#263238"/>
            <path id="Trazado_600352" data-name="Trazado 600352" d="M177.786,142.576a2.361,2.361,0,0,1-.508-1,7.245,7.245,0,0,1,.334-5.325c.307-.627.59-.956.629-.931a13.876,13.876,0,0,0-.911,3.587,13.906,13.906,0,0,0,.455,3.672" transform="translate(-42.845 -32.769)" fill="#263238"/>
            <path id="Trazado_600353" data-name="Trazado 600353" d="M174.263,177.04l2.934.227L176.032,189.5l-2.831-.323Z" transform="translate(-41.943 -42.873)" fill="#e0e0e0"/>
            <path id="Trazado_600354" data-name="Trazado 600354" d="M101.043,97.655,85.23,107.737A10.273,10.273,0,0,0,81.4,119.387L93.528,157.5l-4.374,34.633,34.659-1.471-.843-15.182-2.944-27.158a53.972,53.972,0,0,0-3.72-14.66Z" transform="translate(-19.584 -23.649)" fill="#449c6e"/>
            <path id="Trazado_600355" data-name="Trazado 600355" d="M85.333,124.58l15.819,33.1a9.8,9.8,0,0,0,6.581,5.308l43.892,10.4,1.119-12.778L119.239,148l-16.854-32.348a9.623,9.623,0,1,0-17.051,8.923" transform="translate(-20.397 -26.754)" fill="#449c6e"/>
            <path id="Trazado_600356" data-name="Trazado 600356" d="M154.08,160.815a.709.709,0,0,1-.18-.049l-.518-.176-1.987-.712-7.349-2.7-24.772-9.258-.071-.027-.035-.07c-.936-1.854-1.917-3.8-2.915-5.778-2.749-5.353-5.485-10.391-8.045-14.934-1.279-2.271-2.514-4.42-3.681-6.423l-1.7-2.893c-.268-.468-.543-.916-.831-1.335a10.368,10.368,0,0,0-.9-1.2,10.529,10.529,0,0,0-4.213-3.058A9.583,9.583,0,0,0,93,111.509a6.947,6.947,0,0,0-3.255.87.922.922,0,0,1,.184-.131,3.074,3.074,0,0,1,.582-.318,6.808,6.808,0,0,1,2.481-.574,9.576,9.576,0,0,1,3.976.641,11.441,11.441,0,0,1,5.273,4.3c.3.43.58.879.85,1.343l1.72,2.884c1.179,2,2.426,4.141,3.715,6.41,2.579,4.536,5.328,9.574,8.08,14.932,1.013,1.973,1.992,3.923,2.913,5.785l-.106-.1,24.726,9.381,7.307,2.815,1.964.776.5.209a.726.726,0,0,1,.167.083" transform="translate(-21.733 -26.963)" fill="#263238"/>
            <path id="Trazado_600357" data-name="Trazado 600357" d="M164.4,186.938a.618.618,0,1,1-.618-.618.618.618,0,0,1,.618.618" transform="translate(-39.513 -45.121)" fill="#263238"/>
            <path id="Trazado_600358" data-name="Trazado 600358" d="M163.776,187.57a.637.637,0,1,1,.637-.637.638.638,0,0,1-.637.637m0-1.237a.6.6,0,1,0,.6.6.6.6,0,0,0-.6-.6" transform="translate(-39.507 -45.115)" fill="#263238"/>
            <path id="Trazado_600359" data-name="Trazado 600359" d="M167.5,187.754a.618.618,0,1,1-.618-.618.618.618,0,0,1,.618.618" transform="translate(-40.264 -45.318)" fill="#263238"/>
            <path id="Trazado_600360" data-name="Trazado 600360" d="M166.876,188.386a.637.637,0,1,1,.637-.637.638.638,0,0,1-.637.637m0-1.237a.6.6,0,1,0,.6.6.6.6,0,0,0-.6-.6" transform="translate(-40.258 -45.312)" fill="#263238"/>
            <path id="Trazado_600361" data-name="Trazado 600361" d="M170.4,188.624a.618.618,0,1,1-.618-.618.618.618,0,0,1,.618.618" transform="translate(-40.967 -45.529)" fill="#263238"/>
            <path id="Trazado_600362" data-name="Trazado 600362" d="M169.778,189.256a.637.637,0,1,1,.637-.637.638.638,0,0,1-.637.637m0-1.237a.6.6,0,1,0,.6.6.6.6,0,0,0-.6-.6" transform="translate(-40.96 -45.523)" fill="#263238"/>
            <path id="Trazado_600363" data-name="Trazado 600363" d="M152.961,179.9a.884.884,0,0,1-.214-.034l-.617-.138-2.364-.566-8.681-2.136c-7.33-1.8-17.445-4.342-28.661-6.941-1.4-.336-2.793-.6-4.163-.973a9.142,9.142,0,0,1-3.752-1.874,10.938,10.938,0,0,1-2.3-3.331l-1.655-3.46-5.678-11.984c-1.593-3.4-2.887-6.155-3.8-8.094-.431-.938-.771-1.677-1.014-2.208l-.255-.579a.87.87,0,0,1-.074-.2.923.923,0,0,1,.111.186l.29.562,1.081,2.177,3.91,8.039,5.753,11.946,1.665,3.45a10.617,10.617,0,0,0,2.217,3.212,8.761,8.761,0,0,0,3.6,1.782c1.339.362,2.745.632,4.145.967,11.224,2.6,21.327,5.187,28.641,7.055l8.651,2.258,2.346.637.607.176a.9.9,0,0,1,.2.074" transform="translate(-21.732 -33.268)" fill="#263238"/>
            <path id="Trazado_600364" data-name="Trazado 600364" d="M121.267,190.749c.015.023-.171.179-.523.441s-.868.631-1.521,1.068a24.528,24.528,0,0,1-5.453,2.834,12.448,12.448,0,0,1-6.11.612,8.1,8.1,0,0,1-1.8-.518,2.005,2.005,0,0,1-.6-.327,21.255,21.255,0,0,0,2.446.568,13.236,13.236,0,0,0,5.94-.709,29.188,29.188,0,0,0,5.431-2.7,18.855,18.855,0,0,1,2.194-1.273" transform="translate(-25.489 -46.192)" fill="#263238"/>
            <path id="Trazado_600365" data-name="Trazado 600365" d="M123.055,196.549a.9.9,0,0,1,.109.285,6.647,6.647,0,0,1,.2.851,9.377,9.377,0,0,1-.03,3.214,9.82,9.82,0,0,1-1.97,4.339,9.721,9.721,0,0,1-10.7,2.989,9.806,9.806,0,0,1-3.935-2.69,9.37,9.37,0,0,1-1.691-2.733,6.55,6.55,0,0,1-.268-.831.9.9,0,0,1-.055-.3,11.582,11.582,0,0,0,2.221,3.677,9.8,9.8,0,0,0,3.85,2.536,9.507,9.507,0,0,0,10.3-2.877,9.787,9.787,0,0,0,1.978-4.164,11.573,11.573,0,0,0-.006-4.3" transform="translate(-25.358 -47.598)" fill="#263238"/>
            <path id="Trazado_600366" data-name="Trazado 600366" d="M109.734,53.443l.1,28.238a8.4,8.4,0,1,0,16.8-.072c-.01-2.126-.014-3.9,0-4.117,0,0,7.187-.7,7.68-7.819.239-3.439.154-10.563,0-17.007a13.288,13.288,0,0,0-12.533-12.946l-.687-.039c-7.434.011-11.578,6.33-11.362,13.761" transform="translate(-26.572 -9.61)" fill="#b78876"/>
            <path id="Trazado_600367" data-name="Trazado 600367" d="M129.142,88.429a16.585,16.585,0,0,1-9.134-3.168s1.9,5.25,9.045,5.014Z" transform="translate(-29.062 -20.647)" fill="#aa6550"/>
            <path id="Trazado_600368" data-name="Trazado 600368" d="M139.2,62.031a1.018,1.018,0,0,1-1.039.97.974.974,0,0,1-1-.977,1.02,1.02,0,0,1,1.038-.971.975.975,0,0,1,1,.978" transform="translate(-33.216 -14.785)" fill="#263238"/>
            <path id="Trazado_600369" data-name="Trazado 600369" d="M138.829,60.377c-.133.125-.872-.489-1.967-.548-1.092-.076-1.928.442-2.039.3-.055-.062.087-.295.452-.529a2.792,2.792,0,0,1,1.641-.405,2.679,2.679,0,0,1,1.555.6c.322.277.422.524.357.58" transform="translate(-32.647 -14.334)" fill="#263238"/>
            <path id="Trazado_600370" data-name="Trazado 600370" d="M125.163,61.917a1.019,1.019,0,0,1-1.039.97.974.974,0,0,1-1-.977,1.02,1.02,0,0,1,1.038-.971.975.975,0,0,1,1,.978" transform="translate(-29.818 -14.757)" fill="#263238"/>
            <path id="Trazado_600371" data-name="Trazado 600371" d="M124.454,60.051c-.134.126-.873-.489-1.967-.548-1.093-.075-1.928.442-2.039.3-.055-.062.086-.294.452-.529a2.8,2.8,0,0,1,1.641-.405,2.682,2.682,0,0,1,1.556.6c.321.277.422.524.357.58" transform="translate(-29.166 -14.255)" fill="#263238"/>
            <path id="Trazado_600372" data-name="Trazado 600372" d="M130.313,68.86a7.284,7.284,0,0,1,1.8-.22c.281-.013.549-.053.606-.241a1.42,1.42,0,0,0-.139-.839q-.336-1.037-.7-2.176a36.593,36.593,0,0,1-1.539-5.672,36.68,36.68,0,0,1,1.992,5.535q.35,1.144.669,2.186a1.617,1.617,0,0,1,.083,1.1.7.7,0,0,1-.483.383,1.9,1.9,0,0,1-.478.039,7.114,7.114,0,0,1-1.8-.1" transform="translate(-31.558 -14.46)" fill="#263238"/>
            <path id="Trazado_600373" data-name="Trazado 600373" d="M124.714,57.131c-.125.291-1.209.088-2.5.17-1.294.055-2.352.372-2.507.1-.068-.132.128-.4.563-.665a4.358,4.358,0,0,1,3.816-.2c.46.217.684.464.63.6" transform="translate(-28.985 -13.606)" fill="#263238"/>
            <path id="Trazado_600374" data-name="Trazado 600374" d="M138.8,56.912c-.207.238-.946-.064-1.852-.127-.9-.1-1.683.072-1.845-.2-.07-.13.064-.373.414-.589a2.689,2.689,0,0,1,2.979.262c.306.274.4.536.3.652" transform="translate(-32.714 -13.48)" fill="#263238"/>
            <path id="Trazado_600375" data-name="Trazado 600375" d="M108.531,64.74c-.118-.06-4.811-1.726-4.933,3.152s4.8,3.994,4.812,3.854.121-7.006.121-7.006" transform="translate(-25.088 -15.6)" fill="#b78876"/>
            <path id="Trazado_600376" data-name="Trazado 600376" d="M107.362,70.359c-.021-.016-.086.058-.232.12a.849.849,0,0,1-.635,0,2.1,2.1,0,0,1-.926-1.91,2.808,2.808,0,0,1,.268-1.211.98.98,0,0,1,.656-.636.431.431,0,0,1,.5.246c.062.138.029.234.054.243s.107-.079.073-.281a.539.539,0,0,0-.184-.311.643.643,0,0,0-.467-.136,1.2,1.2,0,0,0-.906.734,2.888,2.888,0,0,0-.329,1.353,2.207,2.207,0,0,0,1.187,2.137.912.912,0,0,0,.781-.11c.154-.117.183-.225.166-.234" transform="translate(-25.483 -16.099)" fill="#aa6550"/>
            <path id="Trazado_600377" data-name="Trazado 600377" d="M106.38,58.12a2.565,2.565,0,0,1,2.276,1.335c.277.714.3,1.505.577,2.219a1.724,1.724,0,0,0,1.707,1.25,1.5,1.5,0,0,0,1.078-1.053,4.12,4.12,0,0,0,.1-1.569c-.157-2.29-.506-4.572-.468-6.867A11.716,11.716,0,0,1,113.47,46.9a6.41,6.41,0,0,1,5.878-2.877c1.507.208,2.849,1.077,4.341,1.373a5.958,5.958,0,0,0,5.036-1.368,2.265,2.265,0,0,1,.24-.172,1.314,1.314,0,0,0,.555-1.491,1.267,1.267,0,0,0-.261-.483c-2.825-2.928-8.156-4-12.152-3.237a14.231,14.231,0,0,0-9.753,6.933c-1.906,3.6-1.7,8.759-.975,12.548" transform="translate(-25.636 -9.299)" fill="#263238"/>
            <path id="Trazado_600378" data-name="Trazado 600378" d="M126.846,72.916c.178-.011.18,1.175,1.2,2.017s2.277.711,2.286.877c.016.074-.282.23-.815.245a2.953,2.953,0,0,1-1.908-.665,2.574,2.574,0,0,1-.926-1.691c-.045-.5.087-.79.168-.783" transform="translate(-30.675 -17.658)" fill="#263238"/>
            <path id="Trazado_600379" data-name="Trazado 600379" d="M216.759,124.116s5.341-4.693,6.353-5.037,9.052-.493,9.595-.09,8.682,4.867,7.334,5.55-6.994-2.513-6.994-2.513l-.95.125s4.924,2.629,5.8,3.642c.808.932.035,2.048-.885,1.62s-5.145-2.868-5.478-2.774,4.5,2.921,4.949,3.445c.6.7.212,2.068-.715,1.675-.546-.233-5.009-3.188-5.009-3.188a44.2,44.2,0,0,1,3.608,3.3c.394.759-.362,1.444-1.14.968-.534-.327-2.826-2.582-3.541-3.018,0,0-.79-.056-1.951,1.181S222,131.937,222,131.937Z" transform="translate(-52.492 -28.757)" fill="#b78876"/>
            <path id="Trazado_600380" data-name="Trazado 600380" d="M243.886,125.5a4.235,4.235,0,0,1-1.726-.108,9.887,9.887,0,0,1-1.808-.541c-.635-.3-1.322-.653-2.046-1.021l-1.532-.793.1.024a24.627,24.627,0,0,1-4.133-.117,24.526,24.526,0,0,1,4.128-.293l.048,0,.052.026,1.526.769,2.012,1.041a12.137,12.137,0,0,0,1.722.61c1.009.272,1.663.338,1.657.4" transform="translate(-56.362 -29.702)" fill="#aa6550"/>
            <path id="Trazado_600381" data-name="Trazado 600381" d="M219.382,126.429a1.825,1.825,0,0,0,2.011.692c.744-.158,1.413-.564,2.145-.775,2.186-.632,4.619.537,6.773-.2.3-.1.638-.324.6-.639-.033-.292-.363-.437-.643-.527l-7.183-2.289" transform="translate(-53.127 -29.712)" fill="#b78876"/>
            <path id="Trazado_600382" data-name="Trazado 600382" d="M223.085,122.692a3.026,3.026,0,0,1,.8.167c.508.135,1.238.343,2.139.61l3.156.957.91.282c.282.112.7.133.972.578a.638.638,0,0,1-.113.7,1.307,1.307,0,0,1-.517.336,4.906,4.906,0,0,1-1.085.243,28.845,28.845,0,0,1-4.055-.219,5.667,5.667,0,0,0-1.691.161c-.512.139-.976.361-1.425.523a2.655,2.655,0,0,1-2.247.017c-.492-.283-.566-.629-.548-.624a2.2,2.2,0,0,0,.621.474,2.568,2.568,0,0,0,2.064-.151c.427-.172.886-.415,1.438-.581a5.828,5.828,0,0,1,1.8-.214,33.614,33.614,0,0,0,4,.187,4.628,4.628,0,0,0,.981-.214c.295-.106.495-.318.4-.458-.078-.169-.408-.275-.716-.37l-.906-.3-3.128-1.045c-.888-.3-1.605-.556-2.1-.74a3.044,3.044,0,0,1-.751-.327" transform="translate(-53.126 -29.71)" fill="#aa6550"/>
            <path id="Trazado_600383" data-name="Trazado 600383" d="M175.767,177.154l8.86-.878s11.715,8.024,10.592,9.79-3.049,0-3.049,0,2.086,2.568-1.284,3.37c0,0-.8,1.765-2.086,1.6l-.8.011s-.726,2.236-1.807,1.755a35.154,35.154,0,0,1-4.351-3.37l-9.086-.8Z" transform="translate(-41.835 -42.688)" fill="#b78876"/>
            <path id="Trazado_600384" data-name="Trazado 600384" d="M183.007,189.442s-2.269.872-2.741,1.782-.745,3.059.718,3.45a12.975,12.975,0,0,0,2.577-.081l-.56-2.385a16.728,16.728,0,0,1,1.353-1.4c.483-.4-.045-1.971-1.348-1.367" transform="translate(-43.563 -45.844)" fill="#ffbe9d"/>
            <path id="Trazado_600385" data-name="Trazado 600385" d="M186.432,191.041s-2.269.871-2.741,1.782a2,2,0,0,0,1.3,2.831,10.564,10.564,0,0,0,2.341-.08l-.238-.462c-.46-.894-.657-1.619.152-2.216.045-.033.5-.457.53-.489a.988.988,0,0,0-1.348-1.367" transform="translate(-44.435 -46.231)" fill="#ffbe9d"/>
            <path id="Trazado_600386" data-name="Trazado 600386" d="M187.98,196.13a1.316,1.316,0,0,1-.184-1.559,2.15,2.15,0,0,1,1.33-.97,1,1,0,0,1,1.037.169.876.876,0,0,1,.146.681,3.576,3.576,0,0,1-.89,1.658c-.211.264-.471.554-.809.546s-.594-.324-.79-.611" transform="translate(-45.437 -46.868)" fill="#ffbe9d"/>
            <path id="Trazado_600387" data-name="Trazado 600387" d="M124.491,102.465l1.992-.754,1.727,3.086-.962,3.294-2.031.5-2.026-2.552Z" transform="translate(-29.833 -24.631)" fill="#e8505b"/>
            <path id="Trazado_600388" data-name="Trazado 600388" d="M125.864,110.631s2.577,14.179,4.727,24.154c0,0,1.763,8.3,2.477,10.218a28.027,28.027,0,0,0,3.248,5.334l2.5.965-1.525-14.014-9.391-27.16Z" transform="translate(-30.48 -26.67)" fill="#e8505b"/>
            <g id="Grupo_878251" data-name="Grupo 878251" transform="translate(93.358 77.08)">
              <g id="Grupo_878250" data-name="Grupo 878250">
                <g id="Grupo_878249" data-name="Grupo 878249" clip-path="url(#clip-path-5)">
                  <path id="Trazado_600389" data-name="Trazado 600389" d="M124.491,102.465l1.992-.754,1.727,3.086-.962,3.294-2.031.5-2.026-2.552Z" transform="translate(-123.191 -101.711)" fill="#583cb6"/>
                </g>
              </g>
            </g>
            <g id="Grupo_878254" data-name="Grupo 878254" transform="translate(95.384 83.459)">
              <g id="Grupo_878253" data-name="Grupo 878253">
                <g id="Grupo_878252" data-name="Grupo 878252" clip-path="url(#clip-path-6)">
                  <path id="Trazado_600390" data-name="Trazado 600390" d="M125.864,110.631s2.577,14.179,4.727,24.154c0,0,2.019,8.225,2.477,10.218.268,1.171,3.248,5.334,3.248,5.334l2.5.965-1.525-14.014-9.391-27.16Z" transform="translate(-125.864 -110.129)" fill="#583cb6"/>
                </g>
              </g>
            </g>
            <path id="Trazado_600391" data-name="Trazado 600391" d="M108.649,91.336,120.6,99.953l-2.585,7.108-10.879-11.2Z" transform="translate(-25.946 -22.119)" fill="#f5f5f5"/>
            <path id="Trazado_600392" data-name="Trazado 600392" d="M127.535,99.33l3.342-7.453,1.889,6.148-2.625,6.462Z" transform="translate(-30.885 -22.249)" fill="#f5f5f5"/>
            <path id="Trazado_600393" data-name="Trazado 600393" d="M120.687,101.211a2,2,0,0,1-.134.546c-.135.412-.295.9-.484,1.486-.427,1.268-1.05,3.054-1.793,5.139l-.1.289-.208-.229-2.787-3.074c-2.166-2.4-4.11-4.595-5.5-6.193l-1.634-1.907a4.229,4.229,0,0,1-.559-.735,4.126,4.126,0,0,1,.674.633l1.726,1.823c1.446,1.551,3.422,3.712,5.588,6.116l2.768,3.091-.311.061c.77-2.076,1.44-3.844,1.927-5.09l.584-1.45a1.981,1.981,0,0,1,.248-.5" transform="translate(-26.028 -23.377)" fill="#263238"/>
            <path id="Trazado_600394" data-name="Trazado 600394" d="M132.777,99.989a8.38,8.38,0,0,1-.558,1.744c-.392,1.059-.957,2.511-1.605,4.105-.1.235-.191.466-.28.687l-.2.48-.171-.488a33.523,33.523,0,0,0-2.383-4.9,5.056,5.056,0,0,1,1,1.244,16.467,16.467,0,0,1,1.756,3.522l-.366-.008.277-.687c.648-1.594,1.255-3.03,1.713-4.061a8.483,8.483,0,0,1,.816-1.639" transform="translate(-30.895 -24.214)" fill="#263238"/>
          </g>
        </g>
        <g id="Grupo_878264" data-name="Grupo 878264">
          <g id="Grupo_878263" data-name="Grupo 878263" clip-path="url(#clip-path)">
            <path id="Trazado_600395" data-name="Trazado 600395" d="M330.851,396.1l4.611,18.3,7.82,13.421A1.933,1.933,0,0,1,340.7,430.5c-3.512-1.895-16.394-8.928-16.657-10.286-.3-1.573-6.145-18.978-6.145-18.978Z" transform="translate(-76.985 -95.923)" fill="#7f8d93"/>
            <g id="Grupo_878259" data-name="Grupo 878259" transform="translate(246.718 323.061)" opacity="0.6">
              <g id="Grupo_878258" data-name="Grupo 878258">
                <g id="Grupo_878257" data-name="Grupo 878257" clip-path="url(#clip-path-8)">
                  <path id="Trazado_600396" data-name="Trazado 600396" d="M344.324,437.837,325.559,426.3l.213.771a2.909,2.909,0,0,0,1.168,1.635c1.53,1.037,5.818,3.811,15.56,9.124a1.934,1.934,0,0,0,1.825.012" transform="translate(-325.558 -426.296)" fill="#fff"/>
                </g>
              </g>
            </g>
            <g id="Grupo_878262" data-name="Grupo 878262" transform="translate(247.364 316.095)" opacity="0.6">
              <g id="Grupo_878261" data-name="Grupo 878261">
                <g id="Grupo_878260" data-name="Grupo 878260" clip-path="url(#clip-path-9)">
                  <path id="Trazado_600397" data-name="Trazado 600397" d="M327.875,417.171a1.17,1.17,0,0,1,.715,1.388,1.126,1.126,0,0,1-1.369.721,1.235,1.235,0,0,1-.75-1.473,1.167,1.167,0,0,1,1.507-.593" transform="translate(-326.41 -417.103)" fill="#fff"/>
                </g>
              </g>
            </g>
            <path id="Trazado_600398" data-name="Trazado 600398" d="M341.919,431.621a4.169,4.169,0,0,1,3.187-2.835c0-.049-.266-.127-.708-.069a3.084,3.084,0,0,0-2.465,2.192c-.108.433-.063.709-.014.712" transform="translate(-82.789 -103.816)" fill="#263238"/>
            <path id="Trazado_600399" data-name="Trazado 600399" d="M344.527,434.644c.108.055.528-.7,1.394-1.228a15.746,15.746,0,0,1,1.714-.72,2.147,2.147,0,0,0-1.933.369c-.984.609-1.283,1.556-1.175,1.579" transform="translate(-83.428 -104.762)" fill="#263238"/>
            <path id="Trazado_600400" data-name="Trazado 600400" d="M337.611,428.216a9.94,9.94,0,0,1,4.549-3.414,5.283,5.283,0,0,0-4.549,3.414" transform="translate(-81.755 -102.866)" fill="#263238"/>
            <path id="Trazado_600401" data-name="Trazado 600401" d="M335.15,421.6c.079.1.967-.6,2.261-1.011,1.289-.426,2.418-.38,2.426-.5a4.8,4.8,0,0,0-4.687,1.516" transform="translate(-81.161 -101.692)" fill="#263238"/>
            <path id="Trazado_600402" data-name="Trazado 600402" d="M333.185,414.566a6.145,6.145,0,0,1,4.905-1.176c.02-.046-.242-.219-.729-.346a4.21,4.21,0,0,0-3.684.883c-.376.333-.531.606-.493.639" transform="translate(-80.685 -99.998)" fill="#263238"/>
            <path id="Trazado_600403" data-name="Trazado 600403" d="M334.786,411.147a1.62,1.62,0,0,0-.165-.695,4.965,4.965,0,0,0-1.045-1.651,2.2,2.2,0,0,0-1.188-.761.778.778,0,0,0-.8.4,1.267,1.267,0,0,0-.061.9,2.734,2.734,0,0,0,2.983,1.8,3.171,3.171,0,0,0,2.559-2.428,1.1,1.1,0,0,0-.194-.9.761.761,0,0,0-.876-.176,2.7,2.7,0,0,0-1.026.953,5.527,5.527,0,0,0-.85,1.757,1.687,1.687,0,0,0-.106.706,8.793,8.793,0,0,1,1.19-2.285,2.524,2.524,0,0,1,.915-.81.406.406,0,0,1,.478.093.756.756,0,0,1,.092.6,2.828,2.828,0,0,1-2.242,2.079,2.373,2.373,0,0,1-2.554-1.491.918.918,0,0,1,.016-.631.421.421,0,0,1,.437-.227,1.987,1.987,0,0,1,1.018.625,7.319,7.319,0,0,1,1.419,2.139" transform="translate(-80.272 -98.701)" fill="#263238"/>
            <path id="Trazado_600404" data-name="Trazado 600404" d="M255.4,400.45l.977,14.1s-14.006,5.729-14.079,8.353l27.412-.912-.621-22.035Z" transform="translate(-58.676 -96.857)" fill="#7f8d93"/>
            <path id="Trazado_600405" data-name="Trazado 600405" d="M271.586,417.264a1.121,1.121,0,0,1,.817,1.252,1.077,1.077,0,0,1-1.234.82,1.181,1.181,0,0,1-.858-1.33,1.117,1.117,0,0,1,1.378-.711" transform="translate(-65.453 -101.038)" fill="#e0e0e0"/>
            <path id="Trazado_600406" data-name="Trazado 600406" d="M269.7,428.325l-.149-2.219-26.226,1.7s-1.2.572-1.036,1.427Z" transform="translate(-58.67 -103.189)" fill="#e0e0e0"/>
            <path id="Trazado_600407" data-name="Trazado 600407" d="M260.279,419.007c.009.134.681.172,1.353.581.684.391,1.043.959,1.164.9.123-.03-.1-.824-.927-1.3s-1.623-.3-1.59-.179" transform="translate(-63.031 -101.436)" fill="#263238"/>
            <path id="Trazado_600408" data-name="Trazado 600408" d="M256.538,420.728c-.026.131.561.339,1.034.89.49.537.624,1.145.758,1.134.127.017.193-.77-.408-1.444s-1.385-.709-1.384-.581" transform="translate(-62.125 -101.872)" fill="#263238"/>
            <path id="Trazado_600409" data-name="Trazado 600409" d="M254.168,424.632c.123.024.286-.65-.082-1.372s-1-.993-1.056-.879c-.072.112.348.492.64,1.089s.365,1.153.5,1.162" transform="translate(-61.274 -102.281)" fill="#263238"/>
            <path id="Trazado_600410" data-name="Trazado 600410" d="M260.454,414.61c.06.12.668-.085,1.426-.059s1.356.246,1.422.128c.074-.1-.517-.575-1.41-.594s-1.507.422-1.438.525" transform="translate(-63.072 -100.278)" fill="#263238"/>
            <path id="Trazado_600411" data-name="Trazado 600411" d="M260.265,410.277a2.573,2.573,0,0,0,1.372-.053,6.122,6.122,0,0,0,1.422-.489,6.52,6.52,0,0,0,.775-.444,1.7,1.7,0,0,0,.4-.337.585.585,0,0,0,.038-.714.735.735,0,0,0-.6-.287,1.79,1.79,0,0,0-.512.088,4.93,4.93,0,0,0-.844.321,4.859,4.859,0,0,0-1.238.873c-.617.61-.817,1.118-.771,1.142.062.042.358-.387.989-.9a5.5,5.5,0,0,1,1.2-.731,5.024,5.024,0,0,1,.781-.269c.287-.086.534-.1.613.03.029.048.033.067-.025.155a1.343,1.343,0,0,1-.3.246,7.078,7.078,0,0,1-.711.439,7.652,7.652,0,0,1-1.31.553,9.349,9.349,0,0,0-1.289.371" transform="translate(-63.028 -98.793)" fill="#263238"/>
            <path id="Trazado_600412" data-name="Trazado 600412" d="M259.9,409.883a2.188,2.188,0,0,0,.318-1.338,4.478,4.478,0,0,0-.237-1.5,4.536,4.536,0,0,0-.378-.821,1.134,1.134,0,0,0-.9-.664.64.64,0,0,0-.56.4,1.823,1.823,0,0,0-.124.508,3.041,3.041,0,0,0,.03.924,3.158,3.158,0,0,0,.634,1.4c.559.693,1.123.834,1.133.788.042-.069-.433-.311-.865-.981a3.169,3.169,0,0,1-.477-1.275,2.814,2.814,0,0,1,0-.794c.033-.293.135-.531.245-.505.136-.006.375.205.495.434a4.523,4.523,0,0,1,.365.733,4.944,4.944,0,0,1,.311,1.361c.064.8-.062,1.309.011,1.327" transform="translate(-62.478 -98.214)" fill="#263238"/>
            <path id="Trazado_600413" data-name="Trazado 600413" d="M249.713,198.177l4.409,164.113,21.623-.65-1.66-140.854,27.555,144.77,19.53-5.1L295.956,198.49Z" transform="translate(-60.472 -47.992)" fill="#263238"/>
            <path id="Trazado_600414" data-name="Trazado 600414" d="M265.285,366.462c-.109,0-.2-34.019-.2-75.974s.088-75.982.2-75.982.2,34.012.2,75.982-.088,75.974-.2,75.974" transform="translate(-64.196 -51.946)" fill="#455a64"/>
            <path id="Trazado_600415" data-name="Trazado 600415" d="M319.289,372.4c-.108.017-5.16-32.6-11.283-72.842s-11-72.892-10.891-72.908,5.158,32.593,11.282,72.849,11,72.885,10.892,72.9" transform="translate(-71.951 -54.888)" fill="#455a64"/>
            <path id="Trazado_600416" data-name="Trazado 600416" d="M281.078,56.286a33.7,33.7,0,0,0,1.828-5.223c.259-1.363.668-3.407.12-4.681a3.274,3.274,0,0,0-3.541-2.149,7.913,7.913,0,0,0-4.58-6.2,20.151,20.151,0,0,0-7.584-1.971,6.435,6.435,0,0,0-2.843.356,3.643,3.643,0,0,0-1.709,1.843,6.278,6.278,0,0,0-5.572-.893c-2.086.568-4.467,1.694-5.382,3.651a6.111,6.111,0,0,0-.165,4.626c.406,1.274,1.754,3.275,3.007,2.809" transform="translate(-60.852 -8.727)" fill="#263238"/>
            <path id="Trazado_600417" data-name="Trazado 600417" d="M271.462,94.029h0a9.362,9.362,0,0,1-9.156-9.827c.131-2.619.252-4.731.252-4.731s-7.136-.927-7.4-8.031.557-23.453.557-23.453a24.707,24.707,0,0,1,24.895,2.5l1.073.784-.665,33.586a9.362,9.362,0,0,1-9.555,9.174" transform="translate(-61.778 -11.074)" fill="#ffbe9d"/>
            <path id="Trazado_600418" data-name="Trazado 600418" d="M264.889,89.2a16.534,16.534,0,0,0,9.2-2.865s-2.192,5.513-9.3,5.051Z" transform="translate(-64.123 -20.908)" fill="#eb996e"/>
            <path id="Trazado_600419" data-name="Trazado 600419" d="M289.229,62.7c.12-.055,4.846-1.566,4.813,3.3s-4.908,3.826-4.915,3.686.1-6.982.1-6.982" transform="translate(-70.017 -15.119)" fill="#ffbe9d"/>
            <path id="Trazado_600420" data-name="Trazado 600420" d="M291.1,68.35c.021-.015.084.06.227.127a.85.85,0,0,0,.634.017,2.1,2.1,0,0,0,.982-1.874,2.8,2.8,0,0,0-.228-1.214.979.979,0,0,0-.633-.655.432.432,0,0,0-.5.229c-.066.136-.036.233-.061.241s-.1-.083-.064-.283a.545.545,0,0,1,.193-.3.639.639,0,0,1,.47-.121,1.191,1.191,0,0,1,.879.76,2.887,2.887,0,0,1,.285,1.357,2.2,2.2,0,0,1-1.25,2.092.908.908,0,0,1-.774-.134c-.15-.121-.174-.23-.158-.239" transform="translate(-70.494 -15.622)" fill="#eb996e"/>
            <path id="Trazado_600421" data-name="Trazado 600421" d="M258.343,63.053a1.015,1.015,0,0,0,1,1,.971.971,0,0,0,1.023-.941,1.016,1.016,0,0,0-1-1,.972.972,0,0,0-1.024.942" transform="translate(-62.562 -15.041)" fill="#263238"/>
            <path id="Trazado_600422" data-name="Trazado 600422" d="M258.007,61.5c.129.129.884-.459,1.976-.483,1.091-.04,1.906.5,2.022.365.056-.061-.078-.3-.434-.542a2.79,2.79,0,0,0-1.622-.455,2.679,2.679,0,0,0-1.569.55c-.329.266-.437.509-.374.566" transform="translate(-62.477 -14.622)" fill="#263238"/>
            <path id="Trazado_600423" data-name="Trazado 600423" d="M272.464,63.038a1.016,1.016,0,0,0,1,1,.971.971,0,0,0,1.023-.941,1.016,1.016,0,0,0-1-1,.971.971,0,0,0-1.024.942" transform="translate(-65.982 -15.037)" fill="#263238"/>
            <path id="Trazado_600424" data-name="Trazado 600424" d="M272.179,61.413c.13.13.885-.459,1.976-.483,1.09-.04,1.906.5,2.021.365.057-.06-.077-.3-.433-.541a2.781,2.781,0,0,0-1.622-.456,2.681,2.681,0,0,0-1.569.55c-.328.266-.437.509-.374.566" transform="translate(-65.909 -14.602)" fill="#263238"/>
            <path id="Trazado_600425" data-name="Trazado 600425" d="M266.327,69.675a7.238,7.238,0,0,0-1.782-.275c-.28-.022-.545-.071-.6-.26a1.414,1.414,0,0,1,.165-.831q.368-1.022.771-2.144a36.567,36.567,0,0,0,1.713-5.6,36.554,36.554,0,0,0-2.16,5.45q-.385,1.129-.736,2.157a1.61,1.61,0,0,0-.117,1.1.7.7,0,0,0,.468.4,1.925,1.925,0,0,0,.476.055,7.129,7.129,0,0,0,1.8-.043" transform="translate(-63.817 -14.666)" fill="#263238"/>
            <path id="Trazado_600426" data-name="Trazado 600426" d="M270.4,73.478c-.178-.006-.151,1.179-1.144,2.046s-2.259.768-2.264.934c-.015.074.287.223.821.224a2.952,2.952,0,0,0,1.891-.713,2.572,2.572,0,0,0,.884-1.713c.033-.5-.107-.787-.188-.778" transform="translate(-64.657 -17.794)" fill="#263238"/>
            <path id="Trazado_600427" data-name="Trazado 600427" d="M271.669,55.853c.115.294,1.2.126,2.487.249,1.288.1,2.33.446,2.493.175.073-.13-.114-.4-.54-.681a4.343,4.343,0,0,0-3.794-.323c-.465.2-.7.44-.646.581" transform="translate(-65.788 -13.314)" fill="#263238"/>
            <path id="Trazado_600428" data-name="Trazado 600428" d="M258.428,57.3c.2.243.944-.033,1.848-.067.9-.067,1.675.124,1.845-.139.074-.128-.052-.374-.393-.6a2.678,2.678,0,0,0-2.975.167c-.314.263-.412.521-.324.64" transform="translate(-62.575 -13.589)" fill="#263238"/>
            <path id="Trazado_600429" data-name="Trazado 600429" d="M281.495,51.267c-.045,2.073.475,4.367.164,6.411-.047.308-.824,1.149-.887,1.454-.373,1.811-1.1,2.6-2.217.771a16.271,16.271,0,0,1-.925-3.484l-1.457-6.529a11.364,11.364,0,0,1-5.37,1.416,5.525,5.525,0,0,1-4.686-2.608,5.733,5.733,0,0,1-8.862,1.39,2.394,2.394,0,0,1-3.148.754,2.842,2.842,0,0,1-1.233-3.106c.446-1.746,2.279-2.734,3.995-3.285,6.708-2.158,14.221-.787,20.386,2.626a10.308,10.308,0,0,1,2.5,1.786c.713.741,1.7,1.608,1.753,2.634" transform="translate(-61.217 -10.513)" fill="#263238"/>
            <path id="Trazado_600430" data-name="Trazado 600430" d="M283.927,52.969a3.492,3.492,0,0,1,1.1.177,3.773,3.773,0,0,1,1.014.653c.345.3.69.7,1.1,1.084a3.581,3.581,0,0,0,1.382.868,2.461,2.461,0,0,0,1.347.018c.752-.211,1.05-.625,1.014-.65a7.894,7.894,0,0,1-1.076.362,2.4,2.4,0,0,1-1.166-.1,3.54,3.54,0,0,1-1.216-.808c-.395-.368-.75-.761-1.142-1.075a3.508,3.508,0,0,0-1.164-.637c-.764-.224-1.234.069-1.2.1" transform="translate(-68.758 -12.782)" fill="#455a64"/>
            <path id="Trazado_600431" data-name="Trazado 600431" d="M285.022,55.8a2.187,2.187,0,0,1,.77.343,3.957,3.957,0,0,1,.618.7,3.316,3.316,0,0,0,3.138,1.328c.584-.088.889-.3.868-.347-.023-.062-.355.047-.893.054a3.655,3.655,0,0,1-1.969-.53c-.693-.393-1.04-1.129-1.6-1.451s-.975-.149-.937-.1" transform="translate(-69.023 -13.49)" fill="#455a64"/>
            <path id="Trazado_600432" data-name="Trazado 600432" d="M259.395,37.588c0-.022-.23-.059-.624.058a2.721,2.721,0,0,0-1.37,1.029,6.509,6.509,0,0,0-.4,5.479,7.713,7.713,0,0,0,3.481,4.281,6.828,6.828,0,0,0,1.556.664,1.5,1.5,0,0,0,.612.1,20.372,20.372,0,0,1-2.014-1.018,7.888,7.888,0,0,1-3.238-4.16,6.544,6.544,0,0,1,.245-5.184,2.793,2.793,0,0,1,1.184-1.043c.349-.155.57-.175.566-.21" transform="translate(-62.141 -9.097)" fill="#455a64"/>
            <path id="Trazado_600433" data-name="Trazado 600433" d="M252.509,41.488a3.113,3.113,0,0,0,.061,1.369,8.473,8.473,0,0,0,3.6,5.413,3.1,3.1,0,0,0,1.239.585,13.8,13.8,0,0,1-3.232-3.164,13.8,13.8,0,0,1-1.668-4.2" transform="translate(-61.139 -10.047)" fill="#455a64"/>
            <path id="Trazado_600434" data-name="Trazado 600434" d="M196.737,172.171l-10.4.527A2.455,2.455,0,0,0,184,175.2c.049,2.374.45,5.628,2.3,5.319l1.185-5.178,8.629,7.613a6.258,6.258,0,0,0,3.109,1.524l2.028-.21Z" transform="translate(-44.56 -41.694)" fill="#ffbe9d"/>
            <path id="Trazado_600435" data-name="Trazado 600435" d="M263.824,98.074l-5.435,1.8L255.692,145v40.031l33.367,3.7L289.446,131l-2.155-28.733-5.1-6.091Z" transform="translate(-61.92 -23.29)" fill="#e0e0e0"/>
            <path id="Trazado_600436" data-name="Trazado 600436" d="M264.215,99.253V94.879l19.829-2.759-.8,10.075-4.558,7.9-7.446.415-5.381-3.324Z" transform="translate(-63.984 -22.308)" fill="#e0e0e0"/>
            <path id="Trazado_600437" data-name="Trazado 600437" d="M266.518,99.586a5.194,5.194,0,0,1-.112-2,5.2,5.2,0,0,1,.283-1.982,5.2,5.2,0,0,1,.112,2,5.207,5.207,0,0,1-.283,1.982" transform="translate(-64.51 -23.152)" fill="#263238"/>
            <path id="Trazado_600438" data-name="Trazado 600438" d="M273.069,98.961A6.437,6.437,0,0,1,273,96.727a6.453,6.453,0,0,1,.327-2.211,6.448,6.448,0,0,1,.067,2.235,6.456,6.456,0,0,1-.327,2.211" transform="translate(-66.103 -22.889)" fill="#263238"/>
            <path id="Trazado_600439" data-name="Trazado 600439" d="M279.4,98.219a7.2,7.2,0,0,1-.024-2.363,7.214,7.214,0,0,1,.369-2.333,7.172,7.172,0,0,1,.024,2.363,7.192,7.192,0,0,1-.369,2.333" transform="translate(-67.641 -22.648)" fill="#263238"/>
            <path id="Trazado_600440" data-name="Trazado 600440" d="M285.447,97.3a9.149,9.149,0,0,1,.2-4.451,7.987,7.987,0,0,1,.017,2.231,8.052,8.052,0,0,1-.221,2.22" transform="translate(-69.08 -22.485)" fill="#263238"/>
            <path id="Trazado_600441" data-name="Trazado 600441" d="M279.354,123.9a2.99,2.99,0,0,1-.263.741c-.192.468-.49,1.134-.876,1.951-.771,1.632-1.92,3.85-3.327,6.22s-2.811,4.437-3.876,5.894c-.532.729-.975,1.31-1.294,1.7a3,3,0,0,1-.526.585,26.448,26.448,0,0,1,1.591-2.446c1-1.494,2.361-3.577,3.766-5.937s2.583-4.547,3.416-6.143a26.737,26.737,0,0,1,1.389-2.567" transform="translate(-65.189 -30.003)" fill="#263238"/>
            <path id="Trazado_600442" data-name="Trazado 600442" d="M289.461,95.246l5.384,2.593,10.394,2.542a8.659,8.659,0,0,1,7.107,9.633L306.9,152.458l6.5,41.15-25.765-.768-1.511-15.307V135.1Z" transform="translate(-69.29 -23.065)" fill="#455a64"/>
            <path id="Trazado_600443" data-name="Trazado 600443" d="M286.122,145.1a2.7,2.7,0,0,1,.076-.526c.074-.38.172-.875.293-1.492.28-1.337.67-3.194,1.148-5.471L291.57,119.6c.43-1.933.849-3.815,1.25-5.62l.049.174-1.785-1.867-.1-.1.074-.122,3-4.985-.011.149-3.3-8-.9-2.242a5.447,5.447,0,0,1-.285-.8,5.45,5.45,0,0,1,.377.766c.244.548.571,1.286.981,2.207.844,1.954,2.019,4.679,3.43,7.948l.033.076-.043.074-2.961,5.007-.026-.225,1.793,1.86.071.074-.022.1c-.4,1.805-.814,3.688-1.241,5.622-1.576,7.006-3,13.348-4.045,17.992-.528,2.265-.959,4.114-1.27,5.443-.151.61-.272,1.1-.365,1.476a2.637,2.637,0,0,1-.154.509" transform="translate(-69.289 -23.29)" fill="#263238"/>
            <path id="Trazado_600444" data-name="Trazado 600444" d="M201.387,153l22.8-12.709,11.046-29.789a16,16,0,0,1,8.842-9.2L247,100.079l.014,78.434.587,18.58-12.352-3.7,6.3-37.345-2.176-18.381-2.164,8.892a12.076,12.076,0,0,1-5.627,7.563l-23.731,12.325Z" transform="translate(-48.769 -24.236)" fill="#455a64"/>
            <path id="Trazado_600445" data-name="Trazado 600445" d="M201.14,170.676l-1.919.572,5.4,12.866,2.514-.975Z" transform="translate(-48.245 -41.332)" fill="#e0e0e0"/>
            <path id="Trazado_600446" data-name="Trazado 600446" d="M235.559,158.491a10.6,10.6,0,0,0-4.227-5.092,6.382,6.382,0,0,1,4.227,5.092" transform="translate(-56.021 -37.146)" fill="#263238"/>
            <path id="Trazado_600447" data-name="Trazado 600447" d="M204.856,170.094c.024.052-.112.154-.126.374a.341.341,0,1,0,.588-.173c-.131-.178-.3-.189-.309-.247-.026-.043.212-.17.5.045a.675.675,0,1,1-1.052.309c.127-.337.4-.36.4-.309" transform="translate(-49.504 -41.162)" fill="#263238"/>
            <path id="Trazado_600448" data-name="Trazado 600448" d="M207.283,169.07c.024.052-.112.154-.126.374a.341.341,0,1,0,.588-.173c-.131-.178-.3-.19-.309-.247-.026-.043.212-.17.5.045a.675.675,0,1,1-1.052.309c.127-.337.4-.36.4-.309" transform="translate(-50.092 -40.914)" fill="#263238"/>
            <path id="Trazado_600449" data-name="Trazado 600449" d="M260.456,147.26a2.312,2.312,0,0,1-.1-.484c-.054-.36-.124-.823-.21-1.4-.171-1.264-.409-3.011-.7-5.148-.558-4.4-1.319-10.386-2.159-17q-.173-1.411-.342-2.779l-.006-.05.018-.046c.574-1.46,1.132-2.877,1.665-4.232l0,.144-1.644-3.756-.025-.058.017-.058,2.469-8.928.722-2.5a5.981,5.981,0,0,1,.292-.879,5.91,5.91,0,0,1-.187.907c-.157.629-.367,1.476-.629,2.53l-2.332,8.965-.008-.115c.526,1.181,1.085,2.433,1.67,3.745l.032.071-.029.074c-.528,1.357-1.081,2.775-1.65,4.239l.012-.1q.169,1.366.344,2.779c.8,6.624,1.516,12.619,2.045,17.018.239,2.144.433,3.9.574,5.165.056.577.1,1.044.136,1.407a2.283,2.283,0,0,1,.021.493" transform="translate(-62.223 -24.236)" fill="#263238"/>
            <path id="Trazado_600450" data-name="Trazado 600450" d="M252.763,162.47a1.367,1.367,0,0,1-.078-.371l-.148-1.072c-.123-.992-.286-2.326-.487-3.947-.4-3.333-.97-7.935-1.651-13.012s-1.35-9.667-1.841-12.989c-.235-1.616-.428-2.946-.572-3.935-.056-.428-.1-.782-.14-1.073a1.371,1.371,0,0,1-.022-.378,1.406,1.406,0,0,1,.1.365l.213,1.061c.178.922.417,2.26.7,3.916.561,3.312,1.273,7.9,1.956,12.979s1.2,9.691,1.538,13.034c.167,1.671.29,3.025.362,3.961.03.431.055.787.074,1.08a1.364,1.364,0,0,1,0,.379" transform="translate(-60.013 -30.439)" fill="#263238"/>
            <path id="Trazado_600451" data-name="Trazado 600451" d="M250.184,206.424a3.7,3.7,0,0,0,.529.637,2.4,2.4,0,0,0,2.079.466,3.534,3.534,0,0,0,2.256-2.219,13.854,13.854,0,0,0,.637-4.077,9.349,9.349,0,0,0-.422-4.066,7.456,7.456,0,0,0-2.066-2.61,9.633,9.633,0,0,1-1.578-1.718,2.093,2.093,0,0,1-.373-.773c.032-.015.164.258.5.683a11.742,11.742,0,0,0,1.64,1.6,7.407,7.407,0,0,1,2.215,2.678,9.39,9.39,0,0,1,.48,4.228,13.474,13.474,0,0,1-.694,4.192,3.775,3.775,0,0,1-2.53,2.353,2.509,2.509,0,0,1-2.246-.625,1.8,1.8,0,0,1-.368-.532c-.052-.139-.068-.214-.056-.218" transform="translate(-60.585 -46.512)" fill="#263238"/>
            <path id="Trazado_600452" data-name="Trazado 600452" d="M239.01,169.137s.736-8.691,7.637-9.5a10.2,10.2,0,0,1-7.637,9.5" transform="translate(-57.88 -38.66)" fill="#263238"/>
            <path id="Trazado_600453" data-name="Trazado 600453" d="M287.692,204.72c.452.3,20.042,13.11,20.042,13.11l2.261-1.808,1.069-29.384-19.088-14.466-2.626.9Z" transform="translate(-69.67 -41.694)" fill="#ef8b53"/>
            <path id="Trazado_600454" data-name="Trazado 600454" d="M291.969,172.721l.783,31.8H288.54l1.411-31.173Z" transform="translate(-69.875 -41.827)" fill="#e0e0e0"/>
            <path id="Trazado_600455" data-name="Trazado 600455" d="M299.7,219.705a2.464,2.464,0,0,0,2.261,1.538c.056,0,.111.046.165.138a2.245,2.245,0,0,0,1.906,1.186,4.119,4.119,0,0,0,2.148-.621c1.047-.638,2.913-4.822,2.913-4.822l4.42-9.844-7.434-2.009-9.443,2.943c0,.171-2.21,9.112-2.21,9.112a2.271,2.271,0,0,0,2.653-1.407,24.207,24.207,0,0,1,1.666-3.12l.7,4.024-2.685.919a1.784,1.784,0,0,0,1.15,2.042Z" transform="translate(-71.301 -49.71)" fill="#ffbe9d"/>
            <path id="Trazado_600456" data-name="Trazado 600456" d="M305.785,126.872,318.16,149.65l-10.072,29.9,11.2,6.306L333.522,152.6a9.439,9.439,0,0,0-.121-7.7l-17.463-37.508Z" transform="translate(-74.051 -26.007)" fill="#455a64"/>
            <path id="Trazado_600457" data-name="Trazado 600457" d="M308.491,202.607l-1.045,2.317,10.566,5.694,1.107-2.026Z" transform="translate(-74.453 -49.065)" fill="#e0e0e0"/>
            <path id="Trazado_600458" data-name="Trazado 600458" d="M306.965,179.279a.56.56,0,0,1,.033-.153c.035-.119.078-.263.13-.44l.536-1.691,2.056-6.283,7.133-21.392.017.159c-1.44-2.447-2.919-5.033-4.414-7.7-2.727-4.874-5.233-9.569-7.377-13.91-1.058-2.178-2.045-4.257-2.88-6.245a12.518,12.518,0,0,1-1.032-5.9,13.663,13.663,0,0,1,1.106-4.83,9.442,9.442,0,0,1,2.184-3.034,7.487,7.487,0,0,1,1.972-1.3,4.021,4.021,0,0,1,.776-.276,8.709,8.709,0,0,0-2.643,1.691,9.455,9.455,0,0,0-2.089,3.013,13.588,13.588,0,0,0-1.028,4.752,12.292,12.292,0,0,0,1.054,5.761c.844,1.974,1.84,4.043,2.9,6.211,2.158,4.324,4.671,9.008,7.395,13.878,1.494,2.666,2.97,5.253,4.4,7.7l.045.077-.028.083c-2.9,8.536-5.442,15.993-7.264,21.349-.914,2.637-1.648,4.755-2.164,6.246l-.6,1.671-.163.43a.531.531,0,0,1-.066.142" transform="translate(-72.928 -25.737)" fill="#263238"/>
            <path id="Trazado_600459" data-name="Trazado 600459" d="M330.467,162.467a8.783,8.783,0,0,1-1.22-.43,8.68,8.68,0,0,0-6.007.186,8.868,8.868,0,0,1-1.191.506,2.9,2.9,0,0,1,1.076-.76,7.521,7.521,0,0,1,6.221-.194,2.907,2.907,0,0,1,1.121.692" transform="translate(-77.989 -39.036)" fill="#263238"/>
            <path id="Trazado_600460" data-name="Trazado 600460" d="M302.519,125.944l8.893,29.755,1.254-9.784Z" transform="translate(-73.26 -30.5)" fill="#263238"/>
            <path id="Trazado_600461" data-name="Trazado 600461" d="M321.764,203.042c.024.052-.112.154-.126.374a.341.341,0,1,0,.588-.173c-.131-.178-.3-.19-.309-.247-.026-.043.212-.17.5.045a.675.675,0,1,1-1.052.309c.127-.337.4-.36.4-.309" transform="translate(-77.815 -49.141)" fill="#263238"/>
            <path id="Trazado_600462" data-name="Trazado 600462" d="M322.943,200.215c.024.052-.112.154-.126.374a.341.341,0,1,0,.588-.173c-.131-.178-.3-.19-.309-.246-.026-.044.212-.171.5.045a.675.675,0,1,1-1.052.309c.127-.337.4-.36.4-.309" transform="translate(-78.101 -48.456)" fill="#263238"/>
            <path id="Trazado_600463" data-name="Trazado 600463" d="M338.58,150.241c-1.326.7-1.789,2.651-1.636,4.142a35.145,35.145,0,0,1,.662,4.441,18.241,18.241,0,0,1-.568,3.155,5.451,5.451,0,0,0,.1,3.162,2.43,2.43,0,0,0,2.508,1.585l1.05-2.123a11.688,11.688,0,0,0-.148-10.654Z" transform="translate(-81.575 -36.383)" fill="#263238"/>
          </g>
        </g>
        <g id="Grupo_878275" data-name="Grupo 878275">
          <g id="Grupo_878274" data-name="Grupo 878274" clip-path="url(#clip-path)">
            <path id="Trazado_600464" data-name="Trazado 600464" d="M424.177,355.875a8.482,8.482,0,0,1,4.4-5.618c2.349-1.012,5.068-.436,7.471.437s4.763,2.042,7.315,2.2,5.432-1.053,6.2-3.494c.718-2.294-.665-4.74-2.4-6.407a15.123,15.123,0,0,0-24.778,5.948" transform="translate(-102.288 -82.043)" fill="#e8505b"/>
            <g id="Grupo_878267" data-name="Grupo 878267" transform="translate(320.096 256.742)" opacity="0.5">
              <g id="Grupo_878266" data-name="Grupo 878266">
                <g id="Grupo_878265" data-name="Grupo 878265" clip-path="url(#clip-path-11)">
                  <path id="Trazado_600465" data-name="Trazado 600465" d="M424.177,355.875a8.482,8.482,0,0,1,4.4-5.618c2.349-1.012,5.068-.436,7.471.437s4.763,2.042,7.315,2.2,5.432-1.053,6.2-3.494c.718-2.294-.665-4.74-2.4-6.407a15.123,15.123,0,0,0-24.778,5.948" transform="translate(-422.384 -338.785)" fill="#f0bd51"/>
                </g>
              </g>
            </g>
            <path id="Trazado_600466" data-name="Trazado 600466" d="M397.114,365.493c-3.744-3.557-3.557-9.75-1.689-14.564s5.944-8.512,10.5-10.949a33.248,33.248,0,0,1,28.974-.939,13.752,13.752,0,0,0-11.119,6.529c-2.052,3.408-2.508,7.543-4.2,11.142a17.541,17.541,0,0,1-22.461,8.78" transform="translate(-95.445 -81.409)" fill="#f0bd51"/>
            <path id="Trazado_600467" data-name="Trazado 600467" d="M393.875,326.964c-4.145-4.893-4.7-12.749-4.087-19.133s2.091-12.809,1.084-19.143c-.6-3.752-2.052-7.335-2.544-11.1s.2-8.028,3.125-10.46c3.355-2.795,8.638-2.136,12.128.489s5.513,6.748,6.991,10.857c3.247,9.028,4.439,19.039,1.771,28.255s-8.926,17.456-18.108,20.238" transform="translate(-94.005 -64.251)" fill="#f0bd51"/>
            <path id="Trazado_600468" data-name="Trazado 600468" d="M393.064,385.306a3.462,3.462,0,0,1-.016-.564c.005-.37,0-.915.031-1.617.053-1.4.188-3.434.5-5.926a79.151,79.151,0,0,1,1.593-8.679,39.989,39.989,0,0,1,3.96-10.049,41.882,41.882,0,0,1,6.472-8.651,41.192,41.192,0,0,1,6.785-5.643c1.035-.716,2.037-1.26,2.9-1.763.884-.465,1.657-.846,2.289-1.15l1.491-.628a3.4,3.4,0,0,1,.528-.2,3.545,3.545,0,0,1-.5.26l-1.461.684c-.621.323-1.382.719-2.252,1.2-.85.517-1.837,1.072-2.858,1.8a42.636,42.636,0,0,0-13.092,14.261c-3.812,6.667-4.855,13.677-5.613,18.591-.344,2.481-.516,4.5-.609,5.9q-.06,1.013-.1,1.611a3.469,3.469,0,0,1-.053.562" transform="translate(-95.183 -82.443)" fill="#263238"/>
            <path id="Trazado_600469" data-name="Trazado 600469" d="M343.647,321.191c-7.67,4.628-7.646,8.84-6.365,12.816s5.988,6.738,9.891,5.25c2.206-.842,3.8-2.759,5.169-4.686s2.647-3.989,4.56-5.373,4.686-1.914,6.608-.541" transform="translate(-81.524 -77.782)" fill="#e8505b"/>
            <g id="Grupo_878270" data-name="Grupo 878270" transform="translate(255.118 243.409)" opacity="0.5">
              <g id="Grupo_878269" data-name="Grupo 878269">
                <g id="Grupo_878268" data-name="Grupo 878268" clip-path="url(#clip-path-12)">
                  <path id="Trazado_600470" data-name="Trazado 600470" d="M343.647,321.191c-7.67,4.628-7.646,8.84-6.365,12.816s5.988,6.738,9.891,5.25c2.206-.842,3.8-2.759,5.169-4.686s2.647-3.989,4.56-5.373,4.686-1.914,6.608-.541" transform="translate(-336.642 -321.191)" fill="#f0bd51"/>
                </g>
              </g>
            </g>
            <path id="Trazado_600471" data-name="Trazado 600471" d="M338.309,324.564c2.005-2.771,6.96-3.573,10.088-2.191s5.42,4.125,7.472,6.862,4.048,5.628,6.889,7.532,6.811,2.594,9.642.676a8.286,8.286,0,0,0,3.275-5.672,18.887,18.887,0,0,0-.45-6.688c-.677-3.216-1.782-6.576-4.356-8.62-2.869-2.278-6.85-2.386-10.511-2.266a39.358,39.358,0,0,0-12.408,1.909c-3.943,1.456-7.966,4.6-9.64,8.457" transform="translate(-81.927 -76.081)" fill="#f0bd51"/>
            <path id="Trazado_600472" data-name="Trazado 600472" d="M378.342,373.073a.613.613,0,0,1-.02-.168c-.007-.132-.015-.294-.026-.495-.017-.463-.039-1.1-.067-1.9-.048-1.682-.117-4.067-.2-7-.093-2.955-.214-6.474-.427-10.376s-.508-8.191-1.1-12.656a40.743,40.743,0,0,0-1.271-6.427,33.33,33.33,0,0,0-2.351-5.624,32.364,32.364,0,0,0-2.965-4.655,30.281,30.281,0,0,0-3.237-3.555,23.818,23.818,0,0,0-5.741-3.914c-.375-.171-.7-.34-1-.459l-.749-.291-.459-.186a.642.642,0,0,1-.153-.074.6.6,0,0,1,.164.041l.471.154.764.261c.3.11.632.269,1.013.433a22.963,22.963,0,0,1,5.847,3.855,29.866,29.866,0,0,1,3.3,3.56,32.255,32.255,0,0,1,3.02,4.681,33.223,33.223,0,0,1,2.392,5.672,40.475,40.475,0,0,1,1.29,6.481c.594,4.483.875,8.78,1.076,12.685s.291,7.429.353,10.386.084,5.351.092,7.005c0,.806,0,1.442,0,1.9,0,.2-.006.364-.008.5a.623.623,0,0,1-.014.169" transform="translate(-86.836 -76.352)" fill="#263238"/>
            <path id="Trazado_600473" data-name="Trazado 600473" d="M387.869,369.067a22.036,22.036,0,0,1-.84-3.294,34.567,34.567,0,0,1-.351-9.252,61.515,61.515,0,0,1,2.922-13.427c1.574-4.935,3.711-10.212,5.537-15.883a73,73,0,0,0,2.2-8.4,74.775,74.775,0,0,0,1.088-8.019,117.275,117.275,0,0,0,.244-13.712c-.133-3.907-.34-7.065-.47-9.248-.063-1.075-.113-1.917-.148-2.514-.013-.273-.023-.489-.03-.655a.112.112,0,1,1,.035,0c.016.165.037.38.064.652.05.6.121,1.437.212,2.51.171,2.18.415,5.337.579,9.248a113.256,113.256,0,0,1-.171,13.747,73.911,73.911,0,0,1-1.074,8.056,72.275,72.275,0,0,1-2.205,8.444c-1.832,5.689-3.976,10.96-5.562,15.876a62.48,62.48,0,0,0-2.982,13.351,35.76,35.76,0,0,0,.242,9.209c.189,1.075.361,1.906.512,2.461.064.265.115.475.155.636a1.041,1.041,0,0,1,.042.22" transform="translate(-93.604 -68.881)" fill="#263238"/>
            <path id="Trazado_600474" data-name="Trazado 600474" d="M401.619,398.47H365.606l-.822-6.932h36.836Z" transform="translate(-88.339 -94.818)" fill="#455a64"/>
            <path id="Trazado_600475" data-name="Trazado 600475" d="M370.968,399.643l4.5,20.795h19.57l4.213-20.795Z" transform="translate(-89.836 -96.781)" fill="#455a64"/>
            <path id="Trazado_600476" data-name="Trazado 600476" d="M402.089,400.612c0,.095-7.919.149-17.683.122s-17.684-.127-17.683-.221,7.916-.149,17.684-.122,17.683.127,17.683.221" transform="translate(-88.808 -96.96)" fill="#455a64"/>
            <path id="Trazado_600477" data-name="Trazado 600477" d="M397.6,413.3a14.868,14.868,0,0,0-3.172-1.818,11.22,11.22,0,0,0-3.857-.775,13.585,13.585,0,0,0-4.742.87c-1.641.556-3.175,1.2-4.668,1.557a11.1,11.1,0,0,1-4.034.121,8.312,8.312,0,0,1-2.593-.821,5.093,5.093,0,0,1-.625-.4c-.135-.1-.2-.16-.2-.169.02-.028.308.178.88.446a9.061,9.061,0,0,0,2.568.7,11.3,11.3,0,0,0,3.929-.189c1.441-.36,2.974-1.013,4.628-1.573a13.477,13.477,0,0,1,4.86-.862,11.029,11.029,0,0,1,3.94.866,10.227,10.227,0,0,1,2.347,1.369,6.112,6.112,0,0,1,.559.483c.121.117.181.182.174.191" transform="translate(-90.502 -99.381)" fill="#263238"/>
            <path id="Trazado_600478" data-name="Trazado 600478" d="M397.5,415.14a15.689,15.689,0,0,0-3.046-1.794,10.332,10.332,0,0,0-3.719-.766,13.4,13.4,0,0,0-4.586.825c-1.587.531-3.075,1.146-4.5,1.529a11.564,11.564,0,0,1-3.876.435,6.576,6.576,0,0,1-2.541-.68,4.613,4.613,0,0,1-.606-.383c-.131-.1-.2-.155-.189-.164.02-.028.3.173.852.427a6.99,6.99,0,0,0,2.5.558,11.844,11.844,0,0,0,3.777-.5c1.391-.392,2.869-1.012,4.473-1.55a13.284,13.284,0,0,1,4.7-.815,10.2,10.2,0,0,1,6.054,2.219,6.429,6.429,0,0,1,.537.471c.117.114.174.177.167.186" transform="translate(-90.678 -99.835)" fill="#fff"/>
            <path id="Trazado_600479" data-name="Trazado 600479" d="M397.834,411.384a17.088,17.088,0,0,0-3.256-1.919,11.975,11.975,0,0,0-3.954-.951,12.782,12.782,0,0,0-4.893.862,44.09,44.09,0,0,1-4.833,1.579,12.318,12.318,0,0,1-4.166.007,9.363,9.363,0,0,1-2.676-.847,4.936,4.936,0,0,1-.649-.4c-.14-.1-.21-.164-.2-.173.02-.028.317.185.911.456a10.34,10.34,0,0,0,2.655.728,12.583,12.583,0,0,0,4.068-.078,48.87,48.87,0,0,0,4.782-1.592,12.753,12.753,0,0,1,5.022-.853,12.115,12.115,0,0,1,6.434,2.49,6.468,6.468,0,0,1,.577.5c.126.121.187.187.18.2" transform="translate(-90.378 -98.847)" fill="#fff"/>
            <path id="Trazado_600480" data-name="Trazado 600480" d="M402.247,400.669c0,.095-8.1.171-18.093.171s-18.094-.077-18.094-.171,8.1-.171,18.094-.171,18.093.077,18.093.171" transform="translate(-88.648 -96.988)" fill="#263238"/>
            <path id="Trazado_600481" data-name="Trazado 600481" d="M50.273,384.146c1.3,1.85,3.813,1.238,4.98.108a9.415,9.415,0,0,0,2.11-4.326c1.026-3.566,2.061-7.306,1.3-10.938a6.078,6.078,0,0,0-1.4-2.974,3.175,3.175,0,0,0-3.009-1,4.643,4.643,0,0,0-2.628,2.762,26.086,26.086,0,0,0-2.577,11.189,9.043,9.043,0,0,0,1.223,5.181" transform="translate(-11.878 -88.375)" fill="#e8505b"/>
            <g id="Grupo_878273" data-name="Grupo 878273" transform="translate(37.172 276.558)">
              <g id="Grupo_878272" data-name="Grupo 878272">
                <g id="Grupo_878271" data-name="Grupo 878271" clip-path="url(#clip-path-13)">
                  <path id="Trazado_600482" data-name="Trazado 600482" d="M50.273,384.146c1.3,1.85,3.813,1.238,4.98.108a9.415,9.415,0,0,0,2.11-4.326c1.026-3.566,2.061-7.306,1.3-10.938a6.078,6.078,0,0,0-1.4-2.974,3.175,3.175,0,0,0-3.009-1,4.643,4.643,0,0,0-2.628,2.762,26.086,26.086,0,0,0-2.577,11.189,9.043,9.043,0,0,0,1.223,5.181" transform="translate(-49.05 -364.933)" fill="#ef8b53"/>
                </g>
              </g>
            </g>
            <path id="Trazado_600483" data-name="Trazado 600483" d="M56.256,402.314a11.224,11.224,0,0,1,6.964-.846A5.792,5.792,0,0,1,66.661,403a2.476,2.476,0,0,1,.036,3.434,3.3,3.3,0,0,1-2.169.55c-1.842-.021-3.884-.346-5.355.762-.839.631-1.4,1.682-2.4,1.993a2.372,2.372,0,0,1-2.609-1.161,4.054,4.054,0,0,1-.3-2.992,4.567,4.567,0,0,1,2.389-3.277" transform="translate(-13.008 -97.175)" fill="#f0bd51"/>
            <path id="Trazado_600484" data-name="Trazado 600484" d="M41.2,388.7a6.731,6.731,0,0,0,1.047-6.195,11.938,11.938,0,0,0-3.669-5.321,19.751,19.751,0,0,0-6.57-3.876,7.007,7.007,0,0,0-2.955-.5,3.1,3.1,0,0,0-2.48,1.5c-.691,1.319-.029,2.918.688,4.223a50.083,50.083,0,0,0,4.315,6.571,11.684,11.684,0,0,0,4.746,4.066c1.971.754,4.019.665,5.064-.7" transform="translate(-6.366 -90.277)" fill="#f0bd51"/>
            <path id="Trazado_600485" data-name="Trazado 600485" d="M50.541,421.672a4.151,4.151,0,0,0,.117-.84c.059-.612.134-1.38.223-2.294a33.111,33.111,0,0,1,.516-3.366A25.994,25.994,0,0,1,52.62,411.2a14.652,14.652,0,0,1,2.028-3.594,7.584,7.584,0,0,1,2.564-2.132,7.188,7.188,0,0,1,2.16-.672,3.967,3.967,0,0,0,.837-.121,4.029,4.029,0,0,0-.853-.013,6.534,6.534,0,0,0-2.252.586,7.566,7.566,0,0,0-2.7,2.15,14.308,14.308,0,0,0-2.1,3.666,24.319,24.319,0,0,0-1.214,4.037,28.333,28.333,0,0,0-.447,3.407c-.073.975-.1,1.763-.114,2.308a3.865,3.865,0,0,0,.018.849" transform="translate(-12.234 -97.996)" fill="#263238"/>
            <path id="Trazado_600486" data-name="Trazado 600486" d="M50.7,412.661a1.688,1.688,0,0,0,.023-.39c0-.293,0-.662,0-1.116,0-.968,0-2.368.049-4.1.086-3.46.383-8.235.959-13.484s1.348-9.974,2.048-13.363c.165-.85.332-1.614.489-2.283s.277-1.25.4-1.717c.105-.441.192-.8.261-1.084a1.712,1.712,0,0,0,.068-.385,1.59,1.59,0,0,0-.136.366c-.085.28-.192.634-.324,1.069-.144.464-.291,1.038-.459,1.707s-.359,1.429-.54,2.277a126.745,126.745,0,0,0-2.153,13.376c-.576,5.26-.836,10.049-.859,13.517-.02,1.734.016,3.138.061,4.107.027.453.05.822.068,1.115a1.615,1.615,0,0,0,.047.387" transform="translate(-12.234 -90.75)" fill="#263238"/>
            <path id="Trazado_600487" data-name="Trazado 600487" d="M46.839,404.326a7.414,7.414,0,0,0-.008-1.166c-.042-.749-.146-1.831-.357-3.156a41.728,41.728,0,0,0-1.026-4.6,40.693,40.693,0,0,0-1.923-5.442,28.978,28.978,0,0,0-5.648-8.795,14.432,14.432,0,0,0-1.328-1.235c-.2-.173-.384-.344-.568-.48l-.516-.355a7.538,7.538,0,0,0-.981-.628,34.942,34.942,0,0,1,3.215,2.868,30.547,30.547,0,0,1,5.507,8.764,43.506,43.506,0,0,1,1.934,5.392c.5,1.69.839,3.244,1.092,4.554s.38,2.383.465,3.125a7.429,7.429,0,0,0,.142,1.154" transform="translate(-8.35 -91.653)" fill="#263238"/>
          </g>
        </g>
        <g id="Grupo_878277" data-name="Grupo 878277">
          <g id="Grupo_878276" data-name="Grupo 878276" clip-path="url(#clip-path)">
            <path id="Trazado_600488" data-name="Trazado 600488" d="M191.228,8.439a1.916,1.916,0,0,1,.386-.009l1.135.029a11.862,11.862,0,0,1,1.838.181c.361.057.755.093,1.167.179l1.306.323a21.771,21.771,0,0,1,16.055,19.876,21.663,21.663,0,0,1-2.99,12.3,22.039,22.039,0,0,1-10.531,9.164,21.6,21.6,0,0,1-7.306,1.609,20.958,20.958,0,0,1-7.64-.951l-.227-.072.18,0-12.77,4.423-.519.18.163-.524L174.789,44.5l.055.256a21.844,21.844,0,0,1-5.124-18.911,21.522,21.522,0,0,1,3.3-7.871,22.09,22.09,0,0,1,5.056-5.275,23.571,23.571,0,0,1,2.649-1.718,24.414,24.414,0,0,1,2.544-1.154,17.286,17.286,0,0,1,2.3-.731,14.066,14.066,0,0,1,1.97-.412c.6-.08,1.125-.169,1.583-.209l1.163-.036.709-.014a.953.953,0,0,1,.24.011.974.974,0,0,1-.239.035l-.706.058-1.153.08c-.455.054-.975.157-1.566.249a14.558,14.558,0,0,0-1.942.449,17.441,17.441,0,0,0-2.261.76,24.773,24.773,0,0,0-2.5,1.172,23.6,23.6,0,0,0-2.592,1.724,21.9,21.9,0,0,0-4.927,5.232,21.173,21.173,0,0,0-3.181,7.739A21.411,21.411,0,0,0,175.242,44.4l.1.112-.045.144c-1.054,3.409-2.155,6.968-3.292,10.645l-.356-.345,12.767-4.433.089-.03.092.029.221.07a20.4,20.4,0,0,0,7.445.928,21.056,21.056,0,0,0,7.121-1.559,21.556,21.556,0,0,0,10.294-8.917,21.582,21.582,0,0,0-6.489-28.824A21.617,21.617,0,0,0,197,9.353l-1.288-.344c-.407-.094-.8-.138-1.153-.2a12.635,12.635,0,0,0-1.82-.233l-1.128-.085a2,2,0,0,1-.385-.049" transform="translate(-40.996 -2.041)" fill="#fc8116"/>
            <path id="Trazado_600489" data-name="Trazado 600489" d="M181.3,36.035l3.359-3.36,6.48,5.76L203.856,26.2l3.12,3.36L190.657,44.915Z" transform="translate(-43.904 -6.344)" fill="#fc8116"/>
          </g>
        </g>
      </g>
    </g>
  </g>
</svg>
