<svg xmlns="http://www.w3.org/2000/svg" width="85" height="85" viewBox="0 0 85 85">
  <g id="Grupo_944041" data-name="Grupo 944041" transform="translate(-285 -5589)">
    <g id="estrategia-de-mercadeo" transform="translate(228.958 5594.572)">
      <g id="Grupo_91595" data-name="Grupo 91595" transform="translate(73.082 1.082)">
        <path id="Trazado_115609" data-name="Trazado 115609" d="M126.092,118.2H83.827a4.327,4.327,0,0,1-4.327-4.327V57.416a4.327,4.327,0,0,1,4.327-4.327h42.265a4.327,4.327,0,0,1,4.327,4.327v56.461A4.327,4.327,0,0,1,126.092,118.2Z" transform="translate(-79.5 -46.513)" fill="#8b808e"/>
        <path id="Trazado_115610" data-name="Trazado 115610" d="M376.827,53.089H372.5a4.328,4.328,0,0,1,4.328,4.327v56.461A4.328,4.328,0,0,1,372.5,118.2h4.328a4.327,4.327,0,0,0,4.327-4.327V57.416a4.327,4.327,0,0,0-4.327-4.327Z" transform="translate(-330.235 -46.513)" fill="#766c78"/>
        <path id="Trazado_115611" data-name="Trazado 115611" d="M109.5,138.54V84.1a1.01,1.01,0,0,1,1.01-1.01h40.245a1.01,1.01,0,0,1,1.01,1.01V138.54a1.01,1.01,0,0,1-1.01,1.01H110.51A1.01,1.01,0,0,1,109.5,138.54Z" transform="translate(-105.173 -72.185)" fill="#f7f6f7"/>
        <path id="Trazado_115612" data-name="Trazado 115612" d="M369.827,83.089H365.5a1.01,1.01,0,0,1,1.01,1.01V138.54a1.01,1.01,0,0,1-1.01,1.01h4.328a1.01,1.01,0,0,0,1.01-1.01V84.1A1.01,1.01,0,0,0,369.827,83.089Z" transform="translate(-324.245 -72.185)" fill="#edebed"/>
        <path id="Trazado_115613" data-name="Trazado 115613" d="M194.9,11.25a1.441,1.441,0,0,1-1.295-.785,5.339,5.339,0,0,0-9.565,0,1.441,1.441,0,0,1-1.295.785h-3.8a1.442,1.442,0,0,0-1.442,1.442v7.068a1.442,1.442,0,0,0,1.442,1.442H198.7a1.442,1.442,0,0,0,1.442-1.442V12.693A1.442,1.442,0,0,0,198.7,11.25Z" transform="translate(-163.364 -7.5)" fill="#655e68"/>
        <path id="Trazado_115614" data-name="Trazado 115614" d="M298.827,33.5h-2.885v8.511a1.442,1.442,0,0,1-1.443,1.442h4.327a1.436,1.436,0,0,0,.806-.246q.058-.039.111-.083a1.44,1.44,0,0,0,.518-.966,1.461,1.461,0,0,0,.008-.147V34.942A1.443,1.443,0,0,0,298.827,33.5Z" transform="translate(-263.486 -29.75)" fill="#544f57"/>
        <g id="Grupo_91594" data-name="Grupo 91594" transform="translate(8.655 17.5)">
          <g id="Grupo_91592" data-name="Grupo 91592" transform="translate(0 28.11)">
            <path id="Trazado_115615" data-name="Trazado 115615" d="M154.133,403.157l-1.653-6.245h4.456l1.462,5.96a.577.577,0,0,1-.56.714h-3.148A.577.577,0,0,1,154.133,403.157Z" transform="translate(-150.608 -386.35)" fill="#655e68"/>
            <g id="Grupo_91591" data-name="Grupo 91591">
              <path id="Trazado_115616" data-name="Trazado 115616" d="M193.4,338.8l-8.9-3.886v-7.278l8.9-3.886a.721.721,0,0,1,1.01.661v13.728A.721.721,0,0,1,193.4,338.8Z" transform="translate(-178.009 -323.688)" fill="#e2dfe3"/>
              <path id="Trazado_115617" data-name="Trazado 115617" d="M226.495,323.749l-3.318,1.449V337.35l3.318,1.449a.721.721,0,0,0,1.01-.661V324.41A.721.721,0,0,0,226.495,323.749Z" transform="translate(-211.107 -323.688)" fill="#d3ced4"/>
              <path id="Trazado_115618" data-name="Trazado 115618" d="M145.991,351.053v7.278h-2.852a3.639,3.639,0,0,1,0-7.278Z" transform="translate(-139.5 -347.106)" fill="#ff8086"/>
            </g>
          </g>
          <g id="Grupo_91593" data-name="Grupo 91593" transform="translate(26.109)">
            <circle id="Elipse_5231" data-name="Elipse 5231" cx="3.75" cy="3.75" r="3.75" transform="translate(0 0)" fill="#ff8086"/>
            <path id="Trazado_115619" data-name="Trazado 115619" d="M337.392,128.817a3.733,3.733,0,0,0-1.535.329,3.75,3.75,0,0,1,0,6.843,3.75,3.75,0,1,0,1.535-7.172Z" transform="translate(-333.642 -128.817)" fill="#e5646e"/>
          </g>
        </g>
      </g>
      <path id="Trazado_115620" data-name="Trazado 115620" d="M98.4,45.9a1.8,1.8,0,0,0-1.709-.144L88,49.557H85.376a4.72,4.72,0,0,0-2.638,8.634l1.478,5.585a1.66,1.66,0,0,0,1.6,1.234h3.148a1.659,1.659,0,0,0,1.611-2.054L89.8,59.784l6.892,3.01h0a1.8,1.8,0,0,0,2.525-1.652V47.414A1.8,1.8,0,0,0,98.4,45.9ZM83.664,56.172a2.553,2.553,0,0,1,1.712-4.451h1.77v4.451Zm2.544,6.674-1.02-3.853c.262.029,1.942,0,2.191,0l.944,3.848Zm10.844-2.256L89.31,57.209V51.347l7.743-3.382ZM111.6,17.5a4.832,4.832,0,1,0,4.832,4.832A4.838,4.838,0,0,0,111.6,17.5Zm0,7.5a2.669,2.669,0,1,1,2.669-2.669A2.672,2.672,0,0,1,111.6,25Zm2.669,21.32a9.088,9.088,0,0,0-9.078-9.078H91.9a6.914,6.914,0,1,1,0-13.828h9.273l-.637.745a1.082,1.082,0,1,0,1.644,1.406l2.164-2.53a1.091,1.091,0,0,0,0-1.406l-2.164-2.53a1.082,1.082,0,0,0-1.644,1.406l.637.745H91.9a9.078,9.078,0,1,0,0,18.156h13.29a6.914,6.914,0,1,1,0,13.828h-1.813a1.082,1.082,0,0,0,0,2.164h1.813A9.088,9.088,0,0,0,114.265,46.321Zm5.409-39.744h-8.727a2.562,2.562,0,0,0-2.524-2.826h-3.8a.36.36,0,0,1-.326-.184,6.421,6.421,0,0,0-11.5,0,.359.359,0,0,1-.326.184h-3.8a2.551,2.551,0,0,0-2.524,2.826H77.409A5.415,5.415,0,0,0,72,11.986v56.46a5.415,5.415,0,0,0,5.409,5.409h42.265a5.415,5.415,0,0,0,5.409-5.409V11.986a5.415,5.415,0,0,0-5.409-5.409Zm3.246,61.87a3.249,3.249,0,0,1-3.246,3.246H77.409a3.249,3.249,0,0,1-3.246-3.246V11.986A3.249,3.249,0,0,1,77.409,8.74h8.727V10.9H78.419A2.094,2.094,0,0,0,76.327,13V67.436a2.094,2.094,0,0,0,2.092,2.092h40.245a2.094,2.094,0,0,0,2.092-2.092v-17.1a1.082,1.082,0,1,0-2.164,0v17.03h-40.1v-54.3h7.645a2.559,2.559,0,0,0,2.524,2.8h9.187a1.082,1.082,0,0,0,0-2.164H88.661a.361.361,0,0,1-.361-.361V6.275a.361.361,0,0,1,.361-.361h3.8a2.537,2.537,0,0,0,2.264-1.386,4.257,4.257,0,0,1,7.627,0,2.538,2.538,0,0,0,2.264,1.385h3.8a.361.361,0,0,1,.361.361v7.068a.361.361,0,0,1-.361.361H102.9a1.082,1.082,0,0,0,0,2.164h5.526a2.572,2.572,0,0,0,2.524-2.8h7.645V45.286a1.082,1.082,0,1,0,2.164,0V13a2.094,2.094,0,0,0-2.092-2.092h-7.717V8.74h8.727a3.249,3.249,0,0,1,3.246,3.246ZM97.558,27.18a1.082,1.082,0,0,0-1.53,0l-1.681,1.681-1.68-1.681a1.082,1.082,0,1,0-1.53,1.53l1.681,1.681-1.681,1.68a1.082,1.082,0,0,0,1.53,1.53l1.68-1.68,1.681,1.68a1.082,1.082,0,1,0,1.53-1.53l-1.681-1.68,1.681-1.681A1.082,1.082,0,0,0,97.558,27.18Zm17.31,30.292a1.082,1.082,0,0,0-1.53,0l-1.68,1.68-1.681-1.68a1.082,1.082,0,1,0-1.53,1.53l1.681,1.681-1.681,1.68a1.082,1.082,0,1,0,1.53,1.53l1.681-1.68,1.68,1.68a1.082,1.082,0,0,0,1.53-1.53l-1.681-1.68L114.868,59A1.082,1.082,0,0,0,114.868,57.472Z" transform="translate(0 0)"/>
    </g>
    <rect id="Rectángulo_306095" data-name="Rectángulo 306095" width="85" height="85" transform="translate(285 5589)" fill="none"/>
  </g>
</svg>
