<svg xmlns="http://www.w3.org/2000/svg" width="66.684" height="64.57" viewBox="0 0 66.684 64.57">
  <g id="Grupo_937472" data-name="Grupo 937472" transform="translate(-1567.751 -796.662)">
    <path id="Trazado_617315" data-name="Trazado 617315" d="M1591.565,865.833h-2.852c-.181-.808-.442-1.017-1.311-1.017q-5.657,0-11.313,0c-.846,0-.846,0-.846-.862q0-29.478,0-58.955c0-.841,0-.842.866-.842h34.655c.216,0,.432.019.647.028q0,5.619,0,11.238c0,.247.1.527-.145.73a2.074,2.074,0,0,0-1.012-.157q-8.314,0-16.629,0a3.847,3.847,0,0,0-.584.016.887.887,0,0,0-.8.81.918.918,0,0,0,.536,1.012,1.572,1.572,0,0,0,.761.115q8.379,0,16.759,0a1.879,1.879,0,0,0,1.1-.295q.006,2.616.013,5.231c-.1.049-.188.1-.287.146a20.417,20.417,0,0,0-7.275,5.1,1.4,1.4,0,0,1-1.162.506c-3.1-.019-6.2-.006-9.294-.013-.589,0-1.024.19-1.148.811-.132.663.337,1.14,1.133,1.142,2.621.006,5.243,0,7.864.007.177,0,.382-.089.56.1a20.576,20.576,0,0,0-3.457,10.186c-.024.371-.207.395-.5.393q-2.21-.014-4.42,0c-.751,0-1.2.379-1.21.975s.435.971,1.193.974q2.21.008,4.419,0c.285,0,.493,0,.51.383a23.258,23.258,0,0,0,1.128,5.709c-.345.522-.008,1.04.054,1.541.126,1.018.375,2.021.574,3.03q-3.209.016-6.418.034a3.127,3.127,0,0,0-.769.072.952.952,0,0,0,.12,1.852,5.4,5.4,0,0,0,.712.025l7.258.043a19.85,19.85,0,0,0,6.421,7.983c.383.286.947.367,1.132.9-.238.008-.476.024-.714.024q-7.48,0-14.961,0C1592,864.815,1591.743,865.025,1591.565,865.833Zm-12.732-52.738h0c0,.823-.022,1.648,0,2.47a2.335,2.335,0,0,0,2.4,2.378q2.438.038,4.877,0a2.344,2.344,0,0,0,2.41-2.434c.014-1.235.011-2.471,0-3.706-.007-.753-.083-1.486.658-2.032a.8.8,0,0,0,.066-1.127c-.258-.38-.72-.627-1.06-.375-.557.415-1.007.2-1.523.033a2.348,2.348,0,0,0-.705-.08c-1.539-.006-3.078-.012-4.617,0a2.359,2.359,0,0,0-2.511,2.468C1578.818,811.491,1578.833,812.293,1578.833,813.095Zm4.858,17.487c.781,0,1.561,0,2.342,0a2.349,2.349,0,0,0,2.495-2.474q.017-1.853,0-3.706c-.006-.732-.087-1.444.644-1.975a.8.8,0,0,0,.052-1.175.791.791,0,0,0-1.078-.32,1.14,1.14,0,0,1-1.323.045,1.249,1.249,0,0,0-.572-.1c-1.713-.009-3.427-.052-5.137.006a2.277,2.277,0,0,0-2.27,2.363q-.045,2.47,0,4.941a2.329,2.329,0,0,0,2.443,2.394C1582.087,830.59,1582.889,830.582,1583.691,830.582Zm.073,15.592c-.867,0-1.734-.012-2.6,0a2.252,2.252,0,0,0-2.3,2.174q-.077,2.662,0,5.328a2.206,2.206,0,0,0,2.175,2.161q2.631.064,5.265,0a2.255,2.255,0,0,0,2.221-2.262q.038-2.566,0-5.134a2.285,2.285,0,0,0-2.285-2.269C1585.411,846.16,1584.588,846.174,1583.764,846.174Zm4.765-7.764c0-.823.01-1.647,0-2.47a2.278,2.278,0,0,0-2.286-2.4q-2.566-.071-5.135,0a2.24,2.24,0,0,0-2.26,2.289q-.056,2.534,0,5.069a2.286,2.286,0,0,0,2.376,2.314q2.47.024,4.941,0a2.308,2.308,0,0,0,2.363-2.332C1588.543,840.057,1588.528,839.233,1588.53,838.41Zm6.228,13.838v0h1.362a1.276,1.276,0,0,0,.13,0,.969.969,0,0,0,.984-.99.943.943,0,0,0-1.012-.952q-1.491-.037-2.984,0a.959.959,0,0,0-1.023.947.982.982,0,0,0,1.05.994C1593.762,852.266,1594.26,852.248,1594.758,852.248Zm-.032-12.662v0h1.428c.043,0,.087,0,.13,0a.92.92,0,0,0,.945-.881.9.9,0,0,0-.846-1.034c-1.1-.049-2.206-.049-3.306,0a.96.96,0,0,0,.092,1.914C1593.687,839.6,1594.207,839.587,1594.726,839.587Zm.008-12.637c.5,0,1,.014,1.492,0a.958.958,0,0,0,1.008-.956.94.94,0,0,0-.923-.977q-1.588-.048-3.178,0a.965.965,0,0,0,.045,1.929C1593.695,826.965,1594.215,826.948,1594.734,826.949Zm.009-14.581c-.5,0-1-.012-1.492,0a.973.973,0,1,0,0,1.942c.994.019,1.99.021,2.984,0a.97.97,0,1,0,0-1.939C1595.738,812.354,1595.24,812.368,1594.743,812.368Z" transform="translate(-5.538 -5.539)" fill="#f5f1ef"/>
    <path id="Trazado_617316" data-name="Trazado 617316" d="M1647.295,885.371l-7.258-.043a5.412,5.412,0,0,1-.712-.025.952.952,0,0,1-.12-1.852,3.131,3.131,0,0,1,.769-.072q3.209-.023,6.418-.034h1.754a24.121,24.121,0,0,1-2.382-4.571,23.263,23.263,0,0,1-1.128-5.709c-.017-.383-.224-.385-.51-.383q-2.209.013-4.419,0c-.759,0-1.2-.369-1.193-.974s.459-.971,1.21-.975q2.21-.01,4.42,0c.292,0,.475-.022.5-.393a20.576,20.576,0,0,1,3.457-10.186c-.178-.19-.383-.1-.56-.1-2.622-.007-5.243,0-7.864-.007-.8,0-1.265-.479-1.133-1.142.124-.621.559-.812,1.148-.811,3.1.007,6.2-.006,9.294.013a1.4,1.4,0,0,0,1.162-.506,20.416,20.416,0,0,1,7.275-5.1c.1-.041.192-.1.287-.146a22.743,22.743,0,0,1,3.286-.963c.445-.076.537-.263.532-.678-.022-1.818-.014-3.637-.007-5.455,0-.815.226-1.078,1.008-1.251a1.024,1.024,0,0,1,.947,1.171c-.011,1.734.015,3.468-.016,5.2-.009.493.114.608.612.584a20.067,20.067,0,0,1,16.542,6.63c5.369,5.9,6.992,12.849,4.548,20.441-2.474,7.688-7.935,12.338-15.815,14.1a16.754,16.754,0,0,1-5.3.318c-.443-.043-.627.056-.584.533a7.166,7.166,0,0,1-.013,1.233,2.2,2.2,0,0,1-2.04,2c-.194.014-.39.011-.585.011q-10.827,0-21.654,0c-.887,0-1.086-.148-1.307-.933.178-.808.439-1.018,1.31-1.018q7.48,0,14.961,0c.238,0,.476-.016.714-.024,1.69.008,3.38.042,5.069.019,1.9-.026,1.558.412,1.608-1.723a.409.409,0,0,0-.385-.482,20.479,20.479,0,0,1-11.268-6.506.609.609,0,0,0-.5-.24C1648.678,885.349,1647.986,885.357,1647.295,885.371Zm21.109,4.894,0,.01c.236-.023.476-.029.709-.072a18.883,18.883,0,0,0,15.108-17.622,18.447,18.447,0,0,0-8.248-16.438,19.269,19.269,0,0,0-13.794-2.99,18.776,18.776,0,0,0-15.468,20.959c.933,6.952,4.757,11.921,11.119,14.857a17.385,17.385,0,0,0,10.154,1.377C1668.133,890.361,1668.283,890.39,1668.4,890.265Z" transform="translate(-51.836 -35.008)" fill="#030304"/>
    <path id="Trazado_617317" data-name="Trazado 617317" d="M1605.873,798.645c-.215-.01-.431-.028-.647-.028h-34.655c-.866,0-.866,0-.866.842q0,29.478,0,58.955c0,.861,0,.862.846.862q5.656,0,11.313,0c.869,0,1.13.21,1.311,1.017a1.034,1.034,0,0,1-1.179.939c-3.967-.01-7.934,0-11.9-.009a2.22,2.22,0,0,1-2.341-2.383q0-29.906,0-59.812a2.222,2.222,0,0,1,2.362-2.361q19.574-.008,39.148,0a2.2,2.2,0,0,1,2.366,2.35c.017,1.972-.01,3.944.012,5.916a1.114,1.114,0,0,1-.955,1.254c-.825-.256-1-.483-1-1.336,0-1.876-.01-3.752.005-5.629,0-.431-.112-.628-.583-.613C1608.029,798.642,1606.95,798.635,1605.873,798.645Z" transform="translate(0)" fill="#020202"/>
    <path id="Trazado_617318" data-name="Trazado 617318" d="M1713.579,804.16c1.078-.01,2.156,0,3.233-.037.47-.015.586.182.583.613-.015,1.876-.009,3.752-.005,5.628,0,.853.179,1.08,1,1.336q0,1.41,0,2.819c-.782.174-1.005.437-1.008,1.251-.007,1.818-.015,3.637.007,5.455,0,.415-.087.6-.533.678a22.746,22.746,0,0,0-3.286.963q-.007-2.615-.013-5.231a1.088,1.088,0,0,0-.135-1.508c.245-.2.145-.484.145-.73Q1713.585,809.779,1713.579,804.16Z" transform="translate(-107.707 -5.515)" fill="#f5f1ef"/>
    <path id="Trazado_617319" data-name="Trazado 617319" d="M1589,824.476c0-.8-.015-1.6,0-2.405a2.359,2.359,0,0,1,2.511-2.468c1.539-.011,3.078-.006,4.617,0a2.348,2.348,0,0,1,.705.08c.515.168.965.382,1.523-.033.339-.253.8-.005,1.06.375a.8.8,0,0,1-.066,1.127c-.742.546-.665,1.279-.658,2.032.011,1.235.013,2.471,0,3.706a2.344,2.344,0,0,1-2.41,2.434q-2.438.038-4.877,0a2.335,2.335,0,0,1-2.4-2.378c-.026-.823,0-1.647,0-2.47Zm5.121,2.876c.672.009,1.343.02,2.014.026.344,0,.6-.108.606-.509,0-.965,0-1.93,0-3-.987.806-1.674,1.769-2.623,2.445a1.045,1.045,0,0,1-.913-.2c-.336-.3-.654-.624-.971-.946-.521-.529-.593-1.039-.219-1.478.392-.461.94-.473,1.519.033.29.254.435.173.593-.1l1.924-2.049h-1.929c-.843-.008-1.687-.005-2.529-.028-.486-.013-.642.222-.638.675q.017,2.238,0,4.477c0,.455.157.69.638.679C1592.433,827.361,1593.276,827.36,1594.119,827.352Z" transform="translate(-15.704 -16.92)" fill="#030304"/>
    <path id="Trazado_617320" data-name="Trazado 617320" d="M1593.838,877.845c-.8,0-1.6.007-2.406,0a2.329,2.329,0,0,1-2.443-2.394q-.043-2.47,0-4.941a2.277,2.277,0,0,1,2.27-2.363c1.71-.058,3.425-.015,5.137-.006a1.249,1.249,0,0,1,.572.1,1.14,1.14,0,0,0,1.323-.045.791.791,0,0,1,1.078.32.8.8,0,0,1-.052,1.175c-.73.53-.65,1.242-.644,1.975q.016,1.853,0,3.706a2.349,2.349,0,0,1-2.495,2.474C1595.4,877.85,1594.618,877.845,1593.838,877.845Zm.26-7.74q-1.264-.016-2.527-.032c-.419-.006-.639.166-.636.617q.015,2.3,0,4.605c0,.446.2.613.639.6.842-.022,1.686-.018,2.529-.024l2.066.021c.289,0,.537-.085.542-.415.014-1,.005-1.994.005-3.1-.973.843-1.681,1.776-2.612,2.469a1.175,1.175,0,0,1-1.02-.289c-.3-.308-.616-.606-.915-.917a.986.986,0,0,1-.123-1.482.944.944,0,0,1,1.43.055c.293.272.459.241.637-.076l1.9-2.033Z" transform="translate(-15.685 -52.802)" fill="#020202"/>
    <path id="Trazado_617321" data-name="Trazado 617321" d="M1593.917,965.344c.823,0,1.647-.014,2.47,0a2.285,2.285,0,0,1,2.286,2.269q.039,2.567,0,5.134a2.255,2.255,0,0,1-2.221,2.262q-2.631.06-5.265,0a2.206,2.206,0,0,1-2.175-2.161q-.075-2.662,0-5.328a2.252,2.252,0,0,1,2.3-2.174C1592.183,965.331,1593.05,965.344,1593.917,965.344Zm.194,7.7c.692.011,1.384.021,2.076.034.378.007.547-.167.545-.552q-.012-2.338,0-4.677c0-.38-.157-.559-.544-.549-.692.016-1.385.02-2.077.028-.865-.009-1.729-.01-2.594-.03-.375-.008-.574.138-.574.523q0,2.368,0,4.737c0,.34.158.525.511.521Z" transform="translate(-15.691 -124.709)" fill="#030304"/>
    <path id="Trazado_617322" data-name="Trazado 617322" d="M1598.672,921.658c0,.823.014,1.647,0,2.47a2.308,2.308,0,0,1-2.363,2.332q-2.47.025-4.941,0a2.285,2.285,0,0,1-2.376-2.314q-.055-2.534,0-5.069a2.24,2.24,0,0,1,2.26-2.289q2.566-.071,5.135,0a2.278,2.278,0,0,1,2.286,2.4C1598.682,920.011,1598.672,920.834,1598.672,921.658Zm-4.572,2.826c.692.009,1.384.013,2.076.027.385.008.546-.174.544-.552q-.008-2.337,0-4.673c0-.385-.172-.562-.544-.558-.692.008-1.383.021-2.074.032-.864-.012-1.728-.021-2.592-.036-.409-.007-.582.188-.581.593q.011,2.3,0,4.606c0,.4.15.6.576.592C1592.371,924.492,1593.236,924.492,1594.1,924.483Z" transform="translate(-15.681 -88.787)" fill="#030304"/>
    <path id="Trazado_617323" data-name="Trazado 617323" d="M1674.046,1002.548c.692-.014,1.384-.023,2.075-.046a.609.609,0,0,1,.5.24,20.481,20.481,0,0,0,11.269,6.506.409.409,0,0,1,.384.482c-.05,2.135.3,1.7-1.608,1.724-1.689.023-3.379-.01-5.069-.019-.184-.537-.749-.618-1.132-.9A19.851,19.851,0,0,1,1674.046,1002.548Z" transform="translate(-78.588 -152.185)" fill="#f5f1ef"/>
    <path id="Trazado_617324" data-name="Trazado 617324" d="M1659.432,849.735a1.088,1.088,0,0,1,.135,1.508,1.879,1.879,0,0,1-1.1.295q-8.379-.012-16.759,0a1.573,1.573,0,0,1-.761-.116.919.919,0,0,1-.536-1.012.887.887,0,0,1,.8-.81,3.853,3.853,0,0,1,.583-.016q8.315,0,16.629,0A2.074,2.074,0,0,1,1659.432,849.735Z" transform="translate(-53.707 -39.122)" fill="#030304"/>
    <path id="Trazado_617325" data-name="Trazado 617325" d="M1642.9,983.093c-.5,0-1,.018-1.492,0a.982.982,0,0,1-1.05-.994.959.959,0,0,1,1.023-.947q1.491-.035,2.984,0a.943.943,0,0,1,1.012.952.969.969,0,0,1-.984.99,1.261,1.261,0,0,1-.13,0H1642.9Z" transform="translate(-53.681 -136.384)" fill="#070707"/>
    <path id="Trazado_617326" data-name="Trazado 617326" d="M1642.875,934.549c-.519,0-1.039.013-1.557,0a.96.96,0,0,1-.092-1.914c1.1-.047,2.205-.048,3.305,0a.9.9,0,0,1,.846,1.034.92.92,0,0,1-.945.881c-.043,0-.086,0-.13,0h-1.427Z" transform="translate(-53.688 -100.502)" fill="#070707"/>
    <path id="Trazado_617327" data-name="Trazado 617327" d="M1642.88,886.042c-.519,0-1.039.017-1.557-.005a.965.965,0,0,1-.045-1.929q1.588-.051,3.178,0a.94.94,0,0,1,.924.977.958.958,0,0,1-1.008.956C1643.875,886.057,1643.377,886.043,1642.88,886.042Z" transform="translate(-53.685 -64.633)" fill="#030304"/>
    <path id="Trazado_617328" data-name="Trazado 617328" d="M1642.891,835.65c.5,0,1-.014,1.492,0a.97.97,0,1,1,0,1.939c-.994.023-1.99.021-2.984,0a.973.973,0,1,1,0-1.942C1641.9,835.639,1642.393,835.65,1642.891,835.65Z" transform="translate(-53.687 -28.822)" fill="#020202"/>
    <path id="Trazado_617329" data-name="Trazado 617329" d="M1667.74,977.366a24.11,24.11,0,0,0,2.382,4.571h-1.754c-.2-1.009-.448-2.012-.574-3.03C1667.732,978.406,1667.395,977.888,1667.74,977.366Z" transform="translate(-73.812 -133.601)" fill="#f5f1ef"/>
    <path id="Trazado_617330" data-name="Trazado 617330" d="M1692.6,915.449a17.384,17.384,0,0,1-10.154-1.377c-6.362-2.936-10.187-7.905-11.119-14.857a18.776,18.776,0,0,1,15.468-20.959,16.573,16.573,0,0,1,6.071-.02c.233.33.636.345.96.494a19.919,19.919,0,0,1,7.3,5.665,3.288,3.288,0,0,1,1.033,1.719c-.065-.056-.136-.106-.2-.168a15.994,15.994,0,0,0-14.576-5.076,16.2,16.2,0,0,0-13.267,12.994c-.141.857,0,1.117.788,1.449a9.06,9.06,0,0,0-.005,2.834c-.764.295-.969.608-.855,1.3a16.191,16.191,0,0,0,22.184,12.294,17.578,17.578,0,0,0,5.763-4.02c.194.341-.112.534-.261.731a20.632,20.632,0,0,1-7.9,6.469c-.278.128-.664.094-.813.459l0-.011A.351.351,0,0,0,1692.6,915.449Z" transform="translate(-76.455 -60.11)" fill="#608fce"/>
    <path id="Trazado_617331" data-name="Trazado 617331" d="M1763.734,886.883a3.285,3.285,0,0,0-1.033-1.72,19.92,19.92,0,0,0-7.3-5.665c-.324-.149-.727-.163-.96-.494a16.622,16.622,0,0,1,7.723,3.01,18.447,18.447,0,0,1,8.248,16.438,18.883,18.883,0,0,1-15.109,17.622c-.233.044-.472.049-.709.073.149-.364.535-.33.813-.458a20.632,20.632,0,0,0,7.9-6.469c.149-.2.455-.39.261-.73a.051.051,0,0,1,.064.046c.156-.026.172-.135.156-.262l-.016,0c.092,0,.137-.026.054-.112.062-.087.118-.179.185-.262a15.926,15.926,0,0,0,3.167-14.563,16.413,16.413,0,0,0-3.119-6.067l-.137-.179.007.013c0-.119-.015-.228-.157-.26Z" transform="translate(-138.029 -60.879)" fill="#608fce"/>
    <path id="Trazado_617332" data-name="Trazado 617332" d="M1753.424,1021.444a.35.35,0,0,1,.417-.082C1753.722,1021.487,1753.571,1021.458,1753.424,1021.444Z" transform="translate(-137.275 -166.105)" fill="#3273c2"/>
    <path id="Trazado_617333" data-name="Trazado 617333" d="M1599.687,829.3c-.158.272-.3.353-.593.1-.579-.506-1.127-.495-1.519-.033-.373.439-.3.948.219,1.478.317.322.635.644.971.946a1.045,1.045,0,0,0,.914.2v1.034c-.843.009-1.686.01-2.529.028-.481.011-.642-.224-.638-.679q.019-2.238,0-4.477c0-.453.152-.688.638-.675.843.022,1.686.02,2.529.028Z" transform="translate(-21.265 -22.595)" fill="#5eb8c3"/>
    <path id="Trazado_617334" data-name="Trazado 617334" d="M1608.658,839.619v-1.034c.949-.676,1.635-1.639,2.623-2.445,0,1.066,0,2.031,0,3,0,.4-.262.512-.606.509C1610,839.639,1609.33,839.628,1608.658,839.619Z" transform="translate(-30.243 -29.188)" fill="#4fa4b1"/>
    <path id="Trazado_617335" data-name="Trazado 617335" d="M1608.672,829.38l-.006-2.049h1.929Z" transform="translate(-30.25 -22.675)" fill="#4fa4b1"/>
    <path id="Trazado_617336" data-name="Trazado 617336" d="M1599.695,877.792c-.178.318-.344.349-.637.076a.944.944,0,0,0-1.43-.055.986.986,0,0,0,.123,1.482c.3.312.612.61.915.917a1.175,1.175,0,0,0,1.02.289v1.026c-.843.006-1.687,0-2.529.024-.434.011-.641-.156-.639-.6q.01-2.3,0-4.605c0-.451.218-.623.636-.617l2.527.032Q1599.687,876.775,1599.695,877.792Z" transform="translate(-21.266 -58.455)" fill="#5eb8c3"/>
    <path id="Trazado_617337" data-name="Trazado 617337" d="M1608.673,888.064v-1.026c.931-.694,1.639-1.627,2.612-2.469,0,1.106.009,2.1-.005,3.1,0,.33-.253.418-.542.415Z" transform="translate(-30.255 -64.993)" fill="#4fa4b1"/>
    <path id="Trazado_617338" data-name="Trazado 617338" d="M1608.668,877.883q-.008-1.016-.016-2.033h1.917Z" transform="translate(-30.24 -58.547)" fill="#4fa4b1"/>
    <path id="Trazado_617339" data-name="Trazado 617339" d="M1599.692,978.583l-2.657.034c-.354,0-.511-.18-.511-.521q0-2.369,0-4.737c0-.385.2-.531.574-.523.865.02,1.729.021,2.594.03Q1599.691,975.724,1599.692,978.583Z" transform="translate(-21.272 -130.252)" fill="#f9e179"/>
    <path id="Trazado_617340" data-name="Trazado 617340" d="M1608.677,978.587q0-2.858,0-5.717c.692-.009,1.385-.012,2.077-.028.387-.009.546.17.544.549q-.009,2.339,0,4.677c0,.385-.167.559-.545.552C1610.061,978.608,1609.369,978.6,1608.677,978.587Z" transform="translate(-30.257 -130.256)" fill="#f9e179"/>
    <path id="Trazado_617341" data-name="Trazado 617341" d="M1599.687,930.072c-.864.009-1.729.008-2.593.029-.426.01-.577-.2-.575-.592q.008-2.3,0-4.606c0-.405.172-.6.581-.593.864.015,1.728.024,2.592.036Q1599.689,927.209,1599.687,930.072Z" transform="translate(-21.268 -94.375)" fill="#efa84b"/>
    <path id="Trazado_617342" data-name="Trazado 617342" d="M1608.677,930.085q0-2.862,0-5.725c.691-.011,1.382-.024,2.074-.032.372,0,.546.173.544.558q-.013,2.337,0,4.673c0,.378-.16.56-.544.552C1610.061,930.1,1609.369,930.094,1608.677,930.085Z" transform="translate(-30.258 -94.389)" fill="#efa84b"/>
    <path id="Trazado_617343" data-name="Trazado 617343" d="M1685.213,911.31a9.06,9.06,0,0,1,.005-2.834c.759-.015,1.026-.5,1.153-1.161a14.169,14.169,0,0,1,16.932-11.193.354.354,0,0,0,.226.288,15.031,15.031,0,0,1,4.927,4,8.547,8.547,0,0,1,1.743,2.908,1.05,1.05,0,0,0-.892.542.9.9,0,0,0,.17,1.122,1.022,1.022,0,0,0,1.351.085c.333.023.329.322.388.527a10.914,10.914,0,0,1,.544,3.367c-.728.131-1.054.438-1.054.994s.326.864,1.054.994c-.025.448-.01.893-.068,1.346-.124.965-.5,1.864-.644,2.82-.589-.578-1.128-.643-1.572-.2a1,1,0,0,0,.731,1.686,1.081,1.081,0,0,1-.163.615,15.587,15.587,0,0,1-6.073,6.079c-.235.127-.61.146-.658.53a11.8,11.8,0,0,1-5.971.036,13.949,13.949,0,0,1-10.99-11.308C1686.206,911.89,1686.016,911.341,1685.213,911.31Zm14.174-7.17c0,.737-.021,1.474.008,2.21a.757.757,0,0,1-.49.832,3.077,3.077,0,0,0-.541,5.227,6.406,6.406,0,0,1,1.678,1.987c.45.738.882,1.488,1.335,2.225a1.7,1.7,0,0,0,2.549.632c.375-.216.746-.437,1.113-.666a1.693,1.693,0,0,0,.626-2.6q-.971-1.649-1.967-3.283a1.489,1.489,0,0,1-.236-.786,2.972,2.972,0,0,0-1.686-2.722.7.7,0,0,1-.444-.73q.027-2.34,0-4.68a.946.946,0,0,0-1.015-1.021.931.931,0,0,0-.926,1.031C1699.376,902.58,1699.387,903.36,1699.386,904.14Zm7.608-4.015a.949.949,0,0,0-1-.955.974.974,0,0,0,.026,1.949A.976.976,0,0,0,1706.994,900.125Zm0,19.681a.974.974,0,0,0-.953-1.01.975.975,0,0,0-.059,1.95A.95.95,0,0,0,1706.994,919.806Zm-15.54-4.232a1,1,0,0,0-1.029-.944.978.978,0,0,0-.924,1.038.952.952,0,0,0,.982.905A.989.989,0,0,0,1691.454,915.574Zm3.183,5.174a.976.976,0,0,0-.012-1.952.968.968,0,0,0-.974.987A.946.946,0,0,0,1694.637,920.748Zm-5.643-9.816a.974.974,0,0,0-.034-1.948.975.975,0,1,0,.034,1.948Zm2.46-6.6a.981.981,0,0,0-.981-.987.939.939,0,0,0-.973.909.974.974,0,0,0,.933,1.03A1,1,0,0,0,1691.454,904.333Zm8.895,17.947a.98.98,0,0,0,.987-.98,1.015,1.015,0,0,0-1.008-.975.979.979,0,0,0-.938.964A.945.945,0,0,0,1700.349,922.28Zm-5.7-21.158a.977.977,0,1,0-.093-1.952.944.944,0,0,0-.9.983A.977.977,0,0,0,1694.645,901.122Zm5.629-1.529a.979.979,0,0,0,.975-.991.93.93,0,0,0-.917-.963.97.97,0,0,0-1.024.938A1.018,1.018,0,0,0,1700.274,899.593Z" transform="translate(-86.763 -73.274)" fill="#f5f1ef"/>
    <path id="Trazado_617344" data-name="Trazado 617344" d="M1683.015,905.827c.8.031.993.58,1.139,1.249a13.949,13.949,0,0,0,10.99,11.309,11.8,11.8,0,0,0,5.971-.036,5.718,5.718,0,0,0,.573-.092,14.2,14.2,0,0,0,8.291-21.567,14.2,14.2,0,0,0-25.806,5.143c-.127.663-.394,1.146-1.153,1.161-.788-.332-.929-.592-.788-1.449a16.2,16.2,0,0,1,13.267-12.994,16,16,0,0,1,14.576,5.076c.059.062.13.112.2.168l.041-.037c-.038.141.055.2.157.26l-.006-.013.137.179a16.414,16.414,0,0,1,3.119,6.067,15.926,15.926,0,0,1-3.167,14.563c-.067.083-.124.174-.185.262l-.054.112.016,0c-.113.051-.232.1-.156.262a.05.05,0,0,0-.064-.046,17.591,17.591,0,0,1-5.764,4.02,16.191,16.191,0,0,1-22.184-12.294C1682.045,906.434,1682.251,906.121,1683.015,905.827Z" transform="translate(-84.565 -67.79)" fill="#030304"/>
    <path id="Trazado_617345" data-name="Trazado 617345" d="M1790.378,909.345c-.1-.057-.195-.119-.157-.26C1790.363,909.117,1790.379,909.226,1790.378,909.345Z" transform="translate(-164.474 -83.119)" fill="#608fce"/>
    <path id="Trazado_617346" data-name="Trazado 617346" d="M1789.639,991.552c-.075-.163.043-.211.156-.263C1789.811,991.417,1789.794,991.526,1789.639,991.552Z" transform="translate(-164.032 -143.895)" fill="#608fce"/>
    <path id="Trazado_617347" data-name="Trazado 617347" d="M1790.96,910.212l-.137-.179Z" transform="translate(-164.926 -83.82)" fill="#608fce"/>
    <path id="Trazado_617348" data-name="Trazado 617348" d="M1790.246,990.98l.054-.112C1790.383,990.954,1790.338,990.979,1790.246,990.98Z" transform="translate(-164.499 -143.584)" fill="#608fce"/>
    <path id="Trazado_617349" data-name="Trazado 617349" d="M1754.925,897.124a13.6,13.6,0,0,1,8.874,6.05,14.2,14.2,0,0,1-8.291,21.567,5.736,5.736,0,0,1-.573.091c.048-.384.423-.4.658-.53a15.586,15.586,0,0,0,6.073-6.079,1.08,1.08,0,0,0,.163-.615c.871-.271,1.041-.572.841-1.489.14-.956.52-1.855.644-2.82.058-.453.043-.9.068-1.346a1,1,0,0,0,0-1.989,10.921,10.921,0,0,0-.544-3.367c-.059-.2-.055-.5-.388-.527.577-.868.357-1.481-.629-1.75a8.552,8.552,0,0,0-1.743-2.908,15.028,15.028,0,0,0-4.927-4A.355.355,0,0,1,1754.925,897.124Z" transform="translate(-138.385 -74.275)" fill="#e1dee2"/>
    <path id="Trazado_617350" data-name="Trazado 617350" d="M1733.54,918.32c0-.78-.011-1.56,0-2.34a.931.931,0,0,1,.926-1.031.946.946,0,0,1,1.015,1.021c.02,1.56.018,3.12,0,4.68a.7.7,0,0,0,.444.73,2.972,2.972,0,0,1,1.686,2.722,1.489,1.489,0,0,0,.236.786q.992,1.636,1.967,3.283a1.693,1.693,0,0,1-.626,2.6c-.367.229-.739.45-1.113.666a1.7,1.7,0,0,1-2.549-.632c-.452-.737-.884-1.487-1.335-2.225a6.41,6.41,0,0,0-1.678-1.987,3.077,3.077,0,0,1,.541-5.227.757.757,0,0,0,.491-.832C1733.518,919.794,1733.539,919.056,1733.54,918.32Zm.958,7.051a1.209,1.209,0,1,0-1.218-1.167A1.2,1.2,0,0,0,1734.5,925.371Zm2,1.239c-.271,0-.841.607-.733.789.4.687.817,1.369,1.226,2.054.265.443.476.03.673-.068s.554-.13.3-.529c-.429-.672-.826-1.364-1.239-2.046C1736.675,926.723,1736.638,926.607,1736.5,926.61Z" transform="translate(-120.916 -87.453)" fill="#030304"/>
    <path id="Trazado_617351" data-name="Trazado 617351" d="M1779.378,968.615c.2.917.029,1.218-.841,1.489a1,1,0,0,1-.731-1.686C1778.25,967.972,1778.789,968.037,1779.378,968.615Z" transform="translate(-155.092 -126.77)" fill="#070707"/>
    <path id="Trazado_617352" data-name="Trazado 617352" d="M1763.564,909.769a.976.976,0,0,1-.97.993.975.975,0,0,1-.026-1.949A.949.949,0,0,1,1763.564,909.769Z" transform="translate(-143.333 -82.917)" fill="#070707"/>
    <path id="Trazado_617353" data-name="Trazado 617353" d="M1763.563,985.118a.95.95,0,0,1-1.012.94.975.975,0,0,1,.059-1.95A.974.974,0,0,1,1763.563,985.118Z" transform="translate(-143.332 -138.586)" fill="#070707"/>
    <path id="Trazado_617354" data-name="Trazado 617354" d="M1703.921,969.067a.989.989,0,0,1-.972,1,.952.952,0,0,1-.982-.905.978.978,0,0,1,.925-1.038A1,1,0,0,1,1703.921,969.067Z" transform="translate(-99.23 -126.767)" fill="#070707"/>
    <path id="Trazado_617355" data-name="Trazado 617355" d="M1718.88,986.058a.946.946,0,0,1-.987-.965.968.968,0,0,1,.974-.987.976.976,0,0,1,.012,1.952Z" transform="translate(-111.006 -138.585)" fill="#070707"/>
    <path id="Trazado_617356" data-name="Trazado 617356" d="M1697.136,948.414a.975.975,0,1,1-.034-1.948.974.974,0,0,1,.034,1.948Z" transform="translate(-94.905 -110.756)" fill="#070707"/>
    <path id="Trazado_617357" data-name="Trazado 617357" d="M1703.921,925.823a1,1,0,0,1-1.021.952.974.974,0,0,1-.933-1.03.939.939,0,0,1,.973-.909A.981.981,0,0,1,1703.921,925.823Z" transform="translate(-99.23 -94.764)" fill="#070707"/>
    <path id="Trazado_617358" data-name="Trazado 617358" d="M1740.868,991.927a.945.945,0,0,1-.96-.991.979.979,0,0,1,.938-.964,1.015,1.015,0,0,1,1.008.975A.98.98,0,0,1,1740.868,991.927Z" transform="translate(-127.282 -142.922)" fill="#070707"/>
    <path id="Trazado_617359" data-name="Trazado 617359" d="M1718.886,910.762a.976.976,0,0,1-1-.969.944.944,0,0,1,.9-.983.977.977,0,1,1,.093,1.952Z" transform="translate(-111.004 -82.914)" fill="#070707"/>
    <path id="Trazado_617360" data-name="Trazado 617360" d="M1740.563,904.893a1.018,1.018,0,0,1-.966-1.016.97.97,0,0,1,1.024-.938.93.93,0,0,1,.917.963A.979.979,0,0,1,1740.563,904.893Z" transform="translate(-127.052 -78.575)" fill="#070707"/>
    <path id="Trazado_617361" data-name="Trazado 617361" d="M1784.382,946.388a1,1,0,0,1,0,1.989c-.728-.13-1.053-.437-1.054-.994S1783.654,946.519,1784.382,946.388Z" transform="translate(-159.384 -110.698)" fill="#070707"/>
    <path id="Trazado_617362" data-name="Trazado 617362" d="M1778.5,924.738c.985.269,1.206.882.629,1.75a1.023,1.023,0,0,1-1.351-.086.9.9,0,0,1-.17-1.122A1.05,1.05,0,0,1,1778.5,924.738Z" transform="translate(-155.065 -94.692)" fill="#070707"/>
    <path id="Trazado_617363" data-name="Trazado 617363" d="M1740.12,948.079a1.209,1.209,0,1,1,1.169-1.216A1.2,1.2,0,0,1,1740.12,948.079Z" transform="translate(-126.538 -110.161)" fill="#ea8c3f"/>
    <path id="Trazado_617364" data-name="Trazado 617364" d="M1749.146,959.69c.137,0,.173.112.226.2.413.682.81,1.374,1.239,2.046.255.4-.117.439-.3.529s-.408.511-.673.068c-.409-.685-.822-1.367-1.226-2.054C1748.306,960.3,1748.876,959.691,1749.146,959.69Z" transform="translate(-133.561 -120.533)" fill="#f9e179"/>
  </g>
</svg>
