<svg xmlns="http://www.w3.org/2000/svg" width="73" height="72.974" viewBox="0 0 73 72.974">
  <g id="Grupo_937473" data-name="Grupo 937473" transform="translate(-2071.557 -595.37)">
    <path id="Trazado_617365" data-name="Trazado 617365" d="M2101.374,614.192a10.6,10.6,0,1,1,13.449,0h2.243c2.535,0,3.937,1.415,3.938,3.973,0,3.947.013,7.894-.014,11.841,0,.552.128.7.679.677,1.175-.047,2.354-.033,3.53,0,.422.01.526-.12.522-.53-.021-1.986.009-3.972-.022-5.957-.007-.492.14-.6.608-.594q8.826.024,17.654,0c.493,0,.6.141.594.608q-.025,7.649,0,15.3c0,.495-.145.594-.61.592q-8.827-.023-17.654,0c-.5,0-.6-.146-.592-.611.025-1.936-.016-3.874.027-5.81.012-.573-.161-.685-.691-.666-1.151.042-2.305.042-3.456,0-.508-.019-.591.162-.587.617.021,2.451.013,4.9.009,7.355a3.518,3.518,0,0,1-3.587,3.8c-.555.03-.616.195-.39.676a3.5,3.5,0,0,1-2.83,5.2.546.546,0,0,0-.562.432,4.182,4.182,0,0,1-1.089,1.721c-.226.222-.5.387-.324.793s.246.752.813.881a11.516,11.516,0,0,1,7.45,5.416,12.286,12.286,0,0,1,1.706,7.029c-.043,1.4-.008,1.4-1.4,1.4q-13.056,0-26.113.015c-.606,0-.747-.136-.76-.749a13.675,13.675,0,0,1,1.457-7.247,11.769,11.769,0,0,1,7.551-5.856c1.074-.28,1.3-.987.555-1.779-.513-.543-.7-1.329-1.148-1.842-.428-.486-1.357-.3-1.994-.708a3.564,3.564,0,0,1-1.365-4.5c.379-.831.379-.831-.477-.874a3.521,3.521,0,0,1-3.375-3.5q-.036-3.824.007-7.649c.006-.527-.14-.65-.648-.633-1.175.04-2.354.039-3.53,0-.475-.016-.56.138-.554.575.024,1.961,0,3.923.019,5.884,0,.434-.044.631-.573.629q-8.864-.033-17.727,0c-.478,0-.552-.147-.55-.578q.022-7.686,0-15.371c0-.479.15-.55.579-.549q8.863.021,17.728,0c.48,0,.553.152.548.58-.022,1.912.029,3.826-.03,5.736-.021.686.2.8.811.772,1.027-.05,2.061-.05,3.088,0,.632.031.856-.1.848-.806-.041-3.922-.021-7.845-.019-11.768a3.563,3.563,0,0,1,3.92-3.916Zm6.661,18.829c3.332,0,6.665-.007,10,.008.437,0,.641-.051.632-.577-.035-1.984-.032-3.969,0-5.953.008-.485-.165-.548-.587-.547q-10.034.018-20.068,0c-.476,0-.559.149-.554.581.022,1.935.039,3.871-.007,5.806-.015.613.2.7.738.7C2101.468,633.01,2104.752,633.022,2108.035,633.022Zm-.01-9.415c3.334,0,6.667-.013,10,.013.527,0,.646-.144.636-.65-.033-1.666-.007-3.333-.015-5,0-1-.428-1.422-1.44-1.422q-9.156,0-18.312,0c-1.007,0-1.426.423-1.43,1.431-.007,1.667.021,3.334-.015,5-.011.522.134.644.646.64C2101.406,623.6,2104.715,623.607,2108.025,623.607Zm27.036,14.122c2.181,0,4.363-.017,6.544.012.493.006.6-.142.595-.609q-.029-5.293,0-10.587c0-.493-.143-.6-.61-.594q-6.471.026-12.942,0c-.492,0-.6.142-.595.609q.029,5.293,0,10.587c0,.493.143.6.61.594C2130.8,637.715,2132.929,637.729,2135.061,637.729Zm-54.111,0c2.181,0,4.363-.014,6.544.011.458.006.566-.115.564-.567q-.03-5.33,0-10.661c0-.458-.116-.565-.567-.563q-6.508.027-13.015,0c-.457,0-.566.114-.563.566q.03,5.33,0,10.66c0,.458.116.569.567.564C2076.636,637.715,2078.793,637.729,2080.951,637.729Zm22.75,27.2c-.365-2.506-.732-4.843-1.028-7.19-.079-.629-.255-.663-.756-.419a9.568,9.568,0,0,0-5.618,7.874c-.083.665.129.8.771.794,7.081-.025,14.162-.016,21.243-.016,1.608,0,1.654-.009,1.364-1.579a9.33,9.33,0,0,0-5.614-7.132c-.384-.176-.544-.163-.594.323-.1.973-.271,1.938-.412,2.906l-.646,4.445c-1.38-1.382-2.654-2.631-3.892-3.915-.354-.368-.556-.378-.917,0C2106.361,662.3,2105.083,663.55,2103.7,664.93Zm4.368-29.548c-.27,0-.54-.007-.809,0a6.53,6.53,0,0,0-6.137,7.69c.05.252-.057.657.418.61.387-.037.679-.1.815-.623a3.6,3.6,0,0,1,3.019-2.857,17.632,17.632,0,0,1,5.339,0,3.623,3.623,0,0,1,3.071,2.981c.128.544.521.452.837.505.36.06.3-.295.357-.515a5.244,5.244,0,0,0,.065-2.186C2114.4,637.442,2111.827,635.376,2108.069,635.382Zm3.519,11.443c0-.858.01-1.716,0-2.574a1.668,1.668,0,0,0-1.772-1.81q-1.764-.025-3.53,0a1.651,1.651,0,0,0-1.753,1.753c-.017,1.764-.021,3.529,0,5.294a2.335,2.335,0,0,0,2.393,2.361c.76.014,1.52.016,2.28,0a2.346,2.346,0,0,0,2.379-2.377C2111.6,648.59,2111.587,647.707,2111.588,646.825Zm3.023-11.449a9.1,9.1,0,0,1,2.864,7.024c.844-.141,1.164-.467,1.171-1.25.014-1.763-.007-3.527.013-5.291,0-.386-.1-.5-.491-.493C2117.042,635.392,2115.915,635.375,2114.61,635.375Zm-13.109,0c-1.309,0-2.457.006-3.6,0-.287,0-.444.037-.441.388.017,1.837,0,3.675.014,5.512a1.127,1.127,0,0,0,.749,1.077c.3.132.437.092.432-.284A8.983,8.983,0,0,1,2101.5,635.375Zm6.494-30.6h.659c1.922,0,1.913,0,1.4-1.9-.09-.334-.209-.484-.578-.465-.633.031-1.269.009-1.9.009-1.521,0-1.5,0-1.725,1.555-.085.592-.035.913.688.812A10.6,10.6,0,0,1,2108,604.778Zm.08,2.353h-.879c-1.5,0-1.477,0-1.218,1.512.1.613.295.962,1,.854a8.867,8.867,0,0,1,1.316-.012c1.885,0,1.868,0,2.006-1.891.031-.43-.119-.48-.47-.469C2109.247,607.146,2108.661,607.131,2108.075,607.131Zm-.008,47.069c-.439,0-.878,0-1.317,0-.277,0-.583-.125-.7.3-.093.338-.181.614.15.906a20.294,20.294,0,0,1,1.5,1.5c.256.277.424.313.7.015a19.248,19.248,0,0,1,1.5-1.5c.325-.286.264-.553.175-.9-.111-.433-.409-.321-.69-.318C2108.945,654.2,2108.506,654.2,2108.067,654.2Zm4.32-51.776a4.107,4.107,0,0,0,.1.685c.179.533-.071,1.307.352,1.582.4.26,1.088.1,1.648.081s1.431.243,1.582-.11c.25-.584-.206-1.3-.449-1.936a.4.4,0,0,0-.424-.306C2114.271,602.43,2113.345,602.424,2112.387,602.424Zm-8.654,7.061a4.011,4.011,0,0,0-.112-.7c-.188-.528.082-1.3-.362-1.572-.413-.253-1.092-.1-1.652-.074s-1.408-.258-1.568.124c-.244.583.212,1.3.459,1.935a.4.4,0,0,0,.433.291C2101.858,609.48,2102.785,609.485,2103.733,609.485Zm8.654,0h1.525c1.805,0,1.834-.023,2.194-1.8.01-.048.015-.1.028-.144.084-.317-.026-.428-.361-.421-.88.019-1.761.026-2.64,0-.384-.013-.437.187-.474.481C2112.583,608.207,2112.486,608.809,2112.387,609.486Zm-10.745-4.707v-.041c.56,0,1.241.195,1.647-.056.39-.241.15-1.008.329-1.517.032-.09.013-.2.045-.289.121-.338.046-.474-.347-.46-.781.028-1.564.006-2.347.011-.137,0-.312-.05-.389.119a3.351,3.351,0,0,0-.551,2.076c.1.391.909.088,1.393.156A1.561,1.561,0,0,0,2101.643,604.778Zm.851,7.08a5.1,5.1,0,0,0,2.833,1.77C2104.543,611.765,2104.543,611.765,2102.493,611.858Zm11.3-.022c-.71,0-1.247,0-1.784,0-.19,0-.389-.039-.5.2-.234.523-.482,1.04-.778,1.676A7.682,7.682,0,0,0,2113.8,611.836ZM2102.375,600c1.968.245,1.968.245,2.8-1.349.063-.121.117-.246.216-.457A7.754,7.754,0,0,0,2102.375,600Zm11.4.042a7.638,7.638,0,0,0-2.936-1.814C2111.351,600.07,2111.481,600.152,2113.771,600.042Zm-11.6,47.117a2.438,2.438,0,0,0,0-.363c-.041-.268.151-.7-.129-.773-.393-.1-.713.218-.908.584a1.1,1.1,0,0,0,.142,1.288c.188.237.465.457.739.387.339-.086.1-.452.154-.688A1.948,1.948,0,0,0,2102.175,647.16Zm11.764-.018a1.137,1.137,0,0,0,0,.29c.08.288-.217.778.208.837s.735-.313.895-.732a1.1,1.1,0,0,0-.171-1.1c-.195-.264-.483-.51-.788-.429-.32.085-.09.457-.142.7A2.09,2.09,0,0,0,2113.939,647.142Zm-4.949-47.1c-.305-.554-.451-1.336-.944-1.406-.365-.052-.576.786-.837,1.239-.02.034,0,.09,0,.167Zm-1.854,11.828c.288.554.443,1.333.932,1.4.372.053.575-.785.84-1.235.02-.034,0-.09,0-.169Zm-1.8,47.886.254.172c.185-.254.354-.522.56-.758.153-.174.208-.3.021-.486-.318-.318-.616-.656-.933-1a.581.581,0,0,0-.115.577C2105.177,658.762,2105.259,659.258,2105.332,659.755Zm5.736-2.053c-1.455,1.077-1.5,1.483-.279,2.054C2110.878,659.1,2110.964,658.464,2111.068,657.7Z" fill="#010101"/>
    <path id="Trazado_617366" data-name="Trazado 617366" d="M2247.744,779.487c-2.917,0-5.835-.014-8.752.014-.521.005-.646-.131-.637-.643.032-1.96,0-3.922.025-5.882.007-.463-.121-.566-.569-.561-1.985.026-3.972-.005-5.957.024-.464.007-.561-.124-.561-.569,0-1.8-.017-1.8,1.748-1.8,1.594,0,3.188-.021,4.781.013.47.01.562-.132.556-.573-.025-1.961,0-3.922-.019-5.883,0-.429.034-.635.569-.633q8.862.034,17.724,0c.466,0,.558.128.557.571q-.025,7.684,0,15.369c0,.464-.124.562-.569.559C2253.677,779.477,2250.71,779.487,2247.744,779.487Zm.041-2.354c2.157,0,4.314-.015,6.471.012.481.006.6-.123.6-.6q-.031-5.293,0-10.588c0-.481-.124-.6-.6-.6q-6.471.029-12.942,0c-.48,0-.6.123-.6.6q.031,5.294,0,10.588c0,.481.124.607.6.6C2243.47,777.119,2245.627,777.134,2247.785,777.134Z" transform="translate(-112.656 -118.221)"/>
    <path id="Trazado_617367" data-name="Trazado 617367" d="M2080.986,763.018c2.942,0,5.884.011,8.825-.011.472,0,.613.109.606.6-.03,1.961,0,3.922-.024,5.883-.006.474.112.612.6.6,1.96-.029,3.922,0,5.883-.024.476-.007.608.115.6.6-.011,1.766.009,1.766-1.779,1.766-1.593,0-3.187.014-4.78-.01-.417-.006-.53.112-.526.527.021,1.985-.007,3.971.022,5.956.007.483-.126.6-.6.6q-8.826-.025-17.651,0c-.479,0-.6-.12-.6-.6q.027-7.648,0-15.3c0-.476.115-.607.6-.6C2075.1,763.029,2078.044,763.018,2080.986,763.018Zm0,14.122c2.157,0,4.314-.015,6.471.011.48.006.605-.122.6-.6q-.032-5.294,0-10.588c0-.481-.124-.6-.6-.6q-6.471.029-12.942,0c-.48,0-.605.122-.6.6q.032,5.294,0,10.588c0,.481.123.608.6.6C2076.675,777.125,2078.833,777.14,2080.99,777.14Z" transform="translate(-0.004 -118.227)"/>
    <path id="Trazado_617368" data-name="Trazado 617368" d="M2080.984,635.753c-2.942,0-5.884-.012-8.825.012-.486,0-.6-.131-.6-.6q.026-7.648,0-15.3c0-.482.125-.6.6-.6q8.825.025,17.65,0c.478,0,.61.118.6.6-.029,1.961,0,3.922-.024,5.882-.007.48.12.616.6.6,1.2-.036,2.4.006,3.6-.022.418-.01.521.115.526.527.021,1.837.036,1.837-1.78,1.837-.809,0-1.619.024-2.427-.01-.424-.018-.525.122-.521.531.02,1.985-.009,3.971.021,5.956.008.491-.138.6-.607.6C2086.868,635.742,2083.926,635.753,2080.984,635.753Zm0-14.122c-2.157,0-4.314.015-6.471-.012-.482-.006-.6.125-.6.6q.031,5.293,0,10.588c0,.482.126.6.6.6q6.471-.028,12.942,0c.481,0,.6-.124.6-.6q-.031-5.294,0-10.588c0-.482-.126-.607-.6-.6C2085.3,621.646,2083.145,621.631,2080.988,621.631Z" transform="translate(-0.003 -16.853)"/>
    <path id="Trazado_617369" data-name="Trazado 617369" d="M2253.41,635.752c-2.942,0-5.884-.011-8.825.011-.476,0-.611-.116-.6-.6.029-1.96,0-3.922.024-5.882.007-.478-.117-.617-.6-.6-1.2.036-2.4-.006-3.6.022-.417.01-.522-.112-.527-.526-.021-1.838-.035-1.837,1.78-1.837.809,0,1.619-.024,2.427.01.423.017.527-.12.522-.53-.021-1.985.008-3.971-.021-5.956-.007-.489.135-.6.606-.6q8.826.024,17.651,0c.484,0,.6.128.6.6q-.027,7.648,0,15.295c0,.481-.123.6-.6.6C2259.293,635.741,2256.351,635.752,2253.41,635.752Zm0-14.122c-2.157,0-4.314.014-6.471-.011-.473-.006-.609.111-.606.6q.033,5.293,0,10.588c0,.474.113.608.6.605q6.471-.03,12.942,0c.473,0,.609-.111.606-.6q-.033-5.294,0-10.588c0-.474-.112-.612-.6-.606C2257.727,621.646,2255.57,621.63,2253.412,621.63Z" transform="translate(-118.281 -16.852)"/>
    <path id="Trazado_617370" data-name="Trazado 617370" d="M2169.984,706.193c-3.283,0-6.567-.011-9.85.012-.539,0-.753-.084-.738-.7.046-1.934.03-3.871.007-5.806,0-.432.078-.582.554-.581q10.034.026,20.068,0c.422,0,.594.062.587.547-.031,1.984-.034,3.969,0,5.953.01.526-.194.579-.632.577C2176.649,706.186,2173.316,706.193,2169.984,706.193Zm3.553-3.491c0-1.216,0-1.216-1.211-1.216-1.143,0-1.143,0-1.143,1.138,0,1.216,0,1.216,1.212,1.216C2173.537,703.84,2173.537,703.84,2173.537,702.7Zm3.561-1.216c-1.207,0-1.207,0-1.207,1.22,0,1.134,0,1.134,1.147,1.134,1.207,0,1.207,0,1.207-1.22C2178.245,701.486,2178.245,701.486,2177.1,701.486Z" transform="translate(-61.949 -73.172)" fill="#f5d67f"/>
    <path id="Trazado_617371" data-name="Trazado 617371" d="M2169.982,674.277c-3.309,0-6.619-.012-9.928.012-.512,0-.657-.118-.646-.64.036-1.666.009-3.333.015-5,0-1.008.423-1.431,1.43-1.431q9.156-.006,18.312,0c1.012,0,1.436.42,1.44,1.422.008,1.667-.019,3.334.015,5,.01.506-.109.654-.636.65C2176.65,674.264,2173.316,674.277,2169.982,674.277Zm-5.853-3.492c0-1.216,0-1.216-1.212-1.216-1.142,0-1.142,0-1.142,1.138,0,1.216,0,1.216,1.211,1.216C2164.129,671.924,2164.129,671.924,2164.129,670.785Zm4.708,0c0-1.22,0-1.22-1.207-1.22-1.147,0-1.147,0-1.147,1.134,0,1.22,0,1.22,1.207,1.22C2168.837,671.924,2168.837,671.924,2168.837,670.79Z" transform="translate(-61.958 -50.67)" fill="#f5d67e"/>
    <path id="Trazado_617372" data-name="Trazado 617372" d="M2270.249,710.9c-2.133,0-4.265-.014-6.4.011-.467.005-.613-.1-.61-.594q.034-5.293,0-10.587c0-.467.1-.612.595-.609q6.471.031,12.942,0c.467,0,.613.1.61.594q-.034,5.293,0,10.587c0,.467-.1.616-.6.609C2274.612,710.884,2272.43,710.9,2270.249,710.9Zm.066-9.415h-2.94c-1.79,0-1.77,0-1.78,1.766,0,.484.13.6.606.6,2.352-.025,4.7-.011,7.056-.011,1.816,0,1.8,0,1.778-1.839-.005-.418-.118-.531-.531-.524C2273.108,701.5,2271.711,701.485,2270.315,701.485Zm0,4.707h-2.94c-1.79,0-1.771,0-1.781,1.765,0,.482.127.605.6.6,2.352-.025,4.7-.012,7.056-.012,1.817,0,1.8,0,1.779-1.839-.005-.416-.116-.532-.53-.525C2273.109,706.208,2271.712,706.193,2270.315,706.193Z" transform="translate(-135.188 -73.171)" fill="#e5e8eb"/>
    <path id="Trazado_617373" data-name="Trazado 617373" d="M2086.587,710.9c-2.157,0-4.314-.014-6.471.011-.451.005-.57-.105-.567-.564q.031-5.33,0-10.66c0-.452.106-.569.563-.567q6.508.028,13.015,0c.451,0,.57.1.567.563q-.031,5.33,0,10.661c0,.452-.106.572-.564.567C2090.95,710.888,2088.769,710.9,2086.587,710.9Zm-.009-2.354h3.014c1.75,0,1.729,0,1.752-1.72.007-.507-.109-.654-.635-.647-2.352.031-4.7.014-7.056.014-1.768,0-1.752,0-1.75,1.794,0,.442.092.584.56.572C2083.833,708.526,2085.206,708.549,2086.578,708.549Zm.01-4.707h2.94c1.834,0,1.815,0,1.816-1.8,0-.461-.124-.565-.571-.561-2.352.023-4.7.011-7.056.011-1.869,0-1.855,0-1.813,1.878.009.39.117.49.5.484C2083.794,703.829,2085.191,703.841,2086.588,703.841Z" transform="translate(-5.636 -73.173)" fill="#e5e8eb"/>
    <path id="Trazado_617374" data-name="Trazado 617374" d="M2162.864,812.783c1.383-1.38,2.66-2.628,3.9-3.912.361-.373.563-.363.917,0,1.238,1.284,2.512,2.533,3.892,3.915.229-1.579.438-3.012.647-4.445.141-.969.312-1.934.412-2.906.05-.486.21-.5.594-.323a9.329,9.329,0,0,1,5.614,7.132c.291,1.57.245,1.579-1.364,1.579-7.081,0-14.163-.009-21.243.016-.641,0-.853-.129-.771-.794a9.569,9.569,0,0,1,5.618-7.874c.5-.244.677-.21.756.419C2162.131,807.94,2162.5,810.277,2162.864,812.783Z" transform="translate(-59.163 -147.853)" fill="#ec8773"/>
    <path id="Trazado_617375" data-name="Trazado 617375" d="M2178.537,731.118c3.758-.006,6.331,2.06,6.976,5.6a5.248,5.248,0,0,1-.065,2.186c-.053.22,0,.576-.357.515-.315-.053-.708.039-.837-.505a3.622,3.622,0,0,0-3.071-2.981,17.63,17.63,0,0,0-5.339,0,3.6,3.6,0,0,0-3.019,2.858c-.136.523-.428.586-.815.623-.476.046-.368-.358-.418-.61a6.53,6.53,0,0,1,6.137-7.69C2178,731.111,2178.267,731.118,2178.537,731.118Z" transform="translate(-70.467 -95.736)" fill="#656b75"/>
    <path id="Trazado_617376" data-name="Trazado 617376" d="M2190.454,759.427c0,.882.014,1.765,0,2.647a2.346,2.346,0,0,1-2.38,2.377c-.76.016-1.52.015-2.28,0a2.335,2.335,0,0,1-2.393-2.361c-.021-1.765-.018-3.53,0-5.294a1.651,1.651,0,0,1,1.752-1.753q1.764-.027,3.53,0a1.668,1.668,0,0,1,1.772,1.81C2190.465,757.711,2190.455,758.569,2190.454,759.427Z" transform="translate(-78.867 -112.602)" fill="#e9cfb5"/>
    <path id="Trazado_617377" data-name="Trazado 617377" d="M2217.63,731.079c1.3,0,2.432.016,3.558-.009.389-.009.5.107.491.493-.02,1.763,0,3.527-.014,5.291-.006.783-.326,1.109-1.171,1.25A9.1,9.1,0,0,0,2217.63,731.079Z" transform="translate(-103.019 -95.703)" fill="#f2d47d"/>
    <path id="Trazado_617378" data-name="Trazado 617378" d="M2163.474,731.091a8.984,8.984,0,0,0-2.851,6.689c.006.377-.129.416-.432.284a1.127,1.127,0,0,1-.749-1.077c-.012-1.837,0-3.675-.015-5.512,0-.352.154-.391.441-.388C2161.018,731.1,2162.165,731.091,2163.474,731.091Z" transform="translate(-61.972 -95.716)" fill="#f2d47d"/>
    <path id="Trazado_617379" data-name="Trazado 617379" d="M2189.966,621.632a10.609,10.609,0,0,0-1.462.013c-.723.1-.773-.22-.688-.812.225-1.552.2-1.555,1.725-1.555.635,0,1.271.023,1.9-.009.368-.018.487.132.578.465.517,1.9.526,1.9-1.4,1.9Z" transform="translate(-81.971 -16.854)" fill="#82d1ed"/>
    <path id="Trazado_617380" data-name="Trazado 617380" d="M2190.117,635.258c.586,0,1.172.014,1.757-.005.351-.012.5.039.47.469-.138,1.89-.121,1.891-2.006,1.891a8.867,8.867,0,0,0-1.316.012c-.706.107-.9-.242-1-.854-.26-1.516-.283-1.512,1.218-1.512Z" transform="translate(-82.042 -28.127)" fill="#82d1ed"/>
    <path id="Trazado_617381" data-name="Trazado 617381" d="M2190.4,794.926c.439,0,.878,0,1.317,0,.281,0,.579-.115.69.318.09.348.151.616-.175.9a19.355,19.355,0,0,0-1.5,1.5c-.272.3-.44.262-.7-.015a20.318,20.318,0,0,0-1.5-1.5c-.332-.292-.243-.568-.151-.906.116-.424.423-.3.7-.3C2189.521,794.928,2189.96,794.927,2190.4,794.926Z" transform="translate(-82.333 -140.726)" fill="#e9cfb5"/>
    <path id="Trazado_617382" data-name="Trazado 617382" d="M2210.085,619.294c.958,0,1.885.006,2.811,0a.4.4,0,0,1,.424.306c.243.638.7,1.351.449,1.936-.151.353-1.031.093-1.582.11s-1.249.178-1.648-.081c-.423-.275-.173-1.049-.352-1.582A4.081,4.081,0,0,1,2210.085,619.294Z" transform="translate(-97.698 -16.87)" fill="#82d1ec"/>
    <path id="Trazado_617383" data-name="Trazado 617383" d="M2171.72,637.458c-.948,0-1.875-.005-2.8,0a.4.4,0,0,1-.433-.291c-.248-.637-.7-1.352-.46-1.935.16-.382,1.022-.1,1.569-.124s1.239-.179,1.652.074c.443.271.174,1.044.362,1.572A4.011,4.011,0,0,1,2171.72,637.458Z" transform="translate(-67.987 -27.973)" fill="#82d1ec"/>
    <path id="Trazado_617384" data-name="Trazado 617384" d="M2210.087,637.605c.1-.676.2-1.278.272-1.883.038-.294.091-.493.474-.481.879.029,1.76.022,2.64,0,.335-.007.445.1.361.421-.013.047-.018.1-.028.144-.36,1.773-.389,1.8-2.194,1.8Z" transform="translate(-97.7 -28.12)" fill="#82d1ec"/>
    <path id="Trazado_617385" data-name="Trazado 617385" d="M2169.672,621.635a1.558,1.558,0,0,1-.219,0c-.484-.068-1.29.236-1.393-.156a3.349,3.349,0,0,1,.551-2.076c.078-.169.252-.118.389-.119.782-.005,1.565.017,2.347-.011.393-.014.469.122.347.46-.032.09-.013.2-.045.289-.179.51.061,1.276-.329,1.517s-1.086.056-1.646.056Z" transform="translate(-68.03 -16.856)" fill="#82d1ec"/>
    <path id="Trazado_617386" data-name="Trazado 617386" d="M2176.519,651.238c2.05-.093,2.05-.093,2.833,1.77A5.1,5.1,0,0,1,2176.519,651.238Z" transform="translate(-74.026 -39.38)" fill="#7ecbe5"/>
    <path id="Trazado_617387" data-name="Trazado 617387" d="M2207.557,651.233a7.681,7.681,0,0,1-3.058,1.877c.3-.635.544-1.152.778-1.676.107-.239.306-.2.5-.2C2206.31,651.232,2206.847,651.233,2207.557,651.233Z" transform="translate(-93.759 -39.397)" fill="#7ecbe5"/>
    <path id="Trazado_617388" data-name="Trazado 617388" d="M2176.118,606.755a7.753,7.753,0,0,1,3.015-1.806c-.1.211-.154.337-.216.457C2178.086,607,2178.085,607,2176.118,606.755Z" transform="translate(-73.743 -6.756)" fill="#7ecbe5"/>
    <path id="Trazado_617389" data-name="Trazado 617389" d="M2207.757,606.883c-2.291.11-2.42.028-2.936-1.814A7.638,7.638,0,0,1,2207.757,606.883Z" transform="translate(-93.986 -6.84)" fill="#7ecbe5"/>
    <path id="Trazado_617390" data-name="Trazado 617390" d="M2172.6,768.32a1.948,1.948,0,0,1-.006.436c-.055.236.185.6-.154.688-.274.07-.552-.15-.739-.387a1.1,1.1,0,0,1-.141-1.288c.195-.366.515-.685.908-.584.281.072.089.5.129.773A2.437,2.437,0,0,1,2172.6,768.32Z" transform="translate(-70.424 -121.16)" fill="#dfc6ae"/>
    <path id="Trazado_617391" data-name="Trazado 617391" d="M2215.288,768.276a2.09,2.09,0,0,1,.006-.436c.052-.239-.178-.611.142-.7.3-.081.593.165.788.429a1.1,1.1,0,0,1,.171,1.1c-.16.419-.481.789-.895.732s-.128-.549-.208-.836A1.138,1.138,0,0,1,2215.288,768.276Z" transform="translate(-101.349 -121.135)" fill="#dfc6ae"/>
    <path id="Trazado_617392" data-name="Trazado 617392" d="M2194.272,607.848h-1.784c0-.076-.018-.132,0-.167.261-.453.472-1.29.837-1.239C2193.822,606.512,2193.967,607.295,2194.272,607.848Z" transform="translate(-85.283 -7.808)" fill="#7ecbe5"/>
    <path id="Trazado_617393" data-name="Trazado 617393" d="M2192.267,651.348h1.774c0,.079.017.135,0,.169-.265.45-.468,1.288-.84,1.235C2192.71,652.681,2192.555,651.9,2192.267,651.348Z" transform="translate(-85.132 -39.479)" fill="#7ecbe5"/>
    <path id="Trazado_617394" data-name="Trazado 617394" d="M2185.569,808.868c-.073-.5-.155-.993-.214-1.491a.581.581,0,0,1,.115-.577c.316.34.614.678.933,1,.188.187.132.312-.021.486-.206.236-.375.5-.56.758Z" transform="translate(-80.237 -149.113)" fill="#e17156"/>
    <path id="Trazado_617395" data-name="Trazado 617395" d="M2202.87,806.852l-.279,2.054C2201.374,808.335,2201.416,807.929,2202.87,806.852Z" transform="translate(-91.803 -149.15)" fill="#e17156"/>
    <path id="Trazado_617396" data-name="Trazado 617396" d="M2270.317,782.773c-2.157,0-4.314-.015-6.471.011-.479.006-.606-.121-.6-.6q.032-5.294,0-10.588c0-.48.122-.6.6-.6q6.471.029,12.942,0c.479,0,.606.121.6.6q-.032,5.294,0,10.588c0,.479-.121.609-.6.6C2274.631,782.758,2272.474,782.773,2270.317,782.773Zm.074-4.708h-3.014c-1.791,0-1.772,0-1.781,1.764,0,.48.125.607.6.6,2.352-.025,4.7-.012,7.057-.012,1.817,0,1.8,0,1.78-1.837-.005-.414-.114-.533-.529-.526C2273.135,778.081,2271.763,778.065,2270.391,778.065Zm-.076-4.707h-2.94c-1.789,0-1.769,0-1.779,1.766,0,.485.132.6.606.6,2.352-.025,4.7-.011,7.056-.011,1.816,0,1.8,0,1.778-1.84-.005-.418-.12-.531-.531-.523C2273.108,773.373,2271.712,773.358,2270.315,773.358Z" transform="translate(-135.188 -123.86)" fill="#e5e8eb"/>
    <path id="Trazado_617397" data-name="Trazado 617397" d="M2086.622,782.773c-2.157,0-4.314-.015-6.471.011-.48.006-.606-.121-.6-.6q.032-5.293,0-10.588c0-.48.122-.6.6-.6q6.471.029,12.942,0c.479,0,.605.121.6.6q-.032,5.294,0,10.588c0,.48-.122.608-.6.6C2090.936,782.758,2088.779,782.773,2086.622,782.773Zm.044-4.708h-3.014c-1.75,0-1.729,0-1.752,1.721-.006.506.109.654.635.647,2.352-.031,4.7-.014,7.056-.014,1.768,0,1.752,0,1.75-1.794,0-.442-.092-.584-.559-.572C2089.41,778.088,2088.038,778.065,2086.666,778.065Zm-.084-2.354h3.014c1.764,0,1.747,0,1.747-1.8,0-.451-.106-.572-.564-.567-2.352.025-4.7.012-7.056.012-1.872,0-1.86,0-1.818,1.872.008.38.1.5.489.49C2083.788,775.7,2085.185,775.712,2086.582,775.712Z" transform="translate(-5.636 -123.86)" fill="#e5e8eb"/>
    <path id="Trazado_617398" data-name="Trazado 617398" d="M2086.621,627.26c2.157,0,4.314.015,6.471-.011.478-.006.606.119.6.6q-.033,5.294,0,10.588c0,.478-.12.6-.6.6q-6.472-.029-12.942,0c-.478,0-.606-.118-.6-.6q.032-5.294,0-10.588c0-.478.12-.609.6-.6C2082.306,627.276,2084.463,627.26,2086.621,627.26Zm-.047,9.415h3.087c1.68,0,1.66,0,1.682-1.717.006-.5-.1-.658-.63-.651-2.327.032-4.655.014-6.983.014-1.876,0-1.857,0-1.829,1.864.007.457.179.5.558.5C2083.829,636.664,2085.2,636.675,2086.574,636.675Zm.05-4.708h2.94c1.788,0,1.768,0,1.779-1.767,0-.487-.135-.6-.607-.6-2.352.024-4.7.011-7.056.011-1.815,0-1.8,0-1.777,1.841.005.419.123.529.532.522C2083.831,631.953,2085.227,631.968,2086.624,631.968Z" transform="translate(-5.636 -22.483)" fill="#e5e8eb"/>
    <path id="Trazado_617399" data-name="Trazado 617399" d="M2270.319,627.26c2.157,0,4.314.016,6.471-.012.487-.006.6.132.6.606q-.03,5.294,0,10.588c0,.487-.133.6-.606.6q-6.471-.027-12.942,0c-.486,0-.6-.132-.6-.605q.03-5.294,0-10.588c0-.487.133-.6.606-.6C2266,627.274,2268.162,627.26,2270.319,627.26Zm-.056,9.415h3.161c1.6,0,1.582,0,1.612-1.638.01-.545-.093-.743-.7-.732-2.327.041-4.655.016-6.983.016-1.774,0-1.75,0-1.762,1.786,0,.523.188.585.628.577C2267.568,636.659,2268.916,636.674,2270.263,636.674Zm.041-4.708h3.014c1.713,0,1.69,0,1.719-1.68.009-.53-.1-.7-.668-.69-2.327.038-4.655.016-6.982.016-1.823,0-1.8,0-1.795,1.827,0,.5.19.541.6.535C2267.56,631.954,2268.932,631.967,2270.3,631.967Z" transform="translate(-135.188 -22.482)" fill="#e5e8eb"/>
    <path id="Trazado_617400" data-name="Trazado 617400" d="M2201.742,708.362c0,1.138,0,1.138-1.143,1.138-1.212,0-1.212,0-1.212-1.216,0-1.138,0-1.138,1.143-1.138C2201.742,707.146,2201.742,707.146,2201.742,708.362Z" transform="translate(-90.154 -78.831)"/>
    <path id="Trazado_617401" data-name="Trazado 617401" d="M2216.569,707.146c1.147,0,1.147,0,1.147,1.134,0,1.22,0,1.22-1.207,1.22-1.147,0-1.147,0-1.147-1.134C2215.362,707.146,2215.362,707.146,2216.569,707.146Z" transform="translate(-101.42 -78.831)"/>
    <path id="Trazado_617402" data-name="Trazado 617402" d="M2169.795,676.419c0,1.138,0,1.138-1.143,1.138-1.211,0-1.211,0-1.211-1.216,0-1.138,0-1.138,1.142-1.138C2169.795,675.2,2169.795,675.2,2169.795,676.419Z" transform="translate(-67.623 -56.303)"/>
    <path id="Trazado_617403" data-name="Trazado 617403" d="M2185.769,676.423c0,1.134,0,1.134-1.147,1.134-1.207,0-1.207,0-1.207-1.22,0-1.134,0-1.134,1.147-1.134C2185.769,675.2,2185.769,675.2,2185.769,676.423Z" transform="translate(-78.889 -56.303)"/>
    <path id="Trazado_617404" data-name="Trazado 617404" d="M2275.945,707.123c1.4,0,2.794.015,4.19-.009.412-.007.525.106.53.524.023,1.839.039,1.839-1.778,1.839-2.352,0-4.7-.014-7.056.011-.476.005-.609-.115-.606-.6.01-1.766-.01-1.766,1.78-1.766Z" transform="translate(-140.818 -78.808)"/>
    <path id="Trazado_617405" data-name="Trazado 617405" d="M2275.946,723.094c1.4,0,2.794.016,4.19-.009.414-.007.524.109.53.525.023,1.839.038,1.839-1.779,1.839-2.352,0-4.7-.014-7.056.012-.478.005-.608-.118-.6-.6.01-1.765-.01-1.765,1.781-1.765Z" transform="translate(-140.819 -90.072)"/>
    <path id="Trazado_617406" data-name="Trazado 617406" d="M2092.209,725.438c-1.372,0-2.745-.022-4.116.012-.468.012-.559-.13-.559-.572,0-1.794-.018-1.794,1.75-1.794,2.353,0,4.7.018,7.057-.014.525-.007.641.14.634.647-.023,1.72,0,1.72-1.752,1.72Z" transform="translate(-11.268 -90.062)"/>
    <path id="Trazado_617407" data-name="Trazado 617407" d="M2092.195,709.473c-1.4,0-2.794-.013-4.19.008-.378.006-.486-.095-.5-.484-.042-1.878-.056-1.878,1.813-1.878,2.352,0,4.7.012,7.056-.011.447,0,.571.1.571.561,0,1.8.019,1.8-1.815,1.8Z" transform="translate(-11.243 -78.805)"/>
    <path id="Trazado_617408" data-name="Trazado 617408" d="M2276.021,794.965c1.372,0,2.745.016,4.116-.009.415-.008.523.111.529.526.023,1.838.037,1.837-1.78,1.837-2.352,0-4.7-.014-7.056.012-.479.005-.606-.121-.6-.6.01-1.763-.01-1.764,1.781-1.764Z" transform="translate(-140.819 -140.759)"/>
    <path id="Trazado_617409" data-name="Trazado 617409" d="M2275.945,778.994c1.4,0,2.793.015,4.189-.009.412-.007.526.105.531.523.023,1.84.038,1.84-1.778,1.84-2.353,0-4.7-.014-7.057.011-.474.005-.609-.114-.606-.6.01-1.766-.01-1.766,1.779-1.766Z" transform="translate(-140.818 -129.496)"/>
    <path id="Trazado_617410" data-name="Trazado 617410" d="M2092.293,794.957c1.372,0,2.745.023,4.116-.012.467-.012.559.13.559.572,0,1.794.018,1.794-1.75,1.794-2.352,0-4.7-.018-7.056.014-.525.007-.641-.14-.635-.647.023-1.72,0-1.721,1.752-1.721Z" transform="translate(-11.263 -140.751)"/>
    <path id="Trazado_617411" data-name="Trazado 617411" d="M2092.192,781.342c-1.4,0-2.793-.014-4.19.009-.388.006-.48-.111-.489-.49-.042-1.872-.054-1.872,1.818-1.872,2.352,0,4.7.014,7.056-.012.458-.005.564.116.564.567,0,1.8.018,1.8-1.747,1.8Z" transform="translate(-11.246 -129.49)"/>
    <path id="Trazado_617412" data-name="Trazado 617412" d="M2092.186,653.566c-1.372,0-2.744-.012-4.116.007-.378.005-.551-.04-.558-.5-.029-1.865-.047-1.864,1.829-1.864,2.328,0,4.656.018,6.983-.014.531-.007.637.15.63.651-.022,1.717,0,1.717-1.681,1.717Z" transform="translate(-11.248 -39.373)"/>
    <path id="Trazado_617413" data-name="Trazado 617413" d="M2092.245,637.6c-1.4,0-2.793-.015-4.189.009-.41.007-.527-.1-.532-.522-.024-1.841-.039-1.841,1.777-1.841,2.352,0,4.7.013,7.056-.011.473-.005.61.111.607.6-.01,1.767.01,1.767-1.778,1.767Z" transform="translate(-11.257 -28.116)"/>
    <path id="Trazado_617414" data-name="Trazado 617414" d="M2275.888,653.559c-1.348,0-2.7-.015-4.043.009-.44.008-.632-.055-.628-.577.013-1.785-.012-1.786,1.762-1.786,2.328,0,4.656.024,6.983-.016.606-.011.709.187.7.732-.031,1.638-.009,1.638-1.612,1.638Z" transform="translate(-140.812 -39.367)"/>
    <path id="Trazado_617415" data-name="Trazado 617415" d="M2275.927,637.589c-1.372,0-2.744-.013-4.116.008-.406.006-.6-.035-.6-.535,0-1.827-.028-1.827,1.795-1.827,2.327,0,4.655.022,6.982-.016.571-.009.677.159.668.69-.03,1.679-.007,1.68-1.719,1.68Z" transform="translate(-140.81 -28.105)"/>
  </g>
</svg>
