<svg xmlns="http://www.w3.org/2000/svg" width="72.024" height="68.172" viewBox="0 0 72.024 68.172">
  <g id="Grupo_943405" data-name="Grupo 943405" transform="translate(-1257.928 -1242.792)">
    <path id="Trazado_621777" data-name="Trazado 621777" d="M1268.167,1390.886c-.249.895-.455,1.051-1.426,1.055-1.219,0-2.438.016-3.656,0a3.038,3.038,0,0,1-3.164-3.2q-.015-7.275,0-14.549a2.083,2.083,0,0,1,2.265-2.277c1.228-.012,1.125-.022,1.253-1.253a4.723,4.723,0,0,0-1.572-4.222c-1.2-1.14-2.211-2.482-3.319-3.722a2.289,2.289,0,0,1-.617-1.659c.027-1.147,0-2.3.009-3.444,0-1.423.658-2.061,2.142-2.063q7.066-.008,14.132,0c.773,0,1.547-.017,2.32.005a1.787,1.787,0,0,1,1.934,1.992c.008,1.171-.014,2.343.008,3.514a2.313,2.313,0,0,1-.622,1.658c-1.525,1.716-3.03,3.449-4.556,5.165a1.091,1.091,0,0,0-.312.809c.021.89.027,1.781,0,2.67-.013.41.07.623.531.557a4.676,4.676,0,0,1,.7-.006,2.093,2.093,0,0,1,2.266,2.279c.01,2.2.016,4.4-.007,6.607-.005.492.15.646.639.649,1.418.01,1.418.029,1.672-1.391a21.586,21.586,0,0,1,42.466-.56,18.769,18.769,0,0,1,.39,4.258c-.027.616.18.719.74.707,1.827-.037,3.656-.016,5.484-.013,1.438,0,2.08.654,2.083,2.112,0,1.148.008,2.3,0,3.444a1.757,1.757,0,0,1-1.909,1.933c-1.664.017-3.328.005-4.992.005H1272.5c-1.089,0-1.3-.143-1.546-1.023.2-.847.485-1.085,1.36-1.088,1.851-.007,3.7-.018,5.552.008.478.007.646-.1.633-.612-.035-1.381-.012-2.763-.011-4.145,0-1.5,0-1.5-1.526-1.527a2.387,2.387,0,0,1-2.583-2.585c-.008-2.131-.013-4.262.007-6.393,0-.423-.108-.562-.546-.56q-5.622.024-11.245,0c-.4,0-.574.068-.572.53.017,4.708.007,9.415.014,14.123,0,.818.336,1.146,1.154,1.154,1.195.012,2.389,0,3.584,0C1267.659,1389.834,1267.923,1390.04,1268.167,1390.886Zm.169-19.005c.678.011,1.357,0,2.034.042.393.021.531-.1.52-.506-.027-1.006.009-2.014-.015-3.021a2.29,2.29,0,0,1,.621-1.657c1.371-1.538,2.7-3.118,4.1-4.627a2.411,2.411,0,0,0,.771-2.054c-.093-.779.34-1.872-.167-2.272-.564-.445-1.614-.134-2.453-.1a.274.274,0,0,0-.067.02q-6.633-.021-13.265-.047c-.341,0-.371.166-.368.435.01.866.021,1.732,0,2.6a1.256,1.256,0,0,0,.355.938c1.493,1.678,2.963,3.376,4.46,5.051a2.44,2.44,0,0,1,.676,1.778c-.027,1.005,0,2.012-.013,3.018-.005.327.084.459.432.446C1266.745,1371.888,1267.54,1371.891,1268.335,1371.881Zm48.532,17.913c.7.012,1.405,0,2.105.045.453.029.592-.1.585-.572-.028-1.921,0-3.842-.016-5.764a18.691,18.691,0,0,0-2.682-9.687,19.559,19.559,0,0,0-22.484-8.774,19.529,19.529,0,0,0-13.681,16.833c-.191,2.387-.035,4.777-.115,7.164-.021.629.134.808.789.807q17.4-.033,34.8-.018C1316.4,1389.828,1316.635,1389.806,1316.867,1389.794Zm7.875-3.236c-.842,0-1.684.017-2.526-.008-.4-.012-.6.055-.57.525.042.746.031,1.5,0,2.244-.014.4.111.521.511.517,1.731-.019,3.462-.016,5.193,0,.345,0,.5-.07.491-.459-.028-.794-.022-1.59,0-2.385.008-.334-.1-.446-.434-.438C1326.521,1386.572,1325.632,1386.559,1324.743,1386.558Z" transform="translate(0 -80.984)" fill="#030404"/>
    <path id="Trazado_621778" data-name="Trazado 621778" d="M1278.594,1437.985c-.244-.846-.508-1.052-1.4-1.057-1.195-.006-2.39.007-3.584,0-.818-.008-1.152-.337-1.154-1.154-.006-4.708,0-9.415-.014-14.122,0-.462.17-.531.572-.53q5.622.018,11.245,0c.439,0,.55.138.546.56-.02,2.131-.015,4.262-.007,6.394a2.386,2.386,0,0,0,2.583,2.585c1.527.03,1.526.03,1.526,1.527,0,1.382-.024,2.764.011,4.145.013.507-.154.619-.633.612-1.85-.026-3.7-.016-5.552-.008-.875,0-1.159.241-1.36,1.088Z" transform="translate(-10.427 -128.082)" fill="#5f92ef"/>
    <path id="Trazado_621779" data-name="Trazado 621779" d="M1447.062,1262.444c.439.874.382,1.238-.387,1.8a11.531,11.531,0,0,1-12,1.495,11.361,11.361,0,0,1-7.178-9.865,11.94,11.94,0,0,1,23.6-3.449,11.741,11.741,0,0,1-.708,7.018c-.372.88-.7,1.051-1.63.867a1.264,1.264,0,0,1-.334-1.676,9.68,9.68,0,0,0,.607-5.76,9.78,9.78,0,0,0-8.305-7.8,7.437,7.437,0,0,0-2.787-.022,9.818,9.818,0,0,0,2.654,19.456,8.986,8.986,0,0,0,4.763-1.931A1.29,1.29,0,0,1,1447.062,1262.444Z" transform="translate(-121.755 -0.006)" fill="#040404"/>
    <path id="Trazado_621780" data-name="Trazado 621780" d="M1322.515,1262.466c.4.894.321,1.2-.449,1.8a11.971,11.971,0,1,1,3.786-4.93c-.4.982-.671,1.132-1.705.982a1.419,1.419,0,0,1-.266-1.776,9.556,9.556,0,0,0,.351-6.593c-1.063-3.636-4.56-6.628-8.013-6.861h-.055l-.217-.065a10.032,10.032,0,0,0-3.076.1,9.824,9.824,0,0,0,3.214,19.373,9,9,0,0,0,4.66-1.9A1.307,1.307,0,0,1,1322.515,1262.466Z" transform="translate(-32.269)" fill="#030303"/>
    <path id="Trazado_621781" data-name="Trazado 621781" d="M1356.246,1268.315a1.308,1.308,0,0,0-1.77.131,9,9,0,0,1-4.66,1.9c.092-.182.277-.241.438-.334a10.478,10.478,0,0,0,3.247-2.921,10.932,10.932,0,0,0-.711-13.79,20.753,20.753,0,0,0-2.839-2.364c3.453.233,6.95,3.225,8.013,6.861a9.555,9.555,0,0,1-.351,6.593,1.419,1.419,0,0,0,.266,1.776A6.952,6.952,0,0,1,1356.246,1268.315Z" transform="translate(-65.999 -5.849)" fill="#d4863b"/>
    <path id="Trazado_621782" data-name="Trazado 621782" d="M1480.588,1268.238a1.29,1.29,0,0,0-1.707.131,8.987,8.987,0,0,1-4.763,1.931,14.119,14.119,0,0,0,2.168-1.524,10.933,10.933,0,0,0-.188-16.55c-.586-.5-1.294-.822-1.846-1.359a9.78,9.78,0,0,1,8.305,7.8,9.681,9.681,0,0,1-.607,5.76,1.264,1.264,0,0,0,.334,1.676A7.065,7.065,0,0,1,1480.588,1268.238Z" transform="translate(-155.281 -5.799)" fill="#7ebcf0"/>
    <path id="Trazado_621783" data-name="Trazado 621783" d="M1375.9,1369.186a1.335,1.335,0,0,1-1.161-1.428,1.019,1.019,0,0,1,1.069-1.047,1.349,1.349,0,0,1,1.176,1.423A1.061,1.061,0,0,1,1375.9,1369.186Z" transform="translate(-83.903 -89.006)" fill="#040404"/>
    <path id="Trazado_621784" data-name="Trazado 621784" d="M1370.107,1351.054a1.367,1.367,0,0,1,1.178,1.426,1.026,1.026,0,0,1-1.056,1.065,1.32,1.32,0,0,1-1.179-1.41A1.061,1.061,0,0,1,1370.107,1351.054Z" transform="translate(-79.814 -77.76)" fill="#040404"/>
    <path id="Trazado_621785" data-name="Trazado 621785" d="M1433.376,1369.188a1.053,1.053,0,0,1-1.012-1.119,1.3,1.3,0,0,1,1.236-1.356,1,1,0,0,1,.994,1.113A1.279,1.279,0,0,1,1433.376,1369.188Z" transform="translate(-125.288 -89.007)" fill="#040404"/>
    <path id="Trazado_621786" data-name="Trazado 621786" d="M1439.132,1353.542a1.023,1.023,0,0,1-1.034-1.084,1.347,1.347,0,0,1,1.189-1.41,1.092,1.092,0,0,1,1.052,1.1A1.333,1.333,0,0,1,1439.132,1353.542Z" transform="translate(-129.409 -77.756)" fill="#040404"/>
    <path id="Trazado_621787" data-name="Trazado 621787" d="M1363.329,1336.5a1.084,1.084,0,0,1,1.082-1.054,1.407,1.407,0,0,1,1.164,1.495,1.056,1.056,0,0,1-1.036,1.015A1.374,1.374,0,0,1,1363.329,1336.5Z" transform="translate(-75.705 -66.548)" fill="#040404"/>
    <path id="Trazado_621788" data-name="Trazado 621788" d="M1445.954,1336.493a1.356,1.356,0,0,1-1.2,1.459,1.075,1.075,0,0,1-1.049-1.083,1.408,1.408,0,0,1,1.173-1.428A1.062,1.062,0,0,1,1445.954,1336.493Z" transform="translate(-133.438 -66.545)" fill="#040404"/>
    <path id="Trazado_621789" data-name="Trazado 621789" d="M1374.614,1411.832c-.233.012-.466.034-.7.034q-17.4,0-34.8.018c-.655,0-.81-.178-.789-.807.08-2.387-.076-4.777.115-7.164a19.53,19.53,0,0,1,13.681-16.833,19.01,19.01,0,0,1,10.393-.248c.321.509.91.6,1.383.859a20.2,20.2,0,0,1,7.176,6.548,21.218,21.218,0,0,1,3.54,12.322C1374.6,1408.318,1374.614,1410.075,1374.614,1411.832Zm-29.062-5.077h1.687c1.283,0,1.53-.27,1.624-1.545a8.976,8.976,0,0,1,14.9-6.24,8.705,8.705,0,0,1,3.059,6.471c.047,1.011.39,1.31,1.406,1.313,1.312,0,2.624.009,3.936,0,.865-.007,1.253-.4,1.246-1.246a14.158,14.158,0,0,0-.247-2.654,15.586,15.586,0,0,0-30.911,2.61c0,.905.362,1.279,1.267,1.291C1344.192,1406.763,1344.872,1406.755,1345.551,1406.755Zm11.213-5.825h0a3.813,3.813,0,0,0,0,.491,1.159,1.159,0,0,1-.728,1.352,3.129,3.129,0,0,0-1.666,2.757,3.455,3.455,0,0,0,2.917,3.579,3.493,3.493,0,0,0,3.791-2.247,3.419,3.419,0,0,0-1.693-4.228.8.8,0,0,1-.521-.9c.026-.655.022-1.312,0-1.967a1.01,1.01,0,0,0-.993-1.055,1.036,1.036,0,0,0-1.1,1.027C1356.741,1400.133,1356.764,1400.533,1356.764,1400.931Z" transform="translate(-57.746 -103.022)" fill="#f4f1ef"/>
    <path id="Trazado_621790" data-name="Trazado 621790" d="M1273.717,1377.27c-.8.01-1.59.007-2.384.038-.348.013-.438-.119-.432-.446.016-1.006-.015-2.013.013-3.018a2.441,2.441,0,0,0-.676-1.778c-1.5-1.675-2.967-3.373-4.46-5.051a1.255,1.255,0,0,1-.355-.938c.026-.865.015-1.731,0-2.6,0-.269.027-.437.368-.435q6.633.033,13.265.047c.006,1.191,0,2.382.022,3.573a1.1,1.1,0,0,1-.333.805q-2.311,2.569-4.6,5.161a1.659,1.659,0,0,0-.439,1.207C1273.747,1374.981,1273.72,1376.126,1273.717,1377.27Z" transform="translate(-5.382 -86.373)" fill="#9fd8f5"/>
    <path id="Trazado_621791" data-name="Trazado 621791" d="M1436.285,1413.383c0-1.757-.009-3.514,0-5.271a21.218,21.218,0,0,0-3.54-12.322,20.2,20.2,0,0,0-7.176-6.548c-.473-.257-1.062-.351-1.383-.859a19.027,19.027,0,0,1,12.091,9.022,18.692,18.692,0,0,1,2.682,9.687c.013,1.921-.012,3.843.016,5.764.007.469-.133.6-.585.572C1437.69,1413.382,1436.986,1413.395,1436.285,1413.383Z" transform="translate(-119.417 -104.572)" fill="#e7dfdb"/>
    <path id="Trazado_621792" data-name="Trazado 621792" d="M1294.856,1377c0-1.145.03-2.289,0-3.432a1.658,1.658,0,0,1,.439-1.207q2.289-2.588,4.6-5.161a1.1,1.1,0,0,0,.333-.806c-.019-1.191-.016-2.381-.022-3.572a.277.277,0,0,1,.067-.02c.839-.03,1.89-.342,2.453.1.508.4.074,1.494.167,2.272a2.412,2.412,0,0,1-.771,2.054c-1.4,1.508-2.728,3.088-4.1,4.627a2.29,2.29,0,0,0-.621,1.657c.024,1.006-.012,2.014.015,3.021.011.408-.127.527-.52.506C1296.214,1377,1295.535,1377.007,1294.856,1377Z" transform="translate(-26.521 -86.099)" fill="#7bb7e9"/>
    <path id="Trazado_621793" data-name="Trazado 621793" d="M1487.181,1465.61c.889,0,1.778.013,2.666-.007.339-.008.443.1.434.438-.021.795-.026,1.591,0,2.385.014.389-.146.462-.491.459-1.731-.014-3.462-.017-5.192,0-.4,0-.526-.121-.511-.517.027-.747.038-1.5,0-2.244-.026-.469.171-.536.57-.525C1485.5,1465.627,1486.339,1465.61,1487.181,1465.61Z" transform="translate(-162.438 -160.035)" fill="#5f92ef"/>
    <path id="Trazado_621794" data-name="Trazado 621794" d="M1446.116,1250.5c.552.537,1.261.855,1.846,1.359a10.933,10.933,0,0,1,.188,16.551,14.127,14.127,0,0,1-2.168,1.524,9.819,9.819,0,0,1-2.654-19.456A7.441,7.441,0,0,1,1446.116,1250.5Zm-.286,5.81c0-.8.015-1.593,0-2.389a1.042,1.042,0,0,0-1.061-1.144,1.019,1.019,0,0,0-1.042,1.148q-.016,3.092,0,6.184a1.022,1.022,0,0,0,1.124,1.141c1.148.018,2.3.014,3.444,0a1.076,1.076,0,0,0,1.192-1.016c.019-.623-.465-1.062-1.2-1.09-.164-.006-.328,0-.492,0-.628-.015-1.475.209-1.826-.111-.41-.373-.094-1.233-.129-1.88C1445.818,1256.874,1445.83,1256.593,1445.83,1256.311Z" transform="translate(-127.145 -5.434)" fill="#9fd7f4"/>
    <path id="Trazado_621795" data-name="Trazado 621795" d="M1321.635,1250.579a20.727,20.727,0,0,1,2.839,2.364,10.932,10.932,0,0,1,.711,13.79,10.476,10.476,0,0,1-3.247,2.921c-.161.093-.346.152-.437.334a9.824,9.824,0,0,1-3.214-19.373,10.04,10.04,0,0,1,3.076-.1l.217.066Zm-4.467,11.908a1.039,1.039,0,0,0-.931.643,1,1,0,0,0,.186,1.111,4.528,4.528,0,0,0,2.024,1.347c.515.164.759.36.724.96a1.029,1.029,0,0,0,1.035,1.229c.663.007,1.063-.41,1.042-1.21-.014-.508.153-.708.64-.878a3.191,3.191,0,0,0,.339-6.069,7.639,7.639,0,0,0-.71-.3c-.718-.284-1.439-.558-2.154-.847-.31-.126-.607-.286-.593-.692a.967.967,0,0,1,.58-.893,2.12,2.12,0,0,1,1.367-.172,4.649,4.649,0,0,1,1.6.7,1,1,0,0,0,1.479-.252,1.039,1.039,0,0,0-.3-1.481,4.063,4.063,0,0,0-1.547-.807c-.578-.127-.726-.406-.7-.966a1.036,1.036,0,0,0-1.026-1.17,1.064,1.064,0,0,0-1.053,1.164.979.979,0,0,1-.691,1.091,2.91,2.91,0,0,0-1.828,2.838,2.708,2.708,0,0,0,1.851,2.573c.407.176.829.319,1.237.494a9.221,9.221,0,0,1,1.922.845.965.965,0,0,1,.032,1.692,1.782,1.782,0,0,1-1.029.4,3.248,3.248,0,0,1-2.517-.86A1.407,1.407,0,0,0,1317.168,1262.487Z" transform="translate(-37.684 -5.493)" fill="#dca447"/>
    <path id="Trazado_621796" data-name="Trazado 621796" d="M1349.543,1250.77l-.217-.066Z" transform="translate(-65.647 -5.683)" fill="#d4863b"/>
    <path id="Trazado_621797" data-name="Trazado 621797" d="M1355.546,1416.691c-.68,0-1.359.007-2.038,0-.905-.012-1.266-.386-1.267-1.291a15.586,15.586,0,0,1,30.911-2.61,14.147,14.147,0,0,1,.247,2.654c.007.848-.38,1.239-1.246,1.246-1.312.011-2.624.005-3.936,0-1.016,0-1.359-.3-1.406-1.313a8.706,8.706,0,0,0-3.058-6.471,8.977,8.977,0,0,0-14.9,6.24c-.094,1.274-.34,1.544-1.624,1.545Zm.017-2.109c1.147,0,1.13,0,1.359-1.11a11.224,11.224,0,0,1,3.179-5.821c.4-.391,1.146-.645,1.149-1.137,0-.507-.539-1-.787-1.528-.2-.42-.374-.415-.72-.149a13.451,13.451,0,0,0-5.216,8.531C1354.31,1414.577,1354.337,1414.582,1355.563,1414.582Zm24.481,0a3.73,3.73,0,0,1,.562,0c.552.085.68-.14.6-.665a13.6,13.6,0,0,0-4.558-8.465c-1.148-1.013-1.152-1.009-1.9.283a1.93,1.93,0,0,1-.178.3c-.344.4-.208.635.183.95a10.819,10.819,0,0,1,3.953,6.519C1378.918,1414.58,1378.907,1414.582,1380.044,1414.582Zm-12.873-12.421a12.73,12.73,0,0,0-4.03.833c-1.147.432-1.147.432-.525,1.516a4.453,4.453,0,0,1,.238.429c.2.459.436.575.963.362a10.849,10.849,0,0,1,7.087-.344c.529.144,1.093.683,1.551.4.423-.257.575-.935.892-1.4.285-.416.149-.582-.269-.754A14.684,14.684,0,0,0,1367.172,1402.161Z" transform="translate(-67.741 -112.958)" fill="#030303"/>
    <path id="Trazado_621798" data-name="Trazado 621798" d="M1397.659,1432.757c0-.4-.023-.8.005-1.194a1.036,1.036,0,0,1,1.1-1.027,1.01,1.01,0,0,1,.993,1.055c.022.655.026,1.312,0,1.967a.8.8,0,0,0,.521.9,3.419,3.419,0,0,1,1.693,4.227,3.493,3.493,0,0,1-3.791,2.247,3.455,3.455,0,0,1-2.917-3.579,3.128,3.128,0,0,1,1.666-2.756,1.159,1.159,0,0,0,.728-1.352,3.811,3.811,0,0,1,0-.491Zm1.062,3.435a1.331,1.331,0,0,0-1.348,1.323,1.374,1.374,0,0,0,1.338,1.352,1.341,1.341,0,0,0,1.337-1.341A1.31,1.31,0,0,0,1398.722,1436.192Z" transform="translate(-98.641 -134.848)" fill="#030303"/>
    <path id="Trazado_621799" data-name="Trazado 621799" d="M1468.185,1262.481c0,.281-.012.563,0,.843.035.647-.28,1.507.129,1.88.351.32,1.2.1,1.826.111.164,0,.328,0,.492,0,.739.028,1.222.467,1.2,1.09a1.075,1.075,0,0,1-1.192,1.016c-1.148.012-2.3.016-3.444,0a1.022,1.022,0,0,1-1.124-1.142q-.018-3.092,0-6.184a1.019,1.019,0,0,1,1.042-1.148,1.042,1.042,0,0,1,1.061,1.144C1468.2,1260.888,1468.185,1261.685,1468.185,1262.481Z" transform="translate(-149.5 -11.604)" fill="#030303"/>
    <path id="Trazado_621800" data-name="Trazado 621800" d="M1331.826,1268.347a1.4,1.4,0,0,1,.976.488,3.247,3.247,0,0,0,2.517.86,1.782,1.782,0,0,0,1.029-.4.965.965,0,0,0-.032-1.692,9.217,9.217,0,0,0-1.922-.845c-.408-.174-.83-.317-1.237-.494a2.708,2.708,0,0,1-1.851-2.573,2.91,2.91,0,0,1,1.828-2.838.979.979,0,0,0,.691-1.09,1.064,1.064,0,0,1,1.053-1.164,1.035,1.035,0,0,1,1.025,1.17c-.026.561.122.84.7.967a4.063,4.063,0,0,1,1.547.806,1.039,1.039,0,0,1,.3,1.481,1,1,0,0,1-1.479.252,4.649,4.649,0,0,0-1.6-.7,2.12,2.12,0,0,0-1.367.172.968.968,0,0,0-.58.893c-.014.406.283.566.593.692.715.289,1.436.563,2.154.847a7.577,7.577,0,0,1,.71.3,3.19,3.19,0,0,1-.339,6.069c-.486.17-.653.371-.64.879.021.8-.379,1.217-1.042,1.21a1.029,1.029,0,0,1-1.035-1.23c.035-.6-.208-.8-.724-.96a4.527,4.527,0,0,1-2.024-1.347,1,1,0,0,1-.186-1.111A1.037,1.037,0,0,1,1331.826,1268.347Z" transform="translate(-52.343 -11.353)" fill="#040301"/>
    <path id="Trazado_621801" data-name="Trazado 621801" d="M1361.127,1426.293c-1.226,0-1.254-.005-1.036-1.214a13.451,13.451,0,0,1,5.216-8.531c.346-.266.521-.271.72.149.249.526.79,1.021.787,1.528,0,.492-.754.746-1.149,1.137a11.224,11.224,0,0,0-3.179,5.821C1362.257,1426.29,1362.274,1426.293,1361.127,1426.293Z" transform="translate(-73.305 -124.669)" fill="#9dd4f1"/>
    <path id="Trazado_621802" data-name="Trazado 621802" d="M1436.476,1426.5c-1.138,0-1.127,0-1.336-1.072a10.818,10.818,0,0,0-3.953-6.519c-.39-.315-.526-.55-.183-.95a1.931,1.931,0,0,0,.178-.3c.747-1.292.751-1.3,1.9-.283a13.6,13.6,0,0,1,4.558,8.465c.078.526-.05.75-.6.665A3.745,3.745,0,0,0,1436.476,1426.5Z" transform="translate(-124.172 -124.871)" fill="#ca5f8d"/>
    <path id="Trazado_621803" data-name="Trazado 621803" d="M1392.564,1407.523a14.682,14.682,0,0,1,5.907,1.05c.417.172.554.338.269.754-.316.462-.469,1.14-.892,1.4-.458.279-1.022-.26-1.551-.4a10.848,10.848,0,0,0-7.088.344c-.526.212-.764.1-.962-.362a4.426,4.426,0,0,0-.238-.429c-.622-1.084-.622-1.084.525-1.516A12.73,12.73,0,0,1,1392.564,1407.523Z" transform="translate(-93.134 -118.32)" fill="#dca447"/>
    <path id="Trazado_621804" data-name="Trazado 621804" d="M1404.106,1450.615a1.311,1.311,0,0,1,1.327,1.335,1.341,1.341,0,0,1-1.338,1.34,1.374,1.374,0,0,1-1.338-1.352A1.331,1.331,0,0,1,1404.106,1450.615Z" transform="translate(-104.025 -149.271)" fill="#5f92ef"/>
  </g>
</svg>
