<svg xmlns="http://www.w3.org/2000/svg" width="124" height="124" viewBox="0 0 124 124">
  <g id="Grupo_940227" data-name="Grupo 940227" transform="translate(-1049 -4740)">
    <circle id="Elipse_7678" data-name="Elipse 7678" cx="50.5" cy="50.5" r="50.5" transform="translate(1061 4752)" fill="#fff"/>
    <rect id="Rectángulo_305813" data-name="Rectángulo 305813" width="124" height="124" transform="translate(1049 4740)" fill="none"/>
    <g id="Grupo_940229" data-name="Grupo 940229" transform="translate(1747.772 3782.703)">
      <path id="Trazado_619113" data-name="Trazado 619113" d="M-657.229,993.825c.562-1.1,1-1.272,2.16-.937a13.953,13.953,0,0,1,4.632,2.481,5.118,5.118,0,0,1,.934-2.475,1.492,1.492,0,0,0,.146-.962,26.5,26.5,0,0,1,.429-6.281,13.061,13.061,0,0,1,12.918-9.666,12.989,12.989,0,0,1,12.418,10.927,32.632,32.632,0,0,1,.161,4.593,2.782,2.782,0,0,0,.449,1.776,4.166,4.166,0,0,1,.632,1.957c.306.1.418-.173.594-.3,4.143-2.937,8.608-3.526,13.211-1.4a12.413,12.413,0,0,1,7.524,11.029c.053.719.056,1.444.049,2.165a7.161,7.161,0,0,0,.633,3.37,4.528,4.528,0,0,1-3.021,6.262,1.053,1.053,0,0,0-.9.922,9.321,9.321,0,0,1-2.86,4.9,4.176,4.176,0,0,0-.455,2.876c.147.261.449.274.691.368q5.325,2.074,10.656,4.134a9.4,9.4,0,0,1,6.19,8.88c.02,1.806.008,3.612,0,5.418,0,1.193-.262,1.506-1.443,1.809a1.638,1.638,0,0,1-1.278-1.891c.039-1.714.027-3.431.007-5.146a6.674,6.674,0,0,0-4.555-6.572c-1.873-.729-3.758-1.431-5.615-2.2-.577-.239-.847-.212-1.134.405-.834,1.8-1.736,3.561-2.636,5.325a2.119,2.119,0,0,1-2.611,1.216c-1.006-.3-1.353-.005-1.177,1.047.925,5.543,1.829,11.089,2.808,16.623a3.018,3.018,0,0,1-.859,2.943c-.749.741-1.423,1.557-2.252,2.474,3.19,0,6.137-.029,9.082.02.747.012.871-.236.868-.909-.024-6.05-.014-12.1-.012-18.149a5.1,5.1,0,0,1,.041-.9,1.282,1.282,0,0,1,1.443-1.179,1.268,1.268,0,0,1,1.216,1.318c.018.27.01.541.011.812,0,6.05.011,12.1-.015,18.149,0,.667.149.888.841.854,1.231-.06,2.469-.05,3.7,0,.661.025.886-.158.876-.852-.039-2.678,0-5.357-.024-8.036a1.553,1.553,0,0,1,1.276-1.786c1.118.237,1.437.6,1.44,1.7.008,2.859.017,5.719,0,8.578a2.959,2.959,0,0,1-2.976,3.083c-.24.014-.482,0-.723,0q-20.1,0-40.191,0a4.609,4.609,0,0,1-2.026-.333.518.518,0,0,0-.508-.061,6.57,6.57,0,0,1-3.187.389q-19.6.007-39.2,0c-2.616,0-3.676-1.056-3.677-3.658q0-10.023,0-20.046a9.478,9.478,0,0,1,6.515-9.479c3.441-1.332,6.876-2.68,10.331-3.976a1,1,0,0,0,.747-1.1,2.716,2.716,0,0,0-.971-2.417,8.353,8.353,0,0,1-2.575-4.554,1.2,1.2,0,0,0-1.013-1.033,4.558,4.558,0,0,1-2.66-6.791,2.245,2.245,0,0,0,.329-1.269,22.877,22.877,0,0,1,.494-6.36,12.856,12.856,0,0,1,8.591-8.99,1.38,1.38,0,0,1,1.881.907,2.009,2.009,0,0,1-.4,1.4l-.317.193c-5.518,1.673-7.816,6.4-7.548,11.481.008.145-.021.333.164.37.206.04.323-.126.409-.287a2.135,2.135,0,0,1,1.753-1.1c.961-.014,1.926.028,2.881-.052a19.8,19.8,0,0,0,8.722-2.895c1.379-.839,2.305-.742,3.3.367a18.422,18.422,0,0,1,3.276,4,13.222,13.222,0,0,0-.223-4.2,9.98,9.98,0,0,0-6.871-7.562C-656.575,995.261-657.255,994.869-657.229,993.825Zm19.691,14.648c-.524-.12-1.053-.22-1.57-.364s-.7.041-.662.562a1.424,1.424,0,0,0,.255.922c.664.767,1.307,1.551,1.958,2.329.306.4.631.8.915,1.216.26.385.437.365.722,0q1.39-1.767,2.839-3.488a1.849,1.849,0,0,0,.283-1.274c.017-.373-.11-.471-.476-.341A11.48,11.48,0,0,1-637.539,1008.473Zm22.4,16.306c-.555-.123-1.117-.224-1.665-.376-.4-.113-.564,0-.524.412.034.349-.08.712.2,1.031.667.77,1.312,1.559,1.967,2.341,1.221,1.838,1.222,1.838,2.547.215.323-.4.642-.793.963-1.19.377-.467.763-.927,1.129-1.4a1.251,1.251,0,0,0,.105-1.359c-.2-.354-.649,0-.974.078A11.15,11.15,0,0,1-615.135,1024.779Zm-44.981-.006a10.334,10.334,0,0,1-1.385-.315c-.631-.233-.8-.02-.749.587a1.3,1.3,0,0,0,.257.822c.636.741,1.255,1.5,1.88,2.248.345.452.709.891,1.029,1.359.279.408.467.324.734-.016.836-1.063,1.661-2.139,2.56-3.147a2.022,2.022,0,0,0,.466-2.037A11.754,11.754,0,0,1-660.116,1024.773Zm23.453,8.109c.135.221.246.711.573.312a17.661,17.661,0,0,1,1.821-1.974c.246-.221.152-.5.107-.756q-.436-2.518-.882-5.033c-.152-.916-.337-1.828-.444-2.749-.06-.511-.212-.725-.771-.709-.5.014-.724.12-.811.667-.419,2.637-.886,5.266-1.345,7.9a.878.878,0,0,0,.307.874C-637.607,1031.879-637.143,1032.389-636.663,1032.882Zm24.022,8.626q-.192-1.243-.384-2.486c-.068-.443-.171-.766-.772-.746-.575.019-.744.21-.837.768-.859,5.181-1.752,10.357-2.647,15.532a1.35,1.35,0,0,0,.382,1.3c.82.837,1.588,1.725,2.382,2.588.727.791.729.788,1.386-.111.861-.916,1.719-1.836,2.586-2.746a.753.753,0,0,0,.2-.729Q-611.507,1048.2-612.642,1041.508Zm-45.135,16.609c.7-.743,1.37-1.509,2.1-2.222a1.376,1.376,0,0,0,.394-1.378c-.247-1.295-.455-2.6-.681-3.9q-.823-4.736-1.648-9.472c-.1-.681-.249-1.358-.3-2.042-.043-.588-.235-.825-.873-.833-.693-.009-.688.438-.76.867-.873,5.179-1.728,10.36-2.624,15.535a1.131,1.131,0,0,0,.324,1.115c.748.781,1.466,1.592,2.193,2.394C-658.691,1059.251-658.693,1059.253-657.776,1058.117Zm13.373-68.589a19.561,19.561,0,0,0,11.771-2.98,2.149,2.149,0,0,1,3.139.414,17.952,17.952,0,0,1,3.338,4.055,22.267,22.267,0,0,0-.172-4.049c-1.089-5.885-7.6-9.773-13.016-7.757-4.329,1.166-7.839,5.442-7.266,11.335.015.149.018.33.206.339a.381.381,0,0,0,.274-.19A2.463,2.463,0,0,1-644.4,989.528Zm27.646,5.958a10.161,10.161,0,0,0-7.207,11.868,2.749,2.749,0,0,1,1.967-1.462,19.872,19.872,0,0,0,11.7-2.945,2.27,2.27,0,0,1,3.361.446,20.345,20.345,0,0,1,3.173,3.788C-602.823,998.048-610.818,993.535-616.757,995.486Zm-2.357,13.154c-.539,0-1.079.006-1.617-.014-.367-.014-.548.089-.535.5.075,2.335-.153,4.678.152,7.007a6.929,6.929,0,0,0,4.87,5.551,4.969,4.969,0,0,0,2.633.439,7.156,7.156,0,0,0,6.965-7.388c.02-1.956-.034-3.914.021-5.869a2.334,2.334,0,0,0-.816-2.057c-.5-.422-.85-1.18-1.4-1.355-.626-.2-1.21.507-1.814.809A25,25,0,0,1-619.114,1008.64Zm-22.395-16.367c-.539.012-1.078.049-1.615.028-.426-.016-.572.127-.567.562.025,2.038-.053,4.081.043,6.115a6.9,6.9,0,0,0,5.025,6.39,7.132,7.132,0,0,0,9.412-5.6c.31-2.668.071-5.349.146-8.023a.839.839,0,0,0-.253-.642c-.559-.589-1.124-1.174-1.651-1.79a.547.547,0,0,0-.834-.116A22.647,22.647,0,0,1-641.509,992.273Zm-22.406,16.36c-.539,0-1.08.014-1.619-.008-.393-.017-.6.063-.6.531.038,2.22-.043,4.445.087,6.659a6.849,6.849,0,0,0,5.2,5.971,3.338,3.338,0,0,0,1.4.283,7.127,7.127,0,0,0,7.826-6.281c.2-2.311.022-4.626.119-6.936a2.253,2.253,0,0,0-.785-1.984c-.543-.464-.883-1.348-1.541-1.425-.542-.064-1.159.522-1.744.819A24.5,24.5,0,0,1-663.915,1008.633Zm31.259,51.229c.721.012,1.448-.025,2.163.049.744.077.952-.156.948-.919-.033-6.049-.019-12.1-.018-18.148a3.241,3.241,0,0,1,.113-1.16,1.243,1.243,0,0,1,1.388-.9,1.221,1.221,0,0,1,1.182,1.148,6.607,6.607,0,0,1,.028.9c0,6.079.013,12.159-.015,18.238,0,.679.172.856.849.846,2.8-.04,5.6-.014,8.4-.024.18,0,.421.131.567-.172l-2.412-2.666a2.334,2.334,0,0,1-.6-2.077c.719-4.206,1.419-8.414,2.128-12.621.255-1.511.525-3.019.777-4.531.131-.786-.255-1.375-.769-1.208-1.668.541-2.407.239-3.19-1.318-.849-1.689-1.711-3.373-2.524-5.08-.244-.514-.475-.62-1.01-.4-1.887.773-3.793,1.5-5.7,2.231a6.168,6.168,0,0,0-1.581.846,6.616,6.616,0,0,0-3,6.058q.016,9.409,0,18.817C-634.927,1060.015-634.927,1060.015-632.656,1059.861Zm-44.981,0c.781.013,1.568-.023,2.343.052.732.07.89-.2.887-.9-.028-6.08-.016-12.159-.014-18.239a4.275,4.275,0,0,1,.052-.989,1.231,1.231,0,0,1,1.126-1.005,1.25,1.25,0,0,1,1.381.783,2.7,2.7,0,0,1,.153,1.154q0,6.817,0,13.634c0,1.625,0,3.25,0,4.875,0,.3-.125.678.439.675,3.088-.015,6.177-.007,9.476-.007-.923-1.024-1.7-1.918-2.514-2.781a2.468,2.468,0,0,1-.655-2.242q.765-4.442,1.525-8.884.7-4.133,1.375-8.27c.143-.881-.272-1.231-1.072-.944a2.116,2.116,0,0,1-2.716-1.146q-1.379-2.682-2.693-5.4c-.227-.468-.409-.665-.982-.429-2,.823-4.024,1.571-6.032,2.366a3.387,3.387,0,0,0-1.378.813,2.562,2.562,0,0,0-.383.219,6.847,6.847,0,0,0-2.5,5.632q.014,9.511,0,19.022C-679.812,1060.008-679.812,1060.008-677.638,1059.859Zm21.969.037c3.178,0,6.125-.029,9.071.02.786.013.917-.249.914-.965-.029-6.019-.017-12.037-.015-18.055a6.4,6.4,0,0,1,.033-.991,1.222,1.222,0,0,1,1.2-1.127,1.247,1.247,0,0,1,1.369.931,3.4,3.4,0,0,1,.1,1.161c0,6.078.01,12.157-.013,18.236,0,.616.137.833.787.806,1.262-.053,2.528-.039,3.792-.005.568.015.8-.132.8-.749-.017-6.861.022-13.722-.026-20.583a6.6,6.6,0,0,0-4.668-6.583c-1.852-.7-3.7-1.4-5.534-2.156-.571-.236-.813-.135-1.074.412-.852,1.787-1.742,3.557-2.651,5.317a2.021,2.021,0,0,1-2.832,1.123c-.794-.361-.862.212-1.01.644a1.825,1.825,0,0,0,.086.8q1.412,8.4,2.834,16.8a2.457,2.457,0,0,1-.68,2.226C-653.973,1058-654.746,1058.878-655.669,1059.9ZM-641,1029.6c.487-2.827.984-5.6,1.425-8.387.072-.455-.12-1.072-.735-.952-2.147.421-2.459.3-3.427-1.625-.65-1.3-1.305-2.59-1.985-3.938a4.841,4.841,0,0,1-2.8,1.732c-.464.08-.513.433-.592.792a7.854,7.854,0,0,1-2.292,4.307,3.351,3.351,0,0,0-1.135,3.09.686.686,0,0,0,.494.72C-648.378,1026.738-644.719,1028.161-641,1029.6Zm9.437.009c3.739-1.449,7.4-2.867,11.057-4.29.159-.062.346-.079.442-.273a3.524,3.524,0,0,0-.562-2.734,9.394,9.394,0,0,1-2.985-4.822c-.157-.638-.317-1.043-1.073-1.17a3.228,3.228,0,0,1-1.83-1.087c-.329-.371-.483-.288-.68.12-.637,1.324-1.284,2.644-1.965,3.946a2.085,2.085,0,0,1-2.79,1.1.721.721,0,0,0-1.052.753,6.676,6.676,0,0,0,.152.886C-632.421,1024.545-632,1027.053-631.563,1029.608ZM-646.9,1000.2a15.758,15.758,0,0,1,.886,3.22,41.29,41.29,0,0,1,.155,5.04c.03,1.158.476,1.475,1.514,1.075a7.863,7.863,0,0,0,1-.4c.31-.171.9-.089.844-.636-.069-.746.383-1.635-.29-2.219a10.226,10.226,0,0,1-3.337-5.522C-646.205,1000.407-646.27,1000.017-646.9,1000.2Zm16.854,7.306c-.376,1.1.236,1.57,1.206,1.8a5.794,5.794,0,0,1,.675.246c.756.285,1.162.039,1.254-.772a4.709,4.709,0,0,0,0-.541c0-2.609-.166-5.236.912-7.719.046-.106.185-.3-.04-.362-.159-.045-.384-.057-.465.151a7.013,7.013,0,0,0-.222.778,9.059,9.059,0,0,1-2.561,4.463A1.8,1.8,0,0,0-630.041,1007.5Zm-8.252,7.919c-.127-.164-.234-.309-.347-.449-.757-.935-1.51-1.873-2.276-2.8-.318-.384-.519-.995-1.254-.594-.5.271-1.063.411-1.57.666-.227.115.009.321.074.455.725,1.482,1.471,2.954,2.194,4.437.174.357.331.416.664.163.717-.544,1.465-1.05,2.2-1.577A3.294,3.294,0,0,0-638.293,1015.423Zm29.409,18.49c.634-1.264,1.251-2.49,1.865-3.718.813-1.625.8-1.6-.9-2.272a.759.759,0,0,0-1.057.273c-.826,1.07-1.684,2.116-2.55,3.155-.27.323-.292.517.092.771C-610.587,1032.684-609.766,1033.29-608.884,1033.913Zm-42.348-5.122c.061-.241-.1-.271-.236-.326-.556-.219-1.112-.441-1.668-.662a.426.426,0,0,0-.543.172q-1.406,1.755-2.832,3.493c-.2.242-.194.385.072.568.79.543,1.566,1.106,2.347,1.661.2.146.356.161.49-.111.767-1.556,1.546-3.1,2.321-4.657A1.02,1.02,0,0,0-651.232,1028.791Zm-12.449,5.126c.893-.631,1.686-1.226,2.516-1.765.423-.274.4-.48.1-.832-.848-1.013-1.66-2.056-2.5-3.073-.174-.21-.293-.6-.682-.458-.672.248-1.33.535-1.985.827a1.215,1.215,0,0,0,.116.4C-665.319,1030.629-664.517,1032.236-663.68,1033.917Zm47.8-2.208c-.091-.116-.2-.257-.309-.394q-.9-1.119-1.81-2.238c-1.164-1.444-1.157-1.432-2.877-.722-.416.172-.55.314-.315.763.733,1.4,1.434,2.827,2.118,4.257.206.43.377.52.78.205.661-.516,1.365-.975,2.046-1.465C-616.112,1032.018-615.916,1031.969-615.882,1031.709Zm-12.857-19.317c.042-.155-.109-.191-.2-.227a7.144,7.144,0,0,0-2.007-.694c-.436-.025-.664.7-1.007,1.071-.243.263-.456.555-.679.836-.538.678-1.526,1.383-1.489,2.029.039.68,1.262,1.035,1.939,1.57.117.093.25.168.36.268.354.324.559.274.776-.182.693-1.456,1.43-2.891,2.149-4.334C-628.843,1012.624-628.8,1012.515-628.738,1012.393Zm-20.02-2.262v3.54a1.823,1.823,0,0,0,1.219-1.778A1.764,1.764,0,0,0-648.758,1010.13Zm12.4,9.145c.685,0,1.516.177,1.494-.653-.017-.611-.846-.836-1.387-1.111-.245-.125-1.534.91-1.474,1.14C-637.51,1019.473-636.827,1019.26-636.358,1019.275Zm-22.392,16.3v.006c.268,0,.536-.011.8,0,.37.018.535-.246.665-.506.179-.36-.177-.463-.376-.595-1.386-.917-.777-.907-2.15.024-.17.115-.5.193-.369.513.125.3.3.588.713.559C-659.228,1035.562-658.989,1035.575-658.751,1035.575Zm44.883-.006v.011a5.448,5.448,0,0,1,.628,0,.713.713,0,0,0,.835-.512c.145-.412-.273-.458-.454-.661-.751-.844-1.43-.51-2.1.115-.164.153-.472.242-.307.551.123.231.261.487.587.491C-614.406,1035.572-614.137,1035.569-613.867,1035.569Zm-54.965-21.888c0-1.074-.009-2.03,0-2.985.006-.488-.184-.519-.521-.258a1.755,1.755,0,0,0-.753,1.631A1.8,1.8,0,0,0-668.833,1013.682Zm64.958-3.574v3.566a1.835,1.835,0,0,0,1.216-1.788A1.839,1.839,0,0,0-603.874,1010.108ZM-646.4,993.9a1.814,1.814,0,0,0-.576,3.159c.135.108.276.262.472.169.169-.08.1-.261.1-.4C-646.4,995.876-646.4,994.924-646.4,993.9Zm20.09,3.42a1.773,1.773,0,0,0,1.219-1.666,1.9,1.9,0,0,0-1.219-1.878Zm2.309,12.856a1.9,1.9,0,0,0-1.229,1.841,1.7,1.7,0,0,0,1.229,1.624Z" transform="translate(0 0)" fill="#030303"/>
      <path id="Trazado_619114" data-name="Trazado 619114" d="M-464.925,1144.044a1.553,1.553,0,0,0-1.276,1.786c.024,2.679-.015,5.358.024,8.036.01.694-.216.877-.876.852-1.233-.047-2.471-.057-3.7,0-.693.034-.844-.187-.841-.854.026-6.05.016-12.1.015-18.149,0-.271.007-.542-.011-.812a1.268,1.268,0,0,0-1.216-1.318,1.282,1.282,0,0,0-1.443,1.179,5.1,5.1,0,0,0-.041.9c0,6.05-.012,12.1.012,18.149,0,.673-.122.922-.868.909-2.945-.049-5.892-.02-9.082-.02.829-.918,1.5-1.734,2.252-2.474a3.018,3.018,0,0,0,.859-2.943c-.979-5.533-1.883-11.08-2.808-16.623-.175-1.053.171-1.352,1.177-1.047a2.118,2.118,0,0,0,2.611-1.216c.9-1.764,1.8-3.53,2.637-5.325.287-.618.558-.644,1.134-.405,1.857.767,3.742,1.469,5.615,2.2a6.674,6.674,0,0,1,4.555,6.572c.02,1.715.032,3.432-.007,5.146a1.638,1.638,0,0,0,1.278,1.89Q-464.926,1142.26-464.925,1144.044Z" transform="translate(-126.548 -94.808)" fill="#e2e7f4"/>
      <path id="Trazado_619115" data-name="Trazado 619115" d="M-629.518,1025.316c-.026,1.043.655,1.435,1.516,1.73a9.979,9.979,0,0,1,6.871,7.562,13.219,13.219,0,0,1,.223,4.2,18.418,18.418,0,0,0-3.276-4c-.995-1.109-1.921-1.206-3.3-.367a19.8,19.8,0,0,1-8.722,2.895c-.955.08-1.92.038-2.881.052a11.663,11.663,0,0,1,4.149-9.464c.36-.331.957-.413,1.074-1l.317-.193c.96-.349,1.917-.708,2.884-1.038.208-.071.4-.1.419-.359Z" transform="translate(-27.711 -31.49)" fill="#6f7384"/>
      <path id="Trazado_619116" data-name="Trazado 619116" d="M-620.452,1025.2c-.019.263-.211.289-.419.36-.967.329-1.923.689-2.884,1.038a2.012,2.012,0,0,0,.4-1.4A15.492,15.492,0,0,1-620.452,1025.2Z" transform="translate(-37.505 -31.357)" fill="#595b6b"/>
      <path id="Trazado_619117" data-name="Trazado 619117" d="M-608.3,1154.694c.923-1.019,1.7-1.892,2.491-2.744a2.457,2.457,0,0,0,.68-2.226q-1.433-8.4-2.834-16.8a1.825,1.825,0,0,1-.086-.8c.148-.432.216-1.005,1.01-.644a2.021,2.021,0,0,0,2.832-1.123c.909-1.76,1.8-3.53,2.651-5.317.261-.547.5-.648,1.074-.412,1.829.756,3.681,1.458,5.534,2.156a6.6,6.6,0,0,1,4.669,6.582c.048,6.86.009,13.722.026,20.583,0,.617-.234.764-.8.749-1.263-.034-2.53-.048-3.792.005-.649.027-.789-.19-.787-.806.023-6.078.014-12.157.013-18.235a3.405,3.405,0,0,0-.1-1.161,1.247,1.247,0,0,0-1.369-.931,1.222,1.222,0,0,0-1.2,1.127,6.394,6.394,0,0,0-.033.991c0,6.018-.013,12.037.015,18.055,0,.716-.128.978-.914.965C-602.177,1154.665-605.124,1154.694-608.3,1154.694Z" transform="translate(-47.367 -94.797)" fill="#e2e7f4"/>
      <path id="Trazado_619118" data-name="Trazado 619118" d="M-668.459,1127.751a3.39,3.39,0,0,1,1.378-.813c2.008-.795,4.036-1.543,6.032-2.365.573-.236.755-.039.982.429q1.316,2.714,2.693,5.4a2.115,2.115,0,0,0,2.716,1.146c.8-.286,1.215.063,1.072.944q-.672,4.137-1.375,8.27-.753,4.444-1.525,8.884a2.468,2.468,0,0,0,.655,2.242c.812.863,1.591,1.757,2.514,2.781-3.3,0-6.387-.008-9.476.007-.564,0-.438-.371-.439-.676-.007-1.625,0-3.25,0-4.875q0-6.817,0-13.634a2.693,2.693,0,0,0-.153-1.153,1.25,1.25,0,0,0-1.381-.783,1.231,1.231,0,0,0-1.126,1.005,4.278,4.278,0,0,0-.052.989c0,6.079-.014,12.159.014,18.239,0,.7-.155.966-.886.9-.776-.074-1.562-.039-2.343-.052,0-4.362-.09-8.725.017-13.084C-669.032,1136.944-669.742,1132.3-668.459,1127.751Z" transform="translate(-8.476 -94.771)" fill="#e3e8f5"/>
      <path id="Trazado_619119" data-name="Trazado 619119" d="M-544.033,1127.672a6.172,6.172,0,0,1,1.581-.846c1.905-.728,3.811-1.458,5.7-2.231.536-.219.766-.113,1.01.4.812,1.707,1.674,3.391,2.524,5.08.782,1.557,1.522,1.859,3.19,1.318.513-.167.9.422.769,1.208-.251,1.512-.522,3.02-.777,4.531-.71,4.207-1.41,8.416-2.128,12.622a2.334,2.334,0,0,0,.6,2.077l2.412,2.666c-.146.3-.387.171-.567.172-2.8.01-5.6-.016-8.4.023-.677.01-.852-.167-.849-.846.028-6.079.017-12.158.015-18.238a6.609,6.609,0,0,0-.028-.9,1.222,1.222,0,0,0-1.182-1.148,1.244,1.244,0,0,0-1.388.9,3.241,3.241,0,0,0-.113,1.16c0,6.049-.015,12.1.018,18.148,0,.762-.2,1-.948.919-.715-.074-1.442-.037-2.163-.049q-.005-9.931-.009-19.862C-544.764,1132.387-544.99,1129.968-544.033,1127.672Z" transform="translate(-87.901 -94.78)" fill="#e2e7f4"/>
      <path id="Trazado_619120" data-name="Trazado 619120" d="M-631.116,1060.6a24.5,24.5,0,0,0,8.35-2.372c.584-.3,1.2-.883,1.744-.819.658.077,1,.961,1.541,1.425a2.254,2.254,0,0,1,.785,1.984c-.1,2.31.082,4.625-.119,6.936a7.127,7.127,0,0,1-7.826,6.281,3.337,3.337,0,0,1-1.4-.283.842.842,0,0,0-.362-.6,8.47,8.47,0,0,1-2.72-6.9C-631.08,1064.374-631.116,1062.488-631.116,1060.6Z" transform="translate(-32.799 -51.97)" fill="#e3a47f"/>
      <path id="Trazado_619121" data-name="Trazado 619121" d="M-569.191,1015.354a22.643,22.643,0,0,0,9.705-3.074.547.547,0,0,1,.834.116c.528.616,1.092,1.2,1.651,1.79a.84.84,0,0,1,.253.643c-.075,2.674.164,5.355-.146,8.023a7.132,7.132,0,0,1-9.412,5.6.749.749,0,0,0-.284-.539,8.981,8.981,0,0,1-2.6-6.724C-569.221,1019.243-569.193,1017.3-569.191,1015.354Z" transform="translate(-72.318 -23.081)" fill="#e3a57f"/>
      <path id="Trazado_619122" data-name="Trazado 619122" d="M-507.316,1060.578a24.981,24.981,0,0,0,8.456-2.378c.6-.3,1.188-1.007,1.814-.809.554.176.9.933,1.4,1.355a2.334,2.334,0,0,1,.816,2.057c-.056,1.955,0,3.913-.021,5.869a7.156,7.156,0,0,1-6.965,7.388,4.97,4.97,0,0,1-2.633-.439c.048-.394-.276-.567-.477-.818a11.547,11.547,0,0,1-1.507-2.207,12.473,12.473,0,0,1-.867-4.895C-507.386,1064-507.316,1062.286-507.316,1060.578Z" transform="translate(-111.798 -51.939)" fill="#e3a57f"/>
      <path id="Trazado_619123" data-name="Trazado 619123" d="M-510.026,1029.114c5.94-1.95,13.935,2.562,12.994,11.7a20.354,20.354,0,0,0-3.174-3.788,2.27,2.27,0,0,0-3.361-.446,19.872,19.872,0,0,1-11.7,2.945,9.76,9.76,0,0,1,.283-2.851,11.489,11.489,0,0,1,4.535-7.016C-510.245,1029.508-510.047,1029.388-510.026,1029.114Z" transform="translate(-106.731 -33.628)" fill="#6f7384"/>
      <path id="Trazado_619124" data-name="Trazado 619124" d="M-572.11,983.979c5.419-2.016,11.927,1.872,13.016,7.757a22.273,22.273,0,0,1,.172,4.049,17.956,17.956,0,0,0-3.338-4.055,2.15,2.15,0,0,0-3.14-.414,19.561,19.561,0,0,1-11.771,2.98,11.721,11.721,0,0,1,4.739-9.808A.671.671,0,0,0-572.11,983.979Z" transform="translate(-67.232 -4.766)" fill="#6f7384"/>
      <path id="Trazado_619125" data-name="Trazado 619125" d="M-588.149,1097.9c-3.718-1.438-7.378-2.861-11.045-4.262a.686.686,0,0,1-.493-.72,3.351,3.351,0,0,1,1.135-3.09,7.854,7.854,0,0,0,2.292-4.307c.079-.358.127-.712.592-.792a4.842,4.842,0,0,0,2.8-1.732c.68,1.349,1.335,2.642,1.985,3.938.967,1.929,1.28,2.046,3.427,1.625.615-.12.807.5.735.952C-587.165,1092.3-587.662,1095.076-588.149,1097.9Z" transform="translate(-52.852 -68.304)" fill="#e2e7f4"/>
      <path id="Trazado_619126" data-name="Trazado 619126" d="M-544.214,1098.439c-.433-2.554-.858-5.063-1.284-7.572a6.675,6.675,0,0,1-.152-.886.722.722,0,0,1,1.052-.753,2.085,2.085,0,0,0,2.79-1.1c.681-1.3,1.328-2.622,1.965-3.946.2-.408.351-.492.679-.12a3.227,3.227,0,0,0,1.83,1.087c.756.126.917.531,1.073,1.17a9.394,9.394,0,0,0,2.985,4.822,3.523,3.523,0,0,1,.561,2.733c-.1.194-.283.211-.442.273C-536.815,1095.572-540.475,1096.99-544.214,1098.439Z" transform="translate(-87.35 -68.831)" fill="#e2e7f4"/>
      <path id="Trazado_619127" data-name="Trazado 619127" d="M-547.988,1133.289c-.958,2.3-.731,4.715-.731,7.108q0,9.931.009,19.862c-2.271.154-2.271.154-2.271-2.094q0-9.409,0-18.817A6.616,6.616,0,0,1-547.988,1133.289Z" transform="translate(-83.945 -100.397)" fill="#cfd3db"/>
      <path id="Trazado_619128" data-name="Trazado 619128" d="M-672.159,1133.534c-1.283,4.544-.573,9.193-.686,13.795-.107,4.359-.019,8.723-.017,13.084-2.174.149-2.174.149-2.174-2.006q0-9.511,0-19.022a6.847,6.847,0,0,1,2.5-5.632A2.587,2.587,0,0,1-672.159,1133.534Z" transform="translate(-4.776 -100.554)" fill="#d3d7df"/>
      <path id="Trazado_619129" data-name="Trazado 619129" d="M-618.033,1156.114q.824,4.736,1.648,9.472c.226,1.3.434,2.6.681,3.895a1.376,1.376,0,0,1-.394,1.378c-.725.713-1.4,1.478-2.1,2.221-.937-.291-1.262-1.223-1.912-1.814a1.222,1.222,0,0,1-.351-1.285c.486-2.663.906-5.338,1.367-8C-618.751,1160.02-618.386,1158.068-618.033,1156.114Z" transform="translate(-39.582 -114.964)" fill="#e95c56"/>
      <path id="Trazado_619130" data-name="Trazado 619130" d="M-493.788,1157.1q1.144,6.686,2.3,13.37a.753.753,0,0,1-.2.729c-.867.91-1.725,1.83-2.586,2.746a4.6,4.6,0,0,0-1.236-1.524,2.108,2.108,0,0,1-.7-2.319c.6-3.4,1.123-6.812,1.755-10.2C-494.282,1158.966-494.428,1157.934-493.788,1157.1Z" transform="translate(-118.853 -115.596)" fill="#e95c56"/>
      <path id="Trazado_619131" data-name="Trazado 619131" d="M-497.621,1151.4c-.64.83-.494,1.862-.668,2.8-.631,3.393-1.152,6.806-1.755,10.2a2.108,2.108,0,0,0,.7,2.319,4.6,4.6,0,0,1,1.236,1.524c-.657.9-.659.9-1.386.111-.794-.863-1.562-1.751-2.382-2.588a1.35,1.35,0,0,1-.382-1.3c.895-5.175,1.788-10.351,2.647-15.532.093-.558.261-.749.837-.768.6-.02.7.3.772.746Q-497.814,1150.158-497.621,1151.4Z" transform="translate(-115.021 -109.893)" fill="#d74942"/>
      <path id="Trazado_619132" data-name="Trazado 619132" d="M-621.771,1151.041c-.353,1.954-.718,3.906-1.057,5.862-.461,2.667-.881,5.342-1.367,8a1.222,1.222,0,0,0,.351,1.285c.65.591.975,1.524,1.912,1.815-.917,1.136-.915,1.134-1.879.069-.727-.8-1.445-1.613-2.193-2.394a1.131,1.131,0,0,1-.324-1.115c.9-5.175,1.751-10.357,2.623-15.535.072-.428.068-.876.76-.867.638.008.83.245.873.833C-622.02,1149.683-621.876,1150.361-621.771,1151.041Z" transform="translate(-35.844 -109.891)" fill="#d74942"/>
      <path id="Trazado_619133" data-name="Trazado 619133" d="M-635,1066.223c0,1.885.035,3.771-.009,5.655a8.47,8.47,0,0,0,2.721,6.9.842.842,0,0,1,.362.6,6.849,6.849,0,0,1-5.2-5.971c-.13-2.214-.049-4.439-.087-6.659-.008-.468.2-.548.6-.531C-636.078,1066.237-635.538,1066.222-635,1066.223Z" transform="translate(-28.916 -57.59)" fill="#d79875"/>
      <path id="Trazado_619134" data-name="Trazado 619134" d="M-511.089,1066.233c0,1.708-.069,3.42.02,5.124a12.469,12.469,0,0,0,.867,4.895,11.535,11.535,0,0,0,1.507,2.208c.2.251.525.424.476.818a6.929,6.929,0,0,1-4.87-5.551c-.305-2.329-.077-4.671-.152-7.006-.013-.411.168-.514.535-.5C-512.168,1066.24-511.628,1066.23-511.089,1066.233Z" transform="translate(-108.025 -57.593)" fill="#d79875"/>
      <path id="Trazado_619135" data-name="Trazado 619135" d="M-573.027,1021.024c0,1.944-.03,3.889,0,5.833a8.981,8.981,0,0,0,2.6,6.724.749.749,0,0,1,.284.539,6.9,6.9,0,0,1-5.025-6.39c-.1-2.035-.018-4.077-.043-6.115-.005-.436.141-.579.567-.562C-574.105,1021.073-573.566,1021.036-573.027,1021.024Z" transform="translate(-68.481 -28.751)" fill="#d79875"/>
      <path id="Trazado_619136" data-name="Trazado 619136" d="M-637.979,1029.75c-.117.59-.714.671-1.073,1a11.663,11.663,0,0,0-4.149,9.464,2.135,2.135,0,0,0-1.753,1.1c-.086.161-.2.327-.409.287-.185-.036-.156-.225-.164-.37C-645.794,1036.154-643.5,1031.423-637.979,1029.75Z" transform="translate(-23.597 -34.32)" fill="#595b6b"/>
      <path id="Trazado_619137" data-name="Trazado 619137" d="M-576.1,984.927a.671.671,0,0,1-.322.508,11.721,11.721,0,0,0-4.739,9.808,2.463,2.463,0,0,0-1.725,1.168.382.382,0,0,1-.274.19c-.187-.009-.191-.189-.206-.339C-583.942,990.369-580.432,986.093-576.1,984.927Z" transform="translate(-63.24 -5.715)" fill="#595b6b"/>
      <path id="Trazado_619138" data-name="Trazado 619138" d="M-513.883,1029.9c-.021.274-.218.394-.422.539a11.489,11.489,0,0,0-4.535,7.016,9.758,9.758,0,0,0-.283,2.851,2.749,2.749,0,0,0-1.967,1.462A10.161,10.161,0,0,1-513.883,1029.9Z" transform="translate(-102.874 -34.418)" fill="#595b6b"/>
      <path id="Trazado_619139" data-name="Trazado 619139" d="M-558.9,1114.018c-.479-.493-.944-1-1.445-1.472a.878.878,0,0,1-.307-.874c.46-2.63.927-5.259,1.345-7.9.087-.547.307-.653.811-.667.559-.016.711.2.771.709.107.921.292,1.833.444,2.749-.551.251-.422.794-.5,1.228C-558.167,1109.867-558.528,1111.944-558.9,1114.018Z" transform="translate(-77.766 -81.136)" fill="#d74942"/>
      <path id="Trazado_619140" data-name="Trazado 619140" d="M-570.059,1078a3.3,3.3,0,0,1-.321.3c-.731.527-1.479,1.033-2.2,1.577-.332.252-.49.194-.664-.163-.723-1.483-1.469-2.955-2.194-4.437-.065-.134-.3-.34-.074-.455.507-.255,1.073-.4,1.57-.666.735-.4.936.211,1.254.594.767.926,1.52,1.865,2.277,2.8C-570.293,1077.69-570.185,1077.835-570.059,1078Z" transform="translate(-68.234 -62.576)" fill="#d3d7df"/>
      <path id="Trazado_619141" data-name="Trazado 619141" d="M-484.015,1125.362c-.882-.623-1.7-1.229-2.554-1.792-.384-.254-.361-.448-.092-.771.866-1.038,1.724-2.084,2.55-3.155a.76.76,0,0,1,1.057-.272c1.706.671,1.716.647.9,2.272C-482.764,1122.872-483.381,1124.1-484.015,1125.362Z" transform="translate(-124.869 -91.449)" fill="#d3d7df"/>
      <path id="Trazado_619142" data-name="Trazado 619142" d="M-605.6,1120.146a1.006,1.006,0,0,1-.05.138c-.774,1.552-1.554,3.1-2.321,4.657-.133.272-.285.257-.49.111-.781-.555-1.557-1.119-2.347-1.661-.265-.182-.271-.325-.072-.568q1.429-1.735,2.832-3.493a.426.426,0,0,1,.543-.172c.556.22,1.112.442,1.668.662C-605.694,1119.874-605.535,1119.905-605.6,1120.146Z" transform="translate(-45.636 -91.354)" fill="#d3d7df"/>
      <path id="Trazado_619143" data-name="Trazado 619143" d="M-634.949,1125.263c-.836-1.681-1.639-3.289-2.435-4.9a1.211,1.211,0,0,1-.116-.4c.654-.292,1.312-.579,1.985-.827.389-.144.508.247.682.458.844,1.017,1.656,2.06,2.5,3.073.294.352.318.558-.1.832C-633.263,1124.036-634.056,1124.631-634.949,1125.263Z" transform="translate(-28.731 -91.345)" fill="#d3d7df"/>
      <path id="Trazado_619144" data-name="Trazado 619144" d="M-507.909,1123.277c-.034.259-.231.309-.368.407-.681.49-1.385.949-2.046,1.465-.4.315-.574.225-.78-.205-.684-1.43-1.385-2.852-2.118-4.257-.235-.45-.1-.592.315-.763,1.72-.71,1.714-.722,2.877.722q.9,1.121,1.81,2.238C-508.106,1123.02-508,1123.161-507.909,1123.277Z" transform="translate(-107.973 -91.568)" fill="#d3d7df"/>
      <path id="Trazado_619145" data-name="Trazado 619145" d="M-543.366,1075.009c-.057.122-.1.231-.158.339-.719,1.443-1.456,2.878-2.149,4.334-.217.456-.423.506-.776.182-.11-.1-.242-.176-.36-.268-.678-.534-1.9-.89-1.939-1.569-.037-.646.951-1.351,1.489-2.029.224-.281.436-.573.679-.836.343-.37.571-1.1,1.007-1.071a7.141,7.141,0,0,1,2.007.694C-543.475,1074.818-543.325,1074.854-543.366,1075.009Z" transform="translate(-85.372 -62.616)" fill="#d3d7df"/>
      <path id="Trazado_619146" data-name="Trazado 619146" d="M-620.594,1109.969a11.761,11.761,0,0,0,4.793-.5,2.022,2.022,0,0,1-.466,2.037c-.9,1.009-1.724,2.084-2.56,3.147-.267.339-.456.423-.734.016-.32-.469-.684-.907-1.029-1.359Z" transform="translate(-39.522 -85.196)" fill="#e3a47f"/>
      <path id="Trazado_619147" data-name="Trazado 619147" d="M-496.321,1110.013a11.15,11.15,0,0,0,3.744-.25c.325-.078.775-.433.974-.078a1.251,1.251,0,0,1-.105,1.359c-.366.476-.752.936-1.129,1.4-.321.4-.64.795-.963,1.19-1.325,1.623-1.326,1.622-2.547-.215Q-496.334,1111.717-496.321,1110.013Z" transform="translate(-118.815 -85.234)" fill="#e3a47f"/>
      <path id="Trazado_619148" data-name="Trazado 619148" d="M-558.227,1064.936a11.483,11.483,0,0,0,4.264-.435c.365-.13.493-.032.476.341a1.849,1.849,0,0,1-.283,1.274q-1.451,1.717-2.839,3.488c-.284.362-.462.381-.722,0-.284-.42-.608-.812-.915-1.216Z" transform="translate(-79.312 -56.463)" fill="#e3a47f"/>
      <path id="Trazado_619149" data-name="Trazado 619149" d="M-555.774,1120.119c.37-2.074.731-4.151,1.117-6.223.081-.434-.049-.977.5-1.228q.442,2.517.882,5.033c.045.26.139.535-.107.756a17.653,17.653,0,0,0-1.821,1.974C-555.528,1120.83-555.639,1120.34-555.774,1120.119Z" transform="translate(-80.889 -87.237)" fill="#e95c56"/>
      <path id="Trazado_619150" data-name="Trazado 619150" d="M-562.141,1065.071q-.009,1.724-.018,3.449c-.652-.778-1.295-1.562-1.959-2.329a1.424,1.424,0,0,1-.255-.922c-.041-.521.132-.71.662-.562S-562.665,1064.951-562.141,1065.071Z" transform="translate(-75.398 -56.598)" fill="#d79875"/>
      <path id="Trazado_619151" data-name="Trazado 619151" d="M-500.145,1110.13q-.013,1.7-.026,3.408c-.654-.781-1.3-1.57-1.966-2.341-.275-.318-.162-.682-.2-1.031-.041-.416.119-.525.524-.412C-501.262,1109.906-500.7,1110.007-500.145,1110.13Z" transform="translate(-114.99 -85.351)" fill="#d79875"/>
      <path id="Trazado_619152" data-name="Trazado 619152" d="M-624.373,1110.131q0,1.67,0,3.341c-.626-.75-1.244-1.507-1.88-2.248a1.3,1.3,0,0,1-.257-.822c-.049-.607.119-.82.749-.587A10.367,10.367,0,0,0-624.373,1110.131Z" transform="translate(-35.743 -85.358)" fill="#d79875"/>
      <path id="Trazado_619153" data-name="Trazado 619153" d="M-589.2,1070.38a1.764,1.764,0,0,1,1.219,1.762,1.823,1.823,0,0,1-1.219,1.778Z" transform="translate(-59.556 -60.25)" fill="#d79875"/>
      <path id="Trazado_619154" data-name="Trazado 619154" d="M-557.347,1092.523c-.469-.015-1.152.2-1.367-.625-.06-.23,1.228-1.265,1.474-1.14.541.275,1.371.5,1.387,1.111C-555.831,1092.7-556.662,1092.525-557.347,1092.523Z" transform="translate(-79.011 -73.248)" fill="#c73e36"/>
      <path id="Trazado_619155" data-name="Trazado 619155" d="M-619.392,1137.577c-.238,0-.478-.013-.715,0-.413.029-.588-.255-.713-.559-.132-.32.2-.4.369-.513,1.373-.931.764-.942,2.15-.024.2.132.555.235.376.595-.13.26-.294.525-.665.506-.267-.013-.536,0-.8,0Z" transform="translate(-39.359 -102.001)" fill="#c73e36"/>
      <path id="Trazado_619156" data-name="Trazado 619156" d="M-495.315,1137.755c-.27,0-.539,0-.809,0-.326,0-.464-.26-.587-.491-.165-.309.143-.4.307-.551.669-.626,1.348-.959,2.1-.115.181.2.6.249.454.661a.713.713,0,0,1-.835.512,5.447,5.447,0,0,0-.628,0Z" transform="translate(-118.552 -102.186)" fill="#c73e36"/>
      <path id="Trazado_619157" data-name="Trazado 619157" d="M-646.944,1074.189a1.8,1.8,0,0,1-1.271-1.612,1.755,1.755,0,0,1,.753-1.631c.337-.261.527-.23.521.258C-646.953,1072.159-646.944,1073.115-646.944,1074.189Z" transform="translate(-21.889 -60.507)" fill="#d79875"/>
      <path id="Trazado_619158" data-name="Trazado 619158" d="M-465.151,1070.317a1.839,1.839,0,0,1,1.216,1.778,1.835,1.835,0,0,1-1.216,1.788Z" transform="translate(-138.723 -60.209)" fill="#d79875"/>
      <path id="Trazado_619159" data-name="Trazado 619159" d="M-584.923,1025.514c0,1.027,0,1.979,0,2.931,0,.136.068.317-.1.4-.2.093-.337-.061-.472-.169A1.814,1.814,0,0,1-584.923,1025.514Z" transform="translate(-61.476 -31.617)" fill="#d79875"/>
      <path id="Trazado_619160" data-name="Trazado 619160" d="M-527.157,1028.714v-3.544a1.9,1.9,0,0,1,1.219,1.878A1.773,1.773,0,0,1-527.157,1028.714Z" transform="translate(-99.152 -31.397)" fill="#d79875"/>
      <path id="Trazado_619161" data-name="Trazado 619161" d="M-522.952,1070.5v3.465a1.7,1.7,0,0,1-1.229-1.624A1.9,1.9,0,0,1-522.952,1070.5Z" transform="translate(-101.048 -60.324)" fill="#d79875"/>
    </g>
  </g>
</svg>
