<svg xmlns="http://www.w3.org/2000/svg" width="124" height="124" viewBox="0 0 124 124">
  <g id="Grupo_940225" data-name="Grupo 940225" transform="translate(-1049 -4740)">
    <circle id="Elipse_7678" data-name="Elipse 7678" cx="50.5" cy="50.5" r="50.5" transform="translate(1061 4752)" fill="#fff"/>
    <g id="Grupo_940224" data-name="Grupo 940224" transform="translate(1407.131 4089.188)">
      <path id="Trazado_619060" data-name="Trazado 619060" d="M-265.894,686.538c-.384.012-.534.274-.729.447q-11.766,10.516-23.536,21.028a1.268,1.268,0,0,0-.437,1.492c.527,1.948,1,3.912,1.479,5.873a1.106,1.106,0,0,0,.819.935,5.774,5.774,0,0,1,4.089,5.7c.013,2.239,0,4.478,0,6.716,0,1.513-.469,1.988-1.963,1.989-4.48,0-8.96.014-13.44-.014-.623,0-.827.117-.817.785.031,2.173,0,2.173,2.173,2.173,3.253,0,6.506-.036,9.758.012a10.289,10.289,0,0,1,10.171,10.681,10.3,10.3,0,0,1-9.842,9.9c-1.993.064-3.989.022-5.983.023q-19.194,0-38.389,0a10.281,10.281,0,0,1-10.294-7.92,10.27,10.27,0,0,1,9.521-12.655c3.833-.1,7.671-.046,11.507-.016.661.005.8-.181.791-.811-.029-2.149,0-2.15-2.2-2.15q-8.93,0-17.86,0c-1.621,0-2.055-.44-2.056-2.079q0-5.383,0-10.765c0-1.379.5-1.87,1.887-1.877.675,0,1.351-.024,2.025.008.41.019.554-.119.51-.52a7.2,7.2,0,0,1-.005-.735c0-.521.174-1.161-.065-1.53-.268-.415-.959-.106-1.462-.17a1.414,1.414,0,0,1-1.4-1.425,27.808,27.808,0,0,1,.021-3.494,4.394,4.394,0,0,1,4.475-3.912c1.379-.017,1.379-.017,1.379-1.385q0-4.968,0-9.937c0-1.443.486-1.975,1.928-1.907.833.039,1.134-.19,1.031-1.033-.074-.6.007-1.226-.021-1.838a1.49,1.49,0,0,0-1.57-1.558,21.616,21.616,0,0,0-2.208.005c-.544.035-.641-.171-.647-.671-.024-2.287-.035-2.2,2.238-2.308,3.245-.16,4.805,1.9,5.068,3.659a18.62,18.62,0,0,1,.06,3.122c-.01.477.12.678.609.606a3.525,3.525,0,0,1,.552,0c1.263.016,1.792.529,1.795,1.786.007,3.558.02,7.116-.013,10.673-.006.636.137.818.794.808,2.166-.032,2.167,0,2.167-2.18q0-4.555,0-9.109c0-1.511.467-2.023,1.97-1.959.793.034,1.1-.152.991-.982-.08-.634.008-1.288-.025-1.93a1.473,1.473,0,0,0-1.517-1.515c-.766-.034-1.536-.04-2.3,0-.5.028-.595-.153-.6-.618-.049-2.338-.059-2.249,2.278-2.36,3.1-.147,4.719,1.791,5.017,3.609a15.672,15.672,0,0,1,.068,3.028c-.019.586.127.859.745.749a2.041,2.041,0,0,1,.368,0c1.327.012,1.844.513,1.846,1.828.006,3.558.015,7.115-.011,10.673,0,.579.118.771.74.766,2.218-.015,2.218.012,2.218-2.22,0-2.576,0-5.152,0-7.729,0-1.329.509-1.843,1.826-1.844q6.536-.008,13.072.007a2.236,2.236,0,0,0,1.434-.443q13.128-9.7,26.267-19.375a3.823,3.823,0,0,1,2.443-.819c4.848.04,9.7.018,14.545.018,1.924,0,2.276.358,2.276,2.32q0,23.37-.008,46.74a3.244,3.244,0,0,0,.378,1.566,9.473,9.473,0,0,1-1.416,10.853c-1.221,1.335-2.476,2.642-3.778,3.9a13.476,13.476,0,0,1-18.97-.166c-2.212-2.213-4.373-4.476-6.546-6.727a1.518,1.518,0,0,1,.126-2.522,5.894,5.894,0,0,1,7.671-.255c.661.537.926.378,1.417-.14,2.173-2.293,4.4-4.54,6.586-6.817a9.542,9.542,0,0,1,3.338-2.383c.364-.144.49-.293.42-.736q-1.779-11.346-3.509-22.7-.593-3.859-1.181-7.72C-265.825,686.871-265.863,686.7-265.894,686.538Zm-46.331,22.1c-.2-.512.66-1.485-.717-1.482-8.007.017-16.014.006-24.021.012-1.238,0-1.733.551-1.714,1.834-.18.821.026,1.136.985,1.131,8.035-.044,16.07-.025,24.106-.025C-312.148,710.106-312.148,710.106-312.224,708.637Zm11.82,1.44c2.114.01,4.229,0,6.343.043.6.012.552-.258.451-.657-.643-2.549-1.288-5.1-1.916-7.649-.091-.37-.2-.568-.65-.553-1.408.045-2.818.033-4.227.043-.766-.01-1.533.008-2.3-.04-.519-.032-.675.134-.666.658.031,1.807-.009,3.615.021,5.422.014.905-.409,2.185.178,2.617C-302.553,710.415-301.351,710.071-300.4,710.076Zm-7.366-14.661c-1.477-.077-1.477-.077-1.477,1.359v17.832c0,1.435,0,1.435,1.477,1.358,4.5.01,9.009.028,13.513.022.721,0,1.73.336,2.087-.148s-.266-1.364-.363-2.089c-.073-.539-.333-.719-.9-.714-3.647.03-7.294.018-10.941.014-1.437,0-1.921-.489-1.923-1.934q0-5.422,0-10.843c0-1.452.481-1.941,1.911-1.943,2.421,0,4.842.006,7.264-.014.208,0,.682.21.611-.251a24.483,24.483,0,0,0-.6-2.5c-.077-.292-.356-.18-.547-.18Q-302.715,695.395-307.771,695.415Zm42.895,42.63a7.009,7.009,0,0,0,2.64-.243c4.608-1.2,7.289-4.7,9.883-8.3a.79.79,0,0,0,.072-.169c1.537-3.8-.858-8.291-4.665-8.758a5.2,5.2,0,0,0-5.082,1.393c-3.738,3.713-7.367,7.535-11.044,11.309-.194.2-.291.323-.056.587A11.077,11.077,0,0,0-264.876,738.046Zm10.314-63.241a9.99,9.99,0,0,1-1.284-.04,1.9,1.9,0,0,0-1.92.9q-2.465,3.086-5.063,6.066a2.192,2.192,0,0,0-.513,2c.861,5.438,1.69,10.881,2.526,16.322q1.3,8.434,2.589,16.87c.052.338.134.571.553.562a11.542,11.542,0,0,1,2.529.423l1.87.866V675.976C-253.275,674.739-253.275,674.739-254.563,674.805Zm-32.62,48.18c.368-2.641-1.148-4.1-3.807-4.082-15.474.076-30.948.034-46.422.045-.905,0-2.185-.407-2.618.179-.454.613-.112,1.815-.119,2.759-.01,1.624.031,3.251-.051,4.871-.044.853.223,1.034,1.046,1.033q25.49-.038,50.98-.019a3.528,3.528,0,0,1,.46,0c.44.058.581-.118.57-.561C-287.179,725.8-287.173,724.395-287.183,722.986Zm-1.981-19.856a.275.275,0,0,0,.085-.034q11.116-9.926,22.233-19.851a.773.773,0,0,0,.343-.783,1.811,1.811,0,0,1,.568-1.579c.662-.765,1.3-1.548,1.949-2.326,1.007-1.211,2.011-2.424,3.114-3.754h-4.747a3.65,3.65,0,0,0-3.2.905c-.867.768-1.857,1.4-2.793,2.087q-11.051,8.141-22.1,16.283c-.3.224-.642.352-.494.919.851,3.251,1.652,6.516,2.448,9.781.14.573.348.445.655.157C-290.464,704.33-289.813,703.731-289.164,703.13Zm-21.512,33.475c-7.364,0-14.728-.016-22.092.006a7.344,7.344,0,0,0-7.409,7.515,7.366,7.366,0,0,0,7.546,7.2q18.64.016,37.28,0c2.3,0,4.6.032,6.9-.011a7.362,7.362,0,0,0,7.185-7.373,7.353,7.353,0,0,0-7.415-7.331C-296.01,736.589-303.343,736.605-310.676,736.605Zm-13.4-20.611h9.846c2.041,0,1.993,0,2.056-2.042.025-.828-.28-.919-.991-.916-6.84.025-13.68.015-20.521.015-2.092,0-2.064,0-2.095,2.088-.01.667.134.881.846.873C-331.312,715.973-327.692,715.995-324.073,715.995Zm13.451,14.723h-5.331c-2.145,0-2.113,0-2.151,2.107-.013.685.159.86.851.854,3.921-.037,7.842-.018,11.764-.018,2.162,0,2.139,0,2.148-2.2,0-.6-.151-.769-.756-.758C-306.271,730.74-308.447,730.718-310.622,730.718Zm-19.248-31.656v-2.938c0-2.243,0-2.218-2.211-2.227-.614,0-.755.18-.747.766.032,2.448.013,4.9.013,7.344,0,2.28,0,2.261,2.3,2.225.529-.008.664-.163.653-.672C-329.89,702.061-329.87,700.561-329.87,699.062Zm11.784.015v-3.03c0-2.162,0-2.14-2.2-2.148-.587,0-.773.136-.763.749.037,2.448.015,4.9.015,7.344,0,2.287,0,2.271,2.288,2.238.507-.007.681-.126.669-.656C-318.109,702.076-318.086,700.576-318.086,699.077Zm40.755,30.146-.085.235,2.175,1.748c.171-.21,1.032-.529.831-1.07-.231-.62-1.053-.861-1.783-.908C-276.571,729.2-276.951,729.222-277.331,729.222Z" transform="translate(0 0)" fill="#010101"/>
      <path id="Trazado_619061" data-name="Trazado 619061" d="M-305.623,847.481c7.333,0,14.666-.016,22,.006a7.353,7.353,0,0,1,7.415,7.331,7.362,7.362,0,0,1-7.185,7.373c-2.3.044-4.6.011-6.9.011q-18.64,0-37.28,0a7.366,7.366,0,0,1-7.546-7.2,7.344,7.344,0,0,1,7.409-7.515C-320.351,847.465-312.987,847.481-305.623,847.481Zm-28.045,6.766c-.005,2.9,1.3,5,3.4,5.924A5.62,5.62,0,0,0-324,859.3c.53-.444.788-.451,1.312,0a5.657,5.657,0,0,0,7.627-.081c.424-.381.624-.426,1.085-.018a5.669,5.669,0,0,0,7.768,0c.459-.416.66-.353,1.085.019a5.685,5.685,0,0,0,7.772-.033c.407-.366.586-.391,1.015-.013a5.673,5.673,0,0,0,7.838-.006c.437-.393.638-.346,1.022.021a5.524,5.524,0,0,0,3.652,1.529,5.874,5.874,0,0,0,5.867-4.008,5.867,5.867,0,0,0-2.27-6.73,5.791,5.791,0,0,0-7.151.429c-.424.37-.648.513-1.164.058a5.684,5.684,0,0,0-7.775.019c-.389.342-.566.439-1.012.036a5.65,5.65,0,0,0-7.83-.01c-.43.388-.607.34-1.012-.016a5.684,5.684,0,0,0-7.774-.039c-.5.439-.723.337-1.154-.037a5.665,5.665,0,0,0-7.631,0c-.513.451-.74.415-1.237-.006a5.553,5.553,0,0,0-6.26-.911A5.5,5.5,0,0,0-333.668,854.248Z" transform="translate(-5.053 -110.876)" fill="#7c8291"/>
      <path id="Trazado_619062" data-name="Trazado 619062" d="M-177.07,679.922h4.747c-1.1,1.33-2.107,2.543-3.114,3.754-.647.778-1.287,1.562-1.949,2.326a1.811,1.811,0,0,0-.568,1.579.773.773,0,0,1-.343.783q-11.12,9.922-22.233,19.851a.275.275,0,0,1-.085.034,2.063,2.063,0,0,1-.2-.4c-.592-2.338-1.172-4.678-1.766-7.015-.446-1.752-.453-1.751,1.022-2.84Z" transform="translate(-88.55 -5.119)" fill="#edcb72"/>
      <path id="Trazado_619063" data-name="Trazado 619063" d="M-282.176,808.675c.01,1.409,0,2.819.039,4.228.011.444-.13.62-.57.561a3.539,3.539,0,0,0-.46,0q-25.49,0-50.98.019c-.823,0-1.089-.181-1.046-1.033.082-1.621.041-3.247.051-4.871l2.932.007c-.006.793.01,1.587-.026,2.379-.02.441.131.55.565.569,2.394.1,2.394.118,2.388-2.216,0-.244-.011-.488-.017-.732h2.981c-.006.7.041,1.414-.032,2.111-.074.714.193.844.86.841,6.128-.027,12.255-.009,18.382-.024.937,0,2.225.414,2.714-.178.469-.567.123-1.806.135-2.75q9.528,0,19.055-.01A4.337,4.337,0,0,1-282.176,808.675Z" transform="translate(-5.008 -85.69)" fill="#eecc73"/>
      <path id="Trazado_619064" data-name="Trazado 619064" d="M-113.329,679.89c1.288-.066,1.288-.066,1.288,1.171v42.792l-1.87-.866c-.495-3.343-.973-6.687-1.489-10.027-.577-3.731-1.2-7.454-1.783-11.184-.732-4.693-1.437-9.389-2.171-14.081a1.027,1.027,0,0,1,.283-.907Q-116.188,683.35-113.329,679.89Z" transform="translate(-141.234 -5.085)" fill="#eecc72"/>
      <path id="Trazado_619065" data-name="Trazado 619065" d="M-130.605,804.022c3.807.467,6.2,4.963,4.665,8.758a.792.792,0,0,1-.072.169c-2.594,3.6-5.275,7.107-9.883,8.3a7.009,7.009,0,0,1-2.64.243.539.539,0,0,0-.26-.457,15.152,15.152,0,0,1-3.9-3.554c-.268-.327-.428-.5-.051-.879,1.2-1.21,2.352-2.477,3.544-3.7q4.122-4.234,8.261-8.45A4.4,4.4,0,0,0-130.605,804.022Z" transform="translate(-126.342 -83.449)" fill="#bec2cf"/>
      <path id="Trazado_619066" data-name="Trazado 619066" d="M-282.281,803.419a4.337,4.337,0,0,0-3.027-1.1q-9.528.009-19.055.01h-27.952l-2.932-.007c.006-.944-.335-2.146.119-2.759.433-.586,1.713-.178,2.618-.179,15.474-.011,30.948.03,46.422-.045C-283.429,799.323-281.913,800.778-282.281,803.419Z" transform="translate(-4.902 -80.433)" fill="#f3b254"/>
      <path id="Trazado_619067" data-name="Trazado 619067" d="M-118.1,679.814q-2.869,3.452-5.743,6.9a1.027,1.027,0,0,0-.283.907c.734,4.692,1.439,9.388,2.171,14.081.582,3.73,1.206,7.453,1.783,11.184.517,3.339.994,6.684,1.489,10.027a11.531,11.531,0,0,0-2.529-.423c-.419.009-.5-.224-.553-.562q-1.289-8.436-2.589-16.87c-.837-5.442-1.665-10.885-2.526-16.322a2.192,2.192,0,0,1,.513-2q2.6-2.974,5.063-6.066a1.9,1.9,0,0,1,1.92-.9A9.979,9.979,0,0,0-118.1,679.814Z" transform="translate(-136.464 -5.009)" fill="#f0a545"/>
      <path id="Trazado_619068" data-name="Trazado 619068" d="M-247.257,735.731q5.056-.015,10.112-.024c.191,0,.47-.113.547.18a24.489,24.489,0,0,1,.6,2.5c.072.461-.4.249-.611.251-2.421.019-4.842.009-7.264.014-1.43,0-1.91.49-1.911,1.943q0,5.422,0,10.843c0,1.445.486,1.933,1.923,1.934,3.647,0,7.294.016,10.941-.014.571,0,.831.175.9.714.1.725.72,1.605.363,2.089s-1.366.147-2.087.148c-4.5.006-9.009-.012-13.513-.022Z" transform="translate(-60.514 -40.316)" fill="#eecc72"/>
      <path id="Trazado_619069" data-name="Trazado 619069" d="M-311.488,786.545c-3.62,0-7.239-.022-10.858.018-.713.008-.856-.206-.846-.873.031-2.088,0-2.088,2.095-2.088,6.84,0,13.681.01,20.521-.016.711,0,1.016.088.991.916-.062,2.041-.015,2.042-2.056,2.042Z" transform="translate(-12.584 -70.551)" fill="#9195a7"/>
      <path id="Trazado_619070" data-name="Trazado 619070" d="M-181.963,679.816l-24.484,18.075c-1.475,1.089-1.468,1.088-1.022,2.84.594,2.337,1.173,4.677,1.766,7.015a2.064,2.064,0,0,0,.2.4c-.649.6-1.3,1.2-1.944,1.8-.306.287-.515.416-.655-.157-.8-3.265-1.6-6.53-2.448-9.781-.148-.567.19-.695.494-.919q11.05-8.143,22.1-16.283c.936-.69,1.927-1.318,2.793-2.087A3.65,3.65,0,0,1-181.963,679.816Z" transform="translate(-83.657 -5.013)" fill="#f0a545"/>
      <path id="Trazado_619071" data-name="Trazado 619071" d="M-137.384,803.731a4.388,4.388,0,0,1-.332.433q-4.129,4.227-8.261,8.45c-1.191,1.224-2.339,2.49-3.544,3.7-.377.379-.216.552.051.879a15.152,15.152,0,0,0,3.9,3.554.539.539,0,0,1,.26.457,11.077,11.077,0,0,1-8.253-4.184c-.235-.264-.138-.388.056-.587,3.677-3.774,7.306-7.6,11.044-11.309A5.2,5.2,0,0,1-137.384,803.731Z" transform="translate(-119.563 -83.158)" fill="#cbcfdc"/>
      <path id="Trazado_619072" data-name="Trazado 619072" d="M-227.285,751.7c1.409-.01,2.819,0,4.227-.043.451-.015.559.183.65.553.628,2.552,1.273,5.1,1.916,7.649.1.4.147.669-.451.656-2.114-.044-4.228-.033-6.343-.043Z" transform="translate(-73.12 -50.398)" fill="#dbdfe8"/>
      <path id="Trazado_619073" data-name="Trazado 619073" d="M-267.791,831.5c2.175,0,4.351.023,6.525-.015.6-.01.758.162.756.758-.008,2.2.015,2.2-2.148,2.2-3.922,0-7.843-.019-11.764.018-.692.007-.863-.169-.85-.853.038-2.107.006-2.107,2.151-2.107Z" transform="translate(-42.831 -100.784)" fill="#bec2d0"/>
      <path id="Trazado_619074" data-name="Trazado 619074" d="M-304.7,771.643c.076,1.469.076,1.469-1.361,1.469-8.035,0-16.071-.019-24.106.025-.959.005-1.165-.31-.985-1.131a3.579,3.579,0,0,1,1.677-.373Q-317.089,771.65-304.7,771.643Z" transform="translate(-7.523 -63.006)" fill="#eecc73"/>
      <path id="Trazado_619075" data-name="Trazado 619075" d="M-304.6,769.121q-12.387,0-24.775-.009a3.581,3.581,0,0,0-1.677.372c-.018-1.283.476-1.833,1.714-1.834,8.007-.006,16.014.005,24.021-.012C-303.941,767.637-304.8,768.61-304.6,769.121Z" transform="translate(-7.623 -60.485)" fill="#f3b254"/>
      <path id="Trazado_619076" data-name="Trazado 619076" d="M-312.238,736.858c0,1.5-.02,3,.011,4.5.011.508-.124.664-.653.672-2.3.036-2.3.055-2.3-2.225,0-2.448.018-4.9-.013-7.344-.008-.586.133-.768.747-.766,2.211.009,2.211-.016,2.211,2.227Z" transform="translate(-17.632 -37.796)" fill="#bec2d0"/>
      <path id="Trazado_619077" data-name="Trazado 619077" d="M-280.291,736.876c0,1.5-.023,3,.012,4.5.013.53-.162.648-.669.656-2.289.033-2.288.049-2.288-2.238,0-2.448.021-4.9-.015-7.344-.009-.613.176-.751.763-.749,2.2.008,2.2-.014,2.2,2.148Z" transform="translate(-37.795 -37.799)" fill="#bec2d0"/>
      <path id="Trazado_619078" data-name="Trazado 619078" d="M-249.784,735.765v20.549c-1.477.077-1.477.077-1.477-1.358V737.124C-251.261,735.688-251.261,735.688-249.784,735.765Z" transform="translate(-57.987 -40.35)" fill="#f0a545"/>
      <path id="Trazado_619079" data-name="Trazado 619079" d="M-232.548,751.7v8.772c-.946,0-2.148.339-2.763-.115-.587-.432-.164-1.712-.178-2.617-.029-1.807.01-3.616-.021-5.422-.009-.524.147-.69.666-.658C-234.081,751.71-233.314,751.692-232.548,751.7Z" transform="translate(-67.857 -50.398)" fill="#bec2d0"/>
      <path id="Trazado_619080" data-name="Trazado 619080" d="M-164.868,827.46c.38,0,.76-.02,1.138,0,.73.048,1.552.289,1.783.908.2.541-.659.86-.831,1.07l-2.175-1.748Z" transform="translate(-112.463 -98.237)" fill="#cbcfdc"/>
      <path id="Trazado_619081" data-name="Trazado 619081" d="M-331.176,856.722a5.5,5.5,0,0,1,3.44-4.746,5.553,5.553,0,0,1,6.26.911c.5.421.724.457,1.237.006a5.664,5.664,0,0,1,7.631,0c.432.374.658.477,1.154.037a5.684,5.684,0,0,1,7.774.039c.4.357.582.4,1.012.016a5.65,5.65,0,0,1,7.83.01c.447.4.623.306,1.012-.036a5.684,5.684,0,0,1,7.775-.019c.516.456.74.312,1.164-.058a5.791,5.791,0,0,1,7.151-.429,5.867,5.867,0,0,1,2.27,6.73,5.874,5.874,0,0,1-5.867,4.008,5.524,5.524,0,0,1-3.652-1.529c-.384-.367-.585-.415-1.022-.021a5.673,5.673,0,0,1-7.838.006c-.429-.378-.609-.353-1.015.013a5.685,5.685,0,0,1-7.772.033c-.426-.373-.627-.435-1.085-.019a5.669,5.669,0,0,1-7.768,0c-.461-.408-.661-.364-1.085.018a5.657,5.657,0,0,1-7.627.081c-.524-.454-.782-.448-1.312,0a5.62,5.62,0,0,1-6.271.874C-329.879,861.718-331.182,859.625-331.176,856.722Zm8.85.59a2.955,2.955,0,0,0-2.926-2.936,2.952,2.952,0,0,0-2.961,2.991,2.957,2.957,0,0,0,2.971,2.892A2.964,2.964,0,0,0-322.326,857.312Zm5.893-2.937a2.955,2.955,0,0,0-2.942,2.918,2.957,2.957,0,0,0,2.99,2.965,2.966,2.966,0,0,0,2.9-2.966A2.956,2.956,0,0,0-316.433,854.376Zm11.783,2.954a2.952,2.952,0,0,0-2.908-2.953,2.951,2.951,0,0,0-2.979,2.973,2.956,2.956,0,0,0,2.953,2.909A2.965,2.965,0,0,0-304.65,857.33Zm5.925,2.929a2.965,2.965,0,0,0,2.912-2.95,2.955,2.955,0,0,0-2.929-2.933,2.953,2.953,0,0,0-2.958,2.994A2.957,2.957,0,0,0-298.724,860.259Zm11.749-2.919a2.955,2.955,0,0,0-2.966-2.966,2.95,2.95,0,0,0-2.92,2.917,2.953,2.953,0,0,0,2.873,2.965A2.951,2.951,0,0,0-286.976,857.34Zm8.838-.023a2.956,2.956,0,0,0-2.989-2.943,2.949,2.949,0,0,0-2.9,2.939,2.952,2.952,0,0,0,2.9,2.943A2.95,2.95,0,0,0-278.138,857.317Z" transform="translate(-7.546 -113.351)" fill="#020202"/>
      <path id="Trazado_619082" data-name="Trazado 619082" d="M-311.2,807.6h22.06c-.012.944.333,2.183-.135,2.75-.489.592-1.777.176-2.714.178-6.127.015-12.255,0-18.382.024-.667,0-.934-.127-.86-.841C-311.155,809.014-311.2,808.3-311.2,807.6Z" transform="translate(-20.129 -85.707)"/>
      <path id="Trazado_619083" data-name="Trazado 619083" d="M-327.142,807.6h2.911c.006.244.016.488.017.732.006,2.334.006,2.321-2.388,2.216-.434-.019-.585-.128-.565-.569C-327.132,809.187-327.148,808.393-327.142,807.6Z" transform="translate(-10.074 -85.707)"/>
      <path id="Trazado_619084" data-name="Trazado 619084" d="M-317.255,862.413a2.964,2.964,0,0,1-2.916,2.947,2.957,2.957,0,0,1-2.971-2.892,2.952,2.952,0,0,1,2.961-2.991A2.955,2.955,0,0,1-317.255,862.413Z" transform="translate(-12.617 -118.451)" fill="#babecc"/>
      <path id="Trazado_619085" data-name="Trazado 619085" d="M-296.237,859.475a2.956,2.956,0,0,1,2.945,2.917,2.966,2.966,0,0,1-2.9,2.966,2.957,2.957,0,0,1-2.99-2.965A2.955,2.955,0,0,1-296.237,859.475Z" transform="translate(-27.742 -118.45)" fill="#babecc"/>
      <path id="Trazado_619086" data-name="Trazado 619086" d="M-269.329,862.431a2.965,2.965,0,0,1-2.934,2.929,2.956,2.956,0,0,1-2.953-2.909,2.951,2.951,0,0,1,2.979-2.973A2.953,2.953,0,0,1-269.329,862.431Z" transform="translate(-42.866 -118.451)" fill="#babecc"/>
      <path id="Trazado_619087" data-name="Trazado 619087" d="M-248.279,865.359a2.957,2.957,0,0,1-2.975-2.888,2.953,2.953,0,0,1,2.958-2.994,2.955,2.955,0,0,1,2.929,2.933A2.965,2.965,0,0,1-248.279,865.359Z" transform="translate(-57.991 -118.45)" fill="#babecc"/>
      <path id="Trazado_619088" data-name="Trazado 619088" d="M-221.406,862.435a2.951,2.951,0,0,1-3.013,2.916,2.953,2.953,0,0,1-2.873-2.965,2.95,2.95,0,0,1,2.92-2.917A2.956,2.956,0,0,1-221.406,862.435Z" transform="translate(-73.115 -118.446)" fill="#babecc"/>
      <path id="Trazado_619089" data-name="Trazado 619089" d="M-197.443,862.412a2.951,2.951,0,0,1-2.99,2.939,2.952,2.952,0,0,1-2.9-2.943,2.949,2.949,0,0,1,2.9-2.939A2.956,2.956,0,0,1-197.443,862.412Z" transform="translate(-88.241 -118.446)" fill="#babecc"/>
    </g>
    <rect id="Rectángulo_305813" data-name="Rectángulo 305813" width="124" height="124" transform="translate(1049 4740)" fill="none"/>
  </g>
</svg>
