<svg xmlns="http://www.w3.org/2000/svg" width="124" height="124" viewBox="0 0 124 124">
  <g id="Grupo_940230" data-name="Grupo 940230" transform="translate(-1049 -4740)">
    <circle id="Elipse_7678" data-name="Elipse 7678" cx="50.5" cy="50.5" r="50.5" transform="translate(1061 4752)" fill="#fff"/>
    <rect id="Rectángulo_305813" data-name="Rectángulo 305813" width="124" height="124" transform="translate(1049 4740)" fill="none"/>
    <g id="Grupo_940233" data-name="Grupo 940233" transform="translate(1295.469 3824.329)">
      <path id="Trazado_619162" data-name="Trazado 619162" d="M-167.543,1041.707c-.262,1.067-.548,1.292-1.675,1.3q-2.3.007-4.6,0c-1.195-.006-1.6-.424-1.608-1.64-.006-1.264-.014-2.529,0-3.793.013-.97.468-1.413,1.452-1.429a27.808,27.808,0,0,1,2.978.018c.849.078,1.019-.253.948-1a15.326,15.326,0,0,1-.008-1.9c.03-1.028.468-1.45,1.516-1.46,1.2-.011,2.41-.046,3.611.014.672.033.686-.337.605-.768s.405-1.161-.6-1.159q-8.307.019-16.614-.006c-.529,0-.563.233-.561.645.013,2.2.01,4.395,0,6.592,0,1.2-.417,1.616-1.631,1.623q-2.844.017-5.688,0c-.509,0-.827.015-.813.7.021.978-.463,1.371-1.474,1.391-.481.009-.964.021-1.444,0-.827-.04-1.607-.155-1.453,1.154.066.565-.49.928-1.089,1.005a5.708,5.708,0,0,1-.722.012h-27.54c-1.514,0-1.864-.345-1.865-1.841q0-8.127,0-16.255c0-1.392.377-1.772,1.748-1.776.662,0,1.326-.031,1.986.009.493.03.616-.156.6-.619-.034-.781-.024-1.565,0-2.347a1.228,1.228,0,0,1,1.322-1.371c1.384-.026,2.769-.024,4.153,0a1.259,1.259,0,0,1,1.376,1.34c.035.811.031,1.626,0,2.438-.016.43.113.563.552.56q3.882-.029,7.765,0c.466,0,.635-.111.609-.6-.04-.751-.027-1.505-.006-2.257.028-1.029.481-1.477,1.508-1.488q1.941-.021,3.883,0c1.022.011,1.431.457,1.475,1.5.039.922-.4,2.152.18,2.676.5.456,1.713.132,2.61.152,1.081.023,1.515.45,1.518,1.549.008,2.769.044,5.54-.021,8.308-.021.868.265,1.073,1.047.994a15.523,15.523,0,0,1,1.8-.01c1.048.017,1.516.43,1.49,1.469-.016.65.2.808.813.789,1.383-.044,2.769-.038,4.153,0,.524.014.651-.157.645-.658-.026-2.107-.012-4.214-.011-6.321,0-1.545.343-1.883,1.926-1.884,5.809,0,11.618-.02,17.426.021.822.006.98-.23.974-1-.038-4.575-.019-9.15-.019-13.726v-.861a.947.947,0,0,0-.585.678c-.587,1.485-1.661,1.826-3.208,1.819-12.4-.062-24.8-.034-37.2-.034-1.475,0-2.95.009-4.424,0-1.573-.012-2.1-.953-1.3-2.3q12.192-20.378,24.379-40.758a1.8,1.8,0,0,1,1.818-1.027c.96.056,1.926.038,2.889.006a1.332,1.332,0,0,1,1.553,1.26,1.428,1.428,0,0,1-1.66,1.28c-.661-.014-1.324.021-1.983-.011a.841.841,0,0,0-.861.487c-.909,1.555-1.831,3.1-2.779,4.636-.372.6-.152.675.425.672,3.336-.016,6.672-.006,10.009-.009.262,0,.563.073.736-.214,1.091-1.815,2.176-3.633,3.331-5.564-.852,0-1.537-.014-2.223,0a1.443,1.443,0,0,1-1.671-1.275c.149-1.01.789-1.272,1.734-1.271q16.518.026,33.035.007c.62,0,1.208.009,1.57.636s.069,1.149-.246,1.676q-6.366,10.627-12.737,21.249a3.264,3.264,0,0,0-.492,1.778c.02,4.784.009,9.569.013,14.353,0,.715-.021,1.4-.822,1.732-.334.136-.258.439-.261.7-.007.632-.028,1.265,0,1.9a1.484,1.484,0,0,1-1.164,1.683c-1.16-.31-1.355-.557-1.368-1.755-.006-.6-.028-1.205.007-1.8.027-.481-.151-.626-.62-.609-.9.032-1.806.034-2.707,0-.5-.02-.674.126-.673.651q.025,9.388,0,18.775c0,.587.2.705.727.681.87-.041,1.745-.039,2.616,0,.509.023.678-.131.663-.65-.035-1.173-.017-2.347-.009-3.52.009-1.209.218-1.469,1.365-1.745a1.461,1.461,0,0,1,1.166,1.671c-.026,1.173.032,2.348-.021,3.518-.028.622.2.745.761.726,1.111-.039,2.225-.015,3.337-.011,1.252.005,1.645.4,1.656,1.681a14.466,14.466,0,0,1-.013,1.8c-.089.756.235.9.905.865.99-.052,1.984-.022,2.977-.01,1.041.012,1.5.45,1.508,1.468.015,1.293.013,2.587,0,3.88-.009,1.038-.453,1.51-1.465,1.511q-8.3.014-16.6.006a1.352,1.352,0,0,1-1.476-1.265c.155-.94.73-1.279,1.653-1.276,4.814.018,9.629-.009,14.443.027.735.005.954-.149.95-.917s-.19-1-.944-.921a18.731,18.731,0,0,1-1.984.015c-7.523,0-15.045.015-22.567-.022-.8,0-.776.362-.756.909.018.5-.133,1.011.726.939,1.016-.086,2.045,0,3.068-.025A1.335,1.335,0,0,1-167.543,1041.707Zm-42.683-1.234c4.122,0,8.245-.014,12.366.015.626,0,.8-.146.8-.788q-.045-6.635,0-13.27c0-.649-.185-.784-.8-.783q-12.321.031-24.643,0c-.626,0-.8.146-.8.787q.045,6.635,0,13.27c0,.648.182.788.8.784C-218.411,1040.459-214.318,1040.473-210.226,1040.473Zm66.161-67.763c-3.91,0-7.639,0-11.368-.005a.671.671,0,0,0-.642.385q-1.424,2.407-2.872,4.8c-.265.436-.253.61.331.608,3.522-.017,7.044-.01,10.566,0a.74.74,0,0,0,.75-.363C-146.266,976.373-145.213,974.627-144.066,972.71Zm-30.152,30.708c3.9,0,7.615,0,11.333.005a.669.669,0,0,0,.656-.357q1.443-2.441,2.911-4.867c.25-.413.2-.567-.312-.566q-5.361.015-10.722,0a.667.667,0,0,0-.643.379C-172.029,999.766-173.078,1001.511-174.217,1003.418Zm10.252,2.531c-3.873,0-7.544.006-11.214-.009a.867.867,0,0,0-.857.493c-.909,1.557-1.84,3.1-2.779,4.643-.276.453-.31.666.346.662,3.491-.019,6.982-.01,10.472-.008.306,0,.579,0,.771-.325C-166.177,1009.626-165.11,1007.859-163.966,1005.948Zm-.3-19.151c3.923,0,7.675,0,11.428.005.337,0,.466-.205.608-.443.939-1.575,1.869-3.156,2.831-4.717.346-.561.135-.632-.4-.629q-5.237.018-10.474,0a.806.806,0,0,0-.807.425C-162.1,983.175-163.135,984.9-164.268,986.8Zm10.166,2.67c-.12-.073-.166-.124-.211-.124-3.672-.008-7.343-.007-11.015-.021a.732.732,0,0,0-.714.418q-1.395,2.371-2.827,4.72c-.28.46-.3.66.349.657,3.491-.02,6.982-.01,10.474-.008.307,0,.58,0,.772-.326C-156.227,993.006-155.161,991.239-154.1,989.468Zm-24.589,16.48c-2.935,0-5.664,0-8.393,0-.99,0-2.125-.271-2.93.122-.847.413-1.126,1.632-1.663,2.493-.627,1-1.22,2.03-1.9,3.163,3.791,0,7.392,0,10.992,0a.611.611,0,0,0,.609-.279C-180.92,1009.677-179.86,1007.906-178.691,1005.948Zm14.925-24.928c-3.8,0-7.428.005-11.057-.007-.381,0-.512.235-.668.5-.923,1.546-1.843,3.094-2.778,4.634-.263.433-.345.67.334.666,3.4-.02,6.79-.012,10.185-.005a.746.746,0,0,0,.75-.365C-165.965,984.683-164.914,982.939-163.766,981.02Zm-29.271,5.779c3.781,0,7.356-.009,10.931.012a.864.864,0,0,0,.825-.544q1.352-2.286,2.731-4.556c.284-.465.375-.708-.357-.7-3.365.026-6.73.01-10.1.014-.258,0-.535-.066-.716.238C-190.788,983.058-191.867,984.85-193.036,986.8Zm-.072,19.211a2.793,2.793,0,0,0-.317-.055q-3.837,0-7.674,0c-1.112,0-2.4-.317-3.29.13-.936.469-1.259,1.834-1.862,2.8-.564.9-1.091,1.832-1.693,2.848,3.755,0,7.334,0,10.914,0a.747.747,0,0,0,.74-.387C-195.256,1009.591-194.206,1007.846-193.109,1006.01Zm19.429-27.521c3.785,0,7.388,0,10.99.007a.735.735,0,0,0,.7-.439c.932-1.576,1.866-3.151,2.824-4.712.316-.514.212-.646-.373-.643-3.4.016-6.792.008-10.188.007-.274,0-.511.007-.685.3C-171.456,974.791-172.524,976.56-173.68,978.489Zm-9.443,10.841c-3.791,0-7.423,0-11.054,0a.552.552,0,0,0-.531.263l-3.3,5.516c3.8,0,7.429,0,11.058,0a.549.549,0,0,0,.527-.271C-185.345,993.041-184.27,991.246-183.122,989.33Zm-.5,5.778c3.809,0,7.437,0,11.065.006a.668.668,0,0,0,.615-.427c.938-1.573,1.874-3.147,2.828-4.71.281-.46.3-.661-.348-.657-3.4.019-6.791.011-10.187.006a.726.726,0,0,0-.741.365C-181.424,991.449-182.479,993.191-183.627,995.108Zm-19.356,8.31c3.785,0,7.36-.009,10.935.011a.864.864,0,0,0,.821-.549c.9-1.524,1.807-3.047,2.732-4.556.3-.482.36-.7-.358-.7-3.365.026-6.73.01-10.1.014-.258,0-.536-.067-.717.236C-200.734,999.675-201.812,1001.467-202.982,1003.418Zm29.267-5.778c-3.8,0-7.426,0-11.055-.007-.381,0-.515.238-.67.5-.925,1.545-1.843,3.095-2.78,4.632-.274.45-.319.669.341.666,3.395-.019,6.79-.011,10.184-.005a.746.746,0,0,0,.749-.368C-175.912,1001.3-174.861,999.555-173.716,997.64Zm16.866,1.6c-.044,0-.089-.011-.1,0q-2.843,4.705-5.683,9.413c-.311.514.006.542.4.541,1.563,0,3.128-.029,4.691.012.646.017.81-.215.8-.829-.026-2.887-.01-5.774-.016-8.661C-156.757,999.557-156.677,999.362-156.85,999.241Zm-3.036,36.9c2.344,0,4.689-.035,7.032.02.777.018.788-.35.788-.92s0-.929-.783-.922q-6.942.059-13.884,0c-.771-.006-.793.343-.79.919s.006.942.786.924C-164.455,1036.1-162.171,1036.137-159.887,1036.137Zm-58.217-14.789c-.891-.247-.845.3-.887.936-.05.753.253.854.911.874.746.022.95-.194.946-.942S-217.349,1021.156-218.1,1021.348Zm16.681.8c.291-.893-.321-.789-.928-.844-.763-.069-.85.262-.874.916-.028.758.217.937.948.939C-201.511,1023.162-201.232,1022.93-201.423,1022.149Zm7.8,16.134c.851.237.892-.24.911-.914.02-.706-.185-.9-.892-.9s-.992.135-.967.923C-194.553,1038.113-194.426,1038.5-193.628,1038.283Z" transform="translate(-0.606 -22.526)" fill="#0b1921"/>
      <path id="Trazado_619163" data-name="Trazado 619163" d="M-222.011,938.356c.8.048,1.195.631,1.621,1.114.49.556.865.7,1.533.19a7.354,7.354,0,0,1,3.4-1.355c.531-.079.637-.295.605-.757a11.988,11.988,0,0,1,0-1.354,1.251,1.251,0,0,1,1.278-1.332c.777.049,1.339.533,1.214,1.274-.278,1.649.381,2.339,1.972,2.541a4.945,4.945,0,0,1,2.325,1.143c.45.354.706.254,1.035-.125a8.989,8.989,0,0,1,1.1-1.071,1.149,1.149,0,0,1,1.7.105,1.168,1.168,0,0,1,.074,1.638.26.26,0,0,1-.056.071c-1.537.96-1.437,2.058-.421,3.392a4.882,4.882,0,0,1,.783,2.376c.058.48.255.6.693.574a11.428,11.428,0,0,1,1.534.005,1.207,1.207,0,0,1,1.21,1.215,1.141,1.141,0,0,1-1.219,1.266c-1.751-.3-2.407.481-2.634,2.095A4.98,4.98,0,0,1-205.4,953.6a.589.589,0,0,0,.106.966,10.879,10.879,0,0,1,1.022,1.02,1.183,1.183,0,0,1,.019,1.773,1.086,1.086,0,0,1-1.747.016c-1.02-1.426-2.034-1.386-3.341-.406a5.211,5.211,0,0,1-2.459.817c-.427.056-.56.223-.538.632a13.736,13.736,0,0,1,0,1.535,1.268,1.268,0,0,1-1.256,1.271,1.162,1.162,0,0,1-1.232-1.262c.29-1.647-.376-2.334-1.954-2.555a5.306,5.306,0,0,1-2.4-1.189.549.549,0,0,0-.9.088,12.031,12.031,0,0,1-1.021,1.021,1.217,1.217,0,0,1-1.781.025,1.117,1.117,0,0,1-.008-1.753c1.44-1,1.33-2,.379-3.272a5.13,5.13,0,0,1-.824-2.457c-.06-.484-.262-.595-.7-.571a11.248,11.248,0,0,1-1.534-.006,1.206,1.206,0,0,1-1.207-1.218,1.144,1.144,0,0,1,1.221-1.265c1.658.261,2.41-.354,2.6-2.009a4.949,4.949,0,0,1,1.15-2.321c.314-.406.257-.653-.1-.966a10.917,10.917,0,0,1-1.075-1.093,1.172,1.172,0,0,1-.164-1.35A1.247,1.247,0,0,1-222.011,938.356Zm8.423,2.276a7.433,7.433,0,0,0-7.408,7.4,7.423,7.423,0,0,0,7.4,7.406,7.422,7.422,0,0,0,7.406-7.4A7.422,7.422,0,0,0-213.588,940.633Z" fill="#0c1a21"/>
      <path id="Trazado_619164" data-name="Trazado 619164" d="M-43.563,1099.149c-1.147.276-1.357.536-1.365,1.745-.008,1.174-.026,2.348.009,3.52.016.519-.154.673-.663.65-.871-.039-1.746-.04-2.616,0-.529.025-.729-.093-.727-.681q.033-9.388,0-18.775c0-.526.172-.671.673-.651.9.034,1.806.032,2.707,0,.469-.017.648.129.62.609-.035.6-.013,1.2-.007,1.8.013,1.2.208,1.445,1.368,1.755q0,.87-.009,1.74c-1.069.207-1.34.5-1.363,1.545-.019.871,0,1.744-.005,2.616a1.359,1.359,0,0,0,1.367,1.559Q-43.567,1097.868-43.563,1099.149Z" transform="translate(-113.482 -95.775)" fill="#e4e4e9"/>
      <path id="Trazado_619165" data-name="Trazado 619165" d="M-110.143,973.678a1.443,1.443,0,0,0,1.671,1.275c.685-.017,1.371,0,2.223,0-1.155,1.931-2.241,3.749-3.331,5.564-.172.287-.473.214-.736.214-3.336,0-6.673-.006-10.009.009-.577,0-.8-.072-.425-.672.949-1.532,1.87-3.081,2.779-4.636a.841.841,0,0,1,.861-.487c.66.032,1.322,0,1.983.011a1.428,1.428,0,0,0,1.66-1.28Z" transform="translate(-67.534 -24.766)" fill="#58a7f3"/>
      <path id="Trazado_619166" data-name="Trazado 619166" d="M-74.263,1162.444a1.336,1.336,0,0,0-1.572-1.239c-1.023.021-2.052-.061-3.068.025-.858.073-.708-.438-.726-.939-.019-.547-.044-.913.756-.909,7.522.038,15.045.022,22.567.022a18.7,18.7,0,0,0,1.984-.015c.754-.081.94.168.944.921s-.215.922-.95.917c-4.814-.036-9.629-.009-14.443-.027-.923,0-1.5.336-1.653,1.276Z" transform="translate(-93.887 -143.263)" fill="#e9e9ee"/>
      <path id="Trazado_619167" data-name="Trazado 619167" d="M-36.548,1107.008a1.359,1.359,0,0,1-1.367-1.559c.007-.872-.013-1.744.005-2.616.022-1.046.294-1.339,1.363-1.545a1.355,1.355,0,0,1,1.173,1.549q-.016,1.305,0,2.61A1.389,1.389,0,0,1-36.548,1107.008Z" transform="translate(-120.506 -106.197)" fill="#101e25"/>
      <path id="Trazado_619168" data-name="Trazado 619168" d="M-205.792,1138.3c-4.092,0-8.185-.014-12.276.015-.62,0-.807-.136-.8-.784q.046-6.635,0-13.27c0-.641.172-.789.8-.787q12.321.033,24.643,0c.619,0,.808.134.8.783q-.046,6.635,0,13.27c0,.642-.174.792-.8.788C-197.547,1138.29-201.67,1138.3-205.792,1138.3Zm.319-8.739c.3-.869.605-1.682.866-2.509a1.283,1.283,0,0,0-.67-1.738,1.254,1.254,0,0,0-1.7.881c-.516,1.409-1.014,2.826-1.475,4.254a1.238,1.238,0,0,0,1.173,1.7c.4.03.806,0,1.279,0-.305.893-.573,1.655-.826,2.422-.334,1.013-.086,1.684.7,1.933.753.239,1.35-.129,1.685-1.069.353-.99.68-1.988,1.026-2.981.831-2.387.6-2.736-1.874-2.847A1.417,1.417,0,0,1-205.473,1129.564Zm-11.575,2.32c0,.721-.017,1.443,0,2.163a1.266,1.266,0,0,0,1.247,1.361,1.27,1.27,0,0,0,1.268-1.35q.039-2.162,0-4.325a1.273,1.273,0,0,0-1.258-1.36,1.262,1.262,0,0,0-1.258,1.349C-217.066,1130.443-217.048,1131.164-217.048,1131.885Z" transform="translate(-5.041 -120.356)" fill="#f6d754"/>
      <path id="Trazado_619169" data-name="Trazado 619169" d="M-26.454,977.2c-1.147,1.917-2.2,3.663-3.235,5.42a.74.74,0,0,1-.75.363c-3.522-.006-7.044-.012-10.566,0-.584,0-.6-.172-.331-.608q1.452-2.391,2.872-4.8a.671.671,0,0,1,.642-.385C-34.093,977.2-30.363,977.2-26.454,977.2Z" transform="translate(-118.218 -27.011)" fill="#58a7f3"/>
      <path id="Trazado_619170" data-name="Trazado 619170" d="M-83.235,1051.857c1.14-1.907,2.188-3.651,3.222-5.4a.667.667,0,0,1,.643-.379q5.361.011,10.722,0c.513,0,.563.153.312.566q-1.471,2.424-2.911,4.867a.669.669,0,0,1-.656.357C-75.62,1051.854-79.339,1051.857-83.235,1051.857Z" transform="translate(-91.589 -70.965)" fill="#58a7f3"/>
      <path id="Trazado_619171" data-name="Trazado 619171" d="M-81.419,1069.032c-1.144,1.911-2.212,3.678-3.26,5.456-.193.326-.465.325-.771.325-3.491,0-6.982-.012-10.472.008-.656,0-.622-.208-.346-.662.939-1.54,1.869-3.086,2.779-4.643a.867.867,0,0,1,.857-.493C-88.962,1069.038-85.292,1069.032-81.419,1069.032Z" transform="translate(-83.153 -85.609)" fill="#58a7f3"/>
      <path id="Trazado_619172" data-name="Trazado 619172" d="M-55.743,1005.931c1.133-1.9,2.172-3.623,3.189-5.36a.806.806,0,0,1,.807-.425q5.237.016,10.474,0c.532,0,.743.068.4.629-.962,1.561-1.892,3.142-2.831,4.717-.142.238-.271.444-.608.443C-48.068,1005.928-51.82,1005.931-55.743,1005.931Z" transform="translate(-109.131 -41.659)" fill="#58a7f3"/>
      <path id="Trazado_619173" data-name="Trazado 619173" d="M-54.015,1023.254c-1.059,1.77-2.125,3.538-3.174,5.316-.192.325-.465.326-.772.326-3.491,0-6.983-.012-10.474.008-.647,0-.629-.2-.349-.657q1.432-2.349,2.827-4.72a.732.732,0,0,1,.714-.418c3.672.014,7.343.013,11.015.021C-54.181,1023.13-54.135,1023.181-54.015,1023.254Z" transform="translate(-100.693 -56.312)" fill="#58a7f3"/>
      <path id="Trazado_619174" data-name="Trazado 619174" d="M-121.839,1068.891c-1.169,1.958-2.23,3.729-3.284,5.5a.611.611,0,0,1-.609.279c-3.6,0-7.2,0-10.992,0,.678-1.134,1.271-2.159,1.9-3.163.537-.861.816-2.08,1.663-2.493.806-.393,1.941-.12,2.93-.122C-127.5,1068.887-124.774,1068.891-121.839,1068.891Z" transform="translate(-57.458 -85.468)" fill="#58a7f3"/>
      <path id="Trazado_619175" data-name="Trazado 619175" d="M-80.265,1000.154c-1.148,1.919-2.2,3.664-3.234,5.418a.746.746,0,0,1-.75.365c-3.4-.006-6.79-.015-10.185.005-.679,0-.6-.233-.334-.666.934-1.539,1.855-3.087,2.778-4.634.155-.26.287-.5.668-.5C-87.694,1000.159-84.064,1000.154-80.265,1000.154Z" transform="translate(-84.107 -41.66)" fill="#58a7f3"/>
      <path id="Trazado_619176" data-name="Trazado 619176" d="M-135.234,1005.923c1.169-1.948,2.249-3.741,3.318-5.539.181-.3.458-.238.716-.238,3.365,0,6.731.012,10.1-.014.732-.006.641.237.357.7q-1.382,2.268-2.731,4.556a.864.864,0,0,1-.825.544C-127.878,1005.914-131.453,1005.923-135.234,1005.923Z" transform="translate(-58.409 -41.65)" fill="#58a7f3"/>
      <path id="Trazado_619177" data-name="Trazado 619177" d="M-161.592,1068.92c-1.1,1.836-2.148,3.582-3.183,5.337a.747.747,0,0,1-.74.386c-3.58-.008-7.159,0-10.914,0,.6-1.016,1.129-1.944,1.693-2.848.6-.966.926-2.331,1.862-2.8.895-.448,2.178-.129,3.29-.13q3.837-.006,7.674,0A2.777,2.777,0,0,1-161.592,1068.92Z" transform="translate(-32.123 -85.436)" fill="#58a7f3"/>
      <path id="Trazado_619178" data-name="Trazado 619178" d="M-81.749,982.969c1.155-1.929,2.224-3.7,3.271-5.477.174-.3.411-.3.685-.3,3.4,0,6.792.008,10.188-.007.585,0,.688.13.373.643-.958,1.56-1.892,3.135-2.824,4.712a.735.735,0,0,1-.7.439C-74.361,982.964-77.964,982.969-81.749,982.969Z" transform="translate(-92.537 -27.006)" fill="#58a7f3"/>
      <path id="Trazado_619179" data-name="Trazado 619179" d="M-134.078,1023.124c-1.147,1.917-2.223,3.711-3.3,5.507a.55.55,0,0,1-.527.271c-3.63,0-7.259,0-11.058,0l3.3-5.516a.552.552,0,0,1,.531-.263C-141.5,1023.125-137.869,1023.124-134.078,1023.124Z" transform="translate(-49.651 -56.319)" fill="#58a7f3"/>
      <path id="Trazado_619180" data-name="Trazado 619180" d="M-109.234,1028.889c1.147-1.916,2.2-3.659,3.233-5.417a.726.726,0,0,1,.741-.365c3.4.005,6.791.013,10.187-.006.643,0,.629.2.348.657-.954,1.563-1.89,3.137-2.828,4.71a.668.668,0,0,1-.615.427C-101.8,1028.885-105.425,1028.889-109.234,1028.889Z" transform="translate(-74.999 -56.307)" fill="#58a7f3"/>
      <path id="Trazado_619181" data-name="Trazado 619181" d="M-162.717,1051.846c1.17-1.951,2.249-3.743,3.318-5.541.181-.3.459-.236.717-.236,3.365,0,6.73.012,10.1-.014.719-.005.654.214.358.7-.926,1.51-1.831,3.032-2.732,4.556a.864.864,0,0,1-.821.549C-155.357,1051.837-158.932,1051.846-162.717,1051.846Z" transform="translate(-40.872 -70.953)" fill="#58a7f3"/>
      <path id="Trazado_619182" data-name="Trazado 619182" d="M-107.757,1046.078c-1.145,1.915-2.2,3.66-3.231,5.414a.746.746,0,0,1-.749.368c-3.395-.006-6.79-.014-10.184.005-.66,0-.616-.216-.341-.666.937-1.538,1.855-3.087,2.78-4.632.155-.258.289-.5.67-.5C-115.183,1046.083-111.554,1046.078-107.757,1046.078Z" transform="translate(-66.565 -70.964)" fill="#58a7f3"/>
      <path id="Trazado_619183" data-name="Trazado 619183" d="M-45.66,1050.505c.173.121.094.317.094.477.006,2.887-.01,5.775.016,8.661.006.613-.158.846-.8.829-1.563-.041-3.127-.015-4.691-.012-.389,0-.706-.027-.4-.541q2.844-4.705,5.683-9.413C-45.749,1050.494-45.7,1050.505-45.66,1050.505Z" transform="translate(-111.797 -73.79)" fill="#3b88c5"/>
      <path id="Trazado_619184" data-name="Trazado 619184" d="M-57.1,1149.248c-2.284,0-4.569-.035-6.852.02-.78.019-.783-.356-.786-.924s.019-.925.79-.918q6.942.057,13.884,0c.779-.007.783.354.783.922s-.011.938-.788.92C-52.414,1149.213-54.759,1149.248-57.1,1149.248Z" transform="translate(-103.39 -135.638)" fill="#3c89c7"/>
      <path id="Trazado_619185" data-name="Trazado 619185" d="M-206.073,1111.492c.755-.191.967.107.971.868s-.2.963-.946.942c-.659-.019-.961-.121-.911-.874C-206.917,1111.795-206.964,1111.245-206.073,1111.492Z" transform="translate(-12.638 -112.67)" fill="#eb9937"/>
      <path id="Trazado_619186" data-name="Trazado 619186" d="M-161.587,1112.309c.19.781-.088,1.013-.853,1.011-.731,0-.976-.181-.948-.939.024-.653.111-.984.874-.916C-161.909,1111.52-161.3,1111.416-161.587,1112.309Z" transform="translate(-40.442 -112.686)" fill="#eb9937"/>
      <path id="Trazado_619187" data-name="Trazado 619187" d="M-138.543,1155.2c-.8.213-.925-.17-.948-.889-.025-.788.254-.921.967-.923s.912.192.892.9C-137.651,1154.958-137.692,1155.435-138.543,1155.2Z" transform="translate(-55.691 -139.441)" fill="#eb9937"/>
      <path id="Trazado_619188" data-name="Trazado 619188" d="M-203.408,950.812a7.422,7.422,0,0,1,7.4,7.408,7.422,7.422,0,0,1-7.406,7.4,7.423,7.423,0,0,1-7.4-7.406A7.433,7.433,0,0,1-203.408,950.812Z" transform="translate(-10.18 -10.179)" fill="#f6d654"/>
      <path id="Trazado_619189" data-name="Trazado 619189" d="M-187.242,1132.637a1.42,1.42,0,0,0,.185.052c2.476.111,2.7.46,1.874,2.847-.346.992-.673,1.991-1.026,2.981-.335.94-.932,1.308-1.685,1.069-.784-.249-1.032-.92-.7-1.933.253-.767.52-1.529.826-2.422-.474,0-.879.025-1.279,0a1.238,1.238,0,0,1-1.173-1.7c.461-1.428.959-2.845,1.475-4.254a1.254,1.254,0,0,1,1.7-.881,1.283,1.283,0,0,1,.67,1.738C-186.637,1130.955-186.94,1131.768-187.242,1132.637Z" transform="translate(-23.271 -123.429)" fill="#0c1a1f"/>
      <path id="Trazado_619190" data-name="Trazado 619190" d="M-213.847,1140.518c0-.721-.018-1.442,0-2.162a1.262,1.262,0,0,1,1.258-1.349,1.273,1.273,0,0,1,1.258,1.36q.037,2.162,0,4.325a1.27,1.27,0,0,1-1.268,1.35,1.266,1.266,0,0,1-1.247-1.361C-213.864,1141.96-213.847,1141.239-213.847,1140.518Z" transform="translate(-8.242 -128.989)" fill="#0c1a1f"/>
    </g>
  </g>
</svg>
