<svg id="Grupo_949503" data-name="Grupo 949503" xmlns="http://www.w3.org/2000/svg" xmlns:xlink="http://www.w3.org/1999/xlink" width="357.71" height="231.135" viewBox="0 0 357.71 231.135">
  <defs>
    <clipPath id="clip-path">
      <rect id="Rectángulo_298097" data-name="Rectángulo 298097" width="330.206" height="192.562" fill="none"/>
    </clipPath>
  </defs>
  <rect id="Rectángulo_298217" data-name="Rectángulo 298217" width="357.71" height="231.136" transform="translate(0)" fill="none"/>
  <g id="Grupo_949490" data-name="Grupo 949490" transform="translate(13.752 19.286)">
    <g id="Grupo_878374" data-name="Grupo 878374">
      <g id="Enmascarar_grupo_878373" data-name="Enmascarar grupo 878373" clip-path="url(#clip-path)">
        <path id="Trazado_600767" data-name="Trazado 600767" d="M541.966,273.573c-9.518-8.3-10.415-21.9-8.714-33.856.284-2,.291-4.131,1.433-5.786s3.5-2.616,5.2-1.578c1.412.86,1.874,2.661,2.552,4.181a11.791,11.791,0,0,0,4.214,4.993,4.489,4.489,0,0,0,4.072.815c1.83-.767,2.291-3.132,2.494-5.125q.565-5.573,1.131-11.145a18.681,18.681,0,0,1,1.239-5.852,6.215,6.215,0,0,1,4.334-3.76c1.953-.326,4.178,1.019,4.368,3.012a18.5,18.5,0,0,1-.211,2.486,2.107,2.107,0,0,0,1.014,2.1,2.421,2.421,0,0,0,2.286-.679,26.623,26.623,0,0,0,5.529-6.666,36.954,36.954,0,0,1,5.234-6.93,10.836,10.836,0,0,1,7.74-3.307c2.871.146,5.721,2.235,6.14,5.113s-1.525,5.559-3.553,7.64a44.72,44.72,0,0,1-10.21,7.827,3.684,3.684,0,0,0-1.728,1.5c-.576,1.281.54,2.736,1.8,3.314a23.162,23.162,0,0,0,4.593,1.025c1.534.35,3.143,1.216,3.572,2.748.6,2.124-1.336,4.074-3.163,5.292a38.316,38.316,0,0,1-11.974,5.293,12.925,12.925,0,0,0-4.409,1.584,3.709,3.709,0,0,0-1.636,4.1c.563,1.482,2.347,2.128,3.913,2.009a26.742,26.742,0,0,0,4.551-1.2c2.849-.738,6.364-.169,7.862,2.386a6.341,6.341,0,0,1,.07,5.647,14.619,14.619,0,0,1-3.551,4.6,38.524,38.524,0,0,1-17.594,9.731c-6.587,1.518-12.536,1.479-18.6-1.509" transform="translate(-272.197 -105.529)" fill="#ffe3a7"/>
        <path id="Trazado_600768" data-name="Trazado 600768" d="M559.8,268.559a179.424,179.424,0,0,1,9.157-18.454l2.648-4.714c.873-1.545,1.739-3.078,2.678-4.524a89.67,89.67,0,0,1,5.874-8c1.991-2.456,3.97-4.712,5.836-6.81s3.652-4.013,5.35-5.692a71.044,71.044,0,0,1,8.593-7.322c1.078-.782,1.934-1.362,2.52-1.746l.669-.433a1.489,1.489,0,0,1,.235-.137,1.4,1.4,0,0,1-.214.169l-.648.463c-.571.4-1.414,1-2.478,1.8a75.2,75.2,0,0,0-8.494,7.392c-1.681,1.687-3.447,3.611-5.3,5.711s-3.823,4.366-5.8,6.82a90.617,90.617,0,0,0-5.832,7.984c-.932,1.44-1.788,2.96-2.662,4.509l-2.646,4.712a183.824,183.824,0,0,0-9.165,18.4" transform="translate(-286.119 -107.704)" fill="#529d2e"/>
        <path id="Trazado_600769" data-name="Trazado 600769" d="M589.052,249.135a4.068,4.068,0,0,1-.1-.871c-.046-.562-.084-1.376-.117-2.384-.068-2.014-.067-4.8-.054-7.867s-.025-5.848-.124-7.854c-.047-1-.092-1.816-.131-2.376a4,4,0,0,1-.018-.877,3.982,3.982,0,0,1,.16.862c.083.558.169,1.369.248,2.374.166,2.01.246,4.8.233,7.872-.02,3.029-.039,5.769-.054,7.863,0,.946,0,1.743,0,2.383a4.033,4.033,0,0,1-.041.877" transform="translate(-300.785 -115.974)" fill="#529d2e"/>
        <path id="Trazado_600770" data-name="Trazado 600770" d="M615.766,267.916a5.584,5.584,0,0,1-1.035.012c-.663-.012-1.623-.035-2.81-.025-2.373,0-5.651.115-9.262.4s-6.868.7-9.216,1.055c-1.176.171-2.123.336-2.778.445a5.552,5.552,0,0,1-1.026.138,5.451,5.451,0,0,1,1-.28c.648-.154,1.591-.358,2.765-.564,2.344-.428,5.607-.874,9.23-1.167a90.874,90.874,0,0,1,9.293-.293c1.19.024,2.152.087,2.815.145a5.5,5.5,0,0,1,1.027.133" transform="translate(-301.371 -136.782)" fill="#529d2e"/>
        <path id="Trazado_600771" data-name="Trazado 600771" d="M550.746,292.479a1.311,1.311,0,0,1-.142-.331l-.338-.973c-.29-.847-.677-2.084-1.136-3.617-.92-3.067-2.056-7.344-3.247-12.08s-2.287-9.02-3.141-12.1l-1.022-3.648-.273-.994a1.334,1.334,0,0,1-.071-.354,1.349,1.349,0,0,1,.142.332c.091.263.2.584.338.973.29.847.677,2.084,1.136,3.617.92,3.067,2.056,7.344,3.247,12.082s2.286,9.018,3.141,12.1c.42,1.5.766,2.731,1.022,3.647l.273.994a1.341,1.341,0,0,1,.071.354" transform="translate(-276.703 -132.061)" fill="#529d2e"/>
        <path id="Trazado_600772" data-name="Trazado 600772" d="M595.76,313.19a1.371,1.371,0,0,1-.353.1l-1.024.225-3.772.788c-3.185.667-7.573,1.637-12.42,2.717s-9.25,2.011-12.45,2.612c-1.6.3-2.9.531-3.8.672l-1.036.156a1.358,1.358,0,0,1-.366.029,1.4,1.4,0,0,1,.353-.1l1.024-.224,3.771-.789c3.184-.666,7.573-1.637,12.422-2.717s9.248-2.011,12.448-2.611c1.6-.3,2.9-.531,3.8-.672l1.036-.156a1.357,1.357,0,0,1,.366-.029" transform="translate(-286.501 -160.073)" fill="#529d2e"/>
        <path id="Trazado_626459" data-name="Trazado 626459" d="M0,0H58.542V52.375H0Z" transform="translate(271.531 43.906)" fill="#faebcd"/>
        <g id="Grupo_949505" data-name="Grupo 949505" transform="translate(280.214 53.056)">
          <path id="Trazado_600774" data-name="Trazado 600774" d="M586.931,90.662c0,.087-3.081.156-6.882.156s-6.882-.07-6.882-.156,3.081-.156,6.882-.156,6.882.07,6.882.156" transform="translate(-573.167 -90.506)" fill="#f0bd51"/>
          <path id="Trazado_600775" data-name="Trazado 600775" d="M612.526,98.706c0,.087-8.465.156-18.905.156s-18.907-.07-18.907-.156,8.464-.156,18.907-.156,18.905.07,18.905.156" transform="translate(-573.957 -94.617)" fill="#f0bd51"/>
        </g>
        <g id="Grupo_949504" data-name="Grupo 949504" transform="translate(280.315 63.694)">
          <rect id="Rectángulo_298050" data-name="Rectángulo 298050" width="2.466" height="2.466" transform="translate(0 0.111)" fill="#f0bd51"/>
          <rect id="Rectángulo_298051" data-name="Rectángulo 298051" width="2.466" height="2.466" transform="translate(6.071 0.111)" fill="#f0bd51"/>
          <rect id="Rectángulo_298052" data-name="Rectángulo 298052" width="2.466" height="2.466" transform="translate(12.254)" fill="#f0bd51"/>
          <rect id="Rectángulo_298053" data-name="Rectángulo 298053" width="2.466" height="2.466" transform="translate(18.212 0.111)" fill="#f0bd51"/>
          <rect id="Rectángulo_298054" data-name="Rectángulo 298054" width="2.466" height="2.466" transform="translate(24.283 0.111)" fill="#f0bd51"/>
          <rect id="Rectángulo_298055" data-name="Rectángulo 298055" width="2.466" height="2.466" transform="translate(30.355 0.111)" fill="#f0bd51"/>
          <rect id="Rectángulo_298056" data-name="Rectángulo 298056" width="2.466" height="2.466" transform="translate(36.426 0.111)" fill="#f0bd51"/>
          <rect id="Rectángulo_298057" data-name="Rectángulo 298057" width="2.466" height="2.466" transform="translate(0 5.355)" fill="#f0bd51"/>
          <rect id="Rectángulo_298058" data-name="Rectángulo 298058" width="2.466" height="2.466" transform="translate(6.071 5.355)" fill="#f0bd51"/>
          <rect id="Rectángulo_298059" data-name="Rectángulo 298059" width="2.466" height="2.466" transform="translate(12.142 5.355)" fill="#f0bd51"/>
          <rect id="Rectángulo_298060" data-name="Rectángulo 298060" width="2.466" height="2.466" transform="translate(18.212 5.355)" fill="#f0bd51"/>
          <rect id="Rectángulo_298061" data-name="Rectángulo 298061" width="2.466" height="2.466" transform="translate(24.283 5.355)" fill="#f0bd51"/>
          <rect id="Rectángulo_298062" data-name="Rectángulo 298062" width="2.466" height="2.466" transform="translate(30.467 5.243)" fill="#f0bd51"/>
          <rect id="Rectángulo_298063" data-name="Rectángulo 298063" width="2.466" height="2.466" transform="translate(36.426 5.355)" fill="#f0bd51"/>
          <rect id="Rectángulo_298064" data-name="Rectángulo 298064" width="2.466" height="2.466" transform="translate(0 10.598)" fill="#f0bd51"/>
          <rect id="Rectángulo_298065" data-name="Rectángulo 298065" width="2.466" height="2.466" transform="translate(6.182 10.487)" fill="#f0bd51"/>
          <rect id="Rectángulo_298066" data-name="Rectángulo 298066" width="2.466" height="2.466" transform="translate(12.142 10.598)" fill="#f0bd51"/>
          <rect id="Rectángulo_298067" data-name="Rectángulo 298067" width="2.466" height="2.466" transform="translate(18.212 10.598)" fill="#f0bd51"/>
          <rect id="Rectángulo_298068" data-name="Rectángulo 298068" width="2.466" height="2.466" transform="translate(24.283 10.598)" fill="#f0bd51"/>
          <rect id="Rectángulo_298069" data-name="Rectángulo 298069" width="2.466" height="2.466" transform="translate(30.355 10.598)" fill="#f0bd51"/>
          <rect id="Rectángulo_298070" data-name="Rectángulo 298070" width="2.466" height="2.466" transform="translate(36.426 10.598)" fill="#f0bd51"/>
          <rect id="Rectángulo_298071" data-name="Rectángulo 298071" width="2.466" height="2.466" transform="translate(0 15.843)" fill="#f0bd51"/>
          <rect id="Rectángulo_298072" data-name="Rectángulo 298072" width="2.466" height="2.466" transform="translate(6.071 15.843)" fill="#f0bd51"/>
          <rect id="Rectángulo_298073" data-name="Rectángulo 298073" width="2.466" height="2.466" transform="translate(12.142 15.843)" fill="#f0bd51"/>
          <rect id="Rectángulo_298074" data-name="Rectángulo 298074" width="2.466" height="2.466" transform="translate(18.325 15.729)" fill="#f0bd51"/>
          <rect id="Rectángulo_298075" data-name="Rectángulo 298075" width="2.466" height="2.466" transform="translate(24.283 15.843)" fill="#f0bd51"/>
          <rect id="Rectángulo_298076" data-name="Rectángulo 298076" width="2.466" height="2.466" transform="translate(30.355 15.843)" fill="#f0bd51"/>
          <rect id="Rectángulo_298077" data-name="Rectángulo 298077" width="2.466" height="2.466" transform="translate(36.426 15.843)" fill="#f0bd51"/>
          <rect id="Rectángulo_298078" data-name="Rectángulo 298078" width="2.466" height="2.466" transform="translate(0 21.085)" fill="#f0bd51"/>
          <rect id="Rectángulo_298079" data-name="Rectángulo 298079" width="2.466" height="2.466" transform="translate(6.071 21.085)" fill="#f0bd51"/>
          <rect id="Rectángulo_298080" data-name="Rectángulo 298080" width="2.466" height="2.466" transform="translate(12.142 21.085)" fill="#f0bd51"/>
          <rect id="Rectángulo_298081" data-name="Rectángulo 298081" width="2.466" height="2.466" transform="translate(18.212 21.085)" fill="#f0bd51"/>
          <rect id="Rectángulo_298082" data-name="Rectángulo 298082" width="2.466" height="2.466" transform="translate(24.283 21.085)" fill="#f0bd51"/>
          <rect id="Rectángulo_298083" data-name="Rectángulo 298083" width="2.466" height="2.466" transform="translate(30.467 20.973)" fill="#f0bd51"/>
          <rect id="Rectángulo_298084" data-name="Rectángulo 298084" width="2.466" height="2.466" transform="translate(36.426 21.085)" fill="#f0bd51"/>
        </g>
        <path id="Trazado_600776" data-name="Trazado 600776" d="M39.267,167.9s-5.475,2.217.84,13.839a153.1,153.1,0,0,0,10.628,17.345s1.137,2.706-1.154,3.191-7.38-.193-8.332,2.651c-.988,2.948,1.205,5.649,5.57,7.955s13.742,7.708,14.587,8.2,1.684,1.734.176,2.314-12.876,2.066-11.849,7.418,14.242,9.778,15.678,10.29,1.791,1.1,1.7,1.888-3.964.922-7.18,1.477-6.848,1.762-6,4.8,8.773,9.263,27.65,10.621l8.789.056,4.586-7.542c8.832-16.74,7.738-26.754,5.609-29.084s-5.074.114-7.245,2.551-4.336,5.646-5.051,5.313-1.031-.948-.706-2.437S91.12,213.7,87.121,210s-11.272,5.161-12.561,6.133-1.9-.413-1.871-1.373c.03-.978.4-11.794.755-16.718s-.781-8.213-3.806-8.934c-2.917-.7-5.034,3.981-6.656,5.67s-3.319-.708-3.319-.708a153.029,153.029,0,0,0-9.1-18.194c-6.524-11.505-11.4-7.92-11.4-7.92" transform="translate(-18.944 -85.574)" fill="#ffe3a7"/>
        <path id="Trazado_600777" data-name="Trazado 600777" d="M99.073,273.39C94.315,264.922,86.11,249.728,79,236.72s-13.557-24.771-18.272-33.263l-5.594-10.051-1.519-2.734-.389-.715c-.086-.161-.124-.248-.124-.248s.054.077.149.234l.413.7,1.564,2.709c1.356,2.354,3.293,5.774,5.671,10.009,4.758,8.469,11.233,20.222,18.342,33.226s15.289,28.216,20,36.708" transform="translate(-27.14 -96.963)" fill="#529d2e"/>
        <path id="Trazado_600778" data-name="Trazado 600778" d="M60.108,246.656a2.872,2.872,0,0,1,.617.155c.392.115.954.3,1.646.53,1.384.467,3.278,1.162,5.355,1.965l5.309,2.077,1.612.619a2.9,2.9,0,0,1,.584.251,2.82,2.82,0,0,1-.618-.15c-.392-.116-.954-.3-1.644-.538-1.379-.481-3.264-1.2-5.341-2l-5.322-2.038-1.616-.611a2.817,2.817,0,0,1-.582-.255" transform="translate(-30.722 -126.067)" fill="#529d2e"/>
        <path id="Trazado_600779" data-name="Trazado 600779" d="M92.236,238.482c-.071-.024,1.188-3.993,2.812-8.864s3-8.8,3.071-8.778-1.188,3.992-2.812,8.865-3,8.8-3.071,8.777" transform="translate(-47.141 -112.875)" fill="#529d2e"/>
        <path id="Trazado_600780" data-name="Trazado 600780" d="M112.73,284.254a2.945,2.945,0,0,1,.343-.551l1-1.451c.845-1.225,2.006-2.923,3.217-4.842s2.256-3.692,3-4.981l.881-1.528a2.978,2.978,0,0,1,.351-.546,2.933,2.933,0,0,1-.257.6c-.182.375-.455.914-.806,1.571-.7,1.316-1.718,3.111-2.938,5.034s-2.4,3.61-3.291,4.809c-.446.6-.812,1.078-1.075,1.4a2.939,2.939,0,0,1-.428.488" transform="translate(-57.617 -138.182)" fill="#529d2e"/>
        <path id="Trazado_600781" data-name="Trazado 600781" d="M81.625,295.88a2.566,2.566,0,0,1,.6-.005l1.628.087c1.374.085,3.271.221,5.365.389s3.989.334,5.359.469l1.622.173a2.55,2.55,0,0,1,.592.1,2.566,2.566,0,0,1-.6.005l-1.628-.087c-1.374-.085-3.271-.221-5.366-.389s-3.987-.334-5.358-.469l-1.622-.173a2.55,2.55,0,0,1-.592-.1" transform="translate(-41.72 -151.22)" fill="#529d2e"/>
        <path id="Trazado_600782" data-name="Trazado 600782" d="M95.021,335.136a4.146,4.146,0,0,1,.768,0l2.087.1c1.762.1,4.194.256,6.88.444s5.116.376,6.874.524l2.081.19a4.085,4.085,0,0,1,.761.107,4.211,4.211,0,0,1-.768,0l-2.087-.1c-1.762-.1-4.194-.255-6.881-.444s-5.115-.375-6.874-.524l-2.081-.19a4.138,4.138,0,0,1-.761-.107" transform="translate(-48.566 -171.285)" fill="#e0e0e0"/>
        <path id="Trazado_600783" data-name="Trazado 600783" d="M133.874,318.864a4.747,4.747,0,0,1,.416-.709l1.206-1.885c1.016-1.592,2.412-3.8,3.883-6.274s2.752-4.752,3.665-6.405l1.082-1.958a4.8,4.8,0,0,1,.424-.7,4.713,4.713,0,0,1-.33.753c-.229.477-.571,1.162-1.007,2-.87,1.679-2.122,3.974-3.6,6.454s-2.9,4.674-3.957,6.241c-.531.782-.968,1.41-1.279,1.838a4.749,4.749,0,0,1-.5.65" transform="translate(-68.424 -153.808)" fill="#e0e0e0"/>
        <rect id="Rectángulo_298085" data-name="Rectángulo 298085" width="4.745" height="23.611" transform="matrix(1, -0.005, 0.005, 1, 68.66, 8.83)" fill="#e0e0e0"/>
        <rect id="Rectángulo_298086" data-name="Rectángulo 298086" width="12.288" height="13.035" transform="matrix(1, -0.005, 0.005, 1, 27.553, 8.932)" fill="#ebebeb"/>
        <rect id="Rectángulo_298087" data-name="Rectángulo 298087" width="12.288" height="13.035" transform="matrix(1, -0.005, 0.005, 1, 39.783, 8.866)" fill="#f5f5f5"/>
        <path id="Trazado_600784" data-name="Trazado 600784" d="M56.284,25.224c8.166.067,16.352.02,24.518-.113a.131.131,0,0,0,0-.261c-8.166-.045-16.352,0-24.517.15a.112.112,0,0,0,0,.224" transform="translate(-28.712 -12.692)" fill="#e0e0e0"/>
        <rect id="Rectángulo_298088" data-name="Rectángulo 298088" width="22.325" height="10.623" transform="matrix(1, -0.005, 0.005, 1, 19.892, 21.803)" fill="#ebebeb"/>
        <rect id="Rectángulo_298089" data-name="Rectángulo 298089" width="22.325" height="10.622" transform="matrix(1, -0.005, 0.005, 1, 42.111, 21.684)" fill="#f5f5f5"/>
        <path id="Trazado_600785" data-name="Trazado 600785" d="M40.606,50.094c14.831.168,29.714.017,44.544-.22a.131.131,0,0,0,0-.261c-14.832-.079-29.716-.069-44.544.257a.112.112,0,0,0,0,.224" transform="translate(-20.699 -25.337)" fill="#e0e0e0"/>
        <rect id="Rectángulo_298090" data-name="Rectángulo 298090" width="86.494" height="3.805" transform="translate(11.559 32.425)" fill="#e0e0e0"/>
        <rect id="Rectángulo_298091" data-name="Rectángulo 298091" width="3.511" height="12.985" transform="translate(25.719 34.255)" fill="#e0e0e0"/>
        <rect id="Rectángulo_298092" data-name="Rectángulo 298092" width="3.511" height="12.985" transform="translate(78.135 34.255)" fill="#e0e0e0"/>
        <rect id="Rectángulo_298093" data-name="Rectángulo 298093" width="4.745" height="32.474" transform="matrix(1, -0.005, 0.005, 1, 73.291, 0.025)" fill="#ebebeb"/>
        <rect id="Rectángulo_298094" data-name="Rectángulo 298094" width="7.373" height="26.316" transform="matrix(1, -0.005, 0.005, 1, 78.077, 6.084)" fill="#f5f5f5"/>
        <path id="Trazado_600786" data-name="Trazado 600786" d="M166.975,22.6a26.749,26.749,0,0,1-3.686.128A26.748,26.748,0,0,1,159.6,22.6a26.747,26.747,0,0,1,3.687-.128,26.748,26.748,0,0,1,3.686.128" transform="translate(-81.575 -11.487)" fill="#e0e0e0"/>
        <path id="Trazado_600787" data-name="Trazado 600787" d="M166.975,20.341a26.749,26.749,0,0,1-3.686.128,26.748,26.748,0,0,1-3.687-.128,26.748,26.748,0,0,1,3.687-.128,26.749,26.749,0,0,1,3.686.128" transform="translate(-81.575 -10.331)" fill="#e0e0e0"/>
        <path id="Trazado_600788" data-name="Trazado 600788" d="M166.975,57.961a26.751,26.751,0,0,1-3.686.128,26.751,26.751,0,0,1-3.687-.128,26.747,26.747,0,0,1,3.687-.128,26.748,26.748,0,0,1,3.686.128" transform="translate(-81.575 -29.559)" fill="#e0e0e0"/>
        <path id="Trazado_600789" data-name="Trazado 600789" d="M166.975,55.7a26.748,26.748,0,0,1-3.686.128A26.747,26.747,0,0,1,159.6,55.7a26.748,26.748,0,0,1,3.687-.128,26.749,26.749,0,0,1,3.686.128" transform="translate(-81.575 -28.404)" fill="#e0e0e0"/>
        <path id="Trazado_600790" data-name="Trazado 600790" d="M167.252,38.5c-.07,0-.128-2.655-.128-5.929s.057-5.93.128-5.93.128,2.655.128,5.93-.057,5.929-.128,5.929" transform="translate(-85.419 -13.617)" fill="#e0e0e0"/>
        <rect id="Rectángulo_298095" data-name="Rectángulo 298095" width="8.026" height="19.863" transform="translate(85.481 12.507)" fill="#ebebeb"/>
        <path id="Trazado_600791" data-name="Trazado 600791" d="M154.561,9.914A1.364,1.364,0,1,1,153.2,8.55a1.363,1.363,0,0,1,1.364,1.364" transform="translate(-77.604 -4.37)" fill="#e0e0e0"/>
        <rect id="Rectángulo_298096" data-name="Rectángulo 298096" width="0.843" height="19.318" transform="translate(75.172 9.295)" fill="#e0e0e0"/>
      </g>
    </g>
    <g id="Grupo_878376" data-name="Grupo 878376">
      <g id="Grupo_878375" data-name="Grupo 878375" clip-path="url(#clip-path)">
        <path id="Trazado_600792" data-name="Trazado 600792" d="M546.921,55.582a21.085,21.085,0,1,1-21.084-20.93,21.008,21.008,0,0,1,21.084,20.93" transform="translate(-257.985 -17.711)" fill="#fff"/>
        <path id="Trazado_600793" data-name="Trazado 600793" d="M541.056,72.935a1.177,1.177,0,0,1-.648-1.072l.067-3.814.036-2.037a1.174,1.174,0,0,1,1.514-1.1,3.65,3.65,0,0,0,2.873-.389,3.286,3.286,0,0,0,1.6-2.06,3.364,3.364,0,0,0-.552-2.567,3.751,3.751,0,0,0-2.387-1.642,4.4,4.4,0,0,0-4.655,2.9,1.175,1.175,0,1,1-2.226-.752,6.77,6.77,0,0,1,7.292-4.458,6.062,6.062,0,0,1,3.933,2.656,5.72,5.72,0,0,1,.888,4.386,5.643,5.643,0,0,1-2.707,3.572,6.153,6.153,0,0,1-3.244.846l-.078,4.51a1.176,1.176,0,0,1-1.7,1.03" transform="translate(-274.268 -28.545)" fill="#583cb6"/>
        <path id="Trazado_600794" data-name="Trazado 600794" d="M546.914,94.891a.961.961,0,1,1-.969-.954.961.961,0,0,1,.969.954" transform="translate(-278.552 -48.012)" fill="#583cb6"/>
        <path id="Trazado_600795" data-name="Trazado 600795" d="M501.729,111.177c0,.022.228.021.609.15a2.771,2.771,0,0,1,1.329,1,2.625,2.625,0,0,1,.456,1.054,2.29,2.29,0,0,1-.148,1.292,2.5,2.5,0,0,1-4.695.015,2.291,2.291,0,0,1-.156-1.291,2.625,2.625,0,0,1,.45-1.056,2.773,2.773,0,0,1,1.322-1.012c.38-.131.611-.132.609-.154a.55.55,0,0,0-.165,0,1,1,0,0,0-.2.023,1.6,1.6,0,0,0-.267.061,2.811,2.811,0,0,0-1.908,2.112,2.438,2.438,0,0,0,.149,1.389,2.848,2.848,0,0,0,.953,1.213,2.52,2.52,0,0,0,3.129-.01,2.845,2.845,0,0,0,.945-1.219,2.434,2.434,0,0,0,.141-1.39,2.81,2.81,0,0,0-1.921-2.1,1.581,1.581,0,0,0-.267-.06.989.989,0,0,0-.2-.022.522.522,0,0,0-.165,0" transform="translate(-255.007 -56.821)" fill="#263238"/>
        <path id="Trazado_600796" data-name="Trazado 600796" d="M490.1,125.46c0,.019.143.023.379.108a1.751,1.751,0,0,1,.82.634,1.476,1.476,0,0,1,.184,1.449,1.544,1.544,0,0,1-2.894.009,1.477,1.477,0,0,1,.175-1.45,1.751,1.751,0,0,1,.816-.638c.236-.086.38-.091.378-.11a.819.819,0,0,0-.4.038,1.777,1.777,0,0,0-1.227,1.337,1.564,1.564,0,0,0,.093.893,1.716,1.716,0,0,0,3.226-.01,1.56,1.56,0,0,0,.087-.893,1.776,1.776,0,0,0-1.234-1.33.819.819,0,0,0-.4-.035" transform="translate(-249.577 -64.119)" fill="#263238"/>
        <path id="Trazado_600797" data-name="Trazado 600797" d="M504.961,58.338s0-.116-.021-.341-.045-.563-.08-1q-.027-.329-.061-.734c-.01-.271.005-.568.007-.89s.011-.667.016-1.037a3.634,3.634,0,0,1,.041-.571l.07-.6a20.035,20.035,0,0,1,1.523-5.859,20.914,20.914,0,0,1,4.447-6.641l.8-.8c.286-.251.592-.488.892-.737l.455-.372a4.04,4.04,0,0,1,.475-.357l1-.669c.17-.112.337-.229.511-.338l.546-.291,1.108-.591c.378-.187.782-.33,1.177-.5l.6-.247c.1-.04.2-.086.3-.121l.314-.094a19.5,19.5,0,0,1,2.581-.675c.445-.079.89-.186,1.345-.243l1.384-.124c.232-.016.465-.051.7-.053l.707.008c.473.012.95,0,1.428.03a22.178,22.178,0,0,1,2.881.421l.724.155c.121.027.243.049.363.081l.355.113,1.432.458c.472.176.931.393,1.4.589.231.106.474.19.7.314l.675.371a23.534,23.534,0,0,1,2.636,1.668l1.219,1.012.306.254c.1.091.188.188.283.282l.565.569.567.571.514.623.514.628.258.315c.08.11.152.225.228.338l.911,1.364.779,1.456a20.756,20.756,0,0,1,1.848,13.09q-.174.811-.346,1.616l-.5,1.562-.126.388-.16.374-.321.746-.321.742-.387.706-.385.7-.194.349-.224.33-.891,1.31a23.427,23.427,0,0,1-2.071,2.332l-.546.544c-.181.182-.391.329-.584.5-.4.318-.779.654-1.184.954l-1.249.836-.31.207c-.107.064-.218.118-.327.178l-.653.35a22.229,22.229,0,0,1-2.653,1.2c-.451.161-.913.282-1.365.423l-.677.2c-.226.063-.459.094-.687.143l-1.363.265c-.454.07-.911.09-1.361.138a19.538,19.538,0,0,1-2.667.065l-.328,0c-.109-.006-.217-.022-.325-.033l-.644-.071c-.426-.054-.854-.08-1.269-.155L521.05,75.8l-.606-.129-.585-.183-1.151-.365a4.14,4.14,0,0,1-.554-.212l-.541-.231c-.357-.156-.716-.3-1.06-.462l-.992-.543a20.921,20.921,0,0,1-6.111-5.151c-.187-.23-.376-.451-.551-.676l-.469-.7-.452-.672c-.072-.111-.151-.216-.215-.329l-.183-.339-.69-1.282c-.208-.413-.356-.83-.523-1.212l-.235-.562a3.63,3.63,0,0,1-.2-.537l-.3-.992c-.09-.308-.188-.59-.253-.853s-.1-.507-.144-.723l-.2-.981c-.046-.221-.074-.333-.074-.333s.015.114.055.337l.18.986.135.726c.062.264.156.547.244.857l.295,1a3.658,3.658,0,0,0,.193.541l.231.565c.165.384.311.8.517,1.22l.686,1.292.182.341c.064.113.142.219.214.331l.451.678.468.7c.175.227.364.451.551.682a20.964,20.964,0,0,0,6.129,5.2l1,.549c.347.165.707.309,1.067.468l.544.234a4.1,4.1,0,0,0,.558.215l1.158.371c.2.062.39.128.589.186l.61.131,1.237.266c.418.077.848.1,1.278.159l.649.073c.109.011.218.028.327.034l.33,0a19.68,19.68,0,0,0,2.688-.061c.454-.047.914-.066,1.371-.137l1.375-.264c.23-.048.465-.08.693-.143l.683-.2c.455-.142.922-.263,1.376-.425a22.281,22.281,0,0,0,2.677-1.208l.659-.352c.109-.06.222-.115.329-.179l.313-.209,1.261-.841c.408-.3.794-.64,1.195-.961.2-.167.407-.316.59-.5l.552-.548a23.792,23.792,0,0,0,2.091-2.352l.9-1.321.226-.332.2-.352.39-.709.391-.712.325-.748.323-.753.162-.377.128-.392.5-1.577.35-1.631a20.936,20.936,0,0,0-1.866-13.211l-.788-1.47-.92-1.376c-.077-.113-.151-.23-.231-.341l-.26-.318L542,41.851l-.519-.629-.572-.576-.57-.573c-.1-.094-.188-.192-.286-.284l-.309-.257-1.23-1.02a23.739,23.739,0,0,0-2.661-1.681l-.682-.374c-.226-.126-.471-.21-.705-.317-.474-.2-.938-.416-1.414-.593l-1.445-.46-.358-.114c-.121-.031-.244-.054-.366-.081l-.73-.155a22.3,22.3,0,0,0-2.906-.42c-.482-.03-.964-.017-1.44-.028l-.713-.007c-.236,0-.471.037-.705.054l-1.394.127c-.459.059-.907.167-1.356.248a19.6,19.6,0,0,0-2.6.685l-.316.1c-.1.036-.2.082-.3.123l-.6.25c-.4.172-.8.317-1.184.507l-1.115.6-.549.295c-.175.11-.344.228-.514.341l-1.01.677a4.2,4.2,0,0,0-.477.361l-.458.375c-.3.252-.608.491-.9.745l-.807.8a20.965,20.965,0,0,0-4.45,6.695,19.957,19.957,0,0,0-1.5,5.894c-.023.208-.044.411-.066.607a3.664,3.664,0,0,0-.036.573q0,.557-.007,1.041c0,.322-.011.62,0,.891s.049.516.071.735q.065.653.1,1c.023.225.041.339.041.339" transform="translate(-257.981 -17.522)" fill="#263238"/>
      </g>
    </g>
    <g id="Grupo_878378" data-name="Grupo 878378">
      <g id="Grupo_878377" data-name="Grupo 878377" clip-path="url(#clip-path)">
        <path id="Trazado_600798" data-name="Trazado 600798" d="M331.637,364.019c0,.07-71.889.127-160.547.127-88.689,0-160.562-.057-160.562-.127s71.873-.127,160.562-.127c88.659,0,160.547.057,160.547.127" transform="translate(-5.38 -185.99)" fill="#263238"/>
      </g>
    </g>
    <g id="Grupo_878380" data-name="Grupo 878380">
      <g id="Grupo_878379" data-name="Grupo 878379" clip-path="url(#clip-path)">
        <path id="Trazado_600799" data-name="Trazado 600799" d="M491.745,168.11a14.534,14.534,0,0,0-11.838-10.747,9.211,9.211,0,0,0-6.421-14.654,9.237,9.237,0,0,0-5.433-13.615c-1.669-.47-3.51-.487-4.978-1.41-1.608-1.011-2.414-2.881-3.569-4.39a11,11,0,0,0-13.05-3.14l-3.943,8.243q6.192,19.933,12.382,39.867c1.275,4.105,2.627,8.348,5.5,11.549,3.144,3.507,7.817,5.359,12.493,5.923,4.542.549,9.389-.089,13.15-2.694a14.532,14.532,0,0,0,5.712-14.934" transform="translate(-226.174 -60.918)" fill="#263238"/>
        <path id="Trazado_600800" data-name="Trazado 600800" d="M485.676,159.123a8.2,8.2,0,0,0,2.188-.244,8.107,8.107,0,0,0,2.37-1.055,8.339,8.339,0,0,0,2.416-2.458,7.931,7.931,0,0,0,1.2-4.009,9.427,9.427,0,0,0-1.119-4.723,9.629,9.629,0,0,0-3.834-3.813,11.249,11.249,0,0,0-5.731-1.385l-.209.006.094-.187a9.618,9.618,0,0,0,.566-6.986,9.3,9.3,0,0,0-4.475-5.466,9.034,9.034,0,0,0-1.591-.7,8.492,8.492,0,0,0-1.658-.389,11.533,11.533,0,0,1-3.322-.543,3.211,3.211,0,0,1-1.25-1.083,8.329,8.329,0,0,1-.763-1.4,12.511,12.511,0,0,0-1.441-2.6,11.357,11.357,0,0,0-4.044-3.422,10.975,10.975,0,0,0-4.238-1.135,11.741,11.741,0,0,0-3.319.282,11.23,11.23,0,0,0-2,.669c-.225.09-.386.181-.5.231a1.006,1.006,0,0,1-.174.074,1.03,1.03,0,0,1,.162-.1c.111-.057.268-.156.491-.254a10.382,10.382,0,0,1,2-.719,11.621,11.621,0,0,1,3.35-.328,11.043,11.043,0,0,1,4.31,1.116,11.505,11.505,0,0,1,4.134,3.457,12.7,12.7,0,0,1,1.474,2.636,4.363,4.363,0,0,0,1.91,2.36,11.506,11.506,0,0,0,3.255.514,8.72,8.72,0,0,1,1.7.4,9.246,9.246,0,0,1,1.633.714,9.543,9.543,0,0,1,4.6,5.611,9.851,9.851,0,0,1-.587,7.171l-.115-.18a11.471,11.471,0,0,1,5.854,1.427,9.836,9.836,0,0,1,3.911,3.918,9.6,9.6,0,0,1,1.12,4.833,8.069,8.069,0,0,1-1.257,4.089,8.4,8.4,0,0,1-2.483,2.477,8.045,8.045,0,0,1-2.418,1.034,6.955,6.955,0,0,1-1.639.2l-.427-.023a.7.7,0,0,1-.144-.015" transform="translate(-232.473 -59.994)" fill="#263238"/>
        <path id="Trazado_600801" data-name="Trazado 600801" d="M416.284,319.165a12.116,12.116,0,0,0,2.788-5.3,163.387,163.387,0,0,0,4.612-17.708L417.8,282.452Z" transform="translate(-212.768 -144.365)" fill="#583cb6"/>
        <path id="Trazado_600802" data-name="Trazado 600802" d="M473.714,222.805l-20.233-3.867-37.646,11.5.771,29.5,6.478,30.372h52.4l2.028-37.994Z" transform="translate(-212.539 -111.902)" fill="#583cb6"/>
        <path id="Trazado_600803" data-name="Trazado 600803" d="M534.224,226.729s8.672,1.6,12.27,5.852,38.884,38.687,40.542,48.632l-28.377-2.126L538.021,256.24Z" transform="translate(-273.048 -115.884)" fill="#583cb6"/>
        <path id="Trazado_600804" data-name="Trazado 600804" d="M540.244,258.207a5.388,5.388,0,0,1-.174-.829c-.093-.537-.216-1.317-.322-2.286a51.357,51.357,0,0,1-.314-7.609,39.8,39.8,0,0,1,.378-4.182,24.52,24.52,0,0,1,.738-3.35l.2-.667.221-.582a8.2,8.2,0,0,1,.387-.917,5.393,5.393,0,0,1,.4-.749,5.359,5.359,0,0,1-.306.789c-.115.246-.219.562-.343.926l-.2.583-.183.667a26.866,26.866,0,0,0-.679,3.335c-.177,1.27-.294,2.677-.356,4.158a60.3,60.3,0,0,0,.238,7.581c.084.968.179,1.75.241,2.29a5.327,5.327,0,0,1,.076.843" transform="translate(-275.696 -121.152)" fill="#263238"/>
        <path id="Trazado_600805" data-name="Trazado 600805" d="M419.481,312.408a3.287,3.287,0,0,1,.164.621c.1.454.217,1.027.362,1.711.3,1.5.706,3.47,1.149,5.651.453,2.206.876,4.2,1.2,5.638l.4,1.7a3.069,3.069,0,0,1,.128.63,3.043,3.043,0,0,1-.223-.6c-.128-.394-.291-.969-.476-1.685-.373-1.431-.824-3.421-1.277-5.63s-.824-4.214-1.077-5.669c-.127-.727-.222-1.318-.283-1.726a3.031,3.031,0,0,1-.067-.639" transform="translate(-214.399 -159.676)" fill="#263238"/>
        <path id="Trazado_600806" data-name="Trazado 600806" d="M493.964,289.379a47.517,47.517,0,0,1-1.058-6.863,47.478,47.478,0,0,1,1.058,6.863" transform="translate(-251.923 -144.397)" fill="#fafafa"/>
        <path id="Trazado_600807" data-name="Trazado 600807" d="M455.184,303.006a36.144,36.144,0,0,1,2.288-5.618,36.125,36.125,0,0,1-2.288,5.618" transform="translate(-232.647 -151.999)" fill="#fafafa"/>
        <path id="Trazado_600808" data-name="Trazado 600808" d="M477.642,327.69c-.065.04-.936-1.333-2.2-2.88s-2.428-2.683-2.375-2.738a3.911,3.911,0,0,1,.824.681,21.029,21.029,0,0,1,3.252,3.991,3.911,3.911,0,0,1,.5.945" transform="translate(-241.788 -164.614)" fill="#fafafa"/>
        <path id="Trazado_600809" data-name="Trazado 600809" d="M512.659,316.023a21.926,21.926,0,0,1-3.575,3.077,21.915,21.915,0,0,1,3.575-3.077" transform="translate(-260.198 -161.522)" fill="#fafafa"/>
        <path id="Trazado_600810" data-name="Trazado 600810" d="M436.72,340.992a47.836,47.836,0,0,1-6.272-3.059,47.866,47.866,0,0,1,6.272,3.059" transform="translate(-220.007 -172.719)" fill="#fafafa"/>
        <path id="Trazado_600811" data-name="Trazado 600811" d="M524.478,280.337a14.5,14.5,0,0,1-2.909,2.5,14.512,14.512,0,0,1,2.909-2.5" transform="translate(-266.579 -143.282)" fill="#fafafa"/>
        <path id="Trazado_600812" data-name="Trazado 600812" d="M519.872,244.491a31.464,31.464,0,0,1,1.665-5.41,31.546,31.546,0,0,1-1.665,5.41" transform="translate(-265.708 -122.197)" fill="#fafafa"/>
        <path id="Trazado_600813" data-name="Trazado 600813" d="M475.288,270.869a26.68,26.68,0,0,1-5.2,0,26.667,26.667,0,0,1,5.2,0" transform="translate(-240.267 -138.38)" fill="#fafafa"/>
        <path id="Trazado_600814" data-name="Trazado 600814" d="M427.521,299.8a45.458,45.458,0,0,1,2.7-6.242,45.553,45.553,0,0,1-2.7,6.242" transform="translate(-218.508 -150.041)" fill="#fafafa"/>
        <path id="Trazado_600815" data-name="Trazado 600815" d="M551.49,278.987A25.573,25.573,0,0,1,550.44,274a25.607,25.607,0,0,1,1.05,4.992" transform="translate(-281.329 -140.043)" fill="#fafafa"/>
        <path id="Trazado_600816" data-name="Trazado 600816" d="M559.752,256.28a36.863,36.863,0,0,1-5.834-1.847,36.869,36.869,0,0,1,5.834,1.847" transform="translate(-283.114 -130.04)" fill="#fafafa"/>
        <path id="Trazado_600817" data-name="Trazado 600817" d="M572.68,282.832a17.4,17.4,0,0,1,.632-4.16,17.479,17.479,0,0,1-.632,4.16" transform="translate(-292.691 -142.433)" fill="#fafafa"/>
        <path id="Trazado_600818" data-name="Trazado 600818" d="M597.894,294.653a69.331,69.331,0,0,1-5.62-6.24,69.24,69.24,0,0,1,5.62,6.24" transform="translate(-302.717 -147.411)" fill="#fafafa"/>
        <path id="Trazado_600819" data-name="Trazado 600819" d="M576.184,308.737a52.058,52.058,0,0,1-4.358-5.834,52.17,52.17,0,0,1,4.358,5.834" transform="translate(-292.266 -154.817)" fill="#fafafa"/>
        <path id="Trazado_600820" data-name="Trazado 600820" d="M603.421,316.438c-.039.065-1.243-.609-2.81-1.256s-2.891-1.031-2.873-1.1a14.221,14.221,0,0,1,5.682,2.36" transform="translate(-305.512 -160.524)" fill="#fafafa"/>
        <path id="Trazado_600821" data-name="Trazado 600821" d="M457.918,345.514a26.242,26.242,0,0,1,0-5.159,26.229,26.229,0,0,1,0,5.159" transform="translate(-233.983 -173.96)" fill="#fafafa"/>
        <path id="Trazado_600822" data-name="Trazado 600822" d="M527.892,328.675a17.388,17.388,0,0,1-2.837-3.1,17.355,17.355,0,0,1,2.837,3.1" transform="translate(-268.36 -166.407)" fill="#fafafa"/>
        <path id="Trazado_600823" data-name="Trazado 600823" d="M534.361,298.568a21.269,21.269,0,0,1-.009-4.643,21.259,21.259,0,0,1,.009,4.643" transform="translate(-273.051 -150.229)" fill="#fafafa"/>
        <path id="Trazado_600824" data-name="Trazado 600824" d="M492.159,319.949a29.857,29.857,0,0,1-1.1-5.4,29.863,29.863,0,0,1,1.1,5.4" transform="translate(-250.977 -160.769)" fill="#fafafa"/>
        <path id="Trazado_600825" data-name="Trazado 600825" d="M435.846,318a35.649,35.649,0,0,1-5.154-3.1,35.552,35.552,0,0,1,5.154,3.1" transform="translate(-220.132 -160.946)" fill="#fafafa"/>
        <path id="Trazado_600826" data-name="Trazado 600826" d="M449.8,272.3a4.449,4.449,0,0,1-.242,1.153,18.394,18.394,0,0,1-2.4,5.136,4.48,4.48,0,0,1-.729.925A6.76,6.76,0,0,1,447,278.49c.368-.62.855-1.49,1.321-2.486s.82-1.927,1.06-2.608a6.888,6.888,0,0,1,.414-1.1" transform="translate(-228.171 -139.175)" fill="#fafafa"/>
        <path id="Trazado_600827" data-name="Trazado 600827" d="M505.452,255.576a10.563,10.563,0,0,0-3.606-3.875,6.217,6.217,0,0,1,3.606,3.875" transform="translate(-256.499 -128.645)" fill="#fafafa"/>
        <path id="Trazado_600828" data-name="Trazado 600828" d="M514.166,226.906a12.738,12.738,0,0,1-3.353,1.29,12.741,12.741,0,0,1,3.353-1.29" transform="translate(-261.082 -115.969)" fill="#fafafa"/>
        <path id="Trazado_600829" data-name="Trazado 600829" d="M455.295,166.13s6.844-4.862,3.655-15.328c-1.586-5.2-5.685-13.007-9.246-19.283-3.205-5.649-10.591-11.115-18.342-7.309,0,0-17.541,7.016-12.035,20.362l16.157,35.916a11.78,11.78,0,0,0,21.812-8.864Z" transform="translate(-213.776 -62.838)" fill="#eb996e"/>
        <path id="Trazado_600830" data-name="Trazado 600830" d="M481.484,160.836a1.385,1.385,0,0,1-.589,1.842,1.325,1.325,0,0,1-1.831-.5,1.386,1.386,0,0,1,.588-1.842,1.327,1.327,0,0,1,1.833.5" transform="translate(-244.778 -81.859)" fill="#263238"/>
        <path id="Trazado_600831" data-name="Trazado 600831" d="M479.754,153.975c-.075.238-1.36,0-2.7.655-1.347.637-2,1.805-2.221,1.712-.107-.038-.092-.408.184-.928a3.8,3.8,0,0,1,1.679-1.571,3.651,3.651,0,0,1,2.246-.319c.567.115.849.341.809.451" transform="translate(-242.663 -78.438)" fill="#263238"/>
        <path id="Trazado_600832" data-name="Trazado 600832" d="M455.6,172.749a1.386,1.386,0,0,1-.589,1.842,1.326,1.326,0,0,1-1.831-.5,1.386,1.386,0,0,1,.588-1.842,1.327,1.327,0,0,1,1.833.5" transform="translate(-231.547 -87.948)" fill="#263238"/>
        <path id="Trazado_600833" data-name="Trazado 600833" d="M454.508,166.684c-.076.238-1.361,0-2.7.656-1.346.637-1.995,1.805-2.22,1.712-.107-.038-.094-.407.184-.928a3.8,3.8,0,0,1,1.679-1.572,3.654,3.654,0,0,1,2.246-.319c.565.116.849.342.809.451" transform="translate(-229.759 -84.934)" fill="#263238"/>
        <path id="Trazado_600834" data-name="Trazado 600834" d="M471.086,170.636a9.855,9.855,0,0,1,1.986-1.453c.325-.2.616-.428.56-.689-.039-.287-.363-.586-.723-.9l-2.282-2.113c-3.213-3.027-5.717-5.583-5.594-5.712s2.827,2.221,6.041,5.248q1.175,1.126,2.246,2.15a2.2,2.2,0,0,1,.832,1.257.957.957,0,0,1-.319.775,2.585,2.585,0,0,1-.542.364,9.7,9.7,0,0,1-2.206,1.078" transform="translate(-237.682 -81.655)" fill="#263238"/>
        <path id="Trazado_600835" data-name="Trazado 600835" d="M478.648,211.278a27.485,27.485,0,0,1-14.7,2.865s6.406,5.486,15.686-.157Z" transform="translate(-237.129 -107.987)" fill="#eb7741"/>
        <path id="Trazado_600836" data-name="Trazado 600836" d="M475.744,190.048a1.312,1.312,0,0,0-2.166-1.131,1.164,1.164,0,0,0-1.232-.724,1.668,1.668,0,0,0-1.207.877,2.286,2.286,0,0,0,.492,2.728,2.5,2.5,0,0,0,2.795.29,2.768,2.768,0,0,0,1.382-2.486" transform="translate(-240.675 -96.184)" fill="#eb7741"/>
        <path id="Trazado_600837" data-name="Trazado 600837" d="M474.568,193.135c-.22.1-.821-1.4-2.532-1.956s-3.247.245-3.343.04c-.058-.086.241-.434.91-.722a4.03,4.03,0,0,1,2.756-.118,3.506,3.506,0,0,1,2.027,1.678c.307.606.288,1.045.181,1.078" transform="translate(-239.551 -97.209)" fill="#263238"/>
        <path id="Trazado_600838" data-name="Trazado 600838" d="M445.483,161.814c-.066-.426,1.331-.975,2.762-2,1.452-1,2.442-2.127,2.821-1.92.175.1.143.555-.168,1.174a5.931,5.931,0,0,1-4.253,2.988c-.687.083-1.124-.041-1.162-.24" transform="translate(-227.69 -80.688)" fill="#263238"/>
        <path id="Trazado_600839" data-name="Trazado 600839" d="M471.143,149.283c.076-.421,1.149-.586,2.251-1.143,1.122-.519,1.916-1.258,2.294-1.055.174.1.184.481-.072.976a3.655,3.655,0,0,1-3.662,1.771c-.548-.106-.836-.349-.811-.549" transform="translate(-240.806 -75.159)" fill="#263238"/>
        <path id="Trazado_600840" data-name="Trazado 600840" d="M410.986,176.56a10.171,10.171,0,0,1-1.647-3.613c-.19-1.314.22-2.644.16-3.97-.15-3.339-3.082-5.756-5.56-8s-4.9-5.524-3.715-8.649c1.147-3.019,5.169-4.245,6.152-7.322.8-2.519-.768-5.314-.065-7.864.8-2.9,4.088-4.24,6.054-6.517,2.438-2.824,4.182-7.37,1.928-10.343l-1.58-.406c-.968-1.623-3.234-2.083-5.031-1.495a10.552,10.552,0,0,0-4.441,3.41,21.328,21.328,0,0,1-3.97,4.022c-2.682,1.8-6.628,2.333-7.817,5.337-.991,2.5.543,5.642-.914,7.9-1.176,1.825-3.779,2.193-5.17,3.859a5.359,5.359,0,0,0-.807,4.729,15.846,15.846,0,0,0,2.206,4.442c-3.905,1.489-7.975,3.089-10.724,6.238s-3.634,8.349-.789,11.411c1.267,1.363,3.314,2.8,2.631,4.527a4.243,4.243,0,0,1-1.43,1.55,12.019,12.019,0,1,0,17.891,15.537c-.5,2.165,1.164,4.377,3.23,5.193a11.485,11.485,0,0,0,6.567.087,14.1,14.1,0,0,0,6.807-3.045,10.6,10.6,0,0,0,3.027-8.394,19.39,19.39,0,0,0-3-8.627" transform="translate(-190.178 -60.381)" fill="#263238"/>
        <path id="Trazado_600841" data-name="Trazado 600841" d="M442.144,131.584c.922,2.108-1.386,6.683-3.075,8.246s-3.757,2.961-4.454,5.153c-1.063,3.345,1.547,7.073.392,10.387-.814,2.335-3.391,4.057-3.264,6.527.155,3,4.1,4.353,5.163,7.167.905,2.4.251,4.73,1.139,7.137a14.9,14.9,0,0,0,2.84,4.225c2.3,2.611,3.979,6.1,3.372,9.633-.846,4.926-2.727,9.16-5.829,10.73l-10.365-13.765-.808-21.985-.646-11,4-2.936,1.5-10.835Z" transform="translate(-218.045 -67.254)" fill="#263238"/>
        <path id="Trazado_600842" data-name="Trazado 600842" d="M391.76,193.007l-14.108,45.4s-6.16,26.372,7.893,25.795,11.742-7.757,11.742-7.757l.141-54.227s2.575-4.573,2.554-8.085c-.024-3.916.917-15.131.917-15.131s3.531-10.189,2.3-10.641c-2.349-.862-6.3,10.372-6.3,10.372s1.123,2.116-.8,7.891-4.34,6.38-4.34,6.38" transform="translate(-192.335 -86.029)" fill="#eb996e"/>
        <path id="Trazado_600843" data-name="Trazado 600843" d="M419.333,122.524a.937.937,0,0,1,.121.137,2.578,2.578,0,0,1,.295.45,5.9,5.9,0,0,1,.535,1.989,9.921,9.921,0,0,1-.157,3.257A8.01,8.01,0,0,1,417.85,132c-1.116,1.155-2.526,2.215-3.768,3.608a8.744,8.744,0,0,0-1.555,2.4c-.393.91-.672,1.907-1.129,2.877a5.76,5.76,0,0,1-.882,1.371,5.472,5.472,0,0,1-1.3,1.052c-.955.587-2.028.978-2.946,1.642a10.277,10.277,0,0,0-3.708,5.807,34.676,34.676,0,0,0-.912,7.018,25.1,25.1,0,0,1-1.087,6.551,10.608,10.608,0,0,1-3.388,4.927,6.909,6.909,0,0,1-2.458,1.209,11.6,11.6,0,0,1-2.506.285,11.5,11.5,0,0,0-2.245.243,4.483,4.483,0,0,0-1.794.844,2.773,2.773,0,0,0-.93,1.425c-.148.516-.207,1.012-.317,1.449a2.38,2.38,0,0,1-1.146,1.667,1.166,1.166,0,0,1-.525.122.834.834,0,0,1-.182-.022,1.36,1.36,0,0,0,.684-.146,2.346,2.346,0,0,0,1.074-1.644c.1-.432.152-.927.3-1.46a2.891,2.891,0,0,1,.955-1.5,4.607,4.607,0,0,1,1.845-.892,11.539,11.539,0,0,1,2.276-.266,11.5,11.5,0,0,0,2.464-.3,6.722,6.722,0,0,0,2.379-1.187,10.418,10.418,0,0,0,3.3-4.837,25.048,25.048,0,0,0,1.059-6.49,34.6,34.6,0,0,1,.916-7.07,13.312,13.312,0,0,1,1.418-3.345,8.641,8.641,0,0,1,2.391-2.6c.954-.685,2.034-1.075,2.963-1.645a5.222,5.222,0,0,0,1.244-1,5.519,5.519,0,0,0,.85-1.314c.448-.942.731-1.937,1.135-2.864a8.939,8.939,0,0,1,1.6-2.456c1.27-1.409,2.686-2.458,3.8-3.595a11.5,11.5,0,0,0,1.444-1.736,5.431,5.431,0,0,0,.824-1.817,10.016,10.016,0,0,0,.2-3.214,6.13,6.13,0,0,0-.483-1.978,5.881,5.881,0,0,0-.37-.609" transform="translate(-196.817 -62.623)" fill="#455a64"/>
        <path id="Trazado_600844" data-name="Trazado 600844" d="M427.522,122.524s.025.03.063.1l.163.3a2.179,2.179,0,0,1,.056,1.295c-.289,1.135-1.454,2.381-2.964,3.69-.758.656-1.578,1.4-2.521,2.114a18.6,18.6,0,0,0-2.794,2.485,6.5,6.5,0,0,0-1.051,1.695,12.176,12.176,0,0,0-.575,2.023,11.519,11.519,0,0,1-.625,2.135,5.021,5.021,0,0,1-1.4,1.83,7.787,7.787,0,0,1-1.987,1.152c-.692.3-1.391.535-2.072.773s-1.349.474-1.973.765a7.2,7.2,0,0,0-1.713,1.034,5.81,5.81,0,0,0-1.89,3.11c-.317,1.128-.485,2.22-.748,3.2a5.88,5.88,0,0,1-2.682,3.837,2.808,2.808,0,0,1-1.258.321,2.4,2.4,0,0,1-.337-.024.376.376,0,0,1-.113-.02c0-.013.157,0,.449-.007a2.888,2.888,0,0,0,1.214-.357,5.844,5.844,0,0,0,2.553-3.794c.25-.968.407-2.058.72-3.208a6,6,0,0,1,1.943-3.233,7.4,7.4,0,0,1,1.761-1.075c.636-.3,1.31-.536,1.991-.779s1.376-.478,2.056-.771a7.562,7.562,0,0,0,1.925-1.116,4.774,4.774,0,0,0,1.333-1.736,11.378,11.378,0,0,0,.614-2.087,12.332,12.332,0,0,1,.594-2.062,6.7,6.7,0,0,1,1.1-1.753,18.5,18.5,0,0,1,2.844-2.5c.945-.7,1.764-1.433,2.532-2.083,1.521-1.287,2.681-2.5,2.987-3.58a2.2,2.2,0,0,0-.009-1.25l-.138-.3a.441.441,0,0,1-.04-.109" transform="translate(-205.006 -62.623)" fill="#455a64"/>
        <path id="Trazado_600845" data-name="Trazado 600845" d="M433.365,177.072a2.016,2.016,0,0,1,0,.582,4.273,4.273,0,0,1-.535,1.578,6.894,6.894,0,0,1-1.742,1.978,9.909,9.909,0,0,0-2.251,2.6,11.559,11.559,0,0,0-1.146,8.681,10.981,10.981,0,0,0,.393,1.22,9.623,9.623,0,0,0,.529,1.2c.4.79.884,1.562,1.372,2.352a12.506,12.506,0,0,1,2.183,5.323,5.348,5.348,0,0,1-.515,2.9,8.84,8.84,0,0,1-1.725,2.282c-.659.663-1.351,1.261-1.985,1.884a22.474,22.474,0,0,0-1.759,1.922,15.4,15.4,0,0,0-2.445,4.12,10.139,10.139,0,0,0-.718,4.089,9.225,9.225,0,0,0,.778,3.343,7.775,7.775,0,0,0,1.429,2.168,7.57,7.57,0,0,0,1.756,1.363.639.639,0,0,1-.134-.06l-.385-.2c-.164-.1-.357-.233-.588-.391a7.316,7.316,0,0,1-.72-.641,7.72,7.72,0,0,1-1.487-2.178,9.287,9.287,0,0,1-.828-3.393,10.273,10.273,0,0,1,.7-4.173A15.516,15.516,0,0,1,426,211.425a22.49,22.49,0,0,1,1.771-1.949c.639-.632,1.328-1.23,1.978-1.886a8.608,8.608,0,0,0,1.675-2.218,5.1,5.1,0,0,0,.489-2.768,8.667,8.667,0,0,0-.776-2.753,22.534,22.534,0,0,0-1.365-2.461c-.485-.791-.969-1.569-1.377-2.373a9.912,9.912,0,0,1-.536-1.225,11.183,11.183,0,0,1-.4-1.246,11.7,11.7,0,0,1,1.219-8.833A9.963,9.963,0,0,1,431,181.1a6.924,6.924,0,0,0,1.747-1.916,4.446,4.446,0,0,0,.57-1.537c.056-.373.033-.575.047-.575" transform="translate(-216.114 -90.504)" fill="#455a64"/>
        <path id="Trazado_600846" data-name="Trazado 600846" d="M395.829,377.842l43.259-3.653-37.217-10.865-39.779,1.013Z" transform="translate(-185.07 -185.699)" fill="#fff"/>
        <path id="Trazado_600847" data-name="Trazado 600847" d="M395.281,377.709s-.211-.073-.617-.23l-1.8-.7-6.833-2.7-24.53-9.769-.484-.193.521-.013,39.779-1.034h.02l.02.005,2.9.847,34.312,10.032.587.171-.609.05-31.3,2.6-8.834.714-2.333.18-.6.042c-.134.008-.2.008-.2.008s.069-.012.2-.026l.6-.06,2.337-.214,8.836-.778,31.271-2.687-.023.222L404.189,364.16l-2.9-.847.039.005-39.779.993.037-.206,24.477,9.847,6.817,2.761,1.791.733c.4.168.612.263.612.263" transform="translate(-184.522 -185.566)" fill="#263238"/>
        <path id="Trazado_600848" data-name="Trazado 600848" d="M482.278,374.49l41.614-3.072-39.685-7.507H446.595Z" transform="translate(-228.26 -185.999)" fill="#e0e0e0"/>
        <path id="Trazado_600849" data-name="Trazado 600849" d="M481.5,374.357s-.223-.054-.653-.176l-1.9-.548-7.233-2.113-25.925-7.638-.718-.211h.749l37.612-.019h.012l.012,0,3.576.676,36.107,6.845.846.16-.859.062-30.135,2.178-8.481.595-2.238.148-.573.034c-.129.006-.194.005-.194.005s.066-.011.2-.023l.575-.051,2.241-.182,8.482-.657,30.112-2.269-.013.222-36.113-6.816L483.4,363.9l.023,0-37.612-.019.031-.212,25.883,7.721,7.221,2.172,1.9.58c.429.132.65.21.65.21" transform="translate(-227.478 -185.867)" fill="#263238"/>
        <path id="Trazado_600850" data-name="Trazado 600850" d="M480.46,367.7s.975-9.041,8.478-8.3,17.459,5.78,25.642,5.78l8.786-.683-18.734-3.857s-46.5-9.821-46.5-9.512-15.638-3.458-15.081,5.811Z" transform="translate(-226.442 -179.209)" fill="#fff"/>
        <path id="Trazado_600851" data-name="Trazado 600851" d="M480.351,367.578s-.226-.058-.673-.182l-1.984-.559-7.568-2.149-27.213-7.768-.073-.021,0-.075a6.264,6.264,0,0,1,.34-2.58,4.755,4.755,0,0,1,1.6-2.129,10.011,10.011,0,0,1,5.189-1.655,29.486,29.486,0,0,1,5.688.17c.966.094,1.912.289,2.893.311.971.161,1.94.351,2.919.539,7.82,1.537,16.1,3.268,24.687,5.054l19.377,4.066,17.749,3.664.794.164-.808.062-8.787.676h-.008a35.469,35.469,0,0,1-8.462-1.3c-2.632-.686-5.085-1.47-7.4-2.176s-4.478-1.345-6.515-1.791c-1.018-.222-2-.4-2.95-.507a7.979,7.979,0,0,0-2.7.069,6.5,6.5,0,0,0-3.777,2.414,10.738,10.738,0,0,0-1.613,2.97,14.564,14.564,0,0,0-.575,2.024c-.049.233-.08.411-.1.53s-.033.18-.033.18a6.341,6.341,0,0,1,.1-.717,13.575,13.575,0,0,1,.547-2.04,10.7,10.7,0,0,1,1.6-3.007,6.6,6.6,0,0,1,3.826-2.476,8.1,8.1,0,0,1,2.739-.085c.954.108,1.944.278,2.967.5,2.047.439,4.221,1.07,6.535,1.771s4.768,1.475,7.394,2.153a35.4,35.4,0,0,0,8.413,1.279h-.008l8.785-.69-.014.226-17.754-3.645-19.378-4.06c-8.583-1.786-16.867-3.521-24.682-5.064-.977-.189-1.948-.38-2.91-.54l-.358-.051-.082-.007h-.012v0a.23.23,0,0,1-.01-.1c-.04-.031.2,0,.082.043a.151.151,0,0,1-.075.069l-.045.01a1.157,1.157,0,0,1-.212,0c-.25-.023-.489-.058-.731-.089l-1.438-.182a29.326,29.326,0,0,0-5.642-.176,9.8,9.8,0,0,0-5.073,1.6,4.537,4.537,0,0,0-1.533,2.029,6.065,6.065,0,0,0-.331,2.491l-.077-.1,27.111,7.857,7.578,2.208,2,.587c.453.135.691.21.691.21" transform="translate(-226.333 -179.088)" fill="#263238"/>
        <path id="Trazado_600852" data-name="Trazado 600852" d="M433.949,372.341H412.035a.472.472,0,0,1-.472-.473v-1.092a.472.472,0,0,1,.472-.473h21.914a.473.473,0,0,1,.473.473v1.092a.473.473,0,0,1-.473.473" transform="translate(-210.355 -189.267)" fill="#263238"/>
        <path id="Trazado_600853" data-name="Trazado 600853" d="M410.458,372.5h-1.545a.212.212,0,0,1-.212-.212v-.49a.212.212,0,0,1,.212-.212h1.545a.212.212,0,0,1,.212.212v.49a.212.212,0,0,1-.212.212" transform="translate(-208.892 -189.924)" fill="#263238"/>
        <path id="Trazado_600854" data-name="Trazado 600854" d="M456.613,370.34l2.745.708v.292l-2.745,1Z" transform="translate(-233.381 -189.286)" fill="#263238"/>
        <path id="Trazado_600855" data-name="Trazado 600855" d="M411.5,370.77a.061.061,0,0,1-.061-.061v-.264a1.477,1.477,0,0,1,1.58-1.342h7.041a.061.061,0,1,1,0,.122h-7.041a1.357,1.357,0,0,0-1.457,1.22v.264a.061.061,0,0,1-.061.061" transform="translate(-210.29 -188.653)" fill="#263238"/>
        <path id="Trazado_600856" data-name="Trazado 600856" d="M432.973,384.556c.785,0,28.6-2.183,28.6-2.183" transform="translate(-221.298 -195.436)" fill="#fff"/>
        <path id="Trazado_600857" data-name="Trazado 600857" d="M461.575,382.366a1.277,1.277,0,0,1-.289.048l-.832.087-3.063.274-10.113.809-10.117.735-3.066.194-.833.04a1.237,1.237,0,0,1-.291,0,1.311,1.311,0,0,1,.291-.048l.833-.087,3.064-.274,10.109-.809,10.111-.734,3.067-.194.836-.04a1.246,1.246,0,0,1,.292,0" transform="translate(-221.298 -195.428)" fill="#263238"/>
        <path id="Trazado_600858" data-name="Trazado 600858" d="M423.579,380.692c.785,0,28.6-2.183,28.6-2.183" transform="translate(-216.496 -193.461)" fill="#fff"/>
        <path id="Trazado_600859" data-name="Trazado 600859" d="M452.181,378.5a1.277,1.277,0,0,1-.289.048l-.832.088-3.063.274-10.113.809-10.117.735-3.066.194-.833.04a.147.147,0,1,1,0-.051l.833-.088,3.064-.274,10.109-.809,10.111-.734,3.067-.194.835-.04a1.254,1.254,0,0,1,.292,0" transform="translate(-216.496 -193.453)" fill="#263238"/>
        <path id="Trazado_600860" data-name="Trazado 600860" d="M542.077,327.5l-28.183,4.624s-14.734-2.8-16.611-2.479c-3.673.638-12.518,8.637-12.518,8.637-.585,3.74,4.559,1.6,4.559,1.6s.04.85,1.466,1.581c1.241.636,3.707-.547,3.707-.547s-.628.829,1.344,1.655,4.616-.623,4.616-.623a2.36,2.36,0,0,0,2.422,1.518c1.918-.013,6.74-1.494,6.74-1.494,6.569,3.61,10.365.738,10.365.738l22.739,1.944,19.843-1.01s4.6-9.2-4.274-19.612Z" transform="translate(-247.746 -165.617)" fill="#eb996e"/>
        <path id="Trazado_600861" data-name="Trazado 600861" d="M508.529,343.1a3.242,3.242,0,0,1-.654.056l-1.785.059-2.649.054a4.667,4.667,0,0,0-1.506.143,2.314,2.314,0,0,0-.682.378l-.652.548c-1.762,1.478-3.366,2.806-4.535,3.757l-1.393,1.116a3.221,3.221,0,0,1-.533.382,3.259,3.259,0,0,1,.47-.459l1.341-1.179c1.141-.987,2.728-2.337,4.49-3.816l.653-.547a2.532,2.532,0,0,1,.758-.417,2.569,2.569,0,0,1,.822-.141h3.414l1.784.022a3.278,3.278,0,0,1,.655.043" transform="translate(-252.561 -175.33)" fill="#eb7741"/>
        <path id="Trazado_600862" data-name="Trazado 600862" d="M515.827,348.481a1.651,1.651,0,0,1-.444.1c-.289.051-.708.117-1.23.194-1.043.154-2.493.352-4.117.558l.064-.027-.355.282c-1.366,1.081-2.612,2.049-3.521,2.74-.455.345-.825.621-1.085.807a1.85,1.85,0,0,1-.419.268,1.906,1.906,0,0,1,.358-.347c.241-.21.595-.507,1.034-.871.88-.727,2.108-1.716,3.473-2.8l.355-.281.029-.023.035,0c1.626-.2,3.079-.37,4.128-.478.524-.055.947-.094,1.24-.116a1.649,1.649,0,0,1,.456-.009" transform="translate(-257.968 -178.108)" fill="#eb7741"/>
        <path id="Trazado_600863" data-name="Trazado 600863" d="M526.365,354.458a8.732,8.732,0,0,1-1.479.222c-.917.105-2.186.233-3.589.358l.054-.018-.015.009c-1.219.718-2.33,1.355-3.14,1.805a8.753,8.753,0,0,1-1.337.683,8.746,8.746,0,0,1,1.247-.838c.786-.49,1.881-1.151,3.1-1.869l.016-.009.025-.015.029,0c1.4-.125,2.675-.224,3.6-.283a8.74,8.74,0,0,1,1.5-.043" transform="translate(-264.172 -181.159)" fill="#eb7741"/>
      </g>
    </g>
    <g id="Grupo_878382" data-name="Grupo 878382">
      <g id="Grupo_878381" data-name="Grupo 878381" clip-path="url(#clip-path)">
        <path id="Trazado_600864" data-name="Trazado 600864" d="M157.3,117.428c-17.978-3.086-19.648,13.173-19.528,17.838s1.714,8.8,3.357,13.167.6,10.327-.783,14.784c-1.619,5.217-6.771,10-4.929,15.146,1.446,4.04,6.782,6.019,7.436,10.259.518,3.356-2.185,6.275-3.183,9.522-1.882,6.12,2.431,12.258,6.484,17.216,1.674,2.047,3.7,4.273,6.343,4.309,3.652.05,5.822-3.907,7.471-7.166A62.267,62.267,0,0,1,179.6,189.8" transform="translate(-69.012 -59.821)" fill="#263238"/>
        <path id="Trazado_600865" data-name="Trazado 600865" d="M150.068,166.369a3.332,3.332,0,0,1-1.109.4,7.587,7.587,0,0,1-5.528-.876,3.362,3.362,0,0,1-.93-.725c.027-.035.385.235,1.019.568a8.553,8.553,0,0,0,5.4.857c.7-.12,1.129-.266,1.144-.225" transform="translate(-72.833 -84.419)" fill="#455a64"/>
        <path id="Trazado_600866" data-name="Trazado 600866" d="M143.879,210.484a9.157,9.157,0,0,1-1.006-1.355,13.245,13.245,0,0,1-1.242-11.055,16.965,16.965,0,0,1,1.817-3.609c.751-1.182,1.6-2.352,2.384-3.6a19.7,19.7,0,0,0,3.025-11.328,21.2,21.2,0,0,0-.355-3.133,19.423,19.423,0,0,0-1.4-4.346c-.2-.5-.425-.861-.546-1.12a2.834,2.834,0,0,1-.185-.4,2.748,2.748,0,0,1,.23.371,12.009,12.009,0,0,1,.59,1.1,18.355,18.355,0,0,1,1.483,4.352,20.856,20.856,0,0,1,.39,3.16A19.674,19.674,0,0,1,146.048,191c-.79,1.258-1.641,2.426-2.389,3.6a16.9,16.9,0,0,0-1.805,3.552,12.928,12.928,0,0,0-.468,6.663,13.363,13.363,0,0,0,1.573,4.264c.553.929.947,1.386.921,1.406" transform="translate(-72.039 -87.168)" fill="#455a64"/>
        <path id="Trazado_600867" data-name="Trazado 600867" d="M264.317,215.932s9.013,0,15.149,13.147c4.552,9.753,17.529,42.956,15.481,52.286-.459,2.091-1.768,6.743-5.112,6.806-5.694.109-9.68-.207-9.68-.207l-7.282-16.84-7.025-24.033s-11.316-28.884-1.531-31.16" transform="translate(-133.059 -110.366)" fill="#ef8b53"/>
        <path id="Trazado_600868" data-name="Trazado 600868" d="M226.367,286.561l-2.258-15.229L215.1,215.054l-11.2-.839-21.06,4.183s-12.429,2.013-18.8,6.564c0,0,1.892,30.809,2,34.016.235,7.017,4.6,13.305,9,18.877l1.156,1.468-.6,8.831Z" transform="translate(-83.838 -109.488)" fill="#ef8b53"/>
        <path id="Trazado_600869" data-name="Trazado 600869" d="M126.841,227.27s-8.86,1.926-14.558,9.287c-4.6,5.941-26.045,32.4-26.045,32.4S75.214,275.13,73.166,281.5s.031,12.016,4.81,12.016,17.133-3.272,17.133-3.272l24.005-27.488.544,4.735,5.494-24.024Z" transform="translate(-36.994 -116.161)" fill="#ef8b53"/>
        <path id="Trazado_600870" data-name="Trazado 600870" d="M266.792,265.618a1.455,1.455,0,0,1,.1.295l.25.857.9,3.155c.772,2.661,1.872,6.329,3.11,10.372l3.193,10.35c.4,1.3.724,2.367.961,3.139l.25.857a1.46,1.46,0,0,1,.071.3,1.426,1.426,0,0,1-.12-.288l-.3-.842-1.038-3.115c-.862-2.635-2.027-6.284-3.265-10.33s-2.312-7.722-3.04-10.4c-.361-1.339-.649-2.423-.827-3.178-.084-.356-.151-.645-.2-.87a1.451,1.451,0,0,1-.054-.307" transform="translate(-136.36 -135.761)" fill="#263238"/>
        <path id="Trazado_600871" data-name="Trazado 600871" d="M234.112,323.842a3.038,3.038,0,0,1-.62.145,7.13,7.13,0,0,1-.739.112c-.289.03-.619.08-.986.089a16.967,16.967,0,0,1-2.578-.045,17.641,17.641,0,0,1-6.061-1.7,16.964,16.964,0,0,1-2.227-1.3c-.309-.2-.565-.412-.8-.589a6.916,6.916,0,0,1-.573-.479,3.015,3.015,0,0,1-.455-.445c.033-.039.7.57,1.924,1.364a18.957,18.957,0,0,0,2.228,1.237,18.727,18.727,0,0,0,5.984,1.674,18.876,18.876,0,0,0,2.547.1c1.453-.045,2.344-.217,2.353-.167" transform="translate(-111.972 -163.368)" fill="#263238"/>
        <path id="Trazado_600872" data-name="Trazado 600872" d="M169.471,267.716a1.192,1.192,0,0,1-.05.279c-.05.207-.113.467-.19.786-.088.339-.193.756-.293,1.244s-.24,1.038-.345,1.657c-.244,1.23-.464,2.707-.64,4.354a48.808,48.808,0,0,0,.09,10.756c.2,1.644.449,3.118.713,4.343.115.617.261,1.165.373,1.651s.22.9.314,1.239c.083.318.15.577.2.783a1.211,1.211,0,0,1,.054.278,1.193,1.193,0,0,1-.1-.263l-.249-.771c-.109-.334-.234-.746-.356-1.231s-.284-1.031-.41-1.648c-.288-1.225-.553-2.7-.77-4.353a45.946,45.946,0,0,1-.09-10.81c.189-1.654.43-3.135.7-4.365.116-.618.265-1.168.383-1.654s.233-.9.336-1.237l.236-.774a1.206,1.206,0,0,1,.1-.265" transform="translate(-85.584 -136.833)" fill="#263238"/>
        <path id="Trazado_600873" data-name="Trazado 600873" d="M266.039,220.178c.024.045-.753.378-1.812,1.2a10.613,10.613,0,0,0-4.1,9.158c.09,1.34.359,2.141.31,2.153a2.256,2.256,0,0,1-.2-.555,9.164,9.164,0,0,1-.291-1.583,10.273,10.273,0,0,1,4.167-9.316,9.1,9.1,0,0,1,1.375-.838,2.292,2.292,0,0,1,.547-.222" transform="translate(-132.838 -112.535)" fill="#263238"/>
        <path id="Trazado_600874" data-name="Trazado 600874" d="M218.241,278.325a2.814,2.814,0,0,1-.253.493,4.292,4.292,0,0,1-1.074,1.17,6.049,6.049,0,0,1-2.275,1.067,8,8,0,0,1-3.327.066,19.93,19.93,0,0,1-3.862-1.173,33.648,33.648,0,0,0-4.343-1.51,10.171,10.171,0,0,0-2.444-.3,8.963,8.963,0,0,0-2.526.415,17.914,17.914,0,0,0-4.779,2.553,54.446,54.446,0,0,1-4.55,3.071,11.513,11.513,0,0,1-4.851,1.617,7.647,7.647,0,0,1-2.392-.226,10.645,10.645,0,0,1-2.1-.828,38.6,38.6,0,0,1-3.427-2.125,12.26,12.26,0,0,0-5.279-2.255,6.739,6.739,0,0,0-2.112.113.549.549,0,0,1,.133-.044c.09-.022.222-.068.4-.1a5.722,5.722,0,0,1,1.587-.068,12.1,12.1,0,0,1,5.367,2.2,39.8,39.8,0,0,0,3.425,2.088,10.528,10.528,0,0,0,2.064.8,7.44,7.44,0,0,0,2.321.209,11.323,11.323,0,0,0,4.744-1.6c1.539-.858,2.984-1.984,4.527-3.062a18.052,18.052,0,0,1,4.85-2.582,9.161,9.161,0,0,1,2.6-.42,10.375,10.375,0,0,1,2.5.313,33.168,33.168,0,0,1,4.365,1.542,20.054,20.054,0,0,0,3.815,1.192,7.92,7.92,0,0,0,3.263-.027,6.057,6.057,0,0,0,2.249-1.008,4.488,4.488,0,0,0,1.09-1.12c.2-.3.283-.471.3-.464" transform="translate(-86.196 -142.036)" fill="#263238"/>
        <path id="Trazado_600875" data-name="Trazado 600875" d="M288.084,264.15a.689.689,0,0,1-.1.192,3.6,3.6,0,0,1-.354.506,5.315,5.315,0,0,1-1.807,1.368,8.478,8.478,0,0,1-3.275.768,20.4,20.4,0,0,1-4.095-.378,26.072,26.072,0,0,0-4.045-.467,9.2,9.2,0,0,0-3.244.537,5.873,5.873,0,0,0-1.9,1.139c-.387.359-.555.6-.578.586-.007-.005.032-.068.113-.183a3.794,3.794,0,0,1,.4-.475,5.554,5.554,0,0,1,1.9-1.235,9.043,9.043,0,0,1,3.309-.6,24.689,24.689,0,0,1,4.087.449,21.242,21.242,0,0,0,4.045.4,8.563,8.563,0,0,0,3.207-.7,5.577,5.577,0,0,0,1.809-1.27c.356-.39.5-.649.526-.634" transform="translate(-137.331 -135.01)" fill="#263238"/>
        <path id="Trazado_600876" data-name="Trazado 600876" d="M296.277,288.817a.71.71,0,0,1-.081.2,4.96,4.96,0,0,1-.294.559,8,8,0,0,1-1.456,1.809,9.261,9.261,0,0,1-1.265,1,9.989,9.989,0,0,1-1.646.847,8.8,8.8,0,0,1-4.179.538,37.794,37.794,0,0,1-4.127-.825,13.367,13.367,0,0,0-3.371-.384,6.713,6.713,0,0,0-2.235.426c-.5.2-.76.362-.772.341s.056-.053.177-.132a3.927,3.927,0,0,1,.557-.3,6.313,6.313,0,0,1,2.265-.515,12.913,12.913,0,0,1,3.428.334,41.309,41.309,0,0,0,4.1.8,8.729,8.729,0,0,0,4.069-.5,10.093,10.093,0,0,0,1.617-.806,9.627,9.627,0,0,0,1.257-.952,8.757,8.757,0,0,0,1.494-1.73c.3-.451.436-.723.459-.711" transform="translate(-141.502 -147.618)" fill="#263238"/>
        <path id="Trazado_600877" data-name="Trazado 600877" d="M171.537,310.884a4.483,4.483,0,0,0,1.91-1.019,23.877,23.877,0,0,0,1.8-1.835,12.432,12.432,0,0,1,2.685-2.135,10.644,10.644,0,0,1,3.918-1.38,8.739,8.739,0,0,1,2.33-.008,9.548,9.548,0,0,1,2.377.667c1.567.634,3.063,1.584,4.717,2.317a9.6,9.6,0,0,0,2.619.78,6.638,6.638,0,0,0,1.391.037,7.9,7.9,0,0,0,1.388-.267,30.083,30.083,0,0,0,5.055-2.425,25.678,25.678,0,0,1,4.907-1.926,27.659,27.659,0,0,1,8.838-.99,26.543,26.543,0,0,1,5.921.984c.685.187,1.2.377,1.552.507l.4.148a.6.6,0,0,1,.132.059.592.592,0,0,1-.141-.034l-.405-.124c-.355-.114-.876-.288-1.562-.46a27.611,27.611,0,0,0-14.669.136,25.718,25.718,0,0,0-4.857,1.922,29.831,29.831,0,0,1-5.1,2.448,8.1,8.1,0,0,1-1.436.276,6.881,6.881,0,0,1-1.445-.039,9.81,9.81,0,0,1-2.687-.8c-1.677-.748-3.166-1.7-4.706-2.328a9.382,9.382,0,0,0-2.319-.663,8.554,8.554,0,0,0-2.271,0,10.528,10.528,0,0,0-3.856,1.326,12.446,12.446,0,0,0-2.673,2.078,22.453,22.453,0,0,1-1.844,1.812,4.534,4.534,0,0,1-1.416.819,2.193,2.193,0,0,1-.557.124" transform="translate(-87.674 -154.695)" fill="#263238"/>
        <path id="Trazado_600878" data-name="Trazado 600878" d="M141.562,295.156a1.68,1.68,0,0,0-.8-.419,3.166,3.166,0,0,0-1.075.019c-.421.061-.9.178-1.438.253a4.112,4.112,0,0,1-1.788-.162,5.447,5.447,0,0,1-1.785-1.024,8.042,8.042,0,0,1-1.5-1.7,12.948,12.948,0,0,1-1.092-2.167,39.973,39.973,0,0,0-1.79-4.271,6.921,6.921,0,0,0-2.522-2.7,5.106,5.106,0,0,0-1.316-.557,4.023,4.023,0,0,0-1.074-.111c-.6.03-.913.161-.921.13a.87.87,0,0,1,.227-.09,2.834,2.834,0,0,1,.688-.138,3.9,3.9,0,0,1,1.112.071,5.1,5.1,0,0,1,1.374.54,6.985,6.985,0,0,1,2.636,2.74,37.148,37.148,0,0,1,1.82,4.289,13,13,0,0,0,1.065,2.127,7.937,7.937,0,0,0,1.439,1.663,5.3,5.3,0,0,0,1.7,1,3.971,3.971,0,0,0,1.7.183,7.658,7.658,0,0,1,2.555-.19,1.405,1.405,0,0,1,.627.325.737.737,0,0,1,.154.192" transform="translate(-63.615 -144.236)" fill="#263238"/>
        <path id="Trazado_600879" data-name="Trazado 600879" d="M154.077,270.974c0,.008-.052.034-.162.076a2.683,2.683,0,0,1-.493.137,3.964,3.964,0,0,1-1.871-.149,6.6,6.6,0,0,1-2.4-1.411,18.2,18.2,0,0,1-2.205-2.586,14.332,14.332,0,0,0-2.228-2.494,6.008,6.008,0,0,0-2.4-1.209,3.849,3.849,0,0,0-1.81,0c-.419.112-.632.237-.645.211,0-.007.047-.041.149-.1a2.569,2.569,0,0,1,.468-.207,3.7,3.7,0,0,1,1.875-.079,6,6,0,0,1,2.512,1.2,13.823,13.823,0,0,1,2.284,2.523,19.259,19.259,0,0,0,2.16,2.566,6.658,6.658,0,0,0,2.3,1.414,4.148,4.148,0,0,0,1.8.222c.431-.052.66-.142.669-.115" transform="translate(-71.484 -134.464)" fill="#263238"/>
        <path id="Trazado_600880" data-name="Trazado 600880" d="M184.292,126.047c-5.68-12.816-22.37-5.2-22.37-5.2-7.87,2.89-8.984,11.743-7.167,17.781,2.019,6.709,4.749,14.821,7.341,19.424,5.211,9.257,13.215,7.712,13.215,7.712l2.675,6.588a11.185,11.185,0,0,0,20.817-8.187Z" transform="translate(-78.711 -60.618)" fill="#ffbe9d"/>
        <path id="Trazado_600881" data-name="Trazado 600881" d="M164.95,171.212a1.346,1.346,0,0,0,1.689.821,1.287,1.287,0,0,0,.879-1.62,1.347,1.347,0,0,0-1.688-.823,1.288,1.288,0,0,0-.879,1.621" transform="translate(-84.276 -86.647)" fill="#263238"/>
        <path id="Trazado_600882" data-name="Trazado 600882" d="M162.56,166.923c.218.107.911-.955,2.27-1.455,1.35-.519,2.605-.19,2.691-.411.045-.1-.224-.338-.775-.493a3.693,3.693,0,0,0-2.23.126,3.544,3.544,0,0,0-1.73,1.364c-.3.475-.33.825-.225.87" transform="translate(-83.059 -84.051)" fill="#263238"/>
        <path id="Trazado_600883" data-name="Trazado 600883" d="M190.942,162.882a1.346,1.346,0,0,0,1.689.821,1.286,1.286,0,0,0,.878-1.62,1.346,1.346,0,0,0-1.688-.823,1.288,1.288,0,0,0-.879,1.621" transform="translate(-97.561 -82.39)" fill="#263238"/>
        <path id="Trazado_600884" data-name="Trazado 600884" d="M189.862,156.794c.218.106.912-.956,2.27-1.455,1.35-.519,2.606-.19,2.691-.411.045-.1-.222-.339-.775-.493a3.687,3.687,0,0,0-2.229.125,3.548,3.548,0,0,0-1.731,1.364c-.3.475-.329.825-.225.87" transform="translate(-97.013 -78.874)" fill="#263238"/>
        <path id="Trazado_600885" data-name="Trazado 600885" d="M184.046,171.719a9.566,9.566,0,0,0-2.353.42c-.36.093-.713.146-.859-.069a1.883,1.883,0,0,1-.15-1.114q.022-1.44.046-3.019c.029-4.286-.087-7.759-.259-7.758s-.337,3.475-.366,7.761c0,1.054,0,2.059,0,3.02a2.139,2.139,0,0,0,.325,1.427.928.928,0,0,0,.758.3,2.508,2.508,0,0,0,.619-.136,9.417,9.417,0,0,0,2.236-.826" transform="translate(-92.054 -81.87)" fill="#263238"/>
        <path id="Trazado_600886" data-name="Trazado 600886" d="M197.591,206.286a26.689,26.689,0,0,0,11.869-8.4s-.782,7.974-10.968,10.706Z" transform="translate(-100.991 -101.141)" fill="#eb996e"/>
        <path id="Trazado_600887" data-name="Trazado 600887" d="M192.377,188.745a1.274,1.274,0,0,1,.658-2.28,1.13,1.13,0,0,1,.319-1.351,1.619,1.619,0,0,1,1.425-.26,2.221,2.221,0,0,1,1.586,2.175,2.431,2.431,0,0,1-1.671,2.157,2.688,2.688,0,0,1-2.673-.7" transform="translate(-98.073 -94.451)" fill="#eb996e"/>
        <path id="Trazado_600888" data-name="Trazado 600888" d="M193.921,182.668c-.225.069.318,1.544-.555,3.057s-2.5,1.934-2.437,2.144c.014.1.456.156,1.125-.072a3.91,3.91,0,0,0,2.065-1.706,3.4,3.4,0,0,0,.371-2.528c-.172-.637-.472-.941-.57-.9" transform="translate(-97.585 -93.362)" fill="#263238"/>
        <path id="Trazado_600889" data-name="Trazado 600889" d="M185.651,152.951c.271.319,1.561-.358,3.225-.757,1.656-.432,3.113-.442,3.2-.852.036-.193-.317-.457-.969-.622a5.757,5.757,0,0,0-4.9,1.226c-.5.453-.684.852-.562,1.006" transform="translate(-94.87 -76.967)" fill="#263238"/>
        <path id="Trazado_600890" data-name="Trazado 600890" d="M158.694,158.1c.353.219,1.169-.447,2.288-.88,1.1-.471,2.154-.563,2.253-.967.038-.192-.227-.445-.751-.583a3.548,3.548,0,0,0-3.659,1.488c-.28.464-.293.83-.132.942" transform="translate(-81.057 -79.525)" fill="#263238"/>
        <path id="Trazado_600891" data-name="Trazado 600891" d="M201.121,166.118a.3.3,0,1,1-.295-.318.306.306,0,0,1,.295.318" transform="translate(-102.486 -84.742)" fill="#263238"/>
        <path id="Trazado_600892" data-name="Trazado 600892" d="M210.508,161.342c0-.024-.989-10.436-9.023-17.615s2.855-9.962-4.135-19.441a30,30,0,0,0-8.179-8.018,12.253,12.253,0,0,1-1.646-1.242,51.348,51.348,0,0,0-4.035-3.665,6.97,6.97,0,0,0-3.805-1.389,11.078,11.078,0,0,0-2.559-.721c-3.922-.59-7.81.986-11.463,2.528-3.536,1.493-13.038,1.132-10.03,10.85h0a3.212,3.212,0,0,1,4.963-1.366,5.832,5.832,0,0,1,2.323,3.791c.424,2.264,1.09,4.772,3.831,5.354a4.786,4.786,0,0,0,2.032-.03c2.289-.513,4.128-3.976,8.5-3.152,0,0,4.253,1.32,4.5,3.993s-1.233,7.641,1.387,10.006,3.061,2.3,2.988,4.34c-.017.467-.02.793-.044,1.025-.334,3.234-.89,17.284,13.442,14.894l4.819-.294,6.131.151h0" transform="translate(-79.25 -55.775)" fill="#263238"/>
        <path id="Trazado_600893" data-name="Trazado 600893" d="M206.944,102.722a14.539,14.539,0,0,1,4.266-7.8,10.21,10.21,0,0,1,8.324-2.645,7.9,7.9,0,0,1,6.37,5.67,6.474,6.474,0,0,1-3.7,7.4c-2.133.806-4.5.279-6.782.224s-4.949.678-5.751,2.813" transform="translate(-105.772 -47.106)" fill="#263238"/>
        <path id="Trazado_600894" data-name="Trazado 600894" d="M215.221,111.915a1.72,1.72,0,0,0-1.119-1.292,16.539,16.539,0,0,0-1.727-.479,4.878,4.878,0,0,1-2.182-1.384c-.488-.539-.85-1.182-1.33-1.729A2.6,2.6,0,0,0,207,106.02a1.7,1.7,0,0,0-1.516,2.464,38.032,38.032,0,0,0,5.791,4.239,4.578,4.578,0,0,0,2.342.744c.829-.047,1.681-.725,1.6-1.551" transform="translate(-104.937 -54.188)" fill="#ef8b53"/>
        <path id="Trazado_600895" data-name="Trazado 600895" d="M260.922,185.844a2.4,2.4,0,0,1,.032-.405c.038-.264.064-.654.094-1.157a14.593,14.593,0,0,0-.456-4.22,14.076,14.076,0,0,0-2.839-5.568,24.917,24.917,0,0,0-6.032-4.794,29.319,29.319,0,0,1-6.191-4.719,11.227,11.227,0,0,1-1.929-2.816,8.317,8.317,0,0,1-.762-2.876,6.815,6.815,0,0,1,.891-4.159,5,5,0,0,1,.724-.918,2.427,2.427,0,0,1,.3-.271,8.473,8.473,0,0,0-.943,1.24,6.851,6.851,0,0,0-.8,4.092,8.237,8.237,0,0,0,.774,2.8,11.123,11.123,0,0,0,1.911,2.748,29.7,29.7,0,0,0,6.155,4.663,24.721,24.721,0,0,1,6.075,4.858,14.293,14.293,0,0,1,3.213,9.943,11.611,11.611,0,0,1-.143,1.158,2.425,2.425,0,0,1-.083.4" transform="translate(-124.102 -78.681)" fill="#263238"/>
        <path id="Trazado_600896" data-name="Trazado 600896" d="M184.351,119.011a2.4,2.4,0,0,1-.167.367c-.112.24-.3.584-.549,1.017a20.241,20.241,0,0,1-2.52,3.42,21.17,21.17,0,0,1-4.875,3.988,17.261,17.261,0,0,1-3.381,1.584,8.078,8.078,0,0,1-3.992.37,4.948,4.948,0,0,1-1.9-.809,6.012,6.012,0,0,1-1.4-1.423,31.7,31.7,0,0,1-1.84-3.241,12.263,12.263,0,0,0-.919-1.445,6.749,6.749,0,0,0-1.113-1.15,7.112,7.112,0,0,0-2.572-1.268,7.275,7.275,0,0,0-4.138.109,11.342,11.342,0,0,0-1.412.63,2.348,2.348,0,0,1,.334-.226,2.854,2.854,0,0,1,.43-.235,4.329,4.329,0,0,1,.616-.263,7.352,7.352,0,0,1,6.873,1.087,6.914,6.914,0,0,1,1.161,1.18,12.4,12.4,0,0,1,.945,1.467,32.525,32.525,0,0,0,1.836,3.21,5.81,5.81,0,0,0,1.345,1.362,4.714,4.714,0,0,0,1.8.766,7.87,7.87,0,0,0,3.866-.358,17.263,17.263,0,0,0,3.338-1.549,21.477,21.477,0,0,0,4.862-3.908,21.812,21.812,0,0,0,2.569-3.349c.265-.423.462-.759.588-.99a2.422,2.422,0,0,1,.212-.343" transform="translate(-78.495 -60.828)" fill="#455a64"/>
        <path id="Trazado_600897" data-name="Trazado 600897" d="M209.234,121.008a3.506,3.506,0,0,1,.1.679c.021.22.018.491.027.806-.017.313-.018.674-.076,1.066a10.931,10.931,0,0,1-2.425,5.625,10.417,10.417,0,0,1-2.56,2.248,17.793,17.793,0,0,1-2.491,1.222c-.725.306-1.306.559-1.7.748a4.587,4.587,0,0,1-.621.284,2.873,2.873,0,0,1,.576-.372c.384-.218.959-.5,1.674-.825a19.742,19.742,0,0,0,2.44-1.256,10.576,10.576,0,0,0,2.488-2.211,11.262,11.262,0,0,0,2.443-5.488,17.149,17.149,0,0,0,.126-2.527" transform="translate(-101.959 -61.849)" fill="#455a64"/>
        <path id="Trazado_600898" data-name="Trazado 600898" d="M233.955,178.058a2.576,2.576,0,0,1,0-.415c.015-.271.037-.67.022-1.185a17.093,17.093,0,0,0-.617-4.293,19.027,19.027,0,0,0-1.061-2.8,17.223,17.223,0,0,0-1.811-2.917,16.1,16.1,0,0,0-2.652-2.705c-1.029-.826-2.19-1.567-3.287-2.466a11.47,11.47,0,0,1-1.513-1.464,7.669,7.669,0,0,1-1.1-1.734,12.667,12.667,0,0,1-.94-3.733c-.144-1.217-.2-2.375-.317-3.451a14.587,14.587,0,0,0-.571-2.937,7.481,7.481,0,0,0-2.24-3.632,6.964,6.964,0,0,0-1.367-.808,2.5,2.5,0,0,1,.394.134,4.824,4.824,0,0,1,1.034.6,7.418,7.418,0,0,1,2.351,3.655,14.524,14.524,0,0,1,.61,2.97c.122,1.081.191,2.239.339,3.445a12.562,12.562,0,0,0,.933,3.657,8.661,8.661,0,0,0,2.545,3.106c1.081.886,2.242,1.629,3.282,2.468a16.172,16.172,0,0,1,2.682,2.756,17.169,17.169,0,0,1,1.815,2.969,18.69,18.69,0,0,1,1.045,2.845,16.269,16.269,0,0,1,.543,4.341,10.412,10.412,0,0,1-.07,1.188,2.522,2.522,0,0,1-.055.411" transform="translate(-110.659 -73.352)" fill="#455a64"/>
        <path id="Trazado_600899" data-name="Trazado 600899" d="M230.21,98.991A9.081,9.081,0,0,0,227.881,98a8.531,8.531,0,0,0-5.914.8,11.8,11.8,0,0,0-4.322,4.236,17.8,17.8,0,0,0-.895,1.636,4.088,4.088,0,0,1-.312.613,3.149,3.149,0,0,1,.222-.653,13.218,13.218,0,0,1,.831-1.689,11.426,11.426,0,0,1,4.356-4.368,8.444,8.444,0,0,1,6.079-.75,6.332,6.332,0,0,1,1.732.749,3.914,3.914,0,0,1,.419.3c.092.072.138.113.133.12" transform="translate(-110.623 -49.865)" fill="#455a64"/>
        <path id="Trazado_600900" data-name="Trazado 600900" d="M231.132,110.841c-.026.039-.579-.374-1.587-.8a9.2,9.2,0,0,0-8.214.455c-.954.539-1.458,1.011-1.488.974a1.572,1.572,0,0,1,.335-.349,7.6,7.6,0,0,1,1.061-.781,8.793,8.793,0,0,1,8.379-.464,7.547,7.547,0,0,1,1.141.66,1.576,1.576,0,0,1,.372.309" transform="translate(-112.364 -55.725)" fill="#455a64"/>
        <path id="Trazado_600901" data-name="Trazado 600901" d="M132.692,378.7l-43.259-3.652,37.217-10.866,39.151.063Z" transform="translate(-45.71 -186.137)" fill="#fff"/>
        <path id="Trazado_600902" data-name="Trazado 600902" d="M132.044,378.566s.2-.1.6-.28l1.757-.784,6.689-2.952,24.02-10.538.043.2L126,364.175l.036-.005-3.311.967-33.909,9.886-.022-.222,31.265,2.687,8.839.778,2.339.215.6.06c.135.015.2.026.2.026s-.067,0-.2-.008l-.6-.042-2.334-.18-8.837-.714-31.3-2.6-.61-.051.588-.172,33.9-9.912,3.311-.967.018-.005H126l39.151.083h.512l-.469.2L141.118,374.67l-6.706,2.9-1.763.753c-.4.168-.606.247-.606.247" transform="translate(-45.062 -186.004)" fill="#263238"/>
        <path id="Trazado_600903" data-name="Trazado 600903" d="M45.927,375.347,4.314,372.275,44,364.768H81.611Z" transform="translate(-2.205 -186.438)" fill="#e0e0e0"/>
        <path id="Trazado_600904" data-name="Trazado 600904" d="M45.021,375.214s.22-.077.65-.21l1.9-.58,7.221-2.172,25.883-7.721.031.212-37.612.019.024,0-3.576.677L3.429,372.252l-.013-.222L33.528,374.3l8.482.657,2.241.182.576.051c.129.013.2.023.2.023s-.065,0-.194-.005l-.573-.034-2.238-.148-8.481-.595L3.4,372.254l-.859-.062.846-.16,36.107-6.845,3.576-.676.012,0h.012l37.612.019h.748l-.718.211L54.81,372.377l-7.233,2.113-1.9.548c-.43.122-.653.177-.653.177" transform="translate(-1.299 -186.305)" fill="#263238"/>
        <path id="Trazado_600905" data-name="Trazado 600905" d="M44.577,368.557s-.975-9.041-8.478-8.3-17.459,5.78-25.642,5.78l-8.786-.683L20.405,361.5s46.5-9.821,46.5-9.512,15.638-3.458,15.081,5.811Z" transform="translate(-0.854 -179.648)" fill="#fff"/>
        <path id="Trazado_600906" data-name="Trazado 600906" d="M43.723,368.435s.238-.076.691-.21l2-.586,7.578-2.208L81.1,357.573l-.077.1a6.064,6.064,0,0,0-.331-2.491,4.538,4.538,0,0,0-1.532-2.029,9.806,9.806,0,0,0-5.074-1.6,29.325,29.325,0,0,0-5.642.176l-1.438.182c-.242.031-.481.066-.731.089a1.162,1.162,0,0,1-.212,0l-.045-.01a.151.151,0,0,1-.075-.069c-.012-.056-.035-.07.01.022.072.055.064.029.061.036H66l-.082.007-.358.052c-.963.16-1.933.351-2.91.54-7.815,1.543-16.1,3.278-24.682,5.064L18.594,361.7.84,365.345l-.014-.226,8.785.69H9.6a35.373,35.373,0,0,0,8.413-1.278c2.626-.678,5.08-1.454,7.394-2.153s4.488-1.332,6.534-1.771c1.023-.219,2.013-.389,2.967-.5a8.1,8.1,0,0,1,2.739.085,6.6,6.6,0,0,1,3.826,2.476,10.7,10.7,0,0,1,1.6,3.007,13.577,13.577,0,0,1,.547,2.04,6.346,6.346,0,0,1,.1.717s-.012-.062-.032-.18-.051-.3-.1-.53a14.57,14.57,0,0,0-.575-2.024,10.738,10.738,0,0,0-1.613-2.969,6.505,6.505,0,0,0-3.777-2.414,7.978,7.978,0,0,0-2.7-.069c-.947.111-1.932.285-2.95.507-2.037.445-4.205,1.083-6.515,1.791s-4.765,1.489-7.4,2.176a35.471,35.471,0,0,1-8.462,1.3H9.595l-8.787-.676L0,365.285l.794-.164,17.749-3.664,19.377-4.066c8.584-1.786,16.868-3.517,24.687-5.054.979-.188,1.948-.378,2.919-.539.981-.022,1.927-.218,2.893-.311a29.485,29.485,0,0,1,5.687-.17,10.011,10.011,0,0,1,5.19,1.655,4.754,4.754,0,0,1,1.6,2.129,6.266,6.266,0,0,1,.34,2.58l0,.075-.073.021-27.213,7.768-7.567,2.149-1.984.559c-.447.125-.673.182-.673.182" transform="translate(0 -179.526)" fill="#263238"/>
        <path id="Trazado_600907" data-name="Trazado 600907" d="M146.141,385.413c-.785,0-28.6-2.183-28.6-2.183" transform="translate(-60.076 -195.874)" fill="#fff"/>
        <path id="Trazado_600908" data-name="Trazado 600908" d="M117.539,383.223a1.247,1.247,0,0,1,.292,0l.836.04,3.067.194,10.111.734,10.109.809,3.064.274.833.087a1.273,1.273,0,0,1,.291.048,1.237,1.237,0,0,1-.291,0l-.833-.04-3.066-.194-10.117-.735-10.113-.809-3.063-.274-.832-.088a1.276,1.276,0,0,1-.288-.048" transform="translate(-60.076 -195.866)" fill="#263238"/>
        <path id="Trazado_600909" data-name="Trazado 600909" d="M155.535,381.549c-.785,0-28.6-2.183-28.6-2.183" transform="translate(-64.877 -193.899)" fill="#fff"/>
        <path id="Trazado_600910" data-name="Trazado 600910" d="M126.934,379.358a1.242,1.242,0,0,1,.292,0l.835.04,3.067.194,10.111.734,10.109.809,3.064.274.833.088a.147.147,0,1,1,0,.051l-.833-.04-3.066-.193-10.117-.735-10.112-.809-3.063-.274-.832-.087a1.261,1.261,0,0,1-.288-.048" transform="translate(-64.878 -193.891)" fill="#263238"/>
        <path id="Trazado_600911" data-name="Trazado 600911" d="M169.068,377.548c-.785,0-29.925-1.739-29.925-1.739" transform="translate(-71.118 -192.081)" fill="#fff"/>
        <path id="Trazado_600912" data-name="Trazado 600912" d="M139.144,375.8a1.376,1.376,0,0,1,.306-.008l.873.026,3.208.146,10.579.577,10.578.652,3.206.226.872.075a1.347,1.347,0,0,1,.3.043,1.39,1.39,0,0,1-.3.008l-.872-.027-3.207-.146L154.1,376.8l-10.58-.652-3.205-.227-.87-.074a1.381,1.381,0,0,1-.3-.044" transform="translate(-71.118 -192.071)" fill="#263238"/>
        <path id="Trazado_600913" data-name="Trazado 600913" d="M181.579,373.345c-.785,0-30.226-1.091-30.226-1.091" transform="translate(-77.358 -190.264)" fill="#fff"/>
        <path id="Trazado_600914" data-name="Trazado 600914" d="M151.354,372.238a1.407,1.407,0,0,1,.308-.015l.881.008,3.24.077,10.686.349,10.686.423,3.238.157.88.056a1.433,1.433,0,0,1,.307.037,1.381,1.381,0,0,1-.307.015l-.881-.008-3.239-.077-10.69-.349-10.686-.423-3.238-.157-.88-.056a1.406,1.406,0,0,1-.306-.037" transform="translate(-77.359 -190.248)" fill="#263238"/>
        <path id="Trazado_600915" data-name="Trazado 600915" d="M193.41,368.818c-.785,0-29.846-.121-29.846-.121" transform="translate(-83.6 -188.446)" fill="#fff"/>
        <path id="Trazado_600916" data-name="Trazado 600916" d="M163.565,368.613c0-.07,6.682-.1,14.923-.066s14.924.117,14.923.188-6.681.1-14.924.067-14.922-.117-14.922-.188" transform="translate(-83.6 -188.362)" fill="#263238"/>
        <path id="Trazado_600917" data-name="Trazado 600917" d="M75.222,364.422a2.376,2.376,0,0,1,.586-.175,8.431,8.431,0,0,1,1.657-.192,9.38,9.38,0,0,1,8.816,5.6,8.438,8.438,0,0,1,.531,1.581,2.4,2.4,0,0,1,.091.6,18.278,18.278,0,0,0-.786-2.11,9.585,9.585,0,0,0-8.652-5.492,18.039,18.039,0,0,0-2.243.186" transform="translate(-38.447 -186.071)" fill="#263238"/>
        <path id="Trazado_600918" data-name="Trazado 600918" d="M84.574,361.948a2.382,2.382,0,0,1,.586-.175,8.431,8.431,0,0,1,1.657-.192,9.38,9.38,0,0,1,8.816,5.6,8.437,8.437,0,0,1,.531,1.581,2.4,2.4,0,0,1,.091.6,18.257,18.257,0,0,0-.786-2.109,9.585,9.585,0,0,0-8.652-5.493,18.169,18.169,0,0,0-2.243.186" transform="translate(-43.227 -184.807)" fill="#263238"/>
        <path id="Trazado_600919" data-name="Trazado 600919" d="M94.26,360.11a2.485,2.485,0,0,1,.575-.18,10.471,10.471,0,0,1,1.623-.262,9.183,9.183,0,0,1,2.442.114,7.659,7.659,0,0,1,2.784,1.112A9.537,9.537,0,0,1,105.168,365a8.453,8.453,0,0,1,.521,1.56,2.394,2.394,0,0,1,.089.6,18.689,18.689,0,0,0-.773-2.082,9.85,9.85,0,0,0-3.458-3.97,8.383,8.383,0,0,0-5.076-1.259c-1.37.076-2.2.312-2.21.262" transform="translate(-48.177 -183.813)" fill="#263238"/>
        <path id="Trazado_600920" data-name="Trazado 600920" d="M104.592,357.912a2.374,2.374,0,0,1,.554-.181,11.453,11.453,0,0,1,1.563-.3,7.589,7.589,0,0,1,2.369.072,7.055,7.055,0,0,1,2.662,1.161,9.537,9.537,0,0,1,3.309,4.036,8.511,8.511,0,0,1,.5,1.514,2.242,2.242,0,0,1,.084.578,19.92,19.92,0,0,0-.744-2.018,9.886,9.886,0,0,0-3.289-3.9,7.055,7.055,0,0,0-2.565-1.141,7.856,7.856,0,0,0-2.3-.123c-1.321.123-2.125.349-2.135.3" transform="translate(-53.458 -182.658)" fill="#263238"/>
        <path id="Trazado_600921" data-name="Trazado 600921" d="M115.224,356.052a2.357,2.357,0,0,1,.527-.184c.344-.1.841-.247,1.472-.382a5.855,5.855,0,0,1,2.272-.086,6.241,6.241,0,0,1,2.513,1.2,9.515,9.515,0,0,1,3.087,3.935,8.571,8.571,0,0,1,.464,1.453,2.128,2.128,0,0,1,.077.554c-.048.012-.178-.778-.706-1.934a9.923,9.923,0,0,0-3.074-3.8,6.213,6.213,0,0,0-2.406-1.169,5.959,5.959,0,0,0-2.194.033c-1.25.236-2.023.433-2.032.389" transform="translate(-58.892 -181.61)" fill="#263238"/>
        <path id="Trazado_600922" data-name="Trazado 600922" d="M110.36,328.451a18.3,18.3,0,0,0,4-.176A3.824,3.824,0,0,1,117.9,329.7a3.164,3.164,0,0,1,0,2.906,9.344,9.344,0,0,1-1.82,2.4" transform="translate(-56.406 -167.782)" fill="#ffbe9d"/>
        <path id="Trazado_600923" data-name="Trazado 600923" d="M105.191,321.7,84.446,295.124a.473.473,0,0,0-.663-.082l-1.69,1.319a.473.473,0,0,0-.082.663L102.756,323.6a.473.473,0,0,0,.663.082l1.69-1.319a.472.472,0,0,0,.082-.663" transform="translate(-41.866 -150.749)" fill="#263238"/>
        <path id="Trazado_600924" data-name="Trazado 600924" d="M83.277,294.352,81.7,292.334a.212.212,0,0,0-.3-.037l-.758.592a.212.212,0,0,0-.037.3l1.576,2.019a.212.212,0,0,0,.3.037l.758-.592a.212.212,0,0,0,.037-.3" transform="translate(-41.177 -149.374)" fill="#263238"/>
        <path id="Trazado_600925" data-name="Trazado 600925" d="M123.595,350.926l3.408,2.62.35-.273-1-3.607Z" transform="translate(-63.171 -178.719)" fill="#263238"/>
        <path id="Trazado_600926" data-name="Trazado 600926" d="M89.057,308.164a.063.063,0,0,1-.048-.023l-6.569-8.414a2.209,2.209,0,0,1,.126-3.1l.316-.246a.061.061,0,0,1,.086.011.062.062,0,0,1-.011.086l-.315.245a2.088,2.088,0,0,0-.1,2.925l6.569,8.414a.062.062,0,0,1-.011.086.064.064,0,0,1-.038.013" transform="translate(-41.847 -151.479)" fill="#263238"/>
        <path id="Trazado_600927" data-name="Trazado 600927" d="M92.247,321.552s-2.133-1.813-3.733-1.6-6.932,5.973-7.146,9.386-1.6,5.439.854,6.826,6.292,3.627,8.852,2.88c0,0,4.513.514,5.022-.694,0,0,3.962,1.267,4.257-1.439,0,0,2.84-.448,2.666-2.185s-10.772-13.173-10.772-13.173" transform="translate(-41.29 -163.523)" fill="#ffbe9d"/>
        <path id="Trazado_600928" data-name="Trazado 600928" d="M109.459,343.7c-.049.05-2.519-2.256-5.517-5.151s-5.389-5.284-5.341-5.334,2.519,2.255,5.518,5.151,5.389,5.283,5.34,5.334" transform="translate(-50.396 -170.307)" fill="#eb996e"/>
        <path id="Trazado_600929" data-name="Trazado 600929" d="M101.86,349.489a1.85,1.85,0,0,1-.462-.18,12.029,12.029,0,0,1-1.193-.631,25.988,25.988,0,0,1-3.593-2.62c-1.321-1.129-2.452-2.219-3.265-3.01l-.955-.947a1.887,1.887,0,0,1-.328-.371,1.841,1.841,0,0,1,.4.3c.244.2.588.508,1.011.888.846.758,1.994,1.825,3.307,2.948a33.126,33.126,0,0,0,3.523,2.661c.95.612,1.579.925,1.56.965" transform="translate(-47.055 -174.662)" fill="#eb996e"/>
        <path id="Trazado_600930" data-name="Trazado 600930" d="M94.423,353.4a5.029,5.029,0,0,1-1.208-.508,23.942,23.942,0,0,1-2.7-1.637,26.877,26.877,0,0,1-2.495-1.939,5.214,5.214,0,0,1-.92-.933,9.238,9.238,0,0,1,1.036.795c.629.5,1.516,1.17,2.524,1.868s1.95,1.286,2.644,1.689a9.85,9.85,0,0,1,1.122.666" transform="translate(-44.516 -178.063)" fill="#eb996e"/>
        <path id="Trazado_600931" data-name="Trazado 600931" d="M251.93,324.9a16.265,16.265,0,0,0-10.148-1.237c-5.817,1.134-18.008,4.04-22.221,4.526s-22.017,4.462-22.017,4.462l1.873,10.577L257.5,343.1c1.061-6.374,3.021-14.28-5.574-18.2" transform="translate(-100.967 -165.269)" fill="#ffbe9d"/>
        <path id="Trazado_600932" data-name="Trazado 600932" d="M180.428,348.609h3.9l6.281-12.354c-.806-.137-17.58-2.617-18.568-2.346L168.017,348.2s12.053.407,12.411.408" transform="translate(-85.876 -170.655)" fill="#ffbe9d"/>
        <path id="Trazado_600933" data-name="Trazado 600933" d="M167.905,359.8c.013.024.112.045.28.064,1.385.152,7.782-.239,7.782-.239.293-.826-.261-3.308-1.057-3.453s-7.6.314-7.6.314-1.072.141-1.339,1.943c-.165,1.113,1.939,1.371,1.939,1.371" transform="translate(-84.823 -182.032)" fill="#ffbe9d"/>
        <path id="Trazado_600934" data-name="Trazado 600934" d="M163.484,352.367c.013.024.112.046.279.064,1.386.152,7.433.086,7.694-.652.293-.826-.172-2.895-.968-3.04s-7.6.314-7.6.314-1.072.141-1.34,1.943c-.165,1.113,1.939,1.371,1.939,1.371" transform="translate(-82.563 -178.231)" fill="#ffbe9d"/>
        <path id="Trazado_600935" data-name="Trazado 600935" d="M161.29,345.1c.013.024.112.045.279.064,1.385.151,7.433.085,7.695-.652.293-.826-.173-2.894-.969-3.04s-7.6.314-7.6.314-1.073.141-1.339,1.943c-.165,1.113,1.939,1.371,1.939,1.371" transform="translate(-81.442 -174.516)" fill="#ffbe9d"/>
        <path id="Trazado_600936" data-name="Trazado 600936" d="M159.23,337.871c.013.024.112.045.279.064,1.385.152,7.433.085,7.695-.652.292-.826-.173-2.894-.969-3.04s-7.6.314-7.6.314-1.073.14-1.34,1.943c-.165,1.113,1.939,1.371,1.939,1.371" transform="translate(-80.388 -170.822)" fill="#ffbe9d"/>
        <path id="Trazado_600937" data-name="Trazado 600937" d="M174.53,356.008a11.908,11.908,0,0,1-2.945.272,11.258,11.258,0,0,1-2.912-.105,11.9,11.9,0,0,1,2.945-.272,11.254,11.254,0,0,1,2.912.1" transform="translate(-86.211 -181.897)" fill="#eb996e"/>
        <path id="Trazado_600938" data-name="Trazado 600938" d="M171.954,348.738a23.265,23.265,0,0,1-4.186.323,23.243,23.243,0,0,1-4.2-.057,23.263,23.263,0,0,1,4.187-.323,23.284,23.284,0,0,1,4.2.057" transform="translate(-83.602 -178.194)" fill="#eb996e"/>
        <path id="Trazado_600939" data-name="Trazado 600939" d="M171.369,341.326a23.266,23.266,0,0,1-4.186.323,23.228,23.228,0,0,1-4.2-.057,23.257,23.257,0,0,1,4.186-.323,23.292,23.292,0,0,1,4.2.057" transform="translate(-83.303 -174.406)" fill="#eb996e"/>
        <path id="Trazado_600940" data-name="Trazado 600940" d="M185.413,332.23s-11.418-5.076-12.131-4.343a16.771,16.771,0,0,0-1.812,3.09Z" transform="translate(-87.64 -167.55)" fill="#ffbe9d"/>
      </g>
    </g>
    <g id="Grupo_878384" data-name="Grupo 878384">
      <g id="Grupo_878383" data-name="Grupo 878383" clip-path="url(#clip-path)">
        <path id="Trazado_600941" data-name="Trazado 600941" d="M285.984,54.614a26.305,26.305,0,1,1,24.525,27.972,26.305,26.305,0,0,1-24.525-27.972" transform="translate(-146.141 -15.349)" fill="#ebebeb"/>
        <path id="Trazado_600942" data-name="Trazado 600942" d="M285.97,54.519s.006.145.006.427,0,.706-.006,1.251q0,.414-.008.922c.012.338.06.707.092,1.108s.075.831.117,1.292a4.53,4.53,0,0,0,.1.708q.07.362.143.747a25.055,25.055,0,0,0,2.445,7.162A26.146,26.146,0,0,0,295.027,76l1.075.917c.38.286.783.553,1.18.835s.788.587,1.227.822l1.315.741c.222.123.442.253.669.373L301.2,80l1.436.633c.489.2,1.005.339,1.513.514a13.368,13.368,0,0,0,1.559.463,24.369,24.369,0,0,0,3.28.6c.562.057,1.126.149,1.7.178l1.736.025c.291,0,.584.02.877,0l.88-.076c.588-.058,1.184-.087,1.777-.17a27.655,27.655,0,0,0,3.552-.793l.887-.261c.148-.045.3-.084.445-.134l.432-.175,1.742-.7c.572-.263,1.123-.577,1.691-.865.279-.154.573-.281.841-.457l.807-.526a29.537,29.537,0,0,0,3.129-2.324l1.424-1.376.358-.346.327-.377.651-.761.654-.764.582-.825.582-.831.292-.417c.089-.144.169-.295.253-.442L335.614,68l.836-1.888a27.961,27.961,0,0,0,1.889-8.153,27.966,27.966,0,0,0-.805-8.333q-.292-.994-.582-1.982l-.766-1.9-.193-.472-.235-.451-.468-.9-.47-.894-.548-.843-.546-.84-.274-.417-.31-.39-1.232-1.55a29.388,29.388,0,0,0-2.8-2.714l-.731-.626c-.242-.21-.518-.374-.774-.564-.526-.36-1.032-.743-1.564-1.078l-1.635-.925L324,32.85c-.139-.069-.283-.127-.423-.191l-.846-.375a27.672,27.672,0,0,0-3.418-1.251c-.577-.159-1.165-.266-1.74-.4l-.863-.191c-.288-.057-.581-.074-.87-.113l-1.724-.2c-.572-.046-1.144-.028-1.708-.046a24.42,24.42,0,0,0-3.331.166,13.439,13.439,0,0,0-1.606.255c-.527.107-1.057.179-1.567.312l-1.507.44-.743.217-.712.283-1.4.563c-.466.176-.886.441-1.324.654-.43.228-.865.439-1.279.674l-1.186.769a26.153,26.153,0,0,0-7.137,6.989,25.062,25.062,0,0,0-3.359,6.78l-.24.722a4.554,4.554,0,0,0-.2.688l-.285,1.265c-.084.393-.179.752-.236,1.086l-.113.914-.157,1.241c-.037.28-.063.422-.063.422s.008-.144.036-.425.075-.7.132-1.246l.1-.918c.053-.335.144-.7.225-1.091s.176-.818.274-1.272a4.543,4.543,0,0,1,.19-.692q.114-.353.235-.726a24.959,24.959,0,0,1,3.337-6.83,26.207,26.207,0,0,1,7.155-7.058l1.192-.777c.417-.238.853-.452,1.286-.682.44-.216.862-.484,1.332-.663l1.409-.571.717-.286.748-.22,1.517-.447c.514-.135,1.048-.209,1.579-.318a13.427,13.427,0,0,1,1.618-.26,24.484,24.484,0,0,1,3.357-.175c.57.016,1.146,0,1.723.043l1.738.2c.291.039.587.056.877.113l.871.191c.58.134,1.173.242,1.755.4a27.847,27.847,0,0,1,3.451,1.257l.854.377c.142.064.288.123.428.193l.41.231,1.651.932c.537.338,1.049.724,1.579,1.087.259.19.537.356.782.568l.739.632a29.69,29.69,0,0,1,2.827,2.737l1.245,1.564.313.393.277.421.551.847.553.851.475.9.473.908.238.456.2.476.774,1.919.589,2a28.212,28.212,0,0,1,.814,8.414,28.176,28.176,0,0,1-1.909,8.232l-.845,1.906-1.018,1.8c-.086.149-.167.3-.256.446l-.295.421-.588.838-.589.833-.66.771-.658.768-.329.381-.362.349-1.439,1.387a29.709,29.709,0,0,1-3.16,2.343l-.815.529c-.27.177-.568.306-.849.461-.573.29-1.131.606-1.708.871l-1.759.708-.436.176c-.148.05-.3.089-.449.135l-.9.262a27.879,27.879,0,0,1-3.585.795c-.6.083-1.2.111-1.793.169l-.888.076c-.3.019-.591,0-.884,0l-1.75-.028c-.577-.03-1.146-.124-1.713-.182a24.552,24.552,0,0,1-3.305-.612,13.529,13.529,0,0,1-1.57-.469c-.512-.177-1.031-.321-1.524-.522l-1.446-.641-.713-.316c-.228-.121-.449-.253-.673-.377l-1.322-.75c-.442-.238-.825-.56-1.234-.831s-.8-.555-1.186-.845l-1.08-.927a26.216,26.216,0,0,1-6.172-7.933,24.952,24.952,0,0,1-2.415-7.208q-.071-.386-.138-.75a4.548,4.548,0,0,1-.1-.711l-.106-1.3c-.028-.4-.072-.771-.08-1.111q.011-.509.02-.924.021-.818.031-1.253c.009-.282.02-.426.02-.426" transform="translate(-146.126 -15.255)" fill="#263238"/>
        <path id="Trazado_600943" data-name="Trazado 600943" d="M351.347,69.286a5.278,5.278,0,0,1-.929.062l-2.557.051c-2.169.03-5.192.051-8.6.056h-.169v-.169c0-.546,0-1.122,0-1.706,0-3.811.019-7.26.05-9.757.022-1.2.04-2.2.054-2.957a6.632,6.632,0,0,1,.066-1.084,6.627,6.627,0,0,1,.066,1.084c.014.757.032,1.753.054,2.957.031,2.5.05,5.946.05,9.757,0,.584,0,1.16,0,1.706l-.169-.169c3.412,0,6.435.025,8.6.056l2.557.051a5.276,5.276,0,0,1,.929.062" transform="translate(-173.312 -27.489)" fill="#263238"/>
        <path id="Trazado_600944" data-name="Trazado 600944" d="M339.422,38.871a7.331,7.331,0,0,1,.17,2.21,7.331,7.331,0,0,1-.17,2.21,7.325,7.325,0,0,1-.17-2.21,7.325,7.325,0,0,1,.17-2.21" transform="translate(-173.396 -19.867)" fill="#263238"/>
        <path id="Trazado_600945" data-name="Trazado 600945" d="M360.892,46.125a7.1,7.1,0,0,1-1.42,1.66,7.116,7.116,0,0,1-1.66,1.42,7.116,7.116,0,0,1,1.42-1.66,7.1,7.1,0,0,1,1.66-1.42" transform="translate(-182.88 -23.573)" fill="#263238"/>
        <path id="Trazado_600946" data-name="Trazado 600946" d="M374.558,61.777a9.163,9.163,0,0,1-1.813,1.21,9.187,9.187,0,0,1-1.909,1.052,9.688,9.688,0,0,1,3.721-2.262" transform="translate(-189.537 -31.569)" fill="#263238"/>
        <path id="Trazado_600947" data-name="Trazado 600947" d="M380.553,84.849a26.769,26.769,0,0,1-6.027,0,26.769,26.769,0,0,1,6.027,0" transform="translate(-191.425 -43.281)" fill="#263238"/>
        <path id="Trazado_600948" data-name="Trazado 600948" d="M295.438,84.027a23.887,23.887,0,0,1-5.692,0,23.886,23.886,0,0,1,5.692,0" transform="translate(-148.093 -42.86)" fill="#263238"/>
        <path id="Trazado_600949" data-name="Trazado 600949" d="M302.71,101.5a24.742,24.742,0,0,1-4.514,3.636,24.737,24.737,0,0,1,4.514-3.636" transform="translate(-152.41 -51.876)" fill="#263238"/>
        <path id="Trazado_600950" data-name="Trazado 600950" d="M319.181,114.884a19.349,19.349,0,0,1-1.464,2.537,19.285,19.285,0,0,1-1.553,2.483,15.013,15.013,0,0,1,3.017-5.02" transform="translate(-161.591 -58.717)" fill="#263238"/>
        <path id="Trazado_600951" data-name="Trazado 600951" d="M339.422,125.843a13.493,13.493,0,0,1-.17-3.013,13.492,13.492,0,0,1,.17-3.014,13.5,13.5,0,0,1,.17,3.014,13.5,13.5,0,0,1-.17,3.013" transform="translate(-173.396 -61.239)" fill="#263238"/>
        <path id="Trazado_600952" data-name="Trazado 600952" d="M361.448,119.818a12.982,12.982,0,0,1-4.509-3.931,27.6,27.6,0,0,1,2.249,1.972,27.588,27.588,0,0,1,2.261,1.958" transform="translate(-182.434 -59.23)" fill="#263238"/>
        <path id="Trazado_600953" data-name="Trazado 600953" d="M374.711,106.578a20.757,20.757,0,0,1-3.75-3.75,20.748,20.748,0,0,1,3.75,3.75" transform="translate(-189.601 -52.555)" fill="#263238"/>
        <path id="Trazado_600954" data-name="Trazado 600954" d="M303.431,64.2a8.049,8.049,0,0,1-1.761-1.52,8.061,8.061,0,0,1-1.52-1.761,8.06,8.06,0,0,1,1.761,1.52,8.048,8.048,0,0,1,1.52,1.761" transform="translate(-153.408 -31.133)" fill="#263238"/>
        <path id="Trazado_600955" data-name="Trazado 600955" d="M318.881,48.067a7.722,7.722,0,0,1-1.731-1.483,7.733,7.733,0,0,1-1.491-1.724,7.719,7.719,0,0,1,1.731,1.483,7.736,7.736,0,0,1,1.491,1.724" transform="translate(-161.335 -22.926)" fill="#263238"/>
      </g>
    </g>
  </g>
</svg>
