<svg xmlns="http://www.w3.org/2000/svg" width="125" height="125" viewBox="0 0 125 125">
  <g id="Grupo_951870" data-name="Grupo 951870" transform="translate(-318 -1862)">
    <circle id="Elipse_7653" data-name="Elipse 7653" cx="62.5" cy="62.5" r="62.5" transform="translate(318 1862)" fill="#ef8b53"/>
    <g id="Grupo_930277" data-name="Grupo 930277" transform="translate(-2835.586 1936.611)">
      <path id="Trazado_611457" data-name="Trazado 611457" d="M3251.225,9.4c1.046.334,1.252.606,1.252,1.7q0,8.4,0,16.791a2.14,2.14,0,0,1-2.443,2.459q-15.77,0-31.538.012c-.883,0-1.483-.258-1.7-1.157.249-1.068.543-1.308,1.623-1.314.738,0,1.477-.029,2.212.009.507.026.7-.085.7-.656q-.029-13.606,0-27.212c0-.481-.093-.693-.626-.657a13.753,13.753,0,0,1-2.129,0c-.654-.058-.759.207-.751.789.03,2.431.008,4.863.016,7.295a1.793,1.793,0,0,1-2.989,1.606c-2.234-1.468-4.484-2.913-6.734-4.357-.236-.151-.436-.415-.761-.368-.028.041-.054.061-.054.081q-.01,11.475-.024,22.949c0,.46.179.536.578.531,1.366-.019,2.732-.011,4.1-.006,1.081,0,1.374.244,1.625,1.313a1.436,1.436,0,0,1-1.621,1.156q-14.958-.023-29.917-.012a2.09,2.09,0,0,1-2.34-2.315q-.008-12.539,0-25.078a5.933,5.933,0,0,1,6.026-6.025c2.9-.02,5.792-.013,8.688,0a1.342,1.342,0,0,0,1.07-.442c.815-.845,1.659-1.663,2.506-2.478.28-.27.36-.4-.087-.606a10.506,10.506,0,0,1-5.525-5.965.622.622,0,0,0-.723-.468,5.771,5.771,0,0,1-5.912-6.286c.064-1.866.311-3.584,1.7-4.949.255-.25.2-.548.205-.842.007-.355-.031-.714.008-1.065.109-.981-.008-1.647-1.187-2.035a3.074,3.074,0,0,1-1.857-3.408,3.238,3.238,0,0,1,2.42-2.893c.557-.165.641-.409.668-.9a17.105,17.105,0,0,1,12.207-15.4,1.94,1.94,0,0,0,1.246-.9,3.874,3.874,0,0,1,3.35-1.878c.982-.033,1.967-.018,2.95-.006a4.1,4.1,0,0,1,3.665,2.079,1.144,1.144,0,0,0,.7.591,17.061,17.061,0,0,1,12.619,15.761.552.552,0,0,0,.485.6,3.444,3.444,0,0,1,2.623,3.345,3.444,3.444,0,0,1-2.636,3.336c-.385.113-.46.272-.453.614.016.792.008,1.584,0,2.377a.726.726,0,0,0,.187.6c1.707,1.616,1.82,3.7,1.676,5.841a5.508,5.508,0,0,1-5.5,5.385,1.215,1.215,0,0,0-1.27.92,10.429,10.429,0,0,1-5.3,5.547c-.1.048-.2.088-.291.144a.292.292,0,0,0-.08.1c.99,1.017,1.981,2.026,2.959,3.047a.817.817,0,0,0,.662.236c1.093-.007,2.186-.024,3.278.007.454.013.589-.159.527-.569,0-.027,0-.055,0-.082-.218-2.432.678-3.33,3.2-3.176,1.279.078,2.568,0,3.852.02.346,0,.5-.05.592-.449a1.965,1.965,0,0,1,2.292-1.731c.586.012.781-.164.9-.729a4.791,4.791,0,0,1,4.8-3.879,4.8,4.8,0,0,1,4.713,3.99c.089.493.274.606.739.611,1.563.016,1.937.3,2.424,1.856.125.4.376.321.631.322,1.584,0,3.169-.005,4.754,0a2.067,2.067,0,0,1,2.269,2.3c.01,3.032,0,6.065,0,9.1,0,1.094-.205,1.364-1.255,1.7-1.05-.373-1.2-.59-1.205-1.737,0-2.729,0-5.458-.006-8.187,0-.229.13-.612-.136-.658a3.554,3.554,0,0,0-1.537.01c-.317.091-.142.587-.142.9q-.012,13.509-.007,27.018c0,.246.013.492-.005.737a1.759,1.759,0,0,1-1.787,1.761c-.626.032-1.255.007-1.883.009l-15.146.033c-.627-.011-1.255-.013-1.881-.035a1.77,1.77,0,0,1-1.888-1.9c-.014-.791,0-1.583,0-2.374q0-12.691-.006-25.383c0-.26.135-.693-.116-.751a3.564,3.564,0,0,0-1.534-.017c-.33.075-.157.527-.157.8q-.013,15.271-.007,30.542a3.409,3.409,0,0,1,0,.409c-.049.4.142.506.519.5,1.692-.024,3.384-.024,5.076-.033,6.612.009,13.224,0,19.836.045.719,0,.829-.224.825-.872-.026-5.3-.015-10.6-.014-15.9C3250.018,9.991,3250.174,9.773,3251.225,9.4Zm-15.953-13c1.605.011,3.21.041,4.815.025.753-.007,1.783.342,2.184-.151.378-.464.11-1.454.126-2.212a1.516,1.516,0,0,1,0-.163c.046-.395-.14-.514-.52-.51-2.2.028-4.406.038-6.609.054-1.142-.015-2.284-.02-3.425-.052-.419-.011-.5.192-.487.55.018.653.031,1.308,0,1.96-.024.453.169.549.573.538C3233.041-3.583,3234.157-3.582,3235.272-3.593ZM3207.949.071c1.593-1.289,2.938-2.7,2.408-5a.472.472,0,0,1,0-.164c.058-.4-.119-.506-.508-.5-1.638.031-3.276.032-4.914.043-.272-.014-.544-.049-.814-.036-.754.036-1.738-.326-2.2.141s-.115,1.45-.136,2.206a1.44,1.44,0,0,0,.281,1.224c1.237,1.231,2.455,2.481,3.667,3.737.24.249.4.293.652.016C3206.892,1.169,3207.426.625,3207.949.071Zm-7.125-45.946c-.069-.649-.146-1.3-.207-1.947-.042-.455-.181-.57-.669-.4a14.555,14.555,0,0,0-6.683,4.793,14.327,14.327,0,0,0-3.106,8.111c-.021.332-.09.645.448.634,1.717-.037,3.435-.035,5.152-.048.351.013.7.034,1.053.039,1.075.015,1.374.234,1.69,1.252a1.417,1.417,0,0,1-1.644,1.219c-2.7-.032-5.406-.009-8.109-.008-1.209,0-1.709.313-1.687,1.049.022.706.491.983,1.672.984l34.645,0c1.182,0,1.729-.337,1.708-1.047-.021-.684-.541-.994-1.678-.994q-9.992,0-19.985,0c-1.165,0-1.377-.154-1.725-1.207.32-1.026.612-1.248,1.71-1.249,5.9,0,11.8-.02,17.706.02.811.006.945-.261.855-.962a14.677,14.677,0,0,0-9.645-12.549c-.607-.246-.768-.124-.845.53-.358,3.036-.768,6.065-1.176,9.094-.136,1.01-.557,1.356-1.59,1.36q-2.623.009-5.246,0c-1.129,0-1.505-.36-1.653-1.466C3201.5-41.065,3201.156-43.47,3200.824-45.875Zm31.17,69.457c4.289.011,8.577,0,12.865.052.746.009.887-.2.885-.905q-.038-13.155-.017-26.309a3.414,3.414,0,0,1,0-.409c.049-.409-.2-.429-.506-.424-.593.01-.346.457-.353.716-.043,1.938-.7,2.594-2.635,2.6q-5.121.013-10.243.031l-.979-.036a2.048,2.048,0,0,1-2.1-2.049c-.021-.326-.014-.655-.006-.982.008-.292-.186-.288-.383-.277s-.467-.084-.464.274c0,.191,0,.382,0,.573V16.57c0,2.128.019,4.256-.013,6.384-.008.54.145.7.679.673C3229.812,23.578,3230.9,23.593,3231.994,23.582Zm-33.943-51.269c-1.119-.014-2.238-.015-3.356-.05-.436-.014-.556.151-.554.571.017,3.715-.077,7.434.043,11.145A8.094,8.094,0,0,0,3202.49-8.1c2.292.017,4.584.047,6.876.047a8.2,8.2,0,0,0,8.59-8.516c.024-3.44-.014-6.88.021-10.32.007-.671-.151-.864-.845-.861-6.116.029-12.233.016-18.349.019C3198.54-27.728,3198.3-27.7,3198.051-27.687ZM3189.209-.571c-1.063-.012-2.126-.034-3.189-.034a3.532,3.532,0,0,0-3.862,3.861q-.006,6.547,0,13.094c0,3.628.005,7.257-.007,10.885,0,.44.02.693.59.676,1.663-.051,3.327-.034,4.99-.043,5.516.009,11.032.008,16.548.043.627,0,.544-.335.544-.715q0-11.141-.007-22.283c0-.194.107-.432-.156-.614-2.443,1.579-4.9,3.151-7.333,4.745a1.906,1.906,0,0,1-2.135.275,1.981,1.981,0,0,1-.9-1.966c.02-2.43.006-4.861.008-7.291,0-.355.078-.7-.5-.68C3192.266-.572,3190.737-.583,3189.209-.571Zm16.864-50.547h-.736c-2.025,0-2.6.645-2.34,2.643.361,2.754.753,5.5,1.095,8.261.058.47.224.583.658.57.871-.027,1.746-.034,2.617.005.505.023.646-.176.692-.647.106-1.084.273-2.161.416-3.241.239-1.809.5-3.615.71-5.428a1.731,1.731,0,0,0-1.886-2.164C3206.891-51.126,3206.482-51.12,3206.073-51.118Zm2.919,53.461,6.379,4.119c0-2.538,0-4.884,0-7.232,0-.215.055-.457-.114-.627-.77-.779-1.549-1.548-2.325-2.321a4.414,4.414,0,0,1-1.677,4C3210.506.915,3209.8,1.6,3208.992,2.343Zm-9.812-6.028c-.672.66-1.331,1.335-2.022,1.973a1.225,1.225,0,0,0-.408,1.005c.018,2.13,0,4.259.015,6.389,0,.221-.118.481.134.7l6.044-3.915C3201.533.475,3198.739-.559,3199.181-3.685Zm21.239-15.772h-.014c0,1.144.022,2.288-.011,3.431-.013.436.094.565.541.537a3.134,3.134,0,0,0,2.847-2.412,8.214,8.214,0,0,0,.005-3.088,3.143,3.143,0,0,0-2.572-2.423c-.558-.083-.851,0-.812.686C3220.465-21.639,3220.42-20.547,3220.42-19.457Zm-28.723.016h-.007c0-1.147-.024-2.294.011-3.439.016-.5-.183-.584-.622-.547a3.108,3.108,0,0,0-2.677,2.21,7.1,7.1,0,0,0-.008,3.484,3.1,3.1,0,0,0,2.658,2.227c.48.052.685-.018.659-.578C3191.661-17.2,3191.7-18.322,3191.7-19.441Zm45.127,10.386c.652,0,1.3-.014,1.956,0,.455.013.491-.2.378-.559a2.44,2.44,0,0,0-2.341-1.58,2.447,2.447,0,0,0-2.215,1.637c-.09.327-.07.517.346.5C3235.574-9.07,3236.2-9.055,3236.824-9.055ZM3222.015-26.67c0-1.086,0-1.033-.808-1.1-.741-.06-.84.275-.814.9.042,1.044.01,1.064,1.265,1.047C3222.44-25.835,3221.767-26.478,3222.015-26.67Zm-30.348-.062c.069-.617.09-1.014-.728-1.031-.854-.017-.912.4-.8.984.064.323-.4.98.447.925C3191.181-25.893,3192-25.7,3191.667-26.732Z" transform="translate(0 0)" fill="#030302"/>
      <path id="Trazado_611458" data-name="Trazado 611458" d="M3269.969,137.493c-.251-1.068-.544-1.31-1.625-1.313-1.366,0-2.733-.013-4.1.006-.4.005-.579-.071-.578-.531q.026-11.475.024-22.949c0-.02.026-.04.054-.081.325-.047.525.216.761.368,2.25,1.444,4.5,2.889,6.734,4.357a1.792,1.792,0,0,0,2.988-1.606c-.008-2.432.015-4.863-.016-7.295-.007-.582.1-.847.751-.789a13.756,13.756,0,0,0,2.129,0c.533-.035.626.176.625.657q-.019,13.606,0,27.212c0,.571-.191.682-.7.656-.736-.038-1.475-.013-2.212-.009-1.08.006-1.374.246-1.624,1.314Z" transform="translate(-56.393 -108.283)" fill="#a7e1f6"/>
      <path id="Trazado_611459" data-name="Trazado 611459" d="M3330.938,126.606l15.146-.033c.628,0,1.257.023,1.883-.009a1.76,1.76,0,0,0,1.787-1.761c.018-.244.006-.491.006-.737q0-13.509.007-27.018c0-.31-.176-.806.141-.9a3.554,3.554,0,0,1,1.537-.01c.266.046.136.429.136.658.009,2.729,0,5.458.006,8.187,0,1.147.156,1.363,1.206,1.737q0,1.59,0,3.18c-1.051.369-1.207.587-1.208,1.736,0,5.3-.012,10.6.015,15.9,0,.648-.107.876-.826.872-6.612-.04-13.224-.036-19.836-.045Q3330.939,127.487,3330.938,126.606Z" transform="translate(-101.569 -100.499)" fill="#dd9d63"/>
      <path id="Trazado_611460" data-name="Trazado 611460" d="M3205.611,107.734c1.528-.012,3.057,0,4.584-.048.583-.017.505.325.5.68,0,2.43.012,4.861-.008,7.291a1.982,1.982,0,0,0,.9,1.966,1.907,1.907,0,0,0,2.135-.275c2.438-1.595,4.89-3.167,7.333-4.746.262.182.156.42.156.614q.01,11.141.006,22.283c0,.38.083.719-.544.715-5.516-.034-11.032-.033-16.548-.043,0-7.616.016-15.232-.017-22.848C3204.107,111.305,3204.186,109.351,3205.611,107.734Z" transform="translate(-16.402 -108.305)" fill="#a8e3f8"/>
      <path id="Trazado_611461" data-name="Trazado 611461" d="M3235.581,25.152c.244-.014.488-.041.733-.041,6.116,0,12.232.011,18.349-.019.694,0,.852.19.844.861-.035,3.44,0,6.88-.021,10.32a8.2,8.2,0,0,1-8.59,8.516c-2.292,0-4.584-.03-6.876-.047-.12-.3-.42-.42-.646-.6a9.158,9.158,0,0,1-3.8-7.639C3235.594,32.723,3235.581,28.937,3235.581,25.152Zm7.693,17.252a7.262,7.262,0,0,0,5.248-1.923,1.243,1.243,0,1,0-1.642-1.825,4.761,4.761,0,0,1-6.6-.03,1.261,1.261,0,0,0-1.827-.042,1.221,1.221,0,0,0,.191,1.866A6.96,6.96,0,0,0,3243.273,42.4Zm-1.5-9.08h-.006c0,.49-.012.981,0,1.471.027.957.443,1.36,1.42,1.38.463.01.926.008,1.389,0,.894-.015,1.445-.465,1.467-1.187a1.243,1.243,0,0,0-1.324-1.251c-.487-.029-.508-.244-.5-.61a10.55,10.55,0,0,0-.031-1.55,1.174,1.174,0,0,0-1.305-1.075,1.137,1.137,0,0,0-1.109,1.187C3241.76,32.232,3241.775,32.778,3241.775,33.323Zm6.377-3.256h-.054a12.99,12.99,0,0,0,.075,1.465,1.1,1.1,0,0,0,1.206.989,1.082,1.082,0,0,0,1.146-.96,10.183,10.183,0,0,0,.005-2.768,1.091,1.091,0,0,0-1.2-.989,1.115,1.115,0,0,0-1.165,1.04A9.318,9.318,0,0,0,3248.152,30.067Zm-9.105.131c0-.409.02-.819,0-1.226a1.137,1.137,0,0,0-1.135-1.165,1.1,1.1,0,0,0-1.267,1.017,13.392,13.392,0,0,0,0,2.691,1.1,1.1,0,0,0,1.275,1,1.138,1.138,0,0,0,1.124-1.176C3239.064,30.963,3239.048,30.58,3239.047,30.2Z" transform="translate(-37.529 -52.839)" fill="#f5d1a8"/>
      <path id="Trazado_611462" data-name="Trazado 611462" d="M3338.921,99.477q5.121-.016,10.243-.031c1.936,0,2.592-.661,2.635-2.6.006-.259-.241-.707.353-.716.306,0,.554.015.505.424a3.466,3.466,0,0,0,0,.409q0,13.155.017,26.309c0,.7-.139.914-.885.905-4.288-.052-8.577-.041-12.866-.052l0-3.685c.406-.011.814,0,1.218-.038a1.222,1.222,0,0,0,0-2.442c-.4-.034-.812-.025-1.217-.035q0-1.051,0-2.1c.406-.015.813,0,1.215-.05a1.219,1.219,0,0,0,1.166-1.309,1.17,1.17,0,0,0-1.245-1.135c-.378-.01-.757-.024-1.135-.036V111.15l1.136-.033a1.176,1.176,0,0,0,1.245-1.137,1.208,1.208,0,0,0-1.17-1.3c-.4-.048-.809-.044-1.213-.064q0-.712,0-1.425c1.273-.411,1.908-1.576,2.815-2.413a1.174,1.174,0,0,0,.029-1.692,1.211,1.211,0,0,0-1.757-.02c-.37.318-.717.662-1.074,1Q3338.927,101.769,3338.921,99.477Zm8.194,11.643c.983,0,1.967.013,2.95,0,.87-.015,1.354-.447,1.371-1.183a1.2,1.2,0,0,0-1.309-1.262q-3.072-.046-6.145,0a1.191,1.191,0,0,0-1.325,1.243c0,.745.479,1.189,1.344,1.2C3345.039,111.134,3346.077,111.12,3347.115,111.12Zm-.021,2.208c-1.038,0-2.076-.013-3.114,0a1.176,1.176,0,0,0-1.323,1.141,1.189,1.189,0,0,0,1.262,1.3q3.114.045,6.228,0a1.205,1.205,0,0,0,1.287-1.285,1.176,1.176,0,0,0-1.309-1.16C3349.116,113.315,3348.105,113.329,3347.095,113.328Zm-.062-6.844c1.038,0,2.076.016,3.114-.005a1.192,1.192,0,0,0,1.289-1.187,1.212,1.212,0,0,0-1.309-1.258q-3.073-.028-6.145,0a1.229,1.229,0,1,0,.019,2.449C3345.012,106.5,3346.023,106.486,3347.033,106.484Zm0,13.928c1.038,0,2.076.016,3.113-.005a1.225,1.225,0,1,0-.012-2.446q-3.073-.026-6.146,0a1.23,1.23,0,1,0,.012,2.45C3345.008,120.427,3346.019,120.414,3347.03,120.412Z" transform="translate(-106.927 -100.545)" fill="#fcfcfc"/>
      <path id="Trazado_611463" data-name="Trazado 611463" d="M3231.356-22.606c-.316-1.018-.615-1.237-1.69-1.252-.351,0-.7-.025-1.053-.039a14.457,14.457,0,0,1,.333-2.73,14.843,14.843,0,0,1,4.731-8.417c.332,2.405.671,4.81.993,7.217.148,1.107.524,1.463,1.652,1.466q2.623.007,5.246,0c1.033,0,1.455-.35,1.591-1.36.407-3.029.817-6.059,1.176-9.094.077-.654.238-.776.845-.53a14.678,14.678,0,0,1,9.645,12.549c.089.7-.045.968-.856.962-5.9-.04-11.8-.023-17.705-.02-1.1,0-1.39.222-1.71,1.249Z" transform="translate(-32.853 -10.83)" fill="#f6e774"/>
      <path id="Trazado_611464" data-name="Trazado 611464" d="M3194.236,107.763c-1.425,1.616-1.5,3.571-1.5,5.59.033,7.616.015,15.232.017,22.848-1.663.01-3.328-.008-4.99.043-.57.017-.591-.236-.59-.676.012-3.628.007-7.257.008-10.885q0-6.547,0-13.094a3.532,3.532,0,0,1,3.862-3.861C3192.11,107.729,3193.173,107.751,3194.236,107.763Z" transform="translate(-5.027 -108.334)" fill="#a8e3f8"/>
      <path id="Trazado_611465" data-name="Trazado 611465" d="M3213.574,7.77h3.2c.348,1.053.56,1.207,1.725,1.207q9.992,0,19.984,0c1.137,0,1.657.309,1.678.994.022.71-.525,1.047-1.707,1.047l-34.645,0c-1.181,0-1.65-.278-1.672-.984-.023-.736.478-1.048,1.687-1.049,2.7,0,5.406-.024,8.109.008A1.417,1.417,0,0,0,3213.574,7.77Z" transform="translate(-15.071 -41.206)" fill="#eca43e"/>
      <path id="Trazado_611466" data-name="Trazado 611466" d="M3330.851,111.148v2.144c-.489.012-.977.021-1.466.038-.839.03-1.333.482-1.333,1.213a1.234,1.234,0,0,0,1.332,1.239c.488.027.977.028,1.466.04q0,1.051,0,2.1c-.516.01-1.033.007-1.549.034a1.223,1.223,0,1,0,0,2.446c.515.028,1.032.025,1.548.035l0,3.685c-1.091.011-2.182,0-3.271.046-.535.025-.687-.133-.679-.673.031-2.128.013-4.256.013-6.384V96.978c0-.191,0-.382,0-.573,0-.358.266-.262.464-.274s.391-.016.383.277c-.008.327-.016.656.006.982a2.047,2.047,0,0,0,2.1,2.049l.979.036q.005,2.292.011,4.584c-.458.066-.536-.407-.823-.591a1.215,1.215,0,0,0-1.5-.019,1.014,1.014,0,0,0-.406,1.356,5.014,5.014,0,0,0,2.72,2.384q0,.712,0,1.425c-.568.025-1.142.014-1.705.084a1.146,1.146,0,0,0-1.086,1.282,1.13,1.13,0,0,0,1.165,1.123C3329.764,111.136,3330.308,111.135,3330.851,111.148Z" transform="translate(-98.859 -100.543)" fill="#eaf1f3"/>
      <path id="Trazado_611467" data-name="Trazado 611467" d="M3227.557,25.17c0,3.785.013,7.571,0,11.356a9.158,9.158,0,0,0,3.8,7.639c.227.175.526.3.646.6a8.093,8.093,0,0,1-8.3-7.924c-.12-3.712-.026-7.43-.043-11.145,0-.42.118-.585.553-.571C3225.319,25.155,3226.438,25.155,3227.557,25.17Z" transform="translate(-29.506 -52.857)" fill="#f5d1a8"/>
      <path id="Trazado_611468" data-name="Trazado 611468" d="M3222.2-35.047a14.848,14.848,0,0,0-4.731,8.417,14.477,14.477,0,0,0-.333,2.73c-1.718.013-3.435.011-5.152.048-.538.011-.469-.3-.448-.634a14.322,14.322,0,0,1,3.106-8.111,14.553,14.553,0,0,1,6.683-4.793c.488-.174.626-.06.669.4C3222.052-36.344,3222.128-35.7,3222.2-35.047Z" transform="translate(-21.373 -10.828)" fill="#f6e774"/>
      <path id="Trazado_611469" data-name="Trazado 611469" d="M3319.428,126.619q0,.88,0,1.761c-1.692.009-3.384.009-5.075.033-.378.005-.568-.1-.52-.5a3.408,3.408,0,0,0,0-.409q0-15.271.007-30.542c0-.277-.173-.73.157-.8a3.561,3.561,0,0,1,1.533.017c.251.057.117.49.117.751q.01,12.691.005,25.383c0,.791-.011,1.583,0,2.374a1.769,1.769,0,0,0,1.887,1.9C3318.174,126.605,3318.8,126.608,3319.428,126.619Z" transform="translate(-90.059 -100.511)" fill="#cc8c5e"/>
      <path id="Trazado_611470" data-name="Trazado 611470" d="M3253.6-46.071c.409,0,.818-.007,1.227,0a1.731,1.731,0,0,1,1.886,2.164c-.206,1.813-.471,3.619-.71,5.428-.143,1.08-.31,2.158-.417,3.241-.046.471-.187.67-.692.647-.871-.04-1.746-.033-2.617-.005-.434.013-.6-.1-.658-.57-.342-2.757-.734-5.507-1.095-8.261-.261-2,.315-2.638,2.34-2.643Z" transform="translate(-47.53 -5.048)" fill="#eca43e"/>
      <path id="Trazado_611471" data-name="Trazado 611471" d="M3268.9,104.312c.81-.742,1.514-1.428,2.262-2.064a4.414,4.414,0,0,0,1.677-4c.776.773,1.555,1.542,2.326,2.321.169.171.114.412.114.627,0,2.347,0,4.694,0,7.232Z" transform="translate(-59.907 -101.969)" fill="#80d7f5"/>
      <path id="Trazado_611472" data-name="Trazado 611472" d="M3234.033,98.351c-.441,3.127,2.352,4.161,3.762,6.154l-6.044,3.915c-.251-.22-.133-.48-.134-.7-.011-2.13,0-4.259-.015-6.389a1.225,1.225,0,0,1,.408-1.005C3232.7,99.686,3233.361,99.011,3234.033,98.351Z" transform="translate(-34.852 -102.036)" fill="#80d7f5"/>
      <path id="Trazado_611473" data-name="Trazado 611473" d="M3303.638,42.193c0-1.089.045-2.181-.017-3.267-.039-.689.255-.77.812-.686a3.143,3.143,0,0,1,2.572,2.423A8.214,8.214,0,0,1,3307,43.75a3.134,3.134,0,0,1-2.848,2.412c-.447.028-.553-.1-.54-.537.033-1.143.011-2.287.011-3.431Z" transform="translate(-83.218 -61.65)" fill="#f0bb8b"/>
      <path id="Trazado_611474" data-name="Trazado 611474" d="M3256.392,92.578c1.638-.012,3.276-.012,4.914-.043.389-.008.566.1.508.5a.466.466,0,0,0,0,.164c.529,2.309-.816,3.716-2.408,5-.469-.247-.732-.728-1.148-1.025A4.4,4.4,0,0,1,3256.392,92.578Z" transform="translate(-51.457 -98.13)" fill="#f0bb8b"/>
      <path id="Trazado_611475" data-name="Trazado 611475" d="M3249.887,92.388a4.4,4.4,0,0,0,1.866,4.6c.415.3.679.778,1.148,1.025-.523.553-1.057,1.1-1.565,1.664-.249.278-.413.233-.652-.016-1.212-1.256-2.431-2.506-3.668-3.737a1.44,1.44,0,0,1-.281-1.224c.022-.756-.327-1.739.136-2.206s1.447-.1,2.2-.141C3249.344,92.339,3249.616,92.374,3249.887,92.388Z" transform="translate(-44.952 -97.94)" fill="#f0bb8b"/>
      <path id="Trazado_611476" data-name="Trazado 611476" d="M3209.054,42.216c0,1.119-.035,2.24.015,3.357.025.561-.179.63-.659.578a3.1,3.1,0,0,1-2.658-2.227,7.1,7.1,0,0,1,.008-3.484,3.108,3.108,0,0,1,2.677-2.21c.439-.037.637.042.622.547-.035,1.145-.011,2.293-.011,3.439Z" transform="translate(-17.357 -61.657)" fill="#f0bb8b"/>
      <path id="Trazado_611477" data-name="Trazado 611477" d="M3348.9,89.519c2.2-.016,4.406-.027,6.609-.054.38,0,.565.115.519.51-.006.054,0,.109,0,.163-.016.758.252,1.748-.126,2.212-.4.492-1.43.144-2.183.151-1.6.015-3.21-.014-4.815-.025Q3348.9,91,3348.9,89.519Z" transform="translate(-113.632 -96.068)" fill="#f6e774"/>
      <path id="Trazado_611478" data-name="Trazado 611478" d="M3340.892,89.523q0,1.479,0,2.957c-1.115.011-2.231.01-3.345.039-.4.011-.6-.085-.573-.538.034-.652.021-1.307,0-1.96-.01-.358.068-.562.487-.55C3338.608,89.5,3339.75,89.508,3340.892,89.523Z" transform="translate(-105.623 -96.072)" fill="#f6d448"/>
      <path id="Trazado_611479" data-name="Trazado 611479" d="M3349.006,77.637c-.625,0-1.25-.015-1.875.006-.417.014-.437-.175-.347-.5a2.417,2.417,0,0,1,4.556-.058c.113.358.076.572-.378.559C3350.31,77.622,3349.657,77.636,3349.006,77.637Z" transform="translate(-112.181 -86.692)" fill="#eca43e"/>
      <path id="Trazado_611480" data-name="Trazado 611480" d="M3305.226,26.11c-.248.192.426.836-.357.846-1.255.017-1.222,0-1.265-1.047-.025-.623.073-.958.814-.9C3305.222,25.077,3305.226,25.025,3305.226,26.11Z" transform="translate(-83.21 -52.781)" fill="#cc8c5e"/>
      <path id="Trazado_611481" data-name="Trazado 611481" d="M3212.888,26.073c.332,1.034-.487.839-1.078.877-.851.055-.383-.6-.447-.925-.115-.58-.056-1,.8-.984C3212.978,25.059,3212.957,25.456,3212.888,26.073Z" transform="translate(-21.221 -52.805)" fill="#dd9d63"/>
      <path id="Trazado_611482" data-name="Trazado 611482" d="M3248.427,69.229a6.96,6.96,0,0,1-4.634-1.954,1.221,1.221,0,0,1-.192-1.866,1.261,1.261,0,0,1,1.828.042,4.761,4.761,0,0,0,6.6.03,1.243,1.243,0,1,1,1.642,1.825A7.261,7.261,0,0,1,3248.427,69.229Z" transform="translate(-42.682 -79.665)" fill="#030302"/>
      <path id="Trazado_611483" data-name="Trazado 611483" d="M3254.427,44.366c0-.545-.015-1.09,0-1.634a1.136,1.136,0,0,1,1.108-1.187,1.174,1.174,0,0,1,1.306,1.075,10.517,10.517,0,0,1,.031,1.55c-.009.366.012.581.5.61a1.242,1.242,0,0,1,1.324,1.251c-.021.721-.573,1.172-1.466,1.187-.463.008-.926.01-1.389,0-.976-.02-1.393-.423-1.42-1.38-.014-.49,0-.98,0-1.471Z" transform="translate(-50.181 -63.882)" fill="#030302"/>
      <path id="Trazado_611484" data-name="Trazado 611484" d="M3273.755,35.614a9.448,9.448,0,0,1,.009-1.223,1.116,1.116,0,0,1,1.166-1.04,1.091,1.091,0,0,1,1.2.989,10.2,10.2,0,0,1-.005,2.768,1.083,1.083,0,0,1-1.146.96,1.1,1.1,0,0,1-1.2-.989,12.99,12.99,0,0,1-.076-1.465Z" transform="translate(-63.132 -58.385)" fill="#060606"/>
      <path id="Trazado_611485" data-name="Trazado 611485" d="M3241.089,35.742c0,.382.017.764,0,1.145a1.138,1.138,0,0,1-1.124,1.176,1.1,1.1,0,0,1-1.275-1,13.482,13.482,0,0,1,0-2.691,1.1,1.1,0,0,1,1.267-1.017,1.137,1.137,0,0,1,1.135,1.165C3241.109,34.923,3241.089,35.333,3241.089,35.742Z" transform="translate(-39.571 -58.382)" fill="#060606"/>
      <path id="Trazado_611486" data-name="Trazado 611486" d="M3354.761,136.715c-1.038,0-2.076.014-3.114,0-.865-.015-1.34-.46-1.345-1.2a1.191,1.191,0,0,1,1.325-1.243q3.073-.041,6.145,0a1.2,1.2,0,0,1,1.308,1.262c-.017.736-.5,1.169-1.37,1.183C3356.728,136.728,3355.745,136.715,3354.761,136.715Z" transform="translate(-114.573 -126.139)" fill="#060606"/>
      <path id="Trazado_611487" data-name="Trazado 611487" d="M3354.739,148.482c1.01,0,2.021-.014,3.032,0a1.175,1.175,0,0,1,1.308,1.16,1.2,1.2,0,0,1-1.287,1.285q-3.114.041-6.228,0a1.19,1.19,0,0,1-1.263-1.3,1.176,1.176,0,0,1,1.323-1.141C3352.662,148.469,3353.7,148.481,3354.739,148.482Z" transform="translate(-114.571 -135.698)" fill="#060606"/>
      <path id="Trazado_611488" data-name="Trazado 611488" d="M3354.679,122.618c-1.011,0-2.021.013-3.032,0a1.229,1.229,0,1,1-.02-2.449q3.073-.025,6.146,0a1.211,1.211,0,0,1,1.308,1.258,1.191,1.191,0,0,1-1.289,1.187C3356.755,122.633,3355.717,122.617,3354.679,122.618Z" transform="translate(-114.573 -116.677)" fill="#030302"/>
      <path id="Trazado_611489" data-name="Trazado 611489" d="M3354.674,165.022c-1.01,0-2.021.014-3.031,0a1.23,1.23,0,1,1-.012-2.45q3.073-.022,6.146,0a1.225,1.225,0,1,1,.012,2.446C3356.75,165.038,3355.712,165.022,3354.674,165.022Z" transform="translate(-114.571 -145.154)" fill="#030302"/>
      <path id="Trazado_611490" data-name="Trazado 611490" d="M3333.087,120.621a5.012,5.012,0,0,1-2.72-2.384,1.014,1.014,0,0,1,.406-1.356,1.214,1.214,0,0,1,1.5.019c.286.184.364.657.823.591.358-.333.7-.678,1.075-1a1.211,1.211,0,0,1,1.757.02,1.174,1.174,0,0,1-.029,1.692C3334.995,119.045,3334.36,120.211,3333.087,120.621Z" transform="translate(-101.095 -113.975)" fill="#060606"/>
      <path id="Trazado_611491" data-name="Trazado 611491" d="M3333.2,136.678c-.543-.014-1.087-.012-1.629-.045a1.13,1.13,0,0,1-1.165-1.123,1.146,1.146,0,0,1,1.086-1.282c.563-.07,1.136-.059,1.7-.084.405.02.812.016,1.214.064a1.208,1.208,0,0,1,1.17,1.3,1.176,1.176,0,0,1-1.245,1.137Z" transform="translate(-101.209 -126.073)" fill="#060606"/>
      <path id="Trazado_611492" data-name="Trazado 611492" d="M3333.2,150.916c-.489-.013-.978-.013-1.465-.04a1.235,1.235,0,0,1-1.333-1.239c0-.73.494-1.183,1.334-1.213.488-.017.977-.026,1.465-.038.378.012.757.026,1.135.036a1.169,1.169,0,0,1,1.244,1.135,1.219,1.219,0,0,1-1.166,1.309C3334.015,150.912,3333.606,150.9,3333.2,150.916Z" transform="translate(-101.21 -135.637)" fill="#060606"/>
      <path id="Trazado_611493" data-name="Trazado 611493" d="M3333.2,165.007c-.516-.01-1.033-.008-1.548-.035a1.223,1.223,0,1,1,0-2.446c.515-.027,1.032-.024,1.548-.034.406.01.813,0,1.217.035a1.222,1.222,0,0,1,0,2.442C3334.013,165,3333.605,165,3333.2,165.007Z" transform="translate(-101.207 -145.11)" fill="#060606"/>
    </g>
  </g>
</svg>
