<svg xmlns="http://www.w3.org/2000/svg" width="125" height="125" viewBox="0 0 125 125">
  <g id="Grupo_951872" data-name="Grupo 951872" transform="translate(-1157 -1862)">
    <circle id="Elipse_7655" data-name="Elipse 7655" cx="62.5" cy="62.5" r="62.5" transform="translate(1157 1862)" fill="#ef8b53"/>
    <g id="Grupo_930282" data-name="Grupo 930282" transform="translate(-1224.787 1145.505)">
      <path id="Trazado_611596" data-name="Trazado 611596" d="M2424.55,814.008c-.933-.242-1.181-.538-1.182-1.476,0-4.39-.082-8.783.021-13.171a10.922,10.922,0,0,1,6.655-10.235c1.781-.847,3.61-1.592,5.417-2.385.2-.088.4-.182.71-.327-.3-.129-.5-.215-.692-.294a9.214,9.214,0,0,1-3.875-14.131,13.977,13.977,0,0,0,3.1-6.663,29.922,29.922,0,0,0,.089-4.03,27.539,27.539,0,0,1,.724-7.77,17.959,17.959,0,0,1,35.2,4.9c.018,1.827,0,3.654,0,5.482a11.183,11.183,0,0,0,2.648,7.511,9.336,9.336,0,0,1-4.072,14.945c1.283.553,2.481,1.064,3.676,1.584a19.891,19.891,0,0,1,4.522,2.3,11.1,11.1,0,0,1,4.5,9.062c.032,5.3.008,10.608.009,15.913,0,1.011,0,1.011,1.013,1.044a1.884,1.884,0,0,1,.228.007,1.1,1.1,0,0,1,1.037,1.114,1.119,1.119,0,0,1-1.069,1.158c-.227.021-.457.007-.686.007H2408.04c-1.213,0-1.77-.374-1.749-1.174.02-.774.545-1.112,1.734-1.112q7.845,0,15.689,0c.279,0,.557-.017.836-.026,2.892.009,5.784.007,8.676.038.538.006.466-.253.428-.61-.606-5.67-1.217-11.34-1.794-17.013a3.369,3.369,0,0,1,3.493-3.931c.887-.023,1.777-.034,2.664.006.542.024.689-.17.682-.694-.028-1.826-.031-3.653,0-5.479.01-.6-.132-.682-.671-.442-2.2.98-4.412,1.916-6.613,2.885a8.97,8.97,0,0,0-5.761,8.836q-.015,6.354.006,12.708A1.281,1.281,0,0,1,2424.55,814.008ZM2447.1,782.3a8.4,8.4,0,0,1-4.238,3.733c-1.933.782-1.9.823-1.908,2.905a.7.7,0,0,0,.637.81,42.506,42.506,0,0,0,20.984.094c1.859-.461,1.83-.466,1.864-2.38a.891.891,0,0,0-.687-.986,11.244,11.244,0,0,1-4.284-2.5,8.216,8.216,0,0,1-1.686-3.181c-.076-.328-.239-.3-.495-.248a29.6,29.6,0,0,1-7.928.256c-.566-.028-1.237-.533-1.63-.166S2447.3,781.729,2447.1,782.3Zm8.97-27.592c-.536.382-1.065.774-1.61,1.143a30.248,30.248,0,0,1-11.938,4.858c-.347.06-.657.088-.651.619.033,2.917-.04,5.837.043,8.753a8.834,8.834,0,0,0,6.779,8.263,23.476,23.476,0,0,0,6.066.253,8.625,8.625,0,0,0,6.541-3.083,8.482,8.482,0,0,0,2.006-4.138c-.658.486-1.173.893-1.715,1.26a20.268,20.268,0,0,1-1.743,1.078,1.406,1.406,0,0,0-.7.72,3.129,3.129,0,0,1-2.666,1.991,14.347,14.347,0,0,1-3.644-.031,3.32,3.32,0,0,1,.374-6.592c.962-.042,1.928-.018,2.893-.013a3.094,3.094,0,0,1,2.663,1.366c.28.407.5.38.854.17a8.679,8.679,0,0,0,3.717-4,1.9,1.9,0,0,0,.175-.8c0-1.726-.013-3.451.006-5.176,0-.42-.1-.609-.547-.718a13.233,13.233,0,0,1-4.8-2.21c-.774-.572-.868-.915-.514-1.816.763-.58,1.063-.578,1.893-.008a12.651,12.651,0,0,0,8.276,2.185c.491-.034.632-.219.608-.7a15.78,15.78,0,0,0-4.862-10.889c-.329-.322-.483-.281-.722.089A31.663,31.663,0,0,1,2456.074,754.707Zm12.829,42.355c-.328-.017-.656-.048-.984-.048q-11.8,0-23.611,0c-2.919,0-5.839,0-8.759,0-1.147,0-1.507.4-1.4,1.547.1,1.061.213,2.12.325,3.179.49,4.615,1,9.228,1.454,13.846.063.634.315.689.836.688q14.814-.018,29.627-.01c.228,0,.456-.015.684-.023.964.008,1.928-.005,2.891.034.453.019.586-.112.633-.579.366-3.657.774-7.31,1.163-10.965.225-2.117.456-4.234.647-6.355a1.1,1.1,0,0,0-1.226-1.357C2470.421,797.005,2469.662,797.046,2468.9,797.063Zm-29.747-38.374v-.016a11.888,11.888,0,0,0,1.748-.011,28.332,28.332,0,0,0,20.114-12.716c.283-.42.241-.6-.195-.852a15.321,15.321,0,0,0-11.492-1.832,15.672,15.672,0,0,0-12.243,14.644c-.034.635.135.868.776.793A11.2,11.2,0,0,1,2439.156,758.688Zm27.561,29.06c0,2.261.009,4.365-.007,6.469,0,.418.175.508.546.5,1.269-.014,2.538,0,3.807-.006a3.584,3.584,0,0,1,2.465.83,3.863,3.863,0,0,1,1.122,3.679c-.6,5.468-1.177,10.938-1.776,16.407-.053.481.042.657.574.648,1.878-.033,3.756-.027,5.634,0,.47.006.65-.085.647-.611-.021-5.531.04-11.062-.036-16.592a8.35,8.35,0,0,0-4.4-7.518C2472.6,790.038,2469.649,789.067,2466.717,787.749Zm-27.111-21.255v-3.656c0-1.907,0-1.886-1.909-1.877-.526,0-.624.185-.621.658a28.322,28.322,0,0,1-.081,3.878,14.669,14.669,0,0,1-3.247,7.427,6.947,6.947,0,0,0-1.713,3.984,6.653,6.653,0,0,0,3.571,6.714,7.032,7.032,0,0,0,7.817-.492,5.125,5.125,0,0,0,1.957-2.822.817.817,0,0,0-.433-1.1,11,11,0,0,1-5.086-7.1A28.616,28.616,0,0,1,2439.606,766.493Zm28.831-3.1v-1.211c0-1.112,0-1.109-1.064-1.074a5.2,5.2,0,0,1-.912,0c-.559-.081-.673.161-.668.675.023,2.56.035,5.121,0,7.682a11.115,11.115,0,0,1-5.417,9.779.772.772,0,0,0-.389.98c.457,2.294,3.582,4.434,6.475,4.284a6.733,6.733,0,0,0,6.226-4.007,6.559,6.559,0,0,0-.9-7.339A14.345,14.345,0,0,1,2468.437,763.395Zm-15.754,31.337c3.169,0,6.338.011,9.508-.008.725,0,1.659.326,2.118-.148.419-.432.06-1.355.132-2.055.065-.632-.057-.817-.755-.632a43.773,43.773,0,0,1-20.765.49c-.614-.133-1.457-.55-1.791-.3-.45.337-.084,1.22-.167,1.861-.08.615.118.812.768.806C2445.38,794.715,2449.031,794.732,2452.682,794.732Zm2.085-22.652c-.432,0-.863,0-1.295,0a.99.99,0,0,0-1.094.936.953.953,0,0,0,.88,1.132,11.16,11.16,0,0,0,3.032-.012.932.932,0,0,0,.844-1.084,1,1,0,0,0-1.073-.969C2455.63,772.078,2455.2,772.082,2454.767,772.08Z" transform="translate(0 -0.061)" fill="#030303"/>
      <path id="Trazado_611597" data-name="Trazado 611597" d="M2466.131,921.957a1.281,1.281,0,0,0,1.111-1.465q-.027-6.354-.006-12.708a8.97,8.97,0,0,1,5.761-8.836c2.2-.969,4.417-1.906,6.613-2.885.539-.24.681-.159.671.442-.031,1.826-.028,3.653,0,5.479.008.524-.14.718-.682.694-.886-.04-1.776-.029-2.664-.006a3.369,3.369,0,0,0-3.493,3.931c.577,5.673,1.188,11.343,1.793,17.013.038.358.11.616-.428.61-2.892-.032-5.784-.029-8.676-.038Z" transform="translate(-41.581 -108.01)" fill="#8794d6"/>
      <path id="Trazado_611598" data-name="Trazado 611598" d="M2428.93,763.174c.589.356,1.123.646,1.622.989a1.464,1.464,0,0,1,.6,1.737,1.394,1.394,0,0,1-1.4,1.093c-3.957-.041-7.925.265-11.868-.134a13.23,13.23,0,1,1,14.8-14.875,13.164,13.164,0,0,1-3.528,10.9C2429.1,762.962,2429.039,763.043,2428.93,763.174Zm-8.449-20.3a8.215,8.215,0,0,0-2.422.046,10.94,10.94,0,0,0-.821,21.532c2.48.536,5,.213,7.509.25a10.748,10.748,0,0,0,2.1-.036c-.895-1.15-.845-1.881.139-2.834.182-.176.372-.346.54-.535,2.979-3.367,3.883-7.213,2.246-11.416A10.517,10.517,0,0,0,2420.481,742.871Z" transform="translate(-0.033)" fill="#030303"/>
      <path id="Trazado_611599" data-name="Trazado 611599" d="M2530.464,944.735c-.228.008-.456.024-.684.024q-14.813,0-29.627.01c-.521,0-.774-.055-.836-.688-.455-4.618-.964-9.231-1.454-13.846-.113-1.059-.23-2.118-.325-3.179-.1-1.146.257-1.544,1.4-1.546,2.919-.007,5.839,0,8.759,0q11.805,0,23.61,0c.328,0,.656.031.984.048-.06.482.2.922.13,1.423-.181,1.242-.3,2.493-.434,3.742-.127,1.2-.228,2.4-.358,3.6-.23,2.123-.472,4.245-.711,6.368Q2530.7,942.714,2530.464,944.735Zm-13.812-5.281a4.339,4.339,0,0,0,4.354-4.34,4.34,4.34,0,0,0-8.68-.012A4.31,4.31,0,0,0,2516.652,939.454Z" transform="translate(-63.392 -128.555)" fill="#edecee"/>
      <path id="Trazado_611600" data-name="Trazado 611600" d="M2538.695,788.764c-.354.9-.26,1.244.514,1.816a13.235,13.235,0,0,0,4.8,2.21c.451.109.551.3.547.718-.02,1.725-.01,3.451-.006,5.176a1.908,1.908,0,0,1-.175.8,8.679,8.679,0,0,1-3.717,4c-.359.21-.574.237-.854-.17a3.093,3.093,0,0,0-2.663-1.366c-.965,0-1.931-.029-2.893.013a3.32,3.32,0,0,0-.374,6.592,14.345,14.345,0,0,0,3.643.031,3.13,3.13,0,0,0,2.667-1.991,1.4,1.4,0,0,1,.7-.72,20.273,20.273,0,0,0,1.744-1.078c.542-.367,1.057-.773,1.715-1.26a8.48,8.48,0,0,1-2.007,4.138,8.625,8.625,0,0,1-6.541,3.083,23.476,23.476,0,0,1-6.066-.253,8.833,8.833,0,0,1-6.779-8.263c-.083-2.916-.01-5.835-.043-8.753-.006-.53.3-.559.651-.619a30.249,30.249,0,0,0,11.938-4.858c.544-.369,1.073-.762,1.61-1.143A14.527,14.527,0,0,1,2538.695,788.764Z" transform="translate(-81.033 -32.224)" fill="#f4cdbf"/>
      <path id="Trazado_611601" data-name="Trazado 611601" d="M2509.279,763.851a11.2,11.2,0,0,0-1.292.009c-.641.075-.81-.158-.776-.793a15.672,15.672,0,0,1,12.243-14.644,15.321,15.321,0,0,1,11.492,1.832c.436.254.478.431.195.852a28.331,28.331,0,0,1-20.114,12.716,11.888,11.888,0,0,1-1.748.011Z" transform="translate(-70.122 -5.224)" fill="#bb9191"/>
      <path id="Trazado_611602" data-name="Trazado 611602" d="M2604.3,895.152c2.932,1.319,5.886,2.29,8.571,3.805a8.35,8.35,0,0,1,4.4,7.518c.076,5.53.015,11.061.037,16.592,0,.526-.177.617-.647.611-1.878-.024-3.756-.03-5.634,0-.532.01-.627-.167-.574-.648.6-5.468,1.172-10.939,1.776-16.407a3.863,3.863,0,0,0-1.123-3.679,3.583,3.583,0,0,0-2.465-.83c-1.269.007-2.538-.008-3.807.006-.372,0-.55-.086-.546-.5C2604.31,899.517,2604.3,897.413,2604.3,895.152Z" transform="translate(-137.584 -107.464)" fill="#8894d7"/>
      <path id="Trazado_611603" data-name="Trazado 611603" d="M2498.188,812.893a28.617,28.617,0,0,0,.254,5.612,11,11,0,0,0,5.086,7.1.817.817,0,0,1,.433,1.1,5.125,5.125,0,0,1-1.957,2.822,7.032,7.032,0,0,1-7.817.492,6.653,6.653,0,0,1-3.571-6.714,6.947,6.947,0,0,1,1.713-3.984,14.667,14.667,0,0,0,3.247-7.427,28.321,28.321,0,0,0,.081-3.878c0-.472.1-.656.621-.658,1.909-.009,1.909-.031,1.909,1.877Z" transform="translate(-58.582 -46.46)" fill="#bb9190"/>
      <path id="Trazado_611604" data-name="Trazado 611604" d="M2590.631,810.1a14.346,14.346,0,0,0,3.36,9.766,6.558,6.558,0,0,1,.9,7.339,6.734,6.734,0,0,1-6.226,4.007c-2.893.15-6.019-1.989-6.475-4.284a.772.772,0,0,1,.389-.98,11.116,11.116,0,0,0,5.417-9.779c.031-2.56.019-5.122,0-7.682,0-.514.109-.756.668-.675a5.2,5.2,0,0,0,.912,0c1.064-.036,1.064-.038,1.064,1.074Z" transform="translate(-122.195 -46.763)" fill="#bb9191"/>
      <path id="Trazado_611605" data-name="Trazado 611605" d="M2538.417,878.966a11.244,11.244,0,0,0,4.284,2.5.891.891,0,0,1,.687.986c-.034,1.914-.005,1.919-1.864,2.38a42.506,42.506,0,0,1-20.984-.094.7.7,0,0,1-.637-.81c.013-2.083-.025-2.123,1.908-2.905a8.4,8.4,0,0,0,4.238-3.732,9.715,9.715,0,0,0,4.321,1.847,51.462,51.462,0,0,0,5.665.142A7.93,7.93,0,0,0,2538.417,878.966Z" transform="translate(-78.944 -95.055)" fill="#f4cdbf"/>
      <path id="Trazado_611606" data-name="Trazado 611606" d="M2571.028,771.154a14.527,14.527,0,0,0-1.588-1.893,31.663,31.663,0,0,0,6.781-7.427c.239-.37.393-.411.722-.089a15.779,15.779,0,0,1,4.862,10.889c.024.48-.117.665-.608.7a12.651,12.651,0,0,1-8.276-2.185C2572.091,770.576,2571.791,770.574,2571.028,771.154Z" transform="translate(-113.366 -14.614)" fill="#af8180"/>
      <path id="Trazado_611607" data-name="Trazado 611607" d="M2605.481,944.748q.229-2.021.458-4.042c.239-2.123.481-4.245.711-6.368.13-1.2.231-2.4.358-3.6.132-1.249.253-2.5.434-3.742.073-.5-.191-.941-.13-1.423.759-.016,1.519-.057,2.277-.043a1.1,1.1,0,0,1,1.226,1.357c-.191,2.121-.422,4.238-.647,6.355-.389,3.655-.8,7.308-1.163,10.965-.047.467-.18.6-.633.579C2607.409,944.743,2606.445,944.756,2605.481,944.748Z" transform="translate(-138.409 -128.569)" fill="#e2dfe3"/>
      <path id="Trazado_611608" data-name="Trazado 611608" d="M2531.491,911.409c-3.651,0-7.3-.017-10.953.016-.649.006-.848-.191-.768-.806.083-.641-.283-1.524.167-1.861.334-.251,1.177.166,1.791.3a43.772,43.772,0,0,0,20.765-.49c.7-.186.82,0,.755.632-.072.7.287,1.622-.132,2.055-.459.474-1.393.143-2.118.148C2537.83,911.42,2534.66,911.409,2531.491,911.409Z" transform="translate(-78.809 -116.738)" fill="#f1f1f1"/>
      <path id="Trazado_611609" data-name="Trazado 611609" d="M2552.411,874.868a7.928,7.928,0,0,1-2.383.317,51.456,51.456,0,0,1-5.665-.142,9.716,9.716,0,0,1-4.321-1.847c.2-.571.24-1.3.629-1.667s1.063.138,1.63.166a29.6,29.6,0,0,0,7.928-.256c.256-.056.419-.08.495.248A8.218,8.218,0,0,0,2552.411,874.868Z" transform="translate(-92.939 -90.957)" fill="#f2b1a1"/>
      <path id="Trazado_611610" data-name="Trazado 611610" d="M2559.69,843.8c.432,0,.863,0,1.294,0a1,1,0,0,1,1.073.969.932.932,0,0,1-.844,1.084,11.16,11.16,0,0,1-3.032.012.953.953,0,0,1-.88-1.132.99.99,0,0,1,1.094-.936C2558.827,843.806,2559.259,843.8,2559.69,843.8Z" transform="translate(-104.924 -71.783)" fill="#635c64"/>
      <path id="Trazado_611611" data-name="Trazado 611611" d="M2429.917,769.947c-2.5-.037-5.029.286-7.509-.25a10.939,10.939,0,0,1,.821-21.532,8.216,8.216,0,0,1,2.423-.046c.038.21.224.26.376.341a11.147,11.147,0,0,1,5.061,5.354,11.836,11.836,0,0,1-1.16,12.331A2.792,2.792,0,0,0,2429.917,769.947Zm-8.617-10.969a1.131,1.131,0,1,0-1.135,1.16A1.122,1.122,0,0,0,2421.3,758.978Zm3.421-1.1a1.131,1.131,0,1,0,.042,2.261,1.131,1.131,0,0,0-.042-2.261Zm5.72,1.193a1.131,1.131,0,1,0-1.226,1.063A1.126,1.126,0,0,0,2430.441,759.07Z" transform="translate(-5.203 -5.248)" fill="#8bc5a7"/>
      <path id="Trazado_611612" data-name="Trazado 611612" d="M2456.953,770.109a2.792,2.792,0,0,1,.012-3.8,11.836,11.836,0,0,0,1.16-12.331,11.147,11.147,0,0,0-5.061-5.354c-.152-.081-.339-.131-.376-.341a10.517,10.517,0,0,1,9.289,7.007c1.637,4.2.733,8.05-2.246,11.416-.167.189-.358.359-.54.535-.984.953-1.033,1.683-.139,2.834A10.745,10.745,0,0,1,2456.953,770.109Z" transform="translate(-32.24 -5.41)" fill="#71b993"/>
      <path id="Trazado_611613" data-name="Trazado 611613" d="M2550.368,951.461a4.31,4.31,0,0,1-4.326-4.352,4.34,4.34,0,1,1,4.326,4.352Zm.038-2.288a2.058,2.058,0,0,0,2.027-2.033,2.1,2.1,0,0,0-2.09-2.065,2.07,2.07,0,0,0-2.011,2.129A2.021,2.021,0,0,0,2550.405,949.173Z" transform="translate(-97.107 -140.563)" fill="#030303"/>
      <path id="Trazado_611614" data-name="Trazado 611614" d="M2433.28,781.362a1.131,1.131,0,0,1-2.26.063,1.131,1.131,0,1,1,2.26-.063Z" transform="translate(-17.183 -27.631)" fill="#030303"/>
      <path id="Trazado_611615" data-name="Trazado 611615" d="M2447.1,780.26a1.131,1.131,0,1,1-1.111,1.191A1.123,1.123,0,0,1,2447.1,780.26Z" transform="translate(-27.587 -27.631)" fill="#030303"/>
      <path id="Trazado_611616" data-name="Trazado 611616" d="M2463.234,781.453a1.131,1.131,0,0,1-2.26-.12,1.131,1.131,0,1,1,2.26.12Z" transform="translate(-37.996 -27.631)" fill="#030303"/>
      <path id="Trazado_611617" data-name="Trazado 611617" d="M2555.617,954.385a2.021,2.021,0,0,1-2.074-1.969,2.07,2.07,0,0,1,2.011-2.129,2.1,2.1,0,0,1,2.09,2.065A2.058,2.058,0,0,1,2555.617,954.385Z" transform="translate(-102.319 -145.775)" fill="#c2bac2"/>
    </g>
  </g>
</svg>
