<svg id="Grupo_930464" data-name="Grupo 930464" xmlns="http://www.w3.org/2000/svg" width="82.563" height="82.563" viewBox="0 0 82.563 82.563">
  <g id="Grupo_930463" data-name="Grupo 930463" transform="translate(7.936 8.111)">
    <path id="Trazado_611933" data-name="Trazado 611933" d="M-430.361,499.205q0,1.3,0,2.6c-.77.18-.991.429-1,1.2-.012,1.217-.024,2.436.008,3.652.012.428-.105.6-.536.679a8.647,8.647,0,0,0-7.065,7.092c-.11.6.21,1.454-.3,1.743s-1.27.069-1.922.068l-12.46-.025q0-14.177-.011-28.353a1.578,1.578,0,0,1,.516-1.209c1.273-1.252,2.531-2.52,3.791-3.786.165-.166.387-.3.41-.568l9.8,0,.13.1c.029.127.069.252.086.38.18,1.362.727,1.841,2.115,1.843a5.939,5.939,0,0,0,1.044-.01,1.171,1.171,0,0,1,1.529,1.011c.089.338.122.534-.151.781-.483.439-.94.908-1.389,1.383a1.719,1.719,0,0,0-.113,2.467,16.082,16.082,0,0,0,1.658,1.756c.81.759,1.653,1.321,2.849.593,0,1.847,0,3.587,0,5.327C-431.357,498.77-431.151,499.018-430.361,499.205Zm-14.316-4.952c-2.222,0-4.443-.006-6.665,0-.824,0-1.3.53-1.11,1.221.159.583.619.739,1.163.739h12.807c.174,0,.35.009.522-.007a1.021,1.021,0,0,0,1.026-.979.986.986,0,0,0-1.079-.972C-440.234,494.248-442.455,494.254-444.677,494.253Zm0-2.805h2.483c1.416,0,2.832.01,4.248-.009a.968.968,0,0,0,1.015-.97,1.017,1.017,0,0,0-.959-.977,4.9,4.9,0,0,0-.522-.007H-447.5c-1.285,0-2.571-.008-3.856,0-.662.006-1.059.327-1.12.859-.076.664.349,1.094,1.129,1.1C-449.122,491.453-446.9,491.448-444.678,491.448Zm-.066,7.532c-2.222,0-4.444-.007-6.666,0a.941.941,0,0,0-1.07.965c0,.583.395.954,1.062.992.065,0,.131,0,.2,0q6.5,0,13.005,0c.806,0,1.281-.371,1.284-.984s-.456-.975-1.276-.976Q-441.476,498.975-444.744,498.98Zm.063,6.714c2.2,0,4.4,0,6.6,0,.708,0,1.149-.391,1.148-.972a1,1,0,0,0-1.087-.982q-6.7-.015-13.4,0a.954.954,0,0,0-1.045.794c-.137.681.315,1.159,1.115,1.162C-449.124,505.7-446.9,505.694-444.68,505.694Zm-3.775,2.805c-.956,0-1.912-.007-2.868,0-.751.008-1.141.336-1.155.941-.015.629.4,1.011,1.162,1.016q2.868.018,5.736,0c.726-.006,1.124-.384,1.123-.989s-.391-.957-1.13-.966C-446.543,508.491-447.5,508.5-448.455,508.5Z" transform="translate(460.05 -467.151)" fill="#f9eeda"/>
    <path id="Trazado_611934" data-name="Trazado 611934" d="M-457.184,439.6l-9.8,0c-1.11-.008-2.221,0-3.33-.033a1.2,1.2,0,0,0-.971.4q-2.177,2.211-4.392,4.384a1.441,1.441,0,0,0-.472,1.139q.021,13.586.01,27.172c0,.109.007.218,0,.326-.028.383.133.558.53.553,1.306-.018,2.612-.02,3.918-.028l12.46.025c.652,0,1.429.213,1.922-.068s.186-1.143.3-1.743a8.647,8.647,0,0,1,7.065-7.092c.431-.081.547-.251.536-.679-.033-1.217-.02-2.435-.008-3.652.008-.773.229-1.022,1-1.2a1.019,1.019,0,0,1,.963,1.166c-.01,1.22.029,2.441-.018,3.658-.02.52.181.65.64.73a8.647,8.647,0,0,1,7.036,8.393,8.7,8.7,0,0,1-6.987,8.585,8.658,8.658,0,0,1-9.8-5.558c-.159-.442-.334-.628-.812-.588a12.444,12.444,0,0,1-1.633,0c-.339-.017-.469.084-.44.433a2.733,2.733,0,0,1-.047.778.882.882,0,0,1-.935.747.914.914,0,0,1-.949-.816c-.008-.043-.013-.086-.018-.129-.109-1.006-.109-1.006-1.106-1.006h-12.94a2.345,2.345,0,0,1-2.637-2.658q0-13.753-.011-27.506a2.948,2.948,0,0,1,.938-2.263q2.317-2.256,4.575-4.573a2.824,2.824,0,0,1,2.151-.9c4.269.018,8.539,0,12.809.019.486,0,.673-.112.715-.62a1.676,1.676,0,0,1,1.75-1.585c.652-.03,1.307-.028,1.96,0,.375.015.625-.059.707-.468a1.55,1.55,0,0,1,.218-.541c.214-.32.118-.527-.146-.768-.482-.439-.938-.909-1.387-1.383a1.716,1.716,0,0,1-.1-2.465,13.275,13.275,0,0,1,2.262-2.255,1.722,1.722,0,0,1,2.417.117c.493.461.972.938,1.43,1.434a.5.5,0,0,0,.725.122,1.672,1.672,0,0,1,.539-.226c.432-.086.517-.343.5-.746-.034-.63-.021-1.263-.006-1.894a1.752,1.752,0,0,1,1.68-1.813,14.363,14.363,0,0,1,3.128,0,1.758,1.758,0,0,1,1.7,1.8c.023.674.026,1.351,0,2.025a.51.51,0,0,0,.419.606,2.223,2.223,0,0,1,.6.248c.327.209.532.1.771-.161.441-.481.912-.936,1.386-1.386a1.723,1.723,0,0,1,2.416-.13,13.092,13.092,0,0,1,2.3,2.3,1.726,1.726,0,0,1-.087,2.372,11.325,11.325,0,0,1-1.157,1.152.991.991,0,0,0-.3,1.416c.235.481.445.7.983.648a14.47,14.47,0,0,1,1.567-.009,1.762,1.762,0,0,1,1.978,1.781c.04.337.155.456.484.425a3.822,3.822,0,0,1,.718,0,.974.974,0,0,1,.935.985.962.962,0,0,1-.949.965.989.989,0,0,1-.261,0c-.685-.128-.936.122-.962.845a1.622,1.622,0,0,1-1.683,1.5c-.7.021-1.395.026-2.091,0-.338-.014-.451.134-.617.407a1.244,1.244,0,0,0,.411,1.9,6.481,6.481,0,0,1,.972.966,1.706,1.706,0,0,1,.1,2.269,12.753,12.753,0,0,1-2.393,2.4,1.7,1.7,0,0,1-2.366-.149c-.491-.463-.972-.938-1.43-1.433a.494.494,0,0,0-.723-.13,1.859,1.859,0,0,1-.541.22.57.57,0,0,0-.495.692c.039.607.017,1.219.009,1.829a1.753,1.753,0,0,1-1.7,1.927,11.955,11.955,0,0,1-3.256-.015,1.7,1.7,0,0,1-1.555-1.717c-.023-.7,0-1.394-.008-2.091,0-.323-.98-1.027-1.27-.9-.237.1-.118.345-.119.519-.009,2.221,0,4.443-.008,6.664,0,.821-.174,1.026-.959,1.232-.79-.187-1-.435-1-1.271-.007-1.74,0-3.48,0-5.327-1.2.728-2.039.166-2.849-.593a16.085,16.085,0,0,1-1.658-1.756,1.719,1.719,0,0,1,.113-2.467c.449-.474.906-.944,1.389-1.383.273-.247.24-.443.151-.781a1.171,1.171,0,0,0-1.529-1.011,5.936,5.936,0,0,1-1.044.01c-1.388,0-1.935-.482-2.115-1.843-.017-.128-.057-.254-.086-.38C-457.04,439.6-457.1,439.583-457.184,439.6Zm9.02,26.907a4.95,4.95,0,0,0-1.872.132,6.717,6.717,0,0,0-5.043,7.545,6.677,6.677,0,0,0,6.916,5.617,2.029,2.029,0,0,0,.26.012,6.723,6.723,0,0,0,5.976-8.128A6.611,6.611,0,0,0-448.164,466.509Zm6.675-18.7c.355-.684,1.023-.917,1.651-1.277,1.605-.922,2.786-.544,3.909.821.8.972.876.909,1.777.011.924-.921.982-.989-.017-1.83a2.713,2.713,0,0,1-.826-3.8c.783-1.509.915-1.764,2.624-1.764,1.977,0,2.068-.115,1.82-2.1-.048-.386-.188-.515-.577-.5-.651.031-1.305.011-1.958.006a1.651,1.651,0,0,1-1.619-1.094c-.229-.539-.454-1.081-.67-1.625a1.691,1.691,0,0,1,.351-1.928c.316-.33.643-.649.966-.972.827-.829.827-.829-.007-1.677-.971-.987-1.032-1.04-1.932,0-1.067,1.235-2.189,1.751-3.678.77a1.193,1.193,0,0,0-.365-.136,2.074,2.074,0,0,1-1.44-1.212c-.011-.435-.032-.87-.033-1.305,0-1.895-.179-2.043-2.1-1.757a.391.391,0,0,1-.064.01c-.331-.007-.445.147-.434.481.023.674.013,1.35,0,2.025a1.663,1.663,0,0,1-1.1,1.618c-.541.227-1.082.454-1.626.675a1.726,1.726,0,0,1-1.935-.35c-.258-.234-.5-.489-.743-.735-1.073-1.072-1.073-1.072-2.134.012-.742.758-.8.831.032,1.5,1.438,1.158,1.877,2.372.922,4.117-.692,1.266-.889,1.582-2.35,1.583h-.588c-1.465,0-1.465,0-1.454,1.458.008,1.134.008,1.134,1.107,1.134h.719c1.716,0,1.839.239,2.631,1.761a2.716,2.716,0,0,1-.822,3.81c-1,.839-.939.907-.01,1.834.885.883.956.942,1.745-.007,1.12-1.346,2.263-1.72,3.915-.846,1.432.757,1.7.9,1.7,2.539,0,2.022,0,2.022,2.049,1.876a.492.492,0,0,1,.065,0c.361.02.491-.143.485-.509C-441.52,449.554-441.5,448.683-441.489,447.813Z" transform="translate(478.113 -424.453)" fill="#030303"/>
    <path id="Trazado_611935" data-name="Trazado 611935" d="M-305.437,557.442a1.12,1.12,0,0,1-1.335.946,7.269,7.269,0,0,0-.915,0c-.432.021-1.127-.183-1.24.08a4.1,4.1,0,0,0-.075,1.671c.013.362.33.2.508.2,1.612.013,3.224.008,4.836.008,1.547,0,3.093,0,4.64,0a1.664,1.664,0,0,1,1.851,1.857q.008,3.365,0,6.73a1.661,1.661,0,0,1-1.814,1.836q-11.013.011-22.025,0a1.64,1.64,0,0,1-1.794-1.783c-.007-.457,0-.915,0-1.372-.006-.535.107-1.047-.545-1.421-.515-.3-.364-1.156.215-1.471a.564.564,0,0,0,.334-.608c-.009-.675-.011-1.35,0-2.025a1.626,1.626,0,0,1,1.763-1.741c3.159-.008,6.318-.016,9.477.011.507,0,.606-.14.6-.614-.028-1.363-.006-1.363-1.4-1.363q-4.248,0-8.5,0c-1.341,0-1.94-.6-1.941-1.958q0-3.2,0-6.4c0-1.482.573-2.061,2.041-2.062,3.05,0,6.1-.012,9.15.011.5,0,.664-.1.649-.633-.037-1.346-.008-1.346-1.375-1.346q-4.248,0-8.5,0c-1.4,0-1.967-.574-1.968-1.989q0-3.234,0-6.469c0-1.353.584-1.944,1.953-1.948q4.64-.013,9.28.006c.485,0,.76.005.618-.636a5.465,5.465,0,0,1-.007-1.562.929.929,0,0,1,.981-.925.914.914,0,0,1,.95.949,7.455,7.455,0,0,1-.017,1.629c-.092.534.122.547.534.543,1.786-.017,3.573-.007,5.359-.007,1.329,0,2.658-.006,3.987,0,1.409.008,2,.592,2,1.978q0,3.267,0,6.534a1.664,1.664,0,0,1-1.874,1.893c-3.094.006-6.187.014-9.281-.01-.518,0-.723.09-.706.662.038,1.317.007,1.318,1.332,1.318q4.248,0,8.5,0c1.431,0,2.031.6,2.032,2.013q0,3.267,0,6.534a1.679,1.679,0,0,1-1.9,1.877c-.828,0-1.657-.025-2.483.009a1.138,1.138,0,0,1-1.334-.949c.222-.836.453-1.016,1.32-1.02.587,0,1.177-.036,1.76.01.52.041.7-.082.689-.653-.044-1.716-.039-3.434,0-5.151.012-.555-.1-.728-.7-.723-4.065.031-8.131.013-12.2.017-1.8,0-3.607.018-5.411.027-1-.012-2-.011-3-.042-.361-.011-.432.141-.43.462q.016,2.8,0,5.609c0,.321.061.465.424.454,1-.03,2-.023,3-.03q5.335.009,10.671.02C-305.89,556.424-305.66,556.606-305.437,557.442Zm-11.986,4.888c-1-.008-2,0-2.994-.031-.362-.01-.429.145-.428.463q.015,2.8,0,5.6c0,.319.073.475.432.465,1-.028,2-.028,2.993-.038,2.151.009,4.3.024,6.453.026q5.608.007,11.215,0c.313,0,.645.1.636-.449-.033-1.977-.023-3.954-.03-5.931.011-.085-.024-.123-.111-.108-1.96-.006-3.921-.018-5.881-.016Q-311.279,562.315-317.423,562.33Zm7.451-18.306v0c3.418,0,6.835-.011,10.253.012.492,0,.614-.123.606-.609-.031-1.784-.027-3.569,0-5.353.006-.434-.124-.539-.546-.538q-10.318.022-20.636.005c-.424,0-.552.109-.547.541.024,1.784.032,3.569,0,5.353-.01.513.156.6.623.6C-316.807,544.015-313.389,544.024-309.972,544.024Z" transform="translate(364.109 -504.18)" fill="#020303"/>
    <path id="Trazado_611936" data-name="Trazado 611936" d="M-299.845,599.1c1.8-.01,3.607-.026,5.411-.028,4.065,0,8.131.013,12.2-.017.6,0,.713.168.7.723-.037,1.716-.042,3.435,0,5.15.015.572-.169.695-.689.653-.583-.046-1.173-.013-1.76-.01-.868,0-1.1.184-1.32,1.02h-2.558c-.223-.836-.453-1.018-1.317-1.02q-5.335-.012-10.671-.02,0-1.127.009-2.254,7.212.011,14.425.018c.755,0,1.179-.4,1.159-1.028-.02-.6-.417-.931-1.168-.931q-7.213,0-14.425,0Q-299.847,600.228-299.845,599.1Z" transform="translate(346.534 -553.327)" fill="#f7d348"/>
    <path id="Trazado_611937" data-name="Trazado 611937" d="M-414.366,633.64a7.427,7.427,0,0,1,.006-.847.886.886,0,0,1,.9-.855.868.868,0,0,1,.994.821,10.425,10.425,0,0,1,.009,1.822.882.882,0,0,1-.967.861.9.9,0,0,1-.945-.889c-.03-.3-.005-.608-.005-.913Z" transform="translate(431.07 -577.599)" fill="#050504"/>
    <path id="Trazado_611938" data-name="Trazado 611938" d="M-395.676,656.989c-.261,0-.522.014-.782,0a.894.894,0,0,1-.925-.9.866.866,0,0,1,.807-1.005,9.408,9.408,0,0,1,1.884,0,.865.865,0,0,1,.8,1.012.879.879,0,0,1-.869.887c-.3.027-.608,0-.912,0Z" transform="translate(418.527 -594.646)" fill="#050504"/>
    <path id="Trazado_611939" data-name="Trazado 611939" d="M-377.206,656.9c-.283,0-.567.022-.847-.005a.88.88,0,0,1-.863-.894.867.867,0,0,1,.743-1,5.8,5.8,0,0,1,2.01,0,.865.865,0,0,1,.736,1,.879.879,0,0,1-.867.889C-376.6,656.924-376.9,656.9-377.206,656.9Z" transform="translate(404.896 -594.564)" fill="#050504"/>
    <path id="Trazado_611940" data-name="Trazado 611940" d="M-358.689,655.086a5.921,5.921,0,0,1,.91.008.894.894,0,0,1,.829.994.879.879,0,0,1-.9.921,15.9,15.9,0,0,1-1.694,0,.876.876,0,0,1-.892-.931.9.9,0,0,1,.841-.985,6.167,6.167,0,0,1,.91-.008Z" transform="translate(391.258 -594.674)" fill="#050504"/>
    <path id="Trazado_611941" data-name="Trazado 611941" d="M-340.276,656.885a6.673,6.673,0,0,1-.911-.008.866.866,0,0,1-.791-.891.852.852,0,0,1,.691-.969,5.248,5.248,0,0,1,2.134.007.851.851,0,0,1,.666.986.866.866,0,0,1-.812.871,8.483,8.483,0,0,1-.977.007Z" transform="translate(377.63 -594.557)" fill="#050504"/>
    <path id="Trazado_611942" data-name="Trazado 611942" d="M-273.366,515.761a8.254,8.254,0,0,1-.007.911.883.883,0,0,1-.923.835.859.859,0,0,1-.952-.72,5.57,5.57,0,0,1,0-2.073.858.858,0,0,1,1.023-.7.863.863,0,0,1,.849.832A8.391,8.391,0,0,1-273.366,515.761Z" transform="translate(328.446 -490.557)" fill="#050504"/>
    <path id="Trazado_611943" data-name="Trazado 611943" d="M-273.373,497.344a6.688,6.688,0,0,1-.008.911.873.873,0,0,1-.9.789.861.861,0,0,1-.965-.7,5.56,5.56,0,0,1-.006-2.073.858.858,0,0,1,1.01-.717.859.859,0,0,1,.863.817,8.667,8.667,0,0,1,.007.977Z" transform="translate(328.446 -476.928)" fill="#050504"/>
    <path id="Trazado_611944" data-name="Trazado 611944" d="M-274.533,479.477c.024.868-.3,1.313-.883,1.367s-1-.342-1.067-1.051a1.92,1.92,0,0,0-.286-.847.938.938,0,0,1,.244-1.324.979.979,0,0,1,1.383.25A2.665,2.665,0,0,1-274.533,479.477Z" transform="translate(329.624 -463.56)" fill="#050504"/>
    <path id="Trazado_611945" data-name="Trazado 611945" d="M-412.887,650.338c.569,0,2.067,1.544,2.042,2.1a.961.961,0,0,1-1.241.894,2.573,2.573,0,0,1-1.732-1.806A.927.927,0,0,1-412.887,650.338Z" transform="translate(430.684 -591.182)" fill="#050504"/>
    <path id="Trazado_611946" data-name="Trazado 611946" d="M-466.163,516.137c-1.306.008-2.612.01-3.918.028-.4.005-.559-.169-.53-.553.008-.108,0-.218,0-.326q0-13.586-.01-27.172a1.441,1.441,0,0,1,.472-1.139q2.22-2.167,4.392-4.384a1.2,1.2,0,0,1,.971-.4c1.109.034,2.22.025,3.33.033-.023.271-.245.4-.41.568-1.26,1.266-2.518,2.534-3.791,3.786a1.578,1.578,0,0,0-.516,1.209Q-466.157,501.96-466.163,516.137Z" transform="translate(472.582 -467.067)" fill="#f4e1c3"/>
    <path id="Trazado_611947" data-name="Trazado 611947" d="M-441.442,527.939c2.222,0,4.443-.006,6.665,0a.986.986,0,0,1,1.079.972,1.021,1.021,0,0,1-1.026.979c-.173.016-.348.007-.522.007h-12.807c-.544,0-1-.156-1.163-.739-.189-.691.285-1.218,1.11-1.221C-445.885,527.933-443.663,527.939-441.442,527.939Z" transform="translate(456.814 -500.836)" fill="#050504"/>
    <path id="Trazado_611948" data-name="Trazado 611948" d="M-441.41,511.689c-2.222,0-4.444.005-6.666,0-.78,0-1.205-.433-1.129-1.1.061-.532.459-.853,1.12-.859,1.285-.011,2.57,0,3.856,0h9.084a4.9,4.9,0,0,1,.522.007,1.016,1.016,0,0,1,.959.977.968.968,0,0,1-1.015.97c-1.416.019-2.832.008-4.248.009Z" transform="translate(456.782 -487.392)" fill="#050504"/>
    <path id="Trazado_611949" data-name="Trazado 611949" d="M-441.469,545.985q3.268,0,6.535,0c.82,0,1.28.36,1.276.976s-.478.984-1.284.984q-6.5,0-13.005,0c-.065,0-.131,0-.2,0-.667-.039-1.063-.409-1.062-.992a.941.941,0,0,1,1.07-.965C-445.913,545.979-443.691,545.985-441.469,545.985Z" transform="translate(456.776 -514.156)" fill="#050504"/>
    <path id="Trazado_611950" data-name="Trazado 611950" d="M-441.423,566.1c-2.222,0-4.444.005-6.666,0-.8,0-1.252-.481-1.115-1.162a.954.954,0,0,1,1.045-.794q6.7-.009,13.4,0a1,1,0,0,1,1.087.982c0,.581-.439.969-1.148.972C-437.023,566.1-439.223,566.1-441.423,566.1Z" transform="translate(456.793 -527.552)" fill="#050504"/>
    <path id="Trazado_611951" data-name="Trazado 611951" d="M-445.18,582.333c.956,0,1.912-.009,2.868,0,.739.009,1.13.355,1.13.966s-.4.984-1.123.989q-2.868.022-5.736,0c-.766,0-1.178-.387-1.163-1.016.014-.605.4-.933,1.155-.941C-447.092,582.326-446.136,582.333-445.18,582.333Z" transform="translate(456.775 -540.985)" fill="#050504"/>
    <path id="Trazado_611952" data-name="Trazado 611952" d="M-398.2,482.281c.086-.019.144,0,.13.1Z" transform="translate(419.124 -467.131)" fill="#f4e1c3"/>
    <path id="Trazado_611953" data-name="Trazado 611953" d="M-376.6,453.1c-.008.871-.032,1.741-.018,2.611.006.366-.124.529-.485.509a.5.5,0,0,0-.065,0c-2.049.146-2.049.146-2.049-1.876,0-1.639-.265-1.782-1.7-2.539-1.652-.874-2.795-.5-3.915.846-.789.948-.86.89-1.746.007-.929-.927-.987-1,.01-1.834a2.716,2.716,0,0,0,.822-3.81c-.791-1.522-.915-1.761-2.631-1.761h-.719c-1.1,0-1.1,0-1.107-1.134-.01-1.458-.01-1.458,1.454-1.458h.588c1.461,0,1.657-.317,2.35-1.583.955-1.745.515-2.959-.922-4.117-.834-.671-.775-.745-.032-1.5,1.061-1.084,1.061-1.084,2.134-.012.246.246.485.5.743.735a1.726,1.726,0,0,0,1.935.35c.544-.22,1.085-.448,1.626-.675a1.663,1.663,0,0,0,1.1-1.618c.011-.675.02-1.351,0-2.025-.011-.334.1-.488.434-.481a.386.386,0,0,0,.064-.01c1.924-.286,2.1-.138,2.1,1.757,0,.435.021.87.033,1.305a15.421,15.421,0,0,0-1.42.791,4.448,4.448,0,0,0-1.735,1.692c-.163.059-.326.119-.489.177a6.953,6.953,0,0,0-4.61,6.548,6.963,6.963,0,0,0,5.1,6.648.511.511,0,0,0,.17.465A9.785,9.785,0,0,0-376.6,453.1Z" transform="translate(413.221 -429.735)" fill="#6d8994"/>
    <path id="Trazado_611954" data-name="Trazado 611954" d="M-373.654,585.036a6.611,6.611,0,0,1,6.238,5.178,6.723,6.723,0,0,1-5.976,8.128,2.029,2.029,0,0,1-.26-.012c-.435-.6-1.118-.928-1.6-1.488a7.433,7.433,0,0,1-1.917-4.294q.933.911,1.865,1.822c.641.622,1.091.627,1.733-.008q1.809-1.791,3.6-3.6c.565-.569.622-1.086.194-1.541s-1.029-.4-1.593.159c-.9.888-1.8,1.769-2.669,2.684-.326.344-.507.3-.818-.014a20.857,20.857,0,0,0-2.255-2.163c.054-.064.142-.121.158-.193a6.919,6.919,0,0,1,1.844-3.3A12.217,12.217,0,0,0-373.654,585.036Z" transform="translate(403.603 -542.98)" fill="#66dda0"/>
    <path id="Trazado_611955" data-name="Trazado 611955" d="M-350.274,445.7a4.449,4.449,0,0,1,1.735-1.692,15.446,15.446,0,0,1,1.42-.791,2.073,2.073,0,0,0,1.44,1.212,1.194,1.194,0,0,1,.365.136c1.489.981,2.611.465,3.678-.77.9-1.041.961-.989,1.932,0,.834.848.834.848.007,1.677-.323.323-.65.642-.966.972a1.691,1.691,0,0,0-.351,1.928c.216.545.441,1.086.67,1.625a1.651,1.651,0,0,0,1.619,1.094c.653,0,1.307.025,1.958-.006.389-.019.529.111.577.5.248,1.988.157,2.1-1.82,2.1-1.709,0-1.842.255-2.624,1.764a2.713,2.713,0,0,0,.826,3.8c1,.841.941.909.017,1.83-.9.9-.978.961-1.777-.011-1.123-1.365-2.3-1.743-3.909-.821-.628.36-1.3.594-1.651,1.277a9.782,9.782,0,0,1-2.972-1.989.51.51,0,0,1-.17-.465,6.708,6.708,0,0,0,7.018-2.15,6.629,6.629,0,0,0,1.327-6.814c-.338-1.033-.633-1.188-1.681-1a3.468,3.468,0,0,0-1.824-1.7c.1-1.138-.084-1.389-1.187-1.69A7.309,7.309,0,0,0-350.274,445.7Z" transform="translate(383.754 -438.167)" fill="#809dac"/>
    <path id="Trazado_611956" data-name="Trazado 611956" d="M-383.434,584.928a12.2,12.2,0,0,1-1.453,1.355,6.919,6.919,0,0,0-1.845,3.3c-.016.072-.1.129-.157.193a1.041,1.041,0,0,0-1.19.557,1.077,1.077,0,0,0,.379,1.315c.266.246.5.524.753.788a7.433,7.433,0,0,0,1.917,4.294c.479.56,1.162.889,1.6,1.488a6.677,6.677,0,0,1-6.916-5.617,6.717,6.717,0,0,1,5.043-7.545A4.952,4.952,0,0,1-383.434,584.928Z" transform="translate(413.383 -542.872)" fill="#5fcb93"/>
    <path id="Trazado_611957" data-name="Trazado 611957" d="M-302.046,558.32c-3.418,0-6.835-.009-10.253.011-.467,0-.633-.082-.623-.6.036-1.784.028-3.569,0-5.353-.006-.431.123-.541.547-.541q10.318.017,20.636-.005c.422,0,.552.1.546.538-.024,1.784-.029,3.569,0,5.353.008.487-.114.612-.606.609-3.418-.023-6.835-.012-10.253-.012Zm-.005-4.206h-3.136c-1.329,0-2.657,0-3.986,0a.949.949,0,0,0-.978.614.933.933,0,0,0,.193,1.031,1.255,1.255,0,0,0,1.023.32q5.1-.006,10.193,0c1.241,0,2.483.008,3.724,0a.985.985,0,0,0,1.11-.94c.025-.632-.4-1.015-1.151-1.017Q-298.556,554.108-302.052,554.114Z" transform="translate(356.184 -518.476)" fill="#5bcdf5"/>
    <path id="Trazado_611958" data-name="Trazado 611958" d="M-281.567,646.546c.007,1.977,0,3.954.03,5.931.009.548-.323.449-.636.449q-5.608,0-11.215,0c-2.151,0-4.3-.017-6.453-.026q0-1.135,0-2.269,7.18,0,14.36.008a2.181,2.181,0,0,0,.455-.028.9.9,0,0,0,.77-1.037c-.037-.56-.454-.891-1.154-.9-1.5-.012-3-.007-4.5,0q-4.96.011-9.92.028,0-1.129-.007-2.259,6.143-.01,12.286-.019c1.96,0,3.921.01,5.881.016Z" transform="translate(346.531 -588.291)" fill="#ea6039"/>
    <path id="Trazado_611959" data-name="Trazado 611959" d="M-309.488,603.3q0,1.127-.009,2.254c-1,.008-2,0-3,.03-.363.011-.426-.133-.424-.454q.018-2.8,0-5.609c0-.321.069-.473.43-.462,1,.031,2,.03,3,.042q0,1.131-.005,2.262a1,1,0,0,0-.713.97A1.041,1.041,0,0,0-309.488,603.3Z" transform="translate(356.182 -553.334)" fill="#e2ba3f"/>
    <path id="Trazado_611960" data-name="Trazado 611960" d="M-309.487,646.408q0,1.129.007,2.259a1.024,1.024,0,0,0-.728.964.994.994,0,0,0,.721.966q0,1.134,0,2.269c-1,.011-2,.01-2.993.038-.359.01-.434-.146-.432-.465q.015-2.8,0-5.6c0-.317.065-.472.428-.462C-311.483,646.406-310.485,646.4-309.487,646.408Z" transform="translate(356.173 -588.259)" fill="#d14e31"/>
    <path id="Trazado_611961" data-name="Trazado 611961" d="M-230.362,646.583l-.111-.108C-230.385,646.46-230.35,646.5-230.362,646.583Z" transform="translate(295.326 -588.328)" fill="#d14e31"/>
    <path id="Trazado_611962" data-name="Trazado 611962" d="M-301.849,609.783a1.041,1.041,0,0,1-.723-.966,1,1,0,0,1,.713-.97q7.213,0,14.425,0c.75,0,1.148.331,1.167.931.02.625-.4,1.027-1.159,1.028Q-294.637,609.8-301.849,609.783Z" transform="translate(348.544 -559.815)" fill="#050504"/>
    <path id="Trazado_611963" data-name="Trazado 611963" d="M-357.98,456c1.048-.191,1.343-.036,1.681,1a6.63,6.63,0,0,1-1.326,6.815,6.709,6.709,0,0,1-7.018,2.15,6.963,6.963,0,0,1-5.1-6.648,6.953,6.953,0,0,1,4.611-6.548c.163-.058.326-.118.489-.177a7.31,7.31,0,0,1,3.655.019c1.1.3,1.283.551,1.187,1.69a1.521,1.521,0,0,1-1.632.244,4.266,4.266,0,0,0-2.179-.132,4.952,4.952,0,0,0-3.733,6.887A4.982,4.982,0,0,0-361,463.9a4.938,4.938,0,0,0,2.835-6.274A1.475,1.475,0,0,1-357.98,456Z" transform="translate(398.125 -445.056)" fill="#030303"/>
    <path id="Trazado_611964" data-name="Trazado 611964" d="M-380.636,603.489c-.25-.264-.487-.542-.753-.787a1.077,1.077,0,0,1-.379-1.315,1.041,1.041,0,0,1,1.19-.557,20.873,20.873,0,0,1,2.254,2.163c.312.312.493.358.818.014.868-.916,1.773-1.8,2.669-2.684.564-.558,1.168-.612,1.593-.159s.371.972-.194,1.541q-1.793,1.807-3.6,3.6c-.642.636-1.092.631-1.733.008Q-379.706,604.4-380.636,603.489Z" transform="translate(407.073 -553.922)" fill="#050504"/>
    <path id="Trazado_611965" data-name="Trazado 611965" d="M-352.459,461.445a1.475,1.475,0,0,0-.19,1.624,4.938,4.938,0,0,1-2.835,6.274,4.982,4.982,0,0,1-6.343-2.6,4.952,4.952,0,0,1,3.733-6.887,4.266,4.266,0,0,1,2.179.132,1.521,1.521,0,0,0,1.632-.244A3.468,3.468,0,0,1-352.459,461.445Zm-4.84,6.29a2.951,2.951,0,0,0,3.019-3,2.975,2.975,0,0,0-3-3.032,2.96,2.96,0,0,0-3.042,3.053A2.939,2.939,0,0,0-357.3,467.736Z" transform="translate(392.605 -450.5)" fill="#435657"/>
    <path id="Trazado_611966" data-name="Trazado 611966" d="M-294.46,560.532q3.5,0,6.991,0c.755,0,1.177.384,1.151,1.017a.985.985,0,0,1-1.11.94c-1.241.012-2.483,0-3.724,0q-5.1,0-10.193,0a1.254,1.254,0,0,1-1.023-.321.933.933,0,0,1-.193-1.031.949.949,0,0,1,.978-.614c1.329,0,2.657,0,3.986,0Z" transform="translate(348.591 -524.894)" fill="#030303"/>
    <path id="Trazado_611967" data-name="Trazado 611967" d="M-301.876,656.962A.994.994,0,0,1-302.6,656a1.024,1.024,0,0,1,.727-.964q4.96-.014,9.921-.027c1.5,0,3-.008,4.5,0,.7.006,1.117.336,1.154.9a.9.9,0,0,1-.77,1.037,2.173,2.173,0,0,1-.455.028Q-294.7,656.967-301.876,656.962Z" transform="translate(348.562 -594.624)" fill="#050504"/>
    <path id="Trazado_611968" data-name="Trazado 611968" d="M-351.828,473.249a2.939,2.939,0,0,1-3.026-2.984,2.96,2.96,0,0,1,3.042-3.053,2.975,2.975,0,0,1,3,3.032A2.951,2.951,0,0,1-351.828,473.249Zm1.063-3.022a1.048,1.048,0,0,0-1.08-1.057,1.045,1.045,0,0,0-1.054,1.082,1.043,1.043,0,0,0,1.079,1.055A1.043,1.043,0,0,0-350.766,470.227Z" transform="translate(387.134 -456.014)" fill="#030303"/>
    <path id="Trazado_611969" data-name="Trazado 611969" d="M-345.256,475.748a1.043,1.043,0,0,1-1.054,1.08,1.043,1.043,0,0,1-1.079-1.055,1.045,1.045,0,0,1,1.054-1.082A1.047,1.047,0,0,1-345.256,475.748Z" transform="translate(381.624 -461.534)" fill="#f7f9fa"/>
  </g>
  <rect id="Rectángulo_305741" data-name="Rectángulo 305741" width="82.563" height="82.563" fill="none"/>
</svg>
