<svg id="Grupo_930466" data-name="Grupo 930466" xmlns="http://www.w3.org/2000/svg" width="85" height="85" viewBox="0 0 85 85">
  <rect id="Rectángulo_305741" data-name="Rectángulo 305741" width="85" height="85" fill="none"/>
  <g id="Grupo_930469" data-name="Grupo 930469" transform="translate(10.45 10.489)">
    <path id="Trazado_611997" data-name="Trazado 611997" d="M377.84,664.958a15.171,15.171,0,0,1,4.626-10.843,1.515,1.515,0,0,0,.583-1.433,2.482,2.482,0,0,1,.933-2.218.739.739,0,0,0,.252-.906q-1.724-6.487-3.414-12.982a.692.692,0,0,0-.6-.577,3.072,3.072,0,0,1,1.236-6.016.515.515,0,0,0,.606-.253q2.163-2.991,4.339-5.971a.585.585,0,0,0,.067-.717,3.08,3.08,0,1,1,5.666-2.365.617.617,0,0,0,.56.468q3.34.5,6.677,1.023a.786.786,0,0,0,.894-.336,3.005,3.005,0,0,1,4.172-.64.848.848,0,0,0,.847.154,15.123,15.123,0,0,1,12.786,1.633.744.744,0,0,0,.843.025,2.984,2.984,0,0,1,3.707.844.649.649,0,0,0,.785.266q5.935-1.373,11.88-2.7a.734.734,0,0,0,.639-.611,3.043,3.043,0,0,1,3.019-2.256,3.11,3.11,0,0,1,2.95,2.443,3.018,3.018,0,0,1-1.628,3.394.662.662,0,0,0-.434.7c-.016,1.44-.044,2.88-.109,4.318a.78.78,0,0,0,.525.885,3.059,3.059,0,0,1-2.614,5.531.693.693,0,0,0-.834.118q-1.939,1.533-3.905,3.031a.677.677,0,0,0-.3.782,2.733,2.733,0,0,1-.6,2.4.614.614,0,0,0-.064.77q1.689,3.619,3.343,7.255a.683.683,0,0,0,.691.456,3.027,3.027,0,0,1,2.632,4.243.737.737,0,0,0,.164.829c3.793,5.275,4.338,10.86,1.345,16.639a14.928,14.928,0,0,1-10.123,7.8.807.807,0,0,0-.656.544,3.058,3.058,0,0,1-5.548.354.745.745,0,0,0-.765-.458q-4.822.024-9.645,0a.742.742,0,0,0-.763.458,2.9,2.9,0,0,1-2.889,1.6,2.934,2.934,0,0,1-2.672-1.952,2.881,2.881,0,0,1,.646-3.234.679.679,0,0,0,.168-.815c-.331-.942-.634-1.894-.958-2.838-.057-.164-.04-.413-.275-.443s-.287.206-.389.352a15.518,15.518,0,0,1-28.391-8.75Zm25.836,6.319v2.23c.881-.776.911-.915.449-1.733-.092-.162-.161-.336-.241-.5l-.182-.91a3.027,3.027,0,0,1,2.588-3.126c.277-.07.342-.205.379-.467a13.222,13.222,0,0,0-.785-6.568,13.482,13.482,0,0,0-16.181-8.043.568.568,0,0,0-.5.621,3.062,3.062,0,0,1-4.521,2.612.509.509,0,0,0-.728.137,13.192,13.192,0,0,0-3.211,14.174,11.336,11.336,0,0,0,2.256,3.9c0-.7-.006-1.256,0-1.813a4.226,4.226,0,0,1,3.251-4.275c1.18-.34,2.362-.67,3.542-1.011.152-.044.339-.038.433-.2a2.024,2.024,0,0,0-.276-1.5,4.956,4.956,0,0,1-1.745-3.736c-.011-.876-.017-1.753.033-2.627a5.107,5.107,0,0,1,4.032-4.6,5.221,5.221,0,0,1,5.526,2.417,7.913,7.913,0,0,1,.737,4,5.54,5.54,0,0,1-1.858,4.637,1.041,1.041,0,0,0,.388,1.647c1.12.322,2.236.658,3.36.964a4.24,4.24,0,0,1,3.1,2.887Zm19.689-43.147-.145-.036.056.128c.051.113.1.229.155.338a15.135,15.135,0,0,1,1.492,11.419,15.449,15.449,0,0,1-17.48,11.437,15.262,15.262,0,0,1-12.324-10.694c-.061-.176-.044-.41-.305-.528l-6.055,10.087a14.974,14.974,0,0,1,6.713-.549,15.209,15.209,0,0,1,11.746,8.438,14.41,14.41,0,0,1,1.461,9.036.821.821,0,0,0,.245.832,2.975,2.975,0,0,1,.074,4.349.57.57,0,0,0-.183.656q.535,1.53,1.035,3.073a.489.489,0,0,0,.471.4,2.867,2.867,0,0,1,2.333,1.668.569.569,0,0,0,.625.351c1.67-.011,3.34,0,5.009-.01.1,0,.253.088.3-.1-.106-.069-.212-.136-.316-.206-5.29-3.558-7.824-8.51-7.2-14.868a14.751,14.751,0,0,1,6.747-11.116,14.987,14.987,0,0,1,11.26-2.407,20.076,20.076,0,0,1,4.213,1.324l.129.047-.052-.124c-1.138-2.5-2.281-4.988-3.408-7.488-.119-.264-.309-.222-.511-.235a2.964,2.964,0,0,1-2.786-2.051,3.065,3.065,0,0,1,4.177-3.816.6.6,0,0,0,.729-.077q2.011-1.59,4.046-3.151a.611.611,0,0,0,.251-.616.953.953,0,0,0-.809-.992c-.576-.167-1.124-.434-1.686-.651Q428.37,630.057,423.365,628.129Zm13.453,45.4a13.274,13.274,0,0,0,.234-16.677.432.432,0,0,0-.522-.165,3.038,3.038,0,0,1-3.83-3.105.521.521,0,0,0-.347-.561,13.266,13.266,0,0,0-8.522-1.122,13.421,13.421,0,0,0-9.565,18.773,11.047,11.047,0,0,0,1.857,2.884c0-.733-.013-1.309,0-1.885a4.159,4.159,0,0,1,3.215-4.161c1.18-.34,2.362-.671,3.542-1.009.155-.044.339-.047.435-.207a1.984,1.984,0,0,0-.272-1.5,4.861,4.861,0,0,1-1.7-3.177,14.752,14.752,0,0,1,.024-3.5,5.133,5.133,0,0,1,4.192-4.32,5.187,5.187,0,0,1,5.427,2.619,8.016,8.016,0,0,1,.645,3.892,5.412,5.412,0,0,1-1.858,4.572c-.414.357-.17.861-.189,1.3-.015.344.346.283.563.347,1.138.335,2.28.656,3.419.985a4.224,4.224,0,0,1,3.25,4.275C436.825,672.322,436.819,672.862,436.819,673.529Zm-16.588-29c.146-.042.17-.041.179-.053a13.409,13.409,0,0,0,.943-15.381.565.565,0,0,0-.661-.275,3.052,3.052,0,0,1-3.488-3.492.567.567,0,0,0-.328-.681,13.187,13.187,0,0,0-10.524-1.481c-.4.106-.585.233-.611.723a3.052,3.052,0,0,1-4.46,2.562.557.557,0,0,0-.79.117,13.581,13.581,0,0,0-3.806,7.308.468.468,0,0,0,.261.589,3.03,3.03,0,0,1,.366,5.092.518.518,0,0,0-.181.678,13.585,13.585,0,0,0,1.639,3.354,3.275,3.275,0,0,0,.784.929c0-.635-.01-1.176,0-1.716a4.18,4.18,0,0,1,3.267-4.252c1.038-.3,2.085-.582,3.118-.9.293-.09.783-.033.82-.4.052-.517.2-1.068-.361-1.535a4.475,4.475,0,0,1-1.608-3.084,16.878,16.878,0,0,1,.014-3.438,5.216,5.216,0,0,1,4.1-4.356,5.278,5.278,0,0,1,5.456,2.469,7.9,7.9,0,0,1,.722,3.939,5.567,5.567,0,0,1-1.872,4.695,1.045,1.045,0,0,0,.414,1.639c1.161.331,2.323.655,3.481,1a4.072,4.072,0,0,1,3.113,3.781C420.284,643.063,420.23,643.776,420.23,644.534Zm-35.137,28.9c0,.584.016,1.169-.007,1.752a.772.772,0,0,0,.351.728,13.451,13.451,0,0,0,15.884-.02.738.738,0,0,0,.322-.68c-.015-1.147,0-2.295-.009-3.442a2.152,2.152,0,0,0-1.743-2.274c-1.238-.365-2.483-.705-3.718-1.077a.662.662,0,0,0-.771.2c-.513.548-1.081,1.046-1.58,1.605-.331.371-.545.443-.908.023-.5-.582-1.1-1.087-1.624-1.649a.623.623,0,0,0-.717-.189c-1.278.376-2.564.722-3.84,1.106a2.119,2.119,0,0,0-1.639,2.226C385.087,672.311,385.093,672.875,385.093,673.438Zm33.087-28.914c0-.542,0-1.084,0-1.626a2.155,2.155,0,0,0-1.785-2.364c-1.216-.362-2.442-.693-3.656-1.062a.712.712,0,0,0-.82.233c-.559.591-1.156,1.144-1.714,1.735-.229.242-.368.235-.594,0-.574-.6-1.186-1.174-1.76-1.778a.626.626,0,0,0-.714-.2c-1.277.378-2.562.727-3.836,1.113a2.106,2.106,0,0,0-1.661,2.266c-.007,1.126.014,2.252-.011,3.377a.822.822,0,0,0,.4.761,13.39,13.39,0,0,0,15,.539c.826-.5,1.362-1.023,1.161-2.055A4.981,4.981,0,0,1,418.18,644.524Zm16.546,28.9c0-.542,0-1.085,0-1.627a2.131,2.131,0,0,0-1.718-2.29c-1.238-.366-2.485-.7-3.719-1.077a.707.707,0,0,0-.819.235c-.56.59-1.159,1.143-1.716,1.736-.233.248-.371.223-.591-.009-.576-.6-1.187-1.174-1.761-1.779a.629.629,0,0,0-.718-.2c-1.278.376-2.564.725-3.84,1.108a2.142,2.142,0,0,0-1.656,2.219c-.015,1.168,0,2.336-.008,3.5a.622.622,0,0,0,.269.577,13.977,13.977,0,0,0,4.888,2.3.446.446,0,0,0,.563-.235,3.02,3.02,0,0,1,5.126,0,.447.447,0,0,0,.564.235,16.5,16.5,0,0,0,4.071-1.714,1.8,1.8,0,0,0,1.075-2.047A5.556,5.556,0,0,1,434.726,673.421Zm-51.147-38.576c-.345,0-.868.781-.765,1.176q1.678,6.391,3.367,12.78c.073.276-.012.717.355.779.427.072.461-.415.618-.673,1.8-2.969,3.569-5.958,5.38-8.921.338-.552.579-1.016.087-1.59a.965.965,0,0,1-.2-.58c0-.392-.211-.518-.546-.612-2.641-.743-5.277-1.5-7.915-2.253Zm40.506-8.771a.942.942,0,0,0,.5.274q5.719,2.229,11.439,4.456a1.382,1.382,0,0,0,1.649-1.125c.029-1.354.008-2.711.082-4.062.038-.7-.009-1.257-.758-1.533a.677.677,0,0,1-.324-.285.814.814,0,0,0-1.149-.344,2.639,2.639,0,0,1-.362.094Zm-30.714,8.747c-.058-.158-.1-.276-.144-.391-1.238-3.086-2.486-6.17-3.7-9.264a.7.7,0,0,0-.689-.477.693.693,0,0,0-.784.3q-1.88,2.652-3.824,5.258c-.45.6-.89,1.14-.346,1.9a.678.678,0,0,1,.087.361.384.384,0,0,0,.321.4q4.171,1.191,8.34,2.385C393.093,635.423,393.155,635.011,393.372,634.822Zm36.187,25.087c0-.4.025-.794,0-1.188a3.135,3.135,0,0,0-3.075-2.953,3.089,3.089,0,0,0-3.077,2.795,11.372,11.372,0,0,0,.012,2.807,3.022,3.022,0,0,0,2.81,2.641,3.069,3.069,0,0,0,3.231-2.3A6.992,6.992,0,0,0,429.559,659.908Zm-33.06.061c-.03-.516-.031-1.018-.094-1.513a3.069,3.069,0,0,0-6.02-.368,8.429,8.429,0,0,0,.006,3.664,3,3,0,0,0,3.249,2.254,3.025,3.025,0,0,0,2.763-2.619C396.465,660.914,396.469,660.433,396.5,659.969ZM406.794,630.9a11.593,11.593,0,0,0,.065,1.56,3.085,3.085,0,0,0,3.049,2.613,3.04,3.04,0,0,0,3.041-2.611,10.406,10.406,0,0,0,0-3.055,3.078,3.078,0,0,0-3-2.595,3.124,3.124,0,0,0-3.079,2.589A9.882,9.882,0,0,0,406.794,630.9Zm-12,1.879a15.771,15.771,0,0,1,4.645-8.054c.1-.1.265-.186.183-.355-.071-.149-.256-.121-.39-.142-2.282-.356-4.565-.711-6.85-1.049a.912.912,0,0,0-.947,1.212q1.456,3.644,2.919,7.285C394.481,632,394.608,632.316,394.793,632.78Zm1.664,4.366a1.03,1.03,0,1,0-2.06.048,1.03,1.03,0,0,0,2.06-.048ZM385.1,652.665a1.052,1.052,0,0,0,1.031,1.033,1.031,1.031,0,0,0,0-2.061A1.05,1.05,0,0,0,385.1,652.665Zm25.824,26.877a1.014,1.014,0,1,0-2.026.053,1.013,1.013,0,0,0,2.026-.053Zm9.342-52.739a1.068,1.068,0,0,0,1.024-1.049,1.032,1.032,0,0,0-2.062.019A1.056,1.056,0,0,0,420.264,626.8Zm-39.3,7.245a1.074,1.074,0,0,0,1-1.067,1.054,1.054,0,0,0-1.078-.985,1.018,1.018,0,0,0-.959,1.028A1.03,1.03,0,0,0,380.965,634.049Zm58.919-1.005a1.024,1.024,0,0,0-1-1.053,1.065,1.065,0,0,0-1.038,1.033,1.081,1.081,0,0,0,.986,1.024A1.026,1.026,0,0,0,439.885,633.044Zm-10.344,6.182a1.029,1.029,0,0,0,.08,2.057,1.042,1.042,0,0,0,.964-1.034A1.055,1.055,0,0,0,429.54,639.226Zm10.345-17.588a.993.993,0,0,0-1.032-1,1.02,1.02,0,0,0-1.005.984,1.064,1.064,0,0,0,1.017,1.049A1.019,1.019,0,0,0,439.886,621.638ZM407.815,670.25a.991.991,0,0,0-1.022-1.012,1.013,1.013,0,0,0-1.011,1.038,1.04,1.04,0,0,0,1.006.988A1,1,0,0,0,407.815,670.25Zm-4.136-46.54a1.016,1.016,0,0,0-1.027-1.027,1.056,1.056,0,0,0-1.007,1.058,1.026,1.026,0,0,0,1.008.984A1,1,0,0,0,403.678,623.711Zm23.793,55.858a1.01,1.01,0,0,0-1.012-1.039,1.039,1.039,0,0,0-1.02,1.04,1,1,0,0,0,.99.993A.99.99,0,0,0,427.472,679.569Zm8.325-26.878a1.034,1.034,0,0,0-1.058,1,1.031,1.031,0,0,0,2.06.05A1.029,1.029,0,0,0,435.8,652.691Zm-46.585-30.022a1.045,1.045,0,0,0,1.03-1.031,1.01,1.01,0,0,0-.983-1,.993.993,0,0,0-1.05.984A1.015,1.015,0,0,0,389.212,622.668Zm3.418,43.342c-.263-.083-.32.119-.3.42a3.077,3.077,0,0,0,.95,1.237.2.2,0,0,0,.217-.062,11.277,11.277,0,0,0,.821-.845.654.654,0,0,0,.032-.654c-.089-.2-.337-.072-.506-.042A3.049,3.049,0,0,1,392.63,666.011Zm33.078,0c-.221-.066-.284.089-.28.379.01.646.556.91.946,1.216.278.219.443-.294.68-.449a1.793,1.793,0,0,0,.309-.3.684.684,0,0,0,.094-.705c-.092-.276-.359-.1-.536-.076A3.3,3.3,0,0,1,425.708,666.009Zm-16.574-28.964c-.264-.084-.29.187-.245.486.086.571.62.792.954,1.168.057.065.154.007.216-.056.262-.266.536-.523.785-.8a.661.661,0,0,0,.063-.654c-.075-.235-.329-.106-.49-.084A3.689,3.689,0,0,1,409.134,637.044Z" transform="translate(-377.838 -618.538)" fill="#030303"/>
    <path id="Trazado_611998" data-name="Trazado 611998" d="M541.876,772.338c0-.667.006-1.207,0-1.747a4.224,4.224,0,0,0-3.25-4.275c-1.139-.33-2.281-.651-3.419-.985-.217-.064-.578,0-.563-.347.019-.434-.225-.939.189-1.3a5.411,5.411,0,0,0,1.858-4.572,8.016,8.016,0,0,0-.645-3.892,5.187,5.187,0,0,0-5.427-2.619,5.133,5.133,0,0,0-4.192,4.321,14.747,14.747,0,0,0-.024,3.5,4.861,4.861,0,0,0,1.7,3.177,1.984,1.984,0,0,1,.272,1.5c-.1.159-.279.162-.435.207-1.18.338-2.362.669-3.542,1.009a4.159,4.159,0,0,0-3.215,4.161c-.015.576,0,1.152,0,1.885a11.049,11.049,0,0,1-1.857-2.884,13.422,13.422,0,0,1,9.565-18.774,13.268,13.268,0,0,1,8.522,1.122.521.521,0,0,1,.347.561,3.038,3.038,0,0,0,3.83,3.105.432.432,0,0,1,.522.165A13.274,13.274,0,0,1,541.876,772.338Z" transform="translate(-482.895 -717.347)" fill="#e3e6e9"/>
    <path id="Trazado_611999" data-name="Trazado 611999" d="M409.748,769.173a4.24,4.24,0,0,0-3.1-2.887c-1.124-.306-2.24-.642-3.36-.964a1.041,1.041,0,0,1-.388-1.647,5.54,5.54,0,0,0,1.858-4.637,7.913,7.913,0,0,0-.737-4,5.221,5.221,0,0,0-5.526-2.417,5.107,5.107,0,0,0-4.032,4.6c-.05.873-.044,1.751-.033,2.627a4.955,4.955,0,0,0,1.745,3.736,2.025,2.025,0,0,1,.276,1.5c-.093.165-.281.159-.433.2-1.18.341-2.362.671-3.542,1.011a4.226,4.226,0,0,0-3.251,4.275c-.007.557,0,1.114,0,1.813a11.337,11.337,0,0,1-2.257-3.9,13.193,13.193,0,0,1,3.211-14.174.509.509,0,0,1,.728-.137,3.062,3.062,0,0,0,4.52-2.612.568.568,0,0,1,.5-.621,13.482,13.482,0,0,1,16.181,8.043,13.222,13.222,0,0,1,.785,6.568c-.037.262-.1.4-.379.467a3.027,3.027,0,0,0-2.588,3.126Z" transform="translate(-384.058 -717.329)" fill="#e4e7ea"/>
    <path id="Trazado_612000" data-name="Trazado 612000" d="M476.442,656.9c0-.758.053-1.47-.01-2.172a4.071,4.071,0,0,0-3.113-3.781c-1.157-.343-2.32-.667-3.481-1a1.045,1.045,0,0,1-.414-1.638,5.567,5.567,0,0,0,1.872-4.695,7.9,7.9,0,0,0-.722-3.939,5.278,5.278,0,0,0-5.456-2.468,5.216,5.216,0,0,0-4.1,4.356A16.875,16.875,0,0,0,461,645a4.475,4.475,0,0,0,1.608,3.084c.561.467.412,1.018.361,1.535-.037.365-.527.308-.82.4-1.034.319-2.08.6-3.118.9a4.18,4.18,0,0,0-3.267,4.252c-.012.54,0,1.081,0,1.716a3.271,3.271,0,0,1-.784-.929,13.587,13.587,0,0,1-1.639-3.354.518.518,0,0,1,.181-.677,3.03,3.03,0,0,0-.366-5.092.469.469,0,0,1-.261-.589,13.58,13.58,0,0,1,3.806-7.308.557.557,0,0,1,.79-.117,3.052,3.052,0,0,0,4.46-2.562c.026-.49.211-.617.611-.723a13.187,13.187,0,0,1,10.524,1.481.568.568,0,0,1,.328.681,3.052,3.052,0,0,0,3.488,3.492.565.565,0,0,1,.661.275,13.409,13.409,0,0,1-.943,15.381C476.612,656.858,476.588,656.857,476.442,656.9Z" transform="translate(-434.049 -630.903)" fill="#e3e6e9"/>
    <path id="Trazado_612001" data-name="Trazado 612001" d="M406.731,822.222c0-.563-.007-1.126,0-1.69a2.119,2.119,0,0,1,1.639-2.226c1.275-.384,2.562-.731,3.84-1.106a.623.623,0,0,1,.717.189c.528.562,1.12,1.067,1.624,1.649.363.42.577.348.908-.023.5-.56,1.067-1.057,1.58-1.605a.661.661,0,0,1,.771-.2c1.236.372,2.48.712,3.718,1.077a2.152,2.152,0,0,1,1.743,2.274c.012,1.147-.006,2.295.009,3.442a.738.738,0,0,1-.322.68,13.451,13.451,0,0,1-15.883.02.772.772,0,0,1-.351-.728C406.747,823.39,406.731,822.806,406.731,822.222Z" transform="translate(-399.476 -767.321)" fill="#83d2ee"/>
    <path id="Trazado_612002" data-name="Trazado 612002" d="M489.209,706.871a4.985,4.985,0,0,0,.009.936c.2,1.032-.336,1.555-1.161,2.055a13.39,13.39,0,0,1-15-.539.822.822,0,0,1-.4-.761c.025-1.125,0-2.251.011-3.377a2.106,2.106,0,0,1,1.661-2.266c1.274-.386,2.56-.735,3.836-1.113a.626.626,0,0,1,.714.2c.574.6,1.186,1.173,1.76,1.778.226.237.365.245.594,0,.558-.591,1.156-1.144,1.714-1.735a.712.712,0,0,1,.82-.233c1.214.369,2.439.7,3.656,1.062a2.155,2.155,0,0,1,1.784,2.364C489.211,705.786,489.209,706.329,489.209,706.871Z" transform="translate(-448.866 -680.885)" fill="#ed8773"/>
    <path id="Trazado_612003" data-name="Trazado 612003" d="M555.159,822.206a5.564,5.564,0,0,0,.008.938,1.8,1.8,0,0,1-1.075,2.047,16.5,16.5,0,0,1-4.071,1.714.447.447,0,0,1-.564-.235,3.02,3.02,0,0,0-5.126,0,.446.446,0,0,1-.563.235,13.976,13.976,0,0,1-4.888-2.3.622.622,0,0,1-.269-.577c.01-1.168-.007-2.337.008-3.5a2.143,2.143,0,0,1,1.656-2.219c1.276-.383,2.562-.732,3.84-1.108a.629.629,0,0,1,.718.2c.574.605,1.185,1.175,1.761,1.779.221.232.358.257.591.009.557-.593,1.156-1.146,1.716-1.736a.707.707,0,0,1,.82-.235c1.234.377,2.481.712,3.719,1.077a2.131,2.131,0,0,1,1.718,2.29C555.164,821.122,555.159,821.664,555.159,822.206Z" transform="translate(-498.27 -767.323)" fill="#bad989"/>
    <path id="Trazado_612004" data-name="Trazado 612004" d="M565.345,771.052a6.989,6.989,0,0,1-.1,1.805,3.069,3.069,0,0,1-3.231,2.3,3.022,3.022,0,0,1-2.81-2.641,11.367,11.367,0,0,1-.012-2.807,3.089,3.089,0,0,1,3.077-2.795,3.135,3.135,0,0,1,3.075,2.953C565.37,770.258,565.345,770.656,565.345,771.052Z" transform="translate(-513.624 -729.682)" fill="#e8ceb5"/>
    <path id="Trazado_612005" data-name="Trazado 612005" d="M433.364,771.117c-.03.464-.034.945-.1,1.418a3.025,3.025,0,0,1-2.763,2.619,3,3,0,0,1-3.249-2.254,8.426,8.426,0,0,1-.006-3.664,3.069,3.069,0,0,1,6.02.368C433.333,770.1,433.333,770.6,433.364,771.117Z" transform="translate(-414.702 -729.686)" fill="#e8ceb5"/>
    <path id="Trazado_612006" data-name="Trazado 612006" d="M493.242,655.611a9.776,9.776,0,0,1,.07-1.5,3.124,3.124,0,0,1,3.079-2.589,3.078,3.078,0,0,1,3,2.595,10.406,10.406,0,0,1,0,3.055,3.04,3.04,0,0,1-3.041,2.61,3.085,3.085,0,0,1-3.049-2.613A11.484,11.484,0,0,1,493.242,655.611Z" transform="translate(-464.285 -643.247)" fill="#e8ceb5"/>
    <path id="Trazado_612007" data-name="Trazado 612007" d="M445.89,689.671a1.03,1.03,0,0,1-2.06.048,1.03,1.03,0,1,1,2.06-.048Z" transform="translate(-427.271 -671.062)" fill="#eed07b"/>
    <path id="Trazado_612008" data-name="Trazado 612008" d="M406.773,751.48a1.05,1.05,0,0,1,1.036-1.028,1.031,1.031,0,0,1,0,2.061A1.052,1.052,0,0,1,406.773,751.48Z" transform="translate(-399.513 -717.353)" fill="#eed07b"/>
    <path id="Trazado_612009" data-name="Trazado 612009" d="M503.643,858.644a1.013,1.013,0,0,1-2.026.053,1.014,1.014,0,1,1,2.026-.053Z" transform="translate(-470.558 -797.639)" fill="#eed07b"/>
    <path id="Trazado_612010" data-name="Trazado 612010" d="M543.825,645.41a1.056,1.056,0,0,1-1.038-1.03,1.032,1.032,0,0,1,2.062-.019A1.069,1.069,0,0,1,543.825,645.41Z" transform="translate(-501.398 -637.144)" fill="#eed07b"/>
    <path id="Trazado_612011" data-name="Trazado 612011" d="M387.22,674.224a1.03,1.03,0,0,1-1.033-1.024,1.018,1.018,0,0,1,.959-1.028,1.054,1.054,0,0,1,1.078.985A1.074,1.074,0,0,1,387.22,674.224Z" transform="translate(-384.092 -658.713)" fill="#eed07b"/>
    <path id="Trazado_612012" data-name="Trazado 612012" d="M619.04,673.208a1.026,1.026,0,0,1-1.051,1,1.081,1.081,0,0,1-.986-1.024,1.065,1.065,0,0,1,1.038-1.033A1.024,1.024,0,0,1,619.04,673.208Z" transform="translate(-556.993 -658.702)" fill="#eed07b"/>
    <path id="Trazado_612013" data-name="Trazado 612013" d="M580.95,700.987a1.055,1.055,0,0,1,1.043,1.023,1.042,1.042,0,0,1-.964,1.034,1.029,1.029,0,0,1-.08-2.057Z" transform="translate(-529.247 -680.299)" fill="#eed07b"/>
    <path id="Trazado_612014" data-name="Trazado 612014" d="M619.041,627.9a1.019,1.019,0,0,1-1.02,1.031A1.064,1.064,0,0,1,617,627.881a1.02,1.02,0,0,1,1.005-.984A.993.993,0,0,1,619.041,627.9Z" transform="translate(-556.993 -624.799)" fill="#eed07b"/>
    <path id="Trazado_612015" data-name="Trazado 612015" d="M491.237,821.612a1,1,0,0,1-1.028,1.015,1.04,1.04,0,0,1-1.006-.988,1.013,1.013,0,0,1,1.011-1.038A.991.991,0,0,1,491.237,821.612Z" transform="translate(-461.26 -769.9)" fill="#eed07b"/>
    <path id="Trazado_612016" data-name="Trazado 612016" d="M474.75,636.087a1,1,0,0,1-1.026,1.015,1.026,1.026,0,0,1-1.008-.984,1.056,1.056,0,0,1,1.007-1.058A1.016,1.016,0,0,1,474.75,636.087Z" transform="translate(-448.909 -630.915)" fill="#eed07b"/>
    <path id="Trazado_612017" data-name="Trazado 612017" d="M569.586,858.671a.99.99,0,0,1-1.041.994,1,1,0,0,1-.99-.993,1.039,1.039,0,0,1,1.019-1.04A1.01,1.01,0,0,1,569.586,858.671Z" transform="translate(-519.952 -797.639)" fill="#eed07b"/>
    <path id="Trazado_612018" data-name="Trazado 612018" d="M605.67,754.65a1.029,1.029,0,0,1,1,1.052,1.031,1.031,0,0,1-2.06-.05A1.034,1.034,0,0,1,605.67,754.65Z" transform="translate(-547.711 -720.497)" fill="#eed07b"/>
    <path id="Trazado_612019" data-name="Trazado 612019" d="M420.175,628.931a1.015,1.015,0,0,1-1-1.048.993.993,0,0,1,1.05-.984,1.01,1.01,0,0,1,.983,1A1.045,1.045,0,0,1,420.175,628.931Z" transform="translate(-408.8 -624.8)" fill="#eed07b"/>
    <path id="Trazado_612020" data-name="Trazado 612020" d="M435.887,807.681a3.046,3.046,0,0,0,1.216.052c.169-.03.417-.159.506.042a.654.654,0,0,1-.032.654,11.259,11.259,0,0,1-.821.845.2.2,0,0,1-.217.063,3.077,3.077,0,0,1-.95-1.237C435.567,807.8,435.624,807.6,435.887,807.681Z" transform="translate(-421.095 -760.208)" fill="#e2c9b0"/>
    <path id="Trazado_612021" data-name="Trazado 612021" d="M567.784,807.676a3.294,3.294,0,0,0,1.213.061c.177-.028.444-.2.536.076a.684.684,0,0,1-.094.706,1.8,1.8,0,0,1-.309.3c-.237.155-.4.668-.68.449-.39-.307-.936-.571-.946-1.216C567.5,807.765,567.563,807.61,567.784,807.676Z" transform="translate(-519.914 -760.205)" fill="#e2c9b0"/>
    <path id="Trazado_612022" data-name="Trazado 612022" d="M501.782,692.247a3.693,3.693,0,0,0,1.284.058c.161-.022.415-.151.49.084a.661.661,0,0,1-.063.654c-.249.279-.522.535-.785.8-.062.064-.159.121-.216.057-.335-.376-.868-.6-.954-1.168C501.493,692.434,501.518,692.163,501.782,692.247Z" transform="translate(-470.486 -673.741)" fill="#e2c9b0"/>
    <path id="Trazado_612023" data-name="Trazado 612023" d="M481.023,828.692c.08.169.149.343.241.5.462.818.433.957-.449,1.733V828.7Z" transform="translate(-454.976 -775.961)" fill="#e3e6e9"/>
    <path id="Trazado_612024" data-name="Trazado 612024" d="M480.58,825.974l-.208.008-.148-.895.174-.023Z" transform="translate(-454.533 -773.243)" fill="#939597"/>
    <path id="Trazado_612025" data-name="Trazado 612025" d="M558.761,656.746l-.056-.128.146.036Z" transform="translate(-513.323 -647.063)" fill="#f5f7f8"/>
    <path id="Trazado_612026" data-name="Trazado 612026" d="M598.929,748.17l.052.124-.129-.047Z" transform="translate(-543.396 -715.643)" fill="#f5f7f8"/>
  </g>
</svg>
