<svg id="flecha" xmlns="http://www.w3.org/2000/svg" width="65.752" height="65.738" viewBox="0 0 65.752 65.738">
  <path id="Trazado_623350" data-name="Trazado 623350" d="M-284.219,50.926A32.865,32.865,0,0,1-251.34,83.8a32.883,32.883,0,0,1-32.917,32.861,32.855,32.855,0,0,1-32.835-32.92A32.855,32.855,0,0,1-284.219,50.926Zm.007,62.891a29.964,29.964,0,0,0,30-30.023,29.9,29.9,0,0,0-30.014-30,29.872,29.872,0,0,0-29.992,30A29.971,29.971,0,0,0-284.212,113.817Z" transform="translate(317.092 -50.926)" fill="#010202"/>
  <path id="Trazado_623351" data-name="Trazado 623351" d="M-275.921,122.11a29.971,29.971,0,0,1-30.008-30.015,29.872,29.872,0,0,1,29.992-30,29.9,29.9,0,0,1,30.014,30A29.964,29.964,0,0,1-275.921,122.11Zm-.63-37.375-.114.2h-.7q-7.608,0-15.216.005a10.622,10.622,0,0,0-1.726.116,7.169,7.169,0,0,0-5.753,5.53,7.18,7.18,0,0,0,3.144,7.5,7.973,7.973,0,0,0,4.464,1.13q7.576-.008,15.152,0c.22,0,.441.02.814.038-.9.893-1.695,1.66-2.465,2.454a6.386,6.386,0,0,0,.549,9.788,6.346,6.346,0,0,0,8.56-.655q7.8-7.817,15.611-15.619a4.223,4.223,0,0,0,.012-6.281q-7.813-7.848-15.66-15.661a6.619,6.619,0,0,0-8.48-.668,6.439,6.439,0,0,0-.957,9.454C-278.443,83.006-277.474,83.85-276.551,84.735Z" transform="translate(308.801 -59.218)" fill="#f0bd51"/>
  <path id="Trazado_623352" data-name="Trazado 623352" d="M-260.027,111.577c-.923-.886-1.891-1.729-2.761-2.665a6.439,6.439,0,0,1,.957-9.454,6.619,6.619,0,0,1,8.48.668q7.853,7.808,15.66,15.661a4.223,4.223,0,0,1-.012,6.281q-7.791,7.824-15.611,15.619a6.346,6.346,0,0,1-8.56.655,6.386,6.386,0,0,1-.549-9.788c.77-.794,1.567-1.561,2.465-2.454-.373-.018-.594-.038-.814-.038q-7.576,0-15.152,0a7.973,7.973,0,0,1-4.464-1.13,7.18,7.18,0,0,1-3.144-7.5,7.169,7.169,0,0,1,5.753-5.53,10.622,10.622,0,0,1,1.726-.116q7.608-.013,15.216-.005h.7Zm-6.846,3.072v.037c-3.359,0-6.721-.084-10.076.025a4.209,4.209,0,0,0-3.439,6.092,4.316,4.316,0,0,0,4.188,2.409q9.5-.016,19,0a5.039,5.039,0,0,1,.766.039,1.4,1.4,0,0,1,.9,2.389c-.121.148-.265.278-.4.414-1.5,1.5-3.011,2.981-4.5,4.489a3.605,3.605,0,0,0-.444,4.829,3.7,3.7,0,0,0,5.721.132q7.632-7.619,15.253-15.248c.982-.982.981-1.689,0-2.67q-4.127-4.134-8.256-8.265c-2.359-2.361-4.71-4.731-7.081-7.08a3.69,3.69,0,0,0-5.626.237,3.6,3.6,0,0,0,.458,4.832c1.545,1.571,3.113,3.121,4.674,4.676a1.684,1.684,0,0,1,.61,1.286c-.036.885-.664,1.375-1.8,1.377Q-261.9,114.655-266.873,114.649Z" transform="translate(292.277 -86.06)" fill="#020202"/>
  <path id="Trazado_623353" data-name="Trazado 623353" d="M-258.669,122.8q4.975,0,9.95,0c1.141,0,1.769-.492,1.8-1.377a1.684,1.684,0,0,0-.61-1.286c-1.561-1.556-3.129-3.105-4.674-4.676a3.6,3.6,0,0,1-.458-4.832,3.69,3.69,0,0,1,5.626-.237c2.371,2.349,4.722,4.719,7.081,7.08q4.129,4.132,8.256,8.265c.98.982.981,1.688,0,2.67q-7.625,7.626-15.253,15.248a3.7,3.7,0,0,1-5.721-.132,3.605,3.605,0,0,1,.444-4.829c1.487-1.509,3-2.994,4.5-4.489.136-.136.28-.266.4-.414a1.4,1.4,0,0,0-.9-2.389,5.039,5.039,0,0,0-.766-.039q-9.5,0-19,0a4.316,4.316,0,0,1-4.189-2.409,4.209,4.209,0,0,1,3.439-6.092c3.355-.109,6.717-.025,10.076-.025Z" transform="translate(284.073 -94.21)" fill="#f8f8f8"/>
</svg>
